<svg width="1640" height="2319" viewBox="0 0 1640 2319" fill="none" xmlns="http://www.w3.org/2000/svg">
<g clip-path="url(#clip0_959_320)">
<rect width="1640" height="2319" fill="white"/>
<mask id="path-1-inside-1_959_320" fill="white">
<path fill-rule="evenodd" clip-rule="evenodd" d="M267.888 333.553C261.683 323.048 260.173 308.902 266.121 293.749C276.859 271.783 290.417 264.403 304.368 256.809C322.401 246.994 341.09 236.821 355.195 194.331C369.616 218.27 380.489 265.451 359.471 304.633C344.273 332.931 324.48 346.733 309.557 350.345C297.099 353.36 285.563 350.569 277.015 343.942L337.177 275.861L267.888 333.553Z"/>
</mask>
<path fill-rule="evenodd" clip-rule="evenodd" d="M267.888 333.553C261.683 323.048 260.173 308.902 266.121 293.749C276.859 271.783 290.417 264.403 304.368 256.809C322.401 246.994 341.09 236.821 355.195 194.331C369.616 218.27 380.489 265.451 359.471 304.633C344.273 332.931 324.48 346.733 309.557 350.345C297.099 353.36 285.563 350.569 277.015 343.942L337.177 275.861L267.888 333.553Z" fill="url(#paint0_linear_959_320)"/>
<path d="M266.121 293.749L262.728 292.417L262.781 292.28L262.846 292.148L266.121 293.749ZM267.888 333.553L270.221 336.355L266.928 339.097L264.749 335.408L267.888 333.553ZM304.368 256.809L306.111 260.011L304.368 256.809ZM355.195 194.331L351.735 193.182L354.23 185.665L358.318 192.45L355.195 194.331ZM359.471 304.633L362.684 306.356L362.683 306.358L359.471 304.633ZM309.557 350.345L310.414 353.888L309.557 350.345ZM277.015 343.942L274.782 346.823L271.709 344.441L274.283 341.527L277.015 343.942ZM337.177 275.861L334.844 273.06L339.909 278.275L337.177 275.861ZM269.515 295.081C263.938 309.287 265.444 322.247 271.027 331.699L264.749 335.408C257.922 323.849 256.407 308.517 262.728 292.417L269.515 295.081ZM306.111 260.011C292.309 267.524 279.614 274.448 269.396 295.35L262.846 292.148C274.104 269.117 288.525 261.282 302.625 253.607L306.111 260.011ZM358.655 195.48C351.475 217.108 343.036 230.783 333.889 240.343C324.762 249.881 315.112 255.112 306.111 260.011L302.625 253.607C311.657 248.691 320.368 243.927 328.62 235.302C336.852 226.699 344.81 214.044 351.735 193.182L358.655 195.48ZM356.258 302.909C376.493 265.189 366.047 219.41 352.072 196.212L358.318 192.45C373.185 217.129 384.486 265.713 362.684 306.356L356.258 302.909ZM308.699 346.801C322.375 343.492 341.422 330.535 356.259 302.908L362.683 306.358C347.125 335.327 326.585 349.975 310.414 353.888L308.699 346.801ZM279.249 341.06C286.898 346.991 297.291 349.562 308.699 346.801L310.414 353.888C296.908 357.157 284.229 354.147 274.782 346.823L279.249 341.06ZM274.283 341.527L334.445 273.447L339.909 278.275L279.747 346.356L274.283 341.527ZM339.51 278.663L270.221 336.355L265.556 330.752L334.844 273.06L339.51 278.663Z" fill="#139D3D" fill-opacity="0.47" mask="url(#path-1-inside-1_959_320)"/>
<mask id="path-3-inside-2_959_320" fill="white">
<path fill-rule="evenodd" clip-rule="evenodd" d="M253.31 333.555C259.516 323.05 261.027 308.903 255.078 293.749C244.34 271.783 230.782 264.403 216.831 256.809C198.798 246.994 180.109 236.821 166.004 194.331C151.583 218.27 140.71 265.451 161.728 304.633C176.926 332.931 196.719 346.733 211.643 350.345C224.099 353.359 235.634 350.569 244.182 343.943L184.019 275.861L253.31 333.555Z"/>
</mask>
<path fill-rule="evenodd" clip-rule="evenodd" d="M253.31 333.555C259.516 323.05 261.027 308.903 255.078 293.749C244.34 271.783 230.782 264.403 216.831 256.809C198.798 246.994 180.109 236.821 166.004 194.331C151.583 218.27 140.71 265.451 161.728 304.633C176.926 332.931 196.719 346.733 211.643 350.345C224.099 353.359 235.634 350.569 244.182 343.943L184.019 275.861L253.31 333.555Z" fill="url(#paint1_linear_959_320)"/>
<path d="M255.078 293.749L258.472 292.417L258.418 292.28L258.353 292.148L255.078 293.749ZM253.31 333.555L250.977 336.357L254.27 339.099L256.449 335.41L253.31 333.555ZM216.831 256.809L215.088 260.011L216.831 256.809ZM166.004 194.331L169.464 193.182L166.969 185.665L162.882 192.45L166.004 194.331ZM161.728 304.633L158.516 306.356L158.516 306.358L161.728 304.633ZM211.643 350.345L210.785 353.888H210.785L211.643 350.345ZM244.182 343.943L246.415 346.825L249.488 344.443L246.914 341.529L244.182 343.943ZM184.019 275.861L186.351 273.059L181.287 278.275L184.019 275.861ZM251.684 295.081C257.262 309.288 255.755 322.249 250.171 331.701L256.449 335.41C263.277 323.851 264.792 308.518 258.472 292.417L251.684 295.081ZM215.088 260.011C228.89 267.524 241.585 274.448 251.803 295.35L258.353 292.148C247.095 269.117 232.674 261.282 218.574 253.607L215.088 260.011ZM162.544 195.48C169.724 217.108 178.163 230.783 187.311 240.343C196.437 249.881 206.087 255.112 215.088 260.011L218.574 253.607C209.542 248.691 200.831 243.927 192.579 235.302C184.347 226.699 176.39 214.044 169.464 193.182L162.544 195.48ZM164.941 302.909C144.706 265.189 155.152 219.41 169.127 196.212L162.882 192.45C148.014 217.129 136.714 265.713 158.516 306.356L164.941 302.909ZM212.5 346.801C198.824 343.492 179.777 330.535 164.94 302.908L158.516 306.358C174.074 335.327 194.615 349.975 210.785 353.888L212.5 346.801ZM241.948 341.062C234.299 346.991 223.907 349.562 212.5 346.801L210.785 353.888C224.29 357.157 236.969 354.148 246.415 346.825L241.948 341.062ZM246.914 341.529L186.75 273.447L181.287 278.275L241.45 346.357L246.914 341.529ZM181.686 278.663L250.977 336.357L255.643 330.754L186.351 273.059L181.686 278.663Z" fill="#139D3D" fill-opacity="0.47" mask="url(#path-3-inside-2_959_320)"/>
<path d="M214.97 221.378C211.044 221.378 207.47 220.622 204.249 219.112C201.078 217.602 198.334 215.564 196.019 212.997C193.754 210.379 191.992 207.46 190.734 204.239C189.476 200.967 188.846 197.62 188.846 194.197C188.846 190.623 189.501 187.226 190.809 184.004C192.168 180.732 194.006 177.838 196.321 175.321C198.687 172.754 201.455 170.741 204.626 169.281C207.848 167.771 211.371 167.016 215.197 167.016C219.072 167.016 222.596 167.796 225.767 169.357C228.988 170.917 231.731 173.006 233.997 175.623C236.262 178.241 238.023 181.16 239.282 184.382C240.54 187.603 241.169 190.925 241.169 194.348C241.169 197.871 240.515 201.269 239.206 204.541C237.897 207.762 236.06 210.656 233.694 213.223C231.379 215.74 228.611 217.728 225.389 219.188C222.218 220.648 218.745 221.378 214.97 221.378ZM199.417 194.197C199.417 196.512 199.769 198.752 200.474 200.917C201.178 203.081 202.185 205.019 203.494 206.73C204.853 208.391 206.489 209.725 208.401 210.732C210.364 211.688 212.579 212.166 215.046 212.166C217.562 212.166 219.802 211.663 221.765 210.656C223.728 209.599 225.364 208.215 226.673 206.504C227.982 204.742 228.963 202.804 229.617 200.69C230.322 198.526 230.674 196.361 230.674 194.197C230.674 191.881 230.297 189.667 229.542 187.553C228.837 185.388 227.805 183.476 226.446 181.815C225.138 180.103 223.502 178.769 221.539 177.813C219.626 176.806 217.462 176.303 215.046 176.303C212.478 176.303 210.213 176.831 208.25 177.888C206.338 178.895 204.727 180.254 203.418 181.966C202.11 183.677 201.103 185.59 200.398 187.704C199.744 189.818 199.417 191.982 199.417 194.197ZM249.162 221V167.394H259.581V211.864H286.913V221H249.162ZM325.191 181.437C324.839 181.085 324.184 180.607 323.228 180.003C322.322 179.398 321.189 178.82 319.83 178.266C318.522 177.712 317.087 177.234 315.527 176.831C313.966 176.378 312.381 176.152 310.77 176.152C307.951 176.152 305.812 176.68 304.352 177.737C302.943 178.794 302.238 180.279 302.238 182.192C302.238 183.652 302.691 184.809 303.597 185.665C304.503 186.521 305.862 187.251 307.674 187.855C309.487 188.459 311.752 189.113 314.47 189.818C317.993 190.673 321.038 191.73 323.605 192.989C326.223 194.197 328.211 195.808 329.57 197.821C330.979 199.784 331.684 202.401 331.684 205.673C331.684 208.542 331.156 211.009 330.099 213.072C329.042 215.086 327.582 216.722 325.719 217.98C323.857 219.238 321.743 220.169 319.377 220.773C317.012 221.327 314.495 221.604 311.827 221.604C309.159 221.604 306.492 221.327 303.824 220.773C301.156 220.22 298.589 219.44 296.123 218.433C293.656 217.376 291.391 216.118 289.328 214.658L293.933 205.673C294.386 206.126 295.192 206.73 296.349 207.485C297.507 208.19 298.916 208.92 300.577 209.675C302.238 210.379 304.05 210.983 306.013 211.487C307.976 211.99 309.965 212.242 311.978 212.242C314.797 212.242 316.936 211.764 318.396 210.807C319.855 209.851 320.585 208.492 320.585 206.73C320.585 205.119 320.006 203.861 318.849 202.955C317.691 202.049 316.08 201.269 314.017 200.615C311.953 199.91 309.512 199.155 306.693 198.349C303.321 197.393 300.502 196.336 298.237 195.178C295.972 193.97 294.285 192.46 293.178 190.648C292.071 188.836 291.517 186.571 291.517 183.853C291.517 180.179 292.373 177.108 294.084 174.642C295.846 172.125 298.212 170.238 301.181 168.979C304.151 167.671 307.448 167.016 311.072 167.016C313.589 167.016 315.955 167.293 318.169 167.847C320.434 168.4 322.548 169.13 324.511 170.036C326.474 170.942 328.236 171.924 329.797 172.981L325.191 181.437Z" fill="url(#paint2_linear_959_320)"/>
<path d="M204.249 219.112L203.308 221.087L203.32 221.093L204.249 219.112ZM196.019 212.997L194.365 214.428L194.38 214.445L194.395 214.462L196.019 212.997ZM190.734 204.239L188.692 205.024L188.696 205.034L190.734 204.239ZM190.809 184.004L188.789 183.165L188.786 183.173L188.783 183.181L190.809 184.004ZM196.321 175.321L194.713 173.839L194.711 173.84L196.321 175.321ZM204.626 169.281L205.541 171.268L205.548 171.265L205.555 171.262L204.626 169.281ZM225.767 169.357L224.801 171.319L224.813 171.325L225.767 169.357ZM233.997 175.623L232.342 177.055L232.342 177.055L233.997 175.623ZM239.282 184.382L241.319 183.586L239.282 184.382ZM239.206 204.541L241.233 205.364L241.237 205.353L239.206 204.541ZM233.694 213.223L232.086 211.741L232.085 211.742L233.694 213.223ZM225.389 219.188L224.486 217.196L224.475 217.201L225.389 219.188ZM200.474 200.917L198.394 201.594H198.394L200.474 200.917ZM203.494 206.73L201.756 208.059L201.778 208.087L201.801 208.115L203.494 206.73ZM208.401 210.732L207.383 212.667L207.413 212.683L207.443 212.698L208.401 210.732ZM221.765 210.656L222.763 212.603L222.783 212.593L222.802 212.582L221.765 210.656ZM226.673 206.504L228.41 207.832L228.42 207.82L228.429 207.808L226.673 206.504ZM229.617 200.69L227.537 200.013L227.533 200.028L227.528 200.043L229.617 200.69ZM229.542 187.553L227.462 188.23L227.472 188.259L227.482 188.288L229.542 187.553ZM226.446 181.815L224.709 183.143L224.731 183.172L224.753 183.2L226.446 181.815ZM221.539 177.813L220.52 179.749L220.55 179.764L220.581 179.779L221.539 177.813ZM208.25 177.888L209.269 179.824L209.278 179.819L209.287 179.814L208.25 177.888ZM203.418 181.966L201.681 180.637L201.681 180.637L203.418 181.966ZM200.398 187.704L198.323 187.012L198.316 187.034L198.309 187.057L200.398 187.704ZM214.97 219.19C211.331 219.19 208.079 218.492 205.177 217.132L203.32 221.093C206.861 222.753 210.757 223.565 214.97 223.565V219.19ZM205.189 217.138C202.273 215.749 199.763 213.882 197.643 211.532L194.395 214.462C196.906 217.246 199.882 219.456 203.308 221.087L205.189 217.138ZM197.673 211.565C195.571 209.136 193.939 206.432 192.771 203.443L188.696 205.034C190.046 208.488 191.937 211.623 194.365 214.428L197.673 211.565ZM192.776 203.453C191.611 200.426 191.034 197.345 191.034 194.197H186.659C186.659 197.895 187.34 201.508 188.692 205.024L192.776 203.453ZM191.034 194.197C191.034 190.897 191.637 187.78 192.836 184.827L188.783 183.181C187.365 186.671 186.659 190.349 186.659 194.197H191.034ZM192.83 184.843C194.094 181.799 195.795 179.124 197.931 176.802L194.711 173.84C192.216 176.552 190.243 179.666 188.789 183.165L192.83 184.843ZM197.93 176.804C200.1 174.449 202.632 172.607 205.541 171.268L203.712 167.294C200.278 168.875 197.274 171.06 194.713 173.839L197.93 176.804ZM205.555 171.262C208.464 169.898 211.667 169.204 215.197 169.204V164.829C211.075 164.829 207.231 165.644 203.698 167.301L205.555 171.262ZM215.197 169.204C218.77 169.204 221.959 169.921 224.801 171.319L226.733 167.394C223.233 165.672 219.374 164.829 215.197 164.829V169.204ZM224.813 171.325C227.776 172.761 230.279 174.67 232.342 177.055L235.651 174.192C233.184 171.342 230.2 169.074 226.72 167.388L224.813 171.325ZM232.342 177.055C234.445 179.484 236.077 182.188 237.244 185.178L241.319 183.586C239.97 180.132 238.079 176.998 235.651 174.192L232.342 177.055ZM237.244 185.178C238.404 188.148 238.982 191.2 238.982 194.348H243.357C243.357 190.65 242.676 187.058 241.319 183.586L237.244 185.178ZM238.982 194.348C238.982 197.593 238.381 200.715 237.175 203.728L241.237 205.353C242.649 201.823 243.357 198.15 243.357 194.348H238.982ZM237.18 203.717C235.97 206.695 234.275 209.366 232.086 211.741L235.303 214.706C237.846 211.947 239.825 208.829 241.233 205.364L237.18 203.717ZM232.085 211.742C229.975 214.035 227.45 215.853 224.486 217.196L226.292 221.18C229.772 219.604 232.783 217.445 235.304 214.704L232.085 211.742ZM224.475 217.201C221.613 218.518 218.455 219.19 214.97 219.19V223.565C219.035 223.565 222.823 222.777 226.304 221.175L224.475 217.201ZM197.229 194.197C197.229 196.738 197.617 199.207 198.394 201.594L202.554 200.239C201.921 198.297 201.604 196.286 201.604 194.197H197.229ZM198.394 201.594C199.171 203.98 200.289 206.14 201.756 208.059L205.231 205.401C204.081 203.897 203.186 202.182 202.554 200.239L198.394 201.594ZM201.801 208.115C203.347 210.005 205.212 211.525 207.383 212.667L209.42 208.796C207.765 207.925 206.359 206.778 205.187 205.345L201.801 208.115ZM207.443 212.698C209.741 213.818 212.29 214.354 215.046 214.354V209.979C212.868 209.979 210.987 209.558 209.359 208.765L207.443 212.698ZM215.046 214.354C217.86 214.354 220.45 213.789 222.763 212.603L220.767 208.71C219.154 209.537 217.264 209.979 215.046 209.979V214.354ZM222.802 212.582C225.029 211.383 226.907 209.799 228.41 207.832L224.935 205.175C223.822 206.631 222.428 207.815 220.728 208.73L222.802 212.582ZM228.429 207.808C229.886 205.846 230.98 203.685 231.707 201.337L227.528 200.043C226.946 201.923 226.077 203.638 224.917 205.199L228.429 207.808ZM231.697 201.367C232.47 198.995 232.862 196.603 232.862 194.197H228.487C228.487 196.12 228.175 198.056 227.537 200.013L231.697 201.367ZM232.862 194.197C232.862 191.639 232.444 189.175 231.602 186.817L227.482 188.288C228.15 190.159 228.487 192.124 228.487 194.197H232.862ZM231.622 186.875C230.838 184.469 229.68 182.313 228.139 180.429L224.753 183.2C225.93 184.638 226.836 186.308 227.462 188.23L231.622 186.875ZM228.184 180.486C226.666 178.5 224.761 176.95 222.497 175.846L220.581 179.779C222.242 180.589 223.61 181.706 224.709 183.143L228.184 180.486ZM222.557 175.877C220.295 174.687 217.774 174.116 215.046 174.116V178.49C217.149 178.49 218.957 178.926 220.52 179.749L222.557 175.877ZM215.046 174.116C212.172 174.116 209.54 174.709 207.213 175.963L209.287 179.814C210.886 178.953 212.785 178.49 215.046 178.49V174.116ZM207.232 175.953C205.039 177.107 203.183 178.673 201.681 180.637L205.156 183.294C206.271 181.836 207.636 180.684 209.269 179.824L207.232 175.953ZM201.681 180.637C200.22 182.547 199.102 184.676 198.323 187.012L202.473 188.395C203.104 186.503 203.999 184.807 205.156 183.294L201.681 180.637ZM198.309 187.057C197.589 189.381 197.229 191.763 197.229 194.197H201.604C201.604 192.201 201.898 190.255 202.488 188.35L198.309 187.057ZM249.162 221H246.974V223.187H249.162V221ZM249.162 167.394V165.206H246.974V167.394H249.162ZM259.581 167.394H261.768V165.206H259.581V167.394ZM259.581 211.864H257.394V214.052H259.581V211.864ZM286.913 211.864H289.1V209.677H286.913V211.864ZM286.913 221V223.187H289.1V221H286.913ZM251.349 221V167.394H246.974V221H251.349ZM249.162 169.581H259.581V165.206H249.162V169.581ZM257.394 167.394V211.864H261.768V167.394H257.394ZM259.581 214.052H286.913V209.677H259.581V214.052ZM284.725 211.864V221H289.1V211.864H284.725ZM286.913 218.813H249.162V223.187H286.913V218.813ZM325.191 181.437L323.644 182.984L325.713 185.052L327.112 182.483L325.191 181.437ZM323.228 180.003L322.015 181.823L322.037 181.838L322.06 181.852L323.228 180.003ZM319.83 178.266L318.978 180.28L318.991 180.286L319.005 180.292L319.83 178.266ZM315.527 176.831L314.917 178.932L314.948 178.941L314.98 178.949L315.527 176.831ZM304.352 177.737L303.069 175.966L303.055 175.977L303.04 175.988L304.352 177.737ZM307.674 187.855L306.983 189.93L307.674 187.855ZM314.47 189.818L313.921 191.935L313.937 191.939L313.953 191.943L314.47 189.818ZM323.605 192.989L322.643 194.953L322.666 194.964L322.689 194.975L323.605 192.989ZM329.57 197.821L327.757 199.045L327.775 199.071L327.793 199.097L329.57 197.821ZM330.099 213.072L332.035 214.089L332.04 214.079L332.045 214.069L330.099 213.072ZM319.377 220.773L319.876 222.903L319.897 222.898L319.918 222.893L319.377 220.773ZM296.123 218.433L295.261 220.443L295.279 220.451L295.296 220.458L296.123 218.433ZM289.328 214.658L287.381 213.66L286.516 215.348L288.064 216.444L289.328 214.658ZM293.933 205.673L295.48 204.126L293.356 202.003L291.987 204.675L293.933 205.673ZM296.349 207.485L295.154 209.317L295.183 209.336L295.212 209.354L296.349 207.485ZM300.577 209.675L299.672 211.666L299.697 211.678L299.723 211.688L300.577 209.675ZM306.013 211.487L305.47 213.606L306.013 211.487ZM318.396 210.807L317.197 208.978L318.396 210.807ZM314.017 200.615L313.31 202.685L313.333 202.692L313.356 202.7L314.017 200.615ZM306.693 198.349L307.294 196.246L307.29 196.245L306.693 198.349ZM298.237 195.178L297.207 197.108L297.224 197.117L297.241 197.126L298.237 195.178ZM293.178 190.648L291.312 191.789L293.178 190.648ZM294.084 174.642L292.292 173.387L292.287 173.395L294.084 174.642ZM301.181 168.979L302.035 170.993L302.049 170.987L302.063 170.981L301.181 168.979ZM318.169 167.847L317.639 169.969L317.65 169.972L318.169 167.847ZM324.511 170.036L325.428 168.05L324.511 170.036ZM329.797 172.981L331.717 174.027L332.667 172.283L331.023 171.17L329.797 172.981ZM326.738 179.89C326.198 179.351 325.361 178.763 324.396 178.153L322.06 181.852C323.007 182.45 323.479 182.818 323.644 182.984L326.738 179.89ZM324.441 178.182C323.379 177.475 322.107 176.832 320.656 176.24L319.005 180.292C320.272 180.808 321.264 181.322 322.015 181.823L324.441 178.182ZM320.683 176.251C319.263 175.651 317.724 175.14 316.073 174.713L314.98 178.949C316.45 179.329 317.781 179.774 318.978 180.28L320.683 176.251ZM316.137 174.731C314.38 174.221 312.589 173.965 310.77 173.965V178.339C312.173 178.339 313.553 178.536 314.917 178.932L316.137 174.731ZM310.77 173.965C307.733 173.965 305.06 174.525 303.069 175.966L305.635 179.509C306.565 178.836 308.17 178.339 310.77 178.339V173.965ZM303.04 175.988C301.027 177.497 300.051 179.659 300.051 182.192H304.426C304.426 180.899 304.859 180.092 305.665 179.487L303.04 175.988ZM300.051 182.192C300.051 184.141 300.677 185.915 302.095 187.255L305.099 184.075C304.706 183.704 304.426 183.162 304.426 182.192H300.051ZM302.095 187.255C303.323 188.415 305.014 189.274 306.983 189.93L308.366 185.78C306.711 185.228 305.684 184.627 305.099 184.075L302.095 187.255ZM306.983 189.93C308.858 190.555 311.175 191.223 313.921 191.935L315.019 187.7C312.329 187.003 310.115 186.362 308.366 185.78L306.983 189.93ZM313.953 191.943C317.362 192.771 320.25 193.78 322.643 194.953L324.568 191.025C321.827 189.681 318.625 188.576 314.986 187.692L313.953 191.943ZM322.689 194.975C325.012 196.047 326.66 197.42 327.757 199.045L331.383 196.597C329.762 194.195 327.434 192.347 324.522 191.003L322.689 194.975ZM327.793 199.097C328.856 200.577 329.497 202.7 329.497 205.673H333.871C333.871 202.103 333.103 198.991 331.347 196.545L327.793 199.097ZM329.497 205.673C329.497 208.276 329.017 210.385 328.152 212.075L332.045 214.069C333.294 211.632 333.871 208.808 333.871 205.673H329.497ZM328.162 212.056C327.271 213.753 326.054 215.114 324.495 216.167L326.944 219.792C329.11 218.329 330.812 216.419 332.035 214.089L328.162 212.056ZM324.495 216.167C322.858 217.273 320.979 218.107 318.836 218.654L319.918 222.893C322.507 222.232 324.856 221.203 326.944 219.792L324.495 216.167ZM318.879 218.644C316.692 219.156 314.343 219.417 311.827 219.417V223.791C314.646 223.791 317.332 223.499 319.876 222.903L318.879 218.644ZM311.827 219.417C309.312 219.417 306.793 219.156 304.268 218.632L303.379 222.915C306.19 223.499 309.007 223.791 311.827 223.791V219.417ZM304.268 218.632C301.728 218.105 299.289 217.363 296.949 216.408L295.296 220.458C297.889 221.516 300.584 222.335 303.379 222.915L304.268 218.632ZM296.984 216.422C294.651 215.422 292.521 214.238 290.591 212.872L288.064 216.444C290.261 217.997 292.662 219.33 295.261 220.443L296.984 216.422ZM291.274 215.656L295.88 206.671L291.987 204.675L287.381 213.66L291.274 215.656ZM292.386 207.22C293.011 207.845 293.981 208.552 295.154 209.317L297.544 205.653C296.402 204.908 295.761 204.408 295.48 204.126L292.386 207.22ZM295.212 209.354C296.465 210.116 297.957 210.886 299.672 211.666L301.482 207.683C299.876 206.953 298.549 206.263 297.487 205.617L295.212 209.354ZM299.723 211.688C301.496 212.441 303.414 213.078 305.47 213.606L306.557 209.368C304.687 208.889 302.98 208.318 301.432 207.661L299.723 211.688ZM305.47 213.606C307.61 214.154 309.78 214.429 311.978 214.429V210.054C310.149 210.054 308.343 209.826 306.557 209.368L305.47 213.606ZM311.978 214.429C314.985 214.429 317.621 213.93 319.595 212.637L317.197 208.978C316.251 209.597 314.609 210.054 311.978 210.054V214.429ZM319.594 212.637C321.678 211.272 322.773 209.221 322.773 206.73H318.398C318.398 207.763 318.033 208.43 317.197 208.978L319.594 212.637ZM322.773 206.73C322.773 204.521 321.94 202.597 320.197 201.232L317.501 204.678C318.073 205.126 318.398 205.718 318.398 206.73H322.773ZM320.197 201.232C318.761 200.109 316.884 199.229 314.678 198.529L313.356 202.7C315.277 203.309 316.621 203.989 317.501 204.678L320.197 201.232ZM314.723 198.544C312.615 197.825 310.137 197.059 307.294 196.246L306.092 200.453C308.886 201.251 311.291 201.995 313.31 202.685L314.723 198.544ZM307.29 196.245C304.007 195.314 301.332 194.304 299.232 193.231L297.241 197.126C299.671 198.368 302.634 199.472 306.096 200.454L307.29 196.245ZM299.266 193.248C297.274 192.186 295.91 190.923 295.045 189.508L291.312 191.789C292.661 193.997 294.67 195.755 297.207 197.108L299.266 193.248ZM295.045 189.508C294.198 188.123 293.705 186.28 293.705 183.853H289.33C289.33 186.863 289.943 189.55 291.312 191.789L295.045 189.508ZM293.705 183.853C293.705 180.523 294.476 177.914 295.881 175.889L292.287 173.395C290.269 176.303 289.33 179.834 289.33 183.853H293.705ZM295.876 175.896C297.39 173.733 299.423 172.1 302.035 170.993L300.328 166.965C297 168.375 294.301 170.517 292.292 173.387L295.876 175.896ZM302.063 170.981C304.724 169.808 307.716 169.204 311.072 169.204V164.829C307.18 164.829 303.578 165.533 300.299 166.978L302.063 170.981ZM311.072 169.204C313.428 169.204 315.614 169.463 317.639 169.969L318.7 165.725C316.295 165.123 313.75 164.829 311.072 164.829V169.204ZM317.65 169.972C319.789 170.494 321.769 171.18 323.595 172.022L325.428 168.05C323.328 167.081 321.08 166.306 318.689 165.722L317.65 169.972ZM323.595 172.022C325.465 172.886 327.121 173.81 328.57 174.792L331.023 171.17C329.351 170.037 327.484 168.999 325.428 168.05L323.595 172.022ZM327.876 171.935L323.27 180.391L327.112 182.483L331.717 174.027L327.876 171.935Z" fill="#139D3D" fill-opacity="0.12"/>
<g filter="url(#filter0_d_959_320)">
<path d="M1603.72 2011.23C1769.12 2001.51 1857.75 2150.53 1781.98 2273.22C1746.06 2331.38 1660.43 2396.07 1520.1 2421.29C1325.83 2456.11 1142.08 2344.92 1061.2 2250.82C1413.5 2249.07 1357.36 2045.84 1603.72 2011.23Z" fill="url(#paint3_linear_959_320)"/>
</g>
<rect y="408" width="41" height="1911" fill="#139D3D"/>
<rect x="-4" width="41" height="116" fill="#020887"/>
<path d="M165 2113.92C164.547 2114.11 164 2114.32 163.36 2114.56C162.72 2114.8 162.027 2114.99 161.28 2115.12C160.56 2115.28 159.827 2115.36 159.08 2115.36C158.093 2115.36 157.187 2115.19 156.36 2114.84C155.533 2114.49 154.867 2113.95 154.36 2113.2C153.88 2112.43 153.64 2111.43 153.64 2110.2V2098.16H150.88V2094.04H153.64V2087.24H159V2094.04H163.4V2098.16H159V2108.4C159.027 2109.12 159.227 2109.64 159.6 2109.96C159.973 2110.28 160.44 2110.44 161 2110.44C161.56 2110.44 162.107 2110.35 162.64 2110.16C163.173 2109.97 163.6 2109.81 163.92 2109.68L165 2113.92ZM177.877 2115.4C176.197 2115.4 174.677 2115.12 173.317 2114.56C171.957 2113.97 170.797 2113.19 169.837 2112.2C168.877 2111.19 168.131 2110.04 167.597 2108.76C167.091 2107.45 166.837 2106.08 166.837 2104.64C166.837 2102.64 167.277 2100.81 168.157 2099.16C169.064 2097.51 170.344 2096.19 171.997 2095.2C173.677 2094.19 175.651 2093.68 177.917 2093.68C180.211 2093.68 182.171 2094.19 183.797 2095.2C185.424 2096.19 186.664 2097.51 187.517 2099.16C188.397 2100.79 188.837 2102.55 188.837 2104.44C188.837 2104.76 188.824 2105.09 188.797 2105.44C188.771 2105.76 188.744 2106.03 188.717 2106.24H172.517C172.624 2107.31 172.931 2108.24 173.437 2109.04C173.971 2109.84 174.637 2110.45 175.437 2110.88C176.264 2111.28 177.144 2111.48 178.077 2111.48C179.144 2111.48 180.144 2111.23 181.077 2110.72C182.037 2110.19 182.691 2109.49 183.037 2108.64L187.637 2109.92C187.131 2110.99 186.397 2111.93 185.437 2112.76C184.504 2113.59 183.397 2114.24 182.117 2114.72C180.837 2115.17 179.424 2115.4 177.877 2115.4ZM172.397 2102.84H183.357C183.251 2101.77 182.944 2100.85 182.437 2100.08C181.957 2099.28 181.317 2098.67 180.517 2098.24C179.717 2097.79 178.824 2097.56 177.837 2097.56C176.877 2097.56 175.997 2097.79 175.197 2098.24C174.424 2098.67 173.784 2099.28 173.277 2100.08C172.797 2100.85 172.504 2101.77 172.397 2102.84ZM191.263 2108.8C191.263 2107.44 191.636 2106.25 192.383 2105.24C193.156 2104.2 194.223 2103.4 195.583 2102.84C196.943 2102.28 198.503 2102 200.263 2102C201.143 2102 202.036 2102.07 202.943 2102.2C203.849 2102.33 204.636 2102.55 205.303 2102.84V2101.72C205.303 2100.39 204.903 2099.36 204.103 2098.64C203.329 2097.92 202.169 2097.56 200.623 2097.56C199.476 2097.56 198.383 2097.76 197.343 2098.16C196.303 2098.56 195.209 2099.15 194.063 2099.92L192.343 2096.4C193.729 2095.49 195.143 2094.81 196.583 2094.36C198.049 2093.91 199.583 2093.68 201.183 2093.68C204.169 2093.68 206.489 2094.43 208.143 2095.92C209.823 2097.41 210.663 2099.55 210.663 2102.32V2109C210.663 2109.56 210.756 2109.96 210.943 2110.2C211.156 2110.44 211.489 2110.59 211.943 2110.64V2115C211.463 2115.08 211.023 2115.15 210.623 2115.2C210.249 2115.25 209.929 2115.28 209.663 2115.28C208.596 2115.28 207.783 2115.04 207.223 2114.56C206.689 2114.08 206.356 2113.49 206.223 2112.8L206.103 2111.72C205.196 2112.89 204.063 2113.8 202.703 2114.44C201.343 2115.08 199.956 2115.4 198.543 2115.4C197.156 2115.4 195.903 2115.12 194.783 2114.56C193.689 2113.97 192.823 2113.19 192.183 2112.2C191.569 2111.19 191.263 2110.05 191.263 2108.8ZM204.303 2109.88C204.596 2109.56 204.836 2109.24 205.023 2108.92C205.209 2108.6 205.303 2108.31 205.303 2108.04V2105.92C204.663 2105.65 203.969 2105.45 203.223 2105.32C202.476 2105.16 201.769 2105.08 201.103 2105.08C199.716 2105.08 198.569 2105.39 197.663 2106C196.783 2106.59 196.343 2107.37 196.343 2108.36C196.343 2108.89 196.489 2109.4 196.783 2109.88C197.076 2110.36 197.503 2110.75 198.063 2111.04C198.623 2111.33 199.289 2111.48 200.063 2111.48C200.863 2111.48 201.649 2111.33 202.423 2111.04C203.196 2110.72 203.823 2110.33 204.303 2109.88ZM248.831 2115H243.471V2103.24C243.471 2101.59 243.178 2100.37 242.591 2099.6C242.031 2098.8 241.245 2098.4 240.231 2098.4C239.191 2098.4 238.191 2098.81 237.231 2099.64C236.298 2100.44 235.631 2101.49 235.231 2102.8V2115H229.871V2103.24C229.871 2101.56 229.578 2100.33 228.991 2099.56C228.431 2098.79 227.645 2098.4 226.631 2098.4C225.591 2098.4 224.591 2098.8 223.631 2099.6C222.698 2100.4 222.031 2101.45 221.631 2102.76V2115H216.271V2094.04H221.111V2097.92C221.911 2096.56 222.978 2095.52 224.311 2094.8C225.645 2094.05 227.178 2093.68 228.911 2093.68C230.645 2093.68 231.991 2094.11 232.951 2094.96C233.938 2095.81 234.565 2096.87 234.831 2098.12C235.685 2096.68 236.765 2095.59 238.071 2094.84C239.405 2094.07 240.898 2093.68 242.551 2093.68C243.858 2093.68 244.911 2093.92 245.711 2094.4C246.538 2094.85 247.178 2095.48 247.631 2096.28C248.085 2097.05 248.391 2097.93 248.551 2098.92C248.738 2099.91 248.831 2100.91 248.831 2101.92V2115ZM268.538 2090.88C270.511 2090.88 272.391 2091.21 274.178 2091.88C275.964 2092.52 277.551 2093.49 278.938 2094.8C280.351 2096.08 281.458 2097.68 282.258 2099.6C283.058 2101.49 283.458 2103.67 283.458 2106.12C283.458 2106.57 283.418 2107.19 283.338 2107.96C283.284 2108.73 283.151 2109.56 282.938 2110.44C282.724 2111.32 282.391 2112.16 281.938 2112.96C281.511 2113.73 280.911 2114.37 280.138 2114.88C279.391 2115.39 278.444 2115.64 277.298 2115.64C276.338 2115.64 275.591 2115.47 275.058 2115.12C274.551 2114.8 274.178 2114.39 273.938 2113.88C273.724 2113.37 273.578 2112.87 273.498 2112.36C272.671 2113.19 271.671 2113.85 270.498 2114.36C269.324 2114.84 268.058 2115.08 266.698 2115.08C264.724 2115.08 263.204 2114.56 262.138 2113.52C261.098 2112.45 260.578 2111.11 260.578 2109.48C260.578 2108.01 260.938 2106.87 261.658 2106.04C262.404 2105.19 263.351 2104.57 264.498 2104.2C265.671 2103.83 266.858 2103.64 268.058 2103.64C269.124 2103.64 270.044 2103.75 270.818 2103.96C271.591 2104.15 272.178 2104.33 272.578 2104.52C272.578 2103.56 272.444 2102.71 272.178 2101.96C271.938 2101.21 271.484 2100.64 270.818 2100.24C270.151 2099.81 269.218 2099.6 268.018 2099.6C266.924 2099.6 265.924 2099.76 265.018 2100.08C264.111 2100.4 263.338 2100.83 262.698 2101.36L261.658 2098.52C262.644 2097.85 263.711 2097.36 264.858 2097.04C266.031 2096.69 267.258 2096.52 268.538 2096.52C270.271 2096.52 271.631 2096.79 272.618 2097.32C273.604 2097.83 274.311 2098.51 274.738 2099.36C275.191 2100.19 275.471 2101.09 275.578 2102.08C275.711 2103.04 275.778 2103.97 275.778 2104.88V2108.72C275.778 2109.49 275.818 2110.23 275.898 2110.92C275.978 2111.61 276.164 2112.17 276.458 2112.6C276.751 2113.03 277.204 2113.24 277.818 2113.24C278.538 2113.24 279.124 2112.99 279.578 2112.48C280.031 2111.95 280.378 2111.28 280.618 2110.48C280.858 2109.68 281.018 2108.88 281.098 2108.08C281.178 2107.25 281.218 2106.57 281.218 2106.04C281.218 2104.17 280.911 2102.45 280.298 2100.88C279.684 2099.28 278.804 2097.89 277.658 2096.72C276.511 2095.55 275.151 2094.64 273.578 2094C272.031 2093.36 270.298 2093.04 268.378 2093.04C266.511 2093.04 264.791 2093.36 263.218 2094C261.644 2094.61 260.284 2095.49 259.138 2096.64C258.018 2097.79 257.138 2099.15 256.498 2100.72C255.884 2102.27 255.578 2103.96 255.578 2105.8C255.578 2107.59 255.871 2109.27 256.458 2110.84C257.044 2112.39 257.871 2113.75 258.938 2114.92C260.031 2116.09 261.338 2117.01 262.858 2117.68C264.378 2118.35 266.071 2118.68 267.938 2118.68C269.191 2118.68 270.298 2118.53 271.258 2118.24C272.218 2117.95 273.191 2117.59 274.178 2117.16L274.818 2119.24C273.724 2119.77 272.578 2120.17 271.378 2120.44C270.204 2120.71 269.031 2120.84 267.858 2120.84C265.858 2120.84 263.978 2120.48 262.218 2119.76C260.458 2119.04 258.911 2118.01 257.578 2116.68C256.271 2115.35 255.231 2113.76 254.458 2111.92C253.711 2110.08 253.338 2108.04 253.338 2105.8C253.338 2103.43 253.751 2101.32 254.578 2099.48C255.404 2097.61 256.524 2096.05 257.938 2094.8C259.351 2093.52 260.964 2092.55 262.778 2091.88C264.618 2091.21 266.538 2090.88 268.538 2090.88ZM270.498 2111.52C270.978 2111.28 271.364 2111.01 271.658 2110.72C271.978 2110.4 272.204 2110.07 272.338 2109.72C272.471 2109.35 272.538 2108.96 272.538 2108.56V2107.04C272.164 2106.93 271.578 2106.77 270.778 2106.56C269.978 2106.32 269.071 2106.2 268.058 2106.2C267.231 2106.2 266.498 2106.31 265.858 2106.52C265.218 2106.71 264.711 2107.04 264.338 2107.52C263.964 2108 263.778 2108.61 263.778 2109.36C263.778 2109.97 263.911 2110.51 264.178 2110.96C264.444 2111.39 264.818 2111.72 265.298 2111.96C265.778 2112.2 266.351 2112.32 267.018 2112.32C267.551 2112.32 268.138 2112.25 268.778 2112.12C269.418 2111.99 269.991 2111.79 270.498 2111.52ZM298.167 2115.4C296.46 2115.4 294.927 2115.12 293.567 2114.56C292.207 2113.97 291.047 2113.17 290.087 2112.16C289.154 2111.15 288.434 2109.99 287.927 2108.68C287.42 2107.37 287.167 2106 287.167 2104.56C287.167 2103.09 287.42 2101.71 287.927 2100.4C288.434 2099.09 289.154 2097.93 290.087 2096.92C291.047 2095.91 292.207 2095.12 293.567 2094.56C294.927 2093.97 296.46 2093.68 298.167 2093.68C299.874 2093.68 301.394 2093.97 302.727 2094.56C304.087 2095.12 305.247 2095.91 306.207 2096.92C307.167 2097.93 307.887 2099.09 308.367 2100.4C308.874 2101.71 309.127 2103.09 309.127 2104.56C309.127 2106 308.874 2107.37 308.367 2108.68C307.887 2109.99 307.167 2111.15 306.207 2112.16C305.274 2113.17 304.127 2113.97 302.767 2114.56C301.407 2115.12 299.874 2115.4 298.167 2115.4ZM292.687 2104.56C292.687 2105.79 292.927 2106.88 293.407 2107.84C293.887 2108.77 294.54 2109.51 295.367 2110.04C296.194 2110.57 297.127 2110.84 298.167 2110.84C299.18 2110.84 300.1 2110.57 300.927 2110.04C301.754 2109.48 302.407 2108.73 302.887 2107.8C303.394 2106.84 303.647 2105.75 303.647 2104.52C303.647 2103.32 303.394 2102.24 302.887 2101.28C302.407 2100.32 301.754 2099.57 300.927 2099.04C300.1 2098.51 299.18 2098.24 298.167 2098.24C297.127 2098.24 296.194 2098.52 295.367 2099.08C294.54 2099.61 293.887 2100.36 293.407 2101.32C292.927 2102.25 292.687 2103.33 292.687 2104.56ZM325.905 2115.4C324.278 2115.4 322.838 2115.04 321.585 2114.32C320.358 2113.57 319.398 2112.57 318.705 2111.32V2123.52H313.345V2094.04H318.025V2097.64C318.825 2096.41 319.838 2095.45 321.065 2094.76C322.291 2094.04 323.691 2093.68 325.265 2093.68C326.678 2093.68 327.971 2093.96 329.145 2094.52C330.345 2095.08 331.385 2095.87 332.265 2096.88C333.145 2097.87 333.825 2099.01 334.305 2100.32C334.811 2101.6 335.065 2102.99 335.065 2104.48C335.065 2106.51 334.665 2108.35 333.865 2110C333.091 2111.65 332.011 2112.97 330.625 2113.96C329.265 2114.92 327.691 2115.4 325.905 2115.4ZM324.105 2110.84C324.931 2110.84 325.678 2110.67 326.345 2110.32C327.011 2109.97 327.585 2109.51 328.065 2108.92C328.571 2108.31 328.945 2107.63 329.185 2106.88C329.451 2106.11 329.585 2105.31 329.585 2104.48C329.585 2103.6 329.438 2102.79 329.145 2102.04C328.878 2101.29 328.478 2100.64 327.945 2100.08C327.411 2099.49 326.785 2099.04 326.065 2098.72C325.371 2098.4 324.611 2098.24 323.785 2098.24C323.278 2098.24 322.758 2098.33 322.225 2098.52C321.718 2098.68 321.225 2098.92 320.745 2099.24C320.265 2099.56 319.838 2099.93 319.465 2100.36C319.118 2100.79 318.865 2101.25 318.705 2101.76V2106.68C319.025 2107.45 319.451 2108.16 319.985 2108.8C320.545 2109.44 321.185 2109.95 321.905 2110.32C322.625 2110.67 323.358 2110.84 324.105 2110.84ZM349.016 2115.4C347.336 2115.4 345.816 2115.12 344.456 2114.56C343.096 2113.97 341.936 2113.19 340.976 2112.2C340.016 2111.19 339.27 2110.04 338.736 2108.76C338.23 2107.45 337.976 2106.08 337.976 2104.64C337.976 2102.64 338.416 2100.81 339.296 2099.16C340.203 2097.51 341.483 2096.19 343.136 2095.2C344.816 2094.19 346.79 2093.68 349.056 2093.68C351.35 2093.68 353.31 2094.19 354.936 2095.2C356.563 2096.19 357.803 2097.51 358.656 2099.16C359.536 2100.79 359.976 2102.55 359.976 2104.44C359.976 2104.76 359.963 2105.09 359.936 2105.44C359.91 2105.76 359.883 2106.03 359.856 2106.24H343.656C343.763 2107.31 344.07 2108.24 344.576 2109.04C345.11 2109.84 345.776 2110.45 346.576 2110.88C347.403 2111.28 348.283 2111.48 349.216 2111.48C350.283 2111.48 351.283 2111.23 352.216 2110.72C353.176 2110.19 353.83 2109.49 354.176 2108.64L358.776 2109.92C358.27 2110.99 357.536 2111.93 356.576 2112.76C355.643 2113.59 354.536 2114.24 353.256 2114.72C351.976 2115.17 350.563 2115.4 349.016 2115.4ZM343.536 2102.84H354.496C354.39 2101.77 354.083 2100.85 353.576 2100.08C353.096 2099.28 352.456 2098.67 351.656 2098.24C350.856 2097.79 349.963 2097.56 348.976 2097.56C348.016 2097.56 347.136 2097.79 346.336 2098.24C345.563 2098.67 344.923 2099.28 344.416 2100.08C343.936 2100.85 343.643 2101.77 343.536 2102.84ZM383.322 2115H377.962V2103.24C377.962 2101.56 377.668 2100.33 377.082 2099.56C376.495 2098.79 375.682 2098.4 374.642 2098.4C373.922 2098.4 373.188 2098.59 372.442 2098.96C371.722 2099.33 371.068 2099.85 370.482 2100.52C369.895 2101.16 369.468 2101.91 369.202 2102.76V2115H363.842V2094.04H368.682V2097.92C369.215 2097.01 369.895 2096.25 370.722 2095.64C371.548 2095 372.495 2094.52 373.562 2094.2C374.655 2093.85 375.802 2093.68 377.002 2093.68C378.308 2093.68 379.375 2093.92 380.202 2094.4C381.055 2094.85 381.695 2095.48 382.122 2096.28C382.575 2097.05 382.882 2097.93 383.042 2098.92C383.228 2099.91 383.322 2100.91 383.322 2101.92V2115ZM388.542 2085.8H393.902V2108.28C393.902 2109.24 394.062 2109.89 394.382 2110.24C394.702 2110.56 395.142 2110.72 395.702 2110.72C396.129 2110.72 396.569 2110.67 397.022 2110.56C397.476 2110.45 397.876 2110.32 398.222 2110.16L398.942 2114.24C398.222 2114.59 397.382 2114.85 396.422 2115.04C395.462 2115.23 394.596 2115.32 393.822 2115.32C392.142 2115.32 390.836 2114.88 389.902 2114C388.996 2113.09 388.542 2111.81 388.542 2110.16V2085.8ZM401.878 2115V2094.04H407.238V2115H401.878ZM401.878 2091.12V2085.8H407.238V2091.12H401.878ZM413.953 2115V2099.24H411.193V2095.16H413.953V2093.88C413.953 2092.15 414.233 2090.65 414.793 2089.4C415.379 2088.12 416.193 2087.13 417.233 2086.44C418.299 2085.75 419.539 2085.4 420.953 2085.4C421.806 2085.4 422.659 2085.51 423.513 2085.72C424.393 2085.93 425.259 2086.24 426.113 2086.64L425.033 2090.68C424.633 2090.47 424.166 2090.29 423.633 2090.16C423.099 2090 422.593 2089.92 422.113 2089.92C421.206 2089.92 420.513 2090.24 420.033 2090.88C419.553 2091.52 419.313 2092.45 419.313 2093.68V2095.16H424.433V2099.24H419.313V2115H413.953ZM437.524 2115.4C435.844 2115.4 434.324 2115.12 432.964 2114.56C431.604 2113.97 430.444 2113.19 429.484 2112.2C428.524 2111.19 427.777 2110.04 427.244 2108.76C426.737 2107.45 426.484 2106.08 426.484 2104.64C426.484 2102.64 426.924 2100.81 427.804 2099.16C428.711 2097.51 429.991 2096.19 431.644 2095.2C433.324 2094.19 435.297 2093.68 437.564 2093.68C439.857 2093.68 441.817 2094.19 443.444 2095.2C445.071 2096.19 446.311 2097.51 447.164 2099.16C448.044 2100.79 448.484 2102.55 448.484 2104.44C448.484 2104.76 448.471 2105.09 448.444 2105.44C448.417 2105.76 448.391 2106.03 448.364 2106.24H432.164C432.271 2107.31 432.577 2108.24 433.084 2109.04C433.617 2109.84 434.284 2110.45 435.084 2110.88C435.911 2111.28 436.791 2111.48 437.724 2111.48C438.791 2111.48 439.791 2111.23 440.724 2110.72C441.684 2110.19 442.337 2109.49 442.684 2108.64L447.284 2109.92C446.777 2110.99 446.044 2111.93 445.084 2112.76C444.151 2113.59 443.044 2114.24 441.764 2114.72C440.484 2115.17 439.071 2115.4 437.524 2115.4ZM432.044 2102.84H443.004C442.897 2101.77 442.591 2100.85 442.084 2100.08C441.604 2099.28 440.964 2098.67 440.164 2098.24C439.364 2097.79 438.471 2097.56 437.484 2097.56C436.524 2097.56 435.644 2097.79 434.844 2098.24C434.071 2098.67 433.431 2099.28 432.924 2100.08C432.444 2100.85 432.151 2101.77 432.044 2102.84ZM460.069 2115.4C458.283 2115.4 456.576 2115.11 454.949 2114.52C453.323 2113.93 451.923 2113.07 450.749 2111.92L452.669 2108.44C453.923 2109.45 455.149 2110.2 456.349 2110.68C457.576 2111.16 458.749 2111.4 459.869 2111.4C460.909 2111.4 461.736 2111.21 462.349 2110.84C462.989 2110.47 463.309 2109.91 463.309 2109.16C463.309 2108.65 463.136 2108.27 462.789 2108C462.443 2107.71 461.936 2107.45 461.269 2107.24C460.629 2107.03 459.843 2106.79 458.909 2106.52C457.363 2106.01 456.069 2105.52 455.029 2105.04C453.989 2104.56 453.203 2103.96 452.669 2103.24C452.163 2102.49 451.909 2101.55 451.909 2100.4C451.909 2099.01 452.256 2097.83 452.949 2096.84C453.669 2095.83 454.656 2095.04 455.909 2094.48C457.189 2093.92 458.683 2093.64 460.389 2093.64C461.883 2093.64 463.296 2093.88 464.629 2094.36C465.963 2094.81 467.176 2095.56 468.269 2096.6L466.109 2100C465.043 2099.17 464.029 2098.57 463.069 2098.2C462.109 2097.8 461.136 2097.6 460.149 2097.6C459.589 2097.6 459.056 2097.67 458.549 2097.8C458.069 2097.93 457.669 2098.16 457.349 2098.48C457.056 2098.77 456.909 2099.2 456.909 2099.76C456.909 2100.27 457.043 2100.67 457.309 2100.96C457.603 2101.23 458.029 2101.47 458.589 2101.68C459.176 2101.89 459.883 2102.13 460.709 2102.4C462.389 2102.88 463.803 2103.37 464.949 2103.88C466.123 2104.39 467.003 2105.01 467.589 2105.76C468.176 2106.48 468.469 2107.48 468.469 2108.76C468.469 2110.84 467.709 2112.47 466.189 2113.64C464.669 2114.81 462.629 2115.4 460.069 2115.4ZM482.475 2115.4C480.768 2115.4 479.235 2115.12 477.875 2114.56C476.515 2113.97 475.355 2113.17 474.395 2112.16C473.435 2111.12 472.688 2109.95 472.155 2108.64C471.648 2107.33 471.395 2105.96 471.395 2104.52C471.395 2102.55 471.835 2100.75 472.715 2099.12C473.622 2097.47 474.902 2096.15 476.555 2095.16C478.208 2094.17 480.168 2093.68 482.435 2093.68C484.702 2093.68 486.648 2094.17 488.275 2095.16C489.902 2096.15 491.115 2097.44 491.915 2099.04L486.675 2100.64C486.222 2099.87 485.622 2099.28 484.875 2098.88C484.128 2098.45 483.302 2098.24 482.395 2098.24C481.382 2098.24 480.448 2098.51 479.595 2099.04C478.768 2099.55 478.115 2100.28 477.635 2101.24C477.155 2102.17 476.915 2103.27 476.915 2104.52C476.915 2105.75 477.155 2106.84 477.635 2107.8C478.142 2108.73 478.808 2109.48 479.635 2110.04C480.462 2110.57 481.382 2110.84 482.395 2110.84C483.035 2110.84 483.635 2110.73 484.195 2110.52C484.782 2110.31 485.302 2110.01 485.755 2109.64C486.208 2109.27 486.542 2108.84 486.755 2108.36L491.995 2109.96C491.515 2111 490.808 2111.93 489.875 2112.76C488.968 2113.59 487.888 2114.24 486.635 2114.72C485.408 2115.17 484.022 2115.4 482.475 2115.4ZM495.893 2115V2094.04H501.253V2115H495.893ZM495.893 2091.12V2085.8H501.253V2091.12H495.893ZM506.568 2115V2109.24H510.968V2115H506.568ZM525.523 2115.4C523.816 2115.4 522.283 2115.12 520.923 2114.56C519.563 2113.97 518.403 2113.17 517.443 2112.16C516.51 2111.15 515.79 2109.99 515.283 2108.68C514.776 2107.37 514.523 2106 514.523 2104.56C514.523 2103.09 514.776 2101.71 515.283 2100.4C515.79 2099.09 516.51 2097.93 517.443 2096.92C518.403 2095.91 519.563 2095.12 520.923 2094.56C522.283 2093.97 523.816 2093.68 525.523 2093.68C527.23 2093.68 528.75 2093.97 530.083 2094.56C531.443 2095.12 532.603 2095.91 533.563 2096.92C534.523 2097.93 535.243 2099.09 535.723 2100.4C536.23 2101.71 536.483 2103.09 536.483 2104.56C536.483 2106 536.23 2107.37 535.723 2108.68C535.243 2109.99 534.523 2111.15 533.563 2112.16C532.63 2113.17 531.483 2113.97 530.123 2114.56C528.763 2115.12 527.23 2115.4 525.523 2115.4ZM520.043 2104.56C520.043 2105.79 520.283 2106.88 520.763 2107.84C521.243 2108.77 521.896 2109.51 522.723 2110.04C523.55 2110.57 524.483 2110.84 525.523 2110.84C526.536 2110.84 527.456 2110.57 528.283 2110.04C529.11 2109.48 529.763 2108.73 530.243 2107.8C530.75 2106.84 531.003 2105.75 531.003 2104.52C531.003 2103.32 530.75 2102.24 530.243 2101.28C529.763 2100.32 529.11 2099.57 528.283 2099.04C527.456 2098.51 526.536 2098.24 525.523 2098.24C524.483 2098.24 523.55 2098.52 522.723 2099.08C521.896 2099.61 521.243 2100.36 520.763 2101.32C520.283 2102.25 520.043 2103.33 520.043 2104.56ZM553.181 2098.68C551.554 2098.68 550.101 2099 548.821 2099.64C547.541 2100.25 546.621 2101.15 546.061 2102.32V2115H540.701V2094.04H545.621V2098.52C546.368 2097.08 547.314 2095.95 548.461 2095.12C549.608 2094.29 550.821 2093.84 552.101 2093.76C552.394 2093.76 552.621 2093.76 552.781 2093.76C552.941 2093.76 553.074 2093.77 553.181 2093.8V2098.68ZM564.774 2115.12C563.388 2115.12 562.108 2114.85 560.934 2114.32C559.788 2113.76 558.788 2112.99 557.934 2112C557.108 2111.01 556.468 2109.88 556.014 2108.6C555.561 2107.32 555.334 2105.96 555.334 2104.52C555.334 2103 555.574 2101.59 556.054 2100.28C556.534 2098.97 557.201 2097.83 558.054 2096.84C558.934 2095.83 559.961 2095.05 561.134 2094.52C562.334 2093.96 563.654 2093.68 565.094 2093.68C566.721 2093.68 568.148 2094.05 569.374 2094.8C570.601 2095.52 571.614 2096.49 572.414 2097.72V2094.04H577.094V2114C577.094 2116.08 576.588 2117.85 575.574 2119.32C574.588 2120.81 573.214 2121.95 571.454 2122.72C569.694 2123.52 567.694 2123.92 565.454 2123.92C563.188 2123.92 561.268 2123.53 559.694 2122.76C558.121 2122.01 556.774 2120.95 555.654 2119.56L558.574 2116.72C559.374 2117.71 560.374 2118.48 561.574 2119.04C562.801 2119.6 564.094 2119.88 565.454 2119.88C566.601 2119.88 567.641 2119.67 568.574 2119.24C569.534 2118.84 570.294 2118.2 570.854 2117.32C571.441 2116.47 571.734 2115.36 571.734 2114V2111.36C571.041 2112.56 570.054 2113.49 568.774 2114.16C567.521 2114.8 566.188 2115.12 564.774 2115.12ZM566.574 2110.84C567.161 2110.84 567.721 2110.75 568.254 2110.56C568.788 2110.37 569.281 2110.12 569.734 2109.8C570.188 2109.48 570.588 2109.11 570.934 2108.68C571.281 2108.23 571.548 2107.77 571.734 2107.32V2102.32C571.414 2101.49 570.961 2100.77 570.374 2100.16C569.814 2099.55 569.174 2099.08 568.454 2098.76C567.761 2098.41 567.028 2098.24 566.254 2098.24C565.428 2098.24 564.681 2098.41 564.014 2098.76C563.348 2099.11 562.774 2099.6 562.294 2100.24C561.814 2100.85 561.441 2101.55 561.174 2102.32C560.934 2103.07 560.814 2103.85 560.814 2104.68C560.814 2105.53 560.961 2106.33 561.254 2107.08C561.548 2107.83 561.948 2108.48 562.454 2109.04C562.988 2109.6 563.601 2110.04 564.294 2110.36C565.014 2110.68 565.774 2110.84 566.574 2110.84Z" fill="#515853"/>
<path d="M191.94 2157.04H197.02L188.26 2178H183.78L180.26 2169L176.82 2178H172.3L163.58 2157.04H168.62L174.86 2172.88L177.3 2166.04L173.66 2157.08H178.1L180.26 2163.48L182.46 2157.08H186.9L183.26 2166.04L185.74 2172.88L191.94 2157.04ZM226.095 2157.04H231.175L222.415 2178H217.935L214.415 2169L210.975 2178H206.455L197.735 2157.04H202.775L209.015 2172.88L211.455 2166.04L207.815 2157.08H212.255L214.415 2163.48L216.615 2157.08H221.055L217.415 2166.04L219.895 2172.88L226.095 2157.04ZM260.249 2157.04H265.329L256.569 2178H252.089L248.569 2169L245.129 2178H240.609L231.889 2157.04H236.929L243.169 2172.88L245.609 2166.04L241.969 2157.08H246.409L248.569 2163.48L250.769 2157.08H255.209L251.569 2166.04L254.049 2172.88L260.249 2157.04ZM265.55 2178V2172.24H269.95V2178H265.55ZM284.504 2178.4C282.798 2178.4 281.264 2178.12 279.904 2177.56C278.544 2176.97 277.384 2176.17 276.424 2175.16C275.491 2174.15 274.771 2172.99 274.264 2171.68C273.758 2170.37 273.504 2169 273.504 2167.56C273.504 2166.09 273.758 2164.71 274.264 2163.4C274.771 2162.09 275.491 2160.93 276.424 2159.92C277.384 2158.91 278.544 2158.12 279.904 2157.56C281.264 2156.97 282.798 2156.68 284.504 2156.68C286.211 2156.68 287.731 2156.97 289.064 2157.56C290.424 2158.12 291.584 2158.91 292.544 2159.92C293.504 2160.93 294.224 2162.09 294.704 2163.4C295.211 2164.71 295.464 2166.09 295.464 2167.56C295.464 2169 295.211 2170.37 294.704 2171.68C294.224 2172.99 293.504 2174.15 292.544 2175.16C291.611 2176.17 290.464 2176.97 289.104 2177.56C287.744 2178.12 286.211 2178.4 284.504 2178.4ZM279.024 2167.56C279.024 2168.79 279.264 2169.88 279.744 2170.84C280.224 2171.77 280.878 2172.51 281.704 2173.04C282.531 2173.57 283.464 2173.84 284.504 2173.84C285.518 2173.84 286.438 2173.57 287.264 2173.04C288.091 2172.48 288.744 2171.73 289.224 2170.8C289.731 2169.84 289.984 2168.75 289.984 2167.52C289.984 2166.32 289.731 2165.24 289.224 2164.28C288.744 2163.32 288.091 2162.57 287.264 2162.04C286.438 2161.51 285.518 2161.24 284.504 2161.24C283.464 2161.24 282.531 2161.52 281.704 2162.08C280.878 2162.61 280.224 2163.36 279.744 2164.32C279.264 2165.25 279.024 2166.33 279.024 2167.56ZM312.242 2178.4C310.616 2178.4 309.176 2178.04 307.922 2177.32C306.696 2176.57 305.736 2175.57 305.042 2174.32V2186.52H299.682V2157.04H304.362V2160.64C305.162 2159.41 306.176 2158.45 307.402 2157.76C308.629 2157.04 310.029 2156.68 311.602 2156.68C313.016 2156.68 314.309 2156.96 315.482 2157.52C316.682 2158.08 317.722 2158.87 318.602 2159.88C319.482 2160.87 320.162 2162.01 320.642 2163.32C321.149 2164.6 321.402 2165.99 321.402 2167.48C321.402 2169.51 321.002 2171.35 320.202 2173C319.429 2174.65 318.349 2175.97 316.962 2176.96C315.602 2177.92 314.029 2178.4 312.242 2178.4ZM310.442 2173.84C311.269 2173.84 312.016 2173.67 312.682 2173.32C313.349 2172.97 313.922 2172.51 314.402 2171.92C314.909 2171.31 315.282 2170.63 315.522 2169.88C315.789 2169.11 315.922 2168.31 315.922 2167.48C315.922 2166.6 315.776 2165.79 315.482 2165.04C315.216 2164.29 314.816 2163.64 314.282 2163.08C313.749 2162.49 313.122 2162.04 312.402 2161.72C311.709 2161.4 310.949 2161.24 310.122 2161.24C309.616 2161.24 309.096 2161.33 308.562 2161.52C308.056 2161.68 307.562 2161.92 307.082 2162.24C306.602 2162.56 306.176 2162.93 305.802 2163.36C305.456 2163.79 305.202 2164.25 305.042 2164.76V2169.68C305.362 2170.45 305.789 2171.16 306.322 2171.8C306.882 2172.44 307.522 2172.95 308.242 2173.32C308.962 2173.67 309.696 2173.84 310.442 2173.84ZM335.354 2178.4C333.674 2178.4 332.154 2178.12 330.794 2177.56C329.434 2176.97 328.274 2176.19 327.314 2175.2C326.354 2174.19 325.607 2173.04 325.074 2171.76C324.567 2170.45 324.314 2169.08 324.314 2167.64C324.314 2165.64 324.754 2163.81 325.634 2162.16C326.54 2160.51 327.82 2159.19 329.474 2158.2C331.154 2157.19 333.127 2156.68 335.394 2156.68C337.687 2156.68 339.647 2157.19 341.274 2158.2C342.9 2159.19 344.14 2160.51 344.994 2162.16C345.874 2163.79 346.314 2165.55 346.314 2167.44C346.314 2167.76 346.3 2168.09 346.274 2168.44C346.247 2168.76 346.22 2169.03 346.194 2169.24H329.994C330.1 2170.31 330.407 2171.24 330.914 2172.04C331.447 2172.84 332.114 2173.45 332.914 2173.88C333.74 2174.28 334.62 2174.48 335.554 2174.48C336.62 2174.48 337.62 2174.23 338.554 2173.72C339.514 2173.19 340.167 2172.49 340.514 2171.64L345.114 2172.92C344.607 2173.99 343.874 2174.93 342.914 2175.76C341.98 2176.59 340.874 2177.24 339.594 2177.72C338.314 2178.17 336.9 2178.4 335.354 2178.4ZM329.874 2165.84H340.834C340.727 2164.77 340.42 2163.85 339.914 2163.08C339.434 2162.28 338.794 2161.67 337.994 2161.24C337.194 2160.79 336.3 2160.56 335.314 2160.56C334.354 2160.56 333.474 2160.79 332.674 2161.24C331.9 2161.67 331.26 2162.28 330.754 2163.08C330.274 2163.85 329.98 2164.77 329.874 2165.84ZM369.659 2178H364.299V2166.24C364.299 2164.56 364.006 2163.33 363.419 2162.56C362.832 2161.79 362.019 2161.4 360.979 2161.4C360.259 2161.4 359.526 2161.59 358.779 2161.96C358.059 2162.33 357.406 2162.85 356.819 2163.52C356.232 2164.16 355.806 2164.91 355.539 2165.76V2178H350.179V2157.04H355.019V2160.92C355.552 2160.01 356.232 2159.25 357.059 2158.64C357.886 2158 358.832 2157.52 359.899 2157.2C360.992 2156.85 362.139 2156.68 363.339 2156.68C364.646 2156.68 365.712 2156.92 366.539 2157.4C367.392 2157.85 368.032 2158.48 368.459 2159.28C368.912 2160.05 369.219 2160.93 369.379 2161.92C369.566 2162.91 369.659 2163.91 369.659 2164.92V2178ZM374.88 2148.8H380.24V2171.28C380.24 2172.24 380.4 2172.89 380.72 2173.24C381.04 2173.56 381.48 2173.72 382.04 2173.72C382.466 2173.72 382.906 2173.67 383.36 2173.56C383.813 2173.45 384.213 2173.32 384.56 2173.16L385.28 2177.24C384.56 2177.59 383.72 2177.85 382.76 2178.04C381.8 2178.23 380.933 2178.32 380.16 2178.32C378.48 2178.32 377.173 2177.88 376.24 2177C375.333 2176.09 374.88 2174.81 374.88 2173.16V2148.8ZM388.215 2178V2157.04H393.575V2178H388.215ZM388.215 2154.12V2148.8H393.575V2154.12H388.215ZM400.29 2178V2162.24H397.53V2158.16H400.29V2156.88C400.29 2155.15 400.57 2153.65 401.13 2152.4C401.717 2151.12 402.53 2150.13 403.57 2149.44C404.637 2148.75 405.877 2148.4 407.29 2148.4C408.144 2148.4 408.997 2148.51 409.85 2148.72C410.73 2148.93 411.597 2149.24 412.45 2149.64L411.37 2153.68C410.97 2153.47 410.504 2153.29 409.97 2153.16C409.437 2153 408.93 2152.92 408.45 2152.92C407.544 2152.92 406.85 2153.24 406.37 2153.88C405.89 2154.52 405.65 2155.45 405.65 2156.68V2158.16H410.77V2162.24H405.65V2178H400.29ZM423.862 2178.4C422.182 2178.4 420.662 2178.12 419.302 2177.56C417.942 2176.97 416.782 2176.19 415.822 2175.2C414.862 2174.19 414.115 2173.04 413.582 2171.76C413.075 2170.45 412.822 2169.08 412.822 2167.64C412.822 2165.64 413.262 2163.81 414.142 2162.16C415.048 2160.51 416.328 2159.19 417.982 2158.2C419.662 2157.19 421.635 2156.68 423.902 2156.68C426.195 2156.68 428.155 2157.19 429.782 2158.2C431.408 2159.19 432.648 2160.51 433.502 2162.16C434.382 2163.79 434.822 2165.55 434.822 2167.44C434.822 2167.76 434.808 2168.09 434.782 2168.44C434.755 2168.76 434.728 2169.03 434.702 2169.24H418.502C418.608 2170.31 418.915 2171.24 419.422 2172.04C419.955 2172.84 420.622 2173.45 421.422 2173.88C422.248 2174.28 423.128 2174.48 424.062 2174.48C425.128 2174.48 426.128 2174.23 427.062 2173.72C428.022 2173.19 428.675 2172.49 429.022 2171.64L433.622 2172.92C433.115 2173.99 432.382 2174.93 431.422 2175.76C430.488 2176.59 429.382 2177.24 428.102 2177.72C426.822 2178.17 425.408 2178.4 423.862 2178.4ZM418.382 2165.84H429.342C429.235 2164.77 428.928 2163.85 428.422 2163.08C427.942 2162.28 427.302 2161.67 426.502 2161.24C425.702 2160.79 424.808 2160.56 423.822 2160.56C422.862 2160.56 421.982 2160.79 421.182 2161.24C420.408 2161.67 419.768 2162.28 419.262 2163.08C418.782 2163.85 418.488 2164.77 418.382 2165.84ZM446.407 2178.4C444.62 2178.4 442.914 2178.11 441.287 2177.52C439.66 2176.93 438.26 2176.07 437.087 2174.92L439.007 2171.44C440.26 2172.45 441.487 2173.2 442.687 2173.68C443.914 2174.16 445.087 2174.4 446.207 2174.4C447.247 2174.4 448.074 2174.21 448.687 2173.84C449.327 2173.47 449.647 2172.91 449.647 2172.16C449.647 2171.65 449.474 2171.27 449.127 2171C448.78 2170.71 448.274 2170.45 447.607 2170.24C446.967 2170.03 446.18 2169.79 445.247 2169.52C443.7 2169.01 442.407 2168.52 441.367 2168.04C440.327 2167.56 439.54 2166.96 439.007 2166.24C438.5 2165.49 438.247 2164.55 438.247 2163.4C438.247 2162.01 438.594 2160.83 439.287 2159.84C440.007 2158.83 440.994 2158.04 442.247 2157.48C443.527 2156.92 445.02 2156.64 446.727 2156.64C448.22 2156.64 449.634 2156.88 450.967 2157.36C452.3 2157.81 453.514 2158.56 454.607 2159.6L452.447 2163C451.38 2162.17 450.367 2161.57 449.407 2161.2C448.447 2160.8 447.474 2160.6 446.487 2160.6C445.927 2160.6 445.394 2160.67 444.887 2160.8C444.407 2160.93 444.007 2161.16 443.687 2161.48C443.394 2161.77 443.247 2162.2 443.247 2162.76C443.247 2163.27 443.38 2163.67 443.647 2163.96C443.94 2164.23 444.367 2164.47 444.927 2164.68C445.514 2164.89 446.22 2165.13 447.047 2165.4C448.727 2165.88 450.14 2166.37 451.287 2166.88C452.46 2167.39 453.34 2168.01 453.927 2168.76C454.514 2169.48 454.807 2170.48 454.807 2171.76C454.807 2173.84 454.047 2175.47 452.527 2176.64C451.007 2177.81 448.967 2178.4 446.407 2178.4ZM468.812 2178.4C467.106 2178.4 465.572 2178.12 464.212 2177.56C462.852 2176.97 461.692 2176.17 460.732 2175.16C459.772 2174.12 459.026 2172.95 458.492 2171.64C457.986 2170.33 457.732 2168.96 457.732 2167.52C457.732 2165.55 458.172 2163.75 459.052 2162.12C459.959 2160.47 461.239 2159.15 462.892 2158.16C464.546 2157.17 466.506 2156.68 468.772 2156.68C471.039 2156.68 472.986 2157.17 474.612 2158.16C476.239 2159.15 477.452 2160.44 478.252 2162.04L473.012 2163.64C472.559 2162.87 471.959 2162.28 471.212 2161.88C470.466 2161.45 469.639 2161.24 468.732 2161.24C467.719 2161.24 466.786 2161.51 465.932 2162.04C465.106 2162.55 464.452 2163.28 463.972 2164.24C463.492 2165.17 463.252 2166.27 463.252 2167.52C463.252 2168.75 463.492 2169.84 463.972 2170.8C464.479 2171.73 465.146 2172.48 465.972 2173.04C466.799 2173.57 467.719 2173.84 468.732 2173.84C469.372 2173.84 469.972 2173.73 470.532 2173.52C471.119 2173.31 471.639 2173.01 472.092 2172.64C472.546 2172.27 472.879 2171.84 473.092 2171.36L478.332 2172.96C477.852 2174 477.146 2174.93 476.212 2175.76C475.306 2176.59 474.226 2177.24 472.972 2177.72C471.746 2178.17 470.359 2178.4 468.812 2178.4ZM482.231 2178V2157.04H487.591V2178H482.231ZM482.231 2154.12V2148.8H487.591V2154.12H482.231ZM492.906 2178V2172.24H497.306V2178H492.906ZM511.861 2178.4C510.154 2178.4 508.621 2178.12 507.261 2177.56C505.901 2176.97 504.741 2176.17 503.781 2175.16C502.847 2174.15 502.127 2172.99 501.621 2171.68C501.114 2170.37 500.861 2169 500.861 2167.56C500.861 2166.09 501.114 2164.71 501.621 2163.4C502.127 2162.09 502.847 2160.93 503.781 2159.92C504.741 2158.91 505.901 2158.12 507.261 2157.56C508.621 2156.97 510.154 2156.68 511.861 2156.68C513.567 2156.68 515.087 2156.97 516.421 2157.56C517.781 2158.12 518.941 2158.91 519.901 2159.92C520.861 2160.93 521.581 2162.09 522.061 2163.4C522.567 2164.71 522.821 2166.09 522.821 2167.56C522.821 2169 522.567 2170.37 522.061 2171.68C521.581 2172.99 520.861 2174.15 519.901 2175.16C518.967 2176.17 517.821 2176.97 516.461 2177.56C515.101 2178.12 513.567 2178.4 511.861 2178.4ZM506.381 2167.56C506.381 2168.79 506.621 2169.88 507.101 2170.84C507.581 2171.77 508.234 2172.51 509.061 2173.04C509.887 2173.57 510.821 2173.84 511.861 2173.84C512.874 2173.84 513.794 2173.57 514.621 2173.04C515.447 2172.48 516.101 2171.73 516.581 2170.8C517.087 2169.84 517.341 2168.75 517.341 2167.52C517.341 2166.32 517.087 2165.24 516.581 2164.28C516.101 2163.32 515.447 2162.57 514.621 2162.04C513.794 2161.51 512.874 2161.24 511.861 2161.24C510.821 2161.24 509.887 2161.52 509.061 2162.08C508.234 2162.61 507.581 2163.36 507.101 2164.32C506.621 2165.25 506.381 2166.33 506.381 2167.56ZM539.518 2161.68C537.892 2161.68 536.438 2162 535.158 2162.64C533.878 2163.25 532.958 2164.15 532.398 2165.32V2178H527.038V2157.04H531.958V2161.52C532.705 2160.08 533.652 2158.95 534.798 2158.12C535.945 2157.29 537.158 2156.84 538.438 2156.76C538.732 2156.76 538.958 2156.76 539.118 2156.76C539.278 2156.76 539.412 2156.77 539.518 2156.8V2161.68ZM551.112 2178.12C549.725 2178.12 548.445 2177.85 547.272 2177.32C546.125 2176.76 545.125 2175.99 544.272 2175C543.445 2174.01 542.805 2172.88 542.352 2171.6C541.899 2170.32 541.672 2168.96 541.672 2167.52C541.672 2166 541.912 2164.59 542.392 2163.28C542.872 2161.97 543.539 2160.83 544.392 2159.84C545.272 2158.83 546.299 2158.05 547.472 2157.52C548.672 2156.96 549.992 2156.68 551.432 2156.68C553.059 2156.68 554.485 2157.05 555.712 2157.8C556.939 2158.52 557.952 2159.49 558.752 2160.72V2157.04H563.432V2177C563.432 2179.08 562.925 2180.85 561.912 2182.32C560.925 2183.81 559.552 2184.95 557.792 2185.72C556.032 2186.52 554.032 2186.92 551.792 2186.92C549.525 2186.92 547.605 2186.53 546.032 2185.76C544.459 2185.01 543.112 2183.95 541.992 2182.56L544.912 2179.72C545.712 2180.71 546.712 2181.48 547.912 2182.04C549.139 2182.6 550.432 2182.88 551.792 2182.88C552.939 2182.88 553.979 2182.67 554.912 2182.24C555.872 2181.84 556.632 2181.2 557.192 2180.32C557.779 2179.47 558.072 2178.36 558.072 2177V2174.36C557.379 2175.56 556.392 2176.49 555.112 2177.16C553.859 2177.8 552.525 2178.12 551.112 2178.12ZM552.912 2173.84C553.499 2173.84 554.059 2173.75 554.592 2173.56C555.125 2173.37 555.619 2173.12 556.072 2172.8C556.525 2172.48 556.925 2172.11 557.272 2171.68C557.619 2171.23 557.885 2170.77 558.072 2170.32V2165.32C557.752 2164.49 557.299 2163.77 556.712 2163.16C556.152 2162.55 555.512 2162.08 554.792 2161.76C554.099 2161.41 553.365 2161.24 552.592 2161.24C551.765 2161.24 551.019 2161.41 550.352 2161.76C549.685 2162.11 549.112 2162.6 548.632 2163.24C548.152 2163.85 547.779 2164.55 547.512 2165.32C547.272 2166.07 547.152 2166.85 547.152 2167.68C547.152 2168.53 547.299 2169.33 547.592 2170.08C547.885 2170.83 548.285 2171.48 548.792 2172.04C549.325 2172.6 549.939 2173.04 550.632 2173.36C551.352 2173.68 552.112 2173.84 552.912 2173.84Z" fill="#515853"/>
<path d="M1737.44 68.4564C1787.23 202.865 1693.82 316.779 1578.94 287.317C1524.48 273.35 1452.25 219.975 1396.8 110.545C1320.1 -40.9739 1359.78 -223.427 1412.4 -316C1503.69 -24.5672 1647.61 -126.283 1737.44 68.4564Z" fill="#020887"/>
<path d="M1795.23 341.069C1836.16 451.568 1759.37 545.219 1664.93 520.998C1620.16 509.516 1560.78 465.635 1515.18 375.67C1452.13 251.104 1484.75 101.106 1528.01 25C1603.06 264.592 1721.38 180.97 1795.23 341.069Z" fill="#A5F200"/>
<path d="M247.232 2311.07C288.164 2421.57 211.368 2515.22 116.926 2491C72.1568 2479.52 12.7767 2435.63 -32.8158 2345.67C-95.8702 2221.1 -63.2517 2071.11 -19.9874 1995C55.0649 2234.59 173.381 2150.97 247.232 2311.07Z" fill="#020887"/>
</g>
<defs>
<filter id="filter0_d_959_320" x="964.699" y="1950.23" width="846.55" height="515.439" filterUnits="userSpaceOnUse" color-interpolation-filters="sRGB">
<feFlood flood-opacity="0" result="BackgroundImageFix"/>
<feColorMatrix in="SourceAlpha" type="matrix" values="0 0 0 0 0 0 0 0 0 0 0 0 0 0 0 0 0 0 127 0" result="hardAlpha"/>
<feOffset dx="-47.3043" dy="-11.353"/>
<feGaussianBlur stdDeviation="24.5982"/>
<feComposite in2="hardAlpha" operator="out"/>
<feColorMatrix type="matrix" values="0 0 0 0 0.104722 0 0 0 0 0.433333 0 0 0 0 0.204734 0 0 0 0.13 0"/>
<feBlend mode="normal" in2="BackgroundImageFix" result="effect1_dropShadow_959_320"/>
<feBlend mode="normal" in="SourceGraphic" in2="effect1_dropShadow_959_320" result="shape"/>
</filter>
<linearGradient id="paint0_linear_959_320" x1="316.782" y1="155.845" x2="316.782" y2="351.556" gradientUnits="userSpaceOnUse">
<stop stop-color="#A5F200"/>
<stop offset="1" stop-color="#139D3D"/>
</linearGradient>
<linearGradient id="paint1_linear_959_320" x1="204.417" y1="155.845" x2="204.417" y2="351.556" gradientUnits="userSpaceOnUse">
<stop stop-color="#A5F200"/>
<stop offset="1" stop-color="#139D3D"/>
</linearGradient>
<linearGradient id="paint2_linear_959_320" x1="260.506" y1="86.8975" x2="260.506" y2="239" gradientUnits="userSpaceOnUse">
<stop stop-color="#A5F200"/>
<stop offset="1" stop-color="#139D3D"/>
</linearGradient>
<linearGradient id="paint3_linear_959_320" x1="952.298" y1="2035.11" x2="1777.06" y2="2305.47" gradientUnits="userSpaceOnUse">
<stop stop-color="#A5F200"/>
<stop offset="1" stop-color="#139D3D"/>
</linearGradient>
<clipPath id="clip0_959_320">
<rect width="1640" height="2319" fill="white"/>
</clipPath>
</defs>
</svg>
