<svg width="1640" height="2319" viewBox="0 0 1640 2319" fill="none" xmlns="http://www.w3.org/2000/svg">
<g clip-path="url(#clip0_959_320)">
<rect width="1640" height="2319" fill="white"/>
<mask id="path-1-inside-1_959_320" fill="white">
<path fill-rule="evenodd" clip-rule="evenodd" d="M267.888 333.553C261.683 323.048 260.173 308.902 266.121 293.749C276.859 271.783 290.417 264.403 304.368 256.809C322.401 246.994 341.09 236.821 355.195 194.331C369.616 218.27 380.489 265.451 359.471 304.633C344.273 332.931 324.48 346.733 309.557 350.345C297.099 353.36 285.563 350.569 277.015 343.942L337.177 275.861L267.888 333.553Z"/>
</mask>
<path fill-rule="evenodd" clip-rule="evenodd" d="M267.888 333.553C261.683 323.048 260.173 308.902 266.121 293.749C276.859 271.783 290.417 264.403 304.368 256.809C322.401 246.994 341.09 236.821 355.195 194.331C369.616 218.27 380.489 265.451 359.471 304.633C344.273 332.931 324.48 346.733 309.557 350.345C297.099 353.36 285.563 350.569 277.015 343.942L337.177 275.861L267.888 333.553Z" fill="url(#paint0_linear_959_320)"/>
<path d="M266.121 293.749L262.728 292.417L262.781 292.28L262.846 292.148L266.121 293.749ZM267.888 333.553L270.221 336.355L266.928 339.097L264.749 335.408L267.888 333.553ZM304.368 256.809L306.111 260.011L304.368 256.809ZM355.195 194.331L351.735 193.182L354.23 185.665L358.318 192.45L355.195 194.331ZM359.471 304.633L362.684 306.356L362.683 306.358L359.471 304.633ZM309.557 350.345L310.414 353.888L309.557 350.345ZM277.015 343.942L274.782 346.823L271.709 344.441L274.283 341.527L277.015 343.942ZM337.177 275.861L334.844 273.06L339.909 278.275L337.177 275.861ZM269.515 295.081C263.938 309.287 265.444 322.247 271.027 331.699L264.749 335.408C257.922 323.849 256.407 308.517 262.728 292.417L269.515 295.081ZM306.111 260.011C292.309 267.524 279.614 274.448 269.396 295.35L262.846 292.148C274.104 269.117 288.525 261.282 302.625 253.607L306.111 260.011ZM358.655 195.48C351.475 217.108 343.036 230.783 333.889 240.343C324.762 249.881 315.112 255.112 306.111 260.011L302.625 253.607C311.657 248.691 320.368 243.927 328.62 235.302C336.852 226.699 344.81 214.044 351.735 193.182L358.655 195.48ZM356.258 302.909C376.493 265.189 366.047 219.41 352.072 196.212L358.318 192.45C373.185 217.129 384.486 265.713 362.684 306.356L356.258 302.909ZM308.699 346.801C322.375 343.492 341.422 330.535 356.259 302.908L362.683 306.358C347.125 335.327 326.585 349.975 310.414 353.888L308.699 346.801ZM279.249 341.06C286.898 346.991 297.291 349.562 308.699 346.801L310.414 353.888C296.908 357.157 284.229 354.147 274.782 346.823L279.249 341.06ZM274.283 341.527L334.445 273.447L339.909 278.275L279.747 346.356L274.283 341.527ZM339.51 278.663L270.221 336.355L265.556 330.752L334.844 273.06L339.51 278.663Z" fill="#139D3D" fill-opacity="0.47" mask="url(#path-1-inside-1_959_320)"/>
<mask id="path-3-inside-2_959_320" fill="white">
<path fill-rule="evenodd" clip-rule="evenodd" d="M253.31 333.555C259.516 323.05 261.027 308.903 255.078 293.749C244.34 271.783 230.782 264.403 216.831 256.809C198.798 246.994 180.109 236.821 166.004 194.331C151.583 218.27 140.71 265.451 161.728 304.633C176.926 332.931 196.719 346.733 211.643 350.345C224.099 353.359 235.634 350.569 244.182 343.943L184.019 275.861L253.31 333.555Z"/>
</mask>
<path fill-rule="evenodd" clip-rule="evenodd" d="M253.31 333.555C259.516 323.05 261.027 308.903 255.078 293.749C244.34 271.783 230.782 264.403 216.831 256.809C198.798 246.994 180.109 236.821 166.004 194.331C151.583 218.27 140.71 265.451 161.728 304.633C176.926 332.931 196.719 346.733 211.643 350.345C224.099 353.359 235.634 350.569 244.182 343.943L184.019 275.861L253.31 333.555Z" fill="url(#paint1_linear_959_320)"/>
<path d="M255.078 293.749L258.472 292.417L258.418 292.28L258.353 292.148L255.078 293.749ZM253.31 333.555L250.977 336.357L254.27 339.099L256.449 335.41L253.31 333.555ZM216.831 256.809L215.088 260.011L216.831 256.809ZM166.004 194.331L169.464 193.182L166.969 185.665L162.882 192.45L166.004 194.331ZM161.728 304.633L158.516 306.356L158.516 306.358L161.728 304.633ZM211.643 350.345L210.785 353.888H210.785L211.643 350.345ZM244.182 343.943L246.415 346.825L249.488 344.443L246.914 341.529L244.182 343.943ZM184.019 275.861L186.351 273.059L181.287 278.275L184.019 275.861ZM251.684 295.081C257.262 309.288 255.755 322.249 250.171 331.701L256.449 335.41C263.277 323.851 264.792 308.518 258.472 292.417L251.684 295.081ZM215.088 260.011C228.89 267.524 241.585 274.448 251.803 295.35L258.353 292.148C247.095 269.117 232.674 261.282 218.574 253.607L215.088 260.011ZM162.544 195.48C169.724 217.108 178.163 230.783 187.311 240.343C196.437 249.881 206.087 255.112 215.088 260.011L218.574 253.607C209.542 248.691 200.831 243.927 192.579 235.302C184.347 226.699 176.39 214.044 169.464 193.182L162.544 195.48ZM164.941 302.909C144.706 265.189 155.152 219.41 169.127 196.212L162.882 192.45C148.014 217.129 136.714 265.713 158.516 306.356L164.941 302.909ZM212.5 346.801C198.824 343.492 179.777 330.535 164.94 302.908L158.516 306.358C174.074 335.327 194.615 349.975 210.785 353.888L212.5 346.801ZM241.948 341.062C234.299 346.991 223.907 349.562 212.5 346.801L210.785 353.888C224.29 357.157 236.969 354.148 246.415 346.825L241.948 341.062ZM246.914 341.529L186.75 273.447L181.287 278.275L241.45 346.357L246.914 341.529ZM181.686 278.663L250.977 336.357L255.643 330.754L186.351 273.059L181.686 278.663Z" fill="#139D3D" fill-opacity="0.47" mask="url(#path-3-inside-2_959_320)"/>
<text fill="url(#paint2_linear_959_320)" stroke="#139D3D" stroke-opacity="0.12" stroke-width="2.18741" xml:space="preserve" style="white-space: pre" font-family="Raleway" font-size="75.5018" font-weight="bold" letter-spacing="0em"><tspan x="186.506" y="221.152">OLS</tspan></text>
<g filter="url(#filter0_d_959_320)">
<path d="M1603.72 2011.23C1769.12 2001.51 1857.75 2150.53 1781.98 2273.22C1746.06 2331.38 1660.43 2396.07 1520.1 2421.29C1325.83 2456.11 1142.08 2344.92 1061.2 2250.82C1413.5 2249.07 1357.36 2045.84 1603.72 2011.23Z" fill="url(#paint3_linear_959_320)"/>
</g>
<rect y="408" width="41" height="1911" fill="#139D3D"/>
<rect x="-4" width="41" height="116" fill="#020887"/>
<text fill="#515853" xml:space="preserve" style="white-space: pre" font-family="Raleway" font-size="40" font-weight="bold" letter-spacing="0.015em"><tspan x="150" y="2114.62">team@openlifesci.org</tspan></text>
<text fill="#515853" xml:space="preserve" style="white-space: pre" font-family="Raleway" font-size="40" font-weight="bold" letter-spacing="0.015em"><tspan x="163.5" y="2177.62">www.openlifesci.org</tspan></text>
<path d="M1737.44 68.4564C1787.23 202.865 1693.82 316.779 1578.94 287.317C1524.48 273.35 1452.25 219.975 1396.8 110.545C1320.1 -40.9739 1359.78 -223.427 1412.4 -316C1503.69 -24.5672 1647.61 -126.283 1737.44 68.4564Z" fill="#020887"/>
<path d="M1795.23 341.069C1836.16 451.568 1759.37 545.219 1664.93 520.998C1620.16 509.516 1560.78 465.635 1515.18 375.67C1452.13 251.104 1484.75 101.106 1528.01 25C1603.06 264.592 1721.38 180.97 1795.23 341.069Z" fill="#A5F200"/>
<path d="M247.232 2311.07C288.164 2421.57 211.368 2515.22 116.926 2491C72.1568 2479.52 12.7767 2435.63 -32.8158 2345.67C-95.8702 2221.1 -63.2517 2071.11 -19.9874 1995C55.0649 2234.59 173.381 2150.97 247.232 2311.07Z" fill="#020887"/>
</g>
<defs>
<filter id="filter0_d_959_320" x="964.699" y="1950.23" width="846.55" height="515.439" filterUnits="userSpaceOnUse" color-interpolation-filters="sRGB">
<feFlood flood-opacity="0" result="BackgroundImageFix"/>
<feColorMatrix in="SourceAlpha" type="matrix" values="0 0 0 0 0 0 0 0 0 0 0 0 0 0 0 0 0 0 127 0" result="hardAlpha"/>
<feOffset dx="-47.3043" dy="-11.353"/>
<feGaussianBlur stdDeviation="24.5982"/>
<feComposite in2="hardAlpha" operator="out"/>
<feColorMatrix type="matrix" values="0 0 0 0 0.104722 0 0 0 0 0.433333 0 0 0 0 0.204734 0 0 0 0.13 0"/>
<feBlend mode="normal" in2="BackgroundImageFix" result="effect1_dropShadow_959_320"/>
<feBlend mode="normal" in="SourceGraphic" in2="effect1_dropShadow_959_320" result="shape"/>
</filter>
<linearGradient id="paint0_linear_959_320" x1="316.782" y1="155.845" x2="316.782" y2="351.556" gradientUnits="userSpaceOnUse">
<stop stop-color="#A5F200"/>
<stop offset="1" stop-color="#139D3D"/>
</linearGradient>
<linearGradient id="paint1_linear_959_320" x1="204.417" y1="155.845" x2="204.417" y2="351.556" gradientUnits="userSpaceOnUse">
<stop stop-color="#A5F200"/>
<stop offset="1" stop-color="#139D3D"/>
</linearGradient>
<linearGradient id="paint2_linear_959_320" x1="260.506" y1="86.8975" x2="260.506" y2="239" gradientUnits="userSpaceOnUse">
<stop stop-color="#A5F200"/>
<stop offset="1" stop-color="#139D3D"/>
</linearGradient>
<linearGradient id="paint3_linear_959_320" x1="952.298" y1="2035.11" x2="1777.06" y2="2305.47" gradientUnits="userSpaceOnUse">
<stop stop-color="#A5F200"/>
<stop offset="1" stop-color="#139D3D"/>
</linearGradient>
<clipPath id="clip0_959_320">
<rect width="1640" height="2319" fill="white"/>
</clipPath>
</defs>
</svg>
