<svg width="509" height="222" viewBox="0 0 509 222" fill="none" xmlns="http://www.w3.org/2000/svg">
<path d="M386.156 122.585C386.302 123.811 386.539 124.992 386.858 126.124C382.865 133.589 381.006 142.036 381.006 150.684C381.006 164.199 385.54 177.24 395.679 186.809C405.67 196.238 418.819 200.147 432.089 200.147C445.358 200.147 458.507 196.239 468.501 186.817C478.647 177.252 483.194 164.211 483.194 150.684C483.194 142.065 481.345 133.651 477.382 126.209C477.716 125.043 477.962 123.825 478.112 122.559L486.65 50.0695C488.205 36.8613 477.886 25.2547 464.586 25.2547H399.593C386.283 25.2547 375.96 36.8782 377.532 50.0951L386.156 122.585Z" fill="white" stroke="white" stroke-width="42.5414"/>
<path d="M74.273 180.216L74.4347 180.288L74.5975 180.358C85.3113 184.949 96.773 187.057 108.646 187.057C120.391 187.057 131.735 185.061 142.363 180.696L142.529 180.628L142.694 180.557C151.738 176.681 159.94 171.51 167.115 164.984C167.796 177.95 178.525 188.254 191.66 188.254H273.161C280.143 188.254 286.445 185.343 290.919 180.668C295.834 182.475 300.963 184.072 306.288 185.477L306.474 185.526L306.66 185.572C317.999 188.367 329.215 189.85 340.248 189.85C347.612 189.85 354.88 189.08 362.021 187.516C370.028 185.794 377.618 182.848 384.588 178.543L384.799 178.413L385.008 178.278C392.687 173.309 398.918 166.741 403.461 158.79L403.532 158.666L403.601 158.542C408.693 149.376 410.565 139.249 410.565 129.308C410.565 118.995 408.389 108.103 401.876 98.6448C399.995 95.8516 397.881 93.3123 395.58 91.0099L404.273 74.2192C410.675 61.8538 405.555 46.4212 392.614 40.5449C386.447 37.745 379.241 34.9587 371.136 32.1671C360.532 28.4639 349.457 26.6723 338.054 26.6723C327.108 26.6723 316.501 28.6949 306.449 32.8672L306.375 32.8979L306.301 32.9292C295.766 37.3863 286.763 44.2257 279.869 53.4493C272.014 63.8143 268.734 75.9689 268.734 88.4109C268.734 96.1462 270.028 104.028 273.333 111.46C273.276 111.46 273.218 111.46 273.161 111.46H248.264V52.2493C248.264 38.6744 237.26 27.6698 223.685 27.6698H191.66C179.72 27.6698 169.769 36.1834 167.545 47.4712C160.586 40.8819 152.559 35.6822 143.652 31.8441C132.861 27.0566 121.264 24.8766 109.244 24.8766C97.5149 24.8766 86.1858 26.98 75.5629 31.504C65.5874 35.6233 56.6154 41.362 48.855 48.7529L48.752 48.851L48.6502 48.9503C41.0771 56.3386 35.0913 64.9226 30.8066 74.5833C26.3923 84.4004 24.1637 94.8014 24.1637 105.568C24.1637 116.131 26.2955 126.373 30.4206 136.123C34.5112 145.792 40.2925 154.442 47.6391 161.972L47.7409 162.076L47.8441 162.18C55.4547 169.79 64.3419 175.782 74.273 180.216ZM111.073 102.796L111.25 103.348L111.454 103.891C111.641 104.391 111.744 104.902 111.744 105.568C111.744 106.328 111.629 107.226 111.273 108.34L130.836 114.6L111.273 108.34C111.108 108.855 110.919 109.225 110.707 109.531C110.501 109.577 109.982 109.664 109.045 109.664C107.931 109.664 107.267 109.564 106.946 109.497C106.899 109.467 106.856 109.44 106.818 109.414C106.604 109.079 106.416 108.731 106.251 108.363C106.041 107.552 105.946 106.768 105.946 105.967C105.946 104.978 106.09 104.181 106.329 103.466C106.427 103.169 106.55 102.89 106.714 102.609L106.95 102.505L107.147 102.41C107.324 102.368 107.849 102.269 108.845 102.269C110.07 102.269 110.691 102.409 110.883 102.463L110.982 102.574C110.987 102.579 110.99 102.582 110.992 102.585C110.993 102.586 110.994 102.588 110.995 102.59C110.998 102.596 111.003 102.607 111.01 102.623C111.023 102.653 111.046 102.709 111.073 102.796ZM110.812 109.505C110.812 109.505 110.807 109.506 110.796 109.509C110.807 109.506 110.812 109.504 110.812 109.505ZM107.078 102.429C107.077 102.429 107.083 102.427 107.093 102.424C107.083 102.427 107.078 102.429 107.078 102.429Z" fill="white" stroke="white" stroke-width="47.2682"/>
<path d="M193.384 122.627C193.384 159.435 160.37 189.275 119.646 189.275C78.9211 189.275 45.9072 159.435 45.9072 122.627C45.9072 85.8179 78.9211 55.9785 119.646 55.9785C160.37 55.9785 193.384 85.8179 193.384 122.627Z" fill="#139D3D"/>
<path d="M56.307 156.659L36.9262 125.463L57.7469 109.859L82.6301 139.564L56.307 156.659Z" fill="#139D3D"/>
<path d="M373.949 102.601C373.25 102.094 368.867 92.3368 364.496 90.311C360.124 88.1163 357.874 84.9326 351.58 83.0755C345.46 81.0497 339.252 80.0367 332.957 80.0367C329.11 80.0367 326.05 80.3744 323.777 81.0497C321.504 81.5561 320.367 82.6535 320.367 84.3417C320.367 86.3676 321.504 87.9714 323.777 89.1532C326.225 90.3349 332.782 84.4184 337.154 85.6002C341.7 86.6131 349.169 87.2961 355.289 89.1532C365.255 91.8543 375.185 94.5851 375.71 106.373C383.054 109.918 388.649 114.477 392.496 120.048C396.518 125.619 398.529 132.963 398.529 142.079C398.529 151.027 396.78 158.539 393.283 164.617C389.786 170.526 385.065 175.337 379.12 179.051C373.175 182.597 366.53 185.129 359.186 186.648C352.017 188.168 344.673 188.928 337.154 188.928C325.438 188.928 313.198 187.408 300.434 184.369C287.844 181.162 276.74 177.194 267.123 172.467L288.462 129.964C289.512 130.976 295.537 129.671 300.434 132.203C305.504 134.567 310.706 136.754 318.225 138.949C325.744 140.974 333.593 143.441 341.811 143.441C346.357 143.441 345.634 149.592 347.383 148.916C349.306 148.072 350.268 147.144 350.268 146.131C350.268 143.767 348.607 141.995 345.285 140.813C342.137 139.462 337.853 138.196 332.433 137.014C327.187 135.664 321.329 134.06 314.859 132.203C305.417 129.333 297.723 126.041 291.778 122.327C285.833 118.613 281.374 114.139 278.401 108.905C275.604 103.672 274.205 97.4255 274.205 90.1661C274.205 79.6991 277.003 70.9203 282.598 63.8297C288.193 56.5703 295.537 51.0836 304.63 47.3695C313.898 43.6554 323.777 41.7983 334.269 41.7983C345.984 41.7983 357.088 43.571 367.579 47.1163C378.245 50.6615 387.163 54.038 394.332 57.2456L373.949 102.601Z" fill="#139D3D"/>
<path fill-rule="evenodd" clip-rule="evenodd" d="M211.345 25.7271L236.914 55.8656C237.494 56.5489 237.812 57.4159 237.812 58.312V109.864H260.503L296.899 152.405H286.972V185.493C286.972 187.581 285.279 189.274 283.19 189.274H238.758C238.431 189.274 238.115 189.233 237.812 189.155V189.275H185.817L185.818 189.272C184.764 189.235 183.771 188.759 183.082 187.955L162.811 164.321C160.707 161.869 162.45 158.078 165.681 158.078L190.687 158.078L211.345 25.7271Z" fill="#139D3D"/>
<path d="M351.768 75.6995L353.351 76.846L354.407 74.8591L370.478 44.6075L371.461 42.757L369.548 41.9012C363.482 39.1872 353.799 35.14 344.738 32.1278C335.694 29.0726 326.137 27.55 316.077 27.55C307.009 27.55 298.445 29.1562 290.401 32.38L290.401 32.3799L290.389 32.3848C282.443 35.6306 275.975 40.4491 271.04 46.8484C266.02 53.214 263.561 61.0475 263.561 70.2207C263.561 76.5821 264.788 82.1714 267.325 86.9174C269.087 90.2132 270.5 92.7105 272.147 94.7815C273.833 96.9009 275.719 98.5219 278.374 100.181C279.507 100.889 280.739 101.514 282.043 102.082C281.793 102.051 281.551 102.024 281.318 101.999C280.849 101.948 280.441 101.91 280.074 101.875C279.571 101.827 279.146 101.787 278.748 101.734C278.499 101.701 278.324 101.67 278.206 101.643L276.479 99.975L275.292 102.38L257.33 138.776L256.462 140.535L258.222 141.401C266.49 145.464 276.455 148.696 287.113 151.412L287.128 151.416L287.143 151.419C298.019 154.008 308.474 155.309 318.505 155.309C324.966 155.309 331.282 154.656 337.452 153.349C343.828 152.03 349.627 149.824 354.832 146.72L354.85 146.709L354.867 146.699C360.131 143.41 364.329 139.135 367.436 133.885L367.442 133.875L367.448 133.865C370.604 128.381 372.125 121.699 372.125 113.917C372.125 112.147 372.202 110.659 372.274 109.29L372.285 109.085C372.358 107.679 372.423 106.341 372.359 105.018C372.223 102.25 371.524 99.667 369.503 96.1302L369.462 96.0577L369.414 95.9891C367.732 93.553 364.955 90.0799 361.805 86.828C358.997 83.9284 355.764 81.0689 352.657 79.3268C352.511 77.9738 352.216 76.7687 351.768 75.6995ZM278.056 101.601C278.057 101.6 278.066 101.603 278.083 101.61C278.064 101.604 278.056 101.601 278.056 101.601ZM303.102 109.397C298.555 108.069 295.04 106.746 291.832 105.363C292.345 105.509 292.862 105.656 293.382 105.802L293.602 105.865C295.424 106.379 297.281 106.904 299.17 107.478L299.185 107.482L299.199 107.487C304.658 109.054 309.607 110.408 314.043 111.551L314.079 111.56L314.114 111.568C316.269 112.037 318.187 112.519 319.874 113.011C314.977 112.654 310.213 111.346 305.392 110.022C304.63 109.812 303.867 109.603 303.102 109.397ZM327.461 116.827C327.374 116.62 327.273 116.39 327.151 116.15C327.407 116.452 327.538 116.759 327.575 117.109C327.538 117.016 327.5 116.922 327.461 116.827ZM328.046 118.305C328.055 118.319 328.06 118.327 328.06 118.328C328.059 118.328 328.055 118.321 328.046 118.305ZM334.599 67.5623C334.502 67.5371 334.406 67.5115 334.31 67.4855C331.612 66.6694 328.658 66.1207 325.96 65.6743C325.189 65.5467 324.446 65.4284 323.734 65.3152C321.906 65.0242 320.292 64.7673 318.969 64.4743C317.563 64.1079 316.139 64.3336 314.935 64.6852C313.702 65.0449 312.478 65.6054 311.428 66.104C311.239 66.1939 311.057 66.2811 310.881 66.3652C310.02 66.7769 309.314 67.1147 308.693 67.3382C308.345 67.4636 308.114 67.5184 307.973 67.5359C306.653 66.8031 306.334 66.0574 306.334 65.3182C306.334 65.1857 306.356 65.1166 306.368 65.0855C306.38 65.0571 306.4 65.02 306.453 64.9685C306.578 64.8487 306.911 64.6282 307.672 64.4586L307.738 64.4438L307.803 64.4244C309.459 63.9326 311.822 63.6528 314.973 63.6528C320.057 63.6528 325.075 64.4704 330.033 66.1115L330.063 66.1216L330.094 66.1307C331.673 66.5965 333.174 67.0738 334.599 67.5623ZM307.888 67.5419C307.888 67.5418 307.89 67.5419 307.893 67.5421L307.888 67.5419Z" fill="#A5F200" stroke="#A5F200" stroke-width="3.91653"/>
<path d="M406.713 178.712L377.094 148.566C374.243 145.581 372.018 142.036 370.554 138.147C369.09 134.259 368.417 130.108 368.576 125.946C368.363 119.544 370.09 113.243 373.503 107.891C374.013 107.091 374.258 106.143 374.135 105.202L364.361 29.9959C364.067 27.7329 365.829 25.7271 368.111 25.7271H445.796C446.811 25.7271 447.783 26.135 448.494 26.8593L475.712 54.5818C476.526 55.4106 476.914 56.5675 476.764 57.7193L466.653 135.359C466.53 136.307 466.779 137.26 467.296 138.064C470.727 143.398 472.459 149.695 472.232 156.092C472.232 180.057 453.068 189.274 435.203 189.274C424.79 189.318 413.952 186.086 406.713 178.712Z" fill="#139D3D"/>
<path d="M368.276 125.157C368.048 118.314 370.059 111.587 373.996 106.028L363.552 25.7271H446.7L436.235 106.028C440.181 111.582 442.194 118.312 441.955 125.157C441.955 148.826 422.889 158.078 405.136 158.078C387.384 158.078 368.276 148.933 368.276 125.157Z" fill="#A5F200"/>
<path d="M371.114 31.3994H438.672L429.794 100.315C421.978 96.7332 413.506 94.8811 404.937 94.8811C396.368 94.8811 387.897 96.7332 380.081 100.315L371.114 31.3994ZM374.887 127.257C374.887 111.16 386.384 101.357 404.893 101.357C423.403 101.357 434.921 111.16 434.921 127.257C434.921 143.354 423.425 153.202 404.893 153.202C386.361 153.202 374.887 143.354 374.887 127.257V127.257Z" fill="#139D3D"/>
<ellipse cx="96.9571" cy="91.9025" rx="69.9571" ry="66.1754" fill="#A5F200"/>
<path fill-rule="evenodd" clip-rule="evenodd" d="M211.347 25.7275H159.352V158.078H211.347V158.078H260.506V109.865H211.347V25.7275Z" fill="#A5F200"/>
<path d="M71.5078 145.913L71.5158 145.917L71.524 145.92C79.1353 149.182 87.5421 150.804 96.7275 150.804C105.907 150.804 114.308 149.251 121.915 146.127L121.923 146.123L121.931 146.12C129.504 142.874 136.079 138.539 141.642 133.111L141.648 133.106L141.653 133.101C147.205 127.549 151.481 121.309 154.468 114.385C157.59 107.325 159.156 100.049 159.156 92.565C159.156 85.2208 157.66 78.0186 154.677 70.9666C151.826 63.9106 147.687 57.6014 142.266 52.0443C136.833 46.3411 130.319 41.8654 122.737 38.6149C115.122 35.2166 106.645 33.5283 97.326 33.5283C88.2743 33.5283 79.9372 35.1496 72.3302 38.4083C64.756 41.5203 58.1162 45.7872 52.4215 51.2108L52.4163 51.2157L52.4112 51.2207C46.8522 56.6441 42.5097 62.8854 39.3894 69.9386C36.2626 76.8733 34.6982 84.1531 34.6982 91.767C34.6982 99.2444 36.1946 106.516 39.1806 113.574C42.1648 120.628 46.3707 126.935 51.7921 132.492L51.7972 132.497L51.8023 132.503C57.3632 138.063 63.9356 142.533 71.5078 145.913ZM120.54 82.1522L120.548 82.1798L120.559 82.2069C121.705 85.2643 122.279 88.4486 122.279 91.767C122.279 94.9638 121.768 98.1674 120.739 101.382C119.718 104.573 118.19 107.437 116.154 109.981C114.146 112.492 111.564 114.512 108.386 116.038C105.252 117.542 101.511 118.316 97.1265 118.316C92.7378 118.316 88.9892 117.607 85.8497 116.229C82.6711 114.701 80.0202 112.741 77.8793 110.355C75.8451 107.807 74.2548 105.007 73.1061 101.953C72.0849 98.7518 71.5752 95.491 71.5752 92.166C71.5752 88.8314 72.0878 85.6329 73.1105 82.5647C74.1281 79.5121 75.6527 76.7138 77.6893 74.165C79.8278 71.6532 82.4698 69.7017 85.6324 68.3101L85.6503 68.3023L85.6679 68.2938C88.8013 66.7898 92.5428 66.0162 96.927 66.0162C101.186 66.0162 104.875 66.7259 108.022 68.1106C111.199 69.5083 113.773 71.3996 115.774 73.7752L115.785 73.7888L115.797 73.802C117.944 76.2015 119.525 78.9806 120.54 82.1522ZM167.216 148.624V149.806H168.398H251.789H252.971V148.624V119.098V117.917H251.789H203.495V35.3085V34.1268H202.313H168.398H167.216V35.3085V148.624ZM346.15 75.5554L347.267 76.3929L347.909 75.1533L362.472 47.0238L363.04 45.9275L361.92 45.4083C356.419 42.8592 349.596 40.1848 341.461 37.384C333.349 34.5455 324.773 33.1293 315.737 33.1293C307.609 33.1293 299.94 34.6203 292.74 37.6086L292.733 37.6117C285.636 40.6142 279.879 45.0626 275.491 50.9568C271.055 56.782 268.87 63.9602 268.87 72.4155C268.87 78.2799 269.961 83.3954 272.193 87.7205L272.2 87.7337L272.207 87.7467C274.575 92.0651 278.114 95.7273 282.776 98.7441C287.415 101.746 293.373 104.378 300.619 106.66L300.628 106.662L300.637 106.665C305.567 108.131 310.033 109.397 314.036 110.465L314.058 110.471L314.08 110.476C318.168 111.399 321.342 112.376 323.636 113.395L323.671 113.411L323.708 113.424C324.864 113.85 325.622 114.345 326.083 114.854C326.52 115.338 326.725 115.871 326.725 116.505C326.725 116.505 326.735 116.604 326.522 116.817C326.299 117.04 325.899 117.314 325.249 117.612C324.144 118.045 321.966 118.316 318.53 118.316C312.385 118.316 306.512 117.532 300.905 115.969C295.24 114.256 290.525 112.486 286.747 110.664C284.906 109.677 283.44 108.846 282.343 108.168C281.214 107.471 280.556 106.984 280.264 106.692L279.101 105.529L278.37 107.002L263.607 136.727L263.086 137.775L264.129 138.306C271.532 142.075 280.059 145.228 289.7 147.772L289.709 147.775L289.719 147.777C299.509 150.191 308.914 151.402 317.932 151.402C323.733 151.402 329.403 150.795 334.94 149.58C340.647 148.357 345.828 146.314 350.473 143.445L350.483 143.439L350.494 143.432C355.173 140.404 358.897 136.475 361.651 131.655L361.654 131.649L361.658 131.642C364.439 126.635 365.796 120.507 365.796 113.313C365.796 105.976 364.235 99.9342 361.003 95.2907C357.944 90.7075 353.521 86.9944 347.791 84.1289C342.257 81.2949 335.671 78.811 328.044 76.6692C323.389 75.2066 319.316 74.0708 315.83 73.2653C312.56 72.3485 310.062 71.4465 308.302 70.5687C306.863 69.7893 306.345 68.8773 306.345 67.827C306.345 67.4451 306.457 67.2068 306.647 67.0167C306.868 66.7966 307.282 66.5559 308.023 66.385L308.064 66.3754L308.105 66.363C309.673 65.8803 311.868 65.6172 314.74 65.6172C319.394 65.6172 323.986 66.3924 328.521 67.9473L328.54 67.9538L328.559 67.9596C333.299 69.4081 337.285 70.9792 340.528 72.6659L340.545 72.6747L340.562 72.6828C342.22 73.4787 343.522 74.1213 344.471 74.6122C345.455 75.1215 345.978 75.426 346.15 75.5554Z" fill="#139D3D" stroke="#139D3D" stroke-width="2.36341"/>
<ellipse cx="96.9581" cy="91.9024" rx="18.9073" ry="18.9073" fill="white"/>
<path d="M404.673 137.28C410.36 137.28 415.545 133.339 415.545 127.827C415.545 122.314 410.36 118.373 404.673 118.373C398.987 118.373 393.802 122.314 393.802 127.827C393.802 133.339 398.987 137.28 404.673 137.28Z" fill="white" stroke="#A5F200" stroke-width="3.78146"/>
</svg>
