<svg width="451" height="349" viewBox="0 0 451 349" fill="none" xmlns="http://www.w3.org/2000/svg">
<path d="M98.8109 235.102C90.1039 235.102 82.1783 233.427 75.0342 230.079C68.0016 226.73 61.9179 222.209 56.783 216.516C51.7597 210.711 47.8528 204.237 45.0621 197.093C42.2714 189.837 40.876 182.413 40.876 174.823C40.876 166.897 42.3272 159.362 45.2295 152.218C48.2435 144.962 52.3179 138.544 57.4528 132.962C62.6993 127.269 68.8388 122.804 75.8714 119.567C83.0156 116.218 90.8295 114.544 99.3132 114.544C107.909 114.544 115.723 116.274 122.755 119.734C129.899 123.195 135.983 127.827 141.006 133.632C146.03 139.437 149.936 145.911 152.727 153.055C155.518 160.2 156.913 167.567 156.913 175.158C156.913 182.972 155.462 190.507 152.56 197.762C149.657 204.907 145.583 211.325 140.336 217.018C135.202 222.6 129.062 227.009 121.918 230.246C114.885 233.483 107.183 235.102 98.8109 235.102ZM64.3179 174.823C64.3179 179.958 65.0993 184.925 66.6621 189.725C68.2249 194.525 70.4574 198.823 73.3597 202.618C76.3737 206.302 80.0016 209.26 84.2435 211.493C88.5969 213.613 93.5086 214.674 98.9783 214.674C104.56 214.674 109.527 213.558 113.881 211.325C118.234 208.981 121.862 205.911 124.764 202.116C127.667 198.209 129.843 193.911 131.295 189.223C132.857 184.423 133.639 179.623 133.639 174.823C133.639 169.688 132.802 164.776 131.127 160.088C129.564 155.288 127.276 151.046 124.262 147.362C121.36 143.567 117.732 140.609 113.378 138.488C109.136 136.255 104.336 135.139 98.9783 135.139C93.2853 135.139 88.2621 136.311 83.9086 138.655C79.6667 140.888 76.0946 143.902 73.1923 147.697C70.29 151.493 68.0574 155.734 66.4946 160.423C65.0435 165.111 64.3179 169.911 64.3179 174.823ZM174.639 234.265L174.639 115.381H197.745L197.745 214.004H258.359L258.359 234.265H174.639ZM343.25 146.525C342.468 145.744 341.017 144.683 338.896 143.344C336.887 142.004 334.375 140.72 331.361 139.493C328.459 138.265 325.278 137.204 321.817 136.311C318.357 135.307 314.841 134.804 311.268 134.804C305.017 134.804 300.273 135.976 297.036 138.32C293.91 140.665 292.348 143.958 292.348 148.2C292.348 151.437 293.352 154.004 295.361 155.902C297.371 157.8 300.385 159.418 304.403 160.758C308.422 162.097 313.445 163.548 319.473 165.111C327.287 167.009 334.041 169.353 339.734 172.144C345.538 174.823 349.948 178.395 352.961 182.86C356.087 187.213 357.65 193.018 357.65 200.274C357.65 206.637 356.478 212.107 354.134 216.683C351.789 221.148 348.552 224.776 344.422 227.567C340.292 230.358 335.603 232.423 330.357 233.762C325.11 234.99 319.529 235.604 313.613 235.604C307.696 235.604 301.78 234.99 295.864 233.762C289.948 232.534 284.255 230.804 278.785 228.572C273.315 226.227 268.292 223.437 263.715 220.2L273.929 200.274C274.934 201.279 276.72 202.618 279.287 204.293C281.855 205.855 284.98 207.474 288.664 209.148C292.348 210.711 296.366 212.051 300.72 213.167C305.073 214.283 309.482 214.841 313.948 214.841C320.199 214.841 324.943 213.781 328.18 211.66C331.417 209.539 333.036 206.525 333.036 202.618C333.036 199.046 331.752 196.255 329.185 194.246C326.617 192.237 323.045 190.507 318.468 189.055C313.892 187.493 308.478 185.818 302.227 184.032C294.748 181.911 288.496 179.567 283.473 177C278.45 174.32 274.71 170.972 272.255 166.953C269.799 162.934 268.571 157.911 268.571 151.883C268.571 143.734 270.468 136.925 274.264 131.455C278.171 125.874 283.417 121.688 290.003 118.897C296.589 115.995 303.901 114.544 311.938 114.544C317.52 114.544 322.766 115.158 327.678 116.386C332.701 117.613 337.389 119.232 341.743 121.241C346.096 123.251 350.003 125.427 353.464 127.772L343.25 146.525ZM377.288 189.558L377.288 114.209H399.725L399.725 189.558H377.288ZM377.288 234.265L377.288 208.981H399.725L399.725 234.265H377.288Z" fill="#A5F200"/>
<path d="M75.0342 230.079L60.0365 261.574C60.1003 261.604 60.1643 261.634 60.2283 261.664L75.0342 230.079ZM56.783 216.516L30.405 239.343C30.5613 239.524 30.7194 239.702 30.8794 239.88L56.783 216.516ZM45.0621 197.093L12.5035 209.615C12.5253 209.672 12.5473 209.728 12.5694 209.785L45.0621 197.093ZM45.2295 152.218L13.0145 138.837C12.9796 138.92 12.9451 139.005 12.9109 139.089L45.2295 152.218ZM57.4528 132.962L31.8008 109.322C31.7941 109.33 31.7874 109.337 31.7807 109.344L57.4528 132.962ZM75.8714 119.567L90.4578 151.255C90.531 151.221 90.6042 151.187 90.6772 151.153L75.8714 119.567ZM122.755 119.734L107.354 151.034C107.418 151.066 107.483 151.098 107.548 151.129L122.755 119.734ZM141.006 133.632L114.628 156.459L114.628 156.459L141.006 133.632ZM152.727 153.055L185.22 140.363L185.22 140.363L152.727 153.055ZM152.56 197.762L184.878 210.892C184.902 210.834 184.925 210.776 184.948 210.718L152.56 197.762ZM140.336 217.018L114.685 193.378C114.678 193.385 114.671 193.393 114.664 193.4L140.336 217.018ZM121.918 230.246L107.52 198.472C107.457 198.501 107.394 198.529 107.331 198.558L121.918 230.246ZM66.6621 189.725L33.4921 200.525L33.4921 200.525L66.6621 189.725ZM73.3597 202.618L45.6496 223.808C45.8818 224.112 46.1191 224.412 46.3612 224.708L73.3597 202.618ZM84.2435 211.493L67.9965 242.362C68.3169 242.53 68.6399 242.694 68.9655 242.853L84.2435 211.493ZM113.881 211.325L129.799 242.365C130.007 242.259 130.213 242.15 130.419 242.039L113.881 211.325ZM124.764 202.116L152.475 223.306C152.573 223.177 152.67 223.048 152.767 222.918L124.764 202.116ZM131.295 189.223L98.1247 178.423C98.0722 178.585 98.0209 178.746 97.9707 178.908L131.295 189.223ZM131.127 160.088L97.9573 170.887C98.059 171.2 98.1652 171.511 98.2757 171.821L131.127 160.088ZM124.262 147.362L96.5519 168.552C96.7842 168.856 97.0214 169.156 97.2636 169.452L124.262 147.362ZM113.378 138.488L97.1314 169.357C97.4518 169.526 97.7748 169.689 98.1003 169.848L113.378 138.488ZM83.9086 138.655L100.156 169.525C100.253 169.473 100.35 169.422 100.447 169.369L83.9086 138.655ZM73.1923 147.697L45.4821 126.507L45.4821 126.507L73.1923 147.697ZM66.4946 160.423L33.401 149.392C33.3217 149.63 33.2449 149.869 33.1707 150.108L66.4946 160.423ZM98.8109 200.218C94.6861 200.218 91.8892 199.453 89.84 198.493L60.2283 261.664C72.4675 267.401 85.5217 269.986 98.8109 269.986L98.8109 200.218ZM90.0318 198.583C87.0652 197.171 84.7051 195.39 82.6866 193.152L30.8794 239.88C39.1306 249.028 48.938 256.289 60.0365 261.574L90.0318 198.583ZM83.161 193.689C80.7361 190.887 78.8982 187.839 77.5548 184.4L12.5694 209.785C16.8074 220.634 22.7833 230.536 30.405 239.343L83.161 193.689ZM77.6206 184.57C76.3291 181.212 75.7597 178.028 75.7597 174.823H5.99229C5.99229 186.799 8.21367 198.462 12.5035 209.615L77.6206 184.57ZM75.7597 174.823C75.7597 171.27 76.3873 168.205 77.5481 165.348L12.9109 139.089C8.26707 150.52 5.99229 162.524 5.99229 174.823H75.7597ZM77.4445 165.6C78.9501 161.975 80.8519 159.051 83.1248 156.581L31.7807 109.344C23.7839 118.036 17.5368 127.95 13.0145 138.837L77.4445 165.6ZM83.1047 156.602C85.2301 154.296 87.6088 152.566 90.4578 151.255L61.2849 87.8793C50.0688 93.0423 40.1684 100.243 31.8008 109.322L83.1047 156.602ZM90.6772 151.153C92.8457 150.136 95.5552 149.427 99.3132 149.427L99.3132 79.66C86.1038 79.66 73.1854 82.3 61.0655 87.9812L90.6772 151.153ZM99.3132 149.427C103.092 149.427 105.562 150.152 107.354 151.034L138.157 88.4347C125.883 82.3955 112.725 79.66 99.3132 79.66L99.3132 149.427ZM107.548 151.129C110.574 152.595 112.814 154.363 114.628 156.459L167.384 110.805C159.152 101.292 149.225 93.795 137.962 88.3397L107.548 151.129ZM114.628 156.459C117.053 159.261 118.891 162.309 120.234 165.748L185.22 140.363C180.982 129.514 175.006 119.612 167.384 110.805L114.628 156.459ZM120.234 165.748C121.462 168.89 122.03 171.956 122.03 175.158H191.797C191.797 163.178 189.574 151.509 185.22 140.363L120.234 165.748ZM122.03 175.158C122.03 178.533 121.425 181.671 120.171 184.807L184.948 210.718C189.499 199.342 191.797 187.41 191.797 175.158H122.03ZM120.241 184.633C118.919 187.886 117.108 190.748 114.685 193.378L165.988 240.658C174.058 231.902 180.395 221.927 184.878 210.892L120.241 184.633ZM114.664 193.4C112.811 195.415 110.546 197.101 107.52 198.472L136.315 262.02C147.578 256.917 157.592 249.784 166.009 240.636L114.664 193.4ZM107.331 198.558C105.237 199.523 102.563 200.218 98.8109 200.218L98.8109 269.986C111.803 269.986 124.534 267.444 136.504 261.934L107.331 198.558ZM29.4342 174.823C29.4342 183.561 30.7743 192.177 33.4921 200.525L99.832 178.926C99.4243 177.673 99.2016 176.354 99.2016 174.823H29.4342ZM33.4921 200.525C36.2054 208.858 40.2209 216.709 45.6496 223.808L101.07 181.428C100.694 180.936 100.244 180.192 99.832 178.926L33.4921 200.525ZM46.3612 224.708C52.3563 232.035 59.6492 237.968 67.9965 242.362L100.49 180.623C100.428 180.59 100.394 180.569 100.384 180.562C100.374 180.555 100.376 180.556 100.385 180.564C100.39 180.567 100.394 180.571 100.397 180.574C100.401 180.577 100.402 180.579 100.402 180.578C100.401 180.578 100.398 180.574 100.391 180.567C100.384 180.559 100.373 180.547 100.358 180.528L46.3612 224.708ZM68.9655 242.853C78.6617 247.576 88.9043 249.558 98.9783 249.558L98.9783 179.79C98.5023 179.79 98.3885 179.745 98.5544 179.781C98.6347 179.798 98.7678 179.832 98.9421 179.892C99.117 179.952 99.3135 180.031 99.5215 180.132L68.9655 242.853ZM98.9783 249.558C109.311 249.558 119.866 247.459 129.799 242.365L97.9626 180.285C98.5096 180.004 98.9704 179.863 99.2417 179.802C99.4956 179.745 99.4401 179.79 98.9783 179.79L98.9783 249.558ZM130.419 242.039C138.974 237.433 146.46 231.171 152.475 223.306L97.0542 180.926C97.0821 180.889 97.1231 180.84 97.1763 180.784C97.2296 180.728 97.2837 180.677 97.3339 180.635C97.3838 180.593 97.4176 180.569 97.4274 180.562C97.4368 180.556 97.4117 180.574 97.3423 180.611L130.419 242.039ZM152.767 222.918C158.044 215.814 162.01 207.965 164.619 199.537L97.9707 178.908C97.677 179.857 97.2895 180.603 96.7617 181.314L152.767 222.918ZM164.465 200.022C167.104 191.916 168.523 183.476 168.523 174.823H98.7551C98.7551 175.769 98.6111 176.929 98.1247 178.423L164.465 200.022ZM168.523 174.823C168.523 165.817 167.04 156.927 163.979 148.355L98.2757 171.821C98.5631 172.625 98.7551 173.559 98.7551 174.823H168.523ZM164.297 149.288C161.477 140.627 157.177 132.504 151.261 125.273L97.2636 169.452C97.3752 169.588 97.6517 169.949 97.9573 170.887L164.297 149.288ZM151.972 126.172C145.727 118.006 137.82 111.592 128.656 107.128L98.1003 169.848C97.9461 169.773 97.6583 169.609 97.32 169.333C96.9803 169.056 96.7204 168.773 96.5519 168.552L151.972 126.172ZM129.625 107.619C119.807 102.451 109.321 100.255 98.9783 100.255L98.9783 170.023C99.2269 170.023 99.1002 170.047 98.6953 169.953C98.2741 169.855 97.7215 169.668 97.1314 169.357L129.625 107.619ZM98.9783 100.255C88.3932 100.255 77.5293 102.471 67.3702 107.941L100.447 169.369C99.7945 169.721 99.228 169.905 98.8677 169.989C98.5284 170.069 98.528 170.023 98.9783 170.023L98.9783 100.255ZM67.6616 107.786C58.957 112.367 51.4687 118.679 45.4821 126.507L100.902 168.887C100.853 168.952 100.732 169.093 100.544 169.252C100.356 169.41 100.206 169.498 100.156 169.525L67.6616 107.786ZM45.4821 126.507C40.1557 133.472 36.1416 141.17 33.401 149.392L99.5882 171.454C99.9732 170.299 100.424 169.513 100.902 168.887L45.4821 126.507ZM33.1707 150.108C30.6847 158.14 29.4342 166.417 29.4342 174.823H99.2016C99.2016 173.405 99.4022 172.083 99.8185 170.737L33.1707 150.108ZM174.639 234.265H139.755C139.755 253.53 155.373 269.148 174.639 269.148L174.639 234.265ZM174.639 115.381L174.639 80.4972C155.373 80.4972 139.755 96.1152 139.755 115.381L174.639 115.381ZM197.745 115.381H232.629C232.629 96.1152 217.011 80.4972 197.745 80.4972L197.745 115.381ZM197.745 214.004H162.862C162.862 233.27 178.48 248.888 197.745 248.888L197.745 214.004ZM258.359 214.004H293.243C293.243 194.738 277.625 179.12 258.359 179.12L258.359 214.004ZM258.359 234.265L258.359 269.148C277.625 269.148 293.243 253.53 293.243 234.265H258.359ZM209.522 234.265L209.522 115.381H139.755L139.755 234.265H209.522ZM174.639 150.265H197.745L197.745 80.4972H174.639L174.639 150.265ZM162.862 115.381L162.862 214.004H232.629L232.629 115.381H162.862ZM197.745 248.888H258.359L258.359 179.12H197.745L197.745 248.888ZM223.476 214.004L223.476 234.265H293.243L293.243 214.004H223.476ZM258.359 199.381H174.639L174.639 269.148H258.359L258.359 199.381ZM343.25 146.525L318.583 171.192C326.36 178.968 337.348 182.622 348.233 181.051C359.118 179.48 368.624 172.868 373.885 163.21L343.25 146.525ZM338.896 143.344L319.546 172.369C319.785 172.528 320.026 172.684 320.269 172.837L338.896 143.344ZM331.361 139.493L317.769 171.619C317.913 171.68 318.056 171.739 318.2 171.798L331.361 139.493ZM321.817 136.311L312.091 169.812C312.426 169.909 312.763 170.001 313.101 170.088L321.817 136.311ZM297.036 138.32L276.576 110.067C276.418 110.181 276.262 110.297 276.106 110.413L297.036 138.32ZM304.403 160.758L293.372 193.851L293.372 193.851L304.403 160.758ZM319.473 165.111L310.719 198.878C310.892 198.924 311.066 198.967 311.241 199.01L319.473 165.111ZM339.734 172.144L324.379 203.467C324.623 203.586 324.869 203.703 325.115 203.817L339.734 172.144ZM352.961 182.86L324.048 202.376C324.236 202.655 324.428 202.931 324.625 203.204L352.961 182.86ZM354.134 216.683L385.02 232.898C385.074 232.795 385.128 232.69 385.182 232.586L354.134 216.683ZM330.357 233.762L338.306 267.728C338.534 267.675 338.76 267.62 338.986 267.562L330.357 233.762ZM278.785 228.572L265.043 260.635C265.229 260.714 265.415 260.792 265.602 260.869L278.785 228.572ZM263.715 220.2L232.672 204.287C224.753 219.735 229.398 238.655 243.571 248.679L263.715 220.2ZM273.929 200.274L298.595 175.607C290.71 167.722 279.53 164.082 268.514 165.813C257.498 167.544 247.973 174.438 242.886 184.361L273.929 200.274ZM279.287 204.293L260.231 233.512C260.534 233.709 260.84 233.902 261.149 234.09L279.287 204.293ZM288.664 209.148L274.229 240.905C274.498 241.028 274.768 241.146 275.04 241.262L288.664 209.148ZM300.72 213.167L292.055 246.958L292.055 246.958L300.72 213.167ZM328.18 211.66L309.063 182.481L309.063 182.481L328.18 211.66ZM318.468 189.055L307.196 222.068C307.438 222.15 307.681 222.23 307.925 222.308L318.468 189.055ZM302.227 184.032L311.81 150.491C311.788 150.484 311.766 150.478 311.744 150.472L302.227 184.032ZM283.473 177L267.057 207.779C267.236 207.875 267.416 207.969 267.597 208.061L283.473 177ZM272.255 166.953L242.489 185.143L242.489 185.143L272.255 166.953ZM274.264 131.455L245.686 111.451C245.658 111.49 245.631 111.529 245.604 111.569L274.264 131.455ZM290.003 118.897L303.613 151.016C303.766 150.952 303.919 150.886 304.071 150.819L290.003 118.897ZM327.678 116.386L319.217 150.228C319.276 150.243 319.335 150.257 319.394 150.272L327.678 116.386ZM341.743 121.241L356.361 89.5684L356.361 89.5684L341.743 121.241ZM353.464 127.772L384.099 144.457C392.69 128.683 387.899 108.964 373.028 98.8907L353.464 127.772ZM367.916 121.859C364.153 118.095 359.786 115.279 357.524 113.85L320.269 172.837C320.901 173.237 321.097 173.384 320.993 173.309C320.93 173.262 320.694 173.088 320.339 172.795C320.006 172.521 319.371 171.979 318.583 171.192L367.916 121.859ZM358.246 114.319C353.751 111.322 349.01 109.015 344.523 107.187L318.2 171.798C318.921 172.092 319.383 172.312 319.63 172.438C319.882 172.567 319.827 172.556 319.546 172.369L358.246 114.319ZM344.954 107.366C340.276 105.387 335.442 103.801 330.534 102.534L313.101 170.088C315.114 170.608 316.643 171.143 317.769 171.619L344.954 107.366ZM331.543 102.811C324.95 100.897 318.161 99.9205 311.268 99.9205L311.268 169.688C311.521 169.688 311.763 169.716 312.091 169.812L331.543 102.811ZM311.268 99.9205C301.528 99.9205 288.271 101.598 276.576 110.067L317.496 166.574C314.771 168.548 312.429 169.292 311.389 169.549C310.387 169.796 310.222 169.688 311.268 169.688L311.268 99.9205ZM276.106 110.413C263.359 119.973 257.464 134.068 257.464 148.2H327.231C327.231 150.409 326.806 153.771 325.034 157.505C323.217 161.334 320.596 164.255 317.966 166.227L276.106 110.413ZM257.464 148.2C257.464 159.245 261.221 171.64 271.41 181.263L319.313 130.541C322.042 133.118 324.208 136.318 325.586 139.841C326.919 143.248 327.231 146.212 327.231 148.2H257.464ZM271.41 181.263C278.551 188.007 286.854 191.679 293.372 193.851L315.435 127.664C314.888 127.482 315.031 127.483 315.633 127.807C316.221 128.122 317.627 128.949 319.313 130.541L271.41 181.263ZM293.372 193.851C298.401 195.527 304.244 197.2 310.719 198.878L328.228 131.344C322.646 129.897 318.443 128.667 315.435 127.664L293.372 193.851ZM311.241 199.01C317.216 200.461 321.47 202.04 324.379 203.467L355.088 140.821C346.611 136.666 337.358 133.557 327.706 131.213L311.241 199.01ZM325.115 203.817C325.717 204.094 325.741 204.185 325.435 203.937C325.103 203.668 324.572 203.153 324.048 202.376L381.875 163.343C374.679 152.683 364.853 145.317 354.352 140.471L325.115 203.817ZM324.625 203.204C323.462 201.586 322.971 200.205 322.793 199.547C322.635 198.957 322.766 199.099 322.766 200.274H392.534C392.534 188.257 389.955 174.572 381.298 162.516L324.625 203.204ZM322.766 200.274C322.766 201.327 322.668 201.808 322.661 201.839C322.66 201.848 322.749 201.437 323.086 200.781L385.182 232.586C390.575 222.056 392.534 210.878 392.534 200.274H322.766ZM323.248 200.468C323.353 200.268 323.569 199.921 323.919 199.528C324.271 199.133 324.625 198.843 324.892 198.663L363.952 256.471C372.916 250.415 380.029 242.404 385.02 232.898L323.248 200.468ZM324.892 198.663C324.362 199.021 323.421 199.53 321.727 199.963L338.986 267.562C347.785 265.315 356.221 261.695 363.952 256.471L324.892 198.663ZM322.407 199.796C320.007 200.358 317.111 200.72 313.613 200.72L313.613 270.488C321.947 270.488 330.214 269.622 338.306 267.728L322.407 199.796ZM313.613 200.72C310.128 200.72 306.587 200.361 302.953 199.606L288.775 267.918C296.973 269.62 305.264 270.488 313.613 270.488L313.613 200.72ZM302.953 199.606C299.073 198.801 295.422 197.685 291.967 196.275L265.602 260.869C273.087 263.923 280.822 266.268 288.775 267.918L302.953 199.606ZM292.526 196.508C289.173 195.071 286.315 193.457 283.859 191.72L243.571 248.679C250.269 253.417 257.457 257.384 265.043 260.635L292.526 196.508ZM294.758 236.112L304.972 216.187L242.886 184.361L232.672 204.287L294.758 236.112ZM249.262 224.94C253.005 228.683 257.409 231.671 260.231 233.512L298.343 175.074C297.929 174.804 297.607 174.586 297.364 174.418C297.119 174.248 296.988 174.152 296.952 174.125C296.91 174.093 297.029 174.181 297.266 174.38C297.389 174.483 297.563 174.633 297.778 174.827C297.991 175.021 298.269 175.281 298.595 175.607L249.262 224.94ZM261.149 234.09C265.238 236.579 269.677 238.836 274.229 240.905L303.099 177.391C300.283 176.112 298.471 175.132 297.425 174.495L261.149 234.09ZM275.04 241.262C280.515 243.584 286.212 245.459 292.055 246.958L309.384 179.376C306.52 178.642 304.181 177.838 302.288 177.035L275.04 241.262ZM292.055 246.958C299.221 248.795 306.541 249.725 313.948 249.725L313.948 179.958C312.424 179.958 310.925 179.772 309.384 179.376L292.055 246.958ZM313.948 249.725C323.192 249.725 335.87 248.326 347.297 240.839L309.063 182.481C311.727 180.736 313.866 180.163 314.584 180.002C315.301 179.842 315.2 179.958 313.948 179.958L313.948 249.725ZM347.297 240.839C360.486 232.198 367.92 218.152 367.92 202.618H298.152C298.152 199.638 298.808 195.553 301.09 191.304C303.379 187.042 306.461 184.186 309.063 182.481L347.297 240.839ZM367.92 202.618C367.92 189.495 362.585 176.089 350.684 166.775L307.686 221.717C304.869 219.513 302.204 216.386 300.382 212.424C298.605 208.561 298.152 205.05 298.152 202.618H367.92ZM350.684 166.775C343.678 161.292 335.855 157.973 329.012 155.803L307.925 222.308C308.416 222.463 308.778 222.594 309.026 222.691C309.276 222.788 309.384 222.841 309.373 222.836C309.364 222.831 309.203 222.753 308.925 222.584C308.646 222.414 308.217 222.133 307.686 221.717L350.684 166.775ZM329.741 156.043C324.454 154.238 318.449 152.388 311.81 150.491L292.643 217.574C298.506 219.249 303.33 220.747 307.196 222.068L329.741 156.043ZM311.744 150.472C305.702 148.758 301.74 147.16 299.349 145.938L267.597 208.061C275.252 211.974 283.793 215.064 292.709 217.592L311.744 150.472ZM299.889 146.22C299.523 146.025 299.701 146.07 300.173 146.492C300.669 146.937 301.362 147.686 302.02 148.763L242.489 185.143C248.808 195.484 257.688 202.782 267.057 207.779L299.889 146.22ZM302.02 148.763C303.728 151.557 303.455 153.263 303.455 151.883H233.687C233.687 162.559 235.87 174.311 242.489 185.143L302.02 148.763ZM303.455 151.883C303.455 150.502 303.616 149.962 303.597 150.029C303.587 150.066 303.538 150.229 303.421 150.482C303.302 150.737 303.138 151.034 302.924 151.342L245.604 111.569C236.925 124.076 233.687 138.239 233.687 151.883H303.455ZM302.842 151.46C302.887 151.396 302.906 151.377 302.899 151.384C302.891 151.393 302.883 151.399 302.885 151.398C302.888 151.395 302.931 151.361 303.033 151.301C303.136 151.24 303.322 151.14 303.613 151.016L276.394 86.778C264.095 91.989 253.538 100.233 245.686 111.451L302.842 151.46ZM304.071 150.819C305.733 150.086 308.178 149.427 311.938 149.427L311.938 79.66C299.624 79.66 287.446 81.9035 275.936 86.9756L304.071 150.819ZM311.938 149.427C314.955 149.427 317.339 149.758 319.217 150.228L336.138 82.5434C328.194 80.5572 320.084 79.66 311.938 79.66L311.938 149.427ZM319.394 150.272C322.409 151.008 324.959 151.915 327.125 152.914L356.361 89.5684C349.82 86.5494 342.993 84.2186 335.961 82.4996L319.394 150.272ZM327.125 152.914C330.002 154.242 332.218 155.513 333.899 156.653L373.028 98.8907C367.789 95.3414 362.191 92.2592 356.361 89.5684L327.125 152.914ZM322.829 111.087L312.615 129.84L373.885 163.21L384.099 144.457L322.829 111.087ZM377.288 189.558H342.404C342.404 208.823 358.022 224.441 377.288 224.441L377.288 189.558ZM377.288 114.209L377.288 79.3251C358.022 79.3251 342.404 94.9431 342.404 114.209L377.288 114.209ZM399.725 114.209H434.609C434.609 94.9431 418.991 79.3251 399.725 79.3251L399.725 114.209ZM399.725 189.558L399.725 224.441C418.991 224.441 434.609 208.823 434.609 189.558H399.725ZM377.288 234.265H342.404C342.404 253.53 358.022 269.148 377.288 269.148L377.288 234.265ZM377.288 208.981L377.288 174.097C358.022 174.097 342.404 189.715 342.404 208.981H377.288ZM399.725 208.981H434.609C434.609 189.715 418.991 174.097 399.725 174.097L399.725 208.981ZM399.725 234.265L399.725 269.148C418.991 269.148 434.609 253.53 434.609 234.265H399.725ZM412.171 189.558L412.171 114.209H342.404L342.404 189.558H412.171ZM377.288 149.093H399.725L399.725 79.3251H377.288L377.288 149.093ZM364.841 114.209L364.841 189.558H434.609L434.609 114.209H364.841ZM399.725 154.674H377.288L377.288 224.441H399.725L399.725 154.674ZM412.171 234.265L412.171 208.981H342.404L342.404 234.265H412.171ZM377.288 243.865H399.725L399.725 174.097H377.288L377.288 243.865ZM364.841 208.981L364.841 234.265H434.609L434.609 208.981H364.841ZM399.725 199.381H377.288L377.288 269.148H399.725L399.725 199.381Z" fill="#020887"/>
</svg>
