<svg width="719" height="632" viewBox="0 0 719 632" fill="none" xmlns="http://www.w3.org/2000/svg">
<path d="M364.235 425.319L363.996 425.808L363.797 426.315C362.326 430.061 360.995 433.796 359.799 437.513C358.603 433.796 357.271 430.062 355.801 426.315L355.602 425.808L355.363 425.319C321.257 355.551 277.443 331.703 235.077 308.642L234.947 308.571C207.84 293.816 182.038 279.689 157.588 254.137C133.215 228.664 109.512 191.057 88.8254 128.741L79.5846 100.905L64.4492 126.028C19.5324 200.587 -14.669 347.326 51.288 470.281L51.2911 470.287C98.2186 557.666 160.364 602.205 209.752 614.157C251.005 624.141 289.844 614.96 318.816 592.501L330.195 583.68L320.661 572.892L256.997 500.848L329.291 561.042L341.483 571.194L349.553 557.534C353.598 550.686 357.031 543.412 359.799 535.777C362.566 543.409 365.997 550.681 370.041 557.527L378.11 571.188L390.303 561.036L462.588 500.848L398.93 572.886L389.397 583.674L400.774 592.495C429.747 614.957 468.589 624.141 509.845 614.157C559.233 602.204 621.379 557.665 668.307 470.287L668.31 470.281C734.267 347.325 700.065 200.587 655.148 126.028L640.013 100.904L630.772 128.741C610.086 191.057 586.382 228.664 562.009 254.136C537.56 279.689 511.758 293.816 484.651 308.57L484.52 308.642C442.155 331.702 398.341 355.551 364.235 425.319Z" fill="url(#paint0_linear_1540_1700)" stroke="white" stroke-width="27"/>
<text fill="url(#paint1_linear_1540_1700)" stroke="white" stroke-width="44" xml:space="preserve" style="white-space: pre" font-family="Raleway" font-size="226.505" font-weight="bold" letter-spacing="0em"><tspan x="139" y="212.956">OLS</tspan></text>
<defs>
<linearGradient id="paint0_linear_1540_1700" x1="191.251" y1="17.5369" x2="191.251" y2="604.669" gradientUnits="userSpaceOnUse">
<stop stop-color="#A5F200"/>
<stop offset="1" stop-color="#139D3D"/>
</linearGradient>
<linearGradient id="paint1_linear_1540_1700" x1="360.5" y1="-188.598" x2="360.5" y2="266" gradientUnits="userSpaceOnUse">
<stop stop-color="#A5F200"/>
<stop offset="1" stop-color="#139D3D"/>
</linearGradient>
</defs>
</svg>
