<svg width="719" height="632" viewBox="0 0 719 632" fill="none" xmlns="http://www.w3.org/2000/svg">
<path d="M364.235 425.319L363.996 425.808L363.797 426.315C362.326 430.061 360.995 433.796 359.799 437.513C358.603 433.796 357.271 430.062 355.801 426.315L355.602 425.808L355.363 425.319C321.257 355.551 277.443 331.703 235.077 308.642L234.947 308.571C207.84 293.816 182.038 279.689 157.588 254.137C133.215 228.664 109.512 191.057 88.8254 128.741L79.5846 100.905L64.4492 126.028C19.5324 200.587 -14.669 347.326 51.288 470.281L51.2911 470.287C98.2186 557.666 160.364 602.205 209.752 614.157C251.005 624.141 289.844 614.96 318.816 592.501L330.195 583.68L320.661 572.892L256.997 500.848L329.291 561.042L341.483 571.194L349.553 557.534C353.598 550.686 357.031 543.412 359.799 535.777C362.566 543.409 365.997 550.681 370.041 557.527L378.11 571.188L390.303 561.036L462.588 500.848L398.93 572.886L389.397 583.674L400.774 592.495C429.747 614.957 468.589 624.141 509.845 614.157C559.233 602.204 621.379 557.665 668.307 470.287L668.31 470.281C734.267 347.325 700.065 200.587 655.148 126.028L640.013 100.904L630.772 128.741C610.086 191.057 586.382 228.664 562.009 254.136C537.56 279.689 511.758 293.816 484.651 308.57L484.52 308.642C442.155 331.702 398.341 355.551 364.235 425.319Z" fill="url(#paint0_linear_1540_1700)" stroke="white" stroke-width="27"/>
<path d="M224.393 214.133C212.614 214.133 201.893 211.867 192.229 207.337C182.716 202.807 174.486 196.692 167.54 188.99C160.745 181.138 155.459 172.38 151.684 162.716C147.909 152.901 146.022 142.859 146.022 132.591C146.022 121.869 147.985 111.677 151.911 102.012C155.988 92.1971 161.5 83.5144 168.446 75.9642C175.543 68.263 183.848 62.2229 193.361 57.8438C203.026 53.3137 213.596 51.0486 225.072 51.0486C236.699 51.0486 247.27 53.3892 256.783 58.0703C266.447 62.7514 274.677 69.018 281.472 76.8702C288.267 84.7224 293.552 93.4806 297.327 103.145C301.102 112.809 302.99 122.775 302.99 133.044C302.99 143.614 301.027 153.807 297.101 163.622C293.175 173.286 287.663 181.969 280.566 189.67C273.62 197.22 265.315 203.185 255.65 207.564C246.137 211.943 235.718 214.133 224.393 214.133ZM177.732 132.591C177.732 139.537 178.789 146.256 180.904 152.75C183.018 159.243 186.038 165.056 189.964 170.19C194.041 175.174 198.948 179.175 204.687 182.195C210.576 185.064 217.22 186.499 224.619 186.499C232.169 186.499 238.889 184.989 244.778 181.969C250.667 178.798 255.575 174.645 259.501 169.511C263.427 164.226 266.372 158.412 268.335 152.07C270.449 145.577 271.506 139.084 271.506 132.591C271.506 125.644 270.373 119 268.108 112.658C265.994 106.165 262.898 100.427 258.821 95.4437C254.895 90.3096 249.988 86.308 244.099 83.4389C238.36 80.4188 231.867 78.9088 224.619 78.9088C216.918 78.9088 210.123 80.4943 204.234 83.6654C198.495 86.6855 193.663 90.7626 189.737 95.8967C185.811 101.031 182.791 106.769 180.677 113.111C178.714 119.453 177.732 125.946 177.732 132.591ZM326.968 213V52.1811H358.225V185.593H440.22V213H326.968ZM555.055 94.3112C553.998 93.2541 552.035 91.8196 549.166 90.0075C546.448 88.1955 543.05 86.459 538.973 84.7979C535.047 83.1369 530.743 81.7024 526.062 80.4943C521.381 79.1353 516.625 78.4558 511.793 78.4558C503.336 78.4558 496.919 80.0413 492.54 83.2124C488.311 86.3835 486.197 90.8381 486.197 96.5762C486.197 100.955 487.556 104.428 490.275 106.995C492.993 109.563 497.07 111.752 502.506 113.564C507.942 115.376 514.737 117.339 522.891 119.453C533.462 122.02 542.597 125.191 550.298 128.966C558.151 132.591 564.115 137.423 568.192 143.463C572.42 149.352 574.535 157.204 574.535 167.019C574.535 175.627 572.949 183.026 569.778 189.217C566.607 195.257 562.228 200.165 556.641 203.94C551.053 207.715 544.711 210.508 537.614 212.32C530.517 213.982 522.967 214.812 514.964 214.812C506.96 214.812 498.957 213.982 490.954 212.32C482.951 210.659 475.25 208.319 467.85 205.299C460.451 202.128 453.656 198.353 447.465 193.974L461.282 167.019C462.641 168.378 465.057 170.19 468.53 172.456C472.003 174.57 476.231 176.759 481.214 179.024C486.197 181.138 491.634 182.95 497.523 184.46C503.412 185.97 509.376 186.725 515.417 186.725C523.873 186.725 530.29 185.291 534.67 182.422C539.049 179.553 541.238 175.476 541.238 170.19C541.238 165.358 539.502 161.583 536.029 158.865C532.556 156.147 527.723 153.807 521.532 151.844C515.341 149.729 508.017 147.464 499.561 145.048C489.444 142.179 480.988 139.008 474.193 135.535C467.397 131.911 462.339 127.381 459.017 121.945C455.695 116.509 454.034 109.714 454.034 101.559C454.034 90.5361 456.601 81.3248 461.735 73.9257C467.02 66.3755 474.117 60.7129 483.026 56.9378C491.936 53.0117 501.826 51.0486 512.699 51.0486C520.249 51.0486 527.346 51.8791 533.99 53.5402C540.785 55.2012 547.127 57.3908 553.017 60.1088C558.906 62.8269 564.191 65.7715 568.872 68.9425L555.055 94.3112Z" fill="url(#paint1_linear_1540_1700)"/>
<path d="M192.229 207.337L173.312 247.063L173.433 247.121L173.554 247.178L192.229 207.337ZM167.54 188.99L134.268 217.783L134.564 218.125L134.867 218.46L167.54 188.99ZM151.684 162.716L110.617 178.511L110.658 178.618L110.7 178.725L151.684 162.716ZM151.911 102.012L111.277 85.1337L111.211 85.2925L111.146 85.4517L151.911 102.012ZM168.446 75.9642L136.09 46.1463L136.077 46.16L136.065 46.1737L168.446 75.9642ZM193.361 57.8438L211.76 97.8125L211.898 97.7487L212.036 97.684L193.361 57.8438ZM256.783 58.0703L237.356 97.5496L237.479 97.6099L237.602 97.6695L256.783 58.0703ZM281.472 76.8702L248.2 105.663L248.2 105.663L281.472 76.8702ZM297.327 103.145L338.311 87.1355L338.311 87.1354L297.327 103.145ZM297.101 163.622L337.865 180.182L337.91 180.073L337.954 179.963L297.101 163.622ZM280.566 189.67L248.21 159.852L248.198 159.866L248.185 159.879L280.566 189.67ZM255.65 207.564L237.49 167.486L237.371 167.54L237.252 167.595L255.65 207.564ZM180.904 152.75L139.065 166.371L139.065 166.371L180.904 152.75ZM189.964 170.19L155.012 196.918L155.451 197.493L155.91 198.053L189.964 170.19ZM204.687 182.195L184.194 221.132L184.8 221.451L185.416 221.751L204.687 182.195ZM244.778 181.969L264.856 221.121L265.249 220.919L265.638 220.709L244.778 181.969ZM259.501 169.511L294.453 196.239L294.639 195.995L294.822 195.749L259.501 169.511ZM268.335 152.07L226.496 138.448L226.397 138.753L226.302 139.06L268.335 152.07ZM268.108 112.658L226.27 126.28L226.462 126.871L226.671 127.457L268.108 112.658ZM258.821 95.4437L223.87 122.172L224.309 122.746L224.767 123.306L258.821 95.4437ZM244.099 83.4389L223.606 122.375L224.212 122.694L224.828 122.994L244.099 83.4389ZM204.234 83.6654L224.726 122.602L224.911 122.505L225.094 122.406L204.234 83.6654ZM189.737 95.8967L154.785 69.1689L154.785 69.1689L189.737 95.8967ZM180.677 113.111L138.935 99.1971L138.785 99.6475L138.644 100.101L180.677 113.111ZM224.393 170.133C218.394 170.133 214.142 169.015 210.904 167.497L173.554 247.178C189.644 254.72 206.835 258.133 224.393 258.133V170.133ZM211.146 167.612C206.761 165.524 203.228 162.864 200.213 159.521L134.867 218.46C145.744 230.519 158.67 240.091 173.312 247.063L211.146 167.612ZM200.811 160.198C197.293 156.133 194.618 151.697 192.668 146.706L110.7 178.725C116.301 193.063 124.196 206.144 134.268 217.783L200.811 160.198ZM192.752 146.921C190.867 142.022 190.022 137.327 190.022 132.591H102.022C102.022 148.391 104.951 163.779 110.617 178.511L192.752 146.921ZM190.022 132.591C190.022 127.385 190.946 122.83 192.675 118.573L111.146 85.4517C105.024 100.523 102.022 116.353 102.022 132.591H190.022ZM192.545 118.891C194.719 113.656 197.49 109.381 200.827 105.755L136.065 46.1737C125.509 57.6477 117.257 70.7383 111.277 85.1337L192.545 118.891ZM200.801 105.782C203.962 102.353 207.523 99.7626 211.76 97.8125L174.963 17.875C160.173 24.6832 147.124 34.1733 136.09 46.1463L200.801 105.782ZM212.036 97.684C215.425 96.0958 219.556 95.0486 225.072 95.0486V7.04862C207.635 7.04862 190.626 10.5316 174.686 18.0036L212.036 97.684ZM225.072 95.0486C230.624 95.0486 234.454 96.1212 237.356 97.5496L276.209 18.591C260.086 10.6571 242.774 7.04862 225.072 7.04862V95.0486ZM237.602 97.6695C242.071 99.8344 245.453 102.488 248.2 105.663L314.743 48.0777C303.9 35.548 290.823 25.6684 275.964 18.4711L237.602 97.6695ZM248.2 105.663C251.718 109.728 254.394 114.163 256.343 119.154L338.311 87.1354C332.711 72.7979 324.816 59.7171 314.743 48.0777L248.2 105.663ZM256.343 119.154C258.146 123.771 258.99 128.311 258.99 133.044H346.99C346.99 117.239 344.058 101.847 338.311 87.1355L256.343 119.154ZM258.99 133.044C258.99 138.016 258.095 142.662 256.248 147.281L337.954 179.963C343.959 164.951 346.99 149.212 346.99 133.044H258.99ZM256.336 147.061C254.404 151.818 251.747 156.014 248.21 159.852L312.922 219.488C323.579 207.923 331.946 194.754 337.865 180.182L256.336 147.061ZM248.185 159.879C245.378 162.931 241.959 165.461 237.49 167.486L273.81 247.641C288.67 240.908 301.862 231.509 312.947 219.46L248.185 159.879ZM237.252 167.595C233.967 169.107 229.891 170.133 224.393 170.133V258.133C241.545 258.133 258.307 254.779 274.049 247.533L237.252 167.595ZM133.732 132.591C133.732 144.082 135.494 155.403 139.065 166.371L222.742 139.128C222.085 137.109 221.732 134.992 221.732 132.591H133.732ZM139.065 166.371C142.63 177.322 147.899 187.617 155.012 196.918L224.915 143.463C224.176 142.496 223.405 141.164 222.742 139.128L139.065 166.371ZM155.91 198.053C163.747 207.632 173.277 215.386 184.194 221.132L225.179 143.259C224.62 142.964 224.335 142.715 224.018 142.328L155.91 198.053ZM185.416 221.751C198.044 227.903 211.412 230.499 224.619 230.499V142.499C223.769 142.499 223.388 142.417 223.373 142.414C223.362 142.412 223.421 142.424 223.534 142.463C223.649 142.502 223.794 142.56 223.957 142.64L185.416 221.751ZM224.619 230.499C238.162 230.499 251.929 227.75 264.856 221.121L224.7 142.817C224.931 142.698 225.146 142.608 225.328 142.542C225.51 142.477 225.631 142.447 225.674 142.437C225.768 142.416 225.457 142.499 224.619 142.499V230.499ZM265.638 220.709C276.827 214.685 286.601 206.506 294.453 196.239L224.549 142.783C224.499 142.848 224.478 142.867 224.454 142.887C224.427 142.91 224.278 143.034 223.918 143.228L265.638 220.709ZM294.822 195.749C301.743 186.432 306.944 176.139 310.367 165.08L226.302 139.06C225.799 140.685 225.111 142.019 224.18 143.273L294.822 195.749ZM310.173 165.692C313.645 155.029 315.506 143.944 315.506 132.591H227.506C227.506 134.223 227.253 136.125 226.496 138.448L310.173 165.692ZM315.506 132.591C315.506 120.762 313.559 109.1 309.545 97.8593L226.671 127.457C227.187 128.9 227.506 130.527 227.506 132.591H315.506ZM309.946 99.0363C306.247 87.6724 300.613 77.0387 292.876 67.5812L224.767 123.306C225.184 123.815 225.742 124.657 226.27 126.28L309.946 99.0363ZM293.773 68.7158C285.631 58.0683 275.325 49.7082 263.369 43.8833L224.828 122.994C224.832 122.997 224.652 122.905 224.391 122.693C224.128 122.479 223.949 122.276 223.87 122.172L293.773 68.7158ZM264.591 44.5025C251.82 37.7807 238.154 34.9088 224.619 34.9088V122.909C225.177 122.909 225.25 122.965 224.958 122.898C224.647 122.825 224.156 122.665 223.606 122.375L264.591 44.5025ZM224.619 34.9088C210.747 34.9088 196.585 37.8105 183.373 44.9247L225.094 122.406C224.798 122.565 224.518 122.69 224.27 122.783C224.023 122.875 223.841 122.924 223.745 122.947C223.546 122.993 223.791 122.909 224.619 122.909V34.9088ZM183.741 44.729C172.374 50.7117 162.602 58.9476 154.785 69.1689L224.689 122.625C224.71 122.597 224.725 122.579 224.732 122.57C224.74 122.561 224.742 122.559 224.739 122.563C224.735 122.567 224.728 122.574 224.717 122.584C224.706 122.595 224.694 122.606 224.68 122.617C224.667 122.628 224.655 122.638 224.644 122.646C224.634 122.654 224.628 122.658 224.627 122.658C224.626 122.659 224.633 122.655 224.648 122.646C224.663 122.636 224.689 122.622 224.726 122.602L183.741 44.729ZM154.785 69.1689C147.802 78.3015 142.535 88.398 138.935 99.1971L222.419 127.025C223.047 125.14 223.821 123.76 224.689 122.624L154.785 69.1689ZM138.644 100.101C135.376 110.66 133.732 121.539 133.732 132.591H221.732C221.732 130.354 222.052 128.246 222.71 126.121L138.644 100.101ZM326.968 213H282.968V257H326.968V213ZM326.968 52.1811V8.18115H282.968V52.1811H326.968ZM358.225 52.1811H402.225V8.18115H358.225V52.1811ZM358.225 185.593H314.225V229.593H358.225V185.593ZM440.22 185.593H484.22V141.593H440.22V185.593ZM440.22 213V257H484.22V213H440.22ZM370.968 213V52.1811H282.968V213H370.968ZM326.968 96.1811H358.225V8.18115H326.968V96.1811ZM314.225 52.1811V185.593H402.225V52.1811H314.225ZM358.225 229.593H440.22V141.593H358.225V229.593ZM396.22 185.593V213H484.22V185.593H396.22ZM440.22 169H326.968V257H440.22V169ZM555.055 94.3112L523.942 125.424L565.551 167.032L593.696 115.356L555.055 94.3112ZM549.166 90.0075L524.759 126.618L525.211 126.919L525.67 127.209L549.166 90.0075ZM538.973 84.7979L521.829 125.321L522.1 125.435L522.372 125.546L538.973 84.7979ZM526.062 80.4943L513.795 122.75L514.429 122.934L515.068 123.099L526.062 80.4943ZM492.54 83.2124L466.733 47.575L466.435 47.7912L466.14 48.0124L492.54 83.2124ZM502.506 113.564L488.592 155.306L488.592 155.306L502.506 113.564ZM522.891 119.453L511.849 162.045L512.178 162.13L512.507 162.21L522.891 119.453ZM550.298 128.966L530.932 168.475L531.393 168.701L531.86 168.917L550.298 128.966ZM568.192 143.463L531.723 168.08L532.079 168.607L532.45 169.124L568.192 143.463ZM569.778 189.217L608.735 209.67L608.839 209.473L608.94 209.275L569.778 189.217ZM537.614 212.32L547.641 255.163L548.071 255.062L548.499 254.953L537.614 212.32ZM467.85 205.299L450.518 245.741L450.869 245.892L451.223 246.036L467.85 205.299ZM447.465 193.974L408.31 173.902L390.903 207.86L422.057 229.896L447.465 193.974ZM461.282 167.019L492.395 135.907L449.681 93.1935L422.126 146.948L461.282 167.019ZM468.53 172.456L444.494 209.31L445.068 209.684L445.652 210.04L468.53 172.456ZM481.214 179.024L463.007 219.08L463.516 219.312L464.03 219.53L481.214 179.024ZM497.523 184.46L486.594 227.082L486.594 227.082L497.523 184.46ZM534.67 182.422L510.556 145.617L510.556 145.617L534.67 182.422ZM521.532 151.844L507.314 193.483L507.772 193.639L508.234 193.786L521.532 151.844ZM499.561 145.048L511.649 102.741L511.607 102.729L511.565 102.718L499.561 145.048ZM474.193 135.535L453.487 174.359L453.826 174.539L454.168 174.714L474.193 135.535ZM459.017 121.945L421.472 144.889L421.472 144.889L459.017 121.945ZM461.735 73.9257L425.689 48.6933L425.637 48.7676L425.585 48.8421L461.735 73.9257ZM483.026 56.9378L500.193 97.4508L500.482 97.3283L500.77 97.2016L483.026 56.9378ZM533.99 53.5402L523.319 96.2264L523.43 96.2544L523.542 96.2817L533.99 53.5402ZM553.017 60.1088L571.455 20.1586L571.455 20.1586L553.017 60.1088ZM568.872 68.9425L607.512 89.9879L626.615 54.9137L593.549 32.5141L568.872 68.9425ZM586.168 63.1984C581.35 58.3805 575.709 54.7307 572.662 52.8061L525.67 127.209C526.565 127.774 526.894 128.015 526.829 127.968C526.783 127.934 526.514 127.737 526.092 127.388C525.697 127.063 524.918 126.4 523.942 125.424L586.168 63.1984ZM573.573 53.3973C567.719 49.4951 561.509 46.4678 555.574 44.0499L522.372 125.546C523.42 125.973 524.128 126.307 524.554 126.525C524.988 126.747 525.021 126.792 524.759 126.618L573.573 53.3973ZM556.117 44.2753C549.952 41.6668 543.563 39.5692 537.057 37.8901L515.068 123.099C517.924 123.836 520.143 124.607 521.829 125.321L556.117 44.2753ZM538.33 38.2391C529.698 35.733 520.812 34.4558 511.793 34.4558V122.456C512.437 122.456 513.065 122.538 513.795 122.75L538.33 38.2391ZM511.793 34.4558C498.935 34.4558 481.78 36.6787 466.733 47.575L518.346 118.85C515.057 121.232 512.286 122.09 511.19 122.361C510.143 122.619 510.186 122.456 511.793 122.456V34.4558ZM466.14 48.0124C449.776 60.2849 442.197 78.3639 442.197 96.5762H530.197C530.197 99.169 529.697 103.237 527.534 107.796C525.313 112.476 522.113 116.032 518.94 118.412L466.14 48.0124ZM442.197 96.5762C442.197 110.804 447.028 126.673 460.063 138.984L520.486 75.0069C523.836 78.1709 526.498 82.1055 528.191 86.4318C529.827 90.611 530.197 94.2179 530.197 96.5762H442.197ZM460.063 138.984C469.254 147.664 480.003 152.443 488.592 155.306L516.42 71.8221C515.547 71.5311 515.567 71.4653 516.188 71.7992C516.791 72.1229 518.451 73.0851 520.486 75.0069L460.063 138.984ZM488.592 155.306C495.302 157.543 503.131 159.785 511.849 162.045L533.934 76.8614C526.343 74.8934 520.582 73.2095 516.42 71.8221L488.592 155.306ZM512.507 162.21C520.759 164.214 526.742 166.421 530.932 168.475L569.665 89.458C558.453 83.9616 546.164 79.8263 533.275 76.6961L512.507 162.21ZM531.86 168.917C532.884 169.389 533.148 169.647 532.964 169.497C532.872 169.423 532.691 169.265 532.458 169.013C532.224 168.759 531.97 168.446 531.723 168.08L604.662 118.846C595.31 104.992 582.512 95.3742 568.737 89.0163L531.86 168.917ZM532.45 169.124C531.127 167.281 530.614 165.772 530.462 165.208C530.333 164.728 530.535 165.206 530.535 167.019H618.535C618.535 151.199 615.139 133.407 603.935 117.802L532.45 169.124ZM530.535 167.019C530.535 170.277 529.941 170.477 530.616 169.158L608.94 209.275C615.957 195.575 618.535 180.976 618.535 167.019H530.535ZM530.82 168.764C530.846 168.716 530.991 168.463 531.285 168.133C531.581 167.801 531.859 167.582 532.007 167.482L581.274 240.398C592.958 232.503 602.227 222.067 608.735 209.67L530.82 168.764ZM532.007 167.482C530.961 168.189 529.346 169.02 526.729 169.688L548.499 254.953C560.077 251.997 571.146 247.241 581.274 240.398L532.007 167.482ZM527.587 169.478C524.08 170.299 519.917 170.812 514.964 170.812V258.812C526.017 258.812 536.954 257.664 547.641 255.163L527.587 169.478ZM514.964 170.812C510.028 170.812 505.02 170.302 499.896 169.239L482.013 255.402C492.894 257.661 503.893 258.812 514.964 258.812V170.812ZM499.896 169.239C494.461 168.111 489.336 166.544 484.478 164.562L451.223 246.036C461.163 250.093 471.441 253.208 482.013 255.402L499.896 169.239ZM485.183 164.856C480.453 162.829 476.389 160.538 472.873 158.051L422.057 229.896C430.923 236.167 440.449 241.426 450.518 245.741L485.183 164.856ZM486.62 214.045L500.437 187.091L422.126 146.948L408.31 173.902L486.62 214.045ZM430.169 198.132C434.981 202.944 440.699 206.835 444.494 209.31L492.566 135.601C491.986 135.222 491.524 134.912 491.169 134.665C490.809 134.416 490.599 134.262 490.513 134.198C490.473 134.168 490.478 134.17 490.521 134.205C490.564 134.238 490.659 134.315 490.8 134.433C490.939 134.549 491.144 134.726 491.401 134.959C491.656 135.19 491.995 135.507 492.395 135.907L430.169 198.132ZM445.652 210.04C451.044 213.322 456.929 216.318 463.007 219.08L499.422 138.968C495.533 137.201 492.962 135.817 491.408 134.871L445.652 210.04ZM464.03 219.53C471.272 222.602 478.826 225.09 486.594 227.082L508.451 141.839C504.441 140.811 501.123 139.674 498.398 138.519L464.03 219.53ZM486.594 227.082C496.03 229.501 505.666 230.725 515.417 230.725V142.725C513.087 142.725 510.793 142.44 508.451 141.839L486.594 227.082ZM515.417 230.725C527.649 230.725 544.073 228.864 558.783 219.226L510.556 145.617C513.768 143.513 516.285 142.863 516.974 142.709C517.661 142.555 517.282 142.725 515.417 142.725V230.725ZM558.783 219.226C575.714 208.133 585.238 190.141 585.238 170.19H497.238C497.238 166.61 498.028 161.616 500.832 156.395C503.646 151.156 507.422 147.671 510.556 145.617L558.783 219.226ZM585.238 170.19C585.238 153.311 578.392 136.147 563.146 124.215L508.911 193.515C505.476 190.827 502.202 186.992 499.962 182.123C497.779 177.378 497.238 173.095 497.238 170.19H585.238ZM563.146 124.215C554.075 117.116 543.881 112.771 534.831 109.901L508.234 193.786C508.957 194.015 509.513 194.215 509.919 194.374C510.327 194.533 510.551 194.637 510.619 194.67C510.688 194.704 510.562 194.647 510.28 194.476C510 194.305 509.523 193.994 508.911 193.515L563.146 124.215ZM535.751 110.204C528.663 107.784 520.595 105.297 511.649 102.741L487.474 187.355C495.44 189.631 502.019 191.675 507.314 193.483L535.751 110.204ZM511.565 102.718C503.261 100.363 497.693 98.1324 494.218 96.356L454.168 174.714C464.283 179.884 475.627 183.996 487.557 187.379L511.565 102.718ZM494.899 96.7116C494.207 96.343 494.232 96.2622 494.656 96.6417C495.111 97.0495 495.843 97.826 496.561 99.001L421.472 144.889C429.668 158.299 441.21 167.811 453.487 174.359L494.899 96.7116ZM496.561 99.001C497.486 100.515 497.879 101.742 498.021 102.323C498.151 102.854 498.034 102.681 498.034 101.559H410.034C410.034 115.577 412.899 130.859 421.472 144.889L496.561 99.001ZM498.034 101.559C498.034 99.4451 498.281 98.4215 498.344 98.1956C498.388 98.0369 498.293 98.4211 497.885 99.0092L425.585 48.8421C414.291 65.1184 410.034 83.6046 410.034 101.559H498.034ZM497.781 99.158C498.09 98.7172 498.488 98.1731 500.193 97.4508L465.86 16.4247C449.746 23.2526 435.95 34.0338 425.689 48.6933L497.781 99.158ZM500.77 97.2016C503.469 96.0122 507.221 95.0486 512.699 95.0486V7.04862C496.432 7.04862 480.402 10.0111 465.283 16.674L500.77 97.2016ZM512.699 95.0486C517.014 95.0486 520.5 95.5218 523.319 96.2264L544.662 10.8539C534.192 8.23645 523.483 7.04862 512.699 7.04862V95.0486ZM523.542 96.2817C527.803 97.3233 531.448 98.6145 534.578 100.059L571.455 20.1586C562.807 16.1671 553.767 13.0791 544.438 10.7986L523.542 96.2817ZM534.578 100.059C538.605 101.918 541.757 103.72 544.195 105.371L593.549 32.5141C586.624 27.823 579.207 23.7363 571.455 20.1586L534.578 100.059ZM530.231 47.8972L516.414 73.2658L593.696 115.356L607.512 89.9879L530.231 47.8972Z" fill="white"/>
<defs>
<linearGradient id="paint0_linear_1540_1700" x1="191.251" y1="17.5369" x2="191.251" y2="604.669" gradientUnits="userSpaceOnUse">
<stop stop-color="#A5F200"/>
<stop offset="1" stop-color="#139D3D"/>
</linearGradient>
<linearGradient id="paint1_linear_1540_1700" x1="360.5" y1="-188.598" x2="360.5" y2="266" gradientUnits="userSpaceOnUse">
<stop stop-color="#A5F200"/>
<stop offset="1" stop-color="#139D3D"/>
</linearGradient>
</defs>
</svg>
