<svg width="392" height="213" viewBox="0 0 392 213" fill="none" xmlns="http://www.w3.org/2000/svg">
<g clip-path="url(#clip0_1398_1093)">
<path d="M250.442 34.8345L250.442 34.8347C249.171 37.6405 248.667 40.4641 249.268 42.9198C249.914 45.555 251.833 47.5728 254.625 48.0587C257.174 48.5021 259.857 47.571 262.276 45.9161C264.749 44.2252 267.267 41.5753 269.667 37.9252C270.459 36.7206 272.817 33.787 275.892 30.4925C278.951 27.2157 282.508 23.8123 285.639 21.5768C287.222 20.446 288.517 19.7461 289.46 19.4435C289.726 19.3583 289.915 19.3182 290.044 19.3004C290.133 19.5333 290.261 20.0053 290.308 20.8749C290.399 22.5397 290.154 25.0864 289.336 28.7862C274.676 67.4423 269.89 96.1433 270.137 116.002C270.261 125.945 271.647 133.766 273.759 139.537C275.828 145.19 278.771 149.34 282.366 151.169C284.153 152.077 286.139 152.05 287.791 151.661C289.481 151.263 291.142 150.419 292.526 149.255C295.319 146.906 297.4 142.77 295.372 138.074C294.818 136.79 293.781 135.611 293 134.721L292.929 134.64C292.858 134.56 292.787 134.479 292.715 134.397C291.864 133.429 290.951 132.392 290.003 131.079C287.994 128.3 285.756 124.183 284.507 117.495C281.982 103.969 283.468 79.7398 299.661 34.826C304.228 22.1604 298.852 7.90131 287.637 4.36456C281.94 2.56797 275.404 3.8388 268.988 8.71009C262.635 13.5338 256.277 21.9465 250.442 34.8345ZM290.27 19.293C290.27 19.2939 290.259 19.2932 290.241 19.2883C290.262 19.2897 290.271 19.2922 290.27 19.293Z" fill="#A5F200" stroke="#020887" stroke-width="6.42623"/>
<path d="M76.934 34.8345L76.9339 34.8347C75.6637 37.6405 75.1593 40.4641 75.7607 42.9198C76.406 45.555 78.3248 47.5728 81.1174 48.0587C83.6659 48.5021 86.3489 47.571 88.7685 45.9161C91.2408 44.2252 93.759 41.5753 96.1593 37.9252C96.9514 36.7206 99.3088 33.787 102.384 30.4925C105.444 27.2157 109 23.8123 112.131 21.5768C113.715 20.446 115.009 19.7461 115.952 19.4435C116.218 19.3583 116.407 19.3182 116.536 19.3004C116.625 19.5333 116.753 20.0053 116.8 20.8749C116.891 22.5397 116.647 25.0864 115.828 28.7862C101.169 67.4423 96.3826 96.1433 96.6292 116.002C96.7527 125.945 98.1392 133.766 100.251 139.537C102.32 145.19 105.263 149.34 108.858 151.169C110.645 152.077 112.632 152.05 114.283 151.661C115.973 151.263 117.634 150.419 119.018 149.255C121.811 146.906 123.892 142.77 121.864 138.074C121.31 136.79 120.274 135.611 119.492 134.721L119.421 134.64C119.35 134.56 119.279 134.479 119.208 134.397C118.356 133.429 117.444 132.392 116.495 131.079C114.486 128.3 112.248 124.183 110.999 117.495C108.474 103.969 109.961 79.7398 126.154 34.826C130.72 22.1604 125.345 7.90131 114.129 4.36456C108.432 2.56797 101.896 3.8388 95.48 8.71009C89.1269 13.5338 82.7693 21.9465 76.934 34.8345ZM116.763 19.293C116.762 19.2939 116.752 19.2932 116.733 19.2883C116.754 19.2897 116.763 19.2922 116.763 19.293Z" fill="#A5F200" stroke="#020887" stroke-width="6.42623"/>
<mask id="path-3-inside-1_1398_1093" fill="white">
<path fill-rule="evenodd" clip-rule="evenodd" d="M17.9574 55.6399C8.35824 54.7485 0 62.2747 0 71.9151C0 81.3151 7.83449 88.7893 17.2216 88.2987C21.8933 88.0546 27.4353 87.7756 33.7479 87.4759C33.8361 140.652 34.6833 180.407 42.8247 206.742C43.9988 210.539 47.602 212.963 51.5772 212.963H170.293C175.617 212.963 179.93 208.645 179.936 203.322C179.979 163.457 180.559 127.687 188.4 83.046C194.998 82.9863 201.669 82.9443 208.395 82.9228C216.256 127.622 216.838 163.421 216.88 203.322C216.886 208.645 221.2 212.963 226.523 212.963H345.239C349.215 212.963 352.818 210.539 353.992 206.742C362.156 180.334 362.985 140.432 363.069 87.0336C366.803 87.2799 370.51 87.539 374.189 87.8115C383.777 88.5216 392 80.981 392 71.3666C392 61.9131 383.979 54.4265 374.545 55.0346C371.441 55.2347 368.369 55.4329 365.33 55.6292C233.049 64.1676 160.33 68.8614 17.9574 55.6399Z"/>
</mask>
<path fill-rule="evenodd" clip-rule="evenodd" d="M17.9574 55.6399C8.35824 54.7485 0 62.2747 0 71.9151C0 81.3151 7.83449 88.7893 17.2216 88.2987C21.8933 88.0546 27.4353 87.7756 33.7479 87.4759C33.8361 140.652 34.6833 180.407 42.8247 206.742C43.9988 210.539 47.602 212.963 51.5772 212.963H170.293C175.617 212.963 179.93 208.645 179.936 203.322C179.979 163.457 180.559 127.687 188.4 83.046C194.998 82.9863 201.669 82.9443 208.395 82.9228C216.256 127.622 216.838 163.421 216.88 203.322C216.886 208.645 221.2 212.963 226.523 212.963H345.239C349.215 212.963 352.818 210.539 353.992 206.742C362.156 180.334 362.985 140.432 363.069 87.0336C366.803 87.2799 370.51 87.539 374.189 87.8115C383.777 88.5216 392 80.981 392 71.3666C392 61.9131 383.979 54.4265 374.545 55.0346C371.441 55.2347 368.369 55.4329 365.33 55.6292C233.049 64.1676 160.33 68.8614 17.9574 55.6399Z" fill="#139D3D"/>
<path d="M17.9574 55.6399L18.5516 49.2412V49.2412L17.9574 55.6399ZM17.2216 88.2987L17.557 94.7162L17.557 94.7162L17.2216 88.2987ZM33.7479 87.4759L40.1742 87.4652L40.163 80.7379L33.4432 81.0569L33.7479 87.4759ZM42.8247 206.742L36.6851 208.64H36.6851L42.8247 206.742ZM179.936 203.322L173.51 203.315V203.315L179.936 203.322ZM188.4 83.046L188.341 76.62L182.995 76.6684L182.07 81.9344L188.4 83.046ZM208.395 82.9228L214.724 81.8097L213.787 76.4792L208.375 76.4966L208.395 82.9228ZM216.88 203.322L210.454 203.328V203.328L216.88 203.322ZM353.992 206.742L347.852 204.844V204.844L353.992 206.742ZM363.069 87.0336L363.492 80.6213L356.654 80.1702L356.643 87.0234L363.069 87.0336ZM374.189 87.8115L374.664 81.4028L374.189 87.8115ZM374.545 55.0346L374.958 61.4475H374.958L374.545 55.0346ZM365.33 55.6292L365.744 62.042L365.33 55.6292ZM6.42623 71.9151C6.42623 66.107 11.4831 61.4925 17.3632 62.0386L18.5516 49.2412C5.2334 48.0044 -6.42623 58.4423 -6.42623 71.9151H6.42623ZM16.8862 81.8812C11.195 82.1787 6.42623 77.6543 6.42623 71.9151H-6.42623C-6.42623 84.9758 4.47399 95.3999 17.557 94.7162L16.8862 81.8812ZM33.4432 81.0569C27.1198 81.3571 21.5676 81.6366 16.8862 81.8812L17.557 94.7162C22.219 94.4725 27.7507 94.194 34.0526 93.8949L33.4432 81.0569ZM48.9642 204.844C41.1713 179.636 40.2629 140.992 40.1742 87.4652L27.3217 87.4866C27.4093 140.312 28.1954 181.178 36.6851 208.64L48.9642 204.844ZM51.5772 206.537C50.1496 206.537 49.2288 205.699 48.9642 204.844L36.6851 208.64C38.7688 215.379 45.0543 219.389 51.5772 219.389V206.537ZM170.293 206.537H51.5772V219.389H170.293V206.537ZM173.51 203.315C173.508 205.1 172.063 206.537 170.293 206.537V219.389C179.171 219.389 186.353 212.191 186.362 203.328L173.51 203.315ZM182.07 81.9344C174.129 127.148 173.553 163.378 173.51 203.315L186.362 203.328C186.405 163.537 186.989 128.227 194.729 84.1576L182.07 81.9344ZM208.375 76.4966C201.635 76.5182 194.952 76.5602 188.341 76.62L188.458 89.472C195.044 89.4123 201.703 89.3705 208.416 89.349L208.375 76.4966ZM202.066 84.0358C209.826 128.161 210.411 163.5 210.454 203.328L223.307 203.315C223.264 163.341 222.686 127.082 214.724 81.8097L202.066 84.0358ZM210.454 203.328C210.464 212.191 217.645 219.389 226.523 219.389V206.537C224.754 206.537 223.309 205.1 223.307 203.315L210.454 203.328ZM226.523 219.389H345.239V206.537H226.523V219.389ZM345.239 219.389C351.762 219.389 358.048 215.379 360.131 208.64L347.852 204.844C347.588 205.699 346.667 206.537 345.239 206.537V219.389ZM360.131 208.64C368.644 181.104 369.412 140.087 369.496 87.0437L356.643 87.0234C356.558 140.776 355.667 179.565 347.852 204.844L360.131 208.64ZM374.664 81.4028C370.967 81.129 367.242 80.8687 363.492 80.6213L362.646 93.4459C366.363 93.6911 370.054 93.949 373.714 94.2201L374.664 81.4028ZM385.574 71.3666C385.574 77.1951 380.576 81.8407 374.664 81.4028L373.714 94.2201C386.979 95.2026 398.426 84.7668 398.426 71.3666H385.574ZM374.958 61.4475C380.706 61.077 385.574 65.6427 385.574 71.3666H398.426C398.426 58.1835 387.252 47.7759 374.132 48.6217L374.958 61.4475ZM365.744 62.042C368.783 61.8458 371.854 61.6476 374.958 61.4475L374.132 48.6217C371.027 48.8218 367.955 49.0201 364.916 49.2163L365.744 62.042ZM17.3632 62.0386C160.252 75.3081 233.379 70.5859 365.744 62.042L364.916 49.2163C232.72 57.7492 160.407 62.4148 18.5516 49.2412L17.3632 62.0386Z" fill="#020887" mask="url(#path-3-inside-1_1398_1093)"/>
<path d="M346.214 206.016H224.919C224.919 157.82 293.482 192.361 316.777 146.574L356.655 79.9016C355.049 148.18 357.461 177.098 346.214 206.016Z" fill="#138B37" fill-opacity="0.46"/>
<path d="M50.6066 206.016H163.368C168.692 206.016 173.004 201.691 173.028 196.367C173.22 154.441 174.866 130.586 182.344 77.4918L144.727 155.669C144.297 156.562 143.723 157.399 143.03 158.107C102.797 199.205 39.4563 177.349 50.6066 206.016Z" fill="#138B37" fill-opacity="0.46"/>
<path d="M177.975 88.3841C146.425 96.1468 91.2571 94.7338 47.8866 85.0517" stroke="#A5F200" stroke-width="3.21311" stroke-dasharray="3.21 3.21"/>
<path d="M222.629 87.2503C254.179 95.0131 309.347 93.6 352.718 83.9179" stroke="#A5F200" stroke-width="3.21311" stroke-dasharray="3.21 3.21"/>
</g>
<defs>
<clipPath id="clip0_1398_1093">
<rect width="392" height="213" fill="white"/>
</clipPath>
</defs>
</svg>
