<svg width="480" height="118" viewBox="0 0 480 118" fill="none" xmlns="http://www.w3.org/2000/svg">
<path d="M65.3738 44.0037C64.9553 43.5851 64.1779 43.0171 63.0417 42.2995C61.9654 41.5819 60.6199 40.8942 59.0054 40.2364C57.4506 39.5787 55.7464 39.0106 53.8926 38.5322C52.0389 37.994 50.1553 37.7249 48.2417 37.7249C44.8931 37.7249 42.3516 38.3528 40.6175 39.6086C38.9432 40.8643 38.106 42.6284 38.106 44.9007C38.106 46.6348 38.6442 48.0102 39.7205 49.0267C40.7969 50.0433 42.4114 50.9104 44.5642 51.628C46.7169 52.3455 49.4078 53.1229 52.6369 53.9601C56.8227 54.9766 60.4405 56.2324 63.4902 57.7273C66.5997 59.1625 68.9617 61.076 70.5763 63.4679C72.2506 65.8001 73.0878 68.9096 73.0878 72.7964C73.0878 76.2049 72.4599 79.135 71.2041 81.5867C69.9484 83.9786 68.2142 85.9221 66.0017 87.417C63.7892 88.912 61.2777 90.0182 58.4672 90.7358C55.6567 91.3936 52.6668 91.7225 49.4975 91.7225C46.3282 91.7225 43.1589 91.3936 39.9896 90.7358C36.8203 90.078 33.7706 89.1511 30.8405 87.9552C27.9104 86.6994 25.2195 85.2045 22.7678 83.4703L28.2393 72.7964C28.7775 73.3346 29.7343 74.0522 31.1096 74.9491C32.485 75.7863 34.1593 76.6534 36.1327 77.5504C38.106 78.3875 40.2587 79.1051 42.5908 79.7031C44.923 80.3011 47.285 80.6 49.6769 80.6C53.0256 80.6 55.567 80.032 57.3011 78.8958C59.0353 77.7596 59.9023 76.1451 59.9023 74.0522C59.9023 72.1386 59.2147 70.6437 57.8393 69.5673C56.464 68.491 54.5504 67.5641 52.0987 66.7867C49.647 65.9496 46.7468 65.0526 43.3981 64.0958C39.3916 62.9597 36.043 61.7039 33.3521 60.3286C30.6612 58.8934 28.6579 57.0995 27.3424 54.9467C26.0268 52.794 25.369 50.1031 25.369 46.874C25.369 42.5088 26.3856 38.8611 28.4187 35.931C30.5117 32.9411 33.3222 30.6987 36.8502 29.2037C40.3783 27.649 44.2951 26.8716 48.6005 26.8716C51.5904 26.8716 54.4009 27.2005 57.032 27.8583C59.7229 28.5161 62.2345 29.3831 64.5666 30.4595C66.8987 31.5359 68.9916 32.7019 70.8454 33.9577L65.3738 44.0037ZM126.662 80.1516L126.662 91.0049H82.4415L82.4415 27.3201H125.855L125.855 38.1734H94.8196L94.8196 53.5116H121.639L121.639 63.5576H94.8196L94.8196 80.1516H126.662ZM180.533 80.1516L180.533 91.0049H136.312L136.312 27.3201H179.725L179.725 38.1734H148.69L148.69 53.5116H175.51L175.51 63.5576H148.69L148.69 80.1516H180.533ZM190.183 91.0049L190.183 27.3201H213.325C220.261 27.3201 226.062 28.7552 230.726 31.6255C235.39 34.4361 238.888 38.2631 241.22 43.1067C243.552 47.8906 244.719 53.2126 244.719 59.0728C244.719 65.531 243.433 71.152 240.862 75.9358C238.29 80.7196 234.643 84.4271 229.919 87.0582C225.254 89.6893 219.723 91.0049 213.325 91.0049H190.183ZM232.251 59.0728C232.251 54.9467 231.503 51.329 230.008 48.2195C228.513 45.0502 226.361 42.5985 223.55 40.8643C220.74 39.0704 217.331 38.1734 213.325 38.1734H202.561L202.561 80.1516H213.325C217.391 80.1516 220.829 79.2546 223.64 77.4607C226.45 75.6069 228.573 73.0954 230.008 69.9261C231.503 66.697 232.251 63.0793 232.251 59.0728ZM254.39 91.0049L254.39 27.3201H266.768L266.768 80.1516H299.238L299.238 91.0049H254.39ZM306.771 91.0049L306.771 27.3201H319.149L319.149 91.0049H306.771ZM344.815 50.1031L344.815 91.0049H332.436L332.436 27.3201H342.303L375.222 69.2982L375.222 27.4098H387.6L387.6 91.0049H377.285L344.815 50.1031ZM427.308 91.4534C423.182 91.4534 419.266 90.6162 415.558 88.9419C411.91 87.2675 408.681 84.9653 405.871 82.0352C403.12 79.0453 400.967 75.577 399.413 71.6304C397.858 67.6837 397.081 63.4081 397.081 58.8037C397.081 54.4385 397.858 50.3423 399.413 46.5152C400.967 42.6284 403.15 39.2199 405.961 36.2898C408.771 33.3597 412.06 31.0575 415.827 29.3831C419.595 27.7088 423.691 26.8716 428.116 26.8716C434.096 26.8716 439.208 28.1573 443.454 30.7286C447.759 33.2401 450.988 36.5888 453.141 40.7746L443.902 47.5916C442.288 44.4223 440.016 42.0005 437.085 40.3261C434.215 38.6518 431.076 37.8146 427.667 37.8146C424.976 37.8146 422.525 38.3827 420.312 39.5189C418.1 40.655 416.186 42.2098 414.571 44.1831C412.957 46.1564 411.701 48.4288 410.804 51.0001C409.967 53.5714 409.548 56.2922 409.548 59.1625C409.548 62.2122 409.997 65.0227 410.894 67.594C411.851 70.1653 413.166 72.4077 414.841 74.3213C416.575 76.2348 418.578 77.7596 420.85 78.8958C423.123 79.9722 425.634 80.5103 428.385 80.5103C431.614 80.5103 434.693 79.6732 437.624 77.9988C440.613 76.3245 443.394 73.8728 445.965 70.6437L445.965 82.8425C440.643 88.5831 434.424 91.4534 427.308 91.4534ZM445.068 67.3249H432.242L432.242 58.2655H455.294L455.294 91.0049H445.068L445.068 67.3249Z" fill="white"/>
<path d="M65.3738 44.0037L53.3531 56.0246C57.1428 59.8143 62.4978 61.595 67.8023 60.8294C73.1068 60.0638 77.7397 56.8415 80.3032 52.1349L65.3738 44.0037ZM63.0417 42.2995L53.6118 56.4443C53.7282 56.5219 53.8456 56.5981 53.9638 56.6728L63.0417 42.2995ZM59.0054 40.2364L52.3815 55.8929C52.4512 55.9224 52.5212 55.9514 52.5913 55.98L59.0054 40.2364ZM53.8926 38.5322L49.1529 54.8581C49.3161 54.9055 49.4801 54.9504 49.6447 54.9929L53.8926 38.5322ZM40.6175 39.6086L30.6468 25.8396C30.5699 25.8953 30.4935 25.9516 30.4175 26.0086L40.6175 39.6086ZM44.5642 51.628L39.1883 67.7556L39.1883 67.7556L44.5642 51.628ZM52.6369 53.9601L48.3705 70.416C48.4552 70.438 48.54 70.4593 48.6249 70.4799L52.6369 53.9601ZM63.4902 57.7273L56.0075 72.992C56.1264 73.0503 56.246 73.1072 56.3662 73.1626L63.4902 57.7273ZM70.5763 63.4679L56.4858 72.979C56.5775 73.1148 56.6712 73.2493 56.7668 73.3825L70.5763 63.4679ZM71.2041 81.5867L86.2559 89.4889C86.2825 89.4383 86.3088 89.3875 86.3349 89.3366L71.2041 81.5867ZM58.4672 90.7358L62.3412 107.288C62.452 107.263 62.5625 107.236 62.6727 107.207L58.4672 90.7358ZM30.8405 87.9552L24.1439 103.581C24.2344 103.619 24.3252 103.657 24.4163 103.695L30.8405 87.9552ZM22.7678 83.4703L7.63961 75.7155C3.78055 83.2439 6.04422 92.4642 12.9509 97.3494L22.7678 83.4703ZM28.2393 72.7964L40.2602 60.7756C36.4174 56.9329 30.969 55.1589 25.6005 56.0025C20.2319 56.8461 15.5901 60.2055 13.1111 65.0416L28.2393 72.7964ZM31.1096 74.9491L21.8231 89.1885C21.9708 89.2848 22.1199 89.3788 22.2705 89.4705L31.1096 74.9491ZM36.1327 77.5504L29.098 93.0266C29.229 93.0861 29.3608 93.144 29.4933 93.2002L36.1327 77.5504ZM42.5908 79.7031L38.3685 96.1704L38.3685 96.1704L42.5908 79.7031ZM57.3011 78.8958L47.9847 64.676L47.9847 64.676L57.3011 78.8958ZM52.0987 66.7867L46.6053 82.8747C46.7233 82.915 46.8417 82.954 46.9606 82.9916L52.0987 66.7867ZM43.3981 64.0958L48.0684 47.7499C48.0576 47.7468 48.0469 47.7438 48.0361 47.7407L43.3981 64.0958ZM33.3521 60.3286L25.3521 75.3285C25.4394 75.3751 25.5271 75.4209 25.6152 75.4659L33.3521 60.3286ZM27.3424 54.9467L12.8366 63.8114L12.8366 63.8114L27.3424 54.9467ZM28.4187 35.931L14.4918 26.1821C14.4784 26.2013 14.465 26.2204 14.4517 26.2396L28.4187 35.931ZM36.8502 29.2037L43.4828 44.8565C43.5573 44.8249 43.6316 44.7928 43.7056 44.7602L36.8502 29.2037ZM57.032 27.8583L52.9089 44.3507C52.9377 44.3579 52.9665 44.365 52.9953 44.3721L57.032 27.8583ZM64.5666 30.4595L71.6906 15.0242L71.6906 15.0242L64.5666 30.4595ZM70.8454 33.9577L85.7747 42.0888C89.9613 34.4018 87.6267 24.7922 80.3798 19.883L70.8454 33.9577ZM77.3946 31.9829C75.523 30.1112 73.3247 28.6873 72.1196 27.9262L53.9638 56.6728C54.3234 56.8999 54.462 57.0006 54.4466 56.9894C54.4334 56.9798 54.3338 56.9068 54.1741 56.7751C54.0254 56.6524 53.7275 56.399 53.3531 56.0246L77.3946 31.9829ZM72.4716 28.1546C70.1839 26.6295 67.7518 25.4431 65.4194 24.4929L52.5913 55.98C53.0157 56.1529 53.3074 56.2904 53.4885 56.3829C53.6723 56.4769 53.6998 56.503 53.6118 56.4443L72.4716 28.1546ZM65.6292 24.58C63.2092 23.5561 60.6995 22.7319 58.1406 22.0715L49.6447 54.9929C50.7932 55.2893 51.6921 55.6012 52.3815 55.8929L65.6292 24.58ZM58.6324 22.2063C55.2521 21.2249 51.7732 20.7249 48.2417 20.7249L48.2417 54.7249C48.5373 54.7249 48.8257 54.7631 49.1529 54.8581L58.6324 22.2063ZM48.2417 20.7249C43.1924 20.7249 36.5027 21.5991 30.6468 25.8396L50.5882 53.3776C49.3385 54.2825 48.2938 54.6027 47.9016 54.6996C47.528 54.7919 47.5804 54.7249 48.2417 54.7249L48.2417 20.7249ZM30.4175 26.0086C24.0545 30.7808 21.106 37.8088 21.106 44.9007H55.106C55.106 45.8748 54.9178 47.4221 54.0921 49.1621C53.2443 50.9485 52.0234 52.3042 50.8175 53.2086L30.4175 26.0086ZM21.106 44.9007C21.106 50.4401 22.9854 56.6047 28.0479 61.386L51.3931 36.6675C52.6744 37.8776 53.6932 39.3832 54.3408 41.038C54.9661 42.636 55.106 44.0106 55.106 44.9007H21.106ZM28.0479 61.386C31.6252 64.7645 35.8175 66.632 39.1883 67.7556L49.9401 35.5003C49.5765 35.3792 49.5613 35.3441 49.7819 35.4626C49.9952 35.5771 50.62 35.9374 51.3931 36.6675L28.0479 61.386ZM39.1883 67.7556C41.8332 68.6372 44.9238 69.5224 48.3705 70.416L56.9032 37.5041C53.8918 36.7234 51.6006 36.0539 49.94 35.5003L39.1883 67.7556ZM48.6249 70.4799C51.9148 71.2789 54.3145 72.1621 56.0075 72.992L70.9729 42.4627C66.5665 40.3027 61.7307 38.6744 56.6488 37.4403L48.6249 70.4799ZM56.3662 73.1626C56.7996 73.3627 56.9351 73.4825 56.8927 73.4481C56.8715 73.431 56.8147 73.3823 56.7369 73.2981C56.6585 73.2132 56.5716 73.106 56.4858 72.979L84.6667 53.9569C81.0142 48.5458 76.0122 44.7834 70.6142 42.292L56.3662 73.1626ZM56.7668 73.3825C56.276 72.6989 56.0929 72.1488 56.0444 71.9687C56.0047 71.8213 56.0878 72.0485 56.0878 72.7964H90.0878C90.0878 66.5894 88.7553 59.6396 84.3858 53.5534L56.7668 73.3825ZM56.0878 72.7964C56.0878 74.1381 55.8431 74.2865 56.0734 73.8368L86.3349 89.3366C89.0767 83.9835 90.0878 78.2717 90.0878 72.7964H56.0878ZM56.1524 73.6845C56.1468 73.6951 56.1846 73.6237 56.2773 73.5198C56.3707 73.4152 56.4538 73.3515 56.4841 73.331L75.5193 101.503C80.0874 98.4165 83.7105 94.3372 86.2559 89.4889L56.1524 73.6845ZM56.4841 73.331C56.0262 73.6404 55.3411 73.9886 54.2617 74.2642L62.6727 107.207C67.2143 106.048 71.5522 104.183 75.5193 101.503L56.4841 73.331ZM54.5931 74.1831C53.1696 74.5163 51.4885 74.7225 49.4975 74.7225L49.4975 108.722C53.8451 108.722 58.1438 108.271 62.3412 107.288L54.5931 74.1831ZM49.4975 74.7225C47.5134 74.7225 45.5014 74.5175 43.4443 74.0905L36.5349 107.381C40.8164 108.27 45.143 108.722 49.4975 108.722L49.4975 74.7225ZM43.4443 74.0905C41.2673 73.6387 39.2131 73.011 37.2648 72.2158L24.4163 103.695C28.3282 105.291 32.3734 106.517 36.5349 107.381L43.4443 74.0905ZM37.5372 72.3297C35.6385 71.516 34.0028 70.5943 32.5847 69.5913L12.9509 97.3494C16.4363 99.8147 20.1824 101.883 24.1439 103.581L37.5372 72.3297ZM37.896 91.2251L43.3676 80.5512L13.1111 65.0416L7.63961 75.7155L37.896 91.2251ZM16.2185 84.8172C18.0909 86.6896 20.3234 88.2105 21.8231 89.1885L40.3962 60.7098C40.1637 60.5581 39.9778 60.4329 39.8332 60.3328C39.6872 60.2317 39.5996 60.1676 39.5605 60.1382C39.5422 60.1245 39.5412 60.1234 39.5553 60.1345C39.5692 60.1455 39.6038 60.1731 39.6557 60.2167C39.7072 60.26 39.7843 60.3261 39.8816 60.4144C39.9782 60.502 40.1073 60.6228 40.2602 60.7756L16.2185 84.8172ZM22.2705 89.4705C24.3872 90.7589 26.7017 91.9373 29.098 93.0266L43.1673 62.0741C41.617 61.3694 40.5828 60.8137 39.9487 60.4278L22.2705 89.4705ZM29.4933 93.2002C32.3394 94.4077 35.3102 95.3862 38.3685 96.1704L46.8132 63.2358C45.2072 62.824 43.8726 62.3674 42.772 61.9005L29.4933 93.2002ZM38.3685 96.1704C42.071 97.1197 45.8514 97.6 49.6769 97.6L49.6769 63.6C48.7186 63.6 47.7749 63.4824 46.8132 63.2358L38.3685 96.1704ZM49.6769 97.6C54.4844 97.6 60.892 96.8669 66.6176 93.1156L47.9847 64.676C49.2045 63.8768 50.1507 63.636 50.386 63.5834C50.6207 63.5309 50.4384 63.6 49.6769 63.6L49.6769 97.6ZM66.6176 93.1156C73.2015 88.802 76.9023 81.8112 76.9023 74.0522H42.9023C42.9023 72.6944 43.2023 70.7873 44.2751 68.7896C45.3515 66.7853 46.7949 65.4555 47.9847 64.676L66.6176 93.1156ZM76.9023 74.0522C76.9023 67.4839 74.2405 60.8159 68.3165 56.1797L47.3621 82.9549C46.0517 81.9294 44.7993 80.4634 43.9422 78.6002C43.1073 76.785 42.9023 75.1511 42.9023 74.0522H76.9023ZM68.3165 56.1797C64.7783 53.4107 60.793 51.7094 57.2369 50.5818L46.9606 82.9916C47.255 83.085 47.4838 83.1672 47.6541 83.2337C47.8248 83.3004 47.9238 83.3462 47.9619 83.3646C48.0003 83.3832 47.9622 83.367 47.8636 83.3069C47.7652 83.247 47.5901 83.1334 47.3621 82.9549L68.3165 56.1797ZM57.5922 50.6988C54.7942 49.7434 51.6064 48.7608 48.0684 47.7499L38.7278 80.4417C41.8872 81.3444 44.4998 82.1557 46.6053 82.8747L57.5922 50.6988ZM48.0361 47.7407C44.73 46.8032 42.4972 45.911 41.0889 45.1912L25.6152 75.4659C29.5887 77.4969 34.0533 79.1161 38.7601 80.4509L48.0361 47.7407ZM41.3521 45.3286C41.0523 45.1687 41.0331 45.1178 41.1725 45.2426C41.3241 45.3783 41.5867 45.6543 41.8482 46.0821L12.8366 63.8114C16.035 69.0452 20.5432 72.7638 25.3521 75.3285L41.3521 45.3286ZM41.8482 46.0821C42.1896 46.6408 42.3292 47.0853 42.3762 47.2773C42.4183 47.4497 42.369 47.3468 42.369 46.874H8.36904C8.36904 52.3683 9.49199 58.3384 12.8366 63.8114L41.8482 46.0821ZM42.369 46.874C42.369 46.004 42.4707 45.5598 42.5074 45.4281C42.5369 45.3224 42.5187 45.4308 42.3857 45.6224L14.4517 26.2396C10.0387 32.5995 8.36904 39.8307 8.36904 46.874H42.369ZM42.3457 45.6799C42.5158 45.4367 42.7383 45.172 43.4828 44.8565L30.2177 13.551C23.906 16.2254 18.5075 20.4455 14.4918 26.1821L42.3457 45.6799ZM43.7056 44.7602C44.8343 44.2628 46.3793 43.8716 48.6005 43.8716L48.6005 9.87161C42.2109 9.87161 35.9224 11.0351 29.9948 13.6473L43.7056 44.7602ZM48.6005 43.8716C50.3408 43.8716 51.7559 44.0624 52.9089 44.3507L61.1551 11.3659C57.0459 10.3386 52.8401 9.87161 48.6005 9.87161L48.6005 43.8716ZM52.9953 44.3721C54.7071 44.7905 56.1765 45.3105 57.4426 45.8948L71.6906 15.0242C68.2924 13.4558 64.7388 12.2416 61.0687 11.3445L52.9953 44.3721ZM57.4426 45.8948C59.0551 46.6391 60.3242 47.3638 61.3109 48.0323L80.3798 19.883C77.6591 18.04 74.7422 16.4327 71.6906 15.0242L57.4426 45.8948ZM55.916 25.8265L50.4445 35.8726L80.3032 52.1349L85.7747 42.0888L55.916 25.8265ZM126.662 80.1516H143.662C143.662 70.7627 136.051 63.1516 126.662 63.1516L126.662 80.1516ZM126.662 91.0049L126.662 108.005C136.051 108.005 143.662 100.394 143.662 91.0049H126.662ZM82.4415 91.0049H65.4415C65.4415 100.394 73.0526 108.005 82.4415 108.005L82.4415 91.0049ZM82.4415 27.3201L82.4415 10.3201C73.0526 10.3201 65.4415 17.9313 65.4415 27.3201L82.4415 27.3201ZM125.855 27.3201H142.855C142.855 17.9313 135.244 10.3201 125.855 10.3201L125.855 27.3201ZM125.855 38.1734L125.855 55.1734C135.244 55.1734 142.855 47.5623 142.855 38.1734L125.855 38.1734ZM94.8196 38.1734L94.8196 21.1734C85.4308 21.1734 77.8196 28.7846 77.8196 38.1734L94.8196 38.1734ZM94.8196 53.5116H77.8196C77.8196 62.9004 85.4308 70.5116 94.8196 70.5116L94.8196 53.5116ZM121.639 53.5116H138.639C138.639 44.1227 131.028 36.5116 121.639 36.5116L121.639 53.5116ZM121.639 63.5576L121.639 80.5576C131.028 80.5576 138.639 72.9465 138.639 63.5576H121.639ZM94.8196 63.5576L94.8196 46.5576C85.4308 46.5576 77.8196 54.1688 77.8196 63.5576H94.8196ZM94.8196 80.1516H77.8196C77.8196 89.5404 85.4308 97.1516 94.8196 97.1516L94.8196 80.1516ZM109.662 80.1516L109.662 91.0049H143.662L143.662 80.1516H109.662ZM126.662 74.0049H82.4415L82.4415 108.005H126.662L126.662 74.0049ZM99.4415 91.0049L99.4415 27.3201H65.4415L65.4415 91.0049H99.4415ZM82.4415 44.3201H125.855L125.855 10.3201H82.4415L82.4415 44.3201ZM108.855 27.3201L108.855 38.1734H142.855L142.855 27.3201H108.855ZM125.855 21.1734H94.8196L94.8196 55.1734H125.855L125.855 21.1734ZM77.8196 38.1734L77.8196 53.5116H111.82L111.82 38.1734H77.8196ZM94.8196 70.5116H121.639L121.639 36.5116H94.8196L94.8196 70.5116ZM104.639 53.5116L104.639 63.5576H138.639L138.639 53.5116H104.639ZM121.639 46.5576H94.8196L94.8196 80.5576H121.639L121.639 46.5576ZM77.8196 63.5576L77.8196 80.1516H111.82L111.82 63.5576H77.8196ZM94.8196 97.1516H126.662L126.662 63.1516H94.8196L94.8196 97.1516ZM180.533 80.1516H197.533C197.533 70.7627 189.922 63.1516 180.533 63.1516L180.533 80.1516ZM180.533 91.0049L180.533 108.005C189.922 108.005 197.533 100.394 197.533 91.0049H180.533ZM136.312 91.0049H119.312C119.312 100.394 126.923 108.005 136.312 108.005L136.312 91.0049ZM136.312 27.3201L136.312 10.3201C126.923 10.3201 119.312 17.9313 119.312 27.3201L136.312 27.3201ZM179.725 27.3201H196.725C196.725 17.9313 189.114 10.3201 179.725 10.3201L179.725 27.3201ZM179.725 38.1734L179.725 55.1734C189.114 55.1734 196.725 47.5623 196.725 38.1734L179.725 38.1734ZM148.69 38.1734L148.69 21.1734C139.301 21.1734 131.69 28.7846 131.69 38.1734L148.69 38.1734ZM148.69 53.5116H131.69C131.69 62.9004 139.301 70.5116 148.69 70.5116L148.69 53.5116ZM175.51 53.5116H192.51C192.51 44.1227 184.899 36.5116 175.51 36.5116L175.51 53.5116ZM175.51 63.5576L175.51 80.5576C184.899 80.5576 192.51 72.9465 192.51 63.5576H175.51ZM148.69 63.5576L148.69 46.5576C139.301 46.5576 131.69 54.1688 131.69 63.5576H148.69ZM148.69 80.1516H131.69C131.69 89.5404 139.301 97.1516 148.69 97.1516L148.69 80.1516ZM163.533 80.1516L163.533 91.0049H197.533L197.533 80.1516H163.533ZM180.533 74.0049H136.312L136.312 108.005H180.533L180.533 74.0049ZM153.312 91.0049L153.312 27.3201H119.312L119.312 91.0049H153.312ZM136.312 44.3201H179.725L179.725 10.3201H136.312L136.312 44.3201ZM162.725 27.3201L162.725 38.1734H196.725L196.725 27.3201H162.725ZM179.725 21.1734H148.69L148.69 55.1734H179.725L179.725 21.1734ZM131.69 38.1734L131.69 53.5116H165.69L165.69 38.1734H131.69ZM148.69 70.5116H175.51L175.51 36.5116H148.69L148.69 70.5116ZM158.51 53.5116L158.51 63.5576H192.51L192.51 53.5116H158.51ZM175.51 46.5576H148.69L148.69 80.5576H175.51L175.51 46.5576ZM131.69 63.5576L131.69 80.1516H165.69L165.69 63.5576H131.69ZM148.69 97.1516H180.533L180.533 63.1516H148.69L148.69 97.1516ZM190.183 91.0049H173.183C173.183 100.394 180.794 108.005 190.183 108.005L190.183 91.0049ZM190.183 27.3201L190.183 10.3201C180.794 10.3201 173.183 17.9313 173.183 27.3201L190.183 27.3201ZM230.726 31.6255L221.816 46.1037C221.861 46.1315 221.907 46.1591 221.952 46.1864L230.726 31.6255ZM241.22 43.1067L225.903 50.4816C225.915 50.5065 225.927 50.5314 225.939 50.5562L241.22 43.1067ZM240.862 75.9358L255.836 83.9843L255.836 83.9843L240.862 75.9358ZM229.919 87.0582L221.647 72.2064C221.62 72.2214 221.593 72.2365 221.566 72.2516L229.919 87.0582ZM230.008 48.2195L214.633 55.472C214.651 55.5099 214.669 55.5477 214.687 55.5855L230.008 48.2195ZM223.55 40.8643L214.403 55.194C214.476 55.2405 214.55 55.2865 214.623 55.3319L223.55 40.8643ZM202.561 38.1734L202.561 21.1734C193.172 21.1734 185.561 28.7846 185.561 38.1734L202.561 38.1734ZM202.561 80.1516H185.561C185.561 89.5404 193.172 97.1516 202.561 97.1516L202.561 80.1516ZM223.64 77.4607L232.786 91.7903C232.858 91.7447 232.929 91.6985 233 91.6518L223.64 77.4607ZM230.008 69.9261L214.581 62.784C214.561 62.8271 214.542 62.8702 214.522 62.9135L230.008 69.9261ZM207.183 91.0049L207.183 27.3201H173.183L173.183 91.0049H207.183ZM190.183 44.3201H213.325L213.325 10.3201H190.183L190.183 44.3201ZM213.325 44.3201C217.945 44.3201 220.46 45.2689 221.816 46.1037L239.635 17.1474C231.664 12.2416 222.577 10.3201 213.325 10.3201L213.325 44.3201ZM221.952 46.1864C223.821 47.3129 225.026 48.6598 225.903 50.4816L256.537 35.7319C252.75 27.8664 246.959 21.5592 239.5 17.0647L221.952 46.1864ZM225.939 50.5562C227.03 52.793 227.719 55.5295 227.719 59.0728H261.719C261.719 50.8957 260.075 42.9882 256.501 35.6573L225.939 50.5562ZM227.719 59.0728C227.719 63.252 226.899 66.006 225.888 67.8873L255.836 83.9843C259.967 76.298 261.719 67.8099 261.719 59.0728H227.719ZM225.888 67.8873C224.847 69.8229 223.519 71.1635 221.647 72.2064L238.19 101.91C245.766 97.6908 251.733 91.6164 255.836 83.9843L225.888 67.8873ZM221.566 72.2516C219.905 73.1884 217.367 74.0049 213.325 74.0049L213.325 108.005C222.079 108.005 230.603 106.19 238.271 101.865L221.566 72.2516ZM213.325 74.0049H190.183L190.183 108.005H213.325L213.325 74.0049ZM249.251 59.0728C249.251 52.8902 248.125 46.6682 245.33 40.8535L214.687 55.5855C214.881 55.9897 215.251 57.0033 215.251 59.0728H249.251ZM245.384 40.967C242.574 35.0097 238.265 29.968 232.477 26.3967L214.623 55.3319C214.625 55.3331 214.606 55.3211 214.575 55.2948C214.543 55.2685 214.517 55.2415 214.498 55.2203C214.48 55.1995 214.483 55.1993 214.503 55.2312C214.524 55.2639 214.571 55.3397 214.633 55.472L245.384 40.967ZM232.697 26.5347C226.647 22.6729 219.912 21.1734 213.325 21.1734L213.325 55.1734C214.063 55.1734 214.444 55.2561 214.559 55.2864C214.655 55.3115 214.569 55.2994 214.403 55.194L232.697 26.5347ZM213.325 21.1734H202.561L202.561 55.1734H213.325L213.325 21.1734ZM185.561 38.1734L185.561 80.1516H219.561L219.561 38.1734H185.561ZM202.561 97.1516H213.325L213.325 63.1516H202.561L202.561 97.1516ZM213.325 97.1516C219.917 97.1516 226.698 95.6767 232.786 91.7903L214.493 63.131C214.681 63.0109 214.775 62.9998 214.662 63.0293C214.528 63.0642 214.114 63.1516 213.325 63.1516L213.325 97.1516ZM233 91.6518C238.582 87.9703 242.782 82.9284 245.494 76.9387L214.522 62.9135C214.466 63.0383 214.421 63.1154 214.396 63.1561C214.37 63.1962 214.357 63.212 214.356 63.2126C214.356 63.213 214.357 63.2126 214.353 63.2156C214.35 63.2187 214.328 63.2374 214.28 63.2695L233 91.6518ZM245.435 77.0682C248.09 71.3341 249.251 65.2341 249.251 59.0728H215.251C215.251 60.9244 214.917 62.0599 214.581 62.784L245.435 77.0682ZM254.39 91.0049H237.39C237.39 100.394 245.001 108.005 254.39 108.005L254.39 91.0049ZM254.39 27.3201L254.39 10.3201C245.001 10.3201 237.39 17.9313 237.39 27.3201L254.39 27.3201ZM266.768 27.3201H283.768C283.768 17.9313 276.157 10.3201 266.768 10.3201L266.768 27.3201ZM266.768 80.1516H249.768C249.768 89.5404 257.379 97.1516 266.768 97.1516L266.768 80.1516ZM299.238 80.1516H316.238C316.238 70.7627 308.627 63.1516 299.238 63.1516L299.238 80.1516ZM299.238 91.0049L299.238 108.005C308.627 108.005 316.238 100.394 316.238 91.0049H299.238ZM271.39 91.0049L271.39 27.3201H237.39L237.39 91.0049H271.39ZM254.39 44.3201H266.768L266.768 10.3201H254.39L254.39 44.3201ZM249.768 27.3201L249.768 80.1516H283.768L283.768 27.3201H249.768ZM266.768 97.1516H299.238L299.238 63.1516H266.768L266.768 97.1516ZM282.238 80.1516L282.238 91.0049H316.238L316.238 80.1516H282.238ZM299.238 74.0049H254.39L254.39 108.005H299.238L299.238 74.0049ZM306.771 91.0049H289.771C289.771 100.394 297.382 108.005 306.771 108.005L306.771 91.0049ZM306.771 27.3201L306.771 10.3201C297.382 10.3201 289.771 17.9313 289.771 27.3201L306.771 27.3201ZM319.149 27.3201H336.149C336.149 17.9313 328.538 10.3201 319.149 10.3201L319.149 27.3201ZM319.149 91.0049L319.149 108.005C328.538 108.005 336.149 100.394 336.149 91.0049H319.149ZM323.771 91.0049L323.771 27.3201H289.771L289.771 91.0049H323.771ZM306.771 44.3201H319.149L319.149 10.3201H306.771L306.771 44.3201ZM302.149 27.3201L302.149 91.0049H336.149L336.149 27.3201H302.149ZM319.149 74.0049H306.771L306.771 108.005H319.149L319.149 74.0049ZM344.815 50.1031L358.129 39.5332C353.633 33.8695 346.046 31.6701 339.218 34.0509C332.389 36.4317 327.815 42.8717 327.815 50.1031H344.815ZM344.815 91.0049L344.815 108.005C354.203 108.005 361.815 100.394 361.815 91.0049H344.815ZM332.436 91.0049H315.436C315.436 100.394 323.048 108.005 332.436 108.005L332.436 91.0049ZM332.436 27.3201L332.436 10.3201C323.048 10.3201 315.436 17.9313 315.436 27.3201L332.436 27.3201ZM342.303 27.3201L355.68 16.8298C352.458 12.7203 347.525 10.3201 342.303 10.3201L342.303 27.3201ZM375.222 69.2982L361.845 79.7886C366.318 85.4936 373.918 87.7336 380.771 85.3671C387.624 83.0005 392.222 76.5483 392.222 69.2982H375.222ZM375.222 27.4098L375.222 10.4098C365.833 10.4098 358.222 18.021 358.222 27.4098L375.222 27.4098ZM387.6 27.4098H404.6C404.6 18.021 396.989 10.4098 387.6 10.4098L387.6 27.4098ZM387.6 91.0049L387.6 108.005C396.989 108.005 404.6 100.394 404.6 91.0049H387.6ZM377.285 91.0049L363.97 101.575C367.195 105.637 372.098 108.005 377.285 108.005L377.285 91.0049ZM327.815 50.1031L327.815 91.0049H361.815L361.815 50.1031H327.815ZM344.815 74.0049H332.436L332.436 108.005H344.815L344.815 74.0049ZM349.436 91.0049L349.436 27.3201H315.436L315.436 91.0049H349.436ZM332.436 44.3201H342.303L342.303 10.3201H332.436L332.436 44.3201ZM328.926 37.8104L361.845 79.7886L388.599 58.8079L355.68 16.8298L328.926 37.8104ZM392.222 69.2982L392.222 27.4098H358.222L358.222 69.2982H392.222ZM375.222 44.4098H387.6L387.6 10.4098H375.222L375.222 44.4098ZM370.6 27.4098L370.6 91.0049H404.6L404.6 27.4098H370.6ZM387.6 74.0049H377.285L377.285 108.005H387.6L387.6 74.0049ZM390.599 80.435L358.129 39.5332L331.5 60.673L363.97 101.575L390.599 80.435ZM415.558 88.9419L408.466 104.392C408.498 104.406 408.53 104.421 408.561 104.435L415.558 88.9419ZM405.871 82.0352L393.36 93.5452C393.44 93.6319 393.521 93.7179 393.602 93.803L405.871 82.0352ZM399.413 71.6304L383.596 77.8613L383.596 77.8613L399.413 71.6304ZM399.413 46.5152L415.163 52.9136C415.174 52.8854 415.186 52.8572 415.197 52.8289L399.413 46.5152ZM405.961 36.2898L418.229 48.0576L418.229 48.0576L405.961 36.2898ZM415.827 29.3831L408.923 13.8483L415.827 29.3831ZM443.454 30.7286L434.647 45.2697C434.727 45.3181 434.807 45.3658 434.888 45.4128L443.454 30.7286ZM453.141 40.7746L463.235 54.4539C469.945 49.5028 472.073 40.4155 468.259 32.9997L453.141 40.7746ZM443.902 47.5916L428.755 55.3083C431.022 59.7594 435.133 62.9878 439.994 64.1363C444.856 65.2847 449.976 64.2367 453.996 61.2709L443.902 47.5916ZM437.085 40.3261L428.52 55.0104C428.563 55.0359 428.607 55.0612 428.651 55.0863L437.085 40.3261ZM420.312 39.5189L428.078 54.6415L428.078 54.6415L420.312 39.5189ZM414.571 44.1831L427.729 54.9482L427.729 54.9482L414.571 44.1831ZM410.804 51.0001L394.753 45.4007C394.714 45.5125 394.676 45.6246 394.639 45.7371L410.804 51.0001ZM410.894 67.594L394.843 73.1933C394.881 73.3034 394.92 73.4132 394.961 73.5225L410.894 67.594ZM414.841 74.3213L402.047 85.5158C402.112 85.5902 402.177 85.6639 402.244 85.7371L414.841 74.3213ZM420.85 78.8958L413.248 94.1011C413.355 94.155 413.464 94.2077 413.573 94.2593L420.85 78.8958ZM437.624 77.9988L429.317 63.1662C429.275 63.1902 429.232 63.2144 429.189 63.2387L437.624 77.9988ZM445.965 70.6437H462.965C462.965 63.4169 458.396 56.98 451.574 54.5957C444.752 52.2113 437.168 54.4006 432.667 60.0539L445.965 70.6437ZM445.965 82.8425L458.432 94.4002C461.346 91.2569 462.965 87.1288 462.965 82.8425H445.965ZM445.068 67.3249H462.068C462.068 57.9361 454.457 50.3249 445.068 50.3249L445.068 67.3249ZM432.242 67.3249H415.242C415.242 76.7137 422.853 84.3249 432.242 84.3249L432.242 67.3249ZM432.242 58.2655L432.242 41.2655C422.853 41.2655 415.242 48.8767 415.242 58.2655L432.242 58.2655ZM455.294 58.2655H472.294C472.294 48.8767 464.683 41.2655 455.294 41.2655L455.294 58.2655ZM455.294 91.0049L455.294 108.005C464.683 108.005 472.294 100.394 472.294 91.0049H455.294ZM445.068 91.0049H428.068C428.068 100.394 435.68 108.005 445.068 108.005L445.068 91.0049ZM427.308 74.4534C425.56 74.4534 424.032 74.1153 422.555 73.4486L408.561 104.435C414.5 107.117 420.805 108.453 427.308 108.453L427.308 74.4534ZM422.65 73.4918C420.967 72.7192 419.489 71.674 418.139 70.2674L393.602 93.803C397.874 98.2566 402.854 101.816 408.466 104.392L422.65 73.4918ZM418.382 70.5252C417.111 69.1439 416.051 67.485 415.23 65.3994L383.596 77.8613C385.884 83.6691 389.13 88.9467 393.36 93.5452L418.382 70.5252ZM415.23 65.3994C414.521 63.6008 414.081 61.4586 414.081 58.8037H380.081C380.081 65.3577 381.195 71.7666 383.596 77.8613L415.23 65.3994ZM414.081 58.8037C414.081 56.5057 414.48 54.5948 415.163 52.9136L383.663 40.1168C381.236 46.0898 380.081 52.3712 380.081 58.8037H414.081ZM415.197 52.8289C415.967 50.9047 416.977 49.363 418.229 48.0576L393.692 24.522C389.323 29.0767 385.968 34.3521 383.629 40.2016L415.197 52.8289ZM418.229 48.0576C419.489 46.7442 420.948 45.7106 422.732 44.9179L408.923 13.8483C403.172 16.4043 398.053 19.9752 393.692 24.522L418.229 48.0576ZM422.732 44.9179C424.169 44.279 425.892 43.8716 428.116 43.8716L428.116 9.87161C421.489 9.87161 415.02 11.1385 408.923 13.8483L422.732 44.9179ZM428.116 43.8716C431.629 43.8716 433.555 44.6082 434.647 45.2697L452.26 16.1875C444.861 11.7063 436.562 9.87161 428.116 9.87161L428.116 43.8716ZM434.888 45.4128C436.569 46.3932 437.441 47.4168 438.023 48.5495L468.259 32.9997C464.536 25.7608 458.95 20.087 452.02 16.0443L434.888 45.4128ZM443.048 27.0954L433.809 33.9123L453.996 61.2709L463.235 54.4539L443.048 27.0954ZM459.05 39.8748C456.017 33.9214 451.485 28.9748 445.52 25.566L428.651 55.0863C428.67 55.0971 428.664 55.0952 428.643 55.0788C428.622 55.0622 428.603 55.0442 428.59 55.0304C428.577 55.0169 428.585 55.0225 428.61 55.0585C428.635 55.0953 428.686 55.1741 428.755 55.3083L459.05 39.8748ZM445.651 25.6419C440.112 22.4106 434.004 20.8146 427.667 20.8146L427.667 54.8146C428.147 54.8146 428.318 54.893 428.52 55.0104L445.651 25.6419ZM427.667 20.8146C422.502 20.8146 417.355 21.927 412.546 24.3962L428.078 54.6415C427.924 54.7205 427.769 54.7738 427.648 54.8019C427.532 54.8288 427.525 54.8146 427.667 54.8146L427.667 20.8146ZM412.546 24.3962C408.204 26.6263 404.469 29.6839 401.414 33.4181L427.729 54.9482C427.903 54.7357 427.996 54.6837 428.078 54.6415L412.546 24.3962ZM401.414 33.4181C398.457 37.0328 396.26 41.0801 394.753 45.4007L426.856 56.5994C427.142 55.7774 427.457 55.2801 427.729 54.9482L401.414 33.4181ZM394.639 45.7371C393.216 50.1096 392.548 54.615 392.548 59.1625H426.548C426.548 57.9693 426.718 57.0332 426.969 56.263L394.639 45.7371ZM392.548 59.1625C392.548 63.8922 393.247 68.6199 394.843 73.1933L426.945 61.9947C426.747 61.4255 426.548 60.5322 426.548 59.1625H392.548ZM394.961 73.5225C396.579 77.8715 398.912 81.9331 402.047 85.5158L427.634 63.1267C427.421 62.8823 427.122 62.4591 426.827 61.6655L394.961 73.5225ZM402.244 85.7371C405.369 89.1861 409.059 92.0065 413.248 94.1011L428.453 63.6905C428.097 63.5128 427.78 63.2835 427.437 62.9054L402.244 85.7371ZM413.573 94.2593C418.327 96.5114 423.357 97.5103 428.385 97.5103L428.385 63.5103C428.123 63.5103 428.006 63.4853 428 63.4841C427.995 63.483 428.009 63.4857 428.036 63.4948C428.063 63.504 428.095 63.5166 428.128 63.5323L413.573 94.2593ZM428.385 97.5103C434.708 97.5103 440.68 95.8322 446.058 92.759L429.189 63.2387C428.707 63.5141 428.52 63.5103 428.385 63.5103L428.385 97.5103ZM445.93 92.8314C451.193 89.8838 455.594 85.8427 459.264 81.2334L432.667 60.0539C431.194 61.9029 430.034 62.7652 429.317 63.1662L445.93 92.8314ZM428.965 70.6437L428.965 82.8425H462.965L462.965 70.6437H428.965ZM433.499 71.2848C431.036 73.9415 429.19 74.4534 427.308 74.4534L427.308 108.453C439.658 108.453 450.251 103.225 458.432 94.4002L433.499 71.2848ZM445.068 50.3249H432.242L432.242 84.3249H445.068L445.068 50.3249ZM449.242 67.3249L449.242 58.2655H415.242L415.242 67.3249H449.242ZM432.242 75.2655H455.294L455.294 41.2655H432.242L432.242 75.2655ZM438.294 58.2655L438.294 91.0049H472.294L472.294 58.2655H438.294ZM455.294 74.0049H445.068L445.068 108.005H455.294L455.294 74.0049ZM462.068 91.0049L462.068 67.3249H428.068L428.068 91.0049H462.068Z" fill="#139D3D"/>
</svg>
