<svg width="451" height="279" viewBox="0 0 451 279" fill="none" xmlns="http://www.w3.org/2000/svg">
<path d="M146.245 97.6459C146.015 97.362 145.298 96.9888 144.094 96.5261C142.882 96.0015 141.386 95.4852 139.606 94.9772C137.827 94.4693 135.906 94.0762 133.842 93.7981C131.779 93.5199 129.755 93.5209 127.771 93.8008C125.166 94.1683 123.216 94.9178 121.921 96.0493C120.617 97.1188 120.097 98.5837 120.359 100.444C120.569 101.933 121.263 103.036 122.439 103.756C123.678 104.467 125.369 105.019 127.512 105.412C129.646 105.744 132.262 106.133 135.361 106.582C139.736 107.103 143.587 107.951 146.916 109.126C150.235 110.239 152.876 111.922 154.838 114.175C156.863 116.419 158.164 119.588 158.741 123.681C159.266 127.402 159.03 130.661 158.033 133.458C157.028 136.193 155.461 138.533 153.331 140.478C151.256 142.352 148.782 143.871 145.91 145.036C143.03 146.138 140.008 146.912 136.845 147.358C133.62 147.813 130.259 147.971 126.761 147.832C123.315 147.623 119.959 147.147 116.692 146.406C113.417 145.604 110.354 144.518 107.504 143.149L112.325 128.902C112.617 129.177 113.506 129.652 114.993 130.328C116.471 130.941 118.268 131.573 120.384 132.224C122.553 132.803 124.926 133.259 127.503 133.591C130.08 133.923 132.639 133.91 135.182 133.551C137.911 133.166 139.865 132.448 141.045 131.396C142.286 130.335 142.798 129.03 142.579 127.479C142.343 125.805 141.446 124.603 139.889 123.874C138.393 123.136 136.383 122.566 133.86 122.163C131.398 121.751 128.551 121.299 125.319 120.807C121.113 120.135 117.568 119.212 114.682 118.038C111.859 116.855 109.639 115.239 108.021 113.19C106.466 111.133 105.452 108.43 104.98 105.081C104.323 100.43 104.857 96.3696 106.582 92.9006C108.359 89.3608 110.995 86.5222 114.488 84.3848C117.973 82.1854 121.917 80.7751 126.32 80.1539C129.421 79.7164 132.45 79.6685 135.408 80.0102C138.427 80.3432 141.256 80.8928 143.894 81.6591C146.594 82.4166 149.015 83.2135 151.157 84.0498L146.245 97.6459ZM214.965 121.915L216.855 135.311L170.436 141.86L161.118 75.8135L206.699 69.3825L208.589 82.7778L178.264 87.0564L180.075 99.8935L206.121 96.2186L207.867 108.591L181.82 112.266L183.802 126.312L214.965 121.915ZM270.651 114.059L272.541 127.454L226.123 134.003L216.804 67.9567L262.386 61.5257L264.276 74.921L233.95 79.1996L235.761 92.0367L261.808 88.3619L263.553 100.734L237.507 104.409L239.489 118.455L270.651 114.059ZM281.809 126.146L272.491 60.0999L297.142 56.6219C304.398 55.5982 310.654 56.2335 315.912 58.5277C321.222 60.7512 325.472 64.1996 328.661 68.8728C331.842 73.4841 333.861 78.8284 334.718 84.9059C335.663 91.6036 335.121 97.6255 333.093 102.972C331.064 108.318 327.762 112.705 323.185 116.134C318.671 119.554 313.096 121.732 306.46 122.668L281.809 126.146ZM319.183 87.0977C318.641 83.2528 317.482 79.9692 315.706 77.247C313.922 74.4627 311.614 72.4481 308.782 71.2032C305.941 69.8963 302.691 69.501 299.032 70.0172L289.637 71.3428L295.175 110.598L304.571 109.273C308.291 108.748 311.305 107.469 313.612 105.436C315.971 103.332 317.623 100.695 318.568 97.5259C319.503 94.2947 319.708 90.8186 319.183 87.0977ZM130.909 224.189L121.59 158.143L136.846 155.991L144.275 208.642L176.275 204.127L178.164 217.522L130.909 224.189ZM185.324 216.512L176.005 150.466L191.261 148.313L200.579 214.36L185.324 216.512ZM223.139 172.657L228.468 210.425L213.212 212.577L203.894 146.531L215.987 144.825L252.077 179.39L246.591 140.507L261.847 138.354L271.166 204.401L258.7 206.159L223.139 172.657ZM311.863 199.133C307.521 199.746 303.315 199.517 299.242 198.447C295.161 197.315 291.453 195.466 288.118 192.901C284.775 190.273 281.977 187.031 279.725 183.174C277.527 179.247 276.069 174.74 275.351 169.655C274.704 165.066 274.937 160.669 276.052 156.464C277.166 152.258 278.997 148.426 281.545 144.968C284.093 141.509 287.234 138.662 290.966 136.428C294.752 134.123 298.971 132.642 303.622 131.986C309.7 131.128 315.248 131.674 320.266 133.622C325.285 135.571 329.221 138.589 332.075 142.677L321.934 152.836C320.034 150.132 317.54 148.143 314.451 146.871C311.424 145.591 308.267 145.182 304.98 145.646C302.5 145.996 300.279 146.847 298.32 148.199C296.413 149.48 294.816 151.16 293.528 153.239C292.293 155.247 291.444 157.518 290.979 160.05C290.514 162.582 290.478 165.244 290.872 168.035C291.274 170.887 292.08 173.462 293.29 175.758C294.499 178.054 296.006 179.992 297.81 181.572C299.605 183.089 301.627 184.195 303.876 184.89C306.186 185.576 308.644 185.735 311.249 185.368C314.411 184.922 317.31 183.722 319.944 181.769C322.631 179.746 324.965 177.013 326.946 173.571L329.072 188.641C324.545 194.656 318.808 198.153 311.863 199.133ZM325.885 172.772L313.048 174.583L311.486 163.513L336.974 159.917L341.843 194.429L329.192 196.214L325.885 172.772Z" fill="#139D3D"/>
<path d="M146.245 97.6459L122.27 117.056C129.274 125.707 140.394 129.914 151.37 128.064C162.346 126.215 171.474 118.597 175.256 108.129L146.245 97.6459ZM144.094 96.5261L131.844 124.837C132.235 125.006 132.63 125.167 133.028 125.32L144.094 96.5261ZM139.606 94.9772L148.074 65.3147L148.074 65.3147L139.606 94.9772ZM121.921 96.0493L141.484 119.9C141.732 119.697 141.976 119.49 142.217 119.28L121.921 96.0493ZM122.439 103.756L106.348 130.074C106.593 130.224 106.84 130.37 107.088 130.512L122.439 103.756ZM127.512 105.412L121.941 135.752C122.219 135.803 122.498 135.851 122.778 135.894L127.512 105.412ZM135.361 106.582L130.946 137.111C131.201 137.148 131.456 137.182 131.711 137.212L135.361 106.582ZM146.916 109.126L136.647 138.214C136.801 138.268 136.955 138.321 137.11 138.373L146.916 109.126ZM154.838 114.175L131.577 134.435C131.694 134.57 131.813 134.703 131.933 134.836L154.838 114.175ZM158.033 133.458L186.986 144.103C187.021 144.007 187.056 143.91 187.091 143.814L158.033 133.458ZM153.331 140.478L174.003 163.374C174.048 163.334 174.092 163.294 174.136 163.253L153.331 140.478ZM145.91 145.036L156.934 173.846C157.123 173.773 157.311 173.699 157.499 173.623L145.91 145.036ZM126.761 147.832L124.886 178.623C125.103 178.636 125.32 178.647 125.537 178.655L126.761 147.832ZM116.692 146.406L109.35 176.367C109.523 176.41 109.697 176.451 109.871 176.49L116.692 146.406ZM107.504 143.149L78.2844 133.262C73.2876 148.029 80.0944 164.203 94.1469 170.954L107.504 143.149ZM112.325 128.902L133.485 106.455C125.841 99.2498 115.056 96.4294 104.863 98.9703C94.671 101.511 86.4721 109.064 83.1053 119.014L112.325 128.902ZM114.993 130.328L102.23 158.411C102.539 158.551 102.851 158.687 103.164 158.817L114.993 130.328ZM120.384 132.224L111.322 161.71C111.686 161.822 112.053 161.927 112.422 162.026L120.384 132.224ZM127.503 133.591L131.447 102.997L131.447 102.997L127.503 133.591ZM141.045 131.396L121.01 107.94C120.844 108.082 120.679 108.226 120.516 108.372L141.045 131.396ZM139.889 123.874L126.242 151.539C126.431 151.632 126.622 151.724 126.813 151.813L139.889 123.874ZM133.86 122.163L128.771 152.588C128.846 152.6 128.921 152.613 128.996 152.625L133.86 122.163ZM125.319 120.807L120.456 151.268C120.527 151.279 120.599 151.291 120.67 151.301L125.319 120.807ZM114.682 118.038L102.762 146.489C102.86 146.53 102.958 146.57 103.055 146.61L114.682 118.038ZM108.021 113.19L83.4132 131.791C83.5432 131.964 83.6751 132.134 83.8087 132.304L108.021 113.19ZM106.582 92.9006L79.0149 79.0574C78.9961 79.095 78.9773 79.1326 78.9585 79.1703L106.582 92.9006ZM114.488 84.3848L130.587 110.698C130.71 110.623 130.831 110.547 130.953 110.471L114.488 84.3848ZM135.408 80.0102L131.867 110.654C131.92 110.66 131.974 110.666 132.027 110.672L135.408 80.0102ZM143.894 81.6591L135.29 111.282C135.38 111.308 135.471 111.334 135.562 111.36L143.894 81.6591ZM151.157 84.0498L180.169 94.5326C185.854 78.798 177.961 61.3995 162.376 55.3149L151.157 84.0498ZM170.219 78.2353C165.762 72.7301 160.427 70.129 159.782 69.7928C157.971 68.8498 156.292 68.1669 155.161 67.7322L133.028 125.32C133.002 125.31 132.847 125.25 132.595 125.141C132.36 125.038 131.896 124.83 131.288 124.513C130.732 124.224 129.673 123.647 128.391 122.757C127.324 122.016 124.791 120.171 122.27 117.056L170.219 78.2353ZM156.345 68.2156C153.524 66.9952 150.675 66.0572 148.074 65.3147L131.139 124.64C131.579 124.765 131.858 124.856 131.999 124.905C132.147 124.956 132.079 124.938 131.844 124.837L156.345 68.2156ZM148.074 65.3147C144.706 64.3534 141.317 63.6793 137.964 63.2273L129.721 124.369C130.494 124.473 130.948 124.585 131.139 124.64L148.074 65.3147ZM137.964 63.2273C133.211 62.5866 128.349 62.5665 123.461 63.256L132.08 124.346C131.162 124.475 130.347 124.453 129.721 124.369L137.964 63.2273ZM123.461 63.256C117.846 64.0482 109.225 66.1802 101.626 72.8188L142.217 119.28C139.624 121.545 137.123 122.778 135.423 123.432C133.742 124.078 132.523 124.283 132.08 124.346L123.461 63.256ZM102.358 72.1987C91.6541 80.9786 88.2532 93.6888 89.8144 104.754L150.904 96.1346C151.324 99.1144 151.339 103.443 149.619 108.281C147.842 113.28 144.79 117.188 141.484 119.9L102.358 72.1987ZM89.8144 104.754C91.1806 114.437 96.5378 124.076 106.348 130.074L138.53 77.4378C141.764 79.4149 144.825 82.2657 147.159 85.9811C149.449 89.6267 150.495 93.2342 150.904 96.1346L89.8144 104.754ZM107.088 130.512C112.516 133.626 117.972 135.024 121.941 135.752L133.082 75.072C133.094 75.0742 133.196 75.0931 133.376 75.1375C133.555 75.1816 133.839 75.2578 134.211 75.3793C134.908 75.6066 136.196 76.0846 137.79 76.9995L107.088 130.512ZM122.778 135.894C125.053 136.247 127.783 136.654 130.946 137.111L139.777 76.0519C136.741 75.6129 134.238 75.2396 132.245 74.9302L122.778 135.894ZM131.711 137.212C134.36 137.528 135.913 137.955 136.647 138.214L157.184 80.0378C151.262 77.9473 145.112 76.6779 139.012 75.951L131.711 137.212ZM137.11 138.373C136.127 138.044 133.798 136.985 131.577 134.435L178.1 93.915C171.954 86.8586 164.343 82.4338 156.721 79.8785L137.11 138.373ZM131.933 134.836C130.273 132.996 129.316 131.217 128.797 129.95C128.541 129.329 128.392 128.835 128.308 128.51C128.224 128.186 128.198 128.003 128.196 127.991L189.286 119.371C188.157 111.366 185.149 101.723 177.744 93.514L131.933 134.836ZM128.196 127.991C128.196 127.99 128.18 127.877 128.171 127.661C128.162 127.445 128.16 127.116 128.191 126.689C128.254 125.819 128.453 124.572 128.976 123.103L187.091 143.814C190.147 135.238 190.327 126.75 189.286 119.371L128.196 127.991ZM129.081 122.813C129.762 120.962 130.968 119.127 132.527 117.703L174.136 163.253C179.954 157.939 184.294 151.425 186.986 144.103L129.081 122.813ZM132.66 117.582C133.529 116.797 134.215 116.491 134.321 116.448L157.499 173.623C163.349 171.252 168.982 167.908 174.003 163.374L132.66 117.582ZM134.886 116.225C134.248 116.47 133.484 116.679 132.536 116.813L141.155 177.903C146.532 177.144 151.812 175.806 156.934 173.846L134.886 116.225ZM132.536 116.813C131.274 116.991 129.771 117.08 127.985 117.009L125.537 178.655C130.747 178.862 135.967 178.635 141.155 177.903L132.536 116.813ZM128.635 117.042C126.805 116.93 125.105 116.684 123.514 116.323L109.871 176.49C114.814 177.611 119.826 178.315 124.886 178.623L128.635 117.042ZM124.035 116.446C122.696 116.118 121.663 115.728 120.862 115.343L94.1469 170.954C99.0449 173.307 104.137 175.09 109.35 176.367L124.035 116.446ZM136.724 153.036L141.545 138.789L83.1053 119.014L78.2844 133.262L136.724 153.036ZM91.1658 151.348C94.6557 154.638 98.3674 156.508 98.6686 156.669C99.9404 157.349 101.203 157.944 102.23 158.411L127.756 102.245C127.296 102.036 127.371 102.056 127.753 102.26C127.944 102.362 128.48 102.652 129.199 103.109C129.57 103.345 130.116 103.705 130.764 104.182C131.374 104.632 132.358 105.393 133.485 106.455L91.1658 151.348ZM103.164 158.817C105.816 159.918 108.595 160.872 111.322 161.71L129.446 102.737C127.942 102.275 127.126 101.965 126.822 101.839L103.164 158.817ZM112.422 162.026C116.097 163.008 119.832 163.705 123.559 164.185L131.447 102.997C130.02 102.813 129.008 102.599 128.346 102.422L112.422 162.026ZM123.559 164.185C128.844 164.867 134.18 164.846 139.491 164.096L130.872 103.006C130.971 102.993 131.082 102.984 131.195 102.983C131.308 102.983 131.395 102.99 131.447 102.997L123.559 164.185ZM139.491 164.096C144.3 163.418 153.58 161.547 161.574 154.42L120.516 108.372C123.576 105.642 126.481 104.348 128.05 103.771C129.657 103.18 130.724 103.027 130.872 103.006L139.491 164.096ZM161.079 154.852C169.923 147.298 174.891 135.695 173.124 123.17L112.034 131.789C111.49 127.932 111.739 123.216 113.638 118.367C115.515 113.578 118.414 110.157 121.01 107.94L161.079 154.852ZM173.124 123.17C171.402 110.963 163.769 100.992 152.964 95.9353L126.813 151.813C123.669 150.342 120.021 147.81 117.009 143.773C113.981 139.717 112.546 135.415 112.034 131.789L173.124 123.17ZM153.535 96.2095C148.208 93.582 142.857 92.3617 138.724 91.7017L128.996 152.625C129.311 152.675 129.226 152.679 128.837 152.568C128.472 152.465 127.528 152.173 126.242 151.539L153.535 96.2095ZM138.948 91.7384C136.304 91.2961 133.305 90.8202 129.969 90.3115L120.67 151.301C123.798 151.778 126.493 152.207 128.771 152.588L138.948 91.7384ZM130.183 90.345C128.905 90.141 127.951 89.9338 127.276 89.7579C126.593 89.5804 126.3 89.4619 126.309 89.4656L103.055 146.61C108.745 148.925 114.714 150.351 120.456 151.268L130.183 90.345ZM126.602 89.5867C127.765 90.0737 130.092 91.364 132.234 94.0772L83.8087 132.304C89.1851 139.114 95.9531 143.636 102.762 146.489L126.602 89.5867ZM132.629 94.5893C135.069 97.8162 135.485 100.495 135.524 100.771L74.4348 109.39C75.4187 116.364 77.8634 124.449 83.4132 131.791L132.629 94.5893ZM135.524 100.771C135.53 100.812 135.618 101.463 135.472 102.57C135.32 103.723 134.943 105.145 134.205 106.631L78.9585 79.1703C73.9173 89.3125 73.0957 99.8995 74.4348 109.39L135.524 100.771ZM134.148 106.744C133.759 107.519 133.207 108.341 132.498 109.105C131.793 109.865 131.105 110.381 130.587 110.698L98.3891 58.0717C90.1595 63.1069 83.467 70.1917 79.0149 79.0574L134.148 106.744ZM130.953 110.471C130.859 110.53 130.763 110.583 130.67 110.628C130.577 110.674 130.5 110.704 130.446 110.724C130.332 110.765 130.372 110.735 130.629 110.699L122.01 49.6091C113.632 50.7911 105.484 53.5902 98.0237 58.2988L130.953 110.471ZM130.629 110.699C131.263 110.609 131.651 110.629 131.867 110.654L138.948 49.3667C133.248 48.7082 127.578 48.8235 122.01 49.6091L130.629 110.699ZM132.027 110.672C133.462 110.83 134.528 111.061 135.29 111.282L152.499 52.0361C147.984 50.7247 143.393 49.8563 138.788 49.3487L132.027 110.672ZM135.562 111.36C137.488 111.9 138.92 112.387 139.939 112.785L162.376 55.3149C159.111 54.0398 155.701 52.9332 152.227 51.9585L135.562 111.36ZM122.146 73.567L117.233 87.163L175.256 108.129L180.169 94.5326L122.146 73.567ZM214.965 121.915L245.51 117.606C243.13 100.736 227.525 88.9904 210.655 91.3705L214.965 121.915ZM216.855 135.311L221.164 165.855C238.034 163.475 249.78 147.87 247.4 131.001L216.855 135.311ZM170.436 141.86L139.891 146.169C142.272 163.039 157.876 174.785 174.746 172.405L170.436 141.86ZM161.118 75.8135L156.808 45.2687C139.939 47.6488 128.193 63.2536 130.573 80.123L161.118 75.8135ZM206.699 69.3825L237.244 65.0729C234.864 48.2035 219.259 36.4575 202.39 38.8376L206.699 69.3825ZM208.589 82.7778L212.899 113.323C229.768 110.942 241.514 95.3376 239.134 78.4682L208.589 82.7778ZM178.264 87.0564L173.954 56.5115C157.085 58.8916 145.339 74.4965 147.719 91.3659L178.264 87.0564ZM180.075 99.8935L149.53 104.203C151.91 121.073 167.515 132.818 184.384 130.438L180.075 99.8935ZM206.121 96.2186L236.666 91.9091C234.286 75.0396 218.681 63.2937 201.812 65.6738L206.121 96.2186ZM207.867 108.591L212.176 139.136C229.046 136.755 240.792 121.151 238.412 104.281L207.867 108.591ZM181.82 112.266L177.511 81.7207C160.641 84.1008 148.895 99.7057 151.276 116.575L181.82 112.266ZM183.802 126.312L153.257 130.622C155.637 147.491 171.242 159.237 188.112 156.857L183.802 126.312ZM184.42 126.225L186.31 139.62L247.4 131.001L245.51 117.606L184.42 126.225ZM212.545 104.766L166.127 111.315L174.746 172.405L221.164 165.855L212.545 104.766ZM200.981 137.55L191.663 71.5039L130.573 80.123L139.891 146.169L200.981 137.55ZM165.427 106.358L211.009 99.9273L202.39 38.8376L156.808 45.2687L165.427 106.358ZM176.154 73.692L178.044 87.0873L239.134 78.4682L237.244 65.0729L176.154 73.692ZM204.279 52.2329L173.954 56.5115L182.573 117.601L212.899 113.323L204.279 52.2329ZM147.719 91.3659L149.53 104.203L210.62 95.584L208.808 82.7468L147.719 91.3659ZM184.384 130.438L210.431 126.763L201.812 65.6738L175.765 69.3487L184.384 130.438ZM175.576 100.528L177.322 112.9L238.412 104.281L236.666 91.9091L175.576 100.528ZM203.557 78.0459L177.511 81.7207L186.13 142.81L212.176 139.136L203.557 78.0459ZM151.276 116.575L153.257 130.622L214.347 122.002L212.365 107.956L151.276 116.575ZM188.112 156.857L219.274 152.46L210.655 91.3705L179.493 95.7672L188.112 156.857ZM270.651 114.059L301.196 109.749C298.816 92.8795 283.211 81.1336 266.342 83.5137L270.651 114.059ZM272.541 127.454L276.851 157.999C293.72 155.619 305.466 140.014 303.086 123.144L272.541 127.454ZM226.123 134.003L195.578 138.313C197.958 155.182 213.563 166.928 230.432 164.548L226.123 134.003ZM216.804 67.9567L212.495 37.4119C195.625 39.792 183.88 55.3968 186.26 72.2663L216.804 67.9567ZM262.386 61.5257L292.93 57.2161C290.55 40.3467 274.946 28.6007 258.076 30.9808L262.386 61.5257ZM264.276 74.921L268.585 105.466C285.455 103.086 297.201 87.4808 294.82 70.6114L264.276 74.921ZM233.95 79.1996L229.641 48.6547C212.771 51.0348 201.025 66.6397 203.405 83.5091L233.95 79.1996ZM235.761 92.0367L205.216 96.3463C207.597 113.216 223.201 124.962 240.071 122.582L235.761 92.0367ZM261.808 88.3619L292.353 84.0523C289.972 67.1829 274.368 55.4369 257.498 57.817L261.808 88.3619ZM263.553 100.734L267.863 131.279C284.732 128.899 296.478 113.294 294.098 96.4243L263.553 100.734ZM237.507 104.409L233.197 73.8639C216.328 76.244 204.582 91.8489 206.962 108.718L237.507 104.409ZM239.489 118.455L208.944 122.765C211.324 139.634 226.929 151.38 243.798 149L239.489 118.455ZM240.107 118.368L241.996 131.763L303.086 123.144L301.196 109.749L240.107 118.368ZM268.232 96.909L221.813 103.458L230.432 164.548L276.851 157.999L268.232 96.909ZM256.668 129.693L247.349 63.6471L186.26 72.2663L195.578 138.313L256.668 129.693ZM221.114 98.5015L266.695 92.0705L258.076 30.9808L212.495 37.4119L221.114 98.5015ZM231.841 65.8352L233.731 79.2305L294.82 70.6114L292.93 57.2161L231.841 65.8352ZM259.966 44.3761L229.641 48.6547L238.26 109.744L268.585 105.466L259.966 44.3761ZM203.405 83.5091L205.216 96.3463L266.306 87.7272L264.495 74.89L203.405 83.5091ZM240.071 122.582L266.117 118.907L257.498 57.817L231.452 61.4919L240.071 122.582ZM231.263 92.6714L233.008 105.043L294.098 96.4243L292.353 84.0523L231.263 92.6714ZM259.244 70.1891L233.197 73.8639L241.816 134.954L267.863 131.279L259.244 70.1891ZM206.962 108.718L208.944 122.765L270.034 114.146L268.052 100.099L206.962 108.718ZM243.798 149L274.961 144.603L266.342 83.5137L235.179 87.9104L243.798 149ZM281.809 126.146L251.265 130.456C253.645 147.325 269.25 159.071 286.119 156.691L281.809 126.146ZM272.491 60.0999L268.181 29.5551C251.312 31.9352 239.566 47.54 241.946 64.4095L272.491 60.0999ZM315.912 58.5277L303.573 86.8001C303.714 86.8617 303.856 86.9221 303.998 86.9816L315.912 58.5277ZM328.661 68.8728L303.182 86.2615C303.211 86.3036 303.239 86.3456 303.268 86.3875L328.661 68.8728ZM333.093 102.972L304.252 92.0277L304.252 92.0277L333.093 102.972ZM323.185 116.134L304.689 91.447C304.645 91.4798 304.601 91.5128 304.558 91.5459L323.185 116.134ZM315.706 77.247L289.735 93.8913C289.779 93.9608 289.824 94.0301 289.869 94.0993L315.706 77.247ZM308.782 71.2032L295.889 99.2273C296.049 99.3005 296.208 99.3723 296.369 99.4428L308.782 71.2032ZM289.637 71.3428L285.327 40.7979C268.458 43.178 256.712 58.7829 259.092 75.6523L289.637 71.3428ZM295.175 110.598L264.63 114.908C267.011 131.777 282.615 143.523 299.485 141.143L295.175 110.598ZM313.612 105.436L334.01 128.576C334.054 128.537 334.097 128.499 334.141 128.46L313.612 105.436ZM318.568 97.5259L348.13 106.335C348.153 106.258 348.176 106.182 348.198 106.105L318.568 97.5259ZM312.354 121.837L303.036 55.7904L241.946 64.4095L251.265 130.456L312.354 121.837ZM276.801 90.6447L301.452 87.1667L292.833 26.0771L268.181 29.5551L276.801 90.6447ZM301.452 87.1667C303.013 86.9464 303.871 86.9907 304.16 87.0201C304.412 87.0457 304.143 87.0487 303.573 86.8001L328.25 30.2553C316.492 25.1244 304.193 24.4742 292.833 26.0771L301.452 87.1667ZM303.998 86.9816C304.085 87.0181 303.917 86.9557 303.645 86.7355C303.522 86.6352 303.412 86.5306 303.323 86.4334C303.235 86.3368 303.19 86.2727 303.182 86.2615L354.14 51.4841C347.531 41.799 338.529 34.5555 327.825 30.0738L303.998 86.9816ZM303.268 86.3875C303.477 86.6903 303.92 87.4187 304.173 89.2155L365.263 80.5964C363.802 70.2382 360.206 60.2778 354.054 51.3582L303.268 86.3875ZM304.173 89.2155C304.354 90.4935 304.333 91.2864 304.297 91.6811C304.264 92.053 304.213 92.1291 304.252 92.0277L361.933 113.916C366.117 102.891 366.801 91.4983 365.263 80.5964L304.173 89.2155ZM304.252 92.0277C304.235 92.0736 304.239 92.0527 304.277 91.9834C304.316 91.9131 304.373 91.8211 304.449 91.7208C304.524 91.6205 304.597 91.5399 304.653 91.4835C304.71 91.4279 304.728 91.4175 304.689 91.447L341.682 140.821C350.939 133.885 357.829 124.731 361.933 113.916L304.252 92.0277ZM304.558 91.5459C304.691 91.4452 304.684 91.4862 304.393 91.6001C304.08 91.7225 303.379 91.9501 302.151 92.1233L310.77 153.213C321.652 151.678 332.404 147.85 341.813 140.722L304.558 91.5459ZM302.151 92.1233L277.5 95.6013L286.119 156.691L310.77 153.213L302.151 92.1233ZM349.728 82.7882C348.676 75.3278 346.222 67.568 341.544 60.3947L289.869 94.0993C288.742 92.3703 288.606 91.1777 288.639 91.4073L349.728 82.7882ZM341.678 60.6026C336.852 53.0724 329.979 46.825 321.195 42.9637L296.369 99.4428C294.951 98.8198 293.577 97.9569 292.353 96.8884C291.142 95.8311 290.293 94.7618 289.735 93.8913L341.678 60.6026ZM321.674 43.1792C312.547 38.9804 303.157 38.2823 294.722 39.4724L303.342 100.562C302.224 100.72 299.335 100.812 295.889 99.2273L321.674 43.1792ZM294.722 39.4724L285.327 40.7979L293.946 101.888L303.342 100.562L294.722 39.4724ZM259.092 75.6523L264.63 114.908L325.72 106.289L320.182 67.0332L259.092 75.6523ZM299.485 141.143L308.88 139.818L300.261 78.728L290.866 80.0536L299.485 141.143ZM308.88 139.818C317.235 138.639 326.263 135.405 334.01 128.576L293.213 82.2957C296.347 79.533 299.348 78.8569 300.261 78.728L308.88 139.818ZM334.141 128.46C340.973 122.368 345.631 114.724 348.13 106.335L289.005 88.717C289.277 87.8028 289.739 86.6842 290.48 85.5017C291.226 84.311 292.123 83.267 293.083 82.4113L334.141 128.46ZM348.198 106.105C350.479 98.2253 350.79 90.3149 349.728 82.7882L288.639 91.4073C288.637 91.3969 288.602 91.1386 288.63 90.6767C288.657 90.2054 288.745 89.6103 288.937 88.9465L348.198 106.105ZM130.909 224.189L100.364 228.499C102.744 245.368 118.349 257.114 135.218 254.734L130.909 224.189ZM121.59 158.143L117.281 127.598C100.411 129.978 88.6655 145.583 91.0456 162.453L121.59 158.143ZM136.846 155.991L167.391 151.681C165.011 134.812 149.406 123.066 132.537 125.446L136.846 155.991ZM144.275 208.642L113.73 212.951C116.11 229.821 131.715 241.567 148.584 239.186L144.275 208.642ZM176.275 204.127L206.819 199.817C204.439 182.948 188.834 171.202 171.965 173.582L176.275 204.127ZM178.164 217.522L182.474 248.067C199.343 245.687 211.089 230.082 208.709 213.213L178.164 217.522ZM161.454 219.88L152.135 153.834L91.0456 162.453L100.364 228.499L161.454 219.88ZM125.9 188.688L141.156 186.536L132.537 125.446L117.281 127.598L125.9 188.688ZM106.301 160.3L113.73 212.951L174.819 204.332L167.391 151.681L106.301 160.3ZM148.584 239.186L180.584 234.672L171.965 173.582L139.965 178.097L148.584 239.186ZM145.73 208.436L147.62 221.832L208.709 213.213L206.819 199.817L145.73 208.436ZM173.855 186.977L126.599 193.645L135.218 254.734L182.474 248.067L173.855 186.977ZM185.324 216.512L154.779 220.822C157.159 237.691 172.764 249.437 189.633 247.057L185.324 216.512ZM176.005 150.466L171.696 119.921C154.826 122.301 143.08 137.906 145.46 154.775L176.005 150.466ZM191.261 148.313L221.806 144.004C219.426 127.134 203.821 115.388 186.951 117.769L191.261 148.313ZM200.579 214.36L204.889 244.904C221.758 242.524 233.504 226.919 231.124 210.05L200.579 214.36ZM215.868 212.202L206.55 146.156L145.46 154.775L154.779 220.822L215.868 212.202ZM180.315 181.011L195.57 178.858L186.951 117.769L171.696 119.921L180.315 181.011ZM160.716 152.623L170.035 218.669L231.124 210.05L221.806 144.004L160.716 152.623ZM196.27 183.815L181.014 185.967L189.633 247.057L204.889 244.904L196.27 183.815ZM223.139 172.657L244.292 150.205C234.758 141.223 220.591 139.241 208.958 145.263C197.326 151.285 190.765 163.997 192.595 176.967L223.139 172.657ZM228.468 210.425L232.778 240.97C249.647 238.59 261.393 222.985 259.013 206.115L228.468 210.425ZM213.212 212.577L182.667 216.887C185.048 233.756 200.652 245.502 217.522 243.122L213.212 212.577ZM203.894 146.531L199.584 115.986C182.715 118.366 170.969 133.971 173.349 150.841L203.894 146.531ZM215.987 144.825L237.323 122.547C230.494 116.006 221.041 112.959 211.677 114.28L215.987 144.825ZM252.077 179.39L230.741 201.668C240.234 210.761 254.447 212.838 266.146 206.843C277.845 200.848 284.459 188.097 282.622 175.081L252.077 179.39ZM246.591 140.507L242.282 109.962C225.412 112.342 213.666 127.947 216.047 144.816L246.591 140.507ZM261.847 138.354L292.392 134.045C290.012 117.175 274.407 105.429 257.538 107.81L261.847 138.354ZM271.166 204.401L275.475 234.945C292.345 232.565 304.09 216.961 301.71 200.091L271.166 204.401ZM258.7 206.159L237.548 228.612C244.366 235.036 253.734 238.013 263.01 236.704L258.7 206.159ZM192.595 176.967L197.923 214.734L259.013 206.115L253.684 168.348L192.595 176.967ZM224.158 179.88L208.903 182.032L217.522 243.122L232.778 240.97L224.158 179.88ZM243.757 208.268L234.439 142.221L173.349 150.841L182.667 216.887L243.757 208.268ZM208.203 177.076L220.296 175.37L211.677 114.28L199.584 115.986L208.203 177.076ZM194.65 167.103L230.741 201.668L273.414 157.112L237.323 122.547L194.65 167.103ZM282.622 175.081L277.136 136.197L216.047 144.816L221.533 183.7L282.622 175.081ZM250.901 171.052L266.157 168.899L257.538 107.81L242.282 109.962L250.901 171.052ZM231.302 142.664L240.621 208.71L301.71 200.091L292.392 134.045L231.302 142.664ZM266.856 173.856L254.391 175.614L263.01 236.704L275.475 234.945L266.856 173.856ZM279.853 183.707L244.292 150.205L201.987 195.11L237.548 228.612L279.853 183.707ZM299.242 198.447L290.998 228.172C291.133 228.21 291.268 228.246 291.404 228.282L299.242 198.447ZM288.118 192.901L269.058 217.155C269.141 217.22 269.225 217.285 269.309 217.35L288.118 192.901ZM279.725 183.174L252.809 198.242C252.9 198.405 252.992 198.567 253.086 198.728L279.725 183.174ZM276.052 156.464L305.87 164.366L305.87 164.366L276.052 156.464ZM281.545 144.968L306.381 163.264L306.381 163.264L281.545 144.968ZM290.966 136.428L306.81 162.896C306.876 162.856 306.943 162.816 307.009 162.776L290.966 136.428ZM320.266 133.622L309.102 162.379L309.102 162.379L320.266 133.622ZM332.075 142.677L353.907 164.47C364.464 153.895 365.922 137.273 357.369 125.02L332.075 142.677ZM321.934 152.836L296.69 170.566C301.929 178.025 310.199 182.786 319.281 183.569C328.362 184.353 337.325 181.081 343.765 174.629L321.934 152.836ZM314.451 146.871L302.431 175.281C302.522 175.319 302.614 175.358 302.706 175.395L314.451 146.871ZM298.32 148.199L315.523 173.803C315.627 173.733 315.731 173.663 315.834 173.592L298.32 148.199ZM293.528 153.239L267.304 136.995C267.286 137.025 267.267 137.055 267.249 137.085L293.528 153.239ZM290.979 160.05L321.319 165.621L321.319 165.621L290.979 160.05ZM293.29 175.758L265.997 190.134L265.997 190.134L293.29 175.758ZM297.81 181.572L277.489 204.78C277.624 204.897 277.759 205.014 277.896 205.13L297.81 181.572ZM303.876 184.89L294.769 214.363C294.878 214.396 294.987 214.429 295.096 214.462L303.876 184.89ZM319.944 181.769L338.316 206.549C338.378 206.503 338.439 206.457 338.5 206.411L319.944 181.769ZM326.946 173.571L357.491 169.261C355.651 156.22 345.734 145.786 332.804 143.285C319.873 140.784 306.781 146.768 300.211 158.183L326.946 173.571ZM329.072 188.641L353.718 207.192C358.638 200.655 360.76 192.432 359.617 184.331L329.072 188.641ZM325.885 172.772L356.43 168.462C354.05 151.593 338.445 139.847 321.575 142.227L325.885 172.772ZM313.048 174.583L282.503 178.893C284.883 195.762 300.488 207.508 317.357 205.128L313.048 174.583ZM311.486 163.513L307.176 132.969C290.307 135.349 278.561 150.953 280.941 167.823L311.486 163.513ZM336.974 159.917L367.519 155.608C365.139 138.738 349.534 126.992 332.665 129.372L336.974 159.917ZM341.843 194.429L346.153 224.974C363.022 222.593 374.768 206.989 372.388 190.119L341.843 194.429ZM329.192 196.214L298.647 200.523C301.027 217.393 316.632 229.139 333.502 226.758L329.192 196.214ZM307.553 168.588C307.284 168.626 307.152 168.62 307.126 168.619C307.104 168.618 307.099 168.617 307.081 168.612L291.404 228.282C299.601 230.435 307.945 230.839 316.172 229.678L307.553 168.588ZM307.487 168.722C307.208 168.644 307.092 168.578 306.928 168.452L269.309 217.35C275.814 222.355 283.114 225.986 290.998 228.172L307.487 168.722ZM307.179 168.647C307.038 168.536 306.759 168.297 306.364 167.62L253.086 198.728C257.195 205.765 262.512 212.01 269.058 217.155L307.179 168.647ZM306.642 168.106C306.552 167.945 306.155 167.179 305.896 165.346L244.806 173.965C245.983 182.302 248.502 190.549 252.809 198.242L306.642 168.106ZM305.896 165.346C305.836 164.917 305.839 164.663 305.845 164.551C305.85 164.444 305.862 164.394 305.87 164.366L246.234 148.562C243.996 157.003 243.622 165.567 244.806 173.965L305.896 165.346ZM305.87 164.366C306.004 163.859 306.162 163.561 306.381 163.264L256.71 126.672C251.833 133.291 248.328 140.658 246.234 148.562L305.87 164.366ZM306.381 163.264C306.472 163.141 306.541 163.057 306.81 162.896L275.123 109.96C267.926 114.268 261.715 119.877 256.71 126.672L306.381 163.264ZM307.009 162.776C307.045 162.753 307.092 162.728 307.186 162.695C307.284 162.661 307.516 162.589 307.932 162.531L299.313 101.441C290.758 102.648 282.506 105.464 274.924 110.08L307.009 162.776ZM307.932 162.531C308.784 162.411 309.22 162.441 309.323 162.451C309.406 162.459 309.299 162.455 309.102 162.379L331.431 104.866C320.837 100.754 309.874 99.9511 299.313 101.441L307.932 162.531ZM309.102 162.379C309.117 162.384 308.753 162.241 308.212 161.827C307.655 161.4 307.156 160.872 306.781 160.334L357.369 125.02C350.729 115.508 341.679 108.845 331.431 104.866L309.102 162.379ZM310.243 120.884L300.102 131.043L343.765 174.629L353.907 164.47L310.243 120.884ZM347.177 135.107C341.86 127.537 334.659 121.833 326.196 118.348L302.706 175.395C301.688 174.976 300.542 174.341 299.41 173.438C298.275 172.533 297.369 171.532 296.69 170.566L347.177 135.107ZM326.471 118.462C318.241 114.98 309.435 113.865 300.671 115.101L309.29 176.191C308.309 176.329 307.137 176.363 305.855 176.197C304.57 176.031 303.409 175.694 302.431 175.281L326.471 118.462ZM300.671 115.101C293.703 116.084 286.913 118.593 280.805 122.806L315.834 173.592C313.645 175.101 311.296 175.908 309.29 176.191L300.671 115.101ZM281.116 122.594C275.339 126.476 270.747 131.436 267.304 136.995L319.752 169.483C318.885 170.883 317.487 172.484 315.523 173.803L281.116 122.594ZM267.249 137.085C263.842 142.627 261.728 148.545 260.638 154.479L321.319 165.621C321.159 166.491 320.745 167.868 319.807 169.393L267.249 137.085ZM260.638 154.479C259.521 160.566 259.514 166.58 260.327 172.344L321.417 163.725C321.442 163.908 321.507 164.598 321.319 165.621L260.638 154.479ZM260.327 172.344C261.171 178.329 262.96 184.368 265.997 190.134L320.582 161.382C321.201 162.556 321.377 163.445 321.417 163.725L260.327 172.344ZM265.997 190.134C268.824 195.5 272.613 200.51 277.489 204.78L318.131 158.364C319.399 159.473 320.175 160.608 320.582 161.382L265.997 190.134ZM277.896 205.13C282.863 209.328 288.562 212.445 294.769 214.363L312.982 155.418C314.693 155.946 316.348 156.85 317.724 158.014L277.896 205.13ZM295.096 214.462C302.025 216.519 308.976 216.841 315.558 215.913L306.939 154.823C308.312 154.629 310.348 154.634 312.656 155.319L295.096 214.462ZM315.558 215.913C323.955 214.728 331.663 211.482 338.316 206.549L301.572 156.99C302.194 156.529 303.008 156.041 303.998 155.631C304.992 155.219 305.996 154.956 306.939 154.823L315.558 215.913ZM338.5 206.411C345.053 201.476 349.995 195.364 353.681 188.959L300.211 158.183C299.936 158.662 300.208 158.015 301.387 157.128L338.5 206.411ZM296.401 177.88L298.528 192.95L359.617 184.331L357.491 169.261L296.401 177.88ZM304.427 170.089C304.226 170.356 304.478 169.948 305.316 169.437C306.195 168.901 307.051 168.659 307.553 168.588L316.172 229.678C331.853 227.466 344.669 219.213 353.718 207.192L304.427 170.089ZM321.575 142.227L308.738 144.038L317.357 205.128L330.194 203.317L321.575 142.227ZM343.592 170.274L342.031 159.204L280.941 167.823L282.503 178.893L343.592 170.274ZM315.795 194.058L341.284 190.462L332.665 129.372L307.176 132.969L315.795 194.058ZM306.429 164.227L311.298 198.738L372.388 190.119L367.519 155.608L306.429 164.227ZM337.534 163.884L324.883 165.669L333.502 226.758L346.153 224.974L337.534 163.884ZM359.737 191.904L356.43 168.462L295.34 177.081L298.647 200.523L359.737 191.904Z" fill="#020887"/>
<path d="M146.246 97.6459C146.016 97.362 145.299 96.9888 144.095 96.5261C142.883 96.0015 141.387 95.4852 139.607 94.9772C137.828 94.4693 135.907 94.0762 133.843 93.7981C131.78 93.5199 129.756 93.5209 127.772 93.8009C125.167 94.1683 123.217 94.9178 121.922 96.0493C120.618 97.1188 120.098 98.5837 120.36 100.444C120.57 101.933 121.264 103.036 122.44 103.756C123.679 104.467 125.37 105.019 127.513 105.412C129.647 105.744 132.263 106.133 135.362 106.582C139.737 107.103 143.588 107.951 146.917 109.126C150.236 110.239 152.877 111.922 154.839 114.175C156.864 116.419 158.165 119.588 158.742 123.681C159.267 127.402 159.031 130.661 158.034 133.458C157.029 136.193 155.462 138.533 153.332 140.478C151.257 142.352 148.783 143.871 145.911 145.036C143.031 146.138 140.009 146.912 136.846 147.358C133.621 147.813 130.26 147.971 126.762 147.832C123.316 147.623 119.96 147.147 116.693 146.406C113.418 145.604 110.355 144.518 107.505 143.149L112.326 128.902C112.618 129.177 113.507 129.652 114.994 130.328C116.472 130.941 118.269 131.573 120.385 132.224C122.554 132.803 124.927 133.259 127.504 133.591C130.08 133.923 132.64 133.91 135.183 133.551C137.912 133.166 139.866 132.448 141.046 131.396C142.287 130.335 142.799 129.03 142.58 127.479C142.344 125.805 141.447 124.603 139.889 123.874C138.394 123.136 136.384 122.566 133.861 122.163C131.399 121.751 128.552 121.299 125.32 120.807C121.114 120.135 117.569 119.212 114.683 118.038C111.86 116.855 109.64 115.239 108.022 113.19C106.467 111.133 105.453 108.43 104.981 105.081C104.324 100.43 104.858 96.3696 106.583 92.9006C108.36 89.3608 110.996 86.5222 114.489 84.3848C117.974 82.1854 121.918 80.7751 126.321 80.1539C129.422 79.7164 132.451 79.6685 135.408 80.0102C138.428 80.3432 141.257 80.8928 143.895 81.6591C146.595 82.4166 149.016 83.2135 151.158 84.0498L146.246 97.6459ZM214.966 121.915L216.856 135.311L170.437 141.86L161.119 75.8135L206.7 69.3825L208.59 82.7778L178.265 87.0564L180.076 99.8935L206.122 96.2186L207.868 108.591L181.821 112.266L183.803 126.312L214.966 121.915ZM270.652 114.059L272.542 127.454L226.124 134.003L216.805 67.9567L262.387 61.5257L264.277 74.921L233.951 79.1996L235.762 92.0367L261.809 88.3619L263.554 100.734L237.508 104.409L239.49 118.455L270.652 114.059ZM281.81 126.146L272.492 60.0999L297.143 56.6219C304.399 55.5982 310.655 56.2335 315.912 58.5277C321.223 60.7512 325.473 64.1996 328.662 68.8728C331.843 73.4841 333.862 78.8284 334.719 84.9059C335.664 91.6036 335.122 97.6255 333.094 102.972C331.065 108.318 327.762 112.705 323.186 116.134C318.672 119.554 313.097 121.732 306.461 122.668L281.81 126.146ZM319.184 87.0977C318.642 83.2528 317.483 79.9692 315.707 77.247C313.923 74.4627 311.615 72.4481 308.783 71.2032C305.942 69.8963 302.692 69.501 299.033 70.0172L289.638 71.3428L295.176 110.598L304.572 109.273C308.292 108.748 311.306 107.469 313.612 105.436C315.972 103.332 317.624 100.695 318.568 97.526C319.504 94.2947 319.709 90.8186 319.184 87.0977ZM130.91 224.189L121.591 158.143L136.847 155.991L144.276 208.642L176.275 204.127L178.165 217.522L130.91 224.189ZM185.325 216.512L176.006 150.466L191.262 148.313L200.58 214.36L185.325 216.512ZM223.14 172.657L228.469 210.425L213.213 212.577L203.895 146.531L215.988 144.825L252.078 179.39L246.592 140.507L261.848 138.354L271.167 204.401L258.701 206.159L223.14 172.657ZM311.864 199.133C307.522 199.746 303.316 199.517 299.243 198.447C295.162 197.315 291.454 195.466 288.119 192.901C284.776 190.273 281.978 187.031 279.726 183.174C277.528 179.247 276.07 174.74 275.352 169.655C274.705 165.066 274.938 160.669 276.053 156.464C277.167 152.258 278.998 148.426 281.546 144.968C284.094 141.509 287.235 138.662 290.967 136.428C294.753 134.123 298.972 132.642 303.623 131.986C309.701 131.129 315.249 131.674 320.267 133.622C325.286 135.571 329.222 138.589 332.076 142.677L321.935 152.836C320.035 150.132 317.541 148.143 314.452 146.871C311.425 145.591 308.268 145.182 304.981 145.646C302.501 145.996 300.28 146.847 298.321 148.199C296.414 149.48 294.817 151.16 293.529 153.239C292.294 155.247 291.445 157.518 290.98 160.05C290.515 162.582 290.479 165.244 290.873 168.035C291.275 170.887 292.081 173.462 293.291 175.758C294.5 178.054 296.007 179.992 297.811 181.572C299.606 183.089 301.628 184.195 303.877 184.89C306.187 185.576 308.645 185.735 311.25 185.368C314.412 184.922 317.311 183.722 319.945 181.769C322.632 179.746 324.966 177.013 326.947 173.571L329.073 188.641C324.546 194.656 318.809 198.153 311.864 199.133ZM325.886 172.772L313.049 174.583L311.487 163.513L336.975 159.917L341.844 194.429L329.193 196.214L325.886 172.772Z" fill="#A5F200"/>
<path d="M146.246 97.6459L129.135 111.499C134.133 117.673 142.07 120.675 149.904 119.356C157.737 118.036 164.252 112.598 166.951 105.127L146.246 97.6459ZM144.095 96.5261L135.352 116.731C135.631 116.852 135.913 116.967 136.197 117.076L144.095 96.5261ZM139.607 94.9772L145.651 73.8072L145.651 73.8072L139.607 94.9772ZM121.922 96.0493L135.884 113.071C136.061 112.927 136.235 112.779 136.407 112.629L121.922 96.0493ZM122.44 103.756L110.956 122.539C111.131 122.646 111.307 122.75 111.484 122.852L122.44 103.756ZM127.513 105.412L123.537 127.066C123.735 127.102 123.935 127.136 124.134 127.167L127.513 105.412ZM135.362 106.582L132.211 128.371C132.393 128.397 132.575 128.421 132.757 128.443L135.362 106.582ZM146.917 109.126L139.588 129.886C139.698 129.925 139.808 129.963 139.918 130L146.917 109.126ZM154.839 114.175L138.238 128.634C138.322 128.73 138.406 128.826 138.492 128.921L154.839 114.175ZM158.034 133.458L178.698 141.055C178.723 140.986 178.748 140.918 178.773 140.849L158.034 133.458ZM153.332 140.478L168.086 156.819C168.117 156.79 168.149 156.762 168.181 156.733L153.332 140.478ZM145.911 145.036L153.779 165.597C153.914 165.546 154.048 165.493 154.182 165.438L145.911 145.036ZM126.762 147.832L125.424 169.807C125.579 169.817 125.733 169.824 125.888 169.831L126.762 147.832ZM116.693 146.406L111.453 167.789C111.577 167.82 111.701 167.849 111.825 167.877L116.693 146.406ZM107.505 143.149L86.6512 136.092C83.0849 146.632 87.9429 158.175 97.9721 162.993L107.505 143.149ZM112.326 128.902L127.428 112.882C121.972 107.739 114.275 105.726 107.001 107.54C99.7264 109.353 93.8749 114.744 91.472 121.845L112.326 128.902ZM114.994 130.328L105.885 150.371C106.106 150.471 106.328 150.568 106.552 150.66L114.994 130.328ZM120.385 132.224L113.917 153.268C114.178 153.348 114.439 153.423 114.702 153.493L120.385 132.224ZM127.504 133.591L130.318 111.756L130.318 111.756L127.504 133.591ZM141.046 131.396L126.747 114.656C126.628 114.757 126.511 114.86 126.394 114.964L141.046 131.396ZM139.889 123.874L130.15 143.618C130.285 143.685 130.421 143.75 130.557 143.814L139.889 123.874ZM133.861 122.163L130.229 143.877C130.283 143.886 130.336 143.895 130.389 143.903L133.861 122.163ZM125.32 120.807L121.849 142.547C121.9 142.555 121.951 142.563 122.002 142.571L125.32 120.807ZM114.683 118.038L106.176 138.343C106.246 138.373 106.315 138.401 106.385 138.43L114.683 118.038ZM108.022 113.19L90.4595 126.466C90.5523 126.589 90.6464 126.711 90.7418 126.831L108.022 113.19ZM106.583 92.9006L86.9083 83.0208C86.8949 83.0476 86.8815 83.0744 86.8681 83.1013L106.583 92.9006ZM114.489 84.3848L125.979 103.164C126.066 103.111 126.153 103.057 126.24 103.002L114.489 84.3848ZM135.408 80.0102L132.882 101.88C132.92 101.885 132.958 101.889 132.996 101.893L135.408 80.0102ZM143.895 81.6591L137.754 102.801C137.819 102.82 137.883 102.838 137.948 102.856L143.895 81.6591ZM151.158 84.0498L171.864 91.5313C175.921 80.3016 170.288 67.8843 159.165 63.5418L151.158 84.0498ZM163.356 83.7926C160.142 79.823 156.267 77.9195 155.704 77.6261C154.309 76.8997 152.973 76.3525 151.994 75.976L136.197 117.076C136.421 117.162 136.046 117.033 135.368 116.68C135.022 116.5 134.309 116.113 133.428 115.502C132.7 114.997 130.918 113.701 129.135 111.499L163.356 83.7926ZM152.838 76.321C150.478 75.2998 148.016 74.4825 145.651 73.8072L133.564 116.147C134.133 116.31 134.566 116.448 134.881 116.556C135.037 116.61 135.153 116.653 135.235 116.684C135.316 116.716 135.354 116.732 135.352 116.731L152.838 76.321ZM145.651 73.8072C142.737 72.9756 139.769 72.3821 136.785 71.9798L130.902 115.616C132.045 115.77 132.919 115.963 133.564 116.147L145.651 73.8072ZM136.785 71.9798C132.802 71.4429 128.752 71.4288 124.696 72.0011L130.848 115.601C130.832 115.603 130.818 115.604 130.807 115.605C130.795 115.606 130.789 115.606 130.788 115.606C130.788 115.606 130.796 115.606 130.814 115.607C130.831 115.608 130.86 115.611 130.902 115.616L136.785 71.9798ZM124.696 72.0011C119.943 72.6717 113.231 74.4079 107.437 79.4698L136.407 112.629C134.742 114.084 133.19 114.829 132.255 115.188C131.335 115.542 130.791 115.609 130.848 115.601L124.696 72.0011ZM107.96 79.0272C99.9473 85.5996 97.3711 95.0902 98.5604 103.52L142.16 97.3684C142.422 99.2288 142.451 102.08 141.298 105.323C140.105 108.682 138.057 111.289 135.884 113.071L107.96 79.0272ZM98.5604 103.52C99.5956 110.857 103.618 118.052 110.956 122.539L133.924 84.9728C136.064 86.2808 138.115 88.1849 139.681 90.6785C141.216 93.1224 141.898 95.5115 142.16 97.3684L98.5604 103.52ZM111.484 122.852C115.712 125.278 120.091 126.433 123.537 127.066L131.488 83.7584C131.179 83.7016 131.201 83.6866 131.471 83.7748C131.726 83.858 132.436 84.1087 133.396 84.6599L111.484 122.852ZM124.134 127.167C126.369 127.514 129.067 127.916 132.211 128.371L138.514 84.7926C135.46 84.351 132.924 83.973 130.891 83.6573L124.134 127.167ZM132.757 128.443C135.9 128.817 138.111 129.365 139.588 129.886L154.245 88.3658C149.066 86.5375 143.574 85.3887 137.968 84.7206L132.757 128.443ZM139.918 130C140.076 130.052 139.912 130.016 139.555 129.789C139.183 129.552 138.707 129.173 138.238 128.634L171.441 99.7155C166.493 94.0343 160.305 90.3944 153.915 88.2521L139.918 130ZM138.492 128.921C136.676 126.908 136.759 125.456 136.943 126.757L180.542 120.605C179.571 113.72 177.052 105.931 171.187 99.4293L138.492 128.921ZM136.943 126.757C137.019 127.297 136.991 127.465 137.001 127.326C137.012 127.172 137.065 126.716 137.296 126.067L178.773 140.849C181.239 133.927 181.435 126.936 180.542 120.605L136.943 126.757ZM137.371 125.861C137.45 125.645 137.591 125.344 137.813 125.013C138.036 124.68 138.276 124.414 138.484 124.223L168.181 156.733C172.942 152.383 176.489 147.064 178.698 141.055L137.371 125.861ZM138.579 124.137C138.577 124.139 138.565 124.15 138.539 124.169C138.512 124.189 138.467 124.221 138.399 124.262C138.265 124.345 138.024 124.477 137.64 124.633L154.182 165.438C159.179 163.413 163.908 160.591 168.086 156.819L138.579 124.137ZM138.044 124.474C136.763 124.964 135.353 125.335 133.77 125.558L139.922 169.158C144.665 168.489 149.298 167.312 153.779 165.597L138.044 124.474ZM133.77 125.558C131.947 125.816 129.911 125.924 127.635 125.834L125.888 169.831C130.608 170.018 135.296 169.811 139.922 169.158L133.77 125.558ZM128.099 125.857C125.807 125.718 123.633 125.405 121.562 124.936L111.825 167.877C116.288 168.889 120.826 169.527 125.424 169.807L128.099 125.857ZM121.934 125.024C120.04 124.56 118.426 123.971 117.038 123.304L97.9721 162.993C102.284 165.065 106.795 166.648 111.453 167.789L121.934 125.024ZM128.359 150.205L133.18 135.958L91.472 121.845L86.6512 136.092L128.359 150.205ZM97.2248 144.922C99.7573 147.309 102.491 148.697 102.833 148.88C103.868 149.433 104.939 149.941 105.885 150.371L124.103 110.285C123.562 110.039 123.445 109.971 123.591 110.049C123.663 110.087 123.993 110.264 124.464 110.563C124.708 110.718 125.079 110.963 125.525 111.292C125.945 111.601 126.634 112.134 127.428 112.882L97.2248 144.922ZM106.552 150.66C108.868 151.622 111.365 152.484 113.917 153.268L126.852 111.179C125.173 110.663 124.076 110.261 123.436 109.995L106.552 150.66ZM114.702 153.493C117.947 154.36 121.291 154.988 124.689 155.426L130.318 111.756C128.562 111.53 127.161 111.246 126.067 110.954L114.702 153.493ZM124.689 155.426C129.199 156.007 133.74 155.989 138.259 155.351L132.107 111.752C131.541 111.831 130.962 111.839 130.318 111.756L124.689 155.426ZM138.259 155.351C142.472 154.757 149.654 153.216 155.697 147.828L126.394 114.964C128.41 113.166 130.259 112.369 131.098 112.06C131.966 111.741 132.392 111.711 132.107 111.752L138.259 155.351ZM155.344 148.136C162.012 142.441 165.704 133.787 164.38 124.404L120.78 130.555C120.423 128.024 120.58 124.863 121.862 121.589C123.129 118.358 125.072 116.086 126.747 114.656L155.344 148.136ZM164.38 124.404C163.083 115.212 157.379 107.752 149.222 103.934L130.557 143.814C128.537 142.868 126.109 141.199 124.087 138.491C122.055 135.768 121.112 132.903 120.78 130.555L164.38 124.404ZM149.629 104.13C145.399 102.044 141.004 101.009 137.332 100.423L130.389 143.903C130.674 143.949 130.887 143.99 131.036 144.022C131.185 144.054 131.253 144.073 131.25 144.072C131.247 144.072 131.15 144.044 130.974 143.978C130.799 143.913 130.516 143.799 130.15 143.618L149.629 104.13ZM137.492 100.449C134.9 100.016 131.945 99.5465 128.638 99.0423L122.002 142.571C125.16 143.052 127.898 143.487 130.229 143.877L137.492 100.449ZM128.792 99.0662C125.682 98.5697 123.866 98.0059 122.981 97.646L106.385 138.43C111.272 140.418 116.547 141.7 121.849 142.547L128.792 99.0662ZM123.191 97.7324C123.176 97.7263 123.438 97.8343 123.855 98.138C124.285 98.4511 124.803 98.9161 125.303 99.5494L90.7418 126.831C95.042 132.279 100.508 135.969 106.176 138.343L123.191 97.7324ZM125.585 99.9148C126.88 101.629 126.888 102.767 126.78 102.005L83.1808 108.157C84.0183 114.092 86.0534 120.637 90.4595 126.466L125.585 99.9148ZM126.78 102.005C126.69 101.368 126.744 101.209 126.717 101.418C126.703 101.524 126.67 101.704 126.6 101.938C126.529 102.175 126.429 102.434 126.297 102.7L86.8681 83.1013C82.7765 91.333 82.0372 100.051 83.1808 108.157L126.78 102.005ZM126.257 102.78C126.25 102.794 126.226 102.838 126.181 102.903C126.136 102.969 126.083 103.035 126.026 103.096C125.97 103.157 125.926 103.195 125.906 103.211C125.888 103.227 125.907 103.209 125.979 103.164L102.999 65.6053C96.1256 69.8107 90.5947 75.6798 86.9083 83.0208L126.257 102.78ZM126.24 103.002C126.887 102.594 127.83 102.175 129.397 101.954L123.245 58.3541C116.005 59.3756 109.061 61.7771 102.738 65.7673L126.24 103.002ZM129.397 101.954C130.736 101.765 131.881 101.765 132.882 101.88L137.935 58.14C133.021 57.5723 128.107 57.6682 123.245 58.3541L129.397 101.954ZM132.996 101.893C134.884 102.101 136.455 102.424 137.754 102.801L150.036 60.5172C146.059 59.3619 141.972 58.5848 137.821 58.1272L132.996 101.893ZM137.948 102.856C140.096 103.459 141.812 104.035 143.152 104.558L159.165 63.5418C156.221 62.3923 153.095 61.3744 149.842 60.4618L137.948 102.856ZM130.453 76.5682L125.54 90.1643L166.951 105.127L171.864 91.5313L130.453 76.5682ZM214.966 121.915L236.766 118.84C235.067 106.8 223.93 98.4169 211.89 100.116L214.966 121.915ZM216.856 135.311L219.931 157.11C231.971 155.412 240.354 144.275 238.655 132.235L216.856 135.311ZM170.437 141.86L148.638 144.935C150.336 156.975 161.473 165.358 173.513 163.659L170.437 141.86ZM161.119 75.8135L158.043 54.0137C146.003 55.7124 137.62 66.8495 139.319 78.8892L161.119 75.8135ZM206.7 69.3825L228.5 66.3067C226.801 54.2671 215.664 45.884 203.624 47.5827L206.7 69.3825ZM208.59 82.7778L211.666 104.578C223.705 102.879 232.088 91.7417 230.39 79.702L208.59 82.7778ZM178.265 87.0564L175.189 65.2566C163.149 66.9553 154.766 78.0924 156.465 90.1321L178.265 87.0564ZM180.076 99.8935L158.276 102.969C159.975 115.009 171.112 123.392 183.151 121.693L180.076 99.8935ZM206.122 96.2186L227.922 93.1429C226.223 81.1033 215.086 72.7202 203.046 74.4189L206.122 96.2186ZM207.868 108.591L210.943 130.39C222.983 128.692 231.366 117.555 229.667 105.515L207.868 108.591ZM181.821 112.266L178.746 90.4658C166.706 92.1645 158.323 103.302 160.022 115.341L181.821 112.266ZM183.803 126.312L162.003 129.388C163.702 141.427 174.839 149.81 186.879 148.112L183.803 126.312ZM193.166 124.991L195.056 138.386L238.655 132.235L236.766 118.84L193.166 124.991ZM213.78 113.511L167.362 120.06L173.513 163.659L219.931 157.11L213.78 113.511ZM192.237 138.784L182.919 72.7378L139.319 78.8892L148.638 144.935L192.237 138.784ZM164.195 97.6132L209.776 91.1822L203.624 47.5827L158.043 54.0137L164.195 97.6132ZM184.9 72.4582L186.79 85.8535L230.39 79.702L228.5 66.3067L184.9 72.4582ZM205.514 60.978L175.189 65.2566L181.34 108.856L211.666 104.578L205.514 60.978ZM156.465 90.1321L158.276 102.969L201.876 96.8178L200.064 83.9806L156.465 90.1321ZM183.151 121.693L209.198 118.018L203.046 74.4189L177 78.0938L183.151 121.693ZM184.322 99.2944L186.068 111.666L229.667 105.515L227.922 93.1429L184.322 99.2944ZM204.792 86.7909L178.746 90.4658L184.897 134.065L210.943 130.39L204.792 86.7909ZM160.022 115.341L162.003 129.388L205.603 123.236L203.621 109.19L160.022 115.341ZM186.879 148.112L218.042 143.715L211.89 100.116L180.727 104.512L186.879 148.112ZM270.652 114.059L292.452 110.983C290.753 98.9431 279.616 90.5601 267.577 92.2588L270.652 114.059ZM272.542 127.454L275.618 149.254C287.658 147.555 296.041 136.418 294.342 124.378L272.542 127.454ZM226.124 134.003L204.324 137.079C206.023 149.118 217.16 157.501 229.2 155.803L226.124 134.003ZM216.805 67.9567L213.73 46.1569C201.69 47.8556 193.307 58.9927 195.006 71.0324L216.805 67.9567ZM262.387 61.5257L284.186 58.45C282.488 46.4103 271.351 38.0272 259.311 39.7259L262.387 61.5257ZM264.277 74.921L267.352 96.7207C279.392 95.022 287.775 83.8849 286.076 71.8452L264.277 74.921ZM233.951 79.1996L230.875 57.3998C218.836 59.0985 210.453 70.2356 212.151 82.2753L233.951 79.1996ZM235.762 92.0367L213.963 95.1124C215.661 107.152 226.798 115.535 238.838 113.836L235.762 92.0367ZM261.809 88.3619L283.608 85.2861C281.91 73.2465 270.773 64.8634 258.733 66.5621L261.809 88.3619ZM263.554 100.734L266.63 122.534C278.67 120.835 287.053 109.698 285.354 97.6582L263.554 100.734ZM237.508 104.409L234.432 82.609C222.392 84.3077 214.009 95.4448 215.708 107.484L237.508 104.409ZM239.49 118.455L217.69 121.531C219.389 133.571 230.526 141.954 242.565 140.255L239.49 118.455ZM248.853 117.134L250.743 130.53L294.342 124.378L292.452 110.983L248.853 117.134ZM269.467 105.654L223.048 112.203L229.2 155.803L275.618 149.254L269.467 105.654ZM247.924 130.927L238.605 64.881L195.006 71.0324L204.324 137.079L247.924 130.927ZM219.881 89.7565L265.462 83.3254L259.311 39.7259L213.73 46.1569L219.881 89.7565ZM240.587 64.6014L242.477 77.9967L286.076 71.8452L284.186 58.45L240.587 64.6014ZM261.201 53.1212L230.875 57.3998L237.027 100.999L267.352 96.7207L261.201 53.1212ZM212.151 82.2753L213.963 95.1124L257.562 88.961L255.751 76.1239L212.151 82.2753ZM238.838 113.836L264.884 110.162L258.733 66.5621L232.687 70.237L238.838 113.836ZM240.009 91.4376L241.755 103.81L285.354 97.6582L283.608 85.2861L240.009 91.4376ZM260.479 78.9341L234.432 82.609L240.584 126.209L266.63 122.534L260.479 78.9341ZM215.708 107.484L217.69 121.531L261.289 115.38L259.308 101.333L215.708 107.484ZM242.565 140.255L273.728 135.858L267.577 92.2588L236.414 96.6555L242.565 140.255ZM281.81 126.146L260.011 129.222C261.709 141.262 272.846 149.645 284.886 147.946L281.81 126.146ZM272.492 60.0999L269.416 38.3002C257.377 39.9988 248.994 51.136 250.692 63.1756L272.492 60.0999ZM315.912 58.5277L307.107 78.7056C307.207 78.7496 307.308 78.7927 307.41 78.8352L315.912 58.5277ZM328.662 68.8728L310.478 81.2831C310.498 81.3131 310.519 81.3431 310.539 81.373L328.662 68.8728ZM333.094 102.972L312.51 95.161L312.51 95.161L333.094 102.972ZM323.186 116.134L309.986 98.5149C309.954 98.5384 309.923 98.5619 309.892 98.5855L323.186 116.134ZM315.707 77.247L297.171 89.126C297.203 89.1756 297.235 89.225 297.267 89.2744L315.707 77.247ZM308.783 71.2032L299.581 91.2039C299.695 91.2562 299.809 91.3074 299.923 91.3577L308.783 71.2032ZM289.638 71.3428L286.562 49.543C274.522 51.2417 266.139 62.3788 267.838 74.4185L289.638 71.3428ZM295.176 110.598L273.376 113.674C275.075 125.714 286.212 134.097 298.252 132.398L295.176 110.598ZM313.612 105.436L328.171 121.951C328.202 121.923 328.233 121.896 328.264 121.868L313.612 105.436ZM318.568 97.526L339.667 103.813C339.684 103.758 339.7 103.704 339.716 103.649L318.568 97.526ZM303.61 123.07L294.292 57.0242L250.692 63.1756L260.011 129.222L303.61 123.07ZM275.568 81.8997L300.219 78.4217L294.067 34.8222L269.416 38.3002L275.568 81.8997ZM300.219 78.4217C304.545 77.8113 306.489 78.4359 307.107 78.7056L324.718 38.3498C314.822 34.031 304.253 33.3851 294.067 34.8222L300.219 78.4217ZM307.41 78.8352C308.871 79.447 309.729 80.1868 310.478 81.2831L346.847 56.4625C341.216 48.2124 333.575 42.0554 324.415 38.2203L307.41 78.8352ZM310.539 81.373C311.599 82.9093 312.493 84.9593 312.919 87.9816L356.519 81.8302C355.23 72.6976 352.086 64.0588 346.785 56.3727L310.539 81.373ZM312.919 87.9816C313.441 91.6787 313.001 93.8673 312.51 95.161L353.677 110.782C357.244 101.384 357.887 91.5285 356.519 81.8302L312.919 87.9816ZM312.51 95.161C311.963 96.6039 311.221 97.5896 309.986 98.5149L336.387 133.753C344.304 127.821 350.167 120.032 353.677 110.782L312.51 95.161ZM309.892 98.5855C308.871 99.3589 306.991 100.36 303.386 100.868L309.537 144.468C319.203 143.104 328.473 139.749 336.481 133.682L309.892 98.5855ZM303.386 100.868L278.735 104.346L284.886 147.946L309.537 144.468L303.386 100.868ZM340.984 84.022C340.078 77.5968 337.995 71.1185 334.147 65.2195L297.267 89.2744C297.132 89.0664 297.111 88.9736 297.148 89.0792C297.189 89.1945 297.295 89.5362 297.385 90.1734L340.984 84.022ZM334.243 65.368C330.288 59.1965 324.722 54.161 317.642 51.0488L299.923 91.3577C299.317 91.0913 298.705 90.7088 298.161 90.2346C297.627 89.7684 297.314 89.3487 297.171 89.126L334.243 65.368ZM317.984 51.2025C310.657 47.8317 303.025 47.2203 295.957 48.2174L302.109 91.817C302.277 91.7932 302.063 91.8428 301.556 91.7811C301.024 91.7164 300.328 91.5475 299.581 91.2039L317.984 51.2025ZM295.957 48.2174L286.562 49.543L292.713 93.1425L302.109 91.817L295.957 48.2174ZM267.838 74.4185L273.376 113.674L316.976 107.523L311.437 68.2671L267.838 74.4185ZM298.252 132.398L307.647 131.073L301.496 87.4731L292.101 88.7987L298.252 132.398ZM307.647 131.073C314.676 130.081 321.982 127.407 328.171 121.951L299.054 88.9208C299.784 88.2772 300.495 87.8771 301.021 87.6539C301.519 87.4425 301.73 87.4401 301.496 87.4731L307.647 131.073ZM328.264 121.868C333.816 116.918 337.613 110.708 339.667 103.813L297.47 91.239C297.529 91.0402 297.673 90.6574 297.965 90.1909C298.261 89.7186 298.614 89.3128 298.961 89.0033L328.264 121.868ZM339.716 103.649C341.612 97.0999 341.892 90.4591 340.984 84.022L297.385 90.1734C297.459 90.6987 297.457 91.0295 297.447 91.1974C297.442 91.283 297.434 91.3371 297.429 91.3648C297.427 91.3792 297.425 91.3888 297.424 91.3942C297.422 91.3997 297.422 91.4023 297.421 91.4029L339.716 103.649ZM130.91 224.189L109.11 227.265C110.809 239.305 121.946 247.688 133.986 245.989L130.91 224.189ZM121.591 158.143L118.516 136.343C106.476 138.042 98.0929 149.179 99.7916 161.219L121.591 158.143ZM136.847 155.991L158.647 152.915C156.948 140.875 145.811 132.492 133.771 134.191L136.847 155.991ZM144.276 208.642L122.476 211.717C124.175 223.757 135.312 232.14 147.351 230.441L144.276 208.642ZM176.275 204.127L198.075 201.051C196.377 189.011 185.239 180.628 173.2 182.327L176.275 204.127ZM178.165 217.522L181.241 239.322C193.281 237.623 201.664 226.486 199.965 214.446L178.165 217.522ZM152.71 221.114L143.391 155.067L99.7916 161.219L109.11 227.265L152.71 221.114ZM124.667 179.943L139.923 177.79L133.771 134.191L118.516 136.343L124.667 179.943ZM115.047 159.066L122.476 211.717L166.075 205.566L158.647 152.915L115.047 159.066ZM147.351 230.441L179.351 225.927L173.2 182.327L141.2 186.842L147.351 230.441ZM154.476 207.203L156.366 220.598L199.965 214.446L198.075 201.051L154.476 207.203ZM175.09 195.722L127.834 202.39L133.986 245.989L181.241 239.322L175.09 195.722ZM185.325 216.512L163.525 219.588C165.223 231.627 176.361 240.01 188.4 238.312L185.325 216.512ZM176.006 150.466L172.93 128.666C160.891 130.365 152.508 141.502 154.206 153.541L176.006 150.466ZM191.262 148.313L213.062 145.238C211.363 133.198 200.226 124.815 188.186 126.514L191.262 148.313ZM200.58 214.36L203.656 236.159C215.696 234.461 224.079 223.324 222.38 211.284L200.58 214.36ZM207.124 213.436L197.806 147.39L154.206 153.541L163.525 219.588L207.124 213.436ZM179.082 172.266L194.338 170.113L188.186 126.514L172.93 128.666L179.082 172.266ZM169.462 151.389L178.781 217.435L222.38 211.284L213.062 145.238L169.462 151.389ZM197.505 192.56L182.249 194.712L188.4 238.312L203.656 236.159L197.505 192.56ZM223.14 172.657L238.237 156.633C231.432 150.223 221.321 148.808 213.019 153.106C204.717 157.404 200.035 166.476 201.341 175.733L223.14 172.657ZM228.469 210.425L231.545 232.225C243.584 230.526 251.967 219.389 250.269 207.349L228.469 210.425ZM213.213 212.577L191.414 215.653C193.112 227.693 204.249 236.076 216.289 234.377L213.213 212.577ZM203.895 146.531L200.819 124.731C188.779 126.43 180.396 137.567 182.095 149.607L203.895 146.531ZM215.988 144.825L231.216 128.925C226.341 124.257 219.595 122.082 212.912 123.025L215.988 144.825ZM252.078 179.39L236.851 195.29C243.626 201.779 253.77 203.262 262.119 198.983C270.468 194.704 275.189 185.604 273.878 176.315L252.078 179.39ZM246.592 140.507L243.517 118.707C231.477 120.406 223.094 131.543 224.793 143.583L246.592 140.507ZM261.848 138.354L283.648 135.279C281.949 123.239 270.812 114.856 258.772 116.555L261.848 138.354ZM271.167 204.401L274.242 226.2C286.282 224.502 294.665 213.365 292.966 201.325L271.167 204.401ZM258.701 206.159L243.605 222.184C248.471 226.768 255.157 228.893 261.777 227.959L258.701 206.159ZM201.341 175.733L206.669 213.501L250.269 207.349L244.94 169.582L201.341 175.733ZM225.393 188.625L210.138 190.777L216.289 234.377L231.545 232.225L225.393 188.625ZM235.013 209.501L225.695 143.455L182.095 149.607L191.414 215.653L235.013 209.501ZM206.971 168.331L219.064 166.625L212.912 123.025L200.819 124.731L206.971 168.331ZM200.76 160.724L236.851 195.29L267.306 163.491L231.216 128.925L200.76 160.724ZM273.878 176.315L268.392 137.431L224.793 143.583L230.279 182.466L273.878 176.315ZM249.668 162.307L264.924 160.154L258.772 116.555L243.517 118.707L249.668 162.307ZM240.048 141.43L249.367 207.476L292.966 201.325L283.648 135.279L240.048 141.43ZM268.091 182.601L255.626 184.36L261.777 227.959L274.242 226.2L268.091 182.601ZM273.798 190.135L238.237 156.633L208.044 188.682L243.605 222.184L273.798 190.135ZM299.243 198.447L293.359 219.662C293.456 219.688 293.552 219.715 293.649 219.74L299.243 198.447ZM288.119 192.901L274.516 210.211C274.575 210.258 274.635 210.304 274.695 210.35L288.119 192.901ZM279.726 183.174L260.516 193.928C260.581 194.045 260.647 194.16 260.714 194.275L279.726 183.174ZM276.053 156.464L297.334 162.103L297.334 162.103L276.053 156.464ZM281.546 144.968L299.271 158.026L299.271 158.026L281.546 144.968ZM290.967 136.428L302.275 155.318C302.322 155.29 302.37 155.261 302.417 155.232L290.967 136.428ZM320.267 133.622L312.299 154.146L312.299 154.146L320.267 133.622ZM332.076 142.677L347.657 158.231C355.192 150.683 356.233 138.82 350.128 130.075L332.076 142.677ZM321.935 152.836L303.918 165.49C307.657 170.813 313.56 174.211 320.041 174.771C326.523 175.33 332.92 172.994 337.516 168.39L321.935 152.836ZM314.452 146.871L305.873 167.147C305.939 167.175 306.004 167.202 306.069 167.229L314.452 146.871ZM298.321 148.199L310.599 166.473C310.673 166.423 310.747 166.372 310.821 166.321L298.321 148.199ZM293.529 153.239L274.813 141.646C274.8 141.667 274.787 141.688 274.774 141.71L293.529 153.239ZM290.98 160.05L312.633 164.026L312.633 164.026L290.98 160.05ZM293.291 175.758L273.812 186.018L273.812 186.018L293.291 175.758ZM297.811 181.572L283.308 198.135C283.404 198.219 283.501 198.302 283.598 198.385L297.811 181.572ZM303.877 184.89L297.378 205.925C297.455 205.949 297.533 205.972 297.611 205.995L303.877 184.89ZM319.945 181.769L333.057 199.454C333.101 199.422 333.145 199.389 333.189 199.356L319.945 181.769ZM326.947 173.571L348.747 170.495C347.434 161.188 340.356 153.741 331.128 151.956C321.899 150.171 312.555 154.442 307.866 162.589L326.947 173.571ZM329.073 188.641L346.663 201.88C350.174 197.215 351.689 191.347 350.873 185.565L329.073 188.641ZM325.886 172.772L347.686 169.696C345.987 157.657 334.85 149.273 322.81 150.972L325.886 172.772ZM313.049 174.583L291.249 177.659C292.948 189.698 304.085 198.082 316.124 196.383L313.049 174.583ZM311.487 163.513L308.411 141.714C296.371 143.412 287.988 154.549 289.687 166.589L311.487 163.513ZM336.975 159.917L358.775 156.842C357.076 144.802 345.939 136.419 333.899 138.117L336.975 159.917ZM341.844 194.429L344.92 216.228C356.96 214.53 365.343 203.393 363.644 191.353L341.844 194.429ZM329.193 196.214L307.393 199.289C309.092 211.329 320.229 219.712 332.269 218.013L329.193 196.214ZM308.788 177.333C307.22 177.555 305.966 177.45 304.837 177.154L293.649 219.74C300.666 221.583 307.825 221.937 314.939 220.933L308.788 177.333ZM305.127 177.232C303.76 176.853 302.616 176.276 301.544 175.451L274.695 210.35C280.293 214.656 286.564 217.777 293.359 219.662L305.127 177.232ZM301.723 175.591C300.665 174.759 299.665 173.661 298.739 172.074L260.714 194.275C264.291 200.402 268.887 205.787 274.516 210.211L301.723 175.591ZM298.937 172.42C298.243 171.181 297.542 169.344 297.152 166.579L253.552 172.731C254.597 180.137 256.813 187.313 260.516 193.928L298.937 172.42ZM297.152 166.579C296.888 164.708 297.021 163.285 297.334 162.103L254.772 150.824C252.856 158.053 252.522 165.424 253.552 172.731L297.152 166.579ZM297.334 162.103C297.749 160.538 298.385 159.228 299.271 158.026L263.821 131.91C259.611 137.625 256.586 143.979 254.772 150.824L297.334 162.103ZM299.271 158.026C300.066 156.948 301.014 156.073 302.275 155.318L279.66 117.538C273.455 121.252 268.123 126.07 263.821 131.91L299.271 158.026ZM302.417 155.232C303.494 154.577 304.834 154.049 306.699 153.786L300.547 110.186C293.11 111.236 286.013 113.669 279.518 117.624L302.417 155.232ZM306.699 153.786C309.576 153.38 311.259 153.742 312.299 154.146L328.235 113.099C319.238 109.606 309.825 108.877 300.547 110.186L306.699 153.786ZM312.299 154.146C313.586 154.645 313.872 155.062 314.024 155.279L350.128 130.075C344.572 122.116 336.986 116.497 328.235 113.099L312.299 154.146ZM316.495 127.124L306.353 137.283L337.516 168.39L347.657 158.231L316.495 127.124ZM339.951 140.183C335.612 134.006 329.759 129.365 322.834 126.514L306.069 167.229C305.785 167.112 305.367 166.892 304.916 166.532C304.463 166.171 304.131 165.792 303.918 165.49L339.951 140.183ZM323.03 126.596C316.29 123.744 309.102 122.831 301.905 123.846L308.057 167.446C307.828 167.478 307.452 167.498 306.989 167.438C306.524 167.378 306.138 167.259 305.873 167.147L323.03 126.596ZM301.905 123.846C296.222 124.648 290.741 126.682 285.82 130.076L310.821 166.321C310.364 166.636 309.858 166.904 309.334 167.104C308.815 167.303 308.371 167.401 308.057 167.446L301.905 123.846ZM286.042 129.925C281.374 133.062 277.639 137.083 274.813 141.646L312.245 164.832C312.138 165.006 311.946 165.276 311.649 165.588C311.349 165.904 310.994 166.207 310.599 166.473L286.042 129.925ZM274.774 141.71C271.989 146.24 270.237 151.114 269.326 156.074L312.633 164.026C312.646 163.957 312.641 164.014 312.584 164.166C312.526 164.32 312.43 164.531 312.284 164.768L274.774 141.71ZM269.326 156.074C268.395 161.144 268.38 166.197 269.073 171.11L312.673 164.959C312.624 164.615 312.616 164.38 312.618 164.24C312.62 164.103 312.631 164.037 312.633 164.026L269.326 156.074ZM269.073 171.11C269.791 176.199 271.298 181.245 273.812 186.018L312.769 165.498C312.809 165.574 312.81 165.593 312.789 165.527C312.768 165.458 312.718 165.278 312.673 164.959L269.073 171.11ZM273.812 186.018C276.176 190.505 279.312 194.636 283.308 198.135L312.314 165.008C312.491 165.163 312.622 165.309 312.708 165.42C312.792 165.528 312.806 165.567 312.769 165.498L273.812 186.018ZM283.598 198.385C287.657 201.816 292.303 204.357 297.378 205.925L310.376 163.856C310.632 163.935 310.93 164.055 311.241 164.225C311.552 164.396 311.816 164.582 312.024 164.758L283.598 198.385ZM297.611 205.995C303.217 207.66 308.882 207.936 314.325 207.168L308.174 163.568C308.261 163.556 308.506 163.531 308.877 163.555C309.253 163.579 309.687 163.65 310.143 163.785L297.611 205.995ZM314.325 207.168C321.224 206.194 327.555 203.534 333.057 199.454L306.833 164.084C306.9 164.035 307.084 163.912 307.376 163.791C307.671 163.669 307.954 163.599 308.174 163.568L314.325 207.168ZM333.189 199.356C338.635 195.255 342.83 190.11 346.028 184.553L307.866 162.589C307.103 163.916 306.629 164.237 306.701 164.183L333.189 199.356ZM305.148 176.647L307.274 191.716L350.873 185.565L348.747 170.495L305.148 176.647ZM311.484 175.401C310.183 177.129 309.499 177.233 308.788 177.333L314.939 220.933C328.119 219.073 338.909 212.182 346.663 201.88L311.484 175.401ZM322.81 150.972L309.973 152.783L316.124 196.383L328.961 194.572L322.81 150.972ZM334.848 171.507L333.287 160.438L289.687 166.589L291.249 177.659L334.848 171.507ZM314.563 185.313L340.051 181.717L333.899 138.117L308.411 141.714L314.563 185.313ZM315.175 162.993L320.045 197.504L363.644 191.353L358.775 156.842L315.175 162.993ZM338.769 172.629L326.117 174.414L332.269 218.013L344.92 216.228L338.769 172.629ZM350.993 193.138L347.686 169.696L304.086 175.848L307.393 199.289L350.993 193.138Z" fill="#139D3D"/>
</svg>
