<svg width="350" height="272" viewBox="0 0 350 272" fill="none" xmlns="http://www.w3.org/2000/svg">
<mask id="path-1-outside-1_1533_1089" maskUnits="userSpaceOnUse" x="-0.431641" y="0.889648" width="351" height="270" fill="black">
<rect fill="white" x="-0.431641" y="0.889648" width="351" height="270"/>
<path fill-rule="evenodd" clip-rule="evenodd" d="M142.36 81.8778C142.861 81.6434 143.134 81.0947 143.03 80.5509C141.378 71.8752 142.068 62.18 143.76 51.881C150.428 11.3156 184.373 6.62116 209.699 25.6664C215.77 30.551 221.155 36.0441 225.361 41.9918C225.697 42.468 226.325 42.6406 226.854 42.3937L239.702 36.3899C240.328 36.0973 241.07 36.3976 241.319 37.0424C242.946 41.2663 244.568 45.3349 246.187 49.2608C246.48 49.9696 247.359 50.2168 247.984 49.7724C272.191 32.5536 295.824 21.4942 317.787 65.1593C329.159 87.7688 337.021 137.183 316.946 160.248C316.552 160.701 316.536 161.375 316.924 161.834C318.763 164.008 320.629 166.207 322.524 168.439C327.018 173.733 331.672 179.216 336.513 185.017C336.934 185.521 336.853 186.283 336.349 186.703C278.56 234.952 249.402 248.561 184.466 257.627C183.949 257.699 183.433 257.427 183.212 256.954C180.626 251.418 178.112 246.036 175.674 240.769C175.536 240.47 175.279 240.241 174.966 240.138L59.8476 202.226C59.2171 202.019 58.5397 202.368 58.3254 202.997C53.5294 217.058 43.303 226.409 32.8082 225.06C19.9154 223.402 11.4999 206.222 14.0117 186.688C16.5236 167.153 29.0115 152.661 41.9044 154.319C51.0627 155.496 57.9619 164.506 60.2899 176.629C60.3921 177.161 60.8313 177.568 61.3712 177.614L99.5749 180.882C99.9076 180.91 100.237 180.798 100.483 180.571C101.531 179.607 102.548 178.673 103.537 177.765C117.966 164.515 126.411 156.759 138.052 139.988C138.242 139.714 138.311 139.369 138.237 139.044C134.737 123.562 132.088 106.955 130.387 88.3409C130.341 87.8419 130.614 87.3668 131.067 87.1547L142.36 81.8778ZM221.511 43.4017C221.923 43.9947 221.688 44.8078 221.034 45.1134L149.53 78.5271C148.876 78.8329 148.101 78.4907 147.91 77.7942C145.279 68.1846 146.104 57.5992 151.028 48.0444C161.454 27.8125 186.306 19.8628 206.538 30.2883C212.743 33.4857 217.793 38.0399 221.511 43.4017ZM106.299 179.439C105.529 180.14 105.957 181.428 106.994 181.516L150.199 185.212C151.068 185.286 151.719 184.432 151.421 183.613C147.121 171.787 143.351 159.801 140.168 147.133C139.932 146.195 138.732 145.909 138.098 146.64C125.803 160.808 118.67 168.183 106.299 179.439ZM250.748 59.9656C250.55 59.5147 250.664 58.966 251.017 58.6225C284.775 25.7949 305.011 53.7283 313.261 75.1586C325.473 101.292 320.691 121.334 300.148 139.539C299.642 139.988 298.857 139.919 298.438 139.388C281.157 117.487 265.975 94.536 250.748 59.9656Z"/>
</mask>
<path fill-rule="evenodd" clip-rule="evenodd" d="M142.36 81.8778C142.861 81.6434 143.134 81.0947 143.03 80.5509C141.378 71.8752 142.068 62.18 143.76 51.881C150.428 11.3156 184.373 6.62116 209.699 25.6664C215.77 30.551 221.155 36.0441 225.361 41.9918C225.697 42.468 226.325 42.6406 226.854 42.3937L239.702 36.3899C240.328 36.0973 241.07 36.3976 241.319 37.0424C242.946 41.2663 244.568 45.3349 246.187 49.2608C246.48 49.9696 247.359 50.2168 247.984 49.7724C272.191 32.5536 295.824 21.4942 317.787 65.1593C329.159 87.7688 337.021 137.183 316.946 160.248C316.552 160.701 316.536 161.375 316.924 161.834C318.763 164.008 320.629 166.207 322.524 168.439C327.018 173.733 331.672 179.216 336.513 185.017C336.934 185.521 336.853 186.283 336.349 186.703C278.56 234.952 249.402 248.561 184.466 257.627C183.949 257.699 183.433 257.427 183.212 256.954C180.626 251.418 178.112 246.036 175.674 240.769C175.536 240.47 175.279 240.241 174.966 240.138L59.8476 202.226C59.2171 202.019 58.5397 202.368 58.3254 202.997C53.5294 217.058 43.303 226.409 32.8082 225.06C19.9154 223.402 11.4999 206.222 14.0117 186.688C16.5236 167.153 29.0115 152.661 41.9044 154.319C51.0627 155.496 57.9619 164.506 60.2899 176.629C60.3921 177.161 60.8313 177.568 61.3712 177.614L99.5749 180.882C99.9076 180.91 100.237 180.798 100.483 180.571C101.531 179.607 102.548 178.673 103.537 177.765C117.966 164.515 126.411 156.759 138.052 139.988C138.242 139.714 138.311 139.369 138.237 139.044C134.737 123.562 132.088 106.955 130.387 88.3409C130.341 87.8419 130.614 87.3668 131.067 87.1547L142.36 81.8778ZM221.511 43.4017C221.923 43.9947 221.688 44.8078 221.034 45.1134L149.53 78.5271C148.876 78.8329 148.101 78.4907 147.91 77.7942C145.279 68.1846 146.104 57.5992 151.028 48.0444C161.454 27.8125 186.306 19.8628 206.538 30.2883C212.743 33.4857 217.793 38.0399 221.511 43.4017ZM106.299 179.439C105.529 180.14 105.957 181.428 106.994 181.516L150.199 185.212C151.068 185.286 151.719 184.432 151.421 183.613C147.121 171.787 143.351 159.801 140.168 147.133C139.932 146.195 138.732 145.909 138.098 146.64C125.803 160.808 118.67 168.183 106.299 179.439ZM250.748 59.9656C250.55 59.5147 250.664 58.966 251.017 58.6225C284.775 25.7949 305.011 53.7283 313.261 75.1586C325.473 101.292 320.691 121.334 300.148 139.539C299.642 139.988 298.857 139.919 298.438 139.388C281.157 117.487 265.975 94.536 250.748 59.9656Z" fill="#139D3D"/>
<path d="M143.76 51.881L130.838 49.7572L130.838 49.7572L143.76 51.881ZM209.699 25.6664L217.907 15.463L217.74 15.3289L217.569 15.2002L209.699 25.6664ZM317.787 65.1593L329.486 59.2749L329.486 59.2749L317.787 65.1593ZM322.524 168.439L332.508 159.964L332.508 159.964L322.524 168.439ZM32.8082 225.06L31.1381 238.048L31.1382 238.048L32.8082 225.06ZM14.0117 186.688L1.02342 185.017L1.02342 185.017L14.0117 186.688ZM41.9044 154.319L43.5744 141.33L43.5744 141.33L41.9044 154.319ZM103.537 177.765L94.6794 168.12L94.6794 168.12L103.537 177.765ZM151.028 48.0444L162.669 54.0428L162.669 54.0428L151.028 48.0444ZM206.538 30.2883L200.54 41.929L200.54 41.929L206.538 30.2883ZM313.261 75.1586L301.04 79.8631L301.204 80.289L301.397 80.7025L313.261 75.1586ZM251.017 58.6225L241.888 49.2343L251.017 58.6225ZM250.748 59.9656L238.764 65.244L250.748 59.9656ZM150.199 185.212L151.315 172.165L150.199 185.212ZM151.421 183.613L163.728 179.138L151.421 183.613ZM221.034 45.1134L215.49 33.2496L221.034 45.1134ZM221.511 43.4017L232.272 35.9388L221.511 43.4017ZM149.53 78.5271L143.986 66.6633L149.53 78.5271ZM147.91 77.7942L135.28 81.2525L147.91 77.7942ZM130.387 88.3409L143.427 87.1488L143.427 87.1488L130.387 88.3409ZM131.067 87.1547L125.524 75.2909L131.067 87.1547ZM138.052 139.988L127.294 132.522L138.052 139.988ZM138.237 139.044L151.01 136.156L138.237 139.044ZM99.5749 180.882L100.691 167.834L99.5749 180.882ZM100.483 180.571L109.35 190.208L100.483 180.571ZM175.674 240.769L163.79 246.269L175.674 240.769ZM174.966 240.138L170.87 252.576L174.966 240.138ZM184.466 257.627L182.656 244.657L184.466 257.627ZM183.212 256.954L195.076 251.41L183.212 256.954ZM336.513 185.017L326.459 193.408L336.513 185.017ZM336.349 186.703L327.956 176.651L336.349 186.703ZM300.148 139.539L291.463 129.738L300.148 139.539ZM298.438 139.388L288.157 147.499L298.438 139.388ZM316.946 160.248L326.824 168.846L316.946 160.248ZM316.924 161.834L326.921 153.376L316.924 161.834ZM60.2899 176.629L47.4296 179.098L60.2899 176.629ZM61.3712 177.614L62.4873 164.566L61.3712 177.614ZM246.187 49.2608L234.081 54.2534L246.187 49.2608ZM247.984 49.7724L255.574 60.4433L247.984 49.7724ZM140.168 147.133L152.868 143.941L140.168 147.133ZM138.098 146.64L128.208 138.057L138.098 146.64ZM239.702 36.3899L245.246 48.2537L239.702 36.3899ZM241.319 37.0424L253.538 32.3344L241.319 37.0424ZM106.994 181.516L108.11 168.469L106.994 181.516ZM106.299 179.439L97.486 169.753L106.299 179.439ZM225.361 41.9918L236.053 34.4317L225.361 41.9918ZM226.854 42.3937L221.31 30.5299L226.854 42.3937ZM59.8476 202.226L63.9438 189.788L59.8476 202.226ZM58.3254 202.997L70.7195 207.224L58.3254 202.997ZM143.03 80.5509L130.166 83.0004L143.03 80.5509ZM142.36 81.8778L136.816 70.014L142.36 81.8778ZM130.838 49.7572C129.059 60.5829 128.085 72.0723 130.166 83.0004L155.894 78.1014C154.671 71.6781 155.076 63.7771 156.682 54.0048L130.838 49.7572ZM217.569 15.2002C202.503 3.87064 183.382 -1.51221 165.861 3.90975C147.53 9.58235 134.771 25.8325 130.838 49.7572L156.682 54.0048C159.417 37.3641 166.964 30.9843 173.604 28.9296C181.053 26.6243 191.568 28.4169 201.828 36.1325L217.569 15.2002ZM236.053 34.4317C231.02 27.3134 224.739 20.9588 217.907 15.463L201.49 35.8697C206.802 40.1432 211.29 44.7748 214.668 49.552L236.053 34.4317ZM232.398 54.2575L245.246 48.2537L234.158 24.526L221.31 30.5299L232.398 54.2575ZM229.099 41.7504C230.762 46.0657 232.421 50.2292 234.081 54.2534L258.293 44.2682C256.715 40.4406 255.131 36.467 253.538 32.3344L229.099 41.7504ZM255.574 60.4433C268.024 51.5873 276.52 47.4099 283.121 47.7156C287.755 47.9302 295.929 50.847 306.088 71.0436L329.486 59.2749C317.681 35.8065 303.057 22.4204 284.333 21.5532C267.575 20.777 252.15 30.7386 240.393 39.1014L255.574 60.4433ZM306.088 71.0436C310.839 80.4885 315.277 96.6615 316.079 113.168C316.902 130.106 313.753 143.971 307.068 151.651L326.824 168.846C340.214 153.46 343.171 131.086 342.239 111.897C341.286 92.2782 336.107 72.4396 329.486 59.2749L306.088 71.0436ZM306.926 170.291C308.774 172.476 310.647 174.682 312.541 176.913L332.508 159.964C330.612 157.731 328.753 155.541 326.921 153.376L306.926 170.291ZM312.541 176.913C317.039 182.212 321.658 187.655 326.459 193.408L346.568 176.627C341.686 170.777 336.997 165.253 332.508 159.964L312.541 176.913ZM327.956 176.651C299.338 200.545 278.632 215.148 257.547 224.993C236.587 234.78 214.505 240.211 182.656 244.657L186.277 270.596C219.363 265.977 244.328 260.07 268.628 248.724C292.803 237.436 315.571 221.11 344.742 196.756L327.956 176.651ZM195.076 251.41C192.488 245.872 189.984 240.511 187.559 235.269L163.79 246.269C166.239 251.561 168.763 256.964 171.349 262.498L195.076 251.41ZM179.062 227.7L63.9438 189.788L55.7514 214.664L170.87 252.576L179.062 227.7ZM45.9312 198.769C44.1258 204.063 41.4985 207.827 39.059 209.971C36.656 212.083 35.095 212.151 34.4783 212.072L31.1382 238.048C41.0162 239.318 49.8158 235.385 56.3487 229.644C62.8451 223.934 67.729 215.992 70.7195 207.224L45.9312 198.769ZM34.4783 212.072C33.7871 211.983 31.5704 211.261 29.3933 206.817C27.271 202.484 26.0245 195.944 27 188.358L1.02342 185.017C-0.512867 196.965 1.1924 208.783 5.87311 218.338C10.499 227.782 18.9365 236.479 31.1381 238.048L34.4783 212.072ZM27 188.358C27.9756 180.771 30.836 174.759 33.9854 171.104C37.216 167.355 39.5431 167.218 40.2343 167.307L43.5744 141.33C31.3728 139.761 21.0095 146.041 14.145 154.008C7.19913 162.068 2.55971 173.07 1.02342 185.017L27 188.358ZM40.2343 167.307C40.8075 167.381 41.9712 167.74 43.4692 169.595C45.0222 171.519 46.585 174.7 47.4296 179.098L73.1501 174.159C70.3638 159.65 60.9887 143.57 43.5744 141.33L40.2343 167.307ZM60.2551 190.661L98.4588 193.929L100.691 167.834L62.4873 164.566L60.2551 190.661ZM109.35 190.208C110.392 189.249 111.405 188.319 112.394 187.41L94.6794 168.12C93.6912 169.027 92.6694 169.965 91.6156 170.935L109.35 190.208ZM112.394 187.41C126.942 174.051 136.296 165.484 148.81 147.455L127.294 132.522C116.526 148.035 108.99 154.979 94.6794 168.12L112.394 187.41ZM151.01 136.156C147.644 121.267 145.08 105.229 143.427 87.1488L117.346 89.5329C119.096 108.682 121.83 125.857 125.464 141.932L151.01 136.156ZM136.611 99.0185L147.904 93.7416L136.816 70.014L125.524 75.2909L136.611 99.0185ZM155.074 90.391L226.578 56.9772L215.49 33.2496L143.986 66.6633L155.074 90.391ZM139.387 42.0459C132.903 54.6304 131.816 68.6025 135.28 81.2525L160.541 74.336C158.742 67.7667 159.306 60.5679 162.669 54.0428L139.387 42.0459ZM212.537 18.6477C185.876 4.90935 153.126 15.3851 139.387 42.0459L162.669 54.0428C169.781 40.2398 186.737 34.8163 200.54 41.929L212.537 18.6477ZM232.272 35.9388C227.361 28.8586 220.693 22.8505 212.537 18.6477L200.54 41.929C204.793 44.1208 208.224 47.2213 210.751 50.8646L232.272 35.9388ZM151.315 172.165L108.11 168.469L105.878 194.564L149.083 198.26L151.315 172.165ZM127.467 150.324C130.773 163.477 134.68 175.894 139.114 188.088L163.728 179.138C159.562 167.681 155.929 156.124 152.868 143.941L127.467 150.324ZM115.111 189.125C127.913 177.478 135.403 169.726 147.988 155.223L128.208 138.057C116.203 151.891 109.428 158.888 97.486 169.753L115.111 189.125ZM325.482 70.4541C321.086 59.0348 312.525 42.8918 297.919 35.0172C290.075 30.788 280.808 29.1449 270.702 31.6259C260.94 34.0225 251.365 40.0187 241.888 49.2343L260.147 68.0106C267.549 60.8125 273.163 57.99 276.946 57.0611C280.387 56.2165 283.024 56.741 285.49 58.0705C291.505 61.3133 297.186 69.8521 301.04 79.8631L325.482 70.4541ZM308.834 149.339C320.487 139.012 328.809 127.14 331.798 113.037C334.791 98.9174 332.045 84.4229 325.125 69.6146L301.397 80.7025C306.689 92.0275 307.658 100.621 306.177 107.607C304.692 114.61 300.352 121.861 291.463 129.738L308.834 149.339ZM238.764 65.244C254.5 100.971 270.296 124.863 288.157 147.499L308.718 131.276C292.017 110.111 277.449 88.1006 262.732 54.6871L238.764 65.244ZM241.888 49.2343C237.736 53.2715 236.292 59.6329 238.764 65.244L262.732 54.6871C264.807 59.3964 263.592 64.6605 260.147 68.0106L241.888 49.2343ZM149.083 198.26C159.529 199.153 167.279 188.904 163.728 179.138L139.114 188.088C136.159 179.961 142.606 171.42 151.315 172.165L149.083 198.26ZM226.578 56.9772C234.304 53.3666 237.48 43.4487 232.272 35.9388L210.751 50.8646C206.365 44.5406 209.071 36.2491 215.49 33.2496L226.578 56.9772ZM143.986 66.6633C150.41 63.6615 158.508 66.9125 160.541 74.336L135.28 81.2525C137.694 90.0689 147.342 94.0042 155.074 90.391L143.986 66.6633ZM143.427 87.1488C143.884 92.1418 141.163 96.8916 136.611 99.0185L125.524 75.2909C120.064 77.8421 116.798 83.542 117.346 89.5329L143.427 87.1488ZM148.81 147.455C151.067 144.202 151.903 140.107 151.01 136.156L125.464 141.932C124.718 138.631 125.416 135.227 127.294 132.522L148.81 147.455ZM98.4588 193.929C102.453 194.271 106.404 192.919 109.35 190.208L91.6156 170.935C94.0705 168.676 97.3627 167.549 100.691 167.834L98.4588 193.929ZM187.559 235.269C185.897 231.679 182.821 228.938 179.062 227.7L170.87 252.576C167.737 251.545 165.174 249.26 163.79 246.269L187.559 235.269ZM182.656 244.657C187.684 243.955 192.8 246.539 195.076 251.41L171.349 262.498C174.067 268.314 180.215 271.443 186.277 270.596L182.656 244.657ZM326.459 193.408C322.085 188.166 323.105 180.702 327.956 176.651L344.742 196.756C350.601 191.864 351.783 182.876 346.568 176.627L326.459 193.408ZM291.463 129.738C296.573 125.209 304.462 125.883 308.718 131.276L288.157 147.499C293.252 153.955 302.71 154.766 308.834 149.339L291.463 129.738ZM307.068 151.651C302.578 156.81 302.219 164.727 306.926 170.291L326.921 153.376C330.853 158.023 330.525 164.593 326.824 168.846L307.068 151.651ZM47.4296 179.098C48.6046 185.217 53.7022 190.101 60.2551 190.661L62.4873 164.566C67.9603 165.034 72.1796 169.105 73.1501 174.159L47.4296 179.098ZM234.081 54.2534C237.632 62.8633 248.187 65.6983 255.574 60.4433L240.393 39.1014C246.531 34.7353 255.327 37.0759 258.293 44.2682L234.081 54.2534ZM152.868 143.941C150.045 132.707 135.764 129.349 128.208 138.057L147.988 155.223C141.7 162.47 129.819 159.682 127.467 150.324L152.868 143.941ZM245.246 48.2537C238.977 51.1831 231.572 48.1686 229.099 41.7504L253.538 32.3344C250.569 24.6267 241.679 21.0116 234.158 24.526L245.246 48.2537ZM108.11 168.469C118.638 169.369 122.66 182.257 115.111 189.125L97.486 169.753C88.3969 178.022 93.2757 193.486 105.878 194.564L108.11 168.469ZM214.668 49.552C218.592 55.1017 226.018 57.2386 232.398 54.2575L221.31 30.5299C226.633 28.0426 232.802 29.8342 236.053 34.4317L214.668 49.552ZM63.9438 189.788C56.2863 187.266 48.3911 191.557 45.9312 198.769L70.7195 207.224C68.6882 213.18 62.1479 216.771 55.7514 214.664L63.9438 189.788ZM130.166 83.0004C129.179 77.8156 131.75 72.3815 136.816 70.014L147.904 93.7416C153.973 90.9053 157.089 84.3739 155.894 78.1014L130.166 83.0004Z" fill="#020887" mask="url(#path-1-outside-1_1533_1089)"/>
<path d="M153.571 184.748C186.31 196.653 191.071 216.891 177.975 241.295" stroke="#A5F200" stroke-width="2.38095" stroke-dasharray="2.38 2.38"/>
<path d="M61.3096 177.605C61.3096 182.367 61.9041 194.272 59.5236 202.01" stroke="#A5F200" stroke-width="2.38095" stroke-dasharray="2.38 2.38"/>
<path d="M201.786 54.3913C216.663 47.4177 225.004 43.5078 239.881 36.5342C258.929 81.4189 285.12 132.014 335.715 185.344C275.596 238.32 235.119 249.034 207.739 253.201C308.334 194.272 222.01 126.917 201.786 54.3913Z" fill="#138B37" fill-opacity="0.46"/>
<path d="M244.048 45.4624L146.429 91.891" stroke="#A5F200" stroke-width="2.38095" stroke-dasharray="2.38 2.38"/>
<ellipse cx="30.357" cy="203.201" rx="1.78571" ry="2.97619" fill="#A5F200"/>
<ellipse cx="32.7379" cy="188.915" rx="1.78571" ry="2.97619" fill="#A5F200"/>
<ellipse cx="38.69" cy="196.058" rx="1.78571" ry="2.97619" fill="#A5F200"/>
<ellipse cx="45.8336" cy="200.82" rx="1.78571" ry="2.97619" fill="#A5F200"/>
<ellipse cx="38.69" cy="209.153" rx="1.78571" ry="2.97619" fill="#A5F200"/>
<ellipse cx="50.5953" cy="192.486" rx="1.78571" ry="2.97619" fill="#A5F200"/>
<ellipse cx="41.0718" cy="180.582" rx="1.78571" ry="2.97619" fill="#A5F200"/>
<ellipse cx="27.9761" cy="171.058" rx="1.78571" ry="2.97619" fill="#A5F200"/>
<ellipse cx="41.0718" cy="167.486" rx="1.78571" ry="2.97619" fill="#A5F200"/>
<ellipse cx="50.5953" cy="179.391" rx="1.78571" ry="2.97619" fill="#A5F200"/>
<ellipse cx="31.5474" cy="178.201" rx="1.78571" ry="2.97619" fill="#A5F200"/>
<ellipse cx="22.024" cy="186.534" rx="1.78571" ry="2.97619" fill="#A5F200"/>
<ellipse cx="22.024" cy="197.248" rx="1.78571" ry="2.97619" fill="#A5F200"/>
<ellipse cx="27.9761" cy="212.724" rx="1.78571" ry="2.97619" fill="#A5F200"/>
</svg>
