<svg width="450" height="447" viewBox="0 0 450 447" fill="none" xmlns="http://www.w3.org/2000/svg">
<path d="M200.45 130.354C200.867 129.97 201.509 130.09 201.797 130.578L221.499 163.985C221.636 164.218 221.662 164.495 221.567 164.747C200.537 220.568 192.224 312.136 182.112 390.675C182.056 391.113 181.688 391.439 181.247 391.448L49.8251 393.985C49.2949 393.995 48.8742 393.532 48.9235 393.005C61.9334 253.637 156.919 170.389 200.45 130.354Z" fill="#80B0F8" fill-opacity="0.34"/>
<path d="M221.884 405.88C221.884 422.746 174.41 436.419 115.847 436.419C57.2841 436.419 9.80957 422.746 9.80957 405.88C9.80957 389.014 57.2841 375.341 115.847 375.341C174.41 375.341 221.884 389.014 221.884 405.88Z" fill="#80B0F8"/>
<path d="M216.795 404.183C216.795 420.112 171.979 433.026 116.696 433.026C61.4122 433.026 16.5963 420.112 16.5963 404.183C16.5963 388.254 61.4122 375.341 116.696 375.341C171.979 375.341 216.795 388.254 216.795 404.183Z" fill="#609AF0"/>
<path d="M196.435 399.094C196.435 412.212 160.354 422.846 115.847 422.846C71.3389 422.846 35.2583 412.212 35.2583 399.094C35.2583 385.976 71.3392 375.341 115.847 375.341C160.355 375.341 196.435 385.976 196.435 399.094Z" fill="#3F7CD7"/>
<path d="M177.773 394.004C177.773 404.311 150.048 412.666 115.847 412.666C81.6464 412.666 53.9212 404.311 53.9212 394.004C53.9212 383.697 81.6462 375.341 115.847 375.341C150.048 375.341 177.773 383.697 177.773 394.004Z" fill="#0E1380"/>
<path d="M162.503 388.261C162.503 396.334 141.235 402.878 114.998 402.878C88.7623 402.878 67.4937 396.334 67.4937 388.261C67.4937 380.189 88.7623 373.645 114.998 373.645C141.235 373.645 162.503 380.189 162.503 388.261Z" fill="url(#paint0_linear_1534_1208)"/>
<path d="M110.718 362.094C110.873 362.182 111.072 362.111 111.138 361.945V361.945C114.653 354.783 119.091 352.377 123.659 349.902C129.293 346.847 135.124 343.686 139.659 331.358C139.921 330.645 140.887 330.539 141.235 331.214C145.451 339.402 148.114 353.581 141.697 365.493C136.722 374.718 130.242 379.218 125.357 380.396C123.903 380.746 122.487 380.856 121.14 380.754C120.706 380.721 120.298 380.982 120.142 381.389C118.25 386.327 113.131 389.295 107.317 387.894C103.015 386.857 97.3089 382.895 92.928 374.771C87.3308 364.38 89.579 352.03 93.2316 344.79C93.5735 344.112 94.5376 344.217 94.8028 344.928C98.7842 355.606 103.883 358.37 108.812 361.042C109.451 361.388 110.087 361.733 110.718 362.094Z" fill="url(#paint1_linear_1534_1208)"/>
<path d="M193.065 130.484C149.583 170.349 63.3625 249.398 45.7321 377.922C43.5875 378.451 41.5125 379.004 39.5119 379.58C29.674 382.413 21.3565 385.88 15.3864 389.945C9.57957 393.899 4.91257 399.197 4.91257 405.88C4.91257 412.563 9.57957 417.861 15.3864 421.815C21.3565 425.88 29.674 429.347 39.5119 432.18C59.2537 437.866 86.2407 441.316 115.847 441.316C145.453 441.316 172.44 437.866 192.182 432.18C202.02 429.347 210.337 425.88 216.307 421.815C222.114 417.861 226.781 412.563 226.781 405.88C226.781 399.197 222.114 393.899 216.307 389.945C210.337 385.88 202.02 382.413 192.182 379.58C191.006 379.242 189.805 378.911 188.579 378.588C189.701 369.602 190.808 360.499 191.922 351.342C195.233 324.112 198.602 296.41 202.588 269.92C208.551 230.285 215.828 193.871 226.15 166.474C226.778 164.805 226.592 162.981 225.717 161.497L206.015 128.09C204.269 125.13 200.025 124.092 197.135 126.75C195.825 127.954 194.467 129.199 193.065 130.484Z" stroke="white" stroke-width="9.794"/>
<mask id="path-3-outside-1_1534_1208" maskUnits="userSpaceOnUse" x="188.03" y="0.0932617" width="262" height="202" fill="black">
<rect fill="white" x="188.03" y="0.0932617" width="262" height="202"/>
<path fill-rule="evenodd" clip-rule="evenodd" d="M294.353 60.195C294.728 60.0197 294.932 59.6093 294.854 59.2026C293.618 52.7137 294.134 45.4623 295.4 37.7593C300.387 7.42019 325.774 3.90921 344.716 18.1532C349.257 21.8067 353.285 25.9153 356.43 30.3639C356.682 30.72 357.152 30.8491 357.547 30.6645L367.157 26.1736C367.625 25.9549 368.181 26.1794 368.366 26.6617C369.583 29.8199 370.796 32.862 372.006 35.7974C372.225 36.3275 372.883 36.5123 373.35 36.18C391.453 23.3031 409.128 15.0343 425.553 47.6899C434.059 64.5991 439.938 101.554 424.926 118.806C424.631 119.145 424.619 119.648 424.909 119.991C426.283 121.615 427.677 123.257 429.091 124.923L429.1 124.934C432.461 128.893 435.942 132.994 439.563 137.333C439.877 137.71 439.817 138.279 439.44 138.594C396.219 174.68 374.412 184.857 325.846 191.638C325.459 191.692 325.073 191.488 324.908 191.134C322.974 186.995 321.093 182.969 319.271 179.03C319.167 178.807 318.975 178.636 318.741 178.559L232.643 150.204C232.171 150.049 231.664 150.31 231.504 150.78C227.917 161.296 220.269 168.29 212.42 167.281C202.777 166.041 196.483 153.192 198.362 138.582C200.24 123.972 209.58 113.133 219.223 114.373C226.073 115.254 231.232 121.993 232.974 131.059C233.05 131.457 233.378 131.761 233.782 131.796L262.354 134.24C262.603 134.261 262.849 134.177 263.033 134.008C263.817 133.287 264.578 132.588 265.317 131.909C276.109 121.999 282.426 116.198 291.132 103.654C291.274 103.449 291.326 103.191 291.271 102.948C288.653 91.3694 286.672 78.9495 285.4 65.0281C285.365 64.6549 285.569 64.2996 285.909 64.141L294.353 60.195ZM353.551 31.4184C353.858 31.8619 353.683 32.4701 353.194 32.6986L299.716 57.689C299.226 57.9176 298.647 57.6617 298.504 57.1408C296.536 49.9536 297.154 42.0366 300.836 34.8904C308.633 19.7589 327.221 13.8133 342.352 21.6106C346.993 24.0019 350.77 27.4082 353.551 31.4184ZM267.383 133.161C266.807 133.685 267.127 134.648 267.903 134.715L300.217 137.479C300.867 137.535 301.354 136.896 301.132 136.283C297.915 127.438 295.095 118.473 292.715 108.998C292.538 108.296 291.641 108.083 291.167 108.629C281.97 119.227 276.636 124.742 267.383 133.161ZM375.418 43.8049C375.269 43.4676 375.355 43.0573 375.619 42.8004C400.866 18.2508 416 39.1418 422.17 55.1693C431.303 74.7139 427.727 89.7035 412.365 103.318C411.986 103.654 411.399 103.603 411.085 103.205C398.161 86.8256 386.806 69.6605 375.418 43.8049Z"/>
</mask>
<path fill-rule="evenodd" clip-rule="evenodd" d="M294.353 60.195C294.728 60.0197 294.932 59.6093 294.854 59.2026C293.618 52.7137 294.134 45.4623 295.4 37.7593C300.387 7.42019 325.774 3.90921 344.716 18.1532C349.257 21.8067 353.285 25.9153 356.43 30.3639C356.682 30.72 357.152 30.8491 357.547 30.6645L367.157 26.1736C367.625 25.9549 368.181 26.1794 368.366 26.6617C369.583 29.8199 370.796 32.862 372.006 35.7974C372.225 36.3275 372.883 36.5123 373.35 36.18C391.453 23.3031 409.128 15.0343 425.553 47.6899C434.059 64.5991 439.938 101.554 424.926 118.806C424.631 119.145 424.619 119.648 424.909 119.991C426.283 121.615 427.677 123.257 429.091 124.923L429.1 124.934C432.461 128.893 435.942 132.994 439.563 137.333C439.877 137.71 439.817 138.279 439.44 138.594C396.219 174.68 374.412 184.857 325.846 191.638C325.459 191.692 325.073 191.488 324.908 191.134C322.974 186.995 321.093 182.969 319.271 179.03C319.167 178.807 318.975 178.636 318.741 178.559L232.643 150.204C232.171 150.049 231.664 150.31 231.504 150.78C227.917 161.296 220.269 168.29 212.42 167.281C202.777 166.041 196.483 153.192 198.362 138.582C200.24 123.972 209.58 113.133 219.223 114.373C226.073 115.254 231.232 121.993 232.974 131.059C233.05 131.457 233.378 131.761 233.782 131.796L262.354 134.24C262.603 134.261 262.849 134.177 263.033 134.008C263.817 133.287 264.578 132.588 265.317 131.909C276.109 121.999 282.426 116.198 291.132 103.654C291.274 103.449 291.326 103.191 291.271 102.948C288.653 91.3694 286.672 78.9495 285.4 65.0281C285.365 64.6549 285.569 64.2996 285.909 64.141L294.353 60.195ZM353.551 31.4184C353.858 31.8619 353.683 32.4701 353.194 32.6986L299.716 57.689C299.226 57.9176 298.647 57.6617 298.504 57.1408C296.536 49.9536 297.154 42.0366 300.836 34.8904C308.633 19.7589 327.221 13.8133 342.352 21.6106C346.993 24.0019 350.77 27.4082 353.551 31.4184ZM267.383 133.161C266.807 133.685 267.127 134.648 267.903 134.715L300.217 137.479C300.867 137.535 301.354 136.896 301.132 136.283C297.915 127.438 295.095 118.473 292.715 108.998C292.538 108.296 291.641 108.083 291.167 108.629C281.97 119.227 276.636 124.742 267.383 133.161ZM375.418 43.8049C375.269 43.4676 375.355 43.0573 375.619 42.8004C400.866 18.2508 416 39.1418 422.17 55.1693C431.303 74.7139 427.727 89.7035 412.365 103.318C411.986 103.654 411.399 103.603 411.085 103.205C398.161 86.8256 386.806 69.6605 375.418 43.8049Z" fill="#139D3D"/>
<path d="M295.4 37.7593L285.736 36.1709L285.736 36.1709L295.4 37.7593ZM344.716 18.1532L350.855 10.5221L350.73 10.4217L350.602 10.3255L344.716 18.1532ZM425.553 47.6899L416.804 52.0909L416.804 52.0909L425.553 47.6899ZM429.091 124.923L436.562 118.59L436.558 118.585L429.091 124.923ZM429.1 124.934L421.63 131.267L421.634 131.272L429.1 124.934ZM212.42 167.281L211.171 176.995L211.171 176.995L212.42 167.281ZM198.362 138.582L188.648 137.333L198.362 138.582ZM219.223 114.373L217.974 124.087L217.974 124.087L219.223 114.373ZM265.317 131.909L258.693 124.695L258.693 124.695L265.317 131.909ZM300.836 34.8904L309.542 39.3767L309.542 39.3767L300.836 34.8904ZM342.352 21.6106L346.839 12.9045L346.839 12.9045L342.352 21.6106ZM422.17 55.1693L413.03 58.6878L413.153 59.0064L413.297 59.3157L422.17 55.1693ZM412.365 103.318L418.861 110.648L412.365 103.318ZM411.085 103.205L418.774 97.1385L411.085 103.205ZM353.194 32.6986L357.34 41.5716L353.194 32.6986ZM353.551 31.4184L345.503 36.9999L353.551 31.4184ZM298.504 57.1408L289.058 59.7274L298.504 57.1408ZM285.4 65.0281L295.153 64.1366L285.4 65.0281ZM285.909 64.141L290.055 73.014L285.909 64.141ZM291.132 103.654L283.086 98.0699L291.132 103.654ZM291.271 102.948L281.718 105.108L291.271 102.948ZM232.974 131.059L242.592 129.212L232.974 131.059ZM233.782 131.796L234.617 122.038L233.782 131.796ZM232.643 150.204L229.579 159.506L232.643 150.204ZM231.504 150.78L222.235 147.618L231.504 150.78ZM325.846 191.638L327.2 201.338L325.846 191.638ZM324.908 191.134L316.035 195.281L324.908 191.134ZM439.563 137.333L447.083 131.058L439.563 137.333ZM439.44 138.594L433.163 131.076L439.44 138.594ZM263.033 134.008L256.401 126.801L263.033 134.008ZM375.619 42.8004L368.792 35.7787L375.619 42.8004ZM375.418 43.8049L384.381 39.8572L375.418 43.8049ZM424.926 118.806L417.538 112.377L424.926 118.806ZM424.909 119.991L432.387 113.666L424.909 119.991ZM292.715 108.998L283.216 111.385L292.715 108.998ZM291.167 108.629L283.77 102.21L291.167 108.629ZM372.006 35.7974L362.952 39.5313L372.006 35.7974ZM373.35 36.18L379.027 44.1609L373.35 36.18ZM267.383 133.161L273.974 140.405L267.383 133.161ZM367.157 26.1736L371.303 35.0466L367.157 26.1736ZM368.366 26.6617L359.227 30.1828L368.366 26.6617ZM300.217 137.479L301.052 127.721L300.217 137.479ZM301.132 136.283L291.927 139.63L301.132 136.283ZM356.43 30.3639L348.433 36.018L356.43 30.3639ZM357.547 30.6645L353.4 21.7915L353.4 21.7915L357.547 30.6645ZM319.271 179.03L310.382 183.144L319.271 179.03ZM318.741 178.559L321.805 169.256L318.741 178.559ZM294.854 59.2026L285.233 61.0348L294.854 59.2026ZM294.353 60.195L290.207 51.322L294.353 60.195ZM285.736 36.1709C284.405 44.2678 283.677 52.8613 285.233 61.0348L304.475 57.3704C303.56 52.5662 303.863 46.6568 305.064 39.3477L285.736 36.1709ZM350.602 10.3255C339.334 1.85209 325.034 -2.17377 311.93 1.88134C298.22 6.12391 288.677 18.2775 285.736 36.1709L305.064 39.3477C307.11 26.902 312.754 22.1305 317.72 20.5939C323.292 18.8697 331.156 20.2103 338.829 25.9809L350.602 10.3255ZM364.427 24.7098C360.663 19.3856 355.964 14.6327 350.855 10.5221L338.577 25.7844C342.55 28.9807 345.907 32.4449 348.433 36.018L364.427 24.7098ZM361.693 39.5375L371.303 35.0466L363.011 17.3006L353.4 21.7915L361.693 39.5375ZM359.227 30.1828C360.47 33.4093 361.711 36.5224 362.952 39.5313L381.061 32.0634C379.88 29.2015 378.696 26.2305 377.505 23.1405L359.227 30.1828ZM379.027 44.1609C388.338 37.5382 394.691 34.4148 399.627 34.6437C403.093 34.8045 409.206 36.9864 416.804 52.0909L434.303 43.289C425.475 25.7378 414.538 15.7263 400.535 15.0768C388.002 14.4954 376.466 21.9448 367.673 28.199L379.027 44.1609ZM416.804 52.0909C420.357 59.1545 423.676 71.2497 424.276 83.5947C424.892 96.2619 422.537 106.632 417.538 112.377L432.314 125.235C442.328 113.728 444.539 96.9944 443.841 82.6439C443.128 67.9712 439.255 53.1345 434.303 43.289L416.804 52.0909ZM417.432 126.317C418.812 127.948 420.211 129.596 421.625 131.261L436.558 118.585C435.142 116.917 433.754 115.282 432.387 113.666L417.432 126.317ZM421.621 131.257L421.63 131.267L436.571 118.6L436.562 118.59L421.621 131.257ZM421.634 131.272C424.998 135.235 428.453 139.305 432.043 143.608L447.083 131.058C443.431 126.683 439.925 122.551 436.567 118.596L421.634 131.272ZM433.163 131.076C411.759 148.946 396.273 159.868 380.504 167.231C364.828 174.551 348.312 178.612 324.492 181.938L327.2 201.338C351.946 197.883 370.617 193.466 388.791 184.98C406.872 176.537 423.9 164.327 445.717 146.112L433.163 131.076ZM333.781 186.988C331.846 182.847 329.973 178.837 328.159 174.917L310.382 183.144C312.214 187.102 314.101 191.143 316.035 195.281L333.781 186.988ZM321.805 169.256L235.706 140.901L229.579 159.506L315.677 187.861L321.805 169.256ZM222.235 147.618C220.884 151.577 218.919 154.393 217.095 155.996C215.298 157.576 214.13 157.626 213.669 157.567L211.171 176.995C218.559 177.945 225.14 175.003 230.026 170.709C234.884 166.439 238.537 160.499 240.774 153.942L222.235 147.618ZM213.669 157.567C213.152 157.5 211.494 156.961 209.866 153.637C208.279 150.397 207.346 145.505 208.076 139.831L188.648 137.333C187.499 146.269 188.774 155.107 192.275 162.254C195.735 169.317 202.045 175.822 211.171 176.995L213.669 157.567ZM208.076 139.831C208.806 134.157 210.945 129.661 213.3 126.927C215.716 124.123 217.457 124.021 217.974 124.087L220.472 104.659C211.346 103.486 203.596 108.183 198.462 114.141C193.267 120.169 189.797 128.397 188.648 137.333L208.076 139.831ZM217.974 124.087C218.403 124.142 219.273 124.411 220.393 125.799C221.555 127.237 222.724 129.617 223.355 132.906L242.592 129.212C240.508 118.361 233.496 106.334 220.472 104.659L217.974 124.087ZM232.948 141.554L261.519 143.998L263.189 124.482L234.617 122.038L232.948 141.554ZM269.665 141.215C270.444 140.498 271.201 139.803 271.942 139.123L258.693 124.695C257.954 125.374 257.189 126.076 256.401 126.801L269.665 141.215ZM271.942 139.123C282.823 129.131 289.818 122.724 299.178 109.239L283.086 98.0699C275.033 109.673 269.396 114.867 258.693 124.695L271.942 139.123ZM300.824 100.788C298.306 89.6529 296.389 77.658 295.153 64.1366L275.646 65.9196C276.955 80.2411 279 93.0859 281.718 105.108L300.824 100.788ZM290.055 73.014L298.499 69.068L290.207 51.322L281.762 55.268L290.055 73.014ZM303.862 66.562L357.34 41.5716L349.047 23.8256L295.569 48.816L303.862 66.562ZM292.13 30.4042C287.28 39.8163 286.467 50.2663 289.058 59.7274L307.951 54.5543C306.605 49.641 307.027 44.2569 309.542 39.3767L292.13 30.4042ZM346.839 12.9045C326.899 2.62951 302.405 10.4644 292.13 30.4042L309.542 39.3767C314.862 29.0534 327.543 24.9971 337.866 30.3167L346.839 12.9045ZM361.599 25.837C357.926 20.5415 352.939 16.0479 346.839 12.9045L337.866 30.3167C341.047 31.956 343.613 34.275 345.503 36.9999L361.599 25.837ZM301.052 127.721L268.738 124.956L267.068 144.473L299.383 147.237L301.052 127.721ZM283.216 111.385C285.688 121.223 288.611 130.51 291.927 139.63L310.336 132.936C307.22 124.367 304.503 115.723 302.213 106.611L283.216 111.385ZM273.974 140.405C283.549 131.694 289.15 125.896 298.564 115.049L283.77 102.21C274.791 112.557 269.723 117.791 260.792 125.917L273.974 140.405ZM431.31 51.6508C428.023 43.1104 421.62 31.0373 410.697 25.1477C404.83 21.9846 397.9 20.7555 390.342 22.6106C383.04 24.4027 375.879 28.8869 368.792 35.7787L382.447 49.822C387.983 44.4391 392.181 42.3285 395.011 41.634C397.584 41.0025 399.556 41.3948 401.4 42.3891C405.899 44.8146 410.148 51.2007 413.03 58.6878L431.31 51.6508ZM418.861 110.648C427.576 102.924 433.799 94.0452 436.034 83.4982C438.273 72.938 436.218 62.0978 431.043 51.023L413.297 59.3157C417.255 67.7854 417.979 74.2123 416.872 79.4368C415.762 84.6746 412.516 90.0977 405.869 95.9887L418.861 110.648ZM366.455 47.7526C378.224 74.4735 390.038 92.3424 403.396 109.272L418.774 97.1385C406.283 81.3089 395.388 64.8474 384.381 39.8572L366.455 47.7526ZM405.869 95.9887C409.691 92.6015 415.591 93.1048 418.774 97.1385L403.396 109.272C407.206 114.101 414.281 114.707 418.861 110.648L405.869 95.9887ZM357.34 41.5716C363.119 38.8712 365.494 31.4537 361.599 25.837L345.503 36.9999C342.223 32.2702 344.247 26.069 349.047 23.8256L357.34 41.5716ZM295.569 48.816C300.374 46.5709 306.43 49.0023 307.951 54.5543L289.058 59.7274C290.864 66.3211 298.079 69.2644 303.862 66.562L295.569 48.816ZM295.153 64.1366C295.494 67.8708 293.459 71.4232 290.055 73.014L281.762 55.268C277.679 57.176 275.237 61.439 275.646 65.9196L295.153 64.1366ZM299.178 109.239C300.867 106.806 301.492 103.743 300.824 100.788L281.718 105.108C281.16 102.639 281.682 100.093 283.086 98.0699L299.178 109.239ZM223.355 132.906C224.234 137.482 228.047 141.135 232.948 141.554L234.617 122.038C238.71 122.388 241.866 125.432 242.592 129.212L223.355 132.906ZM235.706 140.901C229.979 139.015 224.074 142.224 222.235 147.618L240.774 153.942C239.255 158.396 234.363 161.082 229.579 159.506L235.706 140.901ZM324.492 181.938C328.252 181.413 332.079 183.345 333.781 186.988L316.035 195.281C318.068 199.631 322.667 201.971 327.2 201.338L324.492 181.938ZM432.043 143.608C428.772 139.688 429.534 134.105 433.163 131.076L445.717 146.112C450.099 142.453 450.983 135.732 447.083 131.058L432.043 143.608ZM261.519 143.998C264.506 144.254 267.461 143.243 269.665 141.215L256.401 126.801C258.237 125.111 260.7 124.269 263.189 124.482L261.519 143.998ZM368.792 35.7787C365.687 38.7981 364.606 43.5559 366.455 47.7526L384.381 39.8572C385.932 43.3794 385.024 47.3165 382.447 49.822L368.792 35.7787ZM417.538 112.377C414.18 116.235 413.912 122.156 417.432 126.317L432.387 113.666C435.327 117.141 435.082 122.054 432.314 125.235L417.538 112.377ZM302.213 106.611C300.102 98.2086 289.421 95.6977 283.77 102.21L298.564 115.049C293.861 120.468 284.975 118.384 283.216 111.385L302.213 106.611ZM362.952 39.5313C365.608 45.9707 373.502 48.091 379.027 44.1609L367.673 28.199C372.264 24.9337 378.842 26.6843 381.061 32.0634L362.952 39.5313ZM268.738 124.956C276.612 125.63 279.62 135.269 273.974 140.405L260.792 125.917C253.994 132.101 257.643 143.667 267.068 144.473L268.738 124.956ZM371.303 35.0466C366.615 37.2376 361.077 34.983 359.227 30.1828L377.505 23.1405C375.284 17.3759 368.635 14.6721 363.011 17.3006L371.303 35.0466ZM299.383 147.237C307.196 147.906 312.992 140.24 310.336 132.936L291.927 139.63C289.717 133.551 294.539 127.163 301.052 127.721L299.383 147.237ZM348.433 36.018C351.368 40.1688 356.922 41.7671 361.693 39.5375L353.4 21.7915C357.381 19.9312 361.996 21.2712 364.427 24.7098L348.433 36.018ZM328.159 174.917C326.917 172.232 324.616 170.182 321.805 169.256L315.677 187.861C313.335 187.09 311.418 185.381 310.382 183.144L328.159 174.917ZM285.233 61.0348C284.495 57.1571 286.417 53.0927 290.207 51.322L298.499 69.068C303.039 66.9467 305.369 62.0616 304.475 57.3704L285.233 61.0348Z" fill="white" mask="url(#path-3-outside-1_1534_1208)"/>
<path d="M302.739 137.132C327.224 146.036 330.785 161.172 320.991 179.425" stroke="#A5F200" stroke-width="0.890363" stroke-dasharray="1.78 1.78"/>
<path d="M233.735 131.79C233.735 135.351 234.18 144.255 232.4 150.042" stroke="#A5F200" stroke-width="0.890363" stroke-dasharray="1.78 1.78"/>
<path d="M338.798 39.6367C349.925 34.4211 356.163 31.4969 367.289 26.2812C381.535 59.8507 401.124 97.6912 438.964 137.577C394.001 177.198 363.728 185.211 343.25 188.327C418.485 144.254 353.923 93.8792 338.798 39.6367Z" fill="#138B37" fill-opacity="0.46"/>
<path d="M370.406 32.9595L297.396 67.6837" stroke="#A5F200" stroke-width="0.890363" stroke-dasharray="1.78 1.78"/>
<ellipse cx="210.586" cy="150.932" rx="1.33554" ry="2.22591" fill="#A5F200"/>
<ellipse cx="212.366" cy="140.248" rx="1.33554" ry="2.22591" fill="#A5F200"/>
<ellipse cx="216.82" cy="145.59" rx="1.33554" ry="2.22591" fill="#A5F200"/>
<ellipse cx="222.162" cy="149.152" rx="1.33554" ry="2.22591" fill="#A5F200"/>
<ellipse cx="216.82" cy="155.385" rx="1.33554" ry="2.22591" fill="#A5F200"/>
<ellipse cx="225.722" cy="142.919" rx="1.33554" ry="2.22591" fill="#A5F200"/>
<ellipse cx="218.599" cy="134.015" rx="1.33554" ry="2.22591" fill="#A5F200"/>
<ellipse cx="208.805" cy="126.892" rx="1.33554" ry="2.22591" fill="#A5F200"/>
<ellipse cx="218.599" cy="124.221" rx="1.33554" ry="2.22591" fill="#A5F200"/>
<ellipse cx="225.722" cy="133.125" rx="1.33554" ry="2.22591" fill="#A5F200"/>
<ellipse cx="211.476" cy="132.234" rx="1.33554" ry="2.22591" fill="#A5F200"/>
<ellipse cx="204.353" cy="138.467" rx="1.33554" ry="2.22591" fill="#A5F200"/>
<ellipse cx="204.353" cy="146.481" rx="1.33554" ry="2.22591" fill="#A5F200"/>
<ellipse cx="208.805" cy="158.056" rx="1.33554" ry="2.22591" fill="#A5F200"/>
<defs>
<linearGradient id="paint0_linear_1534_1208" x1="117.478" y1="-84.0283" x2="117.478" y2="720.199" gradientUnits="userSpaceOnUse">
<stop stop-color="#7B440E"/>
<stop offset="0.374537" stop-color="#BC7026"/>
<stop offset="0.775592" stop-color="#724417"/>
</linearGradient>
<linearGradient id="paint1_linear_1534_1208" x1="105.235" y1="332.057" x2="105.235" y2="388.242" gradientUnits="userSpaceOnUse">
<stop stop-color="#A5F200"/>
<stop offset="1" stop-color="#139D3D"/>
</linearGradient>
</defs>
</svg>
