<svg width="202" height="184" viewBox="0 0 202 184" fill="none" xmlns="http://www.w3.org/2000/svg">
<g filter="url(#filter0_di_316_123)">
<circle cx="152.438" cy="108.263" r="28" fill="#A5F200"/>
<path d="M182.4 110C182.4 113.467 181.717 116.9 180.39 120.103C179.064 123.306 177.119 126.216 174.668 128.668C172.216 131.119 169.306 133.064 166.103 134.39C162.9 135.717 159.467 136.4 156 136.4C152.533 136.4 149.1 135.717 145.897 134.39C142.694 133.064 139.784 131.119 137.332 128.668C134.881 126.216 132.936 123.306 131.61 120.103C130.283 116.9 129.6 113.467 129.6 110C129.6 102.998 132.381 96.2833 137.332 91.3324C142.283 86.3814 148.998 83.6 156 83.6C163.002 83.6 169.717 86.3814 174.668 91.3324C179.619 96.2833 182.4 102.998 182.4 110Z" stroke="#1E1E1E" stroke-width="3.2" stroke-linecap="round" stroke-linejoin="round"/>
<path d="M163.86 110L149.6 118.017V101.985L163.86 110Z" stroke="#1E1E1E" stroke-width="3.2" stroke-linecap="round" stroke-linejoin="round"/>
<path d="M148 78V71V39M126.667 126H112M20 34V28C20 21.3726 25.3726 16 32 16H136C142.627 16 148 21.3726 148 28V34M20 39V81.0869V114C20 120.627 25.3726 126 32 126L33.5758 126M56.8485 126L87.8788 126" stroke="#1E1E1E" stroke-width="3.2"/>
<path d="M18.3999 32.3999L148.4 32.3999" stroke="#1E1E1E" stroke-width="3.2"/>
<path d="M33 24.6001H81" stroke="#1E1E1E" stroke-width="3.2" stroke-linecap="round"/>
<circle cx="123.6" cy="24.6" r="1.6" fill="#1E1E1E"/>
<circle cx="132.8" cy="24.6" r="1.6" fill="#1E1E1E"/>
<g clip-path="url(#clip0_316_123)">
<path d="M26.6 156.667C26.6 154.23 27.5085 151.912 29.0962 150.218C30.6806 148.528 32.8067 147.6 35 147.6H55C57.1933 147.6 59.3194 148.528 60.9038 150.219C62.4915 151.912 63.4 154.23 63.4 156.667C63.4 157.689 63.0183 158.65 62.3683 159.344C61.7215 160.033 60.8672 160.4 60 160.4H30C29.1328 160.4 28.2785 160.033 27.6317 159.344C26.9817 158.65 26.6 157.689 26.6 156.667Z" stroke="#1E1E1E" stroke-width="3.2" stroke-linejoin="round"/>
<path d="M51.4 130C51.4 133.535 48.5346 136.4 45 136.4C41.4654 136.4 38.6 133.535 38.6 130C38.6 126.465 41.4654 123.6 45 123.6C48.5346 123.6 51.4 126.465 51.4 130Z" stroke="#1E1E1E" stroke-width="3.2"/>
</g>
<g clip-path="url(#clip1_316_123)">
<path d="M81.6 156.667C81.6 154.23 82.5085 151.912 84.0962 150.218C85.6806 148.528 87.8067 147.6 90 147.6H110C112.193 147.6 114.319 148.528 115.904 150.219C117.492 151.912 118.4 154.23 118.4 156.667C118.4 157.689 118.018 158.65 117.368 159.344C116.722 160.033 115.867 160.4 115 160.4H85C84.1328 160.4 83.2785 160.033 82.6317 159.344C81.9817 158.65 81.6 157.689 81.6 156.667Z" stroke="#1E1E1E" stroke-width="3.2" stroke-linejoin="round"/>
<path d="M106.4 130C106.4 133.535 103.535 136.4 100 136.4C96.4654 136.4 93.6 133.535 93.6 130C93.6 126.465 96.4654 123.6 100 123.6C103.535 123.6 106.4 126.465 106.4 130Z" stroke="#1E1E1E" stroke-width="3.2"/>
</g>
<circle cx="80" cy="73" r="18" fill="#139D3D"/>
<g clip-path="url(#clip2_316_123)">
<path d="M65.6 85.6667C65.6 83.2299 66.5085 80.9121 68.0962 79.2185C69.6806 77.5284 71.8067 76.6 74 76.6H94C96.1933 76.6 98.3194 77.5284 99.9038 79.2185C101.492 80.9121 102.4 83.2299 102.4 85.6667C102.4 86.6889 102.018 87.6502 101.368 88.3436C100.722 89.0335 99.8672 89.4 99 89.4H69C68.1328 89.4 67.2785 89.0335 66.6317 88.3436C65.9817 87.6502 65.6 86.6889 65.6 85.6667Z" stroke="#1E1E1E" stroke-width="3.2" stroke-linejoin="round"/>
<path d="M90.4 59C90.4 62.5346 87.5346 65.4 84 65.4C80.4654 65.4 77.6 62.5346 77.6 59C77.6 55.4654 80.4654 52.6 84 52.6C87.5346 52.6 90.4 55.4654 90.4 59Z" stroke="#1E1E1E" stroke-width="3.2"/>
</g>
</g>
<defs>
<filter id="filter0_di_316_123" x="-8" y="-8" width="218" height="200" filterUnits="userSpaceOnUse" color-interpolation-filters="sRGB">
<feFlood flood-opacity="0" result="BackgroundImageFix"/>
<feColorMatrix in="SourceAlpha" type="matrix" values="0 0 0 0 0 0 0 0 0 0 0 0 0 0 0 0 0 0 127 0" result="hardAlpha"/>
<feOffset dy="4"/>
<feGaussianBlur stdDeviation="9"/>
<feComposite in2="hardAlpha" operator="out"/>
<feColorMatrix type="matrix" values="0 0 0 0 0 0 0 0 0 0.015577 0 0 0 0 0.3375 0 0 0 0.07 0"/>
<feBlend mode="normal" in2="BackgroundImageFix" result="effect1_dropShadow_316_123"/>
<feBlend mode="normal" in="SourceGraphic" in2="effect1_dropShadow_316_123" result="shape"/>
<feColorMatrix in="SourceAlpha" type="matrix" values="0 0 0 0 0 0 0 0 0 0 0 0 0 0 0 0 0 0 127 0" result="hardAlpha"/>
<feOffset dx="1" dy="1"/>
<feGaussianBlur stdDeviation="18.5"/>
<feComposite in2="hardAlpha" operator="arithmetic" k2="-1" k3="1"/>
<feColorMatrix type="matrix" values="0 0 0 0 0.595833 0 0 0 0 0.595833 0 0 0 0 0.595833 0 0 0 0.22 0"/>
<feBlend mode="normal" in2="shape" result="effect2_innerShadow_316_123"/>
</filter>
<clipPath id="clip0_316_123">
<rect width="40" height="40" fill="white" transform="translate(25 122)"/>
</clipPath>
<clipPath id="clip1_316_123">
<rect width="40" height="40" fill="white" transform="translate(80 122)"/>
</clipPath>
<clipPath id="clip2_316_123">
<rect width="40" height="40" fill="white" transform="translate(64 51)"/>
</clipPath>
</defs>
</svg>
