<svg width="182" height="184" viewBox="0 0 182 184" fill="none" xmlns="http://www.w3.org/2000/svg">
<g filter="url(#filter0_di_316_173)">
<g clip-path="url(#clip0_316_173)">
<path d="M26.6 154C26.6 150.465 29.4654 147.6 33 147.6H54.0909H92.3636H130.636H149C152.535 147.6 155.4 150.465 155.4 154C155.4 157.535 152.535 160.4 149 160.4H33C29.4654 160.4 26.6 157.535 26.6 154Z" stroke="#1E1E1E" stroke-width="3.2"/>
<path d="M143 141V141C143 138.791 141.209 137 139 137H122.229H92.0744H61.9201H43C40.7909 137 39 138.791 39 141V141" stroke="#1E1E1E" stroke-width="3.2"/>
<path d="M116.842 44.2472C116.842 51.8467 113.503 49.4892 111.377 44.2472C108.949 35.4014 103.484 35.729 103.484 35.729C96.805 35.0738 97.049 30.4871 104.091 30.4871C111.133 30.4871 116.842 36.6477 116.842 44.2472Z" fill="#139D3D"/>
<circle cx="91" cy="101" r="16" fill="#A5F200"/>
<mask id="path-5-inside-1_316_173" fill="white">
<path d="M63 128.041C63 127.305 63.597 126.708 64.3333 126.708H75.4675H91.8701H108.273H118.238C118.974 126.708 119.571 127.305 119.571 128.041C119.571 128.778 118.974 129.375 118.238 129.375H64.3333C63.597 129.375 63 128.778 63 128.041Z"/>
</mask>
<path d="M118.238 126.175H64.3333V132.575H118.238V126.175ZM64.3333 129.908H75.4675V123.508H64.3333V129.908ZM108.273 129.908H118.238V123.508H108.273V129.908ZM75.4675 129.908H91.8701V123.508H75.4675V129.908ZM91.8701 129.908H108.273V123.508H91.8701V129.908ZM64.3333 126.175C65.3643 126.175 66.2 127.01 66.2 128.041H59.8C59.8 130.545 61.8296 132.575 64.3333 132.575V126.175ZM116.371 128.041C116.371 127.01 117.207 126.175 118.238 126.175V132.575C120.742 132.575 122.771 130.545 122.771 128.041H116.371ZM122.771 128.041C122.771 125.538 120.742 123.508 118.238 123.508V129.908C117.207 129.908 116.371 129.072 116.371 128.041H122.771ZM66.2 128.041C66.2 129.072 65.3643 129.908 64.3333 129.908V123.508C61.8296 123.508 59.8 125.538 59.8 128.041H66.2Z" fill="#1E1E1E" mask="url(#path-5-inside-1_316_173)"/>
<mask id="path-7-inside-2_316_173" fill="white">
<path d="M89.2543 105.789C86.7272 112.707 91.4684 118.571 97.299 117.054C100.063 116.335 103.729 113.588 106.544 107.955C110.436 100.156 108.423 90.7649 105.752 86C101.118 101.001 93.8137 95.7652 89.2543 105.789Z"/>
</mask>
<path d="M89.2543 105.789L86.2485 104.691L86.2907 104.576L86.3415 104.464L89.2543 105.789ZM97.299 117.054L96.4935 113.957L97.299 117.054ZM106.544 107.955L109.407 109.384L109.406 109.386L106.544 107.955ZM105.752 86L102.694 85.0556L104.896 77.9286L108.543 84.4353L105.752 86ZM92.2601 106.887C91.323 109.452 91.8277 111.493 92.7069 112.67C93.5596 113.813 94.8897 114.374 96.4935 113.957L98.1045 120.151C93.8777 121.25 89.922 119.639 87.5782 116.499C85.2609 113.394 84.6586 109.044 86.2485 104.691L92.2601 106.887ZM96.4935 113.957C98.1034 113.538 101.142 111.606 103.681 106.525L109.406 109.386C106.316 115.57 102.022 119.132 98.1045 120.151L96.4935 113.957ZM103.68 106.526C106.968 99.9398 105.277 91.6969 102.96 87.5647L108.543 84.4353C111.569 89.833 113.905 100.373 109.407 109.384L103.68 106.526ZM108.809 86.9444C107.566 90.9688 106.082 93.8373 104.368 95.999C102.635 98.1842 100.797 99.4803 99.1445 100.491C95.9682 102.433 93.9674 103.156 92.1671 107.114L86.3415 104.464C89.1005 98.3982 93.0317 96.727 95.8059 95.0307C97.1283 94.2221 98.2703 93.3881 99.3529 92.0227C100.454 90.6339 101.621 88.5315 102.694 85.0556L108.809 86.9444Z" fill="#1E1E1E" mask="url(#path-7-inside-2_316_173)"/>
<mask id="path-9-inside-3_316_173" fill="white">
<path d="M88.0564 112.395C90.1659 118.17 86.2082 123.065 81.3412 121.799C79.034 121.199 75.9738 118.906 73.6242 114.204C70.3748 107.694 72.0557 99.8542 74.2854 95.8767C78.1532 108.398 84.2505 104.028 88.0564 112.395Z"/>
</mask>
<path d="M88.0564 112.395L91.0622 111.297L91.0201 111.182L90.9693 111.07L88.0564 112.395ZM81.3412 121.799L82.1467 118.702L81.3412 121.799ZM73.6242 114.204L70.7611 115.633L70.7618 115.634L73.6242 114.204ZM74.2854 95.8767L77.3428 94.9323L75.1414 87.8053L71.494 94.312L74.2854 95.8767ZM85.0507 113.493C85.779 115.487 85.3657 116.999 84.7506 117.823C84.1621 118.612 83.2687 118.994 82.1467 118.702L80.5357 124.896C84.2807 125.87 87.7997 124.438 89.8793 121.652C91.9325 118.901 92.4433 115.079 91.0622 111.297L85.0507 113.493ZM82.1467 118.702C80.9935 118.402 78.5609 116.924 76.4867 112.773L70.7618 115.634C73.3868 120.887 77.0745 123.996 80.5357 124.896L82.1467 118.702ZM76.4874 112.775C73.8432 107.477 75.2018 100.786 77.0767 97.4414L71.494 94.312C68.9097 98.9223 66.9063 107.91 70.7611 115.633L76.4874 112.775ZM71.2279 96.8211C72.2796 100.226 73.5447 102.684 75.0262 104.552C76.5262 106.444 78.1178 107.564 79.5248 108.424C82.2094 110.066 83.72 110.591 85.1436 113.72L90.9693 111.07C88.5869 105.833 85.1459 104.359 82.8634 102.964C81.7868 102.306 80.891 101.648 80.041 100.576C79.1725 99.4802 78.2251 97.7885 77.3428 94.9323L71.2279 96.8211Z" fill="#1E1E1E" mask="url(#path-9-inside-3_316_173)"/>
<line x1="91.6" y1="122" x2="91.6" y2="128" stroke="#1E1E1E" stroke-width="3.2"/>
<path d="M131 130V56C131 33.9086 113.091 16 91 16V16C68.9086 16 51 33.9086 51 56V130" stroke="#1E1E1E" stroke-width="3.2"/>
<path d="M102 33C102 33 106.364 32.8432 110.5 37C114.636 41.1568 115 47.5 115 47.5" stroke="#1E1E1E" stroke-width="3.2" stroke-linecap="round"/>
</g>
</g>
<defs>
<filter id="filter0_di_316_173" x="-18" y="-8" width="218" height="200" filterUnits="userSpaceOnUse" color-interpolation-filters="sRGB">
<feFlood flood-opacity="0" result="BackgroundImageFix"/>
<feColorMatrix in="SourceAlpha" type="matrix" values="0 0 0 0 0 0 0 0 0 0 0 0 0 0 0 0 0 0 127 0" result="hardAlpha"/>
<feOffset dy="4"/>
<feGaussianBlur stdDeviation="9"/>
<feComposite in2="hardAlpha" operator="out"/>
<feColorMatrix type="matrix" values="0 0 0 0 0 0 0 0 0 0.015577 0 0 0 0 0.3375 0 0 0 0.07 0"/>
<feBlend mode="normal" in2="BackgroundImageFix" result="effect1_dropShadow_316_173"/>
<feBlend mode="normal" in="SourceGraphic" in2="effect1_dropShadow_316_173" result="shape"/>
<feColorMatrix in="SourceAlpha" type="matrix" values="0 0 0 0 0 0 0 0 0 0 0 0 0 0 0 0 0 0 127 0" result="hardAlpha"/>
<feOffset dx="1" dy="1"/>
<feGaussianBlur stdDeviation="18.5"/>
<feComposite in2="hardAlpha" operator="arithmetic" k2="-1" k3="1"/>
<feColorMatrix type="matrix" values="0 0 0 0 0.595833 0 0 0 0 0.595833 0 0 0 0 0.595833 0 0 0 0.22 0"/>
<feBlend mode="normal" in2="shape" result="effect2_innerShadow_316_173"/>
</filter>
<clipPath id="clip0_316_173">
<rect width="132" height="148" fill="white" transform="translate(25 14)"/>
</clipPath>
</defs>
</svg>
