<svg width="500" height="500" viewBox="0 0 500 500" fill="none" xmlns="http://www.w3.org/2000/svg">
<mask id="path-1-inside-1_1004_573" fill="white">
<path fill-rule="evenodd" clip-rule="evenodd" d="M257.711 337.374C251.147 326.307 249.548 311.404 255.841 295.439C267.201 272.298 281.543 264.523 296.302 256.523C315.378 246.183 335.148 235.465 350.07 190.703C365.326 215.922 376.828 265.628 354.593 306.906C338.516 336.718 317.577 351.258 301.79 355.063C288.613 358.239 276.409 355.299 267.367 348.318L331.01 276.595L257.711 337.374Z"/>
</mask>
<path fill-rule="evenodd" clip-rule="evenodd" d="M257.711 337.374C251.147 326.307 249.548 311.404 255.841 295.439C267.201 272.298 281.543 264.523 296.302 256.523C315.378 246.183 335.148 235.465 350.07 190.703C365.326 215.922 376.828 265.628 354.593 306.906C338.516 336.718 317.577 351.258 301.79 355.063C288.613 358.239 276.409 355.299 267.367 348.318L331.01 276.595L257.711 337.374Z" fill="white"/>
<path d="M255.841 295.439L252.261 294.028L252.318 293.883L252.386 293.744L255.841 295.439ZM257.711 337.374L260.168 340.337L256.699 343.213L254.401 339.338L257.711 337.374ZM296.302 256.523L298.136 259.907L296.302 256.523ZM350.07 190.703L346.418 189.486L349.052 181.585L353.363 188.711L350.07 190.703ZM354.593 306.906L357.982 308.731L357.981 308.732L354.593 306.906ZM301.79 355.063L302.692 358.805L301.79 355.063ZM267.367 348.318L265.014 351.364L261.753 348.846L264.488 345.763L267.367 348.318ZM331.01 276.595L328.553 273.632L333.889 279.149L331.01 276.595ZM259.422 296.851C253.524 311.812 255.118 325.458 261.021 335.411L254.401 339.338C247.175 327.156 245.572 310.996 252.261 294.028L259.422 296.851ZM298.136 259.907C283.533 267.822 270.104 275.118 259.296 297.135L252.386 293.744C264.298 269.478 279.554 261.224 294.468 253.14L298.136 259.907ZM353.721 191.92C346.125 214.707 337.196 229.116 327.519 239.188C317.865 249.236 307.657 254.746 298.136 259.907L294.468 253.14C304.023 247.96 313.238 242.941 321.968 233.855C330.676 224.792 339.093 211.461 346.418 189.486L353.721 191.92ZM351.205 305.08C372.606 265.35 361.559 217.131 346.777 192.695L353.363 188.711C369.092 214.713 381.05 265.906 357.982 308.731L351.205 305.08ZM300.888 351.322C315.363 347.833 335.512 334.18 351.206 305.079L357.981 308.732C341.52 339.255 319.791 354.684 302.692 358.805L300.888 351.322ZM269.719 345.272C277.812 351.521 288.813 354.232 300.888 351.322L302.692 358.805C288.412 362.246 275.006 359.078 265.014 351.364L269.719 345.272ZM264.488 345.763L328.131 274.04L333.889 279.149L270.245 350.872L264.488 345.763ZM333.466 279.558L260.168 340.337L255.254 334.412L328.553 273.632L333.466 279.558Z" fill="white" mask="url(#path-1-inside-1_1004_573)"/>
<mask id="path-3-inside-2_1004_573" fill="white">
<path fill-rule="evenodd" clip-rule="evenodd" d="M242.289 337.374C248.853 326.307 250.452 311.404 244.159 295.44C232.799 272.298 218.457 264.523 203.698 256.523C184.622 246.183 164.852 235.466 149.93 190.703C134.674 215.922 123.172 265.628 145.407 306.906C161.484 336.718 182.423 351.259 198.21 355.063C211.387 358.239 223.591 355.3 232.633 348.318L168.99 276.595L242.289 337.374Z"/>
</mask>
<path fill-rule="evenodd" clip-rule="evenodd" d="M242.289 337.374C248.853 326.307 250.452 311.404 244.159 295.44C232.799 272.298 218.457 264.523 203.698 256.523C184.622 246.183 164.852 235.466 149.93 190.703C134.674 215.922 123.172 265.628 145.407 306.906C161.484 336.718 182.423 351.259 198.21 355.063C211.387 358.239 223.591 355.3 232.633 348.318L168.99 276.595L242.289 337.374Z" fill="white"/>
<path d="M244.159 295.44L247.739 294.028L247.682 293.883L247.614 293.744L244.159 295.44ZM242.289 337.374L239.832 340.337L243.301 343.213L245.599 339.338L242.289 337.374ZM203.698 256.523L201.864 259.907L203.698 256.523ZM149.93 190.703L153.582 189.486L150.948 181.585L146.637 188.711L149.93 190.703ZM145.407 306.906L142.018 308.731L142.019 308.732L145.407 306.906ZM198.21 355.063L197.308 358.805L198.21 355.063ZM232.633 348.318L234.986 351.364L238.247 348.846L235.512 345.764L232.633 348.318ZM168.99 276.595L171.447 273.632L166.111 279.149L168.99 276.595ZM240.578 296.851C246.476 311.812 244.882 325.458 238.979 335.411L245.599 339.338C252.825 327.156 254.428 310.996 247.739 294.028L240.578 296.851ZM201.864 259.907C216.467 267.823 229.896 275.118 240.704 297.135L247.614 293.744C235.702 269.478 220.446 261.224 205.532 253.14L201.864 259.907ZM146.279 191.92C153.875 214.707 162.804 229.116 172.481 239.188C182.135 249.236 192.343 254.746 201.864 259.907L205.532 253.14C195.977 247.96 186.762 242.941 178.032 233.855C169.324 224.792 160.907 211.461 153.582 189.486L146.279 191.92ZM148.795 305.081C127.394 265.35 138.441 217.131 153.223 192.695L146.637 188.711C130.908 214.713 118.95 265.906 142.018 308.731L148.795 305.081ZM199.112 351.322C184.637 347.833 164.488 334.18 148.794 305.079L142.019 308.732C158.48 339.255 180.209 354.684 197.308 358.805L199.112 351.322ZM230.281 345.272C222.188 351.521 211.187 354.232 199.112 351.322L197.308 358.805C211.588 362.247 224.994 359.078 234.986 351.364L230.281 345.272ZM235.512 345.764L171.869 274.04L166.111 279.149L229.755 350.872L235.512 345.764ZM166.534 279.558L239.832 340.337L244.746 334.412L171.447 273.632L166.534 279.558Z" fill="white" mask="url(#path-3-inside-2_1004_573)"/>
<text fill="white" stroke="white" stroke-width="2.30921" xml:space="preserve" style="white-space: pre" font-family="Raleway" font-size="79.7059" font-weight="bold" letter-spacing="0em"><tspan x="171.607" y="219.136">OLS</tspan></text>
</svg>
