<svg width="500" height="500" viewBox="0 0 500 500" fill="none" xmlns="http://www.w3.org/2000/svg">
<mask id="path-1-inside-1_1004_606" fill="white">
<path fill-rule="evenodd" clip-rule="evenodd" d="M257.711 337.374C251.146 326.307 249.548 311.404 255.841 295.44C267.201 272.298 281.543 264.523 296.302 256.523C315.378 246.183 335.148 235.466 350.07 190.703C365.326 215.922 376.828 265.628 354.593 306.906C338.516 336.718 317.577 351.259 301.79 355.063C288.613 358.239 276.409 355.3 267.366 348.318L331.01 276.595L257.711 337.374Z"/>
</mask>
<path fill-rule="evenodd" clip-rule="evenodd" d="M257.711 337.374C251.146 326.307 249.548 311.404 255.841 295.44C267.201 272.298 281.543 264.523 296.302 256.523C315.378 246.183 335.148 235.466 350.07 190.703C365.326 215.922 376.828 265.628 354.593 306.906C338.516 336.718 317.577 351.259 301.79 355.063C288.613 358.239 276.409 355.3 267.366 348.318L331.01 276.595L257.711 337.374Z" fill="black"/>
<path d="M255.841 295.44L252.261 294.028L252.318 293.883L252.386 293.744L255.841 295.44ZM257.711 337.374L260.168 340.337L256.699 343.213L254.401 339.338L257.711 337.374ZM296.302 256.523L298.136 259.907L296.302 256.523ZM350.07 190.703L346.418 189.486L349.052 181.585L353.363 188.711L350.07 190.703ZM354.593 306.906L357.982 308.731L357.981 308.733L354.593 306.906ZM301.79 355.063L302.692 358.805L301.79 355.063ZM267.367 348.318L265.014 351.364L261.753 348.846L264.488 345.764L267.367 348.318ZM331.01 276.595L328.553 273.632L333.889 279.149L331.01 276.595ZM259.422 296.851C253.524 311.812 255.118 325.458 261.021 335.411L254.401 339.338C247.175 327.156 245.572 310.996 252.261 294.028L259.422 296.851ZM298.136 259.907C283.533 267.823 270.104 275.118 259.296 297.136L252.386 293.744C264.298 269.478 279.554 261.224 294.468 253.14L298.136 259.907ZM353.721 191.92C346.125 214.707 337.196 229.116 327.519 239.188C317.865 249.236 307.657 254.746 298.136 259.907L294.468 253.14C304.023 247.96 313.238 242.941 321.968 233.855C330.676 224.792 339.093 211.461 346.418 189.486L353.721 191.92ZM351.205 305.081C372.606 265.35 361.559 217.131 346.777 192.695L353.363 188.711C369.092 214.713 381.05 265.906 357.982 308.731L351.205 305.081ZM300.888 351.322C315.363 347.833 335.512 334.18 351.206 305.079L357.981 308.733C341.52 339.255 319.791 354.684 302.692 358.805L300.888 351.322ZM269.719 345.272C277.812 351.521 288.813 354.232 300.888 351.322L302.692 358.805C288.412 362.247 275.006 359.078 265.014 351.364L269.719 345.272ZM264.488 345.764L328.131 274.041L333.889 279.149L270.245 350.872L264.488 345.764ZM333.466 279.558L260.168 340.337L255.254 334.412L328.553 273.632L333.466 279.558Z" fill="black" mask="url(#path-1-inside-1_1004_606)"/>
<mask id="path-3-inside-2_1004_606" fill="white">
<path fill-rule="evenodd" clip-rule="evenodd" d="M242.289 337.374C248.854 326.307 250.452 311.404 244.159 295.44C232.799 272.298 218.457 264.523 203.698 256.523C184.622 246.183 164.852 235.466 149.93 190.703C134.674 215.922 123.172 265.628 145.407 306.906C161.484 336.718 182.423 351.259 198.21 355.063C211.387 358.239 223.591 355.3 232.634 348.318L168.99 276.595L242.289 337.374Z"/>
</mask>
<path fill-rule="evenodd" clip-rule="evenodd" d="M242.289 337.374C248.854 326.307 250.452 311.404 244.159 295.44C232.799 272.298 218.457 264.523 203.698 256.523C184.622 246.183 164.852 235.466 149.93 190.703C134.674 215.922 123.172 265.628 145.407 306.906C161.484 336.718 182.423 351.259 198.21 355.063C211.387 358.239 223.591 355.3 232.634 348.318L168.99 276.595L242.289 337.374Z" fill="black"/>
<path d="M244.159 295.44L247.739 294.028L247.682 293.883L247.614 293.744L244.159 295.44ZM242.289 337.374L239.832 340.337L243.301 343.213L245.599 339.338L242.289 337.374ZM203.698 256.523L201.864 259.907L203.698 256.523ZM149.93 190.703L153.582 189.486L150.948 181.585L146.637 188.711L149.93 190.703ZM145.407 306.906L142.018 308.731L142.019 308.733L145.407 306.906ZM198.21 355.063L197.308 358.805L198.21 355.063ZM232.633 348.318L234.986 351.364L238.247 348.846L235.512 345.764L232.633 348.318ZM168.99 276.595L171.447 273.632L166.111 279.149L168.99 276.595ZM240.578 296.851C246.476 311.812 244.882 325.458 238.979 335.411L245.599 339.338C252.825 327.156 254.428 310.996 247.739 294.028L240.578 296.851ZM201.864 259.907C216.467 267.823 229.896 275.118 240.704 297.136L247.614 293.744C235.702 269.478 220.446 261.224 205.532 253.14L201.864 259.907ZM146.279 191.92C153.875 214.707 162.804 229.116 172.481 239.188C182.135 249.236 192.343 254.746 201.864 259.907L205.532 253.14C195.977 247.96 186.762 242.941 178.032 233.855C169.324 224.792 160.907 211.461 153.582 189.486L146.279 191.92ZM148.795 305.081C127.394 265.35 138.441 217.131 153.223 192.695L146.637 188.711C130.908 214.713 118.95 265.906 142.018 308.731L148.795 305.081ZM199.112 351.322C184.637 347.833 164.488 334.18 148.794 305.079L142.019 308.733C158.48 339.255 180.209 354.684 197.308 358.805L199.112 351.322ZM230.281 345.272C222.188 351.521 211.187 354.232 199.112 351.322L197.308 358.805C211.588 362.247 224.994 359.078 234.986 351.364L230.281 345.272ZM235.512 345.764L171.869 274.041L166.111 279.149L229.755 350.872L235.512 345.764ZM166.534 279.558L239.832 340.337L244.746 334.412L171.447 273.632L166.534 279.558Z" fill="black" mask="url(#path-3-inside-2_1004_606)"/>
<path d="M201.657 219.399C197.512 219.399 193.739 218.601 190.338 217.007C186.991 215.413 184.095 213.261 181.65 210.551C179.259 207.788 177.399 204.706 176.071 201.305C174.743 197.851 174.078 194.318 174.078 190.704C174.078 186.932 174.769 183.345 176.151 179.944C177.585 176.49 179.525 173.435 181.969 170.778C184.467 168.068 187.389 165.942 190.737 164.401C194.138 162.807 197.857 162.01 201.896 162.01C205.987 162.01 209.707 162.834 213.055 164.481C216.455 166.128 219.351 168.334 221.742 171.097C224.134 173.86 225.993 176.942 227.322 180.343C228.65 183.743 229.315 187.25 229.315 190.864C229.315 194.583 228.624 198.17 227.242 201.624C225.861 205.025 223.921 208.08 221.424 210.79C218.979 213.447 216.057 215.546 212.656 217.087C209.308 218.628 205.642 219.399 201.657 219.399ZM185.237 190.704C185.237 193.149 185.609 195.513 186.353 197.798C187.097 200.083 188.16 202.129 189.541 203.936C190.976 205.689 192.703 207.097 194.722 208.16C196.795 209.17 199.133 209.674 201.736 209.674C204.393 209.674 206.758 209.143 208.83 208.08C210.902 206.964 212.629 205.503 214.011 203.696C215.393 201.837 216.429 199.791 217.12 197.559C217.863 195.274 218.235 192.989 218.235 190.704C218.235 188.26 217.837 185.922 217.04 183.69C216.296 181.405 215.207 179.386 213.772 177.633C212.39 175.826 210.663 174.418 208.591 173.408C206.572 172.345 204.287 171.814 201.736 171.814C199.026 171.814 196.635 172.372 194.563 173.488C192.544 174.551 190.843 175.985 189.462 177.792C188.08 179.599 187.017 181.618 186.273 183.85C185.583 186.081 185.237 188.366 185.237 190.704ZM237.752 219V162.409H248.752V209.356H277.605V219H237.752ZM318.015 177.234C317.643 176.862 316.952 176.357 315.942 175.72C314.986 175.082 313.79 174.471 312.356 173.886C310.974 173.302 309.46 172.797 307.812 172.372C306.165 171.894 304.491 171.655 302.791 171.655C299.815 171.655 297.557 172.213 296.016 173.328C294.528 174.444 293.784 176.012 293.784 178.031C293.784 179.572 294.262 180.794 295.219 181.698C296.175 182.601 297.61 183.371 299.523 184.009C301.436 184.647 303.827 185.338 306.697 186.081C310.416 186.985 313.631 188.101 316.341 189.429C319.104 190.704 321.203 192.405 322.638 194.53C324.126 196.603 324.87 199.366 324.87 202.82C324.87 205.849 324.312 208.452 323.196 210.631C322.08 212.756 320.539 214.483 318.573 215.812C316.607 217.14 314.375 218.123 311.877 218.761C309.38 219.345 306.723 219.638 303.907 219.638C301.091 219.638 298.274 219.345 295.458 218.761C292.642 218.176 289.932 217.353 287.328 216.29C284.724 215.174 282.333 213.846 280.154 212.305L285.017 202.82C285.495 203.298 286.345 203.936 287.567 204.733C288.789 205.477 290.277 206.247 292.031 207.044C293.784 207.788 295.697 208.426 297.769 208.957C299.842 209.488 301.941 209.754 304.066 209.754C307.042 209.754 309.3 209.249 310.841 208.24C312.382 207.23 313.153 205.795 313.153 203.936C313.153 202.235 312.542 200.907 311.319 199.95C310.097 198.994 308.397 198.17 306.218 197.479C304.04 196.735 301.463 195.938 298.487 195.088C294.927 194.079 291.951 192.963 289.56 191.741C287.169 190.465 285.388 188.871 284.219 186.958C283.05 185.045 282.466 182.654 282.466 179.785C282.466 175.906 283.369 172.664 285.176 170.061C287.036 167.404 289.533 165.411 292.668 164.083C295.803 162.701 299.284 162.01 303.11 162.01C305.767 162.01 308.264 162.302 310.602 162.887C312.993 163.472 315.225 164.242 317.297 165.198C319.37 166.155 321.23 167.191 322.877 168.307L318.015 177.234Z" fill="black"/>
<path d="M190.338 217.007L189.345 219.092L189.358 219.098L190.338 217.007ZM181.65 210.551L179.904 212.062L179.92 212.08L179.936 212.098L181.65 210.551ZM176.071 201.305L173.916 202.134L173.92 202.145L176.071 201.305ZM176.151 179.944L174.018 179.058L174.015 179.067L174.011 179.075L176.151 179.944ZM181.969 170.778L180.271 169.213L180.27 169.214L181.969 170.778ZM190.737 164.401L191.702 166.499L191.71 166.496L191.717 166.492L190.737 164.401ZM213.055 164.481L212.035 166.553L212.041 166.556L212.048 166.559L213.055 164.481ZM221.742 171.097L219.996 172.608V172.608L221.742 171.097ZM227.322 180.343L229.473 179.502L227.322 180.343ZM227.242 201.624L229.382 202.493L229.386 202.482L227.242 201.624ZM221.424 210.79L219.726 209.225L219.724 209.227L221.424 210.79ZM212.656 217.087L211.703 214.984L211.69 214.989L212.656 217.087ZM186.353 197.798L184.157 198.513V198.513L186.353 197.798ZM189.541 203.936L187.707 205.338L187.73 205.368L187.754 205.398L189.541 203.936ZM194.722 208.16L193.647 210.203L193.678 210.22L193.711 210.236L194.722 208.16ZM208.83 208.08L209.884 210.135L209.904 210.124L209.925 210.113L208.83 208.08ZM214.011 203.696L215.845 205.099L215.855 205.086L215.865 205.073L214.011 203.696ZM217.12 197.559L214.924 196.844L214.919 196.86L214.914 196.876L217.12 197.559ZM217.04 183.69L214.844 184.405L214.854 184.436L214.865 184.467L217.04 183.69ZM213.772 177.633L211.938 179.035L211.961 179.066L211.985 179.095L213.772 177.633ZM208.591 173.408L207.515 175.452L207.547 175.468L207.58 175.484L208.591 173.408ZM194.563 173.488L195.638 175.531L195.648 175.526L195.658 175.521L194.563 173.488ZM189.462 177.792L187.627 176.389H187.627L189.462 177.792ZM186.273 183.85L184.083 183.119L184.075 183.143L184.067 183.167L186.273 183.85ZM201.657 217.089C197.815 217.089 194.382 216.352 191.318 214.916L189.358 219.098C193.096 220.85 197.209 221.708 201.657 221.708V217.089ZM191.331 214.922C188.253 213.457 185.603 211.486 183.365 209.005L179.936 212.098C182.586 215.037 185.729 217.37 189.346 219.092L191.331 214.922ZM183.397 209.04C181.177 206.476 179.455 203.621 178.222 200.465L173.92 202.145C175.344 205.792 177.341 209.1 179.904 212.062L183.397 209.04ZM178.226 200.476C176.997 197.28 176.388 194.027 176.388 190.704H171.769C171.769 194.608 172.488 198.422 173.916 202.134L178.226 200.476ZM176.388 190.704C176.388 187.221 177.024 183.93 178.29 180.813L174.011 179.075C172.514 182.76 171.769 186.642 171.769 190.704H176.388ZM178.283 180.83C179.618 177.616 181.414 174.792 183.669 172.341L180.27 169.214C177.636 172.077 175.553 175.364 174.018 179.058L178.283 180.83ZM183.667 172.343C185.958 169.857 188.632 167.913 191.702 166.499L189.771 162.304C186.147 163.972 182.975 166.279 180.271 169.213L183.667 172.343ZM191.717 166.492C194.788 165.053 198.17 164.319 201.896 164.319V159.701C197.544 159.701 193.487 160.562 189.757 162.311L191.717 166.492ZM201.896 164.319C205.668 164.319 209.034 165.077 212.035 166.553L214.074 162.409C210.379 160.591 206.306 159.701 201.896 159.701V164.319ZM212.048 166.559C215.176 168.075 217.818 170.09 219.996 172.608L223.489 169.586C220.885 166.577 217.735 164.182 214.061 162.403L212.048 166.559ZM219.996 172.608C222.215 175.172 223.938 178.027 225.171 181.183L229.473 179.502C228.049 175.856 226.052 172.548 223.489 169.586L219.996 172.608ZM225.171 181.183C226.396 184.319 227.005 187.541 227.005 190.864H231.624C231.624 186.96 230.905 183.168 229.473 179.502L225.171 181.183ZM227.005 190.864C227.005 194.29 226.371 197.585 225.098 200.766L229.386 202.482C230.877 198.755 231.624 194.877 231.624 190.864H227.005ZM225.103 200.755C223.826 203.898 222.036 206.718 219.726 209.225L223.122 212.355C225.806 209.442 227.895 206.152 229.382 202.493L225.103 200.755ZM219.724 209.227C217.497 211.648 214.831 213.566 211.703 214.984L213.609 219.19C217.282 217.526 220.462 215.247 223.123 212.354L219.724 209.227ZM211.69 214.989C208.67 216.38 205.336 217.089 201.657 217.089V221.708C205.948 221.708 209.947 220.876 213.622 219.185L211.69 214.989ZM182.928 190.704C182.928 193.387 183.337 195.993 184.157 198.513L188.549 197.083C187.881 195.033 187.546 192.91 187.546 190.704H182.928ZM184.157 198.513C184.977 201.032 186.158 203.313 187.707 205.338L191.376 202.533C190.161 200.945 189.217 199.134 188.549 197.083L184.157 198.513ZM187.754 205.398C189.386 207.393 191.356 208.998 193.647 210.203L195.798 206.117C194.05 205.197 192.566 203.986 191.328 202.473L187.754 205.398ZM193.711 210.236C196.137 211.418 198.828 211.984 201.736 211.984V207.365C199.437 207.365 197.452 206.921 195.734 206.084L193.711 210.236ZM201.736 211.984C204.708 211.984 207.442 211.387 209.884 210.135L207.776 206.026C206.073 206.899 204.079 207.365 201.736 207.365V211.984ZM209.925 210.113C212.275 208.848 214.258 207.175 215.845 205.099L212.177 202.294C211.001 203.831 209.53 205.081 207.735 206.047L209.925 210.113ZM215.865 205.073C217.403 203.002 218.558 200.721 219.325 198.242L214.914 196.876C214.299 198.861 213.382 200.671 212.157 202.319L215.865 205.073ZM219.315 198.274C220.13 195.77 220.545 193.244 220.545 190.704H215.926C215.926 192.734 215.596 194.778 214.924 196.844L219.315 198.274ZM220.545 190.704C220.545 188.004 220.103 185.402 219.214 182.914L214.865 184.467C215.57 186.442 215.926 188.516 215.926 190.704H220.545ZM219.236 182.975C218.408 180.435 217.186 178.159 215.559 176.17L211.985 179.095C213.227 180.614 214.183 182.376 214.844 184.405L219.236 182.975ZM215.606 176.23C214.003 174.134 211.993 172.497 209.602 171.332L207.58 175.484C209.334 176.339 210.777 177.518 211.938 179.035L215.606 176.23ZM209.666 171.365C207.278 170.108 204.617 169.505 201.736 169.505V174.123C203.957 174.123 205.865 174.583 207.515 175.452L209.666 171.365ZM201.736 169.505C198.702 169.505 195.925 170.132 193.468 171.455L195.658 175.521C197.346 174.612 199.35 174.123 201.736 174.123V169.505ZM193.487 171.444C191.173 172.663 189.213 174.316 187.627 176.389L191.296 179.195C192.473 177.655 193.914 176.439 195.638 175.531L193.487 171.444ZM187.627 176.389C186.085 178.406 184.905 180.654 184.083 183.119L188.464 184.58C189.13 182.582 190.075 180.792 191.296 179.195L187.627 176.389ZM184.067 183.167C183.308 185.62 182.928 188.135 182.928 190.704H187.546C187.546 188.598 187.857 186.543 188.479 184.532L184.067 183.167ZM237.752 219H235.443V221.309H237.752V219ZM237.752 162.409V160.1H235.443V162.409H237.752ZM248.752 162.409H251.061V160.1H248.752V162.409ZM248.752 209.356H246.442V211.665H248.752V209.356ZM277.605 209.356H279.914V207.046H277.605V209.356ZM277.605 219V221.309H279.914V219H277.605ZM240.061 219V162.409H235.443V219H240.061ZM237.752 164.718H248.752V160.1H237.752V164.718ZM246.442 162.409V209.356H251.061V162.409H246.442ZM248.752 211.665H277.605V207.046H248.752V211.665ZM275.296 209.356V219H279.914V209.356H275.296ZM277.605 216.691H237.752V221.309H277.605V216.691ZM318.015 177.234L316.382 178.867L318.566 181.051L320.043 178.339L318.015 177.234ZM315.942 175.72L314.662 177.641L314.685 177.657L314.709 177.672L315.942 175.72ZM312.356 173.886L311.456 176.013L311.47 176.019L311.484 176.025L312.356 173.886ZM307.812 172.372L307.169 174.59L307.202 174.599L307.235 174.608L307.812 172.372ZM296.016 173.328L294.662 171.458L294.646 171.47L294.63 171.481L296.016 173.328ZM299.523 184.009L298.793 186.2L299.523 184.009ZM306.697 186.081L306.117 188.317L306.134 188.321L306.152 188.325L306.697 186.081ZM316.341 189.429L315.325 191.503L315.349 191.514L315.373 191.526L316.341 189.429ZM322.638 194.53L320.724 195.822L320.742 195.85L320.762 195.877L322.638 194.53ZM323.196 210.631L325.24 211.704L325.246 211.694L325.251 211.684L323.196 210.631ZM311.877 218.761L312.404 221.009L312.426 221.004L312.449 220.998L311.877 218.761ZM287.328 216.29L286.418 218.412L286.437 218.42L286.455 218.428L287.328 216.29ZM280.154 212.305L278.1 211.251L277.186 213.034L278.821 214.19L280.154 212.305ZM285.017 202.82L286.649 201.187L284.408 198.945L282.962 201.766L285.017 202.82ZM287.567 204.733L286.306 206.667L286.336 206.686L286.366 206.705L287.567 204.733ZM292.031 207.044L291.075 209.146L291.102 209.158L291.129 209.17L292.031 207.044ZM297.769 208.957L297.196 211.194L297.769 208.957ZM310.841 208.24L309.576 206.308L310.841 208.24ZM306.218 197.479L305.472 199.665L305.496 199.673L305.52 199.681L306.218 197.479ZM298.487 195.088L299.121 192.868L299.117 192.867L298.487 195.088ZM289.56 191.741L288.473 193.778L288.491 193.788L288.509 193.797L289.56 191.741ZM284.219 186.958L282.249 188.162L284.219 186.958ZM285.176 170.061L283.284 168.736L283.279 168.744L285.176 170.061ZM292.668 164.083L293.569 166.209L293.584 166.202L293.6 166.196L292.668 164.083ZM310.602 162.887L310.042 165.127L310.054 165.13L310.602 162.887ZM317.297 165.198L318.265 163.102V163.102L317.297 165.198ZM322.877 168.307L324.905 169.412L325.907 167.571L324.172 166.395L322.877 168.307ZM319.648 175.601C319.078 175.032 318.195 174.411 317.176 173.767L314.709 177.672C315.71 178.304 316.207 178.692 316.382 178.867L319.648 175.601ZM317.223 173.798C316.102 173.051 314.759 172.372 313.227 171.748L311.484 176.025C312.822 176.57 313.87 177.113 314.662 177.641L317.223 173.798ZM313.255 171.76C311.756 171.125 310.133 170.586 308.389 170.136L307.235 174.608C308.787 175.008 310.192 175.478 311.456 176.013L313.255 171.76ZM308.456 170.154C306.602 169.616 304.711 169.345 302.791 169.345V173.964C304.272 173.964 305.729 174.172 307.169 174.59L308.456 170.154ZM302.791 169.345C299.584 169.345 296.762 169.937 294.662 171.458L297.37 175.199C298.351 174.488 300.046 173.964 302.791 173.964V169.345ZM294.63 171.481C292.506 173.075 291.475 175.357 291.475 178.031H296.093C296.093 176.667 296.551 175.814 297.401 175.176L294.63 171.481ZM291.475 178.031C291.475 180.089 292.135 181.962 293.633 183.376L296.804 180.019C296.389 179.627 296.093 179.055 296.093 178.031H291.475ZM293.633 183.376C294.93 184.601 296.714 185.507 298.793 186.2L300.253 181.818C298.506 181.236 297.421 180.601 296.804 180.019L293.633 183.376ZM298.793 186.2C300.773 186.86 303.218 187.565 306.117 188.317L307.276 183.846C304.436 183.11 302.099 182.434 300.253 181.818L298.793 186.2ZM306.152 188.325C309.749 189.199 312.799 190.264 315.325 191.503L317.357 187.356C314.463 185.937 311.083 184.77 307.242 183.837L306.152 188.325ZM315.373 191.526C317.826 192.658 319.566 194.107 320.724 195.822L324.552 193.238C322.84 190.703 320.383 188.751 317.309 187.332L315.373 191.526ZM320.762 195.877C321.884 197.439 322.56 199.681 322.56 202.82H327.179C327.179 199.051 326.368 195.766 324.514 193.184L320.762 195.877ZM322.56 202.82C322.56 205.568 322.054 207.794 321.14 209.578L325.251 211.684C326.569 209.111 327.179 206.129 327.179 202.82H322.56ZM321.151 209.557C320.21 211.349 318.926 212.786 317.28 213.898L319.866 217.725C322.152 216.181 323.949 214.163 325.24 211.704L321.151 209.557ZM317.28 213.898C315.552 215.066 313.568 215.946 311.306 216.523L312.449 220.998C315.181 220.301 317.661 219.215 319.866 217.725L317.28 213.898ZM311.351 216.512C309.042 217.053 306.563 217.328 303.907 217.328V221.947C306.883 221.947 309.718 221.638 312.404 221.009L311.351 216.512ZM303.907 217.328C301.252 217.328 298.592 217.053 295.927 216.5L294.989 221.022C297.956 221.638 300.93 221.947 303.907 221.947V217.328ZM295.927 216.5C293.246 215.943 290.671 215.16 288.201 214.152L286.455 218.428C289.192 219.545 292.038 220.409 294.989 221.022L295.927 216.5ZM288.238 214.167C285.774 213.112 283.526 211.861 281.488 210.419L278.821 214.19C281.14 215.83 283.675 217.237 286.418 218.412L288.238 214.167ZM282.209 213.358L287.071 203.873L282.962 201.766L278.1 211.251L282.209 213.358ZM283.384 204.453C284.043 205.112 285.067 205.859 286.306 206.667L288.829 202.798C287.623 202.012 286.946 201.484 286.649 201.187L283.384 204.453ZM286.366 206.705C287.689 207.51 289.264 208.323 291.075 209.146L292.986 204.942C291.29 204.171 289.889 203.443 288.768 202.76L286.366 206.705ZM291.129 209.17C293.001 209.964 295.025 210.637 297.196 211.194L298.343 206.72C296.369 206.214 294.568 205.612 292.933 204.918L291.129 209.17ZM297.196 211.194C299.454 211.773 301.746 212.063 304.066 212.063V207.445C302.135 207.445 300.229 207.204 298.343 206.72L297.196 211.194ZM304.066 212.063C307.24 212.063 310.024 211.536 312.107 210.171L309.576 206.308C308.577 206.963 306.844 207.445 304.066 207.445V212.063ZM312.107 210.171C314.307 208.73 315.462 206.565 315.462 203.936H310.844C310.844 205.026 310.458 205.73 309.576 206.308L312.107 210.171ZM315.462 203.936C315.462 201.603 314.583 199.572 312.743 198.132L309.896 201.769C310.501 202.242 310.844 202.867 310.844 203.936H315.462ZM312.743 198.132C311.227 196.945 309.245 196.017 306.916 195.278L305.52 199.681C307.549 200.324 308.968 201.042 309.896 201.769L312.743 198.132ZM306.965 195.294C304.739 194.534 302.123 193.725 299.121 192.868L297.852 197.309C300.802 198.151 303.341 198.937 305.472 199.665L306.965 195.294ZM299.117 192.867C295.652 191.884 292.828 190.817 290.611 189.684L288.509 193.797C291.074 195.108 294.201 196.273 297.857 197.31L299.117 192.867ZM290.646 189.703C288.543 188.581 287.103 187.248 286.19 185.754L282.249 188.162C283.674 190.494 285.794 192.349 288.473 193.778L290.646 189.703ZM286.19 185.754C285.296 184.292 284.775 182.346 284.775 179.785H280.157C280.157 182.962 280.804 185.798 282.249 188.162L286.19 185.754ZM284.775 179.785C284.775 176.269 285.59 173.515 287.073 171.377L283.279 168.744C281.149 171.814 280.157 175.542 280.157 179.785H284.775ZM287.068 171.385C288.666 169.101 290.812 167.377 293.569 166.209L291.767 161.956C288.254 163.445 285.405 165.706 283.284 168.736L287.068 171.385ZM293.6 166.196C296.409 164.958 299.567 164.319 303.11 164.319V159.701C299.001 159.701 295.198 160.444 291.737 161.969L293.6 166.196ZM303.11 164.319C305.597 164.319 307.905 164.593 310.042 165.127L311.162 160.647C308.623 160.012 305.936 159.701 303.11 159.701V164.319ZM310.054 165.13C312.312 165.682 314.402 166.406 316.33 167.295L318.265 163.102C316.048 162.079 313.675 161.261 311.15 160.644L310.054 165.13ZM316.33 167.295C318.304 168.207 320.052 169.183 321.582 170.219L324.172 166.395C322.407 165.2 320.435 164.103 318.265 163.102L316.33 167.295ZM320.849 167.203L315.987 176.13L320.043 178.339L324.905 169.412L320.849 167.203Z" fill="black"/>
</svg>
