<svg width="1188" height="396" viewBox="0 0 1188 396" fill="none" xmlns="http://www.w3.org/2000/svg">
<g clip-path="url(#clip0_926_203)">
<rect width="1188" height="396" fill="#139D3D"/>
<path d="M275.967 133.732C468.986 121.108 573.602 294.397 486.083 438.214C444.594 506.391 345.132 582.573 181.495 613.095C-45.0417 655.234 -260.412 526.843 -355.555 417.613C55.7151 412.85 -11.386 176.027 275.967 133.732Z" fill="url(#paint0_linear_926_203)"/>
<path d="M36.5394 268.149C96.0171 211.198 152.851 156.779 276.476 138.535C371.328 132.392 443.925 171.866 482.196 229.963C520.496 288.102 524.764 365.367 481.96 435.706C441.352 502.435 343.253 578.014 180.612 608.351C-38.3812 649.087 -247.275 528.811 -344.926 422.263C-247.164 420.146 -176.696 404.651 -121.915 381.645C-65.1525 357.806 -25.5287 326.022 9.94726 293.294C19.0149 284.929 27.8056 276.512 36.5394 268.149Z" stroke="#139D3D" stroke-opacity="0.47" stroke-width="9.65211"/>
<g opacity="0.5" filter="url(#filter0_d_926_203)">
<path d="M1181.21 53.6288C1251.91 232.973 1119.27 384.971 956.158 345.659C878.836 327.024 776.279 255.804 697.536 109.789C588.633 -92.3864 644.969 -335.838 719.692 -459.36C849.316 -70.4946 1053.66 -206.216 1181.21 53.6288Z" fill="url(#paint1_linear_926_203)"/>
</g>
<path d="M921.014 251.876C961.617 213.508 1000.41 176.847 1084.35 165.024C1148.72 161.281 1197.79 188.382 1223.49 227.961C1249.21 267.569 1251.76 319.998 1222.41 367.519C1194.57 412.602 1127.68 463.434 1017.22 483.286C868.494 509.938 727.338 427.43 661.565 354.721C727.882 353.72 775.749 343.524 813.011 328.163C851.626 312.244 878.649 290.859 902.862 268.815C909.051 263.181 915.052 257.51 921.014 251.876Z" fill="url(#paint2_linear_926_203)" stroke="white" stroke-width="6.57023"/>
<mask id="path-5-inside-1_926_203" fill="white">
<path fill-rule="evenodd" clip-rule="evenodd" d="M1087.37 342.189C1083.95 336.43 1083.12 328.674 1086.4 320.367C1092.31 308.324 1099.77 304.279 1107.45 300.115C1117.38 294.734 1127.67 289.157 1135.43 265.863C1143.37 278.987 1149.36 304.853 1137.79 326.334C1129.42 341.847 1118.52 349.414 1110.31 351.394C1103.45 353.047 1097.1 351.517 1092.4 347.884L1125.51 310.56L1087.37 342.189Z"/>
</mask>
<path fill-rule="evenodd" clip-rule="evenodd" d="M1087.37 342.189C1083.95 336.43 1083.12 328.674 1086.4 320.367C1092.31 308.324 1099.77 304.279 1107.45 300.115C1117.38 294.734 1127.67 289.157 1135.43 265.863C1143.37 278.987 1149.36 304.853 1137.79 326.334C1129.42 341.847 1118.52 349.414 1110.31 351.394C1103.45 353.047 1097.1 351.517 1092.4 347.884L1125.51 310.56L1087.37 342.189Z" fill="white"/>
<path d="M1086.4 320.367L1084.53 319.632L1084.56 319.557L1084.6 319.484L1086.4 320.367ZM1087.37 342.189L1088.65 343.731L1086.84 345.227L1085.65 343.211L1087.37 342.189ZM1107.45 300.115L1108.41 301.876L1107.45 300.115ZM1135.43 265.863L1133.53 265.23L1134.9 261.119L1137.15 264.827L1135.43 265.863ZM1137.79 326.334L1139.55 327.283L1139.55 327.284L1137.79 326.334ZM1110.31 351.394L1110.78 353.341H1110.78L1110.31 351.394ZM1092.4 347.884L1091.17 349.469L1089.47 348.159L1090.9 346.555L1092.4 347.884ZM1125.51 310.56L1124.24 309.019L1127.01 311.89L1125.51 310.56ZM1088.26 321.101C1085.19 328.887 1086.02 335.988 1089.09 341.167L1085.65 343.211C1081.89 336.872 1081.05 328.462 1084.53 319.632L1088.26 321.101ZM1108.41 301.876C1100.81 305.995 1093.82 309.792 1088.2 321.249L1084.6 319.484C1090.8 306.857 1098.74 302.562 1106.5 298.355L1108.41 301.876ZM1137.33 266.497C1133.38 278.355 1128.73 285.853 1123.7 291.094C1118.67 296.323 1113.36 299.19 1108.41 301.876L1106.5 298.355C1111.47 295.659 1116.27 293.047 1120.81 288.319C1125.34 283.603 1129.72 276.666 1133.53 265.23L1137.33 266.497ZM1136.02 325.384C1147.16 304.709 1141.41 279.616 1133.72 266.9L1137.15 264.827C1145.33 278.358 1151.55 304.998 1139.55 327.283L1136.02 325.384ZM1109.84 349.447C1117.37 347.632 1127.86 340.527 1136.02 325.383L1139.55 327.284C1130.98 343.168 1119.68 351.197 1110.78 353.341L1109.84 349.447ZM1093.62 346.299C1097.83 349.551 1103.56 350.962 1109.84 349.447L1110.78 353.341C1103.35 355.132 1096.37 353.483 1091.17 349.469L1093.62 346.299ZM1090.9 346.555L1124.02 309.231L1127.01 311.89L1093.89 349.213L1090.9 346.555ZM1126.79 312.102L1088.65 343.731L1086.09 340.647L1124.24 309.019L1126.79 312.102Z" fill="white" mask="url(#path-5-inside-1_926_203)"/>
<mask id="path-7-inside-2_926_203" fill="white">
<path fill-rule="evenodd" clip-rule="evenodd" d="M1079.34 342.189C1082.76 336.43 1083.59 328.674 1080.32 320.367C1074.41 308.324 1066.94 304.279 1059.26 300.115C1049.34 294.734 1039.05 289.157 1031.28 265.863C1023.34 278.987 1017.36 304.853 1028.93 326.334C1037.29 341.847 1048.19 349.414 1056.41 351.394C1063.26 353.047 1069.61 351.517 1074.32 347.884L1041.2 310.56L1079.34 342.189Z"/>
</mask>
<path fill-rule="evenodd" clip-rule="evenodd" d="M1079.34 342.189C1082.76 336.43 1083.59 328.674 1080.32 320.367C1074.41 308.324 1066.94 304.279 1059.26 300.115C1049.34 294.734 1039.05 289.157 1031.28 265.863C1023.34 278.987 1017.36 304.853 1028.93 326.334C1037.29 341.847 1048.19 349.414 1056.41 351.394C1063.26 353.047 1069.61 351.517 1074.32 347.884L1041.2 310.56L1079.34 342.189Z" fill="white"/>
<path d="M1080.32 320.367L1082.18 319.632L1082.15 319.557L1082.12 319.484L1080.32 320.367ZM1079.34 342.189L1078.07 343.731L1079.87 345.227L1081.07 343.211L1079.34 342.189ZM1059.26 300.115L1058.31 301.876L1059.26 300.115ZM1031.28 265.863L1033.18 265.23L1031.81 261.119L1029.57 264.827L1031.28 265.863ZM1028.93 326.334L1027.17 327.283L1027.17 327.284L1028.93 326.334ZM1056.41 351.394L1056.88 349.447L1056.41 351.394ZM1074.32 347.884L1075.54 349.469L1077.24 348.159L1075.82 346.555L1074.32 347.884ZM1041.2 310.56L1042.48 309.019L1039.7 311.89L1041.2 310.56ZM1078.45 321.101C1081.52 328.887 1080.69 335.988 1077.62 341.167L1081.07 343.211C1084.83 336.872 1085.66 328.462 1082.18 319.632L1078.45 321.101ZM1058.31 301.876C1065.91 305.995 1072.9 309.792 1078.52 321.249L1082.12 319.484C1075.92 306.857 1067.98 302.562 1060.22 298.355L1058.31 301.876ZM1029.38 266.497C1033.34 278.355 1037.98 285.853 1043.02 291.094C1048.04 296.323 1053.35 299.19 1058.31 301.876L1060.22 298.355C1055.24 295.659 1050.45 293.047 1045.91 288.319C1041.37 283.603 1036.99 276.666 1033.18 265.23L1029.38 266.497ZM1030.69 325.384C1019.55 304.709 1025.3 279.616 1033 266.9L1029.57 264.827C1021.38 278.358 1015.16 304.998 1027.17 327.283L1030.69 325.384ZM1056.88 349.447C1049.34 347.632 1038.86 340.527 1030.69 325.383L1027.17 327.284C1035.73 343.168 1047.04 351.197 1055.94 353.341L1056.88 349.447ZM1073.1 346.299C1068.88 349.551 1063.16 350.962 1056.88 349.447L1055.94 353.341C1063.37 355.132 1070.34 353.484 1075.54 349.469L1073.1 346.299ZM1075.82 346.555L1042.7 309.231L1039.7 311.89L1072.82 349.213L1075.82 346.555ZM1039.92 312.102L1078.07 343.731L1080.62 340.647L1042.48 309.019L1039.92 312.102Z" fill="white" mask="url(#path-7-inside-2_926_203)"/>
<text fill="white" stroke="white" stroke-width="1.20168" xml:space="preserve" style="white-space: pre" font-family="Raleway" font-size="41.4777" font-weight="bold" letter-spacing="0em"><tspan x="1042.56" y="280.702">OLS</tspan></text>
<text fill="white" stroke="#A5F200" stroke-width="0.792" xml:space="preserve" style="white-space: pre" font-family="Raleway" font-size="38.016" font-weight="800" letter-spacing="0.02em"><tspan x="306.85" y="230.544"> Open Research Ambassadors.</tspan></text>
<text fill="white" stroke="#A5F200" stroke-width="0.792" xml:space="preserve" style="white-space: pre" font-family="Raleway" font-size="28.512" letter-spacing="0.02em"><tspan x="351.185" y="183.673">A Mentoring &#38; Training Program For</tspan></text>
</g>
<defs>
<filter id="filter0_d_926_203" x="555.985" y="-510.048" width="646.272" height="893.637" filterUnits="userSpaceOnUse" color-interpolation-filters="sRGB">
<feFlood flood-opacity="0" result="BackgroundImageFix"/>
<feColorMatrix in="SourceAlpha" type="matrix" values="0 0 0 0 0 0 0 0 0 0 0 0 0 0 0 0 0 0 127 0" result="hardAlpha"/>
<feOffset dx="-39.6" dy="-9.504"/>
<feGaussianBlur stdDeviation="20.592"/>
<feComposite in2="hardAlpha" operator="out"/>
<feColorMatrix type="matrix" values="0 0 0 0 0.104722 0 0 0 0 0.433333 0 0 0 0 0.204734 0 0 0 0.13 0"/>
<feBlend mode="normal" in2="BackgroundImageFix" result="effect1_dropShadow_926_203"/>
<feBlend mode="normal" in="SourceGraphic" in2="effect1_dropShadow_926_203" result="shape"/>
</filter>
<linearGradient id="paint0_linear_926_203" x1="-484.35" y1="166.616" x2="480.588" y2="475.901" gradientUnits="userSpaceOnUse">
<stop stop-color="#A5F200"/>
<stop offset="1" stop-color="#139D3D"/>
</linearGradient>
<linearGradient id="paint1_linear_926_203" x1="918.721" y1="-657.944" x2="918.721" y2="351.909" gradientUnits="userSpaceOnUse">
<stop stop-color="#A5F200"/>
<stop offset="1" stop-color="#139D3D"/>
</linearGradient>
<linearGradient id="paint2_linear_926_203" x1="568.1" y1="180.662" x2="1221.31" y2="394.787" gradientUnits="userSpaceOnUse">
<stop stop-color="#A5F200"/>
<stop offset="1" stop-color="#139D3D"/>
</linearGradient>
<clipPath id="clip0_926_203">
<rect width="1188" height="396" fill="white"/>
</clipPath>
</defs>
</svg>
