<svg width="1200" height="675" viewBox="0 0 1200 675" fill="none" xmlns="http://www.w3.org/2000/svg">
<g clip-path="url(#clip0_1009_2542)">
<rect width="1200" height="675" fill="white"/>
<path d="M1085.85 736.038C968.49 757.07 857.098 691.96 805.193 634.583C857.527 633.792 895.301 625.746 924.706 613.624C955.179 601.062 976.504 584.186 995.611 566.79C1000.49 562.344 1005.23 557.869 1009.94 553.423C1041.98 523.145 1072.59 494.215 1138.83 484.884C1189.63 481.931 1228.35 503.317 1248.63 534.55C1268.93 565.807 1270.94 607.181 1247.78 644.682C1225.81 680.259 1173.03 720.372 1085.85 736.038Z" fill="#139D3D" stroke="white" stroke-width="5.18484"/>
<text fill="white" xml:space="preserve" style="white-space: pre" font-family="Raleway" font-size="30" font-weight="600" letter-spacing="0em"><tspan x="986.875" y="617.465">Open Seeds</tspan></text>
<text fill="white" xml:space="preserve" style="white-space: pre" font-family="Raleway" font-size="8.75" font-weight="bold" letter-spacing="0.08em"><tspan x="1018.16" y="632.776">Mentoring &#38; Training Program</tspan></text>
<mask id="path-4-inside-1_1009_2542" fill="white">
<path fill-rule="evenodd" clip-rule="evenodd" d="M1019.06 595.503C1018.53 594.616 1018.4 593.422 1018.91 592.142C1019.82 590.288 1020.97 589.665 1022.15 589.024C1023.68 588.196 1025.26 587.337 1026.46 583.75C1027.68 585.771 1028.6 589.754 1026.82 593.061C1025.53 595.45 1023.85 596.615 1022.59 596.92C1021.53 597.174 1020.55 596.939 1019.83 596.38L1024.93 590.632L1019.06 595.503Z"/>
</mask>
<path fill-rule="evenodd" clip-rule="evenodd" d="M1019.06 595.503C1018.53 594.616 1018.4 593.422 1018.91 592.142C1019.82 590.288 1020.97 589.665 1022.15 589.024C1023.68 588.196 1025.26 587.337 1026.46 583.75C1027.68 585.771 1028.6 589.754 1026.82 593.061C1025.53 595.45 1023.85 596.615 1022.59 596.92C1021.53 597.174 1020.55 596.939 1019.83 596.38L1024.93 590.632L1019.06 595.503Z" fill="white"/>
<path d="M1018.91 592.142L1018.62 592.029L1018.62 592.018L1018.63 592.006L1018.91 592.142ZM1019.06 595.503L1019.25 595.74L1018.97 595.97L1018.79 595.66L1019.06 595.503ZM1022.15 589.024L1022 588.753L1022.15 589.024ZM1026.46 583.75L1026.16 583.652L1026.37 583.019L1026.72 583.59L1026.46 583.75ZM1026.82 593.061L1027.09 593.207L1027.09 593.208L1026.82 593.061ZM1022.59 596.92L1022.52 596.62H1022.52L1022.59 596.92ZM1019.83 596.38L1019.64 596.624L1019.38 596.422L1019.6 596.175L1019.83 596.38ZM1024.93 590.632L1024.73 590.395L1025.16 590.837L1024.93 590.632ZM1019.19 592.255C1018.72 593.454 1018.85 594.548 1019.32 595.345L1018.79 595.66C1018.21 594.684 1018.08 593.389 1018.62 592.029L1019.19 592.255ZM1022.29 589.295C1021.12 589.929 1020.05 590.514 1019.18 592.278L1018.63 592.006C1019.58 590.062 1020.81 589.401 1022 588.753L1022.29 589.295ZM1026.75 583.848C1026.14 585.673 1025.42 586.828 1024.65 587.635C1023.88 588.44 1023.06 588.882 1022.29 589.295L1022 588.753C1022.77 588.338 1023.5 587.936 1024.2 587.208C1024.9 586.482 1025.58 585.413 1026.16 583.652L1026.75 583.848ZM1026.55 592.915C1028.26 589.731 1027.38 585.868 1026.19 583.91L1026.72 583.59C1027.98 585.674 1028.94 589.776 1027.09 593.207L1026.55 592.915ZM1022.52 596.62C1023.67 596.341 1025.29 595.247 1026.55 592.915L1027.09 593.208C1025.77 595.653 1024.03 596.89 1022.66 597.22L1022.52 596.62ZM1020.02 596.135C1020.67 596.636 1021.55 596.853 1022.52 596.62L1022.66 597.22C1021.52 597.495 1020.44 597.242 1019.64 596.624L1020.02 596.135ZM1019.6 596.175L1024.7 590.428L1025.16 590.837L1020.06 596.584L1019.6 596.175ZM1025.13 590.87L1019.25 595.74L1018.86 595.265L1024.73 590.395L1025.13 590.87Z" fill="white" mask="url(#path-4-inside-1_1009_2542)"/>
<mask id="path-6-inside-2_1009_2542" fill="white">
<path fill-rule="evenodd" clip-rule="evenodd" d="M1017.82 595.503C1018.35 594.616 1018.47 593.422 1017.97 592.142C1017.06 590.288 1015.91 589.665 1014.73 589.024C1013.2 588.196 1011.61 587.337 1010.42 583.75C1009.2 585.771 1008.28 589.754 1010.06 593.061C1011.34 595.45 1013.02 596.615 1014.29 596.92C1015.34 597.174 1016.32 596.939 1017.05 596.38L1011.95 590.632L1017.82 595.503Z"/>
</mask>
<path fill-rule="evenodd" clip-rule="evenodd" d="M1017.82 595.503C1018.35 594.616 1018.47 593.422 1017.97 592.142C1017.06 590.288 1015.91 589.665 1014.73 589.024C1013.2 588.196 1011.61 587.337 1010.42 583.75C1009.2 585.771 1008.28 589.754 1010.06 593.061C1011.34 595.45 1013.02 596.615 1014.29 596.92C1015.34 597.174 1016.32 596.939 1017.05 596.38L1011.95 590.632L1017.82 595.503Z" fill="white"/>
<path d="M1017.97 592.142L1018.26 592.029L1018.25 592.018L1018.25 592.006L1017.97 592.142ZM1017.82 595.503L1017.62 595.74L1017.9 595.97L1018.08 595.66L1017.82 595.503ZM1014.73 589.024L1014.87 588.753L1014.73 589.024ZM1010.42 583.75L1010.71 583.652L1010.5 583.019L1010.16 583.59L1010.42 583.75ZM1010.06 593.061L1009.79 593.207L1009.79 593.208L1010.06 593.061ZM1014.29 596.92L1014.36 596.62H1014.36L1014.29 596.92ZM1017.05 596.38L1017.23 596.624L1017.5 596.422L1017.28 596.175L1017.05 596.38ZM1011.95 590.632L1012.14 590.395L1011.72 590.837L1011.95 590.632ZM1017.68 592.255C1018.16 593.454 1018.03 594.548 1017.55 595.345L1018.08 595.66C1018.66 594.684 1018.79 593.389 1018.26 592.029L1017.68 592.255ZM1014.58 589.295C1015.75 589.929 1016.83 590.514 1017.69 592.278L1018.25 592.006C1017.29 590.062 1016.07 589.401 1014.87 588.753L1014.58 589.295ZM1010.13 583.848C1010.74 585.673 1011.45 586.828 1012.23 587.635C1013 588.44 1013.82 588.882 1014.58 589.295L1014.87 588.753C1014.11 588.338 1013.37 587.936 1012.67 587.208C1011.97 586.482 1011.3 585.413 1010.71 583.652L1010.13 583.848ZM1010.33 592.915C1008.61 589.731 1009.5 585.868 1010.68 583.91L1010.16 583.59C1008.89 585.674 1007.94 589.776 1009.79 593.207L1010.33 592.915ZM1014.36 596.62C1013.2 596.341 1011.59 595.247 1010.33 592.915L1009.79 593.208C1011.1 595.653 1012.85 596.89 1014.22 597.22L1014.36 596.62ZM1016.86 596.135C1016.21 596.636 1015.33 596.853 1014.36 596.62L1014.22 597.22C1015.36 597.495 1016.43 597.242 1017.23 596.624L1016.86 596.135ZM1017.28 596.175L1012.18 590.428L1011.72 590.837L1016.82 596.584L1017.28 596.175ZM1011.75 590.87L1017.62 595.74L1018.02 595.265L1012.14 590.395L1011.75 590.87Z" fill="white" mask="url(#path-6-inside-2_1009_2542)"/>
<line x1="987.812" y1="631.875" x2="1015.31" y2="631.875" stroke="white" stroke-width="1.875" stroke-linecap="round"/>
<mask id="path-9-inside-3_1009_2542" fill="white">
<path fill-rule="evenodd" clip-rule="evenodd" d="M65.1812 79.7407C63.8347 77.461 63.5069 74.3914 64.7978 71.1031C67.1279 66.3365 70.07 64.7351 73.0974 63.0872C77.0104 60.9573 81.0659 58.7497 84.1267 49.5295C87.2561 54.7242 89.6156 64.9625 85.0546 73.4649C81.7567 79.6056 77.4616 82.6007 74.2232 83.3844C71.52 84.0386 69.0167 83.433 67.1618 81.9949L80.2168 67.2215L65.1812 79.7407Z"/>
</mask>
<path fill-rule="evenodd" clip-rule="evenodd" d="M65.1812 79.7407C63.8347 77.461 63.5069 74.3914 64.7978 71.1031C67.1279 66.3365 70.07 64.7351 73.0974 63.0872C77.0104 60.9573 81.0659 58.7497 84.1267 49.5295C87.2561 54.7242 89.6156 64.9625 85.0546 73.4649C81.7567 79.6056 77.4616 82.6007 74.2232 83.3844C71.52 84.0386 69.0167 83.433 67.1618 81.9949L80.2168 67.2215L65.1812 79.7407Z" fill="url(#paint0_linear_1009_2542)"/>
<path d="M64.7978 71.1031L64.0614 70.8141L64.073 70.7844L64.087 70.7557L64.7978 71.1031ZM65.1812 79.7407L65.6874 80.3486L64.9729 80.9436L64.5001 80.143L65.1812 79.7407ZM73.0974 63.0872L72.7192 62.3923L73.0974 63.0872ZM84.1267 49.5295L83.3759 49.2803L83.9174 47.649L84.8043 49.1213L84.1267 49.5295ZM85.0546 73.4649L85.7518 73.8389L85.7516 73.8392L85.0546 73.4649ZM74.2232 83.3844L74.0371 82.6155H74.0371L74.2232 83.3844ZM67.1618 81.9949L66.6771 82.6201L66.0103 82.1032L66.569 81.471L67.1618 81.9949ZM80.2168 67.2215L79.7106 66.6136L80.8096 67.7454L80.2168 67.2215ZM65.5342 71.3922C64.324 74.475 64.6509 77.2873 65.8624 79.3384L64.5001 80.143C63.0186 77.6348 62.6899 74.3078 64.0614 70.8141L65.5342 71.3922ZM73.4756 63.782C70.4806 65.4123 67.7257 66.9149 65.5085 71.4506L64.087 70.7557C66.5301 65.7581 69.6594 64.0578 72.7192 62.3923L73.4756 63.782ZM84.8775 49.7788C83.3195 54.472 81.4882 57.4397 79.5032 59.5141C77.5228 61.5839 75.4287 62.7189 73.4756 63.782L72.7192 62.3923C74.6791 61.3255 76.5693 60.2918 78.36 58.4203C80.1463 56.5535 81.8731 53.8073 83.3759 49.2803L84.8775 49.7788ZM84.3575 73.091C88.7484 64.9056 86.4817 54.9717 83.449 49.9378L84.8043 49.1213C88.0306 54.4767 90.4828 65.0194 85.7518 73.8389L84.3575 73.091ZM74.0371 82.6155C77.0049 81.8973 81.138 79.0856 84.3577 73.0906L85.7516 73.8392C82.3755 80.1255 77.9183 83.3041 74.4093 84.1533L74.0371 82.6155ZM67.6465 81.3697C69.3064 82.6566 71.5616 83.2146 74.0371 82.6155L74.4093 84.1533C71.4785 84.8626 68.7271 84.2095 66.6771 82.6201L67.6465 81.3697ZM66.569 81.471L79.624 66.6977L80.8096 67.7454L67.7546 82.5187L66.569 81.471ZM80.723 67.8295L65.6874 80.3486L64.675 79.1327L79.7106 66.6136L80.723 67.8295Z" fill="#139D3D" fill-opacity="0.47" mask="url(#path-9-inside-3_1009_2542)"/>
<mask id="path-11-inside-4_1009_2542" fill="white">
<path fill-rule="evenodd" clip-rule="evenodd" d="M62.0178 79.7415C63.3645 77.4618 63.6923 74.392 62.4014 71.1036C60.0713 66.337 57.1292 64.7355 54.1018 63.0877C50.1888 60.9577 46.1333 58.7502 43.0725 49.53C39.9431 54.7247 37.5837 64.963 42.1446 73.4654C45.4425 79.606 49.7376 82.6012 52.976 83.3849C55.679 84.039 58.1822 83.4336 60.037 81.9957L46.9816 67.2218L62.0178 79.7415Z"/>
</mask>
<path fill-rule="evenodd" clip-rule="evenodd" d="M62.0178 79.7415C63.3645 77.4618 63.6923 74.392 62.4014 71.1036C60.0713 66.337 57.1292 64.7355 54.1018 63.0877C50.1888 60.9577 46.1333 58.7502 43.0725 49.53C39.9431 54.7247 37.5837 64.963 42.1446 73.4654C45.4425 79.606 49.7376 82.6012 52.976 83.3849C55.679 84.039 58.1822 83.4336 60.037 81.9957L46.9816 67.2218L62.0178 79.7415Z" fill="url(#paint1_linear_1009_2542)"/>
<path d="M62.4014 71.1036L63.1378 70.8146L63.1262 70.7849L63.1122 70.7562L62.4014 71.1036ZM62.0178 79.7415L61.5116 80.3495L62.2261 80.9444L62.6989 80.1439L62.0178 79.7415ZM54.1018 63.0877L54.48 62.3928L54.1018 63.0877ZM43.0725 49.53L43.8233 49.2808L43.2818 47.6495L42.3949 49.1218L43.0725 49.53ZM42.1446 73.4654L41.4475 73.8394L41.4476 73.8397L42.1446 73.4654ZM52.976 83.3849L53.1621 82.616H53.1621L52.976 83.3849ZM60.037 81.9957L60.5217 82.6209L61.1885 82.104L60.6298 81.4718L60.037 81.9957ZM46.9816 67.2218L47.4878 66.6138L46.3888 67.7457L46.9816 67.2218ZM61.665 71.3927C62.8753 74.4756 62.5483 77.288 61.3366 79.3391L62.6989 80.1439C64.1806 77.6356 64.5094 74.3084 63.1378 70.8146L61.665 71.3927ZM53.7236 63.7825C56.7186 65.4128 59.4735 66.9154 61.6907 71.4511L63.1122 70.7562C60.6691 65.7586 57.5398 64.0583 54.48 62.3928L53.7236 63.7825ZM42.3217 49.7793C43.8797 54.4725 45.7111 57.4402 47.696 59.5146C49.6764 61.5844 51.7705 62.7194 53.7236 63.7825L54.48 62.3928C52.5201 61.326 50.6299 60.2923 48.8392 58.4208C47.0529 56.5539 45.3261 53.8078 43.8233 49.2808L42.3217 49.7793ZM42.8417 73.0914C38.4509 64.9061 40.7175 54.9722 43.7502 49.9383L42.3949 49.1218C39.1686 54.4772 36.7165 65.0199 41.4475 73.8394L42.8417 73.0914ZM53.1621 82.616C50.1944 81.8978 46.0612 79.0861 42.8416 73.0911L41.4476 73.8397C44.8237 80.126 49.2809 83.3046 52.7899 84.1538L53.1621 82.616ZM59.5523 81.3704C57.8925 82.6571 55.6374 83.215 53.1621 82.616L52.7899 84.1538C55.7206 84.863 58.4718 84.2101 60.5217 82.6209L59.5523 81.3704ZM60.6298 81.4718L47.5744 66.6979L46.3888 67.7457L59.4442 82.5195L60.6298 81.4718ZM46.4754 67.8298L61.5116 80.3495L62.524 79.1336L47.4878 66.6138L46.4754 67.8298Z" fill="#139D3D" fill-opacity="0.47" mask="url(#path-11-inside-4_1009_2542)"/>
<text fill="url(#paint2_linear_1009_2542)" stroke="#139D3D" stroke-opacity="0.12" stroke-width="0.474666" xml:space="preserve" style="white-space: pre" font-family="Raleway" font-size="16.3838" font-weight="bold" letter-spacing="0em"><tspan x="47.5215" y="55.1932">OLS</tspan></text>
<g opacity="0.05">
<path d="M1057.77 404.821C1113.56 546.349 1008.89 666.297 880.169 635.274C819.15 620.568 738.219 564.365 676.079 449.139C590.14 289.594 634.597 97.4763 693.563 0C795.855 306.87 957.112 199.766 1057.77 404.821Z" fill="url(#paint3_linear_1009_2542)"/>
<path d="M293.401 216.783C445.721 206.821 528.278 343.571 459.213 457.063C426.473 510.864 347.983 570.983 218.85 595.069C40.0805 628.323 -129.877 527.003 -204.958 440.806C119.592 437.047 66.6396 250.16 293.401 216.783Z" fill="url(#paint4_linear_1009_2542)"/>
</g>
</g>
<defs>
<linearGradient id="paint0_linear_1009_2542" x1="75.7912" y1="41.1782" x2="75.7912" y2="83.6472" gradientUnits="userSpaceOnUse">
<stop stop-color="#A5F200"/>
<stop offset="1" stop-color="#139D3D"/>
</linearGradient>
<linearGradient id="paint1_linear_1009_2542" x1="51.4081" y1="41.1786" x2="51.4081" y2="83.6477" gradientUnits="userSpaceOnUse">
<stop stop-color="#A5F200"/>
<stop offset="1" stop-color="#139D3D"/>
</linearGradient>
<linearGradient id="paint2_linear_1009_2542" x1="63.5215" y1="26.4384" x2="63.5215" y2="58.9097" gradientUnits="userSpaceOnUse">
<stop stop-color="#A5F200"/>
<stop offset="1" stop-color="#139D3D"/>
</linearGradient>
<linearGradient id="paint3_linear_1009_2542" x1="850.625" y1="-156.711" x2="850.625" y2="640.206" gradientUnits="userSpaceOnUse">
<stop stop-color="#A5F200"/>
<stop offset="1" stop-color="#139D3D"/>
</linearGradient>
<linearGradient id="paint4_linear_1009_2542" x1="-306.596" y1="242.734" x2="454.877" y2="486.803" gradientUnits="userSpaceOnUse">
<stop stop-color="#A5F200"/>
<stop offset="1" stop-color="#139D3D"/>
</linearGradient>
<clipPath id="clip0_1009_2542">
<rect width="1200" height="675" fill="white"/>
</clipPath>
</defs>
</svg>
