<svg width="1200" height="675" viewBox="0 0 1200 675" fill="none" xmlns="http://www.w3.org/2000/svg">
<g clip-path="url(#clip0_1009_2513)">
<rect width="1200" height="675" fill="#020887"/>
<mask id="path-1-inside-1_1009_2513" fill="white">
<path fill-rule="evenodd" clip-rule="evenodd" d="M65.6065 79.7048C64.2588 77.4324 63.9308 74.3726 65.2228 71.0948C67.5552 66.3432 70.5002 64.7468 73.5305 63.1042C77.4473 60.981 81.5068 58.7804 84.5706 49.5894C87.7031 54.7676 90.0648 64.9736 85.4994 73.4491C82.1983 79.5704 77.899 82.556 74.6574 83.3373C71.9515 83.9895 69.4456 83.3857 67.5889 81.952L80.6564 67.2255L65.6065 79.7048Z"/>
</mask>
<path fill-rule="evenodd" clip-rule="evenodd" d="M65.6065 79.7048C64.2588 77.4324 63.9308 74.3726 65.2228 71.0948C67.5552 66.3432 70.5002 64.7468 73.5305 63.1042C77.4473 60.981 81.5068 58.7804 84.5706 49.5894C87.7031 54.7676 90.0648 64.9736 85.4994 73.4491C82.1983 79.5704 77.899 82.556 74.6574 83.3373C71.9515 83.9895 69.4456 83.3857 67.5889 81.952L80.6564 67.2255L65.6065 79.7048Z" fill="white"/>
<path d="M65.2228 71.0948L64.4876 70.805L64.4994 70.7753L64.5134 70.7466L65.2228 71.0948ZM65.6065 79.7048L66.1109 80.3132L65.3987 80.9037L64.9268 80.1079L65.6065 79.7048ZM73.5305 63.1042L73.9071 63.7989L73.5305 63.1042ZM84.5706 49.5894L83.8209 49.3395L84.3616 47.7172L85.2467 49.1803L84.5706 49.5894ZM85.4994 73.4491L86.1951 73.8239L86.1949 73.8242L85.4994 73.4491ZM74.6574 83.3373L74.4723 82.569L74.6574 83.3373ZM67.5889 81.952L67.1059 82.5774L66.4362 82.0603L66.9978 81.4275L67.5889 81.952ZM80.6564 67.2255L80.152 66.6171L81.2475 67.75L80.6564 67.2255ZM65.958 71.3846C64.7472 74.4564 65.0742 77.2581 66.2862 79.3017L64.9268 80.1079C63.4434 77.6067 63.1144 74.2888 64.4876 70.805L65.958 71.3846ZM73.9071 63.7989C70.9087 65.4243 68.1513 66.9222 65.9322 71.443L64.5134 70.7466C66.9591 65.7642 70.0916 64.0694 73.1539 62.4094L73.9071 63.7989ZM85.3203 49.8393C83.7606 54.5182 81.9272 57.4767 79.9403 59.5447C77.958 61.6079 75.862 62.7392 73.9071 63.7989L73.1539 62.4094C75.1158 61.3459 77.0081 60.3154 78.8006 58.4497C80.5885 56.5889 82.3168 53.8516 83.8209 49.3395L85.3203 49.8393ZM84.8037 73.0744C89.1979 64.9165 86.9297 55.0159 83.8944 49.9984L85.2467 49.1803C88.4765 54.5194 90.9316 65.0307 86.1951 73.8239L84.8037 73.0744ZM74.4723 82.569C77.4443 81.8527 81.5815 79.0493 84.8039 73.074L86.1949 73.8242C82.8152 80.0914 78.3536 83.2594 74.8426 84.1055L74.4723 82.569ZM68.0719 81.3265C69.7338 82.6098 71.9927 83.1667 74.4723 82.569L74.8426 84.1055C71.9103 84.8123 69.1574 84.1616 67.1059 82.5774L68.0719 81.3265ZM66.9978 81.4275L80.0653 66.701L81.2475 67.75L68.18 82.4765L66.9978 81.4275ZM81.1608 67.8338L66.1109 80.3132L65.1021 79.0965L80.152 66.6171L81.1608 67.8338Z" fill="white" mask="url(#path-1-inside-1_1009_2513)"/>
<mask id="path-3-inside-2_1009_2513" fill="white">
<path fill-rule="evenodd" clip-rule="evenodd" d="M62.4404 79.7048C63.7881 77.4324 64.1161 74.3726 62.8241 71.0948C60.4916 66.3432 57.5467 64.7468 54.5164 63.1042C50.5995 60.981 46.5401 58.7804 43.4763 49.5894C40.3438 54.7676 37.9821 64.9736 42.5475 73.4491C45.8486 79.5704 50.1479 82.556 53.3894 83.3373C56.0954 83.9895 58.6012 83.3857 60.458 81.952L47.3905 67.2255L62.4404 79.7048Z"/>
</mask>
<path fill-rule="evenodd" clip-rule="evenodd" d="M62.4404 79.7048C63.7881 77.4324 64.1161 74.3726 62.8241 71.0948C60.4916 66.3432 57.5467 64.7468 54.5164 63.1042C50.5995 60.981 46.5401 58.7804 43.4763 49.5894C40.3438 54.7676 37.9821 64.9736 42.5475 73.4491C45.8486 79.5704 50.1479 82.556 53.3894 83.3373C56.0954 83.9895 58.6012 83.3857 60.458 81.952L47.3905 67.2255L62.4404 79.7048Z" fill="white"/>
<path d="M62.8241 71.0948L63.5592 70.805L63.5475 70.7753L63.5334 70.7466L62.8241 71.0948ZM62.4404 79.7048L61.936 80.3132L62.6481 80.9037L63.1201 80.1079L62.4404 79.7048ZM54.5164 63.1042L54.1398 63.7989L54.5164 63.1042ZM43.4763 49.5894L44.226 49.3395L43.6852 47.7172L42.8002 49.1803L43.4763 49.5894ZM42.5475 73.4491L41.8517 73.8239L41.8519 73.8242L42.5475 73.4491ZM53.3894 83.3373L53.5746 82.569L53.3894 83.3373ZM60.458 81.952L60.941 82.5774L61.6107 82.0603L61.0491 81.4275L60.458 81.952ZM47.3905 67.2255L47.8949 66.6171L46.7994 67.75L47.3905 67.2255ZM62.0889 71.3846C63.2997 74.4564 62.9727 77.2581 61.7607 79.3017L63.1201 80.1079C64.6035 77.6067 64.9325 74.2888 63.5592 70.805L62.0889 71.3846ZM54.1398 63.7989C57.1381 65.4243 59.8955 66.9222 62.1147 71.443L63.5334 70.7466C61.0877 65.7642 57.9552 64.0694 54.893 62.4094L54.1398 63.7989ZM42.7266 49.8393C44.2863 54.5182 46.1196 57.4767 48.1066 59.5447C50.0889 61.6079 52.1849 62.7392 54.1398 63.7989L54.893 62.4094C52.931 61.3459 51.0388 60.3154 49.2463 58.4497C47.4583 56.5889 45.7301 53.8516 44.226 49.3395L42.7266 49.8393ZM43.2432 73.0744C38.8489 64.9165 41.1172 55.0159 44.1525 49.9984L42.8002 49.1803C39.5704 54.5194 37.1152 65.0307 41.8517 73.8239L43.2432 73.0744ZM53.5746 82.569C50.6025 81.8527 46.4654 79.0493 43.243 73.074L41.8519 73.8242C45.2317 80.0914 49.6933 83.2594 53.2043 84.1055L53.5746 82.569ZM59.975 81.3265C58.3131 82.6098 56.0542 83.1667 53.5746 82.569L53.2043 84.1055C56.1366 84.8123 58.8894 84.1616 60.941 82.5774L59.975 81.3265ZM61.0491 81.4275L47.9816 66.701L46.7994 67.75L59.8669 82.4765L61.0491 81.4275ZM46.886 67.8338L61.936 80.3132L62.9448 79.0965L47.8949 66.6171L46.886 67.8338Z" fill="white" mask="url(#path-3-inside-2_1009_2513)"/>
<path d="M54.0977 55.0818C53.2467 55.0818 52.472 54.9182 51.7737 54.5909C51.0864 54.2635 50.4917 53.8217 49.9898 53.2652C49.4989 52.6979 49.117 52.065 48.8442 51.3668C48.5715 50.6576 48.4351 49.932 48.4351 49.1901C48.4351 48.4155 48.5769 47.679 48.8606 46.9807C49.1552 46.2715 49.5534 45.6442 50.0553 45.0986C50.5681 44.5422 51.1682 44.1058 51.8556 43.7894C52.5538 43.462 53.3176 43.2984 54.1468 43.2984C54.9869 43.2984 55.7506 43.4675 56.438 43.8057C57.1363 44.1439 57.7309 44.5967 58.2219 45.1641C58.7129 45.7314 59.0947 46.3643 59.3675 47.0625C59.6403 47.7608 59.7767 48.4809 59.7767 49.2228C59.7767 49.9866 59.6348 50.723 59.3511 51.4322C59.0675 52.1305 58.6692 52.7579 58.1564 53.3143C57.6545 53.8598 57.0545 54.2908 56.3562 54.6072C55.6688 54.9236 54.916 55.0818 54.0977 55.0818ZM50.7263 49.1901C50.7263 49.692 50.8027 50.1775 50.9554 50.6467C51.1082 51.1158 51.3264 51.5359 51.6101 51.9068C51.9046 52.2669 52.2592 52.556 52.6738 52.7742C53.0994 52.9815 53.5794 53.0852 54.114 53.0852C54.6596 53.0852 55.1451 52.9761 55.5706 52.7579C55.9961 52.5287 56.3507 52.2287 56.6344 51.8577C56.9181 51.4759 57.1308 51.0558 57.2727 50.5976C57.4254 50.1284 57.5018 49.6593 57.5018 49.1901C57.5018 48.6882 57.42 48.2081 57.2563 47.7499C57.1036 47.2807 56.8799 46.8661 56.5853 46.5061C56.3016 46.1351 55.947 45.846 55.5215 45.6387C55.1069 45.4205 54.6378 45.3114 54.114 45.3114C53.5576 45.3114 53.0666 45.4259 52.6411 45.6551C52.2265 45.8733 51.8774 46.1679 51.5937 46.5388C51.31 46.9098 51.0918 47.3244 50.9391 47.7826C50.7972 48.2409 50.7263 48.71 50.7263 49.1901ZM61.5091 55V43.3802H63.7676V53.0197H69.6921V55H61.5091ZM77.9893 46.4243C77.913 46.3479 77.7711 46.2442 77.5638 46.1133C77.3674 45.9824 77.122 45.8569 76.8274 45.7369C76.5437 45.6169 76.2327 45.5132 75.8945 45.4259C75.5563 45.3277 75.2126 45.2787 74.8635 45.2787C74.2525 45.2787 73.7888 45.3932 73.4724 45.6223C73.1669 45.8515 73.0141 46.1733 73.0141 46.5879C73.0141 46.9043 73.1123 47.1553 73.3087 47.3408C73.5051 47.5262 73.7997 47.6844 74.1925 47.8154C74.5852 47.9463 75.0762 48.0881 75.6654 48.2409C76.4291 48.4264 77.0892 48.6555 77.6457 48.9282C78.213 49.1901 78.644 49.5392 78.9386 49.9757C79.2441 50.4012 79.3968 50.9685 79.3968 51.6777C79.3968 52.2996 79.2823 52.8342 79.0531 53.2816C78.824 53.718 78.5076 54.0726 78.1039 54.3454C77.7002 54.6181 77.242 54.82 76.7292 54.9509C76.2164 55.0709 75.6708 55.1309 75.0926 55.1309C74.5143 55.1309 73.9361 55.0709 73.3578 54.9509C72.7795 54.8309 72.2231 54.6618 71.6885 54.4436C71.1539 54.2144 70.6629 53.9417 70.2155 53.6253L71.2139 51.6777C71.3121 51.7759 71.4866 51.9068 71.7376 52.0705C71.9885 52.2233 72.294 52.3815 72.6541 52.5451C73.0141 52.6979 73.4069 52.8288 73.8324 52.9379C74.2579 53.047 74.6889 53.1016 75.1253 53.1016C75.7363 53.1016 76.2 52.9979 76.5164 52.7906C76.8328 52.5833 76.991 52.2887 76.991 51.9068C76.991 51.5577 76.8656 51.2849 76.6146 51.0885C76.3637 50.8922 76.0145 50.723 75.5672 50.5812C75.1199 50.4285 74.5907 50.2648 73.9797 50.0902C73.2487 49.8829 72.6377 49.6538 72.1467 49.4029C71.6557 49.141 71.2902 48.8137 71.0502 48.4209C70.8102 48.0281 70.6902 47.5371 70.6902 46.948C70.6902 46.1515 70.8756 45.486 71.2466 44.9513C71.6285 44.4058 72.1413 43.9967 72.785 43.7239C73.4287 43.4402 74.1434 43.2984 74.9289 43.2984C75.4745 43.2984 75.9873 43.3584 76.4673 43.4784C76.9583 43.5984 77.4165 43.7566 77.8421 43.953C78.2676 44.1494 78.6494 44.3622 78.9877 44.5913L77.9893 46.4243Z" fill="white"/>
<path d="M51.7737 54.5909L51.5699 55.0189L51.5725 55.0202L51.7737 54.5909ZM49.9898 53.2652L49.6312 53.5756L49.6378 53.5828L49.9898 53.2652ZM48.8442 51.3668L48.4017 51.537L48.4026 51.5393L48.8442 51.3668ZM48.8606 46.9807L48.4227 46.7988L48.4213 46.8022L48.8606 46.9807ZM50.0553 45.0986L49.7066 44.7773L49.7064 44.7776L50.0553 45.0986ZM51.8556 43.7894L52.0538 44.2201L52.0568 44.2187L51.8556 43.7894ZM56.438 43.8057L56.2287 44.2312L56.2313 44.2324L56.438 43.8057ZM58.2219 45.1641L57.8634 45.4744L57.8634 45.4744L58.2219 45.1641ZM59.3675 47.0625L59.8092 46.89V46.89L59.3675 47.0625ZM59.3511 51.4322L59.7904 51.6107L59.7914 51.6083L59.3511 51.4322ZM58.1564 53.3143L57.8078 52.993L57.8075 52.9933L58.1564 53.3143ZM56.3562 54.6072L56.1605 54.1753L56.1579 54.1765L56.3562 54.6072ZM50.9554 50.6467L50.5046 50.7935L50.9554 50.6467ZM51.6101 51.9068L51.2334 52.1949L51.2382 52.2011L51.2431 52.2071L51.6101 51.9068ZM52.6738 52.7742L52.453 53.1938L52.4595 53.1973L52.4662 53.2005L52.6738 52.7742ZM55.5706 52.7579L55.787 53.1799L55.7954 53.1753L55.5706 52.7579ZM56.6344 51.8577L57.0111 52.1458L57.015 52.1405L56.6344 51.8577ZM57.2727 50.5976L56.8218 50.4508L56.8197 50.4574L57.2727 50.5976ZM57.2563 47.7499L56.8053 47.8968L56.8098 47.9094L57.2563 47.7499ZM56.5853 46.5061L56.2087 46.7941L56.2134 46.8003L56.2183 46.8063L56.5853 46.5061ZM55.5215 45.6387L55.3007 46.0583L55.3072 46.0617L55.3139 46.065L55.5215 45.6387ZM52.6411 45.6551L52.862 46.0747L52.8659 46.0725L52.6411 45.6551ZM51.5937 46.5388L51.2171 46.2508H51.2171L51.5937 46.5388ZM50.9391 47.7826L50.4891 47.6327L50.4861 47.6424L50.9391 47.7826ZM54.0977 54.6077C53.3089 54.6077 52.604 54.4564 51.975 54.1615L51.5725 55.0202C52.34 55.38 53.1844 55.556 54.0977 55.556V54.6077ZM51.9776 54.1628C51.3455 53.8618 50.8015 53.4571 50.3419 52.9476L49.6378 53.5828C50.182 54.1862 50.8272 54.6653 51.5699 55.0189L51.9776 54.1628ZM50.3484 52.9549C49.8927 52.4284 49.539 51.8422 49.2859 51.1943L48.4026 51.5393C48.695 52.2879 49.105 52.9673 49.6313 53.5755L50.3484 52.9549ZM49.2868 51.1966C49.0344 50.5403 48.9092 49.8724 48.9092 49.1901H47.9609C47.9609 49.9916 48.1085 50.7748 48.4017 51.537L49.2868 51.1966ZM48.9092 49.1901C48.9092 48.4749 49.0399 47.7992 49.2999 47.1592L48.4213 46.8022C48.114 47.5588 47.9609 48.356 47.9609 49.1901H48.9092ZM49.2985 47.1626C49.5725 46.5028 49.9413 45.9229 50.4042 45.4197L49.7064 44.7776C49.1656 45.3654 48.7378 46.0403 48.4227 46.7988L49.2985 47.1626ZM50.404 45.4199C50.8743 44.9095 51.4233 44.5103 52.0538 44.2201L51.6573 43.3586C50.9131 43.7012 50.2619 44.1748 49.7066 44.7773L50.404 45.4199ZM52.0568 44.2187C52.6874 43.9231 53.3818 43.7725 54.1468 43.7725V42.8242C53.2533 42.8242 52.4202 43.001 51.6543 43.36L52.0568 44.2187ZM54.1468 43.7725C54.9214 43.7725 55.6125 43.928 56.2287 44.2312L56.6473 43.3803C55.8887 43.007 55.0524 42.8242 54.1468 42.8242V43.7725ZM56.2313 44.2324C56.8736 44.5436 57.416 44.9574 57.8634 45.4744L58.5804 44.8538C58.0458 44.2361 57.399 43.7443 56.6447 43.379L56.2313 44.2324ZM57.8634 45.4744C58.319 46.0009 58.6728 46.5871 58.9259 47.2351L59.8092 46.89C59.5167 46.1414 59.1067 45.462 58.5804 44.8538L57.8634 45.4744ZM58.9259 47.2351C59.1774 47.8789 59.3025 48.5406 59.3025 49.2228H60.2508C60.2508 48.4213 60.1032 47.6427 59.8092 46.89L58.9259 47.2351ZM59.3025 49.2228C59.3025 49.9263 59.1722 50.603 58.9109 51.2561L59.7914 51.6083C60.0974 50.8431 60.2508 50.0469 60.2508 49.2228H59.3025ZM58.9119 51.2538C58.6497 51.8992 58.2822 52.4782 57.8078 52.993L58.5051 53.6356C59.0563 53.0376 59.4853 52.3619 59.7904 51.6107L58.9119 51.2538ZM57.8075 52.9933C57.3502 53.4903 56.8028 53.8843 56.1605 54.1753L56.5519 55.0391C57.3061 54.6973 57.9589 54.2293 58.5054 53.6353L57.8075 52.9933ZM56.1579 54.1765C55.5377 54.462 54.8532 54.6077 54.0977 54.6077V55.556C54.9788 55.556 55.8 55.3852 56.5544 55.0379L56.1579 54.1765ZM50.2522 49.1901C50.2522 49.741 50.3361 50.2761 50.5046 50.7935L51.4063 50.4999C51.2692 50.0789 51.2005 49.643 51.2005 49.1901H50.2522ZM50.5046 50.7935C50.673 51.3106 50.9154 51.779 51.2334 52.1949L51.9867 51.6188C51.7374 51.2928 51.5434 50.921 51.4063 50.4999L50.5046 50.7935ZM51.2431 52.2071C51.5782 52.6167 51.9826 52.9462 52.453 53.1938L52.8947 52.3547C52.5359 52.1658 52.2311 51.9171 51.977 51.6066L51.2431 52.2071ZM52.4662 53.2005C52.9643 53.4432 53.5168 53.5593 54.114 53.5593V52.611C53.642 52.611 53.2344 52.5199 52.8815 52.348L52.4662 53.2005ZM54.114 53.5593C54.7242 53.5593 55.2856 53.4369 55.787 53.1798L55.3543 52.336C55.0046 52.5153 54.595 52.611 54.114 52.611V53.5593ZM55.7954 53.1753C56.278 52.9155 56.6851 52.572 57.011 52.1458L56.2578 51.5697C56.0164 51.8854 55.7142 52.142 55.3458 52.3404L55.7954 53.1753ZM57.015 52.1405C57.331 51.7152 57.568 51.2468 57.7256 50.7378L56.8197 50.4574C56.6936 50.8648 56.5052 51.2366 56.2538 51.575L57.015 52.1405ZM57.7235 50.7444C57.8909 50.2303 57.9759 49.7116 57.9759 49.1901H57.0276C57.0276 49.6069 56.9599 50.0266 56.8218 50.4508L57.7235 50.7444ZM57.9759 49.1901C57.9759 48.6356 57.8853 48.1015 57.7028 47.5904L56.8098 47.9094C56.9546 48.3148 57.0276 48.7408 57.0276 49.1901H57.9759ZM57.7072 47.6031C57.5373 47.0815 57.2863 46.6141 56.9523 46.2058L56.2183 46.8063C56.4735 47.1182 56.6698 47.48 56.8054 47.8967L57.7072 47.6031ZM56.9619 46.2181C56.6328 45.7877 56.2201 45.4516 55.7292 45.2124L55.3139 46.065C55.674 46.2404 55.9704 46.4826 56.2087 46.7941L56.9619 46.2181ZM55.7423 45.2191C55.252 44.961 54.7055 44.8372 54.114 44.8372V45.7855C54.57 45.7855 54.9619 45.88 55.3007 46.0583L55.7423 45.2191ZM54.114 44.8372C53.4911 44.8372 52.9207 44.966 52.4163 45.2376L52.8659 46.0725C53.2125 45.8859 53.6241 45.7855 54.114 45.7855V44.8372ZM52.4203 45.2355C51.945 45.4856 51.5427 45.825 51.2171 46.2508L51.9703 46.8268C52.2121 46.5107 52.508 46.2609 52.8619 46.0746L52.4203 45.2355ZM51.2171 46.2508C50.9004 46.6649 50.658 47.1264 50.4892 47.6327L51.3889 47.9326C51.5256 47.5224 51.7196 47.1547 51.9703 46.8268L51.2171 46.2508ZM50.4861 47.6424C50.3302 48.1461 50.2522 48.6625 50.2522 49.1901H51.2005C51.2005 48.7575 51.2642 48.3356 51.392 47.9228L50.4861 47.6424ZM61.5091 55H61.035V55.4741H61.5091V55ZM61.5091 43.3802V42.9061H61.035V43.3802H61.5091ZM63.7676 43.3802H64.2418V42.9061H63.7676V43.3802ZM63.7676 53.0197H63.2935V53.4939H63.7676V53.0197ZM69.6921 53.0197H70.1662V52.5456H69.6921V53.0197ZM69.6921 55V55.4741H70.1662V55H69.6921ZM61.9833 55V43.3802H61.035V55H61.9833ZM61.5091 43.8544H63.7676V42.9061H61.5091V43.8544ZM63.2935 43.3802V53.0197H64.2418V43.3802H63.2935ZM63.7676 53.4939H69.6921V52.5456H63.7676V53.4939ZM69.2179 53.0197V55H70.1662V53.0197H69.2179ZM69.6921 54.5259H61.5091V55.4741H69.6921V54.5259ZM77.9893 46.4243L77.6541 46.7595L78.1024 47.2079L78.4057 46.6511L77.9893 46.4243ZM77.5638 46.1133L77.3007 46.5079L77.3106 46.5142L77.5638 46.1133ZM76.8274 45.7369L76.6426 46.1736L76.6485 46.176L76.8274 45.7369ZM75.8945 45.4259L75.7623 45.8813L75.7691 45.8833L75.776 45.885L75.8945 45.4259ZM73.4724 45.6223L73.1942 45.2383L73.1879 45.243L73.4724 45.6223ZM74.1925 47.8154L74.0425 48.2652L74.1925 47.8154ZM75.6654 48.2409L75.5464 48.6999L75.5535 48.7016L75.6654 48.2409ZM77.6457 48.9282L77.4369 49.3541L77.447 49.3588L77.6457 48.9282ZM78.9386 49.9757L78.5454 50.241L78.5534 50.2522L78.9386 49.9757ZM79.0531 53.2816L79.473 53.502L79.4751 53.4977L79.0531 53.2816ZM78.1039 54.3454L77.8385 53.9525L78.1039 54.3454ZM76.7292 54.9509L76.8372 55.4127L76.8465 55.4103L76.7292 54.9509ZM71.6885 54.4436L71.5017 54.8794L71.5093 54.8825L71.6885 54.4436ZM70.2155 53.6253L69.7936 53.409L69.606 53.7749L69.9417 54.0124L70.2155 53.6253ZM71.2139 51.6777L71.5491 51.3424L71.0889 50.8822L70.7919 51.4614L71.2139 51.6777ZM71.7376 52.0705L71.4786 52.4677L71.4847 52.4717L71.491 52.4755L71.7376 52.0705ZM72.6541 52.5451L72.4578 52.9769L72.4689 52.9816L72.6541 52.5451ZM73.8324 52.9379L73.7146 53.3972L73.8324 52.9379ZM76.5164 52.7906L76.2566 52.394L76.5164 52.7906ZM75.5672 50.5812L75.4139 51.03L75.4239 51.0332L75.5672 50.5812ZM73.9797 50.0902L74.11 49.6343L74.1091 49.6341L73.9797 50.0902ZM72.1467 49.4029L71.9236 49.8213L71.9309 49.8251L72.1467 49.4029ZM71.0502 48.4209L70.6456 48.6681L71.0502 48.4209ZM71.2466 44.9513L70.8582 44.6794L70.857 44.681L71.2466 44.9513ZM72.785 43.7239L72.97 44.1605L72.9762 44.1578L72.785 43.7239ZM76.4673 43.4784L76.3523 43.9384L76.3547 43.939L76.4673 43.4784ZM77.8421 43.953L78.0407 43.5225L77.8421 43.953ZM78.9877 44.5913L79.4041 44.8181L79.6099 44.4401L79.2536 44.1987L78.9877 44.5913ZM78.3246 46.089C78.2077 45.9721 78.0262 45.8446 77.817 45.7124L77.3106 46.5142C77.516 46.6439 77.6182 46.7237 77.6541 46.7595L78.3246 46.089ZM77.8268 45.7188C77.5967 45.5653 77.3209 45.426 77.0063 45.2978L76.6485 46.176C76.923 46.2879 77.1382 46.3994 77.3008 46.5078L77.8268 45.7188ZM77.0121 45.3002C76.7043 45.17 76.3709 45.0592 76.013 44.9668L75.776 45.885C76.0946 45.9673 76.3831 46.0638 76.6426 46.1736L77.0121 45.3002ZM76.0267 44.9706C75.6459 44.86 75.2577 44.8045 74.8635 44.8045V45.7528C75.1675 45.7528 75.4667 45.7955 75.7623 45.8813L76.0267 44.9706ZM74.8635 44.8045C74.205 44.8045 73.6256 44.9259 73.1943 45.2383L73.7504 46.0064C73.9519 45.8605 74.2999 45.7528 74.8635 45.7528V44.8045ZM73.1879 45.243C72.7516 45.5702 72.54 46.0389 72.54 46.5879H73.4883C73.4883 46.3077 73.5821 46.1327 73.7568 46.0017L73.1879 45.243ZM72.54 46.5879C72.54 47.0105 72.6756 47.395 72.9831 47.6855L73.6343 46.996C73.549 46.9156 73.4883 46.7982 73.4883 46.5879H72.54ZM72.9831 47.6855C73.2493 47.9368 73.6158 48.1229 74.0425 48.2652L74.3424 47.3656C73.9836 47.2459 73.7609 47.1156 73.6343 46.996L72.9831 47.6855ZM74.0425 48.2652C74.449 48.4007 74.9512 48.5455 75.5464 48.6999L75.7844 47.7819C75.2013 47.6307 74.7215 47.4919 74.3424 47.3656L74.0425 48.2652ZM75.5535 48.7016C76.2922 48.881 76.9184 49.0998 77.437 49.354L77.8544 48.5025C77.2601 48.2112 76.566 47.9717 75.7773 47.7801L75.5535 48.7016ZM77.447 49.3588C77.9505 49.5911 78.3078 49.8887 78.5456 50.2409L79.3316 49.7104C78.9801 49.1898 78.4755 48.7891 77.8444 48.4977L77.447 49.3588ZM78.5534 50.2522C78.7837 50.573 78.9227 51.0332 78.9227 51.6777H79.871C79.871 50.9038 79.7044 50.2294 79.3237 49.6991L78.5534 50.2522ZM78.9227 51.6777C78.9227 52.242 78.8188 52.699 78.6311 53.0654L79.4751 53.4977C79.7457 52.9695 79.871 52.3573 79.871 51.6777H78.9227ZM78.6333 53.0612C78.4402 53.4291 78.1764 53.7241 77.8385 53.9525L78.3694 54.7382C78.8388 54.4211 79.2078 54.0069 79.4729 53.502L78.6333 53.0612ZM77.8385 53.9525C77.4837 54.1922 77.0764 54.3729 76.6119 54.4915L76.8465 55.4103C77.4075 55.2671 77.9167 55.0441 78.3694 54.7382L77.8385 53.9525ZM76.6211 54.4892C76.147 54.6002 75.638 54.6568 75.0926 54.6568V55.6051C75.7037 55.6051 76.2857 55.5416 76.8372 55.4126L76.6211 54.4892ZM75.0926 54.6568C74.5474 54.6568 74.0014 54.6002 73.4541 54.4866L73.2614 55.4152C73.8707 55.5416 74.4813 55.6051 75.0926 55.6051V54.6568ZM73.4541 54.4866C72.9036 54.3724 72.3749 54.2116 71.8677 54.0046L71.5093 54.8825C72.0713 55.1119 72.6555 55.2894 73.2614 55.4152L73.4541 54.4866ZM71.8752 54.0077C71.3694 53.791 70.9078 53.5342 70.4893 53.2382L69.9417 54.0124C70.4179 54.3492 70.9383 54.6379 71.5017 54.8794L71.8752 54.0077ZM70.6375 53.8416L71.6358 51.894L70.7919 51.4614L69.7936 53.409L70.6375 53.8416ZM70.8786 52.013C71.014 52.1484 71.2241 52.3017 71.4786 52.4677L71.9966 51.6734C71.7491 51.512 71.6101 51.4034 71.5491 51.3424L70.8786 52.013ZM71.491 52.4755C71.7627 52.6409 72.086 52.8077 72.4579 52.9768L72.8503 52.1135C72.502 51.9552 72.2144 51.8057 71.9841 51.6655L71.491 52.4755ZM72.4689 52.9816C72.8533 53.1447 73.2689 53.2829 73.7146 53.3972L73.9502 52.4786C73.5449 52.3747 73.1749 52.251 72.8392 52.1086L72.4689 52.9816ZM73.7146 53.3972C74.1784 53.5161 74.6489 53.5757 75.1253 53.5757V52.6274C74.7289 52.6274 74.3375 52.5779 73.9502 52.4786L73.7146 53.3972ZM75.1253 53.5757C75.777 53.5757 76.3485 53.4674 76.7763 53.1872L76.2566 52.394C76.0515 52.5284 75.6956 52.6274 75.1253 52.6274V53.5757ZM76.7763 53.1872C77.2279 52.8913 77.4652 52.4467 77.4652 51.9068H76.5169C76.5169 52.1307 76.4377 52.2753 76.2566 52.394L76.7763 53.1872ZM77.4652 51.9068C77.4652 51.4279 77.2846 51.0108 76.9068 50.7152L76.3224 51.4619C76.4465 51.559 76.5169 51.6875 76.5169 51.9068H77.4652ZM76.9068 50.7152C76.5956 50.4716 76.1886 50.2808 75.7105 50.1292L75.4239 51.0332C75.8404 51.1652 76.1318 51.3128 76.3224 51.4619L76.9068 50.7152ZM75.7204 50.1325C75.2634 49.9764 74.7262 49.8104 74.11 49.6343L73.8494 50.5461C74.4552 50.7192 74.9763 50.8805 75.414 51.0299L75.7204 50.1325ZM74.1091 49.6341C73.3976 49.4323 72.8177 49.2133 72.3625 48.9807L71.9309 49.8251C72.4577 50.0943 73.0998 50.3335 73.8503 50.5464L74.1091 49.6341ZM72.3698 48.9845C71.9379 48.7541 71.6423 48.4805 71.4548 48.1737L70.6456 48.6681C70.9382 49.1469 71.3735 49.5279 71.9236 49.8212L72.3698 48.9845ZM71.4548 48.1737C71.2713 47.8735 71.1643 47.474 71.1643 46.948H70.216C70.216 47.6003 70.349 48.1828 70.6456 48.6681L71.4548 48.1737ZM71.1643 46.948C71.1643 46.2262 71.3316 45.6606 71.6361 45.2216L70.857 44.681C70.4197 45.3113 70.216 46.0768 70.216 46.948H71.1643ZM71.635 45.2232C71.9633 44.7543 72.4039 44.4003 72.97 44.1605L72.6 43.2873C71.8786 43.593 71.2937 44.0573 70.8582 44.6794L71.635 45.2232ZM72.9762 44.1578C73.553 43.9036 74.2015 43.7725 74.9289 43.7725V42.8242C74.0852 42.8242 73.3044 42.9768 72.5938 43.29L72.9762 44.1578ZM74.9289 43.7725C75.4396 43.7725 75.9135 43.8287 76.3523 43.9384L76.5823 43.0184C76.061 42.8881 75.5093 42.8242 74.9289 42.8242V43.7725ZM76.3547 43.939C76.8184 44.0523 77.2476 44.2009 77.6434 44.3835L78.0407 43.5225C77.5855 43.3124 77.0982 43.1445 76.5799 43.0178L76.3547 43.939ZM77.6434 44.3835C78.0488 44.5706 78.4077 44.7711 78.7217 44.9838L79.2536 44.1987C78.8912 43.9532 78.4863 43.7282 78.0407 43.5225L77.6434 44.3835ZM78.5713 44.3645L77.573 46.1975L78.4057 46.6511L79.4041 44.8181L78.5713 44.3645Z" fill="white"/>
<g opacity="0.2">
<path d="M1057.77 404.821C1113.56 546.349 1008.89 666.297 880.169 635.274C819.15 620.568 738.219 564.365 676.079 449.139C590.14 289.594 634.597 97.4763 693.563 0C795.855 306.87 957.112 199.766 1057.77 404.821Z" fill="url(#paint0_linear_1009_2513)"/>
<path d="M293.401 216.783C445.721 206.821 528.278 343.571 459.213 457.063C426.473 510.864 347.983 570.983 218.85 595.069C40.0805 628.323 -129.877 527.003 -204.958 440.806C119.592 437.047 66.6396 250.16 293.401 216.783Z" fill="url(#paint1_linear_1009_2513)"/>
</g>
<path d="M1085.85 736.038C968.49 757.07 857.098 691.96 805.193 634.583C857.527 633.792 895.301 625.746 924.706 613.624C955.179 601.062 976.504 584.186 995.611 566.79C1000.49 562.344 1005.23 557.869 1009.94 553.423C1041.98 523.145 1072.59 494.215 1138.83 484.884C1189.63 481.931 1228.35 503.317 1248.63 534.55C1268.93 565.807 1270.94 607.181 1247.78 644.682C1225.81 680.259 1173.03 720.372 1085.85 736.038Z" fill="#020887" stroke="white" stroke-width="5.18484"/>
<path d="M998.125 617.525C996.585 617.525 995.195 617.225 993.955 616.625C992.715 616.025 991.645 615.215 990.745 614.195C989.845 613.155 989.145 611.995 988.645 610.715C988.165 609.415 987.925 608.085 987.925 606.725C987.925 605.305 988.185 603.955 988.705 602.675C989.225 601.375 989.945 600.225 990.865 599.225C991.785 598.205 992.865 597.405 994.105 596.825C995.365 596.225 996.725 595.925 998.185 595.925C999.705 595.925 1001.09 596.235 1002.33 596.855C1003.59 597.475 1004.66 598.305 1005.54 599.345C1006.44 600.385 1007.13 601.545 1007.61 602.825C1008.11 604.105 1008.36 605.415 1008.36 606.755C1008.36 608.175 1008.1 609.535 1007.58 610.835C1007.08 612.115 1006.37 613.265 1005.45 614.285C1004.53 615.285 1003.44 616.075 1002.18 616.655C1000.94 617.235 999.585 617.525 998.125 617.525ZM991.345 606.725C991.345 607.725 991.505 608.695 991.825 609.635C992.145 610.575 992.595 611.415 993.175 612.155C993.775 612.875 994.495 613.445 995.335 613.865C996.175 614.285 997.115 614.495 998.155 614.495C999.235 614.495 1000.2 614.275 1001.04 613.835C1001.88 613.395 1002.58 612.805 1003.14 612.065C1003.72 611.305 1004.16 610.465 1004.46 609.545C1004.76 608.605 1004.91 607.665 1004.91 606.725C1004.91 605.725 1004.75 604.765 1004.43 603.845C1004.13 602.905 1003.68 602.075 1003.08 601.355C1002.48 600.615 1001.76 600.035 1000.92 599.615C1000.1 599.195 999.175 598.985 998.155 598.985C997.075 598.985 996.115 599.205 995.275 599.645C994.435 600.085 993.725 600.675 993.145 601.415C992.565 602.155 992.115 602.985 991.795 603.905C991.495 604.825 991.345 605.765 991.345 606.725ZM1020.18 617.675C1018.92 617.675 1017.81 617.375 1016.85 616.775C1015.89 616.175 1015.13 615.395 1014.57 614.435V623.765H1011.27V601.685H1014.18V604.505C1014.78 603.565 1015.56 602.815 1016.52 602.255C1017.48 601.695 1018.55 601.415 1019.73 601.415C1020.81 601.415 1021.8 601.635 1022.7 602.075C1023.6 602.495 1024.38 603.085 1025.04 603.845C1025.7 604.605 1026.21 605.475 1026.57 606.455C1026.95 607.415 1027.14 608.435 1027.14 609.515C1027.14 611.015 1026.84 612.385 1026.24 613.625C1025.66 614.865 1024.84 615.855 1023.78 616.595C1022.74 617.315 1021.54 617.675 1020.18 617.675ZM1019.1 614.855C1019.8 614.855 1020.43 614.705 1020.99 614.405C1021.57 614.105 1022.06 613.705 1022.46 613.205C1022.88 612.705 1023.2 612.135 1023.42 611.495C1023.64 610.855 1023.75 610.195 1023.75 609.515C1023.75 608.795 1023.63 608.115 1023.39 607.475C1023.15 606.835 1022.8 606.275 1022.34 605.795C1021.9 605.315 1021.38 604.935 1020.78 604.655C1020.2 604.375 1019.56 604.235 1018.86 604.235C1018.44 604.235 1018 604.315 1017.54 604.475C1017.08 604.635 1016.65 604.855 1016.25 605.135C1015.85 605.415 1015.5 605.745 1015.2 606.125C1014.9 606.505 1014.69 606.905 1014.57 607.325V611.435C1014.85 612.075 1015.22 612.655 1015.68 613.175C1016.14 613.675 1016.67 614.085 1017.27 614.405C1017.87 614.705 1018.48 614.855 1019.1 614.855ZM1037.22 617.675C1036 617.675 1034.89 617.465 1033.89 617.045C1032.91 616.605 1032.06 616.015 1031.34 615.275C1030.62 614.515 1030.06 613.655 1029.66 612.695C1029.28 611.715 1029.09 610.675 1029.09 609.575C1029.09 608.095 1029.43 606.745 1030.1 605.525C1030.79 604.285 1031.74 603.295 1032.96 602.555C1034.18 601.795 1035.61 601.415 1037.25 601.415C1038.89 601.415 1040.3 601.795 1041.48 602.555C1042.68 603.295 1043.61 604.275 1044.27 605.495C1044.93 606.715 1045.26 608.025 1045.26 609.425C1045.26 609.665 1045.25 609.895 1045.23 610.115C1045.21 610.315 1045.19 610.485 1045.17 610.625H1032.6C1032.66 611.545 1032.91 612.355 1033.35 613.055C1033.81 613.735 1034.39 614.275 1035.09 614.675C1035.79 615.055 1036.54 615.245 1037.34 615.245C1038.22 615.245 1039.05 615.025 1039.83 614.585C1040.63 614.145 1041.17 613.565 1041.45 612.845L1044.27 613.655C1043.93 614.415 1043.41 615.105 1042.71 615.725C1042.03 616.325 1041.22 616.805 1040.28 617.165C1039.34 617.505 1038.32 617.675 1037.22 617.675ZM1032.51 608.435H1041.99C1041.93 607.535 1041.67 606.745 1041.21 606.065C1040.77 605.365 1040.2 604.825 1039.5 604.445C1038.82 604.045 1038.06 603.845 1037.22 603.845C1036.4 603.845 1035.64 604.045 1034.94 604.445C1034.26 604.825 1033.7 605.365 1033.26 606.065C1032.82 606.745 1032.57 607.535 1032.51 608.435ZM1062.02 617.375H1058.72V608.585C1058.72 607.125 1058.48 606.055 1058 605.375C1057.54 604.695 1056.85 604.355 1055.93 604.355C1055.29 604.355 1054.65 604.515 1054.01 604.835C1053.39 605.155 1052.83 605.595 1052.33 606.155C1051.83 606.695 1051.47 607.325 1051.25 608.045V617.375H1047.95V601.685H1050.95V604.835C1051.35 604.135 1051.87 603.535 1052.51 603.035C1053.17 602.515 1053.91 602.115 1054.73 601.835C1055.55 601.555 1056.42 601.415 1057.34 601.415C1058.28 601.415 1059.05 601.585 1059.65 601.925C1060.27 602.265 1060.75 602.735 1061.09 603.335C1061.45 603.915 1061.69 604.595 1061.81 605.375C1061.95 606.135 1062.02 606.945 1062.02 607.805V617.375ZM1086.28 601.085C1086.08 600.865 1085.79 600.635 1085.41 600.395C1085.03 600.135 1084.58 599.895 1084.06 599.675C1083.54 599.455 1082.98 599.275 1082.38 599.135C1081.78 598.995 1081.16 598.925 1080.52 598.925C1079.12 598.925 1078.08 599.185 1077.4 599.705C1076.72 600.225 1076.38 600.945 1076.38 601.865C1076.38 602.545 1076.57 603.085 1076.95 603.485C1077.33 603.865 1077.91 604.185 1078.69 604.445C1079.47 604.705 1080.45 604.985 1081.63 605.285C1083.07 605.625 1084.32 606.035 1085.38 606.515C1086.44 606.975 1087.25 607.595 1087.81 608.375C1088.37 609.155 1088.65 610.185 1088.65 611.465C1088.65 612.545 1088.45 613.475 1088.05 614.255C1087.65 615.035 1087.09 615.675 1086.37 616.175C1085.65 616.655 1084.82 617.015 1083.88 617.255C1082.94 617.475 1081.93 617.585 1080.85 617.585C1079.79 617.585 1078.73 617.475 1077.67 617.255C1076.63 617.035 1075.63 616.715 1074.67 616.295C1073.73 615.855 1072.86 615.325 1072.06 614.705L1073.59 611.825C1073.85 612.085 1074.22 612.375 1074.7 612.695C1075.2 612.995 1075.77 613.285 1076.41 613.565C1077.07 613.845 1077.78 614.085 1078.54 614.285C1079.32 614.465 1080.11 614.555 1080.91 614.555C1082.25 614.555 1083.27 614.325 1083.97 613.865C1084.69 613.385 1085.05 612.705 1085.05 611.825C1085.05 611.105 1084.82 610.535 1084.36 610.115C1083.9 609.675 1083.23 609.305 1082.35 609.005C1081.47 608.705 1080.42 608.405 1079.2 608.105C1077.8 607.725 1076.63 607.315 1075.69 606.875C1074.75 606.415 1074.04 605.835 1073.56 605.135C1073.1 604.415 1072.87 603.505 1072.87 602.405C1072.87 601.005 1073.21 599.825 1073.89 598.865C1074.57 597.885 1075.49 597.155 1076.65 596.675C1077.83 596.175 1079.15 595.925 1080.61 595.925C1081.57 595.925 1082.48 596.035 1083.34 596.255C1084.2 596.455 1085 596.735 1085.74 597.095C1086.5 597.455 1087.19 597.865 1087.81 598.325L1086.28 601.085ZM1098.71 617.675C1097.49 617.675 1096.38 617.465 1095.38 617.045C1094.4 616.605 1093.55 616.015 1092.83 615.275C1092.11 614.515 1091.55 613.655 1091.15 612.695C1090.77 611.715 1090.58 610.675 1090.58 609.575C1090.58 608.095 1090.92 606.745 1091.6 605.525C1092.28 604.285 1093.23 603.295 1094.45 602.555C1095.67 601.795 1097.1 601.415 1098.74 601.415C1100.38 601.415 1101.79 601.795 1102.97 602.555C1104.17 603.295 1105.1 604.275 1105.76 605.495C1106.42 606.715 1106.75 608.025 1106.75 609.425C1106.75 609.665 1106.74 609.895 1106.72 610.115C1106.7 610.315 1106.68 610.485 1106.66 610.625H1094.09C1094.15 611.545 1094.4 612.355 1094.84 613.055C1095.3 613.735 1095.88 614.275 1096.58 614.675C1097.28 615.055 1098.03 615.245 1098.83 615.245C1099.71 615.245 1100.54 615.025 1101.32 614.585C1102.12 614.145 1102.66 613.565 1102.94 612.845L1105.76 613.655C1105.42 614.415 1104.9 615.105 1104.2 615.725C1103.52 616.325 1102.71 616.805 1101.77 617.165C1100.83 617.505 1099.81 617.675 1098.71 617.675ZM1094 608.435H1103.48C1103.42 607.535 1103.16 606.745 1102.7 606.065C1102.26 605.365 1101.69 604.825 1100.99 604.445C1100.31 604.045 1099.55 603.845 1098.71 603.845C1097.89 603.845 1097.13 604.045 1096.43 604.445C1095.75 604.825 1095.19 605.365 1094.75 606.065C1094.31 606.745 1094.06 607.535 1094 608.435ZM1116.55 617.675C1115.33 617.675 1114.22 617.465 1113.22 617.045C1112.24 616.605 1111.39 616.015 1110.67 615.275C1109.95 614.515 1109.39 613.655 1108.99 612.695C1108.61 611.715 1108.42 610.675 1108.42 609.575C1108.42 608.095 1108.76 606.745 1109.44 605.525C1110.12 604.285 1111.07 603.295 1112.29 602.555C1113.51 601.795 1114.94 601.415 1116.58 601.415C1118.22 601.415 1119.63 601.795 1120.81 602.555C1122.01 603.295 1122.94 604.275 1123.6 605.495C1124.26 606.715 1124.59 608.025 1124.59 609.425C1124.59 609.665 1124.58 609.895 1124.56 610.115C1124.54 610.315 1124.52 610.485 1124.5 610.625H1111.93C1111.99 611.545 1112.24 612.355 1112.68 613.055C1113.14 613.735 1113.72 614.275 1114.42 614.675C1115.12 615.055 1115.87 615.245 1116.67 615.245C1117.55 615.245 1118.38 615.025 1119.16 614.585C1119.96 614.145 1120.5 613.565 1120.78 612.845L1123.6 613.655C1123.26 614.415 1122.74 615.105 1122.04 615.725C1121.36 616.325 1120.55 616.805 1119.61 617.165C1118.67 617.505 1117.65 617.675 1116.55 617.675ZM1111.84 608.435H1121.32C1121.26 607.535 1121 606.745 1120.54 606.065C1120.1 605.365 1119.53 604.825 1118.83 604.445C1118.15 604.045 1117.39 603.845 1116.55 603.845C1115.73 603.845 1114.97 604.045 1114.27 604.445C1113.59 604.825 1113.03 605.365 1112.59 606.065C1112.15 606.745 1111.9 607.535 1111.84 608.435ZM1126.29 609.545C1126.29 608.045 1126.59 606.685 1127.19 605.465C1127.81 604.225 1128.65 603.245 1129.71 602.525C1130.77 601.785 1131.99 601.415 1133.37 601.415C1134.57 601.415 1135.65 601.725 1136.61 602.345C1137.59 602.965 1138.35 603.735 1138.89 604.655V595.475H1142.19V613.655C1142.19 614.035 1142.26 614.305 1142.4 614.465C1142.54 614.625 1142.77 614.715 1143.09 614.735V617.375C1142.47 617.475 1141.99 617.525 1141.65 617.525C1141.03 617.525 1140.5 617.345 1140.06 616.985C1139.64 616.625 1139.42 616.195 1139.4 615.695L1139.37 614.525C1138.77 615.525 1137.96 616.305 1136.94 616.865C1135.92 617.405 1134.86 617.675 1133.76 617.675C1132.68 617.675 1131.68 617.465 1130.76 617.045C1129.86 616.625 1129.07 616.035 1128.39 615.275C1127.73 614.515 1127.21 613.645 1126.83 612.665C1126.47 611.685 1126.29 610.645 1126.29 609.545ZM1138.89 611.735V607.625C1138.67 606.985 1138.31 606.415 1137.81 605.915C1137.33 605.395 1136.78 604.985 1136.16 604.685C1135.56 604.385 1134.96 604.235 1134.36 604.235C1133.66 604.235 1133.02 604.385 1132.44 604.685C1131.88 604.985 1131.39 605.385 1130.97 605.885C1130.57 606.385 1130.26 606.955 1130.04 607.595C1129.82 608.235 1129.71 608.905 1129.71 609.605C1129.71 610.325 1129.83 611.005 1130.07 611.645C1130.31 612.265 1130.65 612.825 1131.09 613.325C1131.55 613.805 1132.07 614.185 1132.65 614.465C1133.25 614.725 1133.9 614.855 1134.6 614.855C1135.04 614.855 1135.48 614.775 1135.92 614.615C1136.38 614.455 1136.81 614.235 1137.21 613.955C1137.63 613.675 1137.98 613.345 1138.26 612.965C1138.56 612.585 1138.77 612.175 1138.89 611.735ZM1151.96 617.675C1150.64 617.675 1149.39 617.465 1148.21 617.045C1147.03 616.605 1146.02 615.955 1145.18 615.095L1146.41 612.875C1147.31 613.675 1148.21 614.255 1149.11 614.615C1150.03 614.975 1150.94 615.155 1151.84 615.155C1152.76 615.155 1153.51 614.985 1154.09 614.645C1154.67 614.285 1154.96 613.765 1154.96 613.085C1154.96 612.585 1154.81 612.215 1154.51 611.975C1154.21 611.735 1153.77 611.525 1153.19 611.345C1152.63 611.165 1151.95 610.965 1151.15 610.745C1150.03 610.405 1149.09 610.055 1148.33 609.695C1147.57 609.315 1147 608.855 1146.62 608.315C1146.24 607.775 1146.05 607.085 1146.05 606.245C1146.05 605.225 1146.31 604.355 1146.83 603.635C1147.35 602.915 1148.07 602.365 1148.99 601.985C1149.93 601.605 1151.01 601.415 1152.23 601.415C1153.37 601.415 1154.42 601.595 1155.38 601.955C1156.36 602.295 1157.22 602.835 1157.96 603.575L1156.55 605.765C1155.85 605.125 1155.13 604.655 1154.39 604.355C1153.67 604.055 1152.89 603.905 1152.05 603.905C1151.57 603.905 1151.11 603.965 1150.67 604.085C1150.23 604.185 1149.86 604.385 1149.56 604.685C1149.28 604.965 1149.14 605.365 1149.14 605.885C1149.14 606.305 1149.26 606.645 1149.5 606.905C1149.74 607.165 1150.1 607.385 1150.58 607.565C1151.06 607.745 1151.65 607.945 1152.35 608.165C1153.57 608.525 1154.61 608.885 1155.47 609.245C1156.33 609.585 1156.99 610.035 1157.45 610.595C1157.93 611.135 1158.17 611.885 1158.17 612.845C1158.17 614.365 1157.6 615.555 1156.46 616.415C1155.34 617.255 1153.84 617.675 1151.96 617.675Z" fill="white"/>
<path d="M1023.87 632.688V628.61L1022.28 631.646H1021.61L1020.01 628.61V632.688H1018.81V626.475H1020.1L1021.94 630.01L1023.79 626.475H1025.08V632.688H1023.87ZM1029.01 632.775C1028.65 632.775 1028.31 632.714 1028.02 632.591C1027.72 632.463 1027.47 632.291 1027.26 632.075C1027.05 631.853 1026.88 631.602 1026.77 631.322C1026.65 631.037 1026.6 630.736 1026.6 630.421C1026.6 629.984 1026.7 629.584 1026.89 629.222C1027.09 628.861 1027.37 628.572 1027.73 628.356C1028.1 628.135 1028.53 628.024 1029.02 628.024C1029.52 628.024 1029.95 628.135 1030.31 628.356C1030.66 628.572 1030.94 628.861 1031.12 629.222C1031.32 629.578 1031.41 629.963 1031.41 630.378C1031.41 630.447 1031.41 630.52 1031.4 630.596C1031.4 630.666 1031.39 630.725 1031.39 630.771H1027.84C1027.86 631.005 1027.93 631.209 1028.04 631.384C1028.16 631.559 1028.31 631.693 1028.48 631.786C1028.66 631.874 1028.85 631.917 1029.06 631.917C1029.29 631.917 1029.51 631.862 1029.71 631.751C1029.92 631.635 1030.07 631.483 1030.14 631.296L1031.15 631.576C1031.04 631.81 1030.88 632.017 1030.67 632.197C1030.46 632.378 1030.22 632.521 1029.94 632.626C1029.66 632.725 1029.35 632.775 1029.01 632.775ZM1027.82 630.027H1030.21C1030.19 629.794 1030.12 629.593 1030.01 629.424C1029.91 629.249 1029.77 629.115 1029.59 629.021C1029.42 628.922 1029.22 628.872 1029.01 628.872C1028.8 628.872 1028.6 628.922 1028.43 629.021C1028.26 629.115 1028.12 629.249 1028.01 629.424C1027.9 629.593 1027.84 629.794 1027.82 630.027ZM1037.09 632.688H1035.91V630.115C1035.91 629.747 1035.85 629.479 1035.72 629.31C1035.59 629.141 1035.42 629.056 1035.19 629.056C1035.03 629.056 1034.87 629.097 1034.71 629.179C1034.55 629.26 1034.41 629.374 1034.28 629.52C1034.15 629.66 1034.06 629.823 1034 630.01V632.688H1032.83V628.102H1033.88V628.951C1034 628.753 1034.15 628.587 1034.33 628.452C1034.51 628.312 1034.72 628.207 1034.95 628.137C1035.19 628.062 1035.44 628.024 1035.7 628.024C1035.99 628.024 1036.22 628.076 1036.4 628.181C1036.59 628.28 1036.73 628.417 1036.82 628.592C1036.92 628.762 1036.99 628.954 1037.03 629.17C1037.07 629.386 1037.09 629.605 1037.09 629.826V632.688ZM1041.53 632.451C1041.43 632.492 1041.31 632.539 1041.17 632.591C1041.03 632.644 1040.88 632.685 1040.71 632.714C1040.56 632.749 1040.4 632.766 1040.23 632.766C1040.02 632.766 1039.82 632.728 1039.64 632.652C1039.46 632.577 1039.31 632.457 1039.2 632.294C1039.1 632.125 1039.04 631.906 1039.04 631.637V629.004H1038.44V628.102H1039.04V626.615H1040.22V628.102H1041.18V629.004H1040.22V631.244C1040.22 631.401 1040.27 631.515 1040.35 631.585C1040.43 631.655 1040.53 631.69 1040.65 631.69C1040.78 631.69 1040.9 631.67 1041.01 631.629C1041.13 631.588 1041.22 631.553 1041.29 631.524L1041.53 632.451ZM1044.91 632.775C1044.53 632.775 1044.2 632.714 1043.9 632.591C1043.6 632.463 1043.35 632.288 1043.14 632.066C1042.93 631.845 1042.78 631.591 1042.67 631.305C1042.55 631.019 1042.5 630.719 1042.5 630.404C1042.5 630.083 1042.55 629.78 1042.67 629.494C1042.78 629.208 1042.93 628.954 1043.14 628.732C1043.35 628.511 1043.6 628.339 1043.9 628.216C1044.2 628.088 1044.53 628.024 1044.91 628.024C1045.28 628.024 1045.61 628.088 1045.9 628.216C1046.2 628.339 1046.45 628.511 1046.66 628.732C1046.87 628.954 1047.03 629.208 1047.14 629.494C1047.25 629.78 1047.3 630.083 1047.3 630.404C1047.3 630.719 1047.25 631.019 1047.14 631.305C1047.03 631.591 1046.87 631.845 1046.66 632.066C1046.46 632.288 1046.21 632.463 1045.91 632.591C1045.61 632.714 1045.28 632.775 1044.91 632.775ZM1043.71 630.404C1043.71 630.672 1043.76 630.911 1043.86 631.121C1043.97 631.325 1044.11 631.486 1044.29 631.602C1044.47 631.719 1044.68 631.777 1044.91 631.777C1045.13 631.777 1045.33 631.719 1045.51 631.602C1045.69 631.48 1045.83 631.317 1045.94 631.112C1046.05 630.902 1046.1 630.663 1046.1 630.395C1046.1 630.132 1046.05 629.896 1045.94 629.686C1045.83 629.476 1045.69 629.313 1045.51 629.196C1045.33 629.08 1045.13 629.021 1044.91 629.021C1044.68 629.021 1044.47 629.082 1044.29 629.205C1044.11 629.322 1043.97 629.485 1043.86 629.695C1043.76 629.899 1043.71 630.135 1043.71 630.404ZM1051.52 629.117C1051.17 629.117 1050.85 629.187 1050.57 629.327C1050.29 629.462 1050.09 629.657 1049.97 629.914V632.688H1048.79V628.102H1049.87V629.082C1050.03 628.767 1050.24 628.52 1050.49 628.339C1050.74 628.158 1051.01 628.059 1051.29 628.041C1051.35 628.041 1051.4 628.041 1051.44 628.041C1051.47 628.041 1051.5 628.044 1051.52 628.05V629.117ZM1052.88 632.688V628.102H1054.05V632.688H1052.88ZM1052.88 627.464V626.3H1054.05V627.464H1052.88ZM1060.07 632.688H1058.9V630.115C1058.9 629.747 1058.83 629.479 1058.7 629.31C1058.58 629.141 1058.4 629.056 1058.17 629.056C1058.01 629.056 1057.85 629.097 1057.69 629.179C1057.53 629.26 1057.39 629.374 1057.26 629.52C1057.13 629.66 1057.04 629.823 1056.98 630.01V632.688H1055.81V628.102H1056.87V628.951C1056.98 628.753 1057.13 628.587 1057.31 628.452C1057.49 628.312 1057.7 628.207 1057.93 628.137C1058.17 628.062 1058.42 628.024 1058.69 628.024C1058.97 628.024 1059.21 628.076 1059.39 628.181C1059.57 628.28 1059.71 628.417 1059.81 628.592C1059.91 628.762 1059.97 628.954 1060.01 629.17C1060.05 629.386 1060.07 629.605 1060.07 629.826V632.688ZM1063.58 632.714C1063.28 632.714 1063 632.655 1062.74 632.539C1062.49 632.416 1062.27 632.247 1062.09 632.031C1061.91 631.815 1061.77 631.567 1061.67 631.287C1061.57 631.007 1061.52 630.71 1061.52 630.395C1061.52 630.062 1061.57 629.753 1061.67 629.467C1061.78 629.182 1061.93 628.931 1062.11 628.715C1062.3 628.493 1062.53 628.324 1062.79 628.207C1063.05 628.085 1063.34 628.024 1063.65 628.024C1064.01 628.024 1064.32 628.105 1064.59 628.269C1064.86 628.426 1065.08 628.639 1065.25 628.907V628.102H1066.28V632.469C1066.28 632.924 1066.17 633.312 1065.94 633.633C1065.73 633.959 1065.43 634.207 1065.04 634.376C1064.66 634.551 1064.22 634.639 1063.73 634.639C1063.24 634.639 1062.82 634.554 1062.47 634.385C1062.13 634.222 1061.83 633.988 1061.59 633.685L1062.23 633.064C1062.4 633.28 1062.62 633.449 1062.88 633.571C1063.15 633.694 1063.43 633.755 1063.73 633.755C1063.98 633.755 1064.21 633.708 1064.41 633.615C1064.62 633.528 1064.79 633.388 1064.91 633.195C1065.04 633.008 1065.1 632.766 1065.1 632.469V631.891C1064.95 632.154 1064.74 632.358 1064.46 632.504C1064.18 632.644 1063.89 632.714 1063.58 632.714ZM1063.98 631.777C1064.1 631.777 1064.23 631.757 1064.34 631.716C1064.46 631.675 1064.57 631.62 1064.67 631.55C1064.77 631.48 1064.85 631.398 1064.93 631.305C1065.01 631.206 1065.06 631.107 1065.1 631.007V629.914C1065.03 629.733 1064.94 629.575 1064.81 629.441C1064.68 629.307 1064.54 629.205 1064.39 629.135C1064.24 629.059 1064.08 629.021 1063.91 629.021C1063.73 629.021 1063.56 629.059 1063.42 629.135C1063.27 629.211 1063.14 629.319 1063.04 629.459C1062.93 629.593 1062.85 629.745 1062.79 629.914C1062.74 630.077 1062.72 630.249 1062.72 630.43C1062.72 630.617 1062.75 630.792 1062.81 630.955C1062.88 631.118 1062.96 631.261 1063.07 631.384C1063.19 631.506 1063.33 631.602 1063.48 631.672C1063.63 631.742 1063.8 631.777 1063.98 631.777ZM1074.99 632.688L1072.07 629.59C1071.83 629.327 1071.63 629.103 1071.48 628.916C1071.33 628.724 1071.22 628.549 1071.16 628.391C1071.1 628.234 1071.06 628.065 1071.06 627.884C1071.06 627.586 1071.14 627.327 1071.28 627.105C1071.43 626.877 1071.64 626.702 1071.9 626.58C1072.16 626.457 1072.45 626.396 1072.77 626.396C1073.06 626.396 1073.33 626.449 1073.58 626.554C1073.83 626.653 1074.03 626.805 1074.19 627.009C1074.35 627.213 1074.42 627.467 1074.42 627.77C1074.42 628.044 1074.35 628.292 1074.21 628.514C1074.08 628.735 1073.9 628.94 1073.67 629.126C1073.44 629.313 1073.19 629.494 1072.9 629.669C1072.69 629.803 1072.5 629.934 1072.32 630.062C1072.15 630.191 1072.02 630.328 1071.92 630.474C1071.83 630.614 1071.78 630.768 1071.78 630.937C1071.78 631.101 1071.83 631.252 1071.92 631.392C1072.01 631.532 1072.14 631.646 1072.31 631.734C1072.48 631.815 1072.66 631.856 1072.87 631.856C1073.12 631.856 1073.36 631.795 1073.59 631.672C1073.83 631.55 1074.04 631.378 1074.23 631.156C1074.42 630.929 1074.56 630.657 1074.67 630.342C1074.78 630.027 1074.84 629.675 1074.84 629.284H1075.79C1075.79 629.838 1075.7 630.331 1075.54 630.762C1075.37 631.188 1075.14 631.553 1074.85 631.856C1074.57 632.154 1074.24 632.381 1073.88 632.539C1073.52 632.696 1073.14 632.775 1072.75 632.775C1072.33 632.775 1071.96 632.69 1071.64 632.521C1071.33 632.346 1071.08 632.119 1070.91 631.839C1070.74 631.559 1070.65 631.255 1070.65 630.929C1070.65 630.602 1070.73 630.316 1070.88 630.071C1071.03 629.826 1071.22 629.61 1071.46 629.424C1071.69 629.231 1071.92 629.062 1072.16 628.916C1072.41 628.753 1072.63 628.616 1072.81 628.505C1072.98 628.388 1073.11 628.275 1073.21 628.164C1073.3 628.047 1073.35 627.922 1073.35 627.787C1073.35 627.63 1073.29 627.505 1073.18 627.411C1073.08 627.312 1072.94 627.262 1072.77 627.262C1072.64 627.262 1072.53 627.289 1072.43 627.341C1072.34 627.394 1072.26 627.464 1072.21 627.551C1072.16 627.639 1072.13 627.738 1072.13 627.849C1072.13 627.93 1072.15 628.012 1072.2 628.094C1072.25 628.175 1072.34 628.283 1072.46 628.417C1072.59 628.546 1072.77 628.73 1072.99 628.969L1076.53 632.688H1074.99ZM1085.07 627.534H1083.09V632.688H1081.89V627.534H1079.9V626.475H1085.07V627.534ZM1088.72 629.117C1088.37 629.117 1088.05 629.187 1087.77 629.327C1087.49 629.462 1087.29 629.657 1087.17 629.914V632.688H1085.99V628.102H1087.07V629.082C1087.23 628.767 1087.44 628.52 1087.69 628.339C1087.94 628.158 1088.21 628.059 1088.49 628.041C1088.55 628.041 1088.6 628.041 1088.64 628.041C1088.67 628.041 1088.7 628.044 1088.72 628.05V629.117ZM1089.74 631.331C1089.74 631.034 1089.82 630.774 1089.98 630.552C1090.15 630.325 1090.38 630.15 1090.68 630.027C1090.98 629.905 1091.32 629.844 1091.7 629.844C1091.9 629.844 1092.09 629.858 1092.29 629.887C1092.49 629.917 1092.66 629.963 1092.81 630.027V629.782C1092.81 629.491 1092.72 629.266 1092.54 629.109C1092.38 628.951 1092.12 628.872 1091.78 628.872C1091.53 628.872 1091.29 628.916 1091.07 629.004C1090.84 629.091 1090.6 629.22 1090.35 629.389L1089.97 628.619C1090.28 628.42 1090.58 628.272 1090.9 628.172C1091.22 628.073 1091.56 628.024 1091.91 628.024C1092.56 628.024 1093.07 628.187 1093.43 628.514C1093.8 628.84 1093.98 629.307 1093.98 629.914V631.375C1093.98 631.497 1094 631.585 1094.04 631.637C1094.09 631.69 1094.16 631.722 1094.26 631.734V632.688C1094.15 632.705 1094.06 632.72 1093.97 632.731C1093.89 632.743 1093.82 632.749 1093.76 632.749C1093.53 632.749 1093.35 632.696 1093.23 632.591C1093.11 632.486 1093.04 632.358 1093.01 632.206L1092.98 631.97C1092.78 632.227 1092.54 632.425 1092.24 632.565C1091.94 632.705 1091.64 632.775 1091.33 632.775C1091.03 632.775 1090.75 632.714 1090.51 632.591C1090.27 632.463 1090.08 632.291 1089.94 632.075C1089.8 631.853 1089.74 631.605 1089.74 631.331ZM1092.59 631.567C1092.65 631.497 1092.71 631.427 1092.75 631.357C1092.79 631.287 1092.81 631.223 1092.81 631.165V630.701C1092.67 630.643 1092.52 630.599 1092.35 630.57C1092.19 630.535 1092.03 630.517 1091.89 630.517C1091.59 630.517 1091.33 630.585 1091.14 630.719C1090.94 630.847 1090.85 631.019 1090.85 631.235C1090.85 631.352 1090.88 631.462 1090.94 631.567C1091.01 631.672 1091.1 631.757 1091.22 631.821C1091.35 631.885 1091.49 631.917 1091.66 631.917C1091.84 631.917 1092.01 631.885 1092.18 631.821C1092.35 631.751 1092.48 631.667 1092.59 631.567ZM1095.78 632.688V628.102H1096.95V632.688H1095.78ZM1095.78 627.464V626.3H1096.95V627.464H1095.78ZM1102.97 632.688H1101.79V630.115C1101.79 629.747 1101.73 629.479 1101.6 629.31C1101.47 629.141 1101.3 629.056 1101.07 629.056C1100.91 629.056 1100.75 629.097 1100.59 629.179C1100.43 629.26 1100.29 629.374 1100.16 629.52C1100.03 629.66 1099.94 629.823 1099.88 630.01V632.688H1098.71V628.102H1099.76V628.951C1099.88 628.753 1100.03 628.587 1100.21 628.452C1100.39 628.312 1100.6 628.207 1100.83 628.137C1101.07 628.062 1101.32 628.024 1101.58 628.024C1101.87 628.024 1102.1 628.076 1102.28 628.181C1102.47 628.28 1102.61 628.417 1102.7 628.592C1102.8 628.762 1102.87 628.954 1102.91 629.17C1102.95 629.386 1102.97 629.605 1102.97 629.826V632.688ZM1104.69 632.688V628.102H1105.86V632.688H1104.69ZM1104.69 627.464V626.3H1105.86V627.464H1104.69ZM1111.88 632.688H1110.71V630.115C1110.71 629.747 1110.64 629.479 1110.51 629.31C1110.38 629.141 1110.21 629.056 1109.98 629.056C1109.82 629.056 1109.66 629.097 1109.5 629.179C1109.34 629.26 1109.2 629.374 1109.07 629.52C1108.94 629.66 1108.85 629.823 1108.79 630.01V632.688H1107.62V628.102H1108.68V628.951C1108.79 628.753 1108.94 628.587 1109.12 628.452C1109.3 628.312 1109.51 628.207 1109.74 628.137C1109.98 628.062 1110.23 628.024 1110.5 628.024C1110.78 628.024 1111.01 628.076 1111.2 628.181C1111.38 628.28 1111.52 628.417 1111.62 628.592C1111.71 628.762 1111.78 628.954 1111.82 629.17C1111.86 629.386 1111.88 629.605 1111.88 629.826V632.688ZM1115.39 632.714C1115.09 632.714 1114.81 632.655 1114.55 632.539C1114.3 632.416 1114.08 632.247 1113.9 632.031C1113.71 631.815 1113.57 631.567 1113.48 631.287C1113.38 631.007 1113.33 630.71 1113.33 630.395C1113.33 630.062 1113.38 629.753 1113.48 629.467C1113.59 629.182 1113.73 628.931 1113.92 628.715C1114.11 628.493 1114.34 628.324 1114.6 628.207C1114.86 628.085 1115.15 628.024 1115.46 628.024C1115.82 628.024 1116.13 628.105 1116.4 628.269C1116.67 628.426 1116.89 628.639 1117.06 628.907V628.102H1118.09V632.469C1118.09 632.924 1117.98 633.312 1117.75 633.633C1117.54 633.959 1117.24 634.207 1116.85 634.376C1116.47 634.551 1116.03 634.639 1115.54 634.639C1115.04 634.639 1114.62 634.554 1114.28 634.385C1113.94 634.222 1113.64 633.988 1113.4 633.685L1114.04 633.064C1114.21 633.28 1114.43 633.449 1114.69 633.571C1114.96 633.694 1115.24 633.755 1115.54 633.755C1115.79 633.755 1116.02 633.708 1116.22 633.615C1116.43 633.528 1116.6 633.388 1116.72 633.195C1116.85 633.008 1116.91 632.766 1116.91 632.469V631.891C1116.76 632.154 1116.55 632.358 1116.27 632.504C1115.99 632.644 1115.7 632.714 1115.39 632.714ZM1115.79 631.777C1115.91 631.777 1116.04 631.757 1116.15 631.716C1116.27 631.675 1116.38 631.62 1116.48 631.55C1116.58 631.48 1116.66 631.398 1116.74 631.305C1116.81 631.206 1116.87 631.107 1116.91 631.007V629.914C1116.84 629.733 1116.74 629.575 1116.62 629.441C1116.49 629.307 1116.35 629.205 1116.2 629.135C1116.04 629.059 1115.88 629.021 1115.72 629.021C1115.53 629.021 1115.37 629.059 1115.23 629.135C1115.08 629.211 1114.95 629.319 1114.85 629.459C1114.74 629.593 1114.66 629.745 1114.6 629.914C1114.55 630.077 1114.53 630.249 1114.53 630.43C1114.53 630.617 1114.56 630.792 1114.62 630.955C1114.69 631.118 1114.77 631.261 1114.88 631.384C1115 631.506 1115.13 631.602 1115.29 631.672C1115.44 631.742 1115.61 631.777 1115.79 631.777ZM1122.76 632.688V626.475H1125.39C1125.68 626.475 1125.94 626.533 1126.18 626.65C1126.42 626.767 1126.63 626.924 1126.8 627.122C1126.98 627.321 1127.12 627.542 1127.22 627.787C1127.32 628.032 1127.37 628.283 1127.37 628.54C1127.37 628.89 1127.29 629.222 1127.13 629.537C1126.96 629.852 1126.74 630.109 1126.45 630.307C1126.17 630.506 1125.83 630.605 1125.44 630.605H1123.97V632.688H1122.76ZM1123.97 629.546H1125.37C1125.51 629.546 1125.64 629.505 1125.76 629.424C1125.88 629.342 1125.97 629.225 1126.04 629.074C1126.11 628.916 1126.15 628.738 1126.15 628.54C1126.15 628.324 1126.1 628.14 1126.02 627.989C1125.95 627.837 1125.84 627.723 1125.72 627.647C1125.59 627.572 1125.46 627.534 1125.31 627.534H1123.97V629.546ZM1131.53 629.117C1131.17 629.117 1130.85 629.187 1130.57 629.327C1130.29 629.462 1130.09 629.657 1129.97 629.914V632.688H1128.8V628.102H1129.87V629.082C1130.04 628.767 1130.24 628.52 1130.49 628.339C1130.75 628.158 1131.01 628.059 1131.29 628.041C1131.35 628.041 1131.4 628.041 1131.44 628.041C1131.47 628.041 1131.5 628.044 1131.53 628.05V629.117ZM1134.94 632.775C1134.57 632.775 1134.23 632.714 1133.93 632.591C1133.63 632.463 1133.38 632.288 1133.17 632.066C1132.97 631.845 1132.81 631.591 1132.7 631.305C1132.59 631.019 1132.53 630.719 1132.53 630.404C1132.53 630.083 1132.59 629.78 1132.7 629.494C1132.81 629.208 1132.97 628.954 1133.17 628.732C1133.38 628.511 1133.63 628.339 1133.93 628.216C1134.23 628.088 1134.57 628.024 1134.94 628.024C1135.31 628.024 1135.64 628.088 1135.94 628.216C1136.23 628.339 1136.49 628.511 1136.7 628.732C1136.91 628.954 1137.06 629.208 1137.17 629.494C1137.28 629.78 1137.34 630.083 1137.34 630.404C1137.34 630.719 1137.28 631.019 1137.17 631.305C1137.06 631.591 1136.91 631.845 1136.7 632.066C1136.49 632.288 1136.24 632.463 1135.94 632.591C1135.65 632.714 1135.31 632.775 1134.94 632.775ZM1133.74 630.404C1133.74 630.672 1133.79 630.911 1133.9 631.121C1134 631.325 1134.15 631.486 1134.33 631.602C1134.51 631.719 1134.71 631.777 1134.94 631.777C1135.16 631.777 1135.36 631.719 1135.54 631.602C1135.72 631.48 1135.87 631.317 1135.97 631.112C1136.08 630.902 1136.14 630.663 1136.14 630.395C1136.14 630.132 1136.08 629.896 1135.97 629.686C1135.87 629.476 1135.72 629.313 1135.54 629.196C1135.36 629.08 1135.16 629.021 1134.94 629.021C1134.71 629.021 1134.51 629.082 1134.33 629.205C1134.15 629.322 1134 629.485 1133.9 629.695C1133.79 629.899 1133.74 630.135 1133.74 630.404ZM1140.62 632.714C1140.32 632.714 1140.04 632.655 1139.78 632.539C1139.53 632.416 1139.31 632.247 1139.12 632.031C1138.94 631.815 1138.8 631.567 1138.7 631.287C1138.61 631.007 1138.56 630.71 1138.56 630.395C1138.56 630.062 1138.61 629.753 1138.71 629.467C1138.82 629.182 1138.96 628.931 1139.15 628.715C1139.34 628.493 1139.57 628.324 1139.82 628.207C1140.09 628.085 1140.38 628.024 1140.69 628.024C1141.05 628.024 1141.36 628.105 1141.63 628.269C1141.9 628.426 1142.12 628.639 1142.29 628.907V628.102H1143.32V632.469C1143.32 632.924 1143.21 633.312 1142.98 633.633C1142.77 633.959 1142.47 634.207 1142.08 634.376C1141.7 634.551 1141.26 634.639 1140.77 634.639C1140.27 634.639 1139.85 634.554 1139.51 634.385C1139.17 634.222 1138.87 633.988 1138.63 633.685L1139.26 633.064C1139.44 633.28 1139.66 633.449 1139.92 633.571C1140.19 633.694 1140.47 633.755 1140.77 633.755C1141.02 633.755 1141.25 633.708 1141.45 633.615C1141.66 633.528 1141.83 633.388 1141.95 633.195C1142.08 633.008 1142.14 632.766 1142.14 632.469V631.891C1141.99 632.154 1141.78 632.358 1141.5 632.504C1141.22 632.644 1140.93 632.714 1140.62 632.714ZM1141.01 631.777C1141.14 631.777 1141.27 631.757 1141.38 631.716C1141.5 631.675 1141.61 631.62 1141.71 631.55C1141.81 631.48 1141.89 631.398 1141.97 631.305C1142.04 631.206 1142.1 631.107 1142.14 631.007V629.914C1142.07 629.733 1141.97 629.575 1141.85 629.441C1141.72 629.307 1141.58 629.205 1141.43 629.135C1141.27 629.059 1141.11 629.021 1140.94 629.021C1140.76 629.021 1140.6 629.059 1140.45 629.135C1140.31 629.211 1140.18 629.319 1140.08 629.459C1139.97 629.593 1139.89 629.745 1139.83 629.914C1139.78 630.077 1139.75 630.249 1139.75 630.43C1139.75 630.617 1139.79 630.792 1139.85 630.955C1139.92 631.118 1140 631.261 1140.11 631.384C1140.23 631.506 1140.36 631.602 1140.52 631.672C1140.67 631.742 1140.84 631.777 1141.01 631.777ZM1147.8 629.117C1147.45 629.117 1147.13 629.187 1146.85 629.327C1146.57 629.462 1146.37 629.657 1146.25 629.914V632.688H1145.07V628.102H1146.15V629.082C1146.31 628.767 1146.52 628.52 1146.77 628.339C1147.02 628.158 1147.29 628.059 1147.57 628.041C1147.63 628.041 1147.68 628.041 1147.72 628.041C1147.75 628.041 1147.78 628.044 1147.8 628.05V629.117ZM1148.82 631.331C1148.82 631.034 1148.9 630.774 1149.06 630.552C1149.23 630.325 1149.46 630.15 1149.76 630.027C1150.06 629.905 1150.4 629.844 1150.78 629.844C1150.98 629.844 1151.17 629.858 1151.37 629.887C1151.57 629.917 1151.74 629.963 1151.89 630.027V629.782C1151.89 629.491 1151.8 629.266 1151.62 629.109C1151.46 628.951 1151.2 628.872 1150.86 628.872C1150.61 628.872 1150.37 628.916 1150.15 629.004C1149.92 629.091 1149.68 629.22 1149.43 629.389L1149.05 628.619C1149.36 628.42 1149.66 628.272 1149.98 628.172C1150.3 628.073 1150.64 628.024 1150.99 628.024C1151.64 628.024 1152.15 628.187 1152.51 628.514C1152.88 628.84 1153.06 629.307 1153.06 629.914V631.375C1153.06 631.497 1153.08 631.585 1153.12 631.637C1153.17 631.69 1153.24 631.722 1153.34 631.734V632.688C1153.23 632.705 1153.14 632.72 1153.05 632.731C1152.97 632.743 1152.9 632.749 1152.84 632.749C1152.61 632.749 1152.43 632.696 1152.31 632.591C1152.19 632.486 1152.12 632.358 1152.09 632.206L1152.06 631.97C1151.86 632.227 1151.62 632.425 1151.32 632.565C1151.02 632.705 1150.72 632.775 1150.41 632.775C1150.11 632.775 1149.83 632.714 1149.59 632.591C1149.35 632.463 1149.16 632.291 1149.02 632.075C1148.88 631.853 1148.82 631.605 1148.82 631.331ZM1151.67 631.567C1151.73 631.497 1151.79 631.427 1151.83 631.357C1151.87 631.287 1151.89 631.223 1151.89 631.165V630.701C1151.75 630.643 1151.6 630.599 1151.43 630.57C1151.27 630.535 1151.11 630.517 1150.97 630.517C1150.67 630.517 1150.41 630.585 1150.22 630.719C1150.02 630.847 1149.93 631.019 1149.93 631.235C1149.93 631.352 1149.96 631.462 1150.02 631.567C1150.09 631.672 1150.18 631.757 1150.3 631.821C1150.43 631.885 1150.57 631.917 1150.74 631.917C1150.92 631.917 1151.09 631.885 1151.26 631.821C1151.43 631.751 1151.56 631.667 1151.67 631.567ZM1161.98 632.688H1160.81V630.115C1160.81 629.753 1160.74 629.488 1160.61 629.319C1160.49 629.144 1160.32 629.056 1160.1 629.056C1159.87 629.056 1159.65 629.147 1159.44 629.327C1159.24 629.502 1159.09 629.733 1159 630.019V632.688H1157.83V630.115C1157.83 629.747 1157.77 629.479 1157.64 629.31C1157.52 629.141 1157.34 629.056 1157.12 629.056C1156.89 629.056 1156.68 629.144 1156.47 629.319C1156.26 629.494 1156.12 629.724 1156.03 630.01V632.688H1154.86V628.102H1155.91V628.951C1156.09 628.654 1156.32 628.426 1156.61 628.269C1156.91 628.105 1157.24 628.024 1157.62 628.024C1158 628.024 1158.29 628.117 1158.5 628.304C1158.72 628.49 1158.86 628.721 1158.92 628.995C1159.1 628.68 1159.34 628.441 1159.62 628.277C1159.92 628.108 1160.24 628.024 1160.6 628.024C1160.89 628.024 1161.12 628.076 1161.3 628.181C1161.48 628.28 1161.62 628.417 1161.72 628.592C1161.81 628.762 1161.88 628.954 1161.92 629.17C1161.96 629.386 1161.98 629.605 1161.98 629.826V632.688Z" fill="white"/>
<mask id="path-12-inside-3_1009_2513" fill="white">
<path fill-rule="evenodd" clip-rule="evenodd" d="M1019.06 595.503C1018.53 594.616 1018.4 593.422 1018.91 592.142C1019.82 590.288 1020.97 589.665 1022.15 589.024C1023.68 588.196 1025.26 587.337 1026.46 583.75C1027.68 585.771 1028.6 589.754 1026.82 593.061C1025.53 595.45 1023.85 596.615 1022.59 596.92C1021.53 597.174 1020.55 596.939 1019.83 596.38L1024.93 590.632L1019.06 595.503Z"/>
</mask>
<path fill-rule="evenodd" clip-rule="evenodd" d="M1019.06 595.503C1018.53 594.616 1018.4 593.422 1018.91 592.142C1019.82 590.288 1020.97 589.665 1022.15 589.024C1023.68 588.196 1025.26 587.337 1026.46 583.75C1027.68 585.771 1028.6 589.754 1026.82 593.061C1025.53 595.45 1023.85 596.615 1022.59 596.92C1021.53 597.174 1020.55 596.939 1019.83 596.38L1024.93 590.632L1019.06 595.503Z" fill="white"/>
<path d="M1018.91 592.142L1018.62 592.029L1018.62 592.018L1018.63 592.006L1018.91 592.142ZM1019.06 595.503L1019.25 595.74L1018.97 595.97L1018.79 595.66L1019.06 595.503ZM1022.15 589.024L1022 588.753L1022.15 589.024ZM1026.46 583.75L1026.16 583.652L1026.37 583.019L1026.72 583.59L1026.46 583.75ZM1026.82 593.061L1027.09 593.207L1027.09 593.208L1026.82 593.061ZM1022.59 596.92L1022.52 596.62H1022.52L1022.59 596.92ZM1019.83 596.38L1019.64 596.624L1019.38 596.422L1019.6 596.175L1019.83 596.38ZM1024.93 590.632L1024.73 590.395L1025.16 590.837L1024.93 590.632ZM1019.19 592.255C1018.72 593.454 1018.85 594.548 1019.32 595.345L1018.79 595.66C1018.21 594.684 1018.08 593.389 1018.62 592.029L1019.19 592.255ZM1022.29 589.295C1021.12 589.929 1020.05 590.514 1019.18 592.278L1018.63 592.006C1019.58 590.062 1020.81 589.401 1022 588.753L1022.29 589.295ZM1026.75 583.848C1026.14 585.673 1025.42 586.828 1024.65 587.635C1023.88 588.44 1023.06 588.882 1022.29 589.295L1022 588.753C1022.77 588.338 1023.5 587.936 1024.2 587.208C1024.9 586.482 1025.58 585.413 1026.16 583.652L1026.75 583.848ZM1026.55 592.915C1028.26 589.731 1027.38 585.868 1026.19 583.91L1026.72 583.59C1027.98 585.674 1028.94 589.776 1027.09 593.207L1026.55 592.915ZM1022.52 596.62C1023.67 596.341 1025.29 595.247 1026.55 592.915L1027.09 593.208C1025.77 595.653 1024.03 596.89 1022.66 597.22L1022.52 596.62ZM1020.02 596.135C1020.67 596.636 1021.55 596.853 1022.52 596.62L1022.66 597.22C1021.52 597.495 1020.44 597.242 1019.64 596.624L1020.02 596.135ZM1019.6 596.175L1024.7 590.428L1025.16 590.837L1020.06 596.584L1019.6 596.175ZM1025.13 590.87L1019.25 595.74L1018.86 595.265L1024.73 590.395L1025.13 590.87Z" fill="white" mask="url(#path-12-inside-3_1009_2513)"/>
<mask id="path-14-inside-4_1009_2513" fill="white">
<path fill-rule="evenodd" clip-rule="evenodd" d="M1017.82 595.503C1018.35 594.616 1018.47 593.422 1017.97 592.142C1017.06 590.288 1015.91 589.665 1014.73 589.024C1013.2 588.196 1011.61 587.337 1010.42 583.75C1009.2 585.771 1008.28 589.754 1010.06 593.061C1011.34 595.45 1013.02 596.615 1014.29 596.92C1015.34 597.174 1016.32 596.939 1017.05 596.38L1011.95 590.632L1017.82 595.503Z"/>
</mask>
<path fill-rule="evenodd" clip-rule="evenodd" d="M1017.82 595.503C1018.35 594.616 1018.47 593.422 1017.97 592.142C1017.06 590.288 1015.91 589.665 1014.73 589.024C1013.2 588.196 1011.61 587.337 1010.42 583.75C1009.2 585.771 1008.28 589.754 1010.06 593.061C1011.34 595.45 1013.02 596.615 1014.29 596.92C1015.34 597.174 1016.32 596.939 1017.05 596.38L1011.95 590.632L1017.82 595.503Z" fill="white"/>
<path d="M1017.97 592.142L1018.26 592.029L1018.25 592.018L1018.25 592.006L1017.97 592.142ZM1017.82 595.503L1017.62 595.74L1017.9 595.97L1018.08 595.66L1017.82 595.503ZM1014.73 589.024L1014.87 588.753L1014.73 589.024ZM1010.42 583.75L1010.71 583.652L1010.5 583.019L1010.16 583.59L1010.42 583.75ZM1010.06 593.061L1009.79 593.207L1009.79 593.208L1010.06 593.061ZM1014.29 596.92L1014.36 596.62H1014.36L1014.29 596.92ZM1017.05 596.38L1017.23 596.624L1017.5 596.422L1017.28 596.175L1017.05 596.38ZM1011.95 590.632L1012.14 590.395L1011.72 590.837L1011.95 590.632ZM1017.68 592.255C1018.16 593.454 1018.03 594.548 1017.55 595.345L1018.08 595.66C1018.66 594.684 1018.79 593.389 1018.26 592.029L1017.68 592.255ZM1014.58 589.295C1015.75 589.929 1016.83 590.514 1017.69 592.278L1018.25 592.006C1017.29 590.062 1016.07 589.401 1014.87 588.753L1014.58 589.295ZM1010.13 583.848C1010.74 585.673 1011.45 586.828 1012.23 587.635C1013 588.44 1013.82 588.882 1014.58 589.295L1014.87 588.753C1014.11 588.338 1013.37 587.936 1012.67 587.208C1011.97 586.482 1011.3 585.413 1010.71 583.652L1010.13 583.848ZM1010.33 592.915C1008.61 589.731 1009.5 585.868 1010.68 583.91L1010.16 583.59C1008.89 585.674 1007.94 589.776 1009.79 593.207L1010.33 592.915ZM1014.36 596.62C1013.2 596.341 1011.59 595.247 1010.33 592.915L1009.79 593.208C1011.1 595.653 1012.85 596.89 1014.22 597.22L1014.36 596.62ZM1016.86 596.135C1016.21 596.636 1015.33 596.853 1014.36 596.62L1014.22 597.22C1015.36 597.495 1016.43 597.242 1017.23 596.624L1016.86 596.135ZM1017.28 596.175L1012.18 590.428L1011.72 590.837L1016.82 596.584L1017.28 596.175ZM1011.75 590.87L1017.62 595.74L1018.02 595.265L1012.14 590.395L1011.75 590.87Z" fill="white" mask="url(#path-14-inside-4_1009_2513)"/>
<line x1="987.812" y1="631.875" x2="1015.31" y2="631.875" stroke="white" stroke-width="1.875" stroke-linecap="round"/>
</g>
<defs>
<linearGradient id="paint0_linear_1009_2513" x1="850.625" y1="-156.711" x2="850.625" y2="640.206" gradientUnits="userSpaceOnUse">
<stop stop-color="#787DE2"/>
<stop offset="1" stop-color="#020887"/>
</linearGradient>
<linearGradient id="paint1_linear_1009_2513" x1="-306.596" y1="242.734" x2="454.877" y2="486.803" gradientUnits="userSpaceOnUse">
<stop stop-color="#787DE2"/>
<stop offset="1" stop-color="#020887"/>
</linearGradient>
<clipPath id="clip0_1009_2513">
<rect width="1200" height="675" fill="white"/>
</clipPath>
</defs>
</svg>
