<svg width="241" height="241" viewBox="0 0 241 241" fill="none" xmlns="http://www.w3.org/2000/svg">
<path d="M0.287109 14.6922C0.287109 6.80581 6.68033 0.412598 14.5668 0.412598H226.007C233.894 0.412598 240.287 6.80582 240.287 14.6923V226.133C240.287 234.019 233.894 240.413 226.007 240.413H14.5668C6.68033 240.413 0.287109 234.019 0.287109 226.133V14.6922Z" fill="#DCFFF0"/>
<path d="M73.7775 57.0609C73.7775 49.4232 79.9692 43.2315 87.6069 43.2315H152.967C160.605 43.2315 166.797 49.4232 166.797 57.0609V82.9934C166.797 90.6312 160.605 96.8228 152.967 96.8228H87.6069C79.9692 96.8228 73.7775 90.6312 73.7775 82.9934V57.0609Z" fill="#4AC290"/>
<path d="M93.2405 70.0276C93.2405 64.3756 97.8223 59.7938 103.474 59.7938C109.126 59.7938 113.708 64.3756 113.708 70.0276C113.708 75.6795 109.126 80.2613 103.474 80.2613C97.8223 80.2613 93.2405 75.6795 93.2405 70.0276Z" fill="#1C8B5C"/>
<path d="M126.866 70.0276C126.866 64.3756 131.447 59.7938 137.099 59.7938C142.751 59.7938 147.333 64.3756 147.333 70.0276C147.333 75.6795 142.751 80.2613 137.099 80.2613C131.447 80.2613 126.866 75.6795 126.866 70.0276Z" fill="#1C8B5C"/>
<path fill-rule="evenodd" clip-rule="evenodd" d="M213.442 189.487C214.355 193.735 211.003 197.594 206.658 197.594H33.9164C29.5716 197.594 26.219 193.735 27.1326 189.487C37.2449 142.471 75.1151 107.533 120.287 107.533C165.459 107.533 203.329 142.471 213.442 189.487Z" fill="#1C8B5C"/>
<path d="M190.856 158.37C190.856 172.729 179.216 184.369 164.857 184.369C150.498 184.369 138.857 172.729 138.857 158.37C138.857 144.011 150.498 132.37 164.857 132.37C179.216 132.37 190.856 144.011 190.856 158.37Z" fill="#259867"/>
<path d="M81.018 171.433C81.018 179.111 74.7942 185.334 67.1168 185.334C59.4393 185.334 53.2156 179.111 53.2156 171.433C53.2156 163.756 59.4393 157.532 67.1168 157.532C74.7942 157.532 81.018 163.756 81.018 171.433Z" fill="#259867"/>
</svg>
