<svg width="241" height="241" viewBox="0 0 241 241" fill="none" xmlns="http://www.w3.org/2000/svg">
<path d="M0.287109 14.6922C0.287109 6.80581 6.68033 0.412598 14.5668 0.412598H226.007C233.894 0.412598 240.287 6.80582 240.287 14.6923V226.133C240.287 234.019 233.894 240.413 226.007 240.413H14.5668C6.68033 240.413 0.287109 234.019 0.287109 226.133V14.6922Z" fill="#DCFFF0"/>
<path d="M96.6463 141.257H143.927V151.064H96.6463V141.257Z" fill="#4AC290"/>
<path d="M45.9643 89.7657C45.9643 84.0373 50.6081 79.3935 56.3366 79.3935H184.237C189.966 79.3935 194.609 84.0373 194.609 89.7657V134.135C194.609 139.863 189.966 144.507 184.237 144.507H56.3366C50.6081 144.507 45.9643 139.863 45.9643 134.135V89.7657Z" fill="#1C8B5C"/>
<path d="M147.687 183.99C147.687 199.122 135.42 211.39 120.287 211.39C105.154 211.39 92.8866 199.122 92.8866 183.99C92.8866 168.857 105.154 156.589 120.287 156.589C135.42 156.589 147.687 168.857 147.687 183.99Z" fill="#136240"/>
<path d="M132.873 183.989C132.873 190.939 127.239 196.573 120.289 196.573C113.339 196.573 107.705 190.939 107.705 183.989C107.705 177.039 113.339 171.405 120.289 171.405C127.239 171.405 132.873 177.039 132.873 183.989Z" fill="#1C8B5C"/>
<path d="M48.7941 43.8596C48.7941 35.8932 55.2521 29.4351 63.2185 29.4351H119.434C127.401 29.4351 133.859 35.8932 133.859 43.8596V58.6445C133.859 66.6109 127.401 73.069 119.434 73.069H63.2185C55.2521 73.069 48.7941 66.6109 48.7941 58.6445V43.8596Z" fill="#4AC290"/>
<path d="M64.6667 50.9613C64.6667 47.985 67.0795 45.5721 70.0559 45.5721H80.0076C82.984 45.5721 85.3969 47.985 85.3969 50.9613C85.3969 53.9377 82.984 56.3506 80.0076 56.3506H70.0559C67.0795 56.3506 64.6667 53.9377 64.6667 50.9613Z" fill="#1C8B5C"/>
<path d="M97.253 50.9614C97.253 47.985 99.6658 45.5722 102.642 45.5722H112.594C115.57 45.5722 117.983 47.985 117.983 50.9614C117.983 53.9378 115.57 56.3506 112.594 56.3506H102.642C99.6659 56.3506 97.253 53.9378 97.253 50.9614Z" fill="#1C8B5C"/>
</svg>
