<svg width="241" height="241" viewBox="0 0 241 241" fill="none" xmlns="http://www.w3.org/2000/svg">
<path d="M0.287109 14.6922C0.287109 6.80581 6.68033 0.412598 14.5668 0.412598H226.007C233.894 0.412598 240.287 6.80582 240.287 14.6923V226.133C240.287 234.019 233.894 240.413 226.007 240.413H14.5668C6.68033 240.413 0.287109 234.019 0.287109 226.133V14.6922Z" fill="#DCFFF0"/>
<path fill-rule="evenodd" clip-rule="evenodd" d="M107.091 125.521L63.9258 175.327L60.6819 171.584L103.847 121.778L107.091 125.521Z" fill="#136240"/>
<path fill-rule="evenodd" clip-rule="evenodd" d="M177.468 175.327L134.303 125.521L137.547 121.778L180.712 171.584L177.468 175.327Z" fill="#136240"/>
<path d="M72.5717 92.3984C72.5717 88.8253 75.4682 85.9289 79.0412 85.9289H161.533C165.106 85.9289 168.003 88.8253 168.003 92.3984V121.35C168.003 124.923 165.106 127.819 161.533 127.819H79.0412C75.4682 127.819 72.5717 124.923 72.5717 121.35V92.3984Z" fill="#1C8B5C"/>
<path d="M73.7862 56.183C73.7862 50.1403 78.6848 45.2418 84.7274 45.2418H123.935C129.978 45.2418 134.877 50.1403 134.877 56.183V69.4967C134.877 75.5394 129.978 80.438 123.935 80.438H84.7274C78.6847 80.438 73.7862 75.5394 73.7862 69.4967V56.183Z" fill="#4AC290"/>
<path d="M86.567 62.839C86.567 60.7319 88.2751 59.0238 90.3822 59.0238H97.4276C99.5347 59.0238 101.243 60.7319 101.243 62.839C101.243 64.9462 99.5347 66.6543 97.4276 66.6543H90.3822C88.2751 66.6543 86.567 64.9462 86.567 62.839Z" fill="#1C8B5C"/>
<path d="M107.42 62.8395C107.42 60.7324 109.128 59.0242 111.235 59.0242H118.281C120.388 59.0242 122.096 60.7324 122.096 62.8395C122.096 64.9466 120.388 66.6548 118.281 66.6548H111.235C109.128 66.6548 107.42 64.9466 107.42 62.8395Z" fill="#1C8B5C"/>
<path fill-rule="evenodd" clip-rule="evenodd" d="M204.074 195.584H36.5009C42.9584 163.496 78.0125 138.975 120.287 138.975C162.562 138.975 197.616 163.496 204.074 195.584Z" fill="#1C8B5C"/>
</svg>
