<svg width="245" height="65" viewBox="0 0 245 65" fill="none" xmlns="http://www.w3.org/2000/svg">
<path d="M0.287109 4.2205C0.287109 2.11746 1.99197 0.412598 4.09502 0.412598H60.4792C62.5823 0.412598 64.2871 2.11746 64.2871 4.22051V60.6047C64.2871 62.7077 62.5823 64.4126 60.4792 64.4126H4.09502C1.99197 64.4126 0.287109 62.7077 0.287109 60.6047V4.2205Z" fill="#DCFFF0"/>
<path fill-rule="evenodd" clip-rule="evenodd" d="M28.7681 33.7748L17.2574 47.0563L16.3924 46.0582L27.9031 32.7767L28.7681 33.7748Z" fill="#136240"/>
<path fill-rule="evenodd" clip-rule="evenodd" d="M47.5353 47.0563L36.0246 33.7748L36.8896 32.7767L48.4003 46.0582L47.5353 47.0563Z" fill="#136240"/>
<path d="M19.563 24.9421C19.563 23.9893 20.3354 23.2169 21.2882 23.2169H43.2861C44.2389 23.2169 45.0113 23.9893 45.0113 24.9421V32.6626C45.0113 33.6154 44.2389 34.3878 43.2861 34.3878H21.2882C20.3354 34.3878 19.563 33.6154 19.563 32.6626V24.9421Z" fill="#1C8B5C"/>
<path d="M19.8869 15.2847C19.8869 13.6733 21.1931 12.367 22.8045 12.367H33.26C34.8714 12.367 36.1777 13.6733 36.1777 15.2847V18.835C36.1777 20.4464 34.8714 21.7527 33.26 21.7527H22.8045C21.1931 21.7527 19.8869 20.4464 19.8869 18.835V15.2847Z" fill="#4AC290"/>
<path d="M23.2951 17.0597C23.2951 16.4978 23.7506 16.0422 24.3125 16.0422H26.1912C26.7531 16.0422 27.2086 16.4978 27.2086 17.0597C27.2086 17.6215 26.7531 18.0771 26.1912 18.0771H24.3125C23.7506 18.0771 23.2951 17.6215 23.2951 17.0597Z" fill="#1C8B5C"/>
<path d="M28.8559 17.0598C28.8559 16.4979 29.3114 16.0424 29.8733 16.0424H31.752C32.3139 16.0424 32.7694 16.4979 32.7694 17.0598C32.7694 17.6217 32.3139 18.0772 31.752 18.0772H29.8733C29.3114 18.0772 28.8559 17.6217 28.8559 17.0598Z" fill="#1C8B5C"/>
<path fill-rule="evenodd" clip-rule="evenodd" d="M54.6302 52.4583H9.94412C11.6661 43.9015 21.0139 37.3625 32.2872 37.3625C43.5605 37.3625 52.9082 43.9015 54.6302 52.4583Z" fill="#1C8B5C"/>
<path d="M82.0631 28.4126V11.3726H89.2871C90.0711 11.3726 90.7911 11.5406 91.4471 11.8766C92.1191 12.1966 92.6951 12.6286 93.1751 13.1726C93.6551 13.7006 94.0311 14.3086 94.3031 14.9966C94.5751 15.6686 94.7111 16.3486 94.7111 17.0366C94.7111 17.7566 94.5831 18.4606 94.3271 19.1486C94.0711 19.8206 93.7111 20.4206 93.2471 20.9486C92.7831 21.4766 92.2231 21.9006 91.5671 22.2206C90.9111 22.5406 90.1911 22.7006 89.4071 22.7006H85.3751V28.4126H82.0631ZM85.3751 19.7966H89.2151C89.8231 19.7966 90.3271 19.5486 90.7271 19.0526C91.1431 18.5566 91.3511 17.8846 91.3511 17.0366C91.3511 16.6046 91.2871 16.2206 91.1591 15.8846C91.0311 15.5326 90.8631 15.2366 90.6551 14.9966C90.4471 14.7566 90.1991 14.5806 89.9111 14.4686C89.6391 14.3406 89.3591 14.2766 89.0711 14.2766H85.3751V19.7966ZM102.489 28.6526C101.481 28.6526 100.569 28.4846 99.7534 28.1486C98.9374 27.7966 98.2414 27.3246 97.6654 26.7326C97.0894 26.1406 96.6414 25.4526 96.3214 24.6686C96.0174 23.8846 95.8654 23.0606 95.8654 22.1966C95.8654 21.3006 96.0174 20.4606 96.3214 19.6766C96.6254 18.8766 97.0654 18.1806 97.6414 17.5886C98.2174 16.9806 98.9134 16.5006 99.7294 16.1486C100.561 15.7966 101.489 15.6206 102.513 15.6206C103.537 15.6206 104.449 15.7966 105.249 16.1486C106.065 16.5006 106.753 16.9726 107.313 17.5646C107.889 18.1566 108.321 18.8446 108.609 19.6286C108.913 20.4126 109.065 21.2286 109.065 22.0766C109.065 22.2846 109.057 22.4846 109.041 22.6766C109.041 22.8686 109.025 23.0286 108.993 23.1566H99.2734C99.3214 23.6526 99.4414 24.0926 99.6334 24.4766C99.8254 24.8606 100.073 25.1886 100.377 25.4606C100.681 25.7326 101.025 25.9406 101.409 26.0846C101.793 26.2286 102.193 26.3006 102.609 26.3006C103.249 26.3006 103.849 26.1486 104.409 25.8446C104.985 25.5246 105.377 25.1086 105.585 24.5966L108.345 25.3646C107.881 26.3246 107.137 27.1166 106.113 27.7406C105.105 28.3486 103.897 28.6526 102.489 28.6526ZM105.753 21.0686C105.673 20.1246 105.321 19.3726 104.697 18.8126C104.089 18.2366 103.345 17.9486 102.465 17.9486C102.033 17.9486 101.625 18.0286 101.241 18.1886C100.873 18.3326 100.545 18.5406 100.257 18.8126C99.9694 19.0846 99.7294 19.4126 99.5374 19.7966C99.3614 20.1806 99.2574 20.6046 99.2254 21.0686H105.753ZM118.512 18.6206C117.536 18.6366 116.664 18.8286 115.896 19.1966C115.128 19.5486 114.576 20.0846 114.24 20.8046V28.4126H111.024V15.8366H113.976V18.5246C114.408 17.6606 114.968 16.9646 115.656 16.4366C116.36 15.9086 117.096 15.6446 117.864 15.6446C118.04 15.6446 118.168 15.6526 118.248 15.6686C118.344 15.6686 118.432 15.6766 118.512 15.6926V18.6206ZM125.226 28.6526C124.714 28.6526 124.178 28.6126 123.618 28.5326C123.074 28.4526 122.538 28.3406 122.01 28.1966C121.482 28.0526 120.978 27.8766 120.498 27.6686C120.018 27.4606 119.594 27.2286 119.226 26.9726L120.522 24.7886C122.122 25.8286 123.666 26.3486 125.154 26.3486C125.826 26.3486 126.354 26.2286 126.738 25.9886C127.122 25.7486 127.314 25.4046 127.314 24.9566C127.314 24.5086 127.082 24.1806 126.618 23.9726C126.17 23.7486 125.41 23.5086 124.338 23.2526C123.522 23.0606 122.826 22.8606 122.25 22.6526C121.674 22.4446 121.21 22.2046 120.858 21.9326C120.506 21.6606 120.25 21.3486 120.09 20.9966C119.93 20.6446 119.85 20.2286 119.85 19.7486C119.85 19.1086 119.978 18.5326 120.234 18.0206C120.49 17.5086 120.842 17.0766 121.29 16.7246C121.754 16.3566 122.29 16.0766 122.898 15.8846C123.522 15.6926 124.194 15.5966 124.914 15.5966C125.81 15.5966 126.698 15.7406 127.578 16.0286C128.474 16.3006 129.306 16.6766 130.074 17.1566L128.754 19.1486C128.05 18.7006 127.386 18.3806 126.762 18.1886C126.138 17.9806 125.514 17.8766 124.89 17.8766C124.314 17.8766 123.826 17.9886 123.426 18.2126C123.042 18.4366 122.85 18.7966 122.85 19.2926C122.85 19.7246 123.034 20.0366 123.402 20.2286C123.786 20.4206 124.458 20.6366 125.418 20.8766C126.314 21.1006 127.074 21.3246 127.698 21.5486C128.338 21.7726 128.858 22.0286 129.258 22.3166C129.674 22.6046 129.97 22.9406 130.146 23.3246C130.338 23.6926 130.434 24.1406 130.434 24.6686C130.434 25.2766 130.306 25.8286 130.05 26.3246C129.81 26.8206 129.466 27.2446 129.018 27.5966C128.57 27.9326 128.018 28.1966 127.362 28.3886C126.722 28.5646 126.01 28.6526 125.226 28.6526ZM138.302 28.6526C137.294 28.6526 136.382 28.4846 135.566 28.1486C134.75 27.7966 134.054 27.3246 133.478 26.7326C132.902 26.1406 132.454 25.4526 132.134 24.6686C131.83 23.8846 131.678 23.0606 131.678 22.1966C131.678 21.3006 131.83 20.4606 132.134 19.6766C132.438 18.8766 132.878 18.1806 133.454 17.5886C134.03 16.9806 134.726 16.5006 135.542 16.1486C136.374 15.7966 137.302 15.6206 138.326 15.6206C139.35 15.6206 140.262 15.7966 141.062 16.1486C141.878 16.5006 142.566 16.9726 143.126 17.5646C143.702 18.1566 144.134 18.8446 144.422 19.6286C144.726 20.4126 144.878 21.2286 144.878 22.0766C144.878 22.2846 144.87 22.4846 144.854 22.6766C144.854 22.8686 144.838 23.0286 144.806 23.1566H135.086C135.134 23.6526 135.254 24.0926 135.446 24.4766C135.638 24.8606 135.886 25.1886 136.19 25.4606C136.494 25.7326 136.838 25.9406 137.222 26.0846C137.606 26.2286 138.006 26.3006 138.422 26.3006C139.062 26.3006 139.662 26.1486 140.222 25.8446C140.798 25.5246 141.19 25.1086 141.398 24.5966L144.158 25.3646C143.694 26.3246 142.95 27.1166 141.926 27.7406C140.918 28.3486 139.71 28.6526 138.302 28.6526ZM141.566 21.0686C141.486 20.1246 141.134 19.3726 140.51 18.8126C139.902 18.2366 139.158 17.9486 138.278 17.9486C137.846 17.9486 137.438 18.0286 137.054 18.1886C136.686 18.3326 136.358 18.5406 136.07 18.8126C135.782 19.0846 135.542 19.4126 135.35 19.7966C135.174 20.1806 135.07 20.6046 135.038 21.0686H141.566ZM149.844 28.4126L145.212 15.8366H148.524L151.716 25.7966L154.932 15.8366H157.956L153.324 28.4126H149.844ZM165.396 28.6526C164.388 28.6526 163.476 28.4846 162.66 28.1486C161.844 27.7966 161.148 27.3246 160.572 26.7326C159.996 26.1406 159.548 25.4526 159.228 24.6686C158.924 23.8846 158.772 23.0606 158.772 22.1966C158.772 21.3006 158.924 20.4606 159.228 19.6766C159.532 18.8766 159.972 18.1806 160.548 17.5886C161.124 16.9806 161.82 16.5006 162.636 16.1486C163.468 15.7966 164.396 15.6206 165.42 15.6206C166.444 15.6206 167.356 15.7966 168.156 16.1486C168.972 16.5006 169.66 16.9726 170.22 17.5646C170.796 18.1566 171.228 18.8446 171.516 19.6286C171.82 20.4126 171.972 21.2286 171.972 22.0766C171.972 22.2846 171.964 22.4846 171.948 22.6766C171.948 22.8686 171.932 23.0286 171.9 23.1566H162.18C162.228 23.6526 162.348 24.0926 162.54 24.4766C162.732 24.8606 162.98 25.1886 163.284 25.4606C163.588 25.7326 163.932 25.9406 164.316 26.0846C164.7 26.2286 165.1 26.3006 165.516 26.3006C166.156 26.3006 166.756 26.1486 167.316 25.8446C167.892 25.5246 168.284 25.1086 168.492 24.5966L171.252 25.3646C170.788 26.3246 170.044 27.1166 169.02 27.7406C168.012 28.3486 166.804 28.6526 165.396 28.6526ZM168.66 21.0686C168.58 20.1246 168.228 19.3726 167.604 18.8126C166.996 18.2366 166.252 17.9486 165.372 17.9486C164.94 17.9486 164.532 18.0286 164.148 18.1886C163.78 18.3326 163.452 18.5406 163.164 18.8126C162.876 19.0846 162.636 19.4126 162.444 19.7966C162.268 20.1806 162.164 20.6046 162.132 21.0686H168.66ZM181.418 18.6206C180.442 18.6366 179.57 18.8286 178.802 19.1966C178.034 19.5486 177.482 20.0846 177.146 20.8046V28.4126H173.93V15.8366H176.882V18.5246C177.314 17.6606 177.874 16.9646 178.562 16.4366C179.266 15.9086 180.002 15.6446 180.77 15.6446C180.946 15.6446 181.074 15.6526 181.154 15.6686C181.25 15.6686 181.338 15.6766 181.418 15.6926V18.6206ZM186.48 28.6526C185.872 28.6526 185.304 28.5566 184.776 28.3646C184.248 28.1566 183.792 27.8766 183.408 27.5246C183.024 27.1566 182.72 26.7326 182.496 26.2526C182.288 25.7726 182.184 25.2446 182.184 24.6686C182.184 24.0766 182.312 23.5326 182.568 23.0366C182.84 22.5246 183.208 22.0926 183.672 21.7406C184.152 21.3886 184.72 21.1166 185.376 20.9246C186.032 20.7166 186.752 20.6126 187.536 20.6126C188.096 20.6126 188.64 20.6606 189.168 20.7566C189.712 20.8526 190.192 20.9886 190.608 21.1646V20.4446C190.608 19.6126 190.368 18.9726 189.888 18.5246C189.424 18.0766 188.728 17.8526 187.8 17.8526C187.128 17.8526 186.472 17.9726 185.832 18.2126C185.192 18.4526 184.536 18.8046 183.864 19.2686L182.88 17.2286C184.496 16.1566 186.24 15.6206 188.112 15.6206C189.92 15.6206 191.32 16.0686 192.312 16.9646C193.32 17.8446 193.824 19.1246 193.824 20.8046V24.7166C193.824 25.0526 193.888 25.2926 194.016 25.4366C194.144 25.5806 194.368 25.6606 194.688 25.6766V28.4126C194.384 28.4766 194.096 28.5166 193.824 28.5326C193.568 28.5646 193.344 28.5806 193.152 28.5806C192.544 28.5646 192.08 28.4286 191.76 28.1726C191.44 27.9006 191.24 27.5406 191.16 27.0926L191.088 26.3966C190.528 27.1326 189.848 27.6926 189.048 28.0766C188.248 28.4606 187.392 28.6526 186.48 28.6526ZM187.392 26.3006C187.936 26.3006 188.448 26.2046 188.928 26.0126C189.424 25.8206 189.808 25.5646 190.08 25.2446C190.432 24.9726 190.608 24.6686 190.608 24.3326V22.8926C190.224 22.7486 189.808 22.6366 189.36 22.5566C188.912 22.4606 188.48 22.4126 188.064 22.4126C187.232 22.4126 186.552 22.6046 186.024 22.9886C185.496 23.3566 185.232 23.8286 185.232 24.4046C185.232 24.9486 185.44 25.4046 185.856 25.7726C186.272 26.1246 186.784 26.3006 187.392 26.3006ZM208.587 28.4126H205.371V21.3566C205.371 20.3486 205.195 19.6126 204.843 19.1486C204.491 18.6846 204.003 18.4526 203.379 18.4526C203.059 18.4526 202.731 18.5166 202.395 18.6446C202.059 18.7726 201.739 18.9566 201.435 19.1966C201.147 19.4206 200.883 19.6926 200.643 20.0126C200.403 20.3326 200.227 20.6846 200.115 21.0686V28.4126H196.899V15.8366H199.803V18.1646C200.267 17.3646 200.939 16.7406 201.819 16.2926C202.699 15.8446 203.691 15.6206 204.795 15.6206C205.579 15.6206 206.219 15.7646 206.715 16.0526C207.211 16.3406 207.595 16.7166 207.867 17.1806C208.139 17.6446 208.323 18.1726 208.419 18.7646C208.531 19.3566 208.587 19.9566 208.587 20.5646V28.4126ZM210.568 22.1246C210.568 21.2446 210.72 20.4126 211.024 19.6286C211.328 18.8446 211.768 18.1566 212.344 17.5646C212.92 16.9726 213.616 16.5006 214.432 16.1486C215.248 15.7966 216.168 15.6206 217.192 15.6206C218.568 15.6206 219.736 15.9166 220.696 16.5086C221.672 17.1006 222.4 17.8766 222.88 18.8366L219.736 19.7966C219.464 19.3326 219.104 18.9806 218.656 18.7406C218.208 18.4846 217.712 18.3566 217.168 18.3566C216.704 18.3566 216.272 18.4526 215.872 18.6446C215.472 18.8206 215.12 19.0766 214.816 19.4126C214.528 19.7326 214.296 20.1246 214.12 20.5886C213.96 21.0526 213.88 21.5646 213.88 22.1246C213.88 22.6846 213.968 23.1966 214.144 23.6606C214.32 24.1246 214.552 24.5246 214.84 24.8606C215.144 25.1966 215.496 25.4606 215.896 25.6526C216.296 25.8286 216.72 25.9166 217.168 25.9166C217.744 25.9166 218.272 25.7726 218.752 25.4846C219.248 25.1966 219.592 24.8446 219.784 24.4286L222.928 25.3886C222.496 26.3486 221.784 27.1326 220.792 27.7406C219.8 28.3486 218.608 28.6526 217.216 28.6526C216.192 28.6526 215.272 28.4766 214.456 28.1246C213.64 27.7726 212.944 27.3006 212.368 26.7086C211.792 26.1006 211.344 25.4046 211.024 24.6206C210.72 23.8206 210.568 22.9886 210.568 22.1246ZM230.739 28.6526C229.731 28.6526 228.819 28.4846 228.003 28.1486C227.187 27.7966 226.491 27.3246 225.915 26.7326C225.339 26.1406 224.891 25.4526 224.571 24.6686C224.267 23.8846 224.115 23.0606 224.115 22.1966C224.115 21.3006 224.267 20.4606 224.571 19.6766C224.875 18.8766 225.315 18.1806 225.891 17.5886C226.467 16.9806 227.163 16.5006 227.979 16.1486C228.811 15.7966 229.739 15.6206 230.763 15.6206C231.787 15.6206 232.699 15.7966 233.499 16.1486C234.315 16.5006 235.003 16.9726 235.563 17.5646C236.139 18.1566 236.571 18.8446 236.859 19.6286C237.163 20.4126 237.315 21.2286 237.315 22.0766C237.315 22.2846 237.307 22.4846 237.291 22.6766C237.291 22.8686 237.275 23.0286 237.243 23.1566H227.523C227.571 23.6526 227.691 24.0926 227.883 24.4766C228.075 24.8606 228.323 25.1886 228.627 25.4606C228.931 25.7326 229.275 25.9406 229.659 26.0846C230.043 26.2286 230.443 26.3006 230.859 26.3006C231.499 26.3006 232.099 26.1486 232.659 25.8446C233.235 25.5246 233.627 25.1086 233.835 24.5966L236.595 25.3646C236.131 26.3246 235.387 27.1166 234.363 27.7406C233.355 28.3486 232.147 28.6526 230.739 28.6526ZM234.003 21.0686C233.923 20.1246 233.571 19.3726 232.947 18.8126C232.339 18.2366 231.595 17.9486 230.715 17.9486C230.283 17.9486 229.875 18.0286 229.491 18.1886C229.123 18.3326 228.795 18.5406 228.507 18.8126C228.219 19.0846 227.979 19.4126 227.787 19.7966C227.611 20.1806 227.507 20.6046 227.475 21.0686H234.003ZM80.9591 46.1246C80.9591 45.2446 81.1111 44.4126 81.4151 43.6286C81.7191 42.8446 82.1591 42.1566 82.7351 41.5646C83.3111 40.9726 84.0071 40.5006 84.8231 40.1486C85.6391 39.7966 86.5591 39.6206 87.5831 39.6206C88.9591 39.6206 90.1271 39.9166 91.0871 40.5086C92.0631 41.1006 92.7911 41.8766 93.2711 42.8366L90.1271 43.7966C89.8551 43.3326 89.4951 42.9806 89.0471 42.7406C88.5991 42.4846 88.1031 42.3566 87.5591 42.3566C87.0951 42.3566 86.6631 42.4526 86.2631 42.6446C85.8631 42.8206 85.5111 43.0766 85.2071 43.4126C84.9191 43.7326 84.6871 44.1246 84.5111 44.5886C84.3511 45.0526 84.2711 45.5646 84.2711 46.1246C84.2711 46.6846 84.3591 47.1966 84.5351 47.6606C84.7111 48.1246 84.9431 48.5246 85.2311 48.8606C85.5351 49.1966 85.8871 49.4606 86.2871 49.6526C86.6871 49.8286 87.1111 49.9166 87.5591 49.9166C88.1351 49.9166 88.6631 49.7726 89.1431 49.4846C89.6391 49.1966 89.9831 48.8446 90.1751 48.4286L93.3191 49.3886C92.8871 50.3486 92.1751 51.1326 91.1831 51.7406C90.1911 52.3486 88.9991 52.6526 87.6071 52.6526C86.5831 52.6526 85.6631 52.4766 84.8471 52.1246C84.0311 51.7726 83.3351 51.3006 82.7591 50.7086C82.1831 50.1006 81.7351 49.4046 81.4151 48.6206C81.1111 47.8206 80.9591 46.9886 80.9591 46.1246ZM100.965 52.6526C99.9414 52.6526 99.0214 52.4766 98.2054 52.1246C97.3894 51.7726 96.6934 51.3006 96.1174 50.7086C95.5574 50.1006 95.1254 49.4046 94.8214 48.6206C94.5174 47.8366 94.3654 47.0126 94.3654 46.1486C94.3654 45.2686 94.5174 44.4366 94.8214 43.6526C95.1254 42.8686 95.5574 42.1806 96.1174 41.5886C96.6934 40.9806 97.3894 40.5006 98.2054 40.1486C99.0214 39.7966 99.9414 39.6206 100.965 39.6206C101.989 39.6206 102.901 39.7966 103.701 40.1486C104.517 40.5006 105.205 40.9806 105.765 41.5886C106.341 42.1806 106.781 42.8686 107.085 43.6526C107.389 44.4366 107.541 45.2686 107.541 46.1486C107.541 47.0126 107.389 47.8366 107.085 48.6206C106.781 49.4046 106.349 50.1006 105.789 50.7086C105.229 51.3006 104.541 51.7726 103.725 52.1246C102.909 52.4766 101.989 52.6526 100.965 52.6526ZM97.6774 46.1486C97.6774 46.7086 97.7574 47.2206 97.9174 47.6846C98.0934 48.1326 98.3254 48.5246 98.6134 48.8606C98.9174 49.1966 99.2694 49.4606 99.6694 49.6526C100.069 49.8286 100.501 49.9166 100.965 49.9166C101.429 49.9166 101.861 49.8286 102.261 49.6526C102.661 49.4606 103.005 49.1966 103.293 48.8606C103.597 48.5246 103.829 48.1246 103.989 47.6606C104.165 47.1966 104.253 46.6846 104.253 46.1246C104.253 45.5806 104.165 45.0766 103.989 44.6126C103.829 44.1486 103.597 43.7486 103.293 43.4126C103.005 43.0766 102.661 42.8206 102.261 42.6446C101.861 42.4526 101.429 42.3566 100.965 42.3566C100.501 42.3566 100.069 42.4526 99.6694 42.6446C99.2694 42.8366 98.9174 43.1006 98.6134 43.4366C98.3254 43.7726 98.0934 44.1726 97.9174 44.6366C97.7574 45.1006 97.6774 45.6046 97.6774 46.1486ZM121.353 52.4126H118.137V45.3566C118.137 44.3646 117.953 43.6366 117.585 43.1726C117.217 42.6926 116.697 42.4526 116.025 42.4526C115.737 42.4526 115.433 42.5166 115.113 42.6446C114.793 42.7726 114.489 42.9566 114.201 43.1966C113.913 43.4206 113.649 43.6926 113.409 44.0126C113.169 44.3326 112.993 44.6846 112.881 45.0686V52.4126H109.665V34.8926H112.881V42.1646C113.345 41.3486 113.969 40.7246 114.753 40.2926C115.553 39.8446 116.433 39.6206 117.393 39.6206C118.209 39.6206 118.873 39.7646 119.385 40.0526C119.897 40.3246 120.297 40.6926 120.585 41.1566C120.873 41.6206 121.073 42.1486 121.185 42.7406C121.297 43.3326 121.353 43.9406 121.353 44.5646V52.4126ZM129.934 52.6526C128.91 52.6526 127.99 52.4766 127.174 52.1246C126.358 51.7726 125.662 51.3006 125.086 50.7086C124.526 50.1006 124.094 49.4046 123.79 48.6206C123.486 47.8366 123.334 47.0126 123.334 46.1486C123.334 45.2686 123.486 44.4366 123.79 43.6526C124.094 42.8686 124.526 42.1806 125.086 41.5886C125.662 40.9806 126.358 40.5006 127.174 40.1486C127.99 39.7966 128.91 39.6206 129.934 39.6206C130.958 39.6206 131.87 39.7966 132.67 40.1486C133.486 40.5006 134.174 40.9806 134.734 41.5886C135.31 42.1806 135.75 42.8686 136.054 43.6526C136.358 44.4366 136.51 45.2686 136.51 46.1486C136.51 47.0126 136.358 47.8366 136.054 48.6206C135.75 49.4046 135.318 50.1006 134.758 50.7086C134.198 51.3006 133.51 51.7726 132.694 52.1246C131.878 52.4766 130.958 52.6526 129.934 52.6526ZM126.646 46.1486C126.646 46.7086 126.726 47.2206 126.886 47.6846C127.062 48.1326 127.294 48.5246 127.582 48.8606C127.886 49.1966 128.238 49.4606 128.638 49.6526C129.038 49.8286 129.47 49.9166 129.934 49.9166C130.398 49.9166 130.83 49.8286 131.23 49.6526C131.63 49.4606 131.974 49.1966 132.262 48.8606C132.566 48.5246 132.798 48.1246 132.958 47.6606C133.134 47.1966 133.222 46.6846 133.222 46.1246C133.222 45.5806 133.134 45.0766 132.958 44.6126C132.798 44.1486 132.566 43.7486 132.262 43.4126C131.974 43.0766 131.63 42.8206 131.23 42.6446C130.83 42.4526 130.398 42.3566 129.934 42.3566C129.47 42.3566 129.038 42.4526 128.638 42.6446C128.238 42.8366 127.886 43.1006 127.582 43.4366C127.294 43.7726 127.062 44.1726 126.886 44.6366C126.726 45.1006 126.646 45.6046 126.646 46.1486ZM146.121 42.6206C145.145 42.6366 144.273 42.8286 143.505 43.1966C142.737 43.5486 142.185 44.0846 141.849 44.8046V52.4126H138.633V39.8366H141.585V42.5246C142.017 41.6606 142.577 40.9646 143.265 40.4366C143.969 39.9086 144.705 39.6446 145.473 39.6446C145.649 39.6446 145.777 39.6526 145.857 39.6686C145.953 39.6686 146.041 39.6766 146.121 39.6926V42.6206ZM155.475 51.7646C155.043 51.9566 154.507 52.1486 153.867 52.3406C153.243 52.5326 152.587 52.6286 151.899 52.6286C151.451 52.6286 151.027 52.5726 150.627 52.4606C150.243 52.3486 149.899 52.1726 149.595 51.9326C149.307 51.6766 149.075 51.3566 148.899 50.9726C148.723 50.5726 148.635 50.0926 148.635 49.5326V42.3086H147.003V39.8366H148.635V35.7566H151.851V39.8366H154.515V42.3086H151.851V48.4526C151.851 48.9006 151.971 49.2206 152.211 49.4126C152.451 49.5886 152.739 49.6766 153.075 49.6766C153.411 49.6766 153.739 49.6206 154.059 49.5086C154.379 49.3966 154.635 49.3006 154.827 49.2206L155.475 51.7646Z" fill="black"/>
</svg>
