<svg width="1200" height="675" viewBox="0 0 1200 675" fill="none" xmlns="http://www.w3.org/2000/svg">
<g clip-path="url(#clip0_1009_2513)">
<rect width="1200" height="675" fill="#020887"/>
<mask id="path-1-inside-1_1009_2513" fill="white">
<path fill-rule="evenodd" clip-rule="evenodd" d="M65.6065 79.7048C64.2588 77.4324 63.9308 74.3726 65.2228 71.0948C67.5552 66.3432 70.5002 64.7468 73.5305 63.1042C77.4473 60.981 81.5068 58.7804 84.5706 49.5894C87.7031 54.7676 90.0648 64.9736 85.4994 73.4491C82.1983 79.5704 77.899 82.556 74.6574 83.3373C71.9515 83.9895 69.4456 83.3857 67.5889 81.952L80.6564 67.2255L65.6065 79.7048Z"/>
</mask>
<path fill-rule="evenodd" clip-rule="evenodd" d="M65.6065 79.7048C64.2588 77.4324 63.9308 74.3726 65.2228 71.0948C67.5552 66.3432 70.5002 64.7468 73.5305 63.1042C77.4473 60.981 81.5068 58.7804 84.5706 49.5894C87.7031 54.7676 90.0648 64.9736 85.4994 73.4491C82.1983 79.5704 77.899 82.556 74.6574 83.3373C71.9515 83.9895 69.4456 83.3857 67.5889 81.952L80.6564 67.2255L65.6065 79.7048Z" fill="white"/>
<path d="M65.2228 71.0948L64.4876 70.805L64.4994 70.7753L64.5134 70.7466L65.2228 71.0948ZM65.6065 79.7048L66.1109 80.3132L65.3987 80.9037L64.9268 80.1079L65.6065 79.7048ZM73.5305 63.1042L73.9071 63.7989L73.5305 63.1042ZM84.5706 49.5894L83.8209 49.3395L84.3616 47.7172L85.2467 49.1803L84.5706 49.5894ZM85.4994 73.4491L86.1951 73.8239L86.1949 73.8242L85.4994 73.4491ZM74.6574 83.3373L74.4723 82.569L74.6574 83.3373ZM67.5889 81.952L67.1059 82.5774L66.4362 82.0603L66.9978 81.4275L67.5889 81.952ZM80.6564 67.2255L80.152 66.6171L81.2475 67.75L80.6564 67.2255ZM65.958 71.3846C64.7472 74.4564 65.0742 77.2581 66.2862 79.3017L64.9268 80.1079C63.4434 77.6067 63.1144 74.2888 64.4876 70.805L65.958 71.3846ZM73.9071 63.7989C70.9087 65.4243 68.1513 66.9222 65.9322 71.443L64.5134 70.7466C66.9591 65.7642 70.0916 64.0694 73.1539 62.4094L73.9071 63.7989ZM85.3203 49.8393C83.7606 54.5182 81.9272 57.4767 79.9403 59.5447C77.958 61.6079 75.862 62.7392 73.9071 63.7989L73.1539 62.4094C75.1158 61.3459 77.0081 60.3154 78.8006 58.4497C80.5885 56.5889 82.3168 53.8516 83.8209 49.3395L85.3203 49.8393ZM84.8037 73.0744C89.1979 64.9165 86.9297 55.0159 83.8944 49.9984L85.2467 49.1803C88.4765 54.5194 90.9316 65.0307 86.1951 73.8239L84.8037 73.0744ZM74.4723 82.569C77.4443 81.8527 81.5815 79.0493 84.8039 73.074L86.1949 73.8242C82.8152 80.0914 78.3536 83.2594 74.8426 84.1055L74.4723 82.569ZM68.0719 81.3265C69.7338 82.6098 71.9927 83.1667 74.4723 82.569L74.8426 84.1055C71.9103 84.8123 69.1574 84.1616 67.1059 82.5774L68.0719 81.3265ZM66.9978 81.4275L80.0653 66.701L81.2475 67.75L68.18 82.4765L66.9978 81.4275ZM81.1608 67.8338L66.1109 80.3132L65.1021 79.0965L80.152 66.6171L81.1608 67.8338Z" fill="white" mask="url(#path-1-inside-1_1009_2513)"/>
<mask id="path-3-inside-2_1009_2513" fill="white">
<path fill-rule="evenodd" clip-rule="evenodd" d="M62.4404 79.7048C63.7881 77.4324 64.1161 74.3726 62.8241 71.0948C60.4916 66.3432 57.5467 64.7468 54.5164 63.1042C50.5995 60.981 46.5401 58.7804 43.4763 49.5894C40.3438 54.7676 37.9821 64.9736 42.5475 73.4491C45.8486 79.5704 50.1479 82.556 53.3894 83.3373C56.0954 83.9895 58.6012 83.3857 60.458 81.952L47.3905 67.2255L62.4404 79.7048Z"/>
</mask>
<path fill-rule="evenodd" clip-rule="evenodd" d="M62.4404 79.7048C63.7881 77.4324 64.1161 74.3726 62.8241 71.0948C60.4916 66.3432 57.5467 64.7468 54.5164 63.1042C50.5995 60.981 46.5401 58.7804 43.4763 49.5894C40.3438 54.7676 37.9821 64.9736 42.5475 73.4491C45.8486 79.5704 50.1479 82.556 53.3894 83.3373C56.0954 83.9895 58.6012 83.3857 60.458 81.952L47.3905 67.2255L62.4404 79.7048Z" fill="white"/>
<path d="M62.8241 71.0948L63.5592 70.805L63.5475 70.7753L63.5334 70.7466L62.8241 71.0948ZM62.4404 79.7048L61.936 80.3132L62.6481 80.9037L63.1201 80.1079L62.4404 79.7048ZM54.5164 63.1042L54.1398 63.7989L54.5164 63.1042ZM43.4763 49.5894L44.226 49.3395L43.6852 47.7172L42.8002 49.1803L43.4763 49.5894ZM42.5475 73.4491L41.8517 73.8239L41.8519 73.8242L42.5475 73.4491ZM53.3894 83.3373L53.5746 82.569L53.3894 83.3373ZM60.458 81.952L60.941 82.5774L61.6107 82.0603L61.0491 81.4275L60.458 81.952ZM47.3905 67.2255L47.8949 66.6171L46.7994 67.75L47.3905 67.2255ZM62.0889 71.3846C63.2997 74.4564 62.9727 77.2581 61.7607 79.3017L63.1201 80.1079C64.6035 77.6067 64.9325 74.2888 63.5592 70.805L62.0889 71.3846ZM54.1398 63.7989C57.1381 65.4243 59.8955 66.9222 62.1147 71.443L63.5334 70.7466C61.0877 65.7642 57.9552 64.0694 54.893 62.4094L54.1398 63.7989ZM42.7266 49.8393C44.2863 54.5182 46.1196 57.4767 48.1066 59.5447C50.0889 61.6079 52.1849 62.7392 54.1398 63.7989L54.893 62.4094C52.931 61.3459 51.0388 60.3154 49.2463 58.4497C47.4583 56.5889 45.7301 53.8516 44.226 49.3395L42.7266 49.8393ZM43.2432 73.0744C38.8489 64.9165 41.1172 55.0159 44.1525 49.9984L42.8002 49.1803C39.5704 54.5194 37.1152 65.0307 41.8517 73.8239L43.2432 73.0744ZM53.5746 82.569C50.6025 81.8527 46.4654 79.0493 43.243 73.074L41.8519 73.8242C45.2317 80.0914 49.6933 83.2594 53.2043 84.1055L53.5746 82.569ZM59.975 81.3265C58.3131 82.6098 56.0542 83.1667 53.5746 82.569L53.2043 84.1055C56.1366 84.8123 58.8894 84.1616 60.941 82.5774L59.975 81.3265ZM61.0491 81.4275L47.9816 66.701L46.7994 67.75L59.8669 82.4765L61.0491 81.4275ZM46.886 67.8338L61.936 80.3132L62.9448 79.0965L47.8949 66.6171L46.886 67.8338Z" fill="white" mask="url(#path-3-inside-2_1009_2513)"/>
<text fill="white" stroke="white" stroke-width="0.474147" xml:space="preserve" style="white-space: pre" font-family="Raleway" font-size="16.3659" font-weight="bold" letter-spacing="0em"><tspan x="47.9277" y="55.2772">OLS</tspan></text>
<g opacity="0.2">
<path d="M1057.77 404.821C1113.56 546.349 1008.89 666.297 880.169 635.274C819.15 620.568 738.219 564.365 676.079 449.139C590.14 289.594 634.597 97.4763 693.563 0C795.855 306.87 957.112 199.766 1057.77 404.821Z" fill="url(#paint0_linear_1009_2513)"/>
<path d="M293.401 216.783C445.721 206.821 528.278 343.571 459.213 457.063C426.473 510.864 347.983 570.983 218.85 595.069C40.0805 628.323 -129.877 527.003 -204.958 440.806C119.592 437.047 66.6396 250.16 293.401 216.783Z" fill="url(#paint1_linear_1009_2513)"/>
</g>
<path d="M1085.85 736.038C968.49 757.07 857.098 691.96 805.193 634.583C857.527 633.792 895.301 625.746 924.706 613.624C955.179 601.062 976.504 584.186 995.611 566.79C1000.49 562.344 1005.23 557.869 1009.94 553.423C1041.98 523.145 1072.59 494.215 1138.83 484.884C1189.63 481.931 1228.35 503.317 1248.63 534.55C1268.93 565.807 1270.94 607.181 1247.78 644.682C1225.81 680.259 1173.03 720.372 1085.85 736.038Z" fill="#020887" stroke="white" stroke-width="5.18484"/>
<text fill="white" xml:space="preserve" style="white-space: pre" font-family="Raleway" font-size="30" font-weight="600" letter-spacing="0em"><tspan x="986.875" y="617.465">Open Seeds</tspan></text>
<text fill="white" xml:space="preserve" style="white-space: pre" font-family="Raleway" font-size="8.75" font-weight="bold" letter-spacing="0.08em"><tspan x="1018.16" y="632.776">Mentoring &#38; Training Program</tspan></text>
<mask id="path-11-inside-3_1009_2513" fill="white">
<path fill-rule="evenodd" clip-rule="evenodd" d="M1019.06 595.503C1018.53 594.616 1018.4 593.422 1018.91 592.142C1019.82 590.288 1020.97 589.665 1022.15 589.024C1023.68 588.196 1025.26 587.337 1026.46 583.75C1027.68 585.771 1028.6 589.754 1026.82 593.061C1025.53 595.45 1023.85 596.615 1022.59 596.92C1021.53 597.174 1020.55 596.939 1019.83 596.38L1024.93 590.632L1019.06 595.503Z"/>
</mask>
<path fill-rule="evenodd" clip-rule="evenodd" d="M1019.06 595.503C1018.53 594.616 1018.4 593.422 1018.91 592.142C1019.82 590.288 1020.97 589.665 1022.15 589.024C1023.68 588.196 1025.26 587.337 1026.46 583.75C1027.68 585.771 1028.6 589.754 1026.82 593.061C1025.53 595.45 1023.85 596.615 1022.59 596.92C1021.53 597.174 1020.55 596.939 1019.83 596.38L1024.93 590.632L1019.06 595.503Z" fill="white"/>
<path d="M1018.91 592.142L1018.62 592.029L1018.62 592.018L1018.63 592.006L1018.91 592.142ZM1019.06 595.503L1019.25 595.74L1018.97 595.97L1018.79 595.66L1019.06 595.503ZM1022.15 589.024L1022 588.753L1022.15 589.024ZM1026.46 583.75L1026.16 583.652L1026.37 583.019L1026.72 583.59L1026.46 583.75ZM1026.82 593.061L1027.09 593.207L1027.09 593.208L1026.82 593.061ZM1022.59 596.92L1022.52 596.62H1022.52L1022.59 596.92ZM1019.83 596.38L1019.64 596.624L1019.38 596.422L1019.6 596.175L1019.83 596.38ZM1024.93 590.632L1024.73 590.395L1025.16 590.837L1024.93 590.632ZM1019.19 592.255C1018.72 593.454 1018.85 594.548 1019.32 595.345L1018.79 595.66C1018.21 594.684 1018.08 593.389 1018.62 592.029L1019.19 592.255ZM1022.29 589.295C1021.12 589.929 1020.05 590.514 1019.18 592.278L1018.63 592.006C1019.58 590.062 1020.81 589.401 1022 588.753L1022.29 589.295ZM1026.75 583.848C1026.14 585.673 1025.42 586.828 1024.65 587.635C1023.88 588.44 1023.06 588.882 1022.29 589.295L1022 588.753C1022.77 588.338 1023.5 587.936 1024.2 587.208C1024.9 586.482 1025.58 585.413 1026.16 583.652L1026.75 583.848ZM1026.55 592.915C1028.26 589.731 1027.38 585.868 1026.19 583.91L1026.72 583.59C1027.98 585.674 1028.94 589.776 1027.09 593.207L1026.55 592.915ZM1022.52 596.62C1023.67 596.341 1025.29 595.247 1026.55 592.915L1027.09 593.208C1025.77 595.653 1024.03 596.89 1022.66 597.22L1022.52 596.62ZM1020.02 596.135C1020.67 596.636 1021.55 596.853 1022.52 596.62L1022.66 597.22C1021.52 597.495 1020.44 597.242 1019.64 596.624L1020.02 596.135ZM1019.6 596.175L1024.7 590.428L1025.16 590.837L1020.06 596.584L1019.6 596.175ZM1025.13 590.87L1019.25 595.74L1018.86 595.265L1024.73 590.395L1025.13 590.87Z" fill="white" mask="url(#path-11-inside-3_1009_2513)"/>
<mask id="path-13-inside-4_1009_2513" fill="white">
<path fill-rule="evenodd" clip-rule="evenodd" d="M1017.82 595.503C1018.35 594.616 1018.47 593.422 1017.97 592.142C1017.06 590.288 1015.91 589.665 1014.73 589.024C1013.2 588.196 1011.61 587.337 1010.42 583.75C1009.2 585.771 1008.28 589.754 1010.06 593.061C1011.34 595.45 1013.02 596.615 1014.29 596.92C1015.34 597.174 1016.32 596.939 1017.05 596.38L1011.95 590.632L1017.82 595.503Z"/>
</mask>
<path fill-rule="evenodd" clip-rule="evenodd" d="M1017.82 595.503C1018.35 594.616 1018.47 593.422 1017.97 592.142C1017.06 590.288 1015.91 589.665 1014.73 589.024C1013.2 588.196 1011.61 587.337 1010.42 583.75C1009.2 585.771 1008.28 589.754 1010.06 593.061C1011.34 595.45 1013.02 596.615 1014.29 596.92C1015.34 597.174 1016.32 596.939 1017.05 596.38L1011.95 590.632L1017.82 595.503Z" fill="white"/>
<path d="M1017.97 592.142L1018.26 592.029L1018.25 592.018L1018.25 592.006L1017.97 592.142ZM1017.82 595.503L1017.62 595.74L1017.9 595.97L1018.08 595.66L1017.82 595.503ZM1014.73 589.024L1014.87 588.753L1014.73 589.024ZM1010.42 583.75L1010.71 583.652L1010.5 583.019L1010.16 583.59L1010.42 583.75ZM1010.06 593.061L1009.79 593.207L1009.79 593.208L1010.06 593.061ZM1014.29 596.92L1014.36 596.62H1014.36L1014.29 596.92ZM1017.05 596.38L1017.23 596.624L1017.5 596.422L1017.28 596.175L1017.05 596.38ZM1011.95 590.632L1012.14 590.395L1011.72 590.837L1011.95 590.632ZM1017.68 592.255C1018.16 593.454 1018.03 594.548 1017.55 595.345L1018.08 595.66C1018.66 594.684 1018.79 593.389 1018.26 592.029L1017.68 592.255ZM1014.58 589.295C1015.75 589.929 1016.83 590.514 1017.69 592.278L1018.25 592.006C1017.29 590.062 1016.07 589.401 1014.87 588.753L1014.58 589.295ZM1010.13 583.848C1010.74 585.673 1011.45 586.828 1012.23 587.635C1013 588.44 1013.82 588.882 1014.58 589.295L1014.87 588.753C1014.11 588.338 1013.37 587.936 1012.67 587.208C1011.97 586.482 1011.3 585.413 1010.71 583.652L1010.13 583.848ZM1010.33 592.915C1008.61 589.731 1009.5 585.868 1010.68 583.91L1010.16 583.59C1008.89 585.674 1007.94 589.776 1009.79 593.207L1010.33 592.915ZM1014.36 596.62C1013.2 596.341 1011.59 595.247 1010.33 592.915L1009.79 593.208C1011.1 595.653 1012.85 596.89 1014.22 597.22L1014.36 596.62ZM1016.86 596.135C1016.21 596.636 1015.33 596.853 1014.36 596.62L1014.22 597.22C1015.36 597.495 1016.43 597.242 1017.23 596.624L1016.86 596.135ZM1017.28 596.175L1012.18 590.428L1011.72 590.837L1016.82 596.584L1017.28 596.175ZM1011.75 590.87L1017.62 595.74L1018.02 595.265L1012.14 590.395L1011.75 590.87Z" fill="white" mask="url(#path-13-inside-4_1009_2513)"/>
<line x1="987.812" y1="631.875" x2="1015.31" y2="631.875" stroke="white" stroke-width="1.875" stroke-linecap="round"/>
</g>
<defs>
<linearGradient id="paint0_linear_1009_2513" x1="850.625" y1="-156.711" x2="850.625" y2="640.206" gradientUnits="userSpaceOnUse">
<stop stop-color="#787DE2"/>
<stop offset="1" stop-color="#020887"/>
</linearGradient>
<linearGradient id="paint1_linear_1009_2513" x1="-306.596" y1="242.734" x2="454.877" y2="486.803" gradientUnits="userSpaceOnUse">
<stop stop-color="#787DE2"/>
<stop offset="1" stop-color="#020887"/>
</linearGradient>
<clipPath id="clip0_1009_2513">
<rect width="1200" height="675" fill="white"/>
</clipPath>
</defs>
</svg>
