<svg width="1200" height="675" viewBox="0 0 1200 675" fill="none" xmlns="http://www.w3.org/2000/svg">
<g clip-path="url(#clip0_1009_2542)">
<rect width="1200" height="675" fill="white"/>
<path d="M1085.85 736.038C968.49 757.07 857.098 691.96 805.193 634.583C857.527 633.792 895.301 625.746 924.706 613.624C955.179 601.062 976.504 584.186 995.611 566.79C1000.49 562.344 1005.23 557.869 1009.94 553.423C1041.98 523.145 1072.59 494.215 1138.83 484.884C1189.63 481.931 1228.35 503.317 1248.63 534.55C1268.93 565.807 1270.94 607.181 1247.78 644.682C1225.81 680.259 1173.03 720.372 1085.85 736.038Z" fill="#139D3D" stroke="white" stroke-width="5.18484"/>
<path d="M998.125 617.525C996.585 617.525 995.195 617.225 993.955 616.625C992.715 616.025 991.645 615.215 990.745 614.195C989.845 613.155 989.145 611.995 988.645 610.715C988.165 609.415 987.925 608.085 987.925 606.725C987.925 605.305 988.185 603.955 988.705 602.675C989.225 601.375 989.945 600.225 990.865 599.225C991.785 598.205 992.865 597.405 994.105 596.825C995.365 596.225 996.725 595.925 998.185 595.925C999.705 595.925 1001.09 596.235 1002.33 596.855C1003.59 597.475 1004.66 598.305 1005.54 599.345C1006.44 600.385 1007.13 601.545 1007.61 602.825C1008.11 604.105 1008.36 605.415 1008.36 606.755C1008.36 608.175 1008.1 609.535 1007.58 610.835C1007.08 612.115 1006.37 613.265 1005.45 614.285C1004.53 615.285 1003.44 616.075 1002.18 616.655C1000.94 617.235 999.585 617.525 998.125 617.525ZM991.345 606.725C991.345 607.725 991.505 608.695 991.825 609.635C992.145 610.575 992.595 611.415 993.175 612.155C993.775 612.875 994.495 613.445 995.335 613.865C996.175 614.285 997.115 614.495 998.155 614.495C999.235 614.495 1000.2 614.275 1001.04 613.835C1001.88 613.395 1002.58 612.805 1003.14 612.065C1003.72 611.305 1004.16 610.465 1004.46 609.545C1004.76 608.605 1004.91 607.665 1004.91 606.725C1004.91 605.725 1004.75 604.765 1004.43 603.845C1004.13 602.905 1003.68 602.075 1003.08 601.355C1002.48 600.615 1001.76 600.035 1000.92 599.615C1000.1 599.195 999.175 598.985 998.155 598.985C997.075 598.985 996.115 599.205 995.275 599.645C994.435 600.085 993.725 600.675 993.145 601.415C992.565 602.155 992.115 602.985 991.795 603.905C991.495 604.825 991.345 605.765 991.345 606.725ZM1020.18 617.675C1018.92 617.675 1017.81 617.375 1016.85 616.775C1015.89 616.175 1015.13 615.395 1014.57 614.435V623.765H1011.27V601.685H1014.18V604.505C1014.78 603.565 1015.56 602.815 1016.52 602.255C1017.48 601.695 1018.55 601.415 1019.73 601.415C1020.81 601.415 1021.8 601.635 1022.7 602.075C1023.6 602.495 1024.38 603.085 1025.04 603.845C1025.7 604.605 1026.21 605.475 1026.57 606.455C1026.95 607.415 1027.14 608.435 1027.14 609.515C1027.14 611.015 1026.84 612.385 1026.24 613.625C1025.66 614.865 1024.84 615.855 1023.78 616.595C1022.74 617.315 1021.54 617.675 1020.18 617.675ZM1019.1 614.855C1019.8 614.855 1020.43 614.705 1020.99 614.405C1021.57 614.105 1022.06 613.705 1022.46 613.205C1022.88 612.705 1023.2 612.135 1023.42 611.495C1023.64 610.855 1023.75 610.195 1023.75 609.515C1023.75 608.795 1023.63 608.115 1023.39 607.475C1023.15 606.835 1022.8 606.275 1022.34 605.795C1021.9 605.315 1021.38 604.935 1020.78 604.655C1020.2 604.375 1019.56 604.235 1018.86 604.235C1018.44 604.235 1018 604.315 1017.54 604.475C1017.08 604.635 1016.65 604.855 1016.25 605.135C1015.85 605.415 1015.5 605.745 1015.2 606.125C1014.9 606.505 1014.69 606.905 1014.57 607.325V611.435C1014.85 612.075 1015.22 612.655 1015.68 613.175C1016.14 613.675 1016.67 614.085 1017.27 614.405C1017.87 614.705 1018.48 614.855 1019.1 614.855ZM1037.22 617.675C1036 617.675 1034.89 617.465 1033.89 617.045C1032.91 616.605 1032.06 616.015 1031.34 615.275C1030.62 614.515 1030.06 613.655 1029.66 612.695C1029.28 611.715 1029.09 610.675 1029.09 609.575C1029.09 608.095 1029.43 606.745 1030.1 605.525C1030.79 604.285 1031.74 603.295 1032.96 602.555C1034.18 601.795 1035.61 601.415 1037.25 601.415C1038.89 601.415 1040.3 601.795 1041.48 602.555C1042.68 603.295 1043.61 604.275 1044.27 605.495C1044.93 606.715 1045.26 608.025 1045.26 609.425C1045.26 609.665 1045.25 609.895 1045.23 610.115C1045.21 610.315 1045.19 610.485 1045.17 610.625H1032.6C1032.66 611.545 1032.91 612.355 1033.35 613.055C1033.81 613.735 1034.39 614.275 1035.09 614.675C1035.79 615.055 1036.54 615.245 1037.34 615.245C1038.22 615.245 1039.05 615.025 1039.83 614.585C1040.63 614.145 1041.17 613.565 1041.45 612.845L1044.27 613.655C1043.93 614.415 1043.41 615.105 1042.71 615.725C1042.03 616.325 1041.22 616.805 1040.28 617.165C1039.34 617.505 1038.32 617.675 1037.22 617.675ZM1032.51 608.435H1041.99C1041.93 607.535 1041.67 606.745 1041.21 606.065C1040.77 605.365 1040.2 604.825 1039.5 604.445C1038.82 604.045 1038.06 603.845 1037.22 603.845C1036.4 603.845 1035.64 604.045 1034.94 604.445C1034.26 604.825 1033.7 605.365 1033.26 606.065C1032.82 606.745 1032.57 607.535 1032.51 608.435ZM1062.02 617.375H1058.72V608.585C1058.72 607.125 1058.48 606.055 1058 605.375C1057.54 604.695 1056.85 604.355 1055.93 604.355C1055.29 604.355 1054.65 604.515 1054.01 604.835C1053.39 605.155 1052.83 605.595 1052.33 606.155C1051.83 606.695 1051.47 607.325 1051.25 608.045V617.375H1047.95V601.685H1050.95V604.835C1051.35 604.135 1051.87 603.535 1052.51 603.035C1053.17 602.515 1053.91 602.115 1054.73 601.835C1055.55 601.555 1056.42 601.415 1057.34 601.415C1058.28 601.415 1059.05 601.585 1059.65 601.925C1060.27 602.265 1060.75 602.735 1061.09 603.335C1061.45 603.915 1061.69 604.595 1061.81 605.375C1061.95 606.135 1062.02 606.945 1062.02 607.805V617.375ZM1086.28 601.085C1086.08 600.865 1085.79 600.635 1085.41 600.395C1085.03 600.135 1084.58 599.895 1084.06 599.675C1083.54 599.455 1082.98 599.275 1082.38 599.135C1081.78 598.995 1081.16 598.925 1080.52 598.925C1079.12 598.925 1078.08 599.185 1077.4 599.705C1076.72 600.225 1076.38 600.945 1076.38 601.865C1076.38 602.545 1076.57 603.085 1076.95 603.485C1077.33 603.865 1077.91 604.185 1078.69 604.445C1079.47 604.705 1080.45 604.985 1081.63 605.285C1083.07 605.625 1084.32 606.035 1085.38 606.515C1086.44 606.975 1087.25 607.595 1087.81 608.375C1088.37 609.155 1088.65 610.185 1088.65 611.465C1088.65 612.545 1088.45 613.475 1088.05 614.255C1087.65 615.035 1087.09 615.675 1086.37 616.175C1085.65 616.655 1084.82 617.015 1083.88 617.255C1082.94 617.475 1081.93 617.585 1080.85 617.585C1079.79 617.585 1078.73 617.475 1077.67 617.255C1076.63 617.035 1075.63 616.715 1074.67 616.295C1073.73 615.855 1072.86 615.325 1072.06 614.705L1073.59 611.825C1073.85 612.085 1074.22 612.375 1074.7 612.695C1075.2 612.995 1075.77 613.285 1076.41 613.565C1077.07 613.845 1077.78 614.085 1078.54 614.285C1079.32 614.465 1080.11 614.555 1080.91 614.555C1082.25 614.555 1083.27 614.325 1083.97 613.865C1084.69 613.385 1085.05 612.705 1085.05 611.825C1085.05 611.105 1084.82 610.535 1084.36 610.115C1083.9 609.675 1083.23 609.305 1082.35 609.005C1081.47 608.705 1080.42 608.405 1079.2 608.105C1077.8 607.725 1076.63 607.315 1075.69 606.875C1074.75 606.415 1074.04 605.835 1073.56 605.135C1073.1 604.415 1072.87 603.505 1072.87 602.405C1072.87 601.005 1073.21 599.825 1073.89 598.865C1074.57 597.885 1075.49 597.155 1076.65 596.675C1077.83 596.175 1079.15 595.925 1080.61 595.925C1081.57 595.925 1082.48 596.035 1083.34 596.255C1084.2 596.455 1085 596.735 1085.74 597.095C1086.5 597.455 1087.19 597.865 1087.81 598.325L1086.28 601.085ZM1098.71 617.675C1097.49 617.675 1096.38 617.465 1095.38 617.045C1094.4 616.605 1093.55 616.015 1092.83 615.275C1092.11 614.515 1091.55 613.655 1091.15 612.695C1090.77 611.715 1090.58 610.675 1090.58 609.575C1090.58 608.095 1090.92 606.745 1091.6 605.525C1092.28 604.285 1093.23 603.295 1094.45 602.555C1095.67 601.795 1097.1 601.415 1098.74 601.415C1100.38 601.415 1101.79 601.795 1102.97 602.555C1104.17 603.295 1105.1 604.275 1105.76 605.495C1106.42 606.715 1106.75 608.025 1106.75 609.425C1106.75 609.665 1106.74 609.895 1106.72 610.115C1106.7 610.315 1106.68 610.485 1106.66 610.625H1094.09C1094.15 611.545 1094.4 612.355 1094.84 613.055C1095.3 613.735 1095.88 614.275 1096.58 614.675C1097.28 615.055 1098.03 615.245 1098.83 615.245C1099.71 615.245 1100.54 615.025 1101.32 614.585C1102.12 614.145 1102.66 613.565 1102.94 612.845L1105.76 613.655C1105.42 614.415 1104.9 615.105 1104.2 615.725C1103.52 616.325 1102.71 616.805 1101.77 617.165C1100.83 617.505 1099.81 617.675 1098.71 617.675ZM1094 608.435H1103.48C1103.42 607.535 1103.16 606.745 1102.7 606.065C1102.26 605.365 1101.69 604.825 1100.99 604.445C1100.31 604.045 1099.55 603.845 1098.71 603.845C1097.89 603.845 1097.13 604.045 1096.43 604.445C1095.75 604.825 1095.19 605.365 1094.75 606.065C1094.31 606.745 1094.06 607.535 1094 608.435ZM1116.55 617.675C1115.33 617.675 1114.22 617.465 1113.22 617.045C1112.24 616.605 1111.39 616.015 1110.67 615.275C1109.95 614.515 1109.39 613.655 1108.99 612.695C1108.61 611.715 1108.42 610.675 1108.42 609.575C1108.42 608.095 1108.76 606.745 1109.44 605.525C1110.12 604.285 1111.07 603.295 1112.29 602.555C1113.51 601.795 1114.94 601.415 1116.58 601.415C1118.22 601.415 1119.63 601.795 1120.81 602.555C1122.01 603.295 1122.94 604.275 1123.6 605.495C1124.26 606.715 1124.59 608.025 1124.59 609.425C1124.59 609.665 1124.58 609.895 1124.56 610.115C1124.54 610.315 1124.52 610.485 1124.5 610.625H1111.93C1111.99 611.545 1112.24 612.355 1112.68 613.055C1113.14 613.735 1113.72 614.275 1114.42 614.675C1115.12 615.055 1115.87 615.245 1116.67 615.245C1117.55 615.245 1118.38 615.025 1119.16 614.585C1119.96 614.145 1120.5 613.565 1120.78 612.845L1123.6 613.655C1123.26 614.415 1122.74 615.105 1122.04 615.725C1121.36 616.325 1120.55 616.805 1119.61 617.165C1118.67 617.505 1117.65 617.675 1116.55 617.675ZM1111.84 608.435H1121.32C1121.26 607.535 1121 606.745 1120.54 606.065C1120.1 605.365 1119.53 604.825 1118.83 604.445C1118.15 604.045 1117.39 603.845 1116.55 603.845C1115.73 603.845 1114.97 604.045 1114.27 604.445C1113.59 604.825 1113.03 605.365 1112.59 606.065C1112.15 606.745 1111.9 607.535 1111.84 608.435ZM1126.29 609.545C1126.29 608.045 1126.59 606.685 1127.19 605.465C1127.81 604.225 1128.65 603.245 1129.71 602.525C1130.77 601.785 1131.99 601.415 1133.37 601.415C1134.57 601.415 1135.65 601.725 1136.61 602.345C1137.59 602.965 1138.35 603.735 1138.89 604.655V595.475H1142.19V613.655C1142.19 614.035 1142.26 614.305 1142.4 614.465C1142.54 614.625 1142.77 614.715 1143.09 614.735V617.375C1142.47 617.475 1141.99 617.525 1141.65 617.525C1141.03 617.525 1140.5 617.345 1140.06 616.985C1139.64 616.625 1139.42 616.195 1139.4 615.695L1139.37 614.525C1138.77 615.525 1137.96 616.305 1136.94 616.865C1135.92 617.405 1134.86 617.675 1133.76 617.675C1132.68 617.675 1131.68 617.465 1130.76 617.045C1129.86 616.625 1129.07 616.035 1128.39 615.275C1127.73 614.515 1127.21 613.645 1126.83 612.665C1126.47 611.685 1126.29 610.645 1126.29 609.545ZM1138.89 611.735V607.625C1138.67 606.985 1138.31 606.415 1137.81 605.915C1137.33 605.395 1136.78 604.985 1136.16 604.685C1135.56 604.385 1134.96 604.235 1134.36 604.235C1133.66 604.235 1133.02 604.385 1132.44 604.685C1131.88 604.985 1131.39 605.385 1130.97 605.885C1130.57 606.385 1130.26 606.955 1130.04 607.595C1129.82 608.235 1129.71 608.905 1129.71 609.605C1129.71 610.325 1129.83 611.005 1130.07 611.645C1130.31 612.265 1130.65 612.825 1131.09 613.325C1131.55 613.805 1132.07 614.185 1132.65 614.465C1133.25 614.725 1133.9 614.855 1134.6 614.855C1135.04 614.855 1135.48 614.775 1135.92 614.615C1136.38 614.455 1136.81 614.235 1137.21 613.955C1137.63 613.675 1137.98 613.345 1138.26 612.965C1138.56 612.585 1138.77 612.175 1138.89 611.735ZM1151.96 617.675C1150.64 617.675 1149.39 617.465 1148.21 617.045C1147.03 616.605 1146.02 615.955 1145.18 615.095L1146.41 612.875C1147.31 613.675 1148.21 614.255 1149.11 614.615C1150.03 614.975 1150.94 615.155 1151.84 615.155C1152.76 615.155 1153.51 614.985 1154.09 614.645C1154.67 614.285 1154.96 613.765 1154.96 613.085C1154.96 612.585 1154.81 612.215 1154.51 611.975C1154.21 611.735 1153.77 611.525 1153.19 611.345C1152.63 611.165 1151.95 610.965 1151.15 610.745C1150.03 610.405 1149.09 610.055 1148.33 609.695C1147.57 609.315 1147 608.855 1146.62 608.315C1146.24 607.775 1146.05 607.085 1146.05 606.245C1146.05 605.225 1146.31 604.355 1146.83 603.635C1147.35 602.915 1148.07 602.365 1148.99 601.985C1149.93 601.605 1151.01 601.415 1152.23 601.415C1153.37 601.415 1154.42 601.595 1155.38 601.955C1156.36 602.295 1157.22 602.835 1157.96 603.575L1156.55 605.765C1155.85 605.125 1155.13 604.655 1154.39 604.355C1153.67 604.055 1152.89 603.905 1152.05 603.905C1151.57 603.905 1151.11 603.965 1150.67 604.085C1150.23 604.185 1149.86 604.385 1149.56 604.685C1149.28 604.965 1149.14 605.365 1149.14 605.885C1149.14 606.305 1149.26 606.645 1149.5 606.905C1149.74 607.165 1150.1 607.385 1150.58 607.565C1151.06 607.745 1151.65 607.945 1152.35 608.165C1153.57 608.525 1154.61 608.885 1155.47 609.245C1156.33 609.585 1156.99 610.035 1157.45 610.595C1157.93 611.135 1158.17 611.885 1158.17 612.845C1158.17 614.365 1157.6 615.555 1156.46 616.415C1155.34 617.255 1153.84 617.675 1151.96 617.675Z" fill="white"/>
<path d="M1023.87 632.688V628.61L1022.28 631.646H1021.61L1020.01 628.61V632.688H1018.81V626.475H1020.1L1021.94 630.01L1023.79 626.475H1025.08V632.688H1023.87ZM1029.01 632.775C1028.65 632.775 1028.31 632.714 1028.02 632.591C1027.72 632.463 1027.47 632.291 1027.26 632.075C1027.05 631.853 1026.88 631.602 1026.77 631.322C1026.65 631.037 1026.6 630.736 1026.6 630.421C1026.6 629.984 1026.7 629.584 1026.89 629.222C1027.09 628.861 1027.37 628.572 1027.73 628.356C1028.1 628.135 1028.53 628.024 1029.02 628.024C1029.52 628.024 1029.95 628.135 1030.31 628.356C1030.66 628.572 1030.94 628.861 1031.12 629.222C1031.32 629.578 1031.41 629.963 1031.41 630.378C1031.41 630.447 1031.41 630.52 1031.4 630.596C1031.4 630.666 1031.39 630.725 1031.39 630.771H1027.84C1027.86 631.005 1027.93 631.209 1028.04 631.384C1028.16 631.559 1028.31 631.693 1028.48 631.786C1028.66 631.874 1028.85 631.917 1029.06 631.917C1029.29 631.917 1029.51 631.862 1029.71 631.751C1029.92 631.635 1030.07 631.483 1030.14 631.296L1031.15 631.576C1031.04 631.81 1030.88 632.017 1030.67 632.197C1030.46 632.378 1030.22 632.521 1029.94 632.626C1029.66 632.725 1029.35 632.775 1029.01 632.775ZM1027.82 630.027H1030.21C1030.19 629.794 1030.12 629.593 1030.01 629.424C1029.91 629.249 1029.77 629.115 1029.59 629.021C1029.42 628.922 1029.22 628.872 1029.01 628.872C1028.8 628.872 1028.6 628.922 1028.43 629.021C1028.26 629.115 1028.12 629.249 1028.01 629.424C1027.9 629.593 1027.84 629.794 1027.82 630.027ZM1037.09 632.688H1035.91V630.115C1035.91 629.747 1035.85 629.479 1035.72 629.31C1035.59 629.141 1035.42 629.056 1035.19 629.056C1035.03 629.056 1034.87 629.097 1034.71 629.179C1034.55 629.26 1034.41 629.374 1034.28 629.52C1034.15 629.66 1034.06 629.823 1034 630.01V632.688H1032.83V628.102H1033.88V628.951C1034 628.753 1034.15 628.587 1034.33 628.452C1034.51 628.312 1034.72 628.207 1034.95 628.137C1035.19 628.062 1035.44 628.024 1035.7 628.024C1035.99 628.024 1036.22 628.076 1036.4 628.181C1036.59 628.28 1036.73 628.417 1036.82 628.592C1036.92 628.762 1036.99 628.954 1037.03 629.17C1037.07 629.386 1037.09 629.605 1037.09 629.826V632.688ZM1041.53 632.451C1041.43 632.492 1041.31 632.539 1041.17 632.591C1041.03 632.644 1040.88 632.685 1040.71 632.714C1040.56 632.749 1040.4 632.766 1040.23 632.766C1040.02 632.766 1039.82 632.728 1039.64 632.652C1039.46 632.577 1039.31 632.457 1039.2 632.294C1039.1 632.125 1039.04 631.906 1039.04 631.637V629.004H1038.44V628.102H1039.04V626.615H1040.22V628.102H1041.18V629.004H1040.22V631.244C1040.22 631.401 1040.27 631.515 1040.35 631.585C1040.43 631.655 1040.53 631.69 1040.65 631.69C1040.78 631.69 1040.9 631.67 1041.01 631.629C1041.13 631.588 1041.22 631.553 1041.29 631.524L1041.53 632.451ZM1044.91 632.775C1044.53 632.775 1044.2 632.714 1043.9 632.591C1043.6 632.463 1043.35 632.288 1043.14 632.066C1042.93 631.845 1042.78 631.591 1042.67 631.305C1042.55 631.019 1042.5 630.719 1042.5 630.404C1042.5 630.083 1042.55 629.78 1042.67 629.494C1042.78 629.208 1042.93 628.954 1043.14 628.732C1043.35 628.511 1043.6 628.339 1043.9 628.216C1044.2 628.088 1044.53 628.024 1044.91 628.024C1045.28 628.024 1045.61 628.088 1045.9 628.216C1046.2 628.339 1046.45 628.511 1046.66 628.732C1046.87 628.954 1047.03 629.208 1047.14 629.494C1047.25 629.78 1047.3 630.083 1047.3 630.404C1047.3 630.719 1047.25 631.019 1047.14 631.305C1047.03 631.591 1046.87 631.845 1046.66 632.066C1046.46 632.288 1046.21 632.463 1045.91 632.591C1045.61 632.714 1045.28 632.775 1044.91 632.775ZM1043.71 630.404C1043.71 630.672 1043.76 630.911 1043.86 631.121C1043.97 631.325 1044.11 631.486 1044.29 631.602C1044.47 631.719 1044.68 631.777 1044.91 631.777C1045.13 631.777 1045.33 631.719 1045.51 631.602C1045.69 631.48 1045.83 631.317 1045.94 631.112C1046.05 630.902 1046.1 630.663 1046.1 630.395C1046.1 630.132 1046.05 629.896 1045.94 629.686C1045.83 629.476 1045.69 629.313 1045.51 629.196C1045.33 629.08 1045.13 629.021 1044.91 629.021C1044.68 629.021 1044.47 629.082 1044.29 629.205C1044.11 629.322 1043.97 629.485 1043.86 629.695C1043.76 629.899 1043.71 630.135 1043.71 630.404ZM1051.52 629.117C1051.17 629.117 1050.85 629.187 1050.57 629.327C1050.29 629.462 1050.09 629.657 1049.97 629.914V632.688H1048.79V628.102H1049.87V629.082C1050.03 628.767 1050.24 628.52 1050.49 628.339C1050.74 628.158 1051.01 628.059 1051.29 628.041C1051.35 628.041 1051.4 628.041 1051.44 628.041C1051.47 628.041 1051.5 628.044 1051.52 628.05V629.117ZM1052.88 632.688V628.102H1054.05V632.688H1052.88ZM1052.88 627.464V626.3H1054.05V627.464H1052.88ZM1060.07 632.688H1058.9V630.115C1058.9 629.747 1058.83 629.479 1058.7 629.31C1058.58 629.141 1058.4 629.056 1058.17 629.056C1058.01 629.056 1057.85 629.097 1057.69 629.179C1057.53 629.26 1057.39 629.374 1057.26 629.52C1057.13 629.66 1057.04 629.823 1056.98 630.01V632.688H1055.81V628.102H1056.87V628.951C1056.98 628.753 1057.13 628.587 1057.31 628.452C1057.49 628.312 1057.7 628.207 1057.93 628.137C1058.17 628.062 1058.42 628.024 1058.69 628.024C1058.97 628.024 1059.21 628.076 1059.39 628.181C1059.57 628.28 1059.71 628.417 1059.81 628.592C1059.91 628.762 1059.97 628.954 1060.01 629.17C1060.05 629.386 1060.07 629.605 1060.07 629.826V632.688ZM1063.58 632.714C1063.28 632.714 1063 632.655 1062.74 632.539C1062.49 632.416 1062.27 632.247 1062.09 632.031C1061.91 631.815 1061.77 631.567 1061.67 631.287C1061.57 631.007 1061.52 630.71 1061.52 630.395C1061.52 630.062 1061.57 629.753 1061.67 629.467C1061.78 629.182 1061.93 628.931 1062.11 628.715C1062.3 628.493 1062.53 628.324 1062.79 628.207C1063.05 628.085 1063.34 628.024 1063.65 628.024C1064.01 628.024 1064.32 628.105 1064.59 628.269C1064.86 628.426 1065.08 628.639 1065.25 628.907V628.102H1066.28V632.469C1066.28 632.924 1066.17 633.312 1065.94 633.633C1065.73 633.959 1065.43 634.207 1065.04 634.376C1064.66 634.551 1064.22 634.639 1063.73 634.639C1063.24 634.639 1062.82 634.554 1062.47 634.385C1062.13 634.222 1061.83 633.988 1061.59 633.685L1062.23 633.064C1062.4 633.28 1062.62 633.449 1062.88 633.571C1063.15 633.694 1063.43 633.755 1063.73 633.755C1063.98 633.755 1064.21 633.708 1064.41 633.615C1064.62 633.528 1064.79 633.388 1064.91 633.195C1065.04 633.008 1065.1 632.766 1065.1 632.469V631.891C1064.95 632.154 1064.74 632.358 1064.46 632.504C1064.18 632.644 1063.89 632.714 1063.58 632.714ZM1063.98 631.777C1064.1 631.777 1064.23 631.757 1064.34 631.716C1064.46 631.675 1064.57 631.62 1064.67 631.55C1064.77 631.48 1064.85 631.398 1064.93 631.305C1065.01 631.206 1065.06 631.107 1065.1 631.007V629.914C1065.03 629.733 1064.94 629.575 1064.81 629.441C1064.68 629.307 1064.54 629.205 1064.39 629.135C1064.24 629.059 1064.08 629.021 1063.91 629.021C1063.73 629.021 1063.56 629.059 1063.42 629.135C1063.27 629.211 1063.14 629.319 1063.04 629.459C1062.93 629.593 1062.85 629.745 1062.79 629.914C1062.74 630.077 1062.72 630.249 1062.72 630.43C1062.72 630.617 1062.75 630.792 1062.81 630.955C1062.88 631.118 1062.96 631.261 1063.07 631.384C1063.19 631.506 1063.33 631.602 1063.48 631.672C1063.63 631.742 1063.8 631.777 1063.98 631.777ZM1074.99 632.688L1072.07 629.59C1071.83 629.327 1071.63 629.103 1071.48 628.916C1071.33 628.724 1071.22 628.549 1071.16 628.391C1071.1 628.234 1071.06 628.065 1071.06 627.884C1071.06 627.586 1071.14 627.327 1071.28 627.105C1071.43 626.877 1071.64 626.702 1071.9 626.58C1072.16 626.457 1072.45 626.396 1072.77 626.396C1073.06 626.396 1073.33 626.449 1073.58 626.554C1073.83 626.653 1074.03 626.805 1074.19 627.009C1074.35 627.213 1074.42 627.467 1074.42 627.77C1074.42 628.044 1074.35 628.292 1074.21 628.514C1074.08 628.735 1073.9 628.94 1073.67 629.126C1073.44 629.313 1073.19 629.494 1072.9 629.669C1072.69 629.803 1072.5 629.934 1072.32 630.062C1072.15 630.191 1072.02 630.328 1071.92 630.474C1071.83 630.614 1071.78 630.768 1071.78 630.937C1071.78 631.101 1071.83 631.252 1071.92 631.392C1072.01 631.532 1072.14 631.646 1072.31 631.734C1072.48 631.815 1072.66 631.856 1072.87 631.856C1073.12 631.856 1073.36 631.795 1073.59 631.672C1073.83 631.55 1074.04 631.378 1074.23 631.156C1074.42 630.929 1074.56 630.657 1074.67 630.342C1074.78 630.027 1074.84 629.675 1074.84 629.284H1075.79C1075.79 629.838 1075.7 630.331 1075.54 630.762C1075.37 631.188 1075.14 631.553 1074.85 631.856C1074.57 632.154 1074.24 632.381 1073.88 632.539C1073.52 632.696 1073.14 632.775 1072.75 632.775C1072.33 632.775 1071.96 632.69 1071.64 632.521C1071.33 632.346 1071.08 632.119 1070.91 631.839C1070.74 631.559 1070.65 631.255 1070.65 630.929C1070.65 630.602 1070.73 630.316 1070.88 630.071C1071.03 629.826 1071.22 629.61 1071.46 629.424C1071.69 629.231 1071.92 629.062 1072.16 628.916C1072.41 628.753 1072.63 628.616 1072.81 628.505C1072.98 628.388 1073.11 628.275 1073.21 628.164C1073.3 628.047 1073.35 627.922 1073.35 627.787C1073.35 627.63 1073.29 627.505 1073.18 627.411C1073.08 627.312 1072.94 627.262 1072.77 627.262C1072.64 627.262 1072.53 627.289 1072.43 627.341C1072.34 627.394 1072.26 627.464 1072.21 627.551C1072.16 627.639 1072.13 627.738 1072.13 627.849C1072.13 627.93 1072.15 628.012 1072.2 628.094C1072.25 628.175 1072.34 628.283 1072.46 628.417C1072.59 628.546 1072.77 628.73 1072.99 628.969L1076.53 632.688H1074.99ZM1085.07 627.534H1083.09V632.688H1081.89V627.534H1079.9V626.475H1085.07V627.534ZM1088.72 629.117C1088.37 629.117 1088.05 629.187 1087.77 629.327C1087.49 629.462 1087.29 629.657 1087.17 629.914V632.688H1085.99V628.102H1087.07V629.082C1087.23 628.767 1087.44 628.52 1087.69 628.339C1087.94 628.158 1088.21 628.059 1088.49 628.041C1088.55 628.041 1088.6 628.041 1088.64 628.041C1088.67 628.041 1088.7 628.044 1088.72 628.05V629.117ZM1089.74 631.331C1089.74 631.034 1089.82 630.774 1089.98 630.552C1090.15 630.325 1090.38 630.15 1090.68 630.027C1090.98 629.905 1091.32 629.844 1091.7 629.844C1091.9 629.844 1092.09 629.858 1092.29 629.887C1092.49 629.917 1092.66 629.963 1092.81 630.027V629.782C1092.81 629.491 1092.72 629.266 1092.54 629.109C1092.38 628.951 1092.12 628.872 1091.78 628.872C1091.53 628.872 1091.29 628.916 1091.07 629.004C1090.84 629.091 1090.6 629.22 1090.35 629.389L1089.97 628.619C1090.28 628.42 1090.58 628.272 1090.9 628.172C1091.22 628.073 1091.56 628.024 1091.91 628.024C1092.56 628.024 1093.07 628.187 1093.43 628.514C1093.8 628.84 1093.98 629.307 1093.98 629.914V631.375C1093.98 631.497 1094 631.585 1094.04 631.637C1094.09 631.69 1094.16 631.722 1094.26 631.734V632.688C1094.15 632.705 1094.06 632.72 1093.97 632.731C1093.89 632.743 1093.82 632.749 1093.76 632.749C1093.53 632.749 1093.35 632.696 1093.23 632.591C1093.11 632.486 1093.04 632.358 1093.01 632.206L1092.98 631.97C1092.78 632.227 1092.54 632.425 1092.24 632.565C1091.94 632.705 1091.64 632.775 1091.33 632.775C1091.03 632.775 1090.75 632.714 1090.51 632.591C1090.27 632.463 1090.08 632.291 1089.94 632.075C1089.8 631.853 1089.74 631.605 1089.74 631.331ZM1092.59 631.567C1092.65 631.497 1092.71 631.427 1092.75 631.357C1092.79 631.287 1092.81 631.223 1092.81 631.165V630.701C1092.67 630.643 1092.52 630.599 1092.35 630.57C1092.19 630.535 1092.03 630.517 1091.89 630.517C1091.59 630.517 1091.33 630.585 1091.14 630.719C1090.94 630.847 1090.85 631.019 1090.85 631.235C1090.85 631.352 1090.88 631.462 1090.94 631.567C1091.01 631.672 1091.1 631.757 1091.22 631.821C1091.35 631.885 1091.49 631.917 1091.66 631.917C1091.84 631.917 1092.01 631.885 1092.18 631.821C1092.35 631.751 1092.48 631.667 1092.59 631.567ZM1095.78 632.688V628.102H1096.95V632.688H1095.78ZM1095.78 627.464V626.3H1096.95V627.464H1095.78ZM1102.97 632.688H1101.79V630.115C1101.79 629.747 1101.73 629.479 1101.6 629.31C1101.47 629.141 1101.3 629.056 1101.07 629.056C1100.91 629.056 1100.75 629.097 1100.59 629.179C1100.43 629.26 1100.29 629.374 1100.16 629.52C1100.03 629.66 1099.94 629.823 1099.88 630.01V632.688H1098.71V628.102H1099.76V628.951C1099.88 628.753 1100.03 628.587 1100.21 628.452C1100.39 628.312 1100.6 628.207 1100.83 628.137C1101.07 628.062 1101.32 628.024 1101.58 628.024C1101.87 628.024 1102.1 628.076 1102.28 628.181C1102.47 628.28 1102.61 628.417 1102.7 628.592C1102.8 628.762 1102.87 628.954 1102.91 629.17C1102.95 629.386 1102.97 629.605 1102.97 629.826V632.688ZM1104.69 632.688V628.102H1105.86V632.688H1104.69ZM1104.69 627.464V626.3H1105.86V627.464H1104.69ZM1111.88 632.688H1110.71V630.115C1110.71 629.747 1110.64 629.479 1110.51 629.31C1110.38 629.141 1110.21 629.056 1109.98 629.056C1109.82 629.056 1109.66 629.097 1109.5 629.179C1109.34 629.26 1109.2 629.374 1109.07 629.52C1108.94 629.66 1108.85 629.823 1108.79 630.01V632.688H1107.62V628.102H1108.68V628.951C1108.79 628.753 1108.94 628.587 1109.12 628.452C1109.3 628.312 1109.51 628.207 1109.74 628.137C1109.98 628.062 1110.23 628.024 1110.5 628.024C1110.78 628.024 1111.01 628.076 1111.2 628.181C1111.38 628.28 1111.52 628.417 1111.62 628.592C1111.71 628.762 1111.78 628.954 1111.82 629.17C1111.86 629.386 1111.88 629.605 1111.88 629.826V632.688ZM1115.39 632.714C1115.09 632.714 1114.81 632.655 1114.55 632.539C1114.3 632.416 1114.08 632.247 1113.9 632.031C1113.71 631.815 1113.57 631.567 1113.48 631.287C1113.38 631.007 1113.33 630.71 1113.33 630.395C1113.33 630.062 1113.38 629.753 1113.48 629.467C1113.59 629.182 1113.73 628.931 1113.92 628.715C1114.11 628.493 1114.34 628.324 1114.6 628.207C1114.86 628.085 1115.15 628.024 1115.46 628.024C1115.82 628.024 1116.13 628.105 1116.4 628.269C1116.67 628.426 1116.89 628.639 1117.06 628.907V628.102H1118.09V632.469C1118.09 632.924 1117.98 633.312 1117.75 633.633C1117.54 633.959 1117.24 634.207 1116.85 634.376C1116.47 634.551 1116.03 634.639 1115.54 634.639C1115.04 634.639 1114.62 634.554 1114.28 634.385C1113.94 634.222 1113.64 633.988 1113.4 633.685L1114.04 633.064C1114.21 633.28 1114.43 633.449 1114.69 633.571C1114.96 633.694 1115.24 633.755 1115.54 633.755C1115.79 633.755 1116.02 633.708 1116.22 633.615C1116.43 633.528 1116.6 633.388 1116.72 633.195C1116.85 633.008 1116.91 632.766 1116.91 632.469V631.891C1116.76 632.154 1116.55 632.358 1116.27 632.504C1115.99 632.644 1115.7 632.714 1115.39 632.714ZM1115.79 631.777C1115.91 631.777 1116.04 631.757 1116.15 631.716C1116.27 631.675 1116.38 631.62 1116.48 631.55C1116.58 631.48 1116.66 631.398 1116.74 631.305C1116.81 631.206 1116.87 631.107 1116.91 631.007V629.914C1116.84 629.733 1116.74 629.575 1116.62 629.441C1116.49 629.307 1116.35 629.205 1116.2 629.135C1116.04 629.059 1115.88 629.021 1115.72 629.021C1115.53 629.021 1115.37 629.059 1115.23 629.135C1115.08 629.211 1114.95 629.319 1114.85 629.459C1114.74 629.593 1114.66 629.745 1114.6 629.914C1114.55 630.077 1114.53 630.249 1114.53 630.43C1114.53 630.617 1114.56 630.792 1114.62 630.955C1114.69 631.118 1114.77 631.261 1114.88 631.384C1115 631.506 1115.13 631.602 1115.29 631.672C1115.44 631.742 1115.61 631.777 1115.79 631.777ZM1122.76 632.688V626.475H1125.39C1125.68 626.475 1125.94 626.533 1126.18 626.65C1126.42 626.767 1126.63 626.924 1126.8 627.122C1126.98 627.321 1127.12 627.542 1127.22 627.787C1127.32 628.032 1127.37 628.283 1127.37 628.54C1127.37 628.89 1127.29 629.222 1127.13 629.537C1126.96 629.852 1126.74 630.109 1126.45 630.307C1126.17 630.506 1125.83 630.605 1125.44 630.605H1123.97V632.688H1122.76ZM1123.97 629.546H1125.37C1125.51 629.546 1125.64 629.505 1125.76 629.424C1125.88 629.342 1125.97 629.225 1126.04 629.074C1126.11 628.916 1126.15 628.738 1126.15 628.54C1126.15 628.324 1126.1 628.14 1126.02 627.989C1125.95 627.837 1125.84 627.723 1125.72 627.647C1125.59 627.572 1125.46 627.534 1125.31 627.534H1123.97V629.546ZM1131.53 629.117C1131.17 629.117 1130.85 629.187 1130.57 629.327C1130.29 629.462 1130.09 629.657 1129.97 629.914V632.688H1128.8V628.102H1129.87V629.082C1130.04 628.767 1130.24 628.52 1130.49 628.339C1130.75 628.158 1131.01 628.059 1131.29 628.041C1131.35 628.041 1131.4 628.041 1131.44 628.041C1131.47 628.041 1131.5 628.044 1131.53 628.05V629.117ZM1134.94 632.775C1134.57 632.775 1134.23 632.714 1133.93 632.591C1133.63 632.463 1133.38 632.288 1133.17 632.066C1132.97 631.845 1132.81 631.591 1132.7 631.305C1132.59 631.019 1132.53 630.719 1132.53 630.404C1132.53 630.083 1132.59 629.78 1132.7 629.494C1132.81 629.208 1132.97 628.954 1133.17 628.732C1133.38 628.511 1133.63 628.339 1133.93 628.216C1134.23 628.088 1134.57 628.024 1134.94 628.024C1135.31 628.024 1135.64 628.088 1135.94 628.216C1136.23 628.339 1136.49 628.511 1136.7 628.732C1136.91 628.954 1137.06 629.208 1137.17 629.494C1137.28 629.78 1137.34 630.083 1137.34 630.404C1137.34 630.719 1137.28 631.019 1137.17 631.305C1137.06 631.591 1136.91 631.845 1136.7 632.066C1136.49 632.288 1136.24 632.463 1135.94 632.591C1135.65 632.714 1135.31 632.775 1134.94 632.775ZM1133.74 630.404C1133.74 630.672 1133.79 630.911 1133.9 631.121C1134 631.325 1134.15 631.486 1134.33 631.602C1134.51 631.719 1134.71 631.777 1134.94 631.777C1135.16 631.777 1135.36 631.719 1135.54 631.602C1135.72 631.48 1135.87 631.317 1135.97 631.112C1136.08 630.902 1136.14 630.663 1136.14 630.395C1136.14 630.132 1136.08 629.896 1135.97 629.686C1135.87 629.476 1135.72 629.313 1135.54 629.196C1135.36 629.08 1135.16 629.021 1134.94 629.021C1134.71 629.021 1134.51 629.082 1134.33 629.205C1134.15 629.322 1134 629.485 1133.9 629.695C1133.79 629.899 1133.74 630.135 1133.74 630.404ZM1140.62 632.714C1140.32 632.714 1140.04 632.655 1139.78 632.539C1139.53 632.416 1139.31 632.247 1139.12 632.031C1138.94 631.815 1138.8 631.567 1138.7 631.287C1138.61 631.007 1138.56 630.71 1138.56 630.395C1138.56 630.062 1138.61 629.753 1138.71 629.467C1138.82 629.182 1138.96 628.931 1139.15 628.715C1139.34 628.493 1139.57 628.324 1139.82 628.207C1140.09 628.085 1140.38 628.024 1140.69 628.024C1141.05 628.024 1141.36 628.105 1141.63 628.269C1141.9 628.426 1142.12 628.639 1142.29 628.907V628.102H1143.32V632.469C1143.32 632.924 1143.21 633.312 1142.98 633.633C1142.77 633.959 1142.47 634.207 1142.08 634.376C1141.7 634.551 1141.26 634.639 1140.77 634.639C1140.27 634.639 1139.85 634.554 1139.51 634.385C1139.17 634.222 1138.87 633.988 1138.63 633.685L1139.26 633.064C1139.44 633.28 1139.66 633.449 1139.92 633.571C1140.19 633.694 1140.47 633.755 1140.77 633.755C1141.02 633.755 1141.25 633.708 1141.45 633.615C1141.66 633.528 1141.83 633.388 1141.95 633.195C1142.08 633.008 1142.14 632.766 1142.14 632.469V631.891C1141.99 632.154 1141.78 632.358 1141.5 632.504C1141.22 632.644 1140.93 632.714 1140.62 632.714ZM1141.01 631.777C1141.14 631.777 1141.27 631.757 1141.38 631.716C1141.5 631.675 1141.61 631.62 1141.71 631.55C1141.81 631.48 1141.89 631.398 1141.97 631.305C1142.04 631.206 1142.1 631.107 1142.14 631.007V629.914C1142.07 629.733 1141.97 629.575 1141.85 629.441C1141.72 629.307 1141.58 629.205 1141.43 629.135C1141.27 629.059 1141.11 629.021 1140.94 629.021C1140.76 629.021 1140.6 629.059 1140.45 629.135C1140.31 629.211 1140.18 629.319 1140.08 629.459C1139.97 629.593 1139.89 629.745 1139.83 629.914C1139.78 630.077 1139.75 630.249 1139.75 630.43C1139.75 630.617 1139.79 630.792 1139.85 630.955C1139.92 631.118 1140 631.261 1140.11 631.384C1140.23 631.506 1140.36 631.602 1140.52 631.672C1140.67 631.742 1140.84 631.777 1141.01 631.777ZM1147.8 629.117C1147.45 629.117 1147.13 629.187 1146.85 629.327C1146.57 629.462 1146.37 629.657 1146.25 629.914V632.688H1145.07V628.102H1146.15V629.082C1146.31 628.767 1146.52 628.52 1146.77 628.339C1147.02 628.158 1147.29 628.059 1147.57 628.041C1147.63 628.041 1147.68 628.041 1147.72 628.041C1147.75 628.041 1147.78 628.044 1147.8 628.05V629.117ZM1148.82 631.331C1148.82 631.034 1148.9 630.774 1149.06 630.552C1149.23 630.325 1149.46 630.15 1149.76 630.027C1150.06 629.905 1150.4 629.844 1150.78 629.844C1150.98 629.844 1151.17 629.858 1151.37 629.887C1151.57 629.917 1151.74 629.963 1151.89 630.027V629.782C1151.89 629.491 1151.8 629.266 1151.62 629.109C1151.46 628.951 1151.2 628.872 1150.86 628.872C1150.61 628.872 1150.37 628.916 1150.15 629.004C1149.92 629.091 1149.68 629.22 1149.43 629.389L1149.05 628.619C1149.36 628.42 1149.66 628.272 1149.98 628.172C1150.3 628.073 1150.64 628.024 1150.99 628.024C1151.64 628.024 1152.15 628.187 1152.51 628.514C1152.88 628.84 1153.06 629.307 1153.06 629.914V631.375C1153.06 631.497 1153.08 631.585 1153.12 631.637C1153.17 631.69 1153.24 631.722 1153.34 631.734V632.688C1153.23 632.705 1153.14 632.72 1153.05 632.731C1152.97 632.743 1152.9 632.749 1152.84 632.749C1152.61 632.749 1152.43 632.696 1152.31 632.591C1152.19 632.486 1152.12 632.358 1152.09 632.206L1152.06 631.97C1151.86 632.227 1151.62 632.425 1151.32 632.565C1151.02 632.705 1150.72 632.775 1150.41 632.775C1150.11 632.775 1149.83 632.714 1149.59 632.591C1149.35 632.463 1149.16 632.291 1149.02 632.075C1148.88 631.853 1148.82 631.605 1148.82 631.331ZM1151.67 631.567C1151.73 631.497 1151.79 631.427 1151.83 631.357C1151.87 631.287 1151.89 631.223 1151.89 631.165V630.701C1151.75 630.643 1151.6 630.599 1151.43 630.57C1151.27 630.535 1151.11 630.517 1150.97 630.517C1150.67 630.517 1150.41 630.585 1150.22 630.719C1150.02 630.847 1149.93 631.019 1149.93 631.235C1149.93 631.352 1149.96 631.462 1150.02 631.567C1150.09 631.672 1150.18 631.757 1150.3 631.821C1150.43 631.885 1150.57 631.917 1150.74 631.917C1150.92 631.917 1151.09 631.885 1151.26 631.821C1151.43 631.751 1151.56 631.667 1151.67 631.567ZM1161.98 632.688H1160.81V630.115C1160.81 629.753 1160.74 629.488 1160.61 629.319C1160.49 629.144 1160.32 629.056 1160.1 629.056C1159.87 629.056 1159.65 629.147 1159.44 629.327C1159.24 629.502 1159.09 629.733 1159 630.019V632.688H1157.83V630.115C1157.83 629.747 1157.77 629.479 1157.64 629.31C1157.52 629.141 1157.34 629.056 1157.12 629.056C1156.89 629.056 1156.68 629.144 1156.47 629.319C1156.26 629.494 1156.12 629.724 1156.03 630.01V632.688H1154.86V628.102H1155.91V628.951C1156.09 628.654 1156.32 628.426 1156.61 628.269C1156.91 628.105 1157.24 628.024 1157.62 628.024C1158 628.024 1158.29 628.117 1158.5 628.304C1158.72 628.49 1158.86 628.721 1158.92 628.995C1159.1 628.68 1159.34 628.441 1159.62 628.277C1159.92 628.108 1160.24 628.024 1160.6 628.024C1160.89 628.024 1161.12 628.076 1161.3 628.181C1161.48 628.28 1161.62 628.417 1161.72 628.592C1161.81 628.762 1161.88 628.954 1161.92 629.17C1161.96 629.386 1161.98 629.605 1161.98 629.826V632.688Z" fill="white"/>
<mask id="path-4-inside-1_1009_2542" fill="white">
<path fill-rule="evenodd" clip-rule="evenodd" d="M1019.06 595.503C1018.53 594.616 1018.4 593.422 1018.91 592.142C1019.82 590.288 1020.97 589.665 1022.15 589.024C1023.68 588.196 1025.26 587.337 1026.46 583.75C1027.68 585.771 1028.6 589.754 1026.82 593.061C1025.53 595.45 1023.85 596.615 1022.59 596.92C1021.53 597.174 1020.55 596.939 1019.83 596.38L1024.93 590.632L1019.06 595.503Z"/>
</mask>
<path fill-rule="evenodd" clip-rule="evenodd" d="M1019.06 595.503C1018.53 594.616 1018.4 593.422 1018.91 592.142C1019.82 590.288 1020.97 589.665 1022.15 589.024C1023.68 588.196 1025.26 587.337 1026.46 583.75C1027.68 585.771 1028.6 589.754 1026.82 593.061C1025.53 595.45 1023.85 596.615 1022.59 596.92C1021.53 597.174 1020.55 596.939 1019.83 596.38L1024.93 590.632L1019.06 595.503Z" fill="white"/>
<path d="M1018.91 592.142L1018.62 592.029L1018.62 592.018L1018.63 592.006L1018.91 592.142ZM1019.06 595.503L1019.25 595.74L1018.97 595.97L1018.79 595.66L1019.06 595.503ZM1022.15 589.024L1022 588.753L1022.15 589.024ZM1026.46 583.75L1026.16 583.652L1026.37 583.019L1026.72 583.59L1026.46 583.75ZM1026.82 593.061L1027.09 593.207L1027.09 593.208L1026.82 593.061ZM1022.59 596.92L1022.52 596.62H1022.52L1022.59 596.92ZM1019.83 596.38L1019.64 596.624L1019.38 596.422L1019.6 596.175L1019.83 596.38ZM1024.93 590.632L1024.73 590.395L1025.16 590.837L1024.93 590.632ZM1019.19 592.255C1018.72 593.454 1018.85 594.548 1019.32 595.345L1018.79 595.66C1018.21 594.684 1018.08 593.389 1018.62 592.029L1019.19 592.255ZM1022.29 589.295C1021.12 589.929 1020.05 590.514 1019.18 592.278L1018.63 592.006C1019.58 590.062 1020.81 589.401 1022 588.753L1022.29 589.295ZM1026.75 583.848C1026.14 585.673 1025.42 586.828 1024.65 587.635C1023.88 588.44 1023.06 588.882 1022.29 589.295L1022 588.753C1022.77 588.338 1023.5 587.936 1024.2 587.208C1024.9 586.482 1025.58 585.413 1026.16 583.652L1026.75 583.848ZM1026.55 592.915C1028.26 589.731 1027.38 585.868 1026.19 583.91L1026.72 583.59C1027.98 585.674 1028.94 589.776 1027.09 593.207L1026.55 592.915ZM1022.52 596.62C1023.67 596.341 1025.29 595.247 1026.55 592.915L1027.09 593.208C1025.77 595.653 1024.03 596.89 1022.66 597.22L1022.52 596.62ZM1020.02 596.135C1020.67 596.636 1021.55 596.853 1022.52 596.62L1022.66 597.22C1021.52 597.495 1020.44 597.242 1019.64 596.624L1020.02 596.135ZM1019.6 596.175L1024.7 590.428L1025.16 590.837L1020.06 596.584L1019.6 596.175ZM1025.13 590.87L1019.25 595.74L1018.86 595.265L1024.73 590.395L1025.13 590.87Z" fill="white" mask="url(#path-4-inside-1_1009_2542)"/>
<mask id="path-6-inside-2_1009_2542" fill="white">
<path fill-rule="evenodd" clip-rule="evenodd" d="M1017.82 595.503C1018.35 594.616 1018.47 593.422 1017.97 592.142C1017.06 590.288 1015.91 589.665 1014.73 589.024C1013.2 588.196 1011.61 587.337 1010.42 583.75C1009.2 585.771 1008.28 589.754 1010.06 593.061C1011.34 595.45 1013.02 596.615 1014.29 596.92C1015.34 597.174 1016.32 596.939 1017.05 596.38L1011.95 590.632L1017.82 595.503Z"/>
</mask>
<path fill-rule="evenodd" clip-rule="evenodd" d="M1017.82 595.503C1018.35 594.616 1018.47 593.422 1017.97 592.142C1017.06 590.288 1015.91 589.665 1014.73 589.024C1013.2 588.196 1011.61 587.337 1010.42 583.75C1009.2 585.771 1008.28 589.754 1010.06 593.061C1011.34 595.45 1013.02 596.615 1014.29 596.92C1015.34 597.174 1016.32 596.939 1017.05 596.38L1011.95 590.632L1017.82 595.503Z" fill="white"/>
<path d="M1017.97 592.142L1018.26 592.029L1018.25 592.018L1018.25 592.006L1017.97 592.142ZM1017.82 595.503L1017.62 595.74L1017.9 595.97L1018.08 595.66L1017.82 595.503ZM1014.73 589.024L1014.87 588.753L1014.73 589.024ZM1010.42 583.75L1010.71 583.652L1010.5 583.019L1010.16 583.59L1010.42 583.75ZM1010.06 593.061L1009.79 593.207L1009.79 593.208L1010.06 593.061ZM1014.29 596.92L1014.36 596.62H1014.36L1014.29 596.92ZM1017.05 596.38L1017.23 596.624L1017.5 596.422L1017.28 596.175L1017.05 596.38ZM1011.95 590.632L1012.14 590.395L1011.72 590.837L1011.95 590.632ZM1017.68 592.255C1018.16 593.454 1018.03 594.548 1017.55 595.345L1018.08 595.66C1018.66 594.684 1018.79 593.389 1018.26 592.029L1017.68 592.255ZM1014.58 589.295C1015.75 589.929 1016.83 590.514 1017.69 592.278L1018.25 592.006C1017.29 590.062 1016.07 589.401 1014.87 588.753L1014.58 589.295ZM1010.13 583.848C1010.74 585.673 1011.45 586.828 1012.23 587.635C1013 588.44 1013.82 588.882 1014.58 589.295L1014.87 588.753C1014.11 588.338 1013.37 587.936 1012.67 587.208C1011.97 586.482 1011.3 585.413 1010.71 583.652L1010.13 583.848ZM1010.33 592.915C1008.61 589.731 1009.5 585.868 1010.68 583.91L1010.16 583.59C1008.89 585.674 1007.94 589.776 1009.79 593.207L1010.33 592.915ZM1014.36 596.62C1013.2 596.341 1011.59 595.247 1010.33 592.915L1009.79 593.208C1011.1 595.653 1012.85 596.89 1014.22 597.22L1014.36 596.62ZM1016.86 596.135C1016.21 596.636 1015.33 596.853 1014.36 596.62L1014.22 597.22C1015.36 597.495 1016.43 597.242 1017.23 596.624L1016.86 596.135ZM1017.28 596.175L1012.18 590.428L1011.72 590.837L1016.82 596.584L1017.28 596.175ZM1011.75 590.87L1017.62 595.74L1018.02 595.265L1012.14 590.395L1011.75 590.87Z" fill="white" mask="url(#path-6-inside-2_1009_2542)"/>
<line x1="987.812" y1="631.875" x2="1015.31" y2="631.875" stroke="white" stroke-width="1.875" stroke-linecap="round"/>
<mask id="path-9-inside-3_1009_2542" fill="white">
<path fill-rule="evenodd" clip-rule="evenodd" d="M65.1812 79.7407C63.8347 77.461 63.5069 74.3914 64.7978 71.1031C67.1279 66.3365 70.07 64.7351 73.0974 63.0872C77.0104 60.9573 81.0659 58.7497 84.1267 49.5295C87.2561 54.7242 89.6156 64.9625 85.0546 73.4649C81.7567 79.6056 77.4616 82.6007 74.2232 83.3844C71.52 84.0386 69.0167 83.433 67.1618 81.9949L80.2168 67.2215L65.1812 79.7407Z"/>
</mask>
<path fill-rule="evenodd" clip-rule="evenodd" d="M65.1812 79.7407C63.8347 77.461 63.5069 74.3914 64.7978 71.1031C67.1279 66.3365 70.07 64.7351 73.0974 63.0872C77.0104 60.9573 81.0659 58.7497 84.1267 49.5295C87.2561 54.7242 89.6156 64.9625 85.0546 73.4649C81.7567 79.6056 77.4616 82.6007 74.2232 83.3844C71.52 84.0386 69.0167 83.433 67.1618 81.9949L80.2168 67.2215L65.1812 79.7407Z" fill="url(#paint0_linear_1009_2542)"/>
<path d="M64.7978 71.1031L64.0614 70.8141L64.073 70.7844L64.087 70.7557L64.7978 71.1031ZM65.1812 79.7407L65.6874 80.3486L64.9729 80.9436L64.5001 80.143L65.1812 79.7407ZM73.0974 63.0872L72.7192 62.3923L73.0974 63.0872ZM84.1267 49.5295L83.3759 49.2803L83.9174 47.649L84.8043 49.1213L84.1267 49.5295ZM85.0546 73.4649L85.7518 73.8389L85.7516 73.8392L85.0546 73.4649ZM74.2232 83.3844L74.0371 82.6155H74.0371L74.2232 83.3844ZM67.1618 81.9949L66.6771 82.6201L66.0103 82.1032L66.569 81.471L67.1618 81.9949ZM80.2168 67.2215L79.7106 66.6136L80.8096 67.7454L80.2168 67.2215ZM65.5342 71.3922C64.324 74.475 64.6509 77.2873 65.8624 79.3384L64.5001 80.143C63.0186 77.6348 62.6899 74.3078 64.0614 70.8141L65.5342 71.3922ZM73.4756 63.782C70.4806 65.4123 67.7257 66.9149 65.5085 71.4506L64.087 70.7557C66.5301 65.7581 69.6594 64.0578 72.7192 62.3923L73.4756 63.782ZM84.8775 49.7788C83.3195 54.472 81.4882 57.4397 79.5032 59.5141C77.5228 61.5839 75.4287 62.7189 73.4756 63.782L72.7192 62.3923C74.6791 61.3255 76.5693 60.2918 78.36 58.4203C80.1463 56.5535 81.8731 53.8073 83.3759 49.2803L84.8775 49.7788ZM84.3575 73.091C88.7484 64.9056 86.4817 54.9717 83.449 49.9378L84.8043 49.1213C88.0306 54.4767 90.4828 65.0194 85.7518 73.8389L84.3575 73.091ZM74.0371 82.6155C77.0049 81.8973 81.138 79.0856 84.3577 73.0906L85.7516 73.8392C82.3755 80.1255 77.9183 83.3041 74.4093 84.1533L74.0371 82.6155ZM67.6465 81.3697C69.3064 82.6566 71.5616 83.2146 74.0371 82.6155L74.4093 84.1533C71.4785 84.8626 68.7271 84.2095 66.6771 82.6201L67.6465 81.3697ZM66.569 81.471L79.624 66.6977L80.8096 67.7454L67.7546 82.5187L66.569 81.471ZM80.723 67.8295L65.6874 80.3486L64.675 79.1327L79.7106 66.6136L80.723 67.8295Z" fill="#139D3D" fill-opacity="0.47" mask="url(#path-9-inside-3_1009_2542)"/>
<mask id="path-11-inside-4_1009_2542" fill="white">
<path fill-rule="evenodd" clip-rule="evenodd" d="M62.0178 79.7415C63.3645 77.4618 63.6923 74.392 62.4014 71.1036C60.0713 66.337 57.1292 64.7355 54.1018 63.0877C50.1888 60.9577 46.1333 58.7502 43.0725 49.53C39.9431 54.7247 37.5837 64.963 42.1446 73.4654C45.4425 79.606 49.7376 82.6012 52.976 83.3849C55.679 84.039 58.1822 83.4336 60.037 81.9957L46.9816 67.2218L62.0178 79.7415Z"/>
</mask>
<path fill-rule="evenodd" clip-rule="evenodd" d="M62.0178 79.7415C63.3645 77.4618 63.6923 74.392 62.4014 71.1036C60.0713 66.337 57.1292 64.7355 54.1018 63.0877C50.1888 60.9577 46.1333 58.7502 43.0725 49.53C39.9431 54.7247 37.5837 64.963 42.1446 73.4654C45.4425 79.606 49.7376 82.6012 52.976 83.3849C55.679 84.039 58.1822 83.4336 60.037 81.9957L46.9816 67.2218L62.0178 79.7415Z" fill="url(#paint1_linear_1009_2542)"/>
<path d="M62.4014 71.1036L63.1378 70.8146L63.1262 70.7849L63.1122 70.7562L62.4014 71.1036ZM62.0178 79.7415L61.5116 80.3495L62.2261 80.9444L62.6989 80.1439L62.0178 79.7415ZM54.1018 63.0877L54.48 62.3928L54.1018 63.0877ZM43.0725 49.53L43.8233 49.2808L43.2818 47.6495L42.3949 49.1218L43.0725 49.53ZM42.1446 73.4654L41.4475 73.8394L41.4476 73.8397L42.1446 73.4654ZM52.976 83.3849L53.1621 82.616H53.1621L52.976 83.3849ZM60.037 81.9957L60.5217 82.6209L61.1885 82.104L60.6298 81.4718L60.037 81.9957ZM46.9816 67.2218L47.4878 66.6138L46.3888 67.7457L46.9816 67.2218ZM61.665 71.3927C62.8753 74.4756 62.5483 77.288 61.3366 79.3391L62.6989 80.1439C64.1806 77.6356 64.5094 74.3084 63.1378 70.8146L61.665 71.3927ZM53.7236 63.7825C56.7186 65.4128 59.4735 66.9154 61.6907 71.4511L63.1122 70.7562C60.6691 65.7586 57.5398 64.0583 54.48 62.3928L53.7236 63.7825ZM42.3217 49.7793C43.8797 54.4725 45.7111 57.4402 47.696 59.5146C49.6764 61.5844 51.7705 62.7194 53.7236 63.7825L54.48 62.3928C52.5201 61.326 50.6299 60.2923 48.8392 58.4208C47.0529 56.5539 45.3261 53.8078 43.8233 49.2808L42.3217 49.7793ZM42.8417 73.0914C38.4509 64.9061 40.7175 54.9722 43.7502 49.9383L42.3949 49.1218C39.1686 54.4772 36.7165 65.0199 41.4475 73.8394L42.8417 73.0914ZM53.1621 82.616C50.1944 81.8978 46.0612 79.0861 42.8416 73.0911L41.4476 73.8397C44.8237 80.126 49.2809 83.3046 52.7899 84.1538L53.1621 82.616ZM59.5523 81.3704C57.8925 82.6571 55.6374 83.215 53.1621 82.616L52.7899 84.1538C55.7206 84.863 58.4718 84.2101 60.5217 82.6209L59.5523 81.3704ZM60.6298 81.4718L47.5744 66.6979L46.3888 67.7457L59.4442 82.5195L60.6298 81.4718ZM46.4754 67.8298L61.5116 80.3495L62.524 79.1336L47.4878 66.6138L46.4754 67.8298Z" fill="#139D3D" fill-opacity="0.47" mask="url(#path-11-inside-4_1009_2542)"/>
<path d="M53.6982 54.9916C52.8462 54.9916 52.0707 54.8277 51.3717 54.5001C50.6836 54.1724 50.0883 53.73 49.5858 53.173C49.0943 52.605 48.712 51.9715 48.439 51.2725C48.1659 50.5625 48.0294 49.8361 48.0294 49.0934C48.0294 48.3179 48.1714 47.5806 48.4554 46.8816C48.7503 46.1716 49.1489 45.5436 49.6514 44.9975C50.1647 44.4404 50.7655 44.0035 51.4536 43.6867C52.1526 43.3591 52.9172 43.1952 53.7473 43.1952C54.5884 43.1952 55.353 43.3645 56.0411 43.7031C56.7401 44.0417 57.3354 44.495 57.8269 45.063C58.3184 45.631 58.7007 46.2645 58.9738 46.9635C59.2468 47.6626 59.3834 48.3834 59.3834 49.1262C59.3834 49.8908 59.2414 50.628 58.9574 51.338C58.6734 52.037 58.2747 52.6651 57.7614 53.2221C57.2589 53.7683 56.6582 54.1997 55.9592 54.5165C55.271 54.8332 54.5174 54.9916 53.6982 54.9916ZM50.3231 49.0934C50.3231 49.5958 50.3996 50.0819 50.5525 50.5516C50.7054 51.0212 50.9239 51.4418 51.2078 51.8131C51.5028 52.1736 51.8577 52.463 52.2728 52.6815C52.6988 52.889 53.1794 52.9928 53.7146 52.9928C54.2607 52.9928 54.7468 52.8835 55.1727 52.6651C55.5987 52.4357 55.9537 52.1353 56.2377 51.764C56.5217 51.3817 56.7347 50.9612 56.8766 50.5024C57.0296 50.0327 57.106 49.5631 57.106 49.0934C57.106 48.591 57.0241 48.1104 56.8603 47.6516C56.7073 47.182 56.4834 46.7669 56.1885 46.4065C55.9045 46.0351 55.5496 45.7456 55.1236 45.5381C54.7085 45.3197 54.2389 45.2104 53.7146 45.2104C53.1575 45.2104 52.666 45.3251 52.24 45.5545C51.825 45.773 51.4754 46.0679 51.1915 46.4392C50.9075 46.8106 50.689 47.2257 50.5361 47.6844C50.3941 48.1431 50.3231 48.6128 50.3231 49.0934ZM61.1178 54.9097V43.2772H63.3787V52.9272H69.3097V54.9097H61.1178ZM77.616 46.3245C77.5396 46.2481 77.3976 46.1443 77.19 46.0133C76.9934 45.8822 76.7477 45.7566 76.4528 45.6364C76.1688 45.5163 75.8575 45.4125 75.5189 45.3251C75.1803 45.2268 74.8362 45.1777 74.4867 45.1777C73.875 45.1777 73.4108 45.2924 73.0941 45.5217C72.7882 45.7511 72.6353 46.0733 72.6353 46.4884C72.6353 46.8051 72.7336 47.0564 72.9302 47.242C73.1268 47.4277 73.4217 47.5861 73.815 47.7172C74.2082 47.8482 74.6997 47.9902 75.2895 48.1431C76.0541 48.3288 76.7149 48.5582 77.2719 48.8313C77.8399 49.0934 78.2714 49.4429 78.5663 49.8798C78.8721 50.3058 79.025 50.8738 79.025 51.5838C79.025 52.2063 78.9103 52.7415 78.681 53.1894C78.4516 53.6263 78.1348 53.9813 77.7307 54.2543C77.3266 54.5274 76.8678 54.7294 76.3545 54.8605C75.8411 54.9807 75.295 55.0407 74.7161 55.0407C74.1372 55.0407 73.5583 54.9807 72.9794 54.8605C72.4005 54.7404 71.8434 54.5711 71.3082 54.3526C70.773 54.1232 70.2815 53.8502 69.8337 53.5334L70.8331 51.5838C70.9314 51.6821 71.1062 51.8131 71.3574 51.977C71.6086 52.1299 71.9144 52.2883 72.2749 52.4521C72.6353 52.605 73.0285 52.7361 73.4545 52.8453C73.8805 52.9545 74.3119 53.0091 74.7488 53.0091C75.3605 53.0091 75.8247 52.9054 76.1415 52.6979C76.4582 52.4903 76.6166 52.1954 76.6166 51.8131C76.6166 51.4636 76.491 51.1905 76.2398 50.9939C75.9885 50.7973 75.639 50.628 75.1912 50.486C74.7434 50.3331 74.2136 50.1693 73.602 49.9945C72.8702 49.787 72.2585 49.5576 71.767 49.3064C71.2755 49.0443 70.9096 48.7166 70.6693 48.3234C70.429 47.9302 70.3088 47.4386 70.3088 46.8488C70.3088 46.0515 70.4945 45.3852 70.8659 44.85C71.2482 44.3039 71.7615 43.8943 72.406 43.6212C73.0504 43.3372 73.7658 43.1952 74.5522 43.1952C75.0984 43.1952 75.6117 43.2553 76.0923 43.3755C76.5838 43.4956 77.0426 43.654 77.4686 43.8506C77.8945 44.0472 78.2768 44.2602 78.6154 44.4896L77.616 46.3245Z" fill="url(#paint2_linear_1009_2542)"/>
<path d="M51.3717 54.5001L51.1676 54.9286L51.1702 54.9299L51.3717 54.5001ZM49.5858 53.173L49.2268 53.4837L49.2334 53.4909L49.5858 53.173ZM48.439 51.2725L47.9959 51.4429L47.9968 51.4452L48.439 51.2725ZM48.4554 46.8816L48.017 46.6995L48.0156 46.7029L48.4554 46.8816ZM49.6514 44.9975L49.3023 44.6758L49.3021 44.6761L49.6514 44.9975ZM51.4536 43.6867L51.6521 44.1179L51.6551 44.1165L51.4536 43.6867ZM56.0411 43.7031L55.8315 44.129L55.8342 44.1303L56.0411 43.7031ZM57.8269 45.063L57.468 45.3736L57.468 45.3736L57.8269 45.063ZM58.9738 46.9635L59.4159 46.7908L58.9738 46.9635ZM58.9574 51.338L59.3972 51.5167L59.3981 51.5143L58.9574 51.338ZM57.7614 53.2221L57.4123 52.9005L57.4121 52.9008L57.7614 53.2221ZM55.9592 54.5165L55.7632 54.0841L55.7607 54.0853L55.9592 54.5165ZM50.5525 50.5516L50.1011 50.6985H50.1011L50.5525 50.5516ZM51.2078 51.8131L50.8308 52.1015L50.8355 52.1077L50.8405 52.1137L51.2078 51.8131ZM52.2728 52.6815L52.0517 53.1015L52.0583 53.105L52.0649 53.1082L52.2728 52.6815ZM55.1727 52.6651L55.3894 53.0875L55.3978 53.083L55.1727 52.6651ZM56.2377 51.764L56.6148 52.0523L56.6187 52.047L56.2377 51.764ZM56.8766 50.5024L56.4253 50.3555L56.4232 50.3621L56.8766 50.5024ZM56.8603 47.6516L56.4087 47.7986L56.4133 47.8113L56.8603 47.6516ZM56.1885 46.4065L55.8115 46.6948L55.8162 46.701L55.8212 46.707L56.1885 46.4065ZM55.1236 45.5381L54.9025 45.9582L54.909 45.9616L54.9157 45.9648L55.1236 45.5381ZM52.24 45.5545L52.4611 45.9746L52.4651 45.9724L52.24 45.5545ZM51.1915 46.4392L50.8144 46.1509H50.8144L51.1915 46.4392ZM50.5361 47.6844L50.0857 47.5343L50.0827 47.5441L50.5361 47.6844ZM53.6982 54.5169C52.9086 54.5169 52.2029 54.3655 51.5731 54.0703L51.1702 54.9299C51.9386 55.29 52.7839 55.4663 53.6982 55.4663V54.5169ZM51.5758 54.0715C50.943 53.7702 50.3984 53.3651 49.9383 52.8551L49.2334 53.4909C49.7782 54.095 50.4242 54.5746 51.1676 54.9286L51.5758 54.0715ZM49.9448 52.8624C49.4886 52.3353 49.1345 51.7484 48.8811 51.0998L47.9968 51.4452C48.2896 52.1946 48.7 52.8748 49.2269 53.4836L49.9448 52.8624ZM48.882 51.1021C48.6293 50.4451 48.504 49.7765 48.504 49.0934H47.5547C47.5547 49.8958 47.7025 50.6799 47.996 51.4429L48.882 51.1021ZM48.504 49.0934C48.504 48.3774 48.6348 47.701 48.8951 47.0602L48.0156 46.7029C47.7079 47.4603 47.5547 48.2584 47.5547 49.0934H48.504ZM48.8937 47.0637C49.1681 46.4031 49.5372 45.8226 50.0007 45.3188L49.3021 44.6761C48.7607 45.2645 48.3324 45.9401 48.017 46.6995L48.8937 47.0637ZM50.0004 45.3191C50.4713 44.8082 51.0209 44.4085 51.6521 44.1179L51.2551 43.2556C50.5101 43.5985 49.8582 44.0726 49.3023 44.6758L50.0004 45.3191ZM51.6551 44.1165C52.2864 43.8206 52.9815 43.6699 53.7473 43.6699V42.7206C52.8529 42.7206 52.0189 42.8975 51.2521 43.257L51.6551 44.1165ZM53.7473 43.6699C54.5228 43.6699 55.2147 43.8255 55.8315 44.129L56.2506 43.2772C55.4912 42.9035 54.6539 42.7206 53.7473 42.7206V43.6699ZM55.8342 44.1303C56.4772 44.4418 57.0201 44.8561 57.468 45.3736L58.1858 44.7524C57.6507 44.1339 57.0031 43.6417 56.248 43.2759L55.8342 44.1303ZM57.468 45.3736C57.9241 45.9007 58.2783 46.4876 58.5316 47.1362L59.4159 46.7908C59.1232 46.0413 58.7127 45.3612 58.1858 44.7524L57.468 45.3736ZM58.5316 47.1362C58.7834 47.7808 58.9087 48.4432 58.9087 49.1262H59.858C59.858 48.3237 59.7102 47.5443 59.4159 46.7908L58.5316 47.1362ZM58.9087 49.1262C58.9087 49.8304 58.7782 50.5078 58.5167 51.1617L59.3981 51.5143C59.7045 50.7483 59.858 49.9511 59.858 49.1262H58.9087ZM58.5176 51.1593C58.2552 51.8054 57.8873 52.3851 57.4123 52.9005L58.1104 53.5438C58.6622 52.9451 59.0917 52.2686 59.3972 51.5166L58.5176 51.1593ZM57.4121 52.9008C56.9543 53.3984 56.4062 53.7927 55.7632 54.0841L56.1551 54.9488C56.9101 54.6067 57.5636 54.1382 58.1107 53.5435L57.4121 52.9008ZM55.7607 54.0853C55.1397 54.3711 54.4545 54.5169 53.6982 54.5169V55.4663C54.5802 55.4663 55.4023 55.2953 56.1576 54.9476L55.7607 54.0853ZM49.8485 49.0934C49.8485 49.6449 49.9325 50.1806 50.1011 50.6985L51.0038 50.4046C50.8666 49.9832 50.7978 49.5468 50.7978 49.0934H49.8485ZM50.1011 50.6985C50.2697 51.2163 50.5124 51.6851 50.8308 52.1015L51.5849 51.5248C51.3353 51.1984 51.1411 50.8262 51.0038 50.4046L50.1011 50.6985ZM50.8405 52.1137C51.1759 52.5237 51.5808 52.8537 52.0517 53.1015L52.4939 52.2614C52.1347 52.0724 51.8296 51.8234 51.5752 51.5125L50.8405 52.1137ZM52.0649 53.1082C52.5636 53.3511 53.1167 53.4674 53.7146 53.4674V52.5181C53.242 52.5181 52.834 52.4269 52.4807 52.2547L52.0649 53.1082ZM53.7146 53.4674C54.3253 53.4674 54.8874 53.3448 55.3893 53.0875L54.9561 52.2427C54.6061 52.4222 54.196 52.5181 53.7146 52.5181V53.4674ZM55.3978 53.083C55.8809 52.8229 56.2884 52.479 56.6147 52.0523L55.8606 51.4756C55.619 51.7916 55.3165 52.0486 54.9477 52.2472L55.3978 53.083ZM56.6187 52.047C56.935 51.6212 57.1723 51.1524 57.3301 50.6428L56.4232 50.3621C56.297 50.7699 56.1083 51.1421 55.8566 51.4809L56.6187 52.047ZM57.328 50.6494C57.4956 50.1347 57.5807 49.6155 57.5807 49.0934H56.6314C56.6314 49.5106 56.5636 49.9308 56.4253 50.3555L57.328 50.6494ZM57.5807 49.0934C57.5807 48.5383 57.49 48.0036 57.3073 47.492L56.4133 47.8113C56.5582 48.2172 56.6314 48.6436 56.6314 49.0934H57.5807ZM57.3116 47.5047C57.1416 46.9825 56.8903 46.5146 56.5559 46.1059L55.8212 46.707C56.0766 47.0192 56.2731 47.3815 56.4089 47.7986L57.3116 47.5047ZM56.5656 46.1181C56.2361 45.6873 55.8229 45.3508 55.3315 45.1114L54.9157 45.9648C55.2762 46.1405 55.573 46.3829 55.8115 46.6948L56.5656 46.1181ZM55.3447 45.1181C54.8537 44.8597 54.3067 44.7358 53.7146 44.7358V45.6851C54.171 45.6851 54.5633 45.7796 54.9025 45.9582L55.3447 45.1181ZM53.7146 44.7358C53.091 44.7358 52.52 44.8647 52.015 45.1366L52.4651 45.9724C52.812 45.7856 53.2241 45.6851 53.7146 45.6851V44.7358ZM52.019 45.1345C51.5432 45.3849 51.1404 45.7246 50.8144 46.1509L51.5685 46.7276C51.8105 46.4111 52.1068 46.161 52.4611 45.9745L52.019 45.1345ZM50.8144 46.1509C50.4974 46.5654 50.2547 47.0275 50.0858 47.5343L50.9864 47.8345C51.1233 47.4238 51.3175 47.0558 51.5685 46.7276L50.8144 46.1509ZM50.0827 47.5441C49.9266 48.0483 49.8485 48.5653 49.8485 49.0934H50.7978C50.7978 48.6604 50.8616 48.238 50.9895 47.8248L50.0827 47.5441ZM61.1178 54.9097H60.6431V55.3843H61.1178V54.9097ZM61.1178 43.2772V42.8025H60.6431V43.2772H61.1178ZM63.3787 43.2772H63.8534V42.8025H63.3787V43.2772ZM63.3787 52.9272H62.9041V53.4019H63.3787V52.9272ZM69.3097 52.9272H69.7843V52.4526H69.3097V52.9272ZM69.3097 54.9097V55.3843H69.7843V54.9097H69.3097ZM61.5924 54.9097V43.2772H60.6431V54.9097H61.5924ZM61.1178 43.7518H63.3787V42.8025H61.1178V43.7518ZM62.9041 43.2772V52.9272H63.8534V43.2772H62.9041ZM63.3787 53.4019H69.3097V52.4526H63.3787V53.4019ZM68.835 52.9272V54.9097H69.7843V52.9272H68.835ZM69.3097 54.435H61.1178V55.3843H69.3097V54.435ZM77.616 46.3245L77.2804 46.6602L77.7292 47.109L78.0329 46.5516L77.616 46.3245ZM77.19 46.0133L76.9267 46.4083L76.9366 46.4146L77.19 46.0133ZM76.4528 45.6364L76.2678 46.0736L76.2737 46.076L76.4528 45.6364ZM75.5189 45.3251L75.3865 45.781L75.3934 45.783L75.4003 45.7847L75.5189 45.3251ZM73.0941 45.5217L72.8156 45.1372L72.8093 45.142L73.0941 45.5217ZM73.815 47.7172L73.6649 48.1675L73.815 47.7172ZM75.2895 48.1431L75.1704 48.6027L75.1775 48.6044L75.2895 48.1431ZM77.2719 48.8313L77.063 49.2576L77.073 49.2622L77.2719 48.8313ZM78.5663 49.8798L78.1727 50.1455L78.1807 50.1567L78.5663 49.8798ZM78.681 53.1894L79.1012 53.41L79.1034 53.4058L78.681 53.1894ZM76.3545 54.8605L76.4626 55.3228L76.4719 55.3204L76.3545 54.8605ZM71.3082 54.3526L71.1212 54.789L71.1289 54.7921L71.3082 54.3526ZM69.8337 53.5334L69.4113 53.3169L69.2235 53.6832L69.5596 53.921L69.8337 53.5334ZM70.8331 51.5838L71.1687 51.2481L70.708 50.7873L70.4107 51.3672L70.8331 51.5838ZM71.3574 51.977L71.0981 52.3745L71.1043 52.3786L71.1106 52.3824L71.3574 51.977ZM72.2749 52.4521L72.0784 52.8844L72.0895 52.8891L72.2749 52.4521ZM73.4545 52.8453L73.3366 53.3051L73.4545 52.8453ZM76.1415 52.6979L75.8813 52.3008L76.1415 52.6979ZM75.1912 50.486L75.0378 50.9353L75.0477 50.9385L75.1912 50.486ZM73.602 49.9945L73.7324 49.5381L73.7315 49.5379L73.602 49.9945ZM71.767 49.3064L71.5436 49.7253L71.551 49.7291L71.767 49.3064ZM70.6693 48.3234L70.2642 48.5709L70.6693 48.3234ZM70.8659 44.85L70.477 44.5778L70.4759 44.5794L70.8659 44.85ZM72.406 43.6212L72.5912 44.0583L72.5974 44.0556L72.406 43.6212ZM76.0923 43.3755L75.9772 43.836L75.9796 43.8365L76.0923 43.3755ZM77.4686 43.8506L77.6675 43.4196L77.4686 43.8506ZM78.6154 44.4896L79.0323 44.7166L79.2383 44.3382L78.8816 44.0966L78.6154 44.4896ZM77.9516 45.9889C77.8346 45.8719 77.653 45.7442 77.4435 45.6119L76.9366 46.4146C77.1422 46.5444 77.2445 46.6243 77.2804 46.6602L77.9516 45.9889ZM77.4533 45.6183C77.2229 45.4647 76.9468 45.3252 76.6318 45.1968L76.2737 46.076C76.5485 46.188 76.7639 46.2997 76.9267 46.4082L77.4533 45.6183ZM76.6377 45.1993C76.3296 45.0689 75.9958 44.958 75.6375 44.8655L75.4003 45.7847C75.7192 45.867 76.008 45.9636 76.2678 46.0736L76.6377 45.1993ZM75.6512 44.8693C75.27 44.7586 74.8814 44.703 74.4867 44.703V45.6523C74.791 45.6523 75.0906 45.695 75.3865 45.781L75.6512 44.8693ZM74.4867 44.703C73.8276 44.703 73.2475 44.8246 72.8157 45.1373L73.3725 45.9062C73.5741 45.7602 73.9225 45.6523 74.4867 45.6523V44.703ZM72.8093 45.142C72.3725 45.4696 72.1607 45.9388 72.1607 46.4884H73.11C73.11 46.2079 73.204 46.0327 73.3789 45.9015L72.8093 45.142ZM72.1607 46.4884C72.1607 46.9114 72.2964 47.2963 72.6043 47.5871L73.2562 46.8969C73.1708 46.8164 73.11 46.6989 73.11 46.4884H72.1607ZM72.6043 47.5871C72.8708 47.8388 73.2376 48.0251 73.6649 48.1675L73.9651 47.2669C73.6059 47.1471 73.3829 47.0167 73.2562 46.8969L72.6043 47.5871ZM73.6649 48.1675C74.0718 48.3031 74.5745 48.4481 75.1704 48.6026L75.4086 47.6837C74.8249 47.5323 74.3445 47.3934 73.9651 47.2669L73.6649 48.1675ZM75.1775 48.6044C75.917 48.784 76.5438 49.003 77.063 49.2575L77.4809 48.4051C76.8859 48.1134 76.1911 47.8736 75.4015 47.6819L75.1775 48.6044ZM77.073 49.2622C77.5771 49.4949 77.9348 49.7928 78.1728 50.1454L78.9597 49.6143C78.6079 49.0931 78.1027 48.6919 77.4709 48.4003L77.073 49.2622ZM78.1807 50.1567C78.4113 50.4778 78.5504 50.9386 78.5504 51.5838H79.4997C79.4997 50.809 79.3329 50.1338 78.9519 49.603L78.1807 50.1567ZM78.5504 51.5838C78.5504 52.1486 78.4464 52.6062 78.2585 52.973L79.1034 53.4058C79.3743 52.8769 79.4997 52.264 79.4997 51.5838H78.5504ZM78.2607 52.9687C78.0673 53.337 77.8033 53.6324 77.4649 53.861L77.9964 54.6476C78.4663 54.3301 78.8358 53.9155 79.1012 53.41L78.2607 52.9687ZM77.4649 53.861C77.1098 54.101 76.7021 54.2819 76.237 54.4006L76.4719 55.3204C77.0336 55.177 77.5433 54.9538 77.9964 54.6476L77.4649 53.861ZM76.2463 54.3983C75.7717 54.5094 75.2621 54.5661 74.7161 54.5661V55.5154C75.3279 55.5154 75.9105 55.4519 76.4626 55.3227L76.2463 54.3983ZM74.7161 54.5661C74.1703 54.5661 73.6237 54.5095 73.0758 54.3958L72.8829 55.3253C73.4929 55.4519 74.1041 55.5154 74.7161 55.5154V54.5661ZM73.0758 54.3958C72.5247 54.2814 71.9954 54.1204 71.4876 53.9131L71.1289 54.7921C71.6915 55.0217 72.2763 55.1994 72.8829 55.3253L73.0758 54.3958ZM71.4952 53.9163C70.9888 53.6993 70.5268 53.4422 70.1078 53.1459L69.5596 53.921C70.0363 54.2581 70.5573 54.5472 71.1213 54.7889L71.4952 53.9163ZM70.2561 53.75L71.2555 51.8003L70.4107 51.3672L69.4113 53.3169L70.2561 53.75ZM70.4975 51.9194C70.633 52.0549 70.8434 52.2084 71.0981 52.3745L71.6167 51.5794C71.3689 51.4178 71.2298 51.3092 71.1687 51.2481L70.4975 51.9194ZM71.1106 52.3824C71.3825 52.5479 71.7062 52.715 72.0785 52.8842L72.4713 52.02C72.1227 51.8615 71.8347 51.7118 71.6042 51.5715L71.1106 52.3824ZM72.0895 52.8891C72.4743 53.0523 72.8904 53.1907 73.3366 53.3051L73.5724 52.3855C73.1667 52.2815 72.7963 52.1577 72.4603 52.0151L72.0895 52.8891ZM73.3366 53.3051C73.8009 53.4241 74.2719 53.4838 74.7488 53.4838V52.5345C74.352 52.5345 73.9601 52.4849 73.5724 52.3855L73.3366 53.3051ZM74.7488 53.4838C75.4012 53.4838 75.9734 53.3754 76.4016 53.0949L75.8813 52.3008C75.676 52.4353 75.3198 52.5345 74.7488 52.5345V53.4838ZM76.4016 53.0949C76.8538 52.7986 77.0913 52.3536 77.0913 51.8131H76.1419C76.1419 52.0372 76.0627 52.182 75.8813 52.3008L76.4016 53.0949ZM77.0913 51.8131C77.0913 51.3336 76.9105 50.9161 76.5323 50.6201L75.9472 51.3677C76.0714 51.4649 76.1419 51.5936 76.1419 51.8131H77.0913ZM76.5323 50.6201C76.2207 50.3763 75.8133 50.1853 75.3347 50.0336L75.0477 50.9385C75.4647 51.0707 75.7564 51.2184 75.9472 51.3677L76.5323 50.6201ZM75.3446 50.0368C74.8871 49.8806 74.3493 49.7144 73.7324 49.5381L73.4716 50.4509C74.0779 50.6242 74.5997 50.7856 75.0378 50.9352L75.3446 50.0368ZM73.7315 49.5379C73.0192 49.3359 72.4387 49.1167 71.983 48.8837L71.551 49.7291C72.0783 49.9986 72.7211 50.2381 73.4725 50.4512L73.7315 49.5379ZM71.9904 48.8876C71.558 48.657 71.262 48.383 71.0743 48.0759L70.2642 48.5709C70.5571 49.0501 70.993 49.4315 71.5436 49.7252L71.9904 48.8876ZM71.0743 48.0759C70.8906 47.7754 70.7835 47.3754 70.7835 46.8488H69.8342C69.8342 47.5019 69.9673 48.085 70.2642 48.5709L71.0743 48.0759ZM70.7835 46.8488C70.7835 46.1263 70.9509 45.56 71.2559 45.1206L70.4759 44.5794C70.0381 45.2104 69.8342 45.9767 69.8342 46.8488H70.7835ZM71.2547 45.1222C71.5833 44.6528 72.0244 44.2984 72.5911 44.0583L72.2208 43.1842C71.4986 43.4902 70.913 43.955 70.477 44.5778L71.2547 45.1222ZM72.5974 44.0556C73.1748 43.8011 73.824 43.6699 74.5522 43.6699V42.7206C73.7076 42.7206 72.926 42.8733 72.2145 43.1869L72.5974 44.0556ZM74.5522 43.6699C75.0635 43.6699 75.5379 43.7261 75.9772 43.8359L76.2074 42.915C75.6856 42.7845 75.1333 42.7206 74.5522 42.7206V43.6699ZM75.9796 43.8365C76.4438 43.95 76.8734 44.0987 77.2696 44.2816L77.6675 43.4196C77.2117 43.2093 76.7239 43.0412 76.205 42.9144L75.9796 43.8365ZM77.2696 44.2816C77.6755 44.4689 78.0348 44.6696 78.3492 44.8825L78.8816 44.0966C78.5188 43.8508 78.1135 43.6255 77.6675 43.4196L77.2696 44.2816ZM78.1986 44.2625L77.1992 46.0975L78.0329 46.5516L79.0323 44.7166L78.1986 44.2625Z" fill="#139D3D" fill-opacity="0.12"/>
<g opacity="0.05">
<path d="M1057.77 404.821C1113.56 546.349 1008.89 666.297 880.169 635.274C819.15 620.568 738.219 564.365 676.079 449.139C590.14 289.594 634.597 97.4763 693.563 0C795.855 306.87 957.112 199.766 1057.77 404.821Z" fill="url(#paint3_linear_1009_2542)"/>
<path d="M293.401 216.783C445.721 206.821 528.278 343.571 459.213 457.063C426.473 510.864 347.983 570.983 218.85 595.069C40.0805 628.323 -129.877 527.003 -204.958 440.806C119.592 437.047 66.6396 250.16 293.401 216.783Z" fill="url(#paint4_linear_1009_2542)"/>
</g>
</g>
<defs>
<linearGradient id="paint0_linear_1009_2542" x1="75.7912" y1="41.1782" x2="75.7912" y2="83.6472" gradientUnits="userSpaceOnUse">
<stop stop-color="#A5F200"/>
<stop offset="1" stop-color="#139D3D"/>
</linearGradient>
<linearGradient id="paint1_linear_1009_2542" x1="51.4081" y1="41.1786" x2="51.4081" y2="83.6477" gradientUnits="userSpaceOnUse">
<stop stop-color="#A5F200"/>
<stop offset="1" stop-color="#139D3D"/>
</linearGradient>
<linearGradient id="paint2_linear_1009_2542" x1="63.5215" y1="26.4384" x2="63.5215" y2="58.9097" gradientUnits="userSpaceOnUse">
<stop stop-color="#A5F200"/>
<stop offset="1" stop-color="#139D3D"/>
</linearGradient>
<linearGradient id="paint3_linear_1009_2542" x1="850.625" y1="-156.711" x2="850.625" y2="640.206" gradientUnits="userSpaceOnUse">
<stop stop-color="#A5F200"/>
<stop offset="1" stop-color="#139D3D"/>
</linearGradient>
<linearGradient id="paint4_linear_1009_2542" x1="-306.596" y1="242.734" x2="454.877" y2="486.803" gradientUnits="userSpaceOnUse">
<stop stop-color="#A5F200"/>
<stop offset="1" stop-color="#139D3D"/>
</linearGradient>
<clipPath id="clip0_1009_2542">
<rect width="1200" height="675" fill="white"/>
</clipPath>
</defs>
</svg>
