<svg width="63" height="63" viewBox="0 0 63 63" fill="none" xmlns="http://www.w3.org/2000/svg">
<circle cx="31.5" cy="31.5" r="31.5" fill="#139D3D"/>
<circle cx="31.5" cy="31.5" r="26.5" fill="#139D3D"/>
<path d="M47.5467 36.0035C46.5415 37.3087 44.6685 37.5519 43.3633 36.5467C42.0581 35.5415 41.8149 33.6685 42.8201 32.3633C43.8253 31.0581 45.6983 30.8149 47.0035 31.8201C48.3087 32.8253 48.5519 34.6983 47.5467 36.0035Z" fill="#6EE2EF"/>
<path d="M28.171 19.3571C27.1658 20.6623 25.2929 20.9055 23.9876 19.9003C22.6824 18.8951 22.4392 17.0221 23.4444 15.7169C24.4496 14.4117 26.3226 14.1685 27.6278 15.1737C28.9331 16.1789 29.1763 18.0519 28.171 19.3571Z" fill="#6EE2EF"/>
<path d="M47.5467 28.0035C46.5415 29.3087 44.6685 29.5519 43.3633 28.5467C42.0581 27.5415 41.8149 25.6685 42.8201 24.3633C43.8253 23.0581 45.6983 22.8149 47.0035 23.8201C48.3087 24.8253 48.5519 26.6983 47.5467 28.0035Z" fill="#6EE2EF"/>
<path d="M36.1711 18.3572C35.1659 19.6624 33.2929 19.9056 31.9877 18.9004C30.6824 17.8952 30.4392 16.0222 31.4444 14.717C32.4496 13.4118 34.3226 13.1686 35.6278 14.1738C36.9331 15.179 37.1763 17.052 36.1711 18.3572Z" fill="#6EE2EF"/>
<path d="M43.2991 20.8348C42.2939 22.14 40.4209 22.3832 39.1157 21.378C37.8105 20.3728 37.5673 18.4998 38.5725 17.1946C39.5777 15.8894 41.4507 15.6462 42.7559 16.6514C44.0611 17.6566 44.3043 19.5296 43.2991 20.8348Z" fill="#6EE2EF"/>
<path d="M51.6547 39.318C51.0516 40.1011 49.9278 40.247 49.1447 39.6439C48.3615 39.0408 48.2156 37.917 48.8187 37.1339C49.4219 36.3507 50.5456 36.2048 51.3288 36.8079C52.1119 37.411 52.2578 38.5348 51.6547 39.318Z" fill="#F0B14E"/>
<path d="M21.4042 16.0208C20.8011 16.8039 19.6773 16.9498 18.8942 16.3467C18.1111 15.7436 17.9651 14.6198 18.5683 13.8366C19.1714 13.0535 20.2952 12.9076 21.0783 13.5107C21.8614 14.1138 22.0074 15.2376 21.4042 16.0208Z" fill="#F0B14E"/>
<path d="M52.9697 29.7885C52.3665 30.5717 51.2428 30.7176 50.4596 30.1145C49.6765 29.5113 49.5306 28.3875 50.1337 27.6044C50.7368 26.8213 51.8606 26.6753 52.6437 27.2785C53.4269 27.8816 53.5728 29.0054 52.9697 29.7885Z" fill="#F0B14E"/>
<path d="M30.2818 12.3156C29.6787 13.0987 28.5549 13.2447 27.7718 12.6415C26.9886 12.0384 26.8427 10.9146 27.4458 10.1315C28.049 9.34836 29.1727 9.20244 29.9559 9.80556C30.739 10.4087 30.8849 11.5325 30.2818 12.3156Z" fill="#F0B14E"/>
<path d="M50.8505 46.2287C50.2474 47.0118 49.1236 47.1578 48.3404 46.5546C47.5573 45.9515 47.4114 44.8277 48.0145 44.0446C48.6176 43.2615 49.7414 43.1155 50.5245 43.7187C51.3077 44.3218 51.4536 45.4456 50.8505 46.2287Z" fill="white"/>
<path d="M54.9309 35.064C54.5288 35.5861 53.7796 35.6834 53.2575 35.2813C52.7354 34.8792 52.6381 34.13 53.0402 33.6079C53.4423 33.0858 54.1915 32.9885 54.7136 33.3906C55.2357 33.7927 55.333 34.5419 54.9309 35.064Z" fill="white"/>
<path d="M53.4099 23.3504C53.0078 23.8725 52.2586 23.9698 51.7365 23.5677C51.2144 23.1656 51.1171 22.4164 51.5192 21.8944C51.9213 21.3723 52.6705 21.275 53.1926 21.6771C53.7147 22.0792 53.8119 22.8283 53.4099 23.3504Z" fill="white"/>
<path d="M46.722 14.4348C46.1189 15.2179 44.9951 15.3638 44.212 14.7607C43.4288 14.1576 43.2829 13.0338 43.886 12.2507C44.4892 11.4675 45.6129 11.3216 46.3961 11.9247C47.1792 12.5279 47.3251 13.6516 46.722 14.4348Z" fill="#F0B14E"/>
<path d="M24.4631 10.0934C24.061 10.6155 23.3118 10.7128 22.7898 10.3107C22.2677 9.90862 22.1704 9.15943 22.5725 8.63734C22.9745 8.11525 23.7237 8.01796 24.2458 8.42005C24.7679 8.82213 24.8652 9.57132 24.4631 10.0934Z" fill="white"/>
<path d="M49.2645 20.9109C48.6614 21.6941 47.5376 21.84 46.7545 21.2369C45.9713 20.6338 45.8254 19.51 46.4285 18.7268C47.0317 17.9437 48.1555 17.7978 48.9386 18.4009C49.7217 19.004 49.8677 20.1278 49.2645 20.9109Z" fill="#F0B14E"/>
<path d="M39.8113 13.6306C39.2081 14.4137 38.0843 14.5596 37.3012 13.9565C36.5181 13.3534 36.3721 12.2296 36.9753 11.4465C37.5784 10.6633 38.7022 10.5174 39.4853 11.1205C40.2685 11.7236 40.4144 12.8474 39.8113 13.6306Z" fill="#F0B14E"/>
<path d="M35.4486 9.51771C35.0466 10.0398 34.2974 10.1371 33.7753 9.735C33.2532 9.33292 33.1559 8.58373 33.558 8.06164C33.9601 7.53955 34.7093 7.44226 35.2313 7.84435C35.7534 8.24643 35.8507 8.99562 35.4486 9.51771Z" fill="white"/>
<path d="M14.9281 18.5633C14.3249 19.3464 13.2012 19.4923 12.418 18.8892C11.6349 18.2861 11.489 17.1623 12.0921 16.3792C12.6952 15.596 13.819 15.4501 14.6021 16.0532C15.3853 16.6564 15.5312 17.7801 14.9281 18.5633Z" fill="white"/>
</svg>
