<svg width="185" height="49" viewBox="0 0 185 49" fill="none" xmlns="http://www.w3.org/2000/svg">
<path d="M10.3635 26.112V48H3.7395V13.92H9.0195L26.6355 36.384V13.968H33.2595V48H27.7395L10.3635 26.112ZM50.967 48.48C48.951 48.48 47.127 48.144 45.495 47.472C43.863 46.768 42.471 45.824 41.319 44.64C40.167 43.424 39.271 42.048 38.631 40.512C38.023 38.944 37.719 37.296 37.719 35.568C37.719 33.168 38.247 30.976 39.303 28.992C40.391 27.008 41.927 25.424 43.911 24.24C45.927 23.024 48.295 22.416 51.015 22.416C53.767 22.416 56.119 23.024 58.071 24.24C60.023 25.424 61.511 27.008 62.535 28.992C63.591 30.944 64.119 33.056 64.119 35.328C64.119 35.712 64.103 36.112 64.071 36.528C64.039 36.912 64.007 37.232 63.975 37.488H44.535C44.663 38.768 45.031 39.888 45.639 40.848C46.279 41.808 47.079 42.544 48.039 43.056C49.031 43.536 50.087 43.776 51.207 43.776C52.487 43.776 53.687 43.472 54.807 42.864C55.959 42.224 56.743 41.392 57.159 40.368L62.679 41.904C62.071 43.184 61.191 44.32 60.039 45.312C58.919 46.304 57.591 47.088 56.055 47.664C54.519 48.208 52.823 48.48 50.967 48.48ZM44.391 33.408H57.543C57.415 32.128 57.047 31.024 56.439 30.096C55.863 29.136 55.095 28.4 54.135 27.888C53.175 27.344 52.103 27.072 50.919 27.072C49.767 27.072 48.711 27.344 47.751 27.888C46.823 28.4 46.055 29.136 45.447 30.096C44.871 31.024 44.519 32.128 44.391 33.408ZM82.3414 48.48C80.4214 48.48 78.7094 48.048 77.2054 47.184C75.7014 46.32 74.5174 45.136 73.6534 43.632V48H68.0374V12.96H74.4694V27.264C75.3654 25.76 76.5334 24.576 77.9734 23.712C79.4454 22.848 81.1574 22.416 83.1094 22.416C84.7414 22.416 86.2294 22.768 87.5734 23.472C88.9174 24.144 90.0694 25.088 91.0294 26.304C92.0214 27.52 92.7734 28.912 93.2854 30.48C93.8294 32.048 94.1014 33.728 94.1014 35.52C94.1014 37.312 93.7974 38.992 93.1894 40.56C92.6134 42.128 91.7974 43.52 90.7414 44.736C89.6854 45.92 88.4374 46.848 86.9974 47.52C85.5894 48.16 84.0374 48.48 82.3414 48.48ZM80.5654 43.008C81.5894 43.008 82.5174 42.816 83.3494 42.432C84.2134 42.016 84.9494 41.472 85.5574 40.8C86.1974 40.128 86.6774 39.344 86.9974 38.448C87.3494 37.52 87.5254 36.56 87.5254 35.568C87.5254 34.192 87.2374 32.928 86.6614 31.776C86.1174 30.592 85.3494 29.648 84.3574 28.944C83.3974 28.24 82.2614 27.888 80.9494 27.888C80.0214 27.888 79.1254 28.112 78.2614 28.56C77.4294 28.976 76.6774 29.552 76.0054 30.288C75.3654 31.024 74.8534 31.856 74.4694 32.784V38.784C74.6614 39.424 74.9654 40 75.3814 40.512C75.8294 41.024 76.3414 41.472 76.9174 41.856C77.4934 42.208 78.0854 42.496 78.6934 42.72C79.3334 42.912 79.9574 43.008 80.5654 43.008ZM98.2193 38.592V22.848H104.651V37.2C104.651 39.12 105.003 40.576 105.707 41.568C106.411 42.528 107.451 43.008 108.827 43.008C109.659 43.008 110.475 42.848 111.275 42.528C112.107 42.176 112.859 41.664 113.531 40.992C114.235 40.32 114.827 39.472 115.307 38.448V22.848H121.739V40.8C121.739 41.472 121.851 41.952 122.075 42.24C122.331 42.528 122.731 42.704 123.275 42.768V48C122.635 48.096 122.091 48.16 121.643 48.192C121.227 48.256 120.843 48.288 120.491 48.288C119.339 48.288 118.395 48.032 117.659 47.52C116.955 46.976 116.539 46.24 116.411 45.312L116.267 43.296C115.147 44.992 113.707 46.288 111.947 47.184C110.187 48.048 108.251 48.48 106.139 48.48C103.547 48.48 101.579 47.648 100.235 45.984C98.8913 44.288 98.2193 41.824 98.2193 38.592ZM128.083 12.96H134.515V39.936C134.515 41.088 134.707 41.872 135.091 42.288C135.475 42.672 136.003 42.864 136.675 42.864C137.187 42.864 137.715 42.8 138.259 42.672C138.803 42.544 139.283 42.384 139.699 42.192L140.563 47.088C139.699 47.504 138.691 47.824 137.539 48.048C136.387 48.272 135.347 48.384 134.419 48.384C132.403 48.384 130.835 47.856 129.715 46.8C128.627 45.712 128.083 44.176 128.083 42.192V12.96ZM141.638 40.56C141.638 38.928 142.086 37.504 142.982 36.288C143.91 35.04 145.19 34.08 146.822 33.408C148.454 32.736 150.326 32.4 152.438 32.4C153.494 32.4 154.566 32.48 155.654 32.64C156.742 32.8 157.686 33.056 158.486 33.408V32.064C158.486 30.464 158.006 29.232 157.046 28.368C156.118 27.504 154.726 27.072 152.87 27.072C151.494 27.072 150.182 27.312 148.934 27.792C147.686 28.272 146.374 28.976 144.998 29.904L142.934 25.68C144.598 24.592 146.294 23.776 148.022 23.232C149.782 22.688 151.622 22.416 153.542 22.416C157.126 22.416 159.91 23.312 161.894 25.104C163.91 26.896 164.918 29.456 164.918 32.784V40.8C164.918 41.472 165.03 41.952 165.254 42.24C165.51 42.528 165.91 42.704 166.454 42.768V48C165.878 48.096 165.35 48.176 164.87 48.24C164.422 48.304 164.038 48.336 163.718 48.336C162.438 48.336 161.462 48.048 160.79 47.472C160.15 46.896 159.75 46.192 159.59 45.36L159.446 44.064C158.358 45.472 156.998 46.56 155.366 47.328C153.734 48.096 152.07 48.48 150.374 48.48C148.71 48.48 147.206 48.144 145.862 47.472C144.55 46.768 143.51 45.824 142.742 44.64C142.006 43.424 141.638 42.064 141.638 40.56ZM157.286 41.856C157.638 41.472 157.926 41.088 158.15 40.704C158.374 40.32 158.486 39.968 158.486 39.648V37.104C157.718 36.784 156.886 36.544 155.99 36.384C155.094 36.192 154.246 36.096 153.446 36.096C151.782 36.096 150.406 36.464 149.318 37.2C148.262 37.904 147.734 38.848 147.734 40.032C147.734 40.672 147.91 41.28 148.262 41.856C148.614 42.432 149.126 42.896 149.798 43.248C150.47 43.6 151.27 43.776 152.198 43.776C153.158 43.776 154.102 43.6 155.03 43.248C155.958 42.864 156.71 42.4 157.286 41.856Z" fill="#071112"/>
<path d="M176.547 29.0035C175.542 30.3087 173.669 30.5519 172.364 29.5467C171.059 28.5415 170.815 26.6685 171.821 25.3633C172.826 24.0581 174.699 23.8149 176.004 24.8201C177.309 25.8253 177.552 27.6983 176.547 29.0035Z" fill="#071112"/>
<path d="M157.172 12.3571C156.166 13.6623 154.293 13.9055 152.988 12.9003C151.683 11.8951 151.44 10.0221 152.445 8.71692C153.45 7.4117 155.323 7.16849 156.628 8.1737C157.934 9.17891 158.177 11.0519 157.172 12.3571Z" fill="#071112"/>
<path d="M176.547 21.0035C175.542 22.3087 173.669 22.5519 172.364 21.5467C171.059 20.5415 170.815 18.6685 171.821 17.3633C172.826 16.0581 174.699 15.8149 176.004 16.8201C177.309 17.8253 177.552 19.6983 176.547 21.0035Z" fill="#071112"/>
<path d="M165.172 11.3572C164.166 12.6624 162.293 12.9056 160.988 11.9004C159.683 10.8952 159.44 9.02224 160.445 7.71702C161.45 6.41179 163.323 6.16858 164.628 7.17379C165.934 8.179 166.177 10.052 165.172 11.3572Z" fill="#071112"/>
<path d="M172.3 13.8348C171.294 15.14 169.421 15.3832 168.116 14.378C166.811 13.3728 166.568 11.4998 167.573 10.1946C168.578 8.88936 170.451 8.64615 171.756 9.65136C173.062 10.6566 173.305 12.5296 172.3 13.8348Z" fill="#071112"/>
<path d="M180.655 32.318C180.052 33.1011 178.928 33.247 178.145 32.6439C177.362 32.0408 177.216 30.917 177.819 30.1339C178.422 29.3507 179.546 29.2048 180.329 29.8079C181.112 30.411 181.258 31.5348 180.655 32.318Z" fill="#071112"/>
<path d="M150.405 9.02075C149.802 9.80389 148.678 9.94981 147.895 9.34669C147.112 8.74356 146.966 7.61977 147.569 6.83664C148.172 6.0535 149.296 5.90758 150.079 6.51071C150.862 7.11383 151.008 8.23762 150.405 9.02075Z" fill="#071112"/>
<path d="M181.97 22.7885C181.367 23.5717 180.243 23.7176 179.46 23.1145C178.677 22.5113 178.531 21.3875 179.134 20.6044C179.737 19.8213 180.861 19.6753 181.644 20.2785C182.427 20.8816 182.573 22.0054 181.97 22.7885Z" fill="#071112"/>
<path d="M159.282 5.31561C158.679 6.09874 157.555 6.24467 156.772 5.64154C155.989 5.03842 155.843 3.91463 156.446 3.1315C157.049 2.34836 158.173 2.20244 158.956 2.80556C159.74 3.40869 159.885 4.53248 159.282 5.31561Z" fill="#071112"/>
<path d="M179.851 39.2287C179.248 40.0118 178.124 40.1578 177.341 39.5546C176.558 38.9515 176.412 37.8277 177.015 37.0446C177.618 36.2615 178.742 36.1155 179.525 36.7187C180.308 37.3218 180.454 38.4456 179.851 39.2287Z" fill="#071112"/>
<path d="M183.931 28.064C183.529 28.5861 182.78 28.6834 182.258 28.2813C181.736 27.8792 181.639 27.13 182.041 26.6079C182.443 26.0858 183.192 25.9885 183.714 26.3906C184.236 26.7927 184.333 27.5419 183.931 28.064Z" fill="#071112"/>
<path d="M182.41 16.3504C182.008 16.8725 181.259 16.9698 180.737 16.5677C180.215 16.1656 180.118 15.4164 180.52 14.8944C180.922 14.3723 181.671 14.275 182.193 14.6771C182.715 15.0792 182.812 15.8283 182.41 16.3504Z" fill="#071112"/>
<path d="M175.722 7.43478C175.119 8.21791 173.996 8.36384 173.212 7.76071C172.429 7.15758 172.283 6.0338 172.887 5.25066C173.49 4.46753 174.613 4.3216 175.397 4.92473C176.18 5.52785 176.326 6.65164 175.722 7.43478Z" fill="#071112"/>
<path d="M153.464 3.09341C153.062 3.6155 152.312 3.71279 151.79 3.3107C151.268 2.90862 151.171 2.15943 151.573 1.63734C151.975 1.11525 152.724 1.01796 153.246 1.42005C153.768 1.82213 153.866 2.57132 153.464 3.09341Z" fill="#071112"/>
<path d="M178.265 13.9109C177.662 14.6941 176.538 14.84 175.755 14.2369C174.972 13.6338 174.826 12.51 175.429 11.7268C176.032 10.9437 177.156 10.7978 177.939 11.4009C178.722 12.004 178.868 13.1278 178.265 13.9109Z" fill="#071112"/>
<path d="M168.812 6.63057C168.209 7.4137 167.085 7.55963 166.302 6.9565C165.519 6.35338 165.373 5.22959 165.976 4.44646C166.579 3.66332 167.703 3.51739 168.486 4.12052C169.269 4.72365 169.415 5.84743 168.812 6.63057Z" fill="#071112"/>
<path d="M164.449 2.51771C164.047 3.0398 163.298 3.13709 162.776 2.735C162.254 2.33292 162.156 1.58373 162.558 1.06164C162.961 0.539549 163.71 0.442265 164.232 0.844349C164.754 1.24643 164.851 1.99562 164.449 2.51771Z" fill="#071112"/>
<path d="M143.929 11.5633C143.325 12.3464 142.202 12.4923 141.419 11.8892C140.635 11.2861 140.489 10.1623 141.093 9.37916C141.696 8.59603 142.819 8.4501 143.603 9.05323C144.386 9.65635 144.532 10.7801 143.929 11.5633Z" fill="#071112"/>
</svg>
