<svg width="207" height="83" viewBox="0 0 207 83" fill="none" xmlns="http://www.w3.org/2000/svg">
<path d="M9.488 60.632H5.44V71H4.32V60.632H0.272V59.64H9.488V60.632ZM13.3681 63.624C12.6428 63.6453 12.0028 63.848 11.4481 64.232C10.9041 64.616 10.5201 65.144 10.2961 65.816V71H9.20813V62.664H10.2321V64.664C10.5201 64.0773 10.8988 63.6027 11.3681 63.24C11.8481 62.8773 12.3548 62.6747 12.8881 62.632C12.9948 62.6213 13.0855 62.616 13.1601 62.616C13.2455 62.616 13.3148 62.6213 13.3681 62.632V63.624ZM13.7942 68.6C13.7942 68.0773 13.9436 67.6293 14.2422 67.256C14.5409 66.872 14.9516 66.5787 15.4742 66.376C16.0076 66.1627 16.6209 66.056 17.3142 66.056C17.7196 66.056 18.1409 66.088 18.5782 66.152C19.0156 66.216 19.4049 66.312 19.7463 66.44V65.736C19.7463 65.032 19.5383 64.472 19.1223 64.056C18.7063 63.64 18.1302 63.432 17.3942 63.432C16.9462 63.432 16.5036 63.5173 16.0662 63.688C15.6396 63.848 15.1916 64.088 14.7222 64.408L14.3062 63.64C14.8502 63.2667 15.3836 62.9893 15.9062 62.808C16.4289 62.616 16.9622 62.52 17.5062 62.52C18.5303 62.52 19.3409 62.8133 19.9383 63.4C20.5356 63.9867 20.8342 64.7973 20.8342 65.832V69.688C20.8342 69.8373 20.8663 69.9493 20.9303 70.024C20.9942 70.088 21.0956 70.1253 21.2343 70.136V71C21.1169 71.0107 21.0156 71.0213 20.9303 71.032C20.8449 71.0427 20.7809 71.0427 20.7382 71.032C20.4716 71.0213 20.2689 70.936 20.1302 70.776C19.9916 70.616 19.9169 70.4453 19.9062 70.264L19.8903 69.656C19.5169 70.136 19.0316 70.5093 18.4342 70.776C17.8369 71.032 17.2289 71.16 16.6102 71.16C16.0769 71.16 15.5916 71.048 15.1542 70.824C14.7276 70.5893 14.3916 70.28 14.1462 69.896C13.9116 69.5013 13.7942 69.0693 13.7942 68.6ZM19.3783 69.24C19.4956 69.0907 19.5862 68.9467 19.6502 68.808C19.7143 68.6693 19.7463 68.5467 19.7463 68.44V67.224C19.3836 67.0853 19.0049 66.9787 18.6102 66.904C18.2262 66.8293 17.8369 66.792 17.4422 66.792C16.6636 66.792 16.0342 66.9467 15.5542 67.256C15.0742 67.5653 14.8342 67.9867 14.8342 68.52C14.8342 68.8293 14.9142 69.1227 15.0742 69.4C15.2342 69.6667 15.4689 69.8907 15.7782 70.072C16.0876 70.2427 16.4502 70.328 16.8662 70.328C17.3889 70.328 17.8742 70.2267 18.3222 70.024C18.7809 69.8213 19.1329 69.56 19.3783 69.24ZM22.865 71V62.664H23.953V71H22.865ZM22.865 60.92V59.32H23.953V60.92H22.865ZM33.0374 71H31.9494V66.344C31.9494 65.3627 31.8054 64.648 31.5174 64.2C31.2294 63.7413 30.776 63.512 30.1574 63.512C29.7307 63.512 29.3094 63.6187 28.8934 63.832C28.4774 64.0347 28.1094 64.3173 27.7894 64.68C27.48 65.032 27.256 65.4373 27.1174 65.896V71H26.0294V62.664H27.0214V64.552C27.2454 64.1467 27.5387 63.7947 27.9014 63.496C28.264 63.1867 28.6747 62.9467 29.1334 62.776C29.592 62.6053 30.0667 62.52 30.5574 62.52C31.016 62.52 31.4054 62.6053 31.7254 62.776C32.0454 62.9467 32.3014 63.192 32.4934 63.512C32.6854 63.8213 32.824 64.2 32.9094 64.648C32.9947 65.0853 33.0374 65.576 33.0374 66.12V71ZM35.0375 71V62.664H36.1255V71H35.0375ZM35.0375 60.92V59.32H36.1255V60.92H35.0375ZM45.2099 71H44.1219V66.344C44.1219 65.3627 43.9779 64.648 43.6899 64.2C43.4019 63.7413 42.9485 63.512 42.3299 63.512C41.9032 63.512 41.4819 63.6187 41.0659 63.832C40.6499 64.0347 40.2819 64.3173 39.9619 64.68C39.6525 65.032 39.4285 65.4373 39.2899 65.896V71H38.2019V62.664H39.1939V64.552C39.4179 64.1467 39.7112 63.7947 40.0739 63.496C40.4365 63.1867 40.8472 62.9467 41.3059 62.776C41.7645 62.6053 42.2392 62.52 42.7299 62.52C43.1885 62.52 43.5779 62.6053 43.8979 62.776C44.2179 62.9467 44.4739 63.192 44.6659 63.512C44.8579 63.8213 44.9965 64.2 45.0819 64.648C45.1672 65.0853 45.2099 65.576 45.2099 66.12V71ZM50.554 71.112C49.9887 71.112 49.466 70.9947 48.986 70.76C48.506 70.5253 48.09 70.2107 47.738 69.816C47.3967 69.4107 47.13 68.952 46.938 68.44C46.746 67.928 46.65 67.4 46.65 66.856C46.65 66.2693 46.7407 65.72 46.922 65.208C47.114 64.6853 47.3807 64.2213 47.722 63.816C48.074 63.4107 48.4847 63.096 48.954 62.872C49.4233 62.6373 49.946 62.52 50.522 62.52C51.2367 62.52 51.8553 62.7013 52.378 63.064C52.9113 63.4267 53.3593 63.8747 53.722 64.408V62.664H54.698V71.032C54.698 71.8 54.5113 72.4453 54.138 72.968C53.7753 73.5013 53.2793 73.9013 52.65 74.168C52.0313 74.4347 51.354 74.568 50.618 74.568C49.6687 74.568 48.9007 74.3973 48.314 74.056C47.7273 73.7147 47.2473 73.256 46.874 72.68L47.546 72.152C47.8767 72.6747 48.314 73.064 48.858 73.32C49.4127 73.576 49.9993 73.704 50.618 73.704C51.162 73.704 51.658 73.6027 52.106 73.4C52.5647 73.208 52.9273 72.9147 53.194 72.52C53.4713 72.1253 53.61 71.6293 53.61 71.032V69.384C53.29 69.9067 52.8527 70.328 52.298 70.648C51.7433 70.9573 51.162 71.112 50.554 71.112ZM50.858 70.2C51.1887 70.2 51.5033 70.1413 51.802 70.024C52.1113 69.9067 52.394 69.752 52.65 69.56C52.906 69.3573 53.1193 69.1333 53.29 68.888C53.4607 68.6427 53.5673 68.392 53.61 68.136V65.56C53.45 65.1547 53.2207 64.7973 52.922 64.488C52.6233 64.168 52.282 63.9227 51.898 63.752C51.5247 63.5707 51.1353 63.48 50.73 63.48C50.2607 63.48 49.8393 63.5813 49.466 63.784C49.1033 63.976 48.794 64.2373 48.538 64.568C48.2927 64.888 48.1007 65.2507 47.962 65.656C47.8233 66.0613 47.754 66.4667 47.754 66.872C47.754 67.32 47.834 67.7467 47.994 68.152C48.154 68.5467 48.3727 68.904 48.65 69.224C48.938 69.5333 49.2687 69.7733 49.642 69.944C50.026 70.1147 50.4313 70.2 50.858 70.2ZM68.4747 71L62.8107 65.032C62.3521 64.5413 61.9841 64.1253 61.7067 63.784C61.4294 63.432 61.2321 63.1173 61.1147 62.84C60.9974 62.552 60.9387 62.2693 60.9387 61.992C60.9387 61.5227 61.0614 61.1013 61.3067 60.728C61.5627 60.3547 61.9041 60.056 62.3307 59.832C62.7681 59.608 63.2534 59.496 63.7867 59.496C64.2881 59.496 64.7361 59.592 65.1307 59.784C65.5361 59.9653 65.8561 60.2267 66.0907 60.568C66.3254 60.8987 66.4427 61.288 66.4427 61.736C66.4427 62.216 66.3041 62.648 66.0267 63.032C65.7601 63.4053 65.4081 63.7573 64.9707 64.088C64.5441 64.408 64.0694 64.7333 63.5467 65.064C63.1094 65.3627 62.7041 65.6667 62.3307 65.976C61.9681 66.2747 61.6801 66.5947 61.4667 66.936C61.2534 67.2773 61.1467 67.6667 61.1467 68.104C61.1467 68.5733 61.2801 68.9733 61.5467 69.304C61.8134 69.624 62.1494 69.8693 62.5547 70.04C62.9707 70.2 63.3974 70.28 63.8347 70.28C64.4107 70.28 64.9387 70.152 65.4187 69.896C65.9094 69.6293 66.3361 69.2667 66.6987 68.808C67.0614 68.3387 67.3387 67.8053 67.5307 67.208C67.7334 66.6107 67.8347 65.976 67.8347 65.304H68.7627C68.7627 66.1147 68.6347 66.8773 68.3787 67.592C68.1227 68.296 67.7654 68.9147 67.3067 69.448C66.8587 69.9813 66.3254 70.4027 65.7067 70.712C65.0987 71.0107 64.4374 71.16 63.7227 71.16C63.0614 71.16 62.4534 71.032 61.8987 70.776C61.3441 70.5093 60.9014 70.1467 60.5707 69.688C60.2507 69.2293 60.0907 68.6907 60.0907 68.072C60.0907 67.496 60.2241 66.9947 60.4907 66.568C60.7681 66.1307 61.1201 65.7413 61.5467 65.4C61.9841 65.048 62.4427 64.7173 62.9227 64.408C63.4134 64.088 63.8454 63.7947 64.2187 63.528C64.6027 63.2507 64.9014 62.9733 65.1147 62.696C65.3281 62.408 65.4347 62.0987 65.4347 61.768C65.4347 61.352 65.2801 61.0107 64.9707 60.744C64.6614 60.4773 64.2667 60.344 63.7867 60.344C63.4347 60.344 63.1201 60.4187 62.8427 60.568C62.5654 60.7173 62.3467 60.9147 62.1867 61.16C62.0267 61.4053 61.9467 61.672 61.9467 61.96C61.9467 62.1413 61.9894 62.3333 62.0747 62.536C62.1601 62.728 62.3254 62.9733 62.5707 63.272C62.8161 63.56 63.1681 63.944 63.6267 64.424L69.9147 71H68.4747ZM74.1208 65.24C74.1208 64.5467 74.2381 63.8693 74.4728 63.208C74.7181 62.536 75.0701 61.928 75.5288 61.384C75.9874 60.8293 76.5528 60.392 77.2248 60.072C77.8968 59.7413 78.6594 59.576 79.5128 59.576C80.5261 59.576 81.3901 59.8107 82.1048 60.28C82.8301 60.7387 83.3634 61.3307 83.7048 62.056L82.8248 62.6C82.5794 62.0987 82.2701 61.704 81.8968 61.416C81.5234 61.1173 81.1234 60.904 80.6968 60.776C80.2808 60.648 79.8648 60.584 79.4488 60.584C78.7661 60.584 78.1634 60.7227 77.6408 61C77.1181 61.2667 76.6754 61.6293 76.3128 62.088C75.9608 62.536 75.6941 63.0427 75.5128 63.608C75.3314 64.1627 75.2408 64.728 75.2408 65.304C75.2408 65.9333 75.3474 66.536 75.5608 67.112C75.7741 67.688 76.0728 68.2 76.4568 68.648C76.8408 69.0853 77.2888 69.4373 77.8008 69.704C78.3234 69.96 78.8888 70.088 79.4968 70.088C79.9234 70.088 80.3608 70.0133 80.8088 69.864C81.2568 69.7147 81.6728 69.4853 82.0568 69.176C82.4514 68.8667 82.7661 68.4667 83.0008 67.976L83.9288 68.456C83.6941 69.0213 83.3314 69.5013 82.8408 69.896C82.3501 70.2907 81.8008 70.5893 81.1928 70.792C80.5954 70.9947 80.0088 71.096 79.4328 71.096C78.6541 71.096 77.9394 70.9307 77.2888 70.6C76.6381 70.2587 76.0728 69.8107 75.5928 69.256C75.1234 68.6907 74.7608 68.0613 74.5048 67.368C74.2488 66.664 74.1208 65.9547 74.1208 65.24ZM88.8495 71.16C88.2522 71.16 87.6975 71.048 87.1855 70.824C86.6842 70.5893 86.2468 70.2747 85.8735 69.88C85.5108 69.4747 85.2282 69.016 85.0255 68.504C84.8228 67.9813 84.7215 67.432 84.7215 66.856C84.7215 66.2587 84.8228 65.704 85.0255 65.192C85.2282 64.6693 85.5162 64.2107 85.8895 63.816C86.2628 63.4107 86.7002 63.096 87.2015 62.872C87.7135 62.6373 88.2682 62.52 88.8655 62.52C89.4628 62.52 90.0122 62.6373 90.5135 62.872C91.0148 63.096 91.4522 63.4107 91.8255 63.816C92.1988 64.2107 92.4868 64.6693 92.6895 65.192C92.8922 65.704 92.9935 66.2587 92.9935 66.856C92.9935 67.432 92.8922 67.9813 92.6895 68.504C92.4868 69.016 92.1988 69.4747 91.8255 69.88C91.4628 70.2747 91.0255 70.5893 90.5135 70.824C90.0122 71.048 89.4575 71.16 88.8495 71.16ZM85.8255 66.872C85.8255 67.4907 85.9588 68.056 86.2255 68.568C86.5028 69.0693 86.8708 69.4693 87.3295 69.768C87.7882 70.056 88.2948 70.2 88.8495 70.2C89.4042 70.2 89.9108 70.0507 90.3695 69.752C90.8282 69.4533 91.1962 69.048 91.4735 68.536C91.7508 68.0133 91.8895 67.448 91.8895 66.84C91.8895 66.2213 91.7508 65.656 91.4735 65.144C91.1962 64.632 90.8282 64.2267 90.3695 63.928C89.9108 63.6293 89.4042 63.48 88.8495 63.48C88.2948 63.48 87.7882 63.6347 87.3295 63.944C86.8815 64.2533 86.5188 64.664 86.2415 65.176C85.9642 65.6773 85.8255 66.2427 85.8255 66.872ZM93.8211 68.6C93.8211 68.0773 93.9705 67.6293 94.2691 67.256C94.5678 66.872 94.9785 66.5787 95.5011 66.376C96.0345 66.1627 96.6478 66.056 97.3411 66.056C97.7465 66.056 98.1678 66.088 98.6051 66.152C99.0425 66.216 99.4318 66.312 99.7731 66.44V65.736C99.7731 65.032 99.5651 64.472 99.1491 64.056C98.7331 63.64 98.1571 63.432 97.4211 63.432C96.9731 63.432 96.5305 63.5173 96.0931 63.688C95.6665 63.848 95.2185 64.088 94.7491 64.408L94.3331 63.64C94.8771 63.2667 95.4105 62.9893 95.9331 62.808C96.4558 62.616 96.9891 62.52 97.5331 62.52C98.5571 62.52 99.3678 62.8133 99.9651 63.4C100.562 63.9867 100.861 64.7973 100.861 65.832V69.688C100.861 69.8373 100.893 69.9493 100.957 70.024C101.021 70.088 101.122 70.1253 101.261 70.136V71C101.144 71.0107 101.042 71.0213 100.957 71.032C100.872 71.0427 100.808 71.0427 100.765 71.032C100.498 71.0213 100.296 70.936 100.157 70.776C100.018 70.616 99.9438 70.4453 99.9331 70.264L99.9171 69.656C99.5438 70.136 99.0585 70.5093 98.4611 70.776C97.8638 71.032 97.2558 71.16 96.6371 71.16C96.1038 71.16 95.6185 71.048 95.1811 70.824C94.7545 70.5893 94.4185 70.28 94.1731 69.896C93.9385 69.5013 93.8211 69.0693 93.8211 68.6ZM99.4051 69.24C99.5225 69.0907 99.6131 68.9467 99.6771 68.808C99.7411 68.6693 99.7731 68.5467 99.7731 68.44V67.224C99.4105 67.0853 99.0318 66.9787 98.6371 66.904C98.2531 66.8293 97.8638 66.792 97.4691 66.792C96.6905 66.792 96.0611 66.9467 95.5811 67.256C95.1011 67.5653 94.8611 67.9867 94.8611 68.52C94.8611 68.8293 94.9411 69.1227 95.1011 69.4C95.2611 69.6667 95.4958 69.8907 95.8051 70.072C96.1145 70.2427 96.4771 70.328 96.8931 70.328C97.4158 70.328 97.9011 70.2267 98.3491 70.024C98.8078 69.8213 99.1598 69.56 99.4051 69.24ZM106.508 71.16C105.9 71.16 105.34 71.048 104.828 70.824C104.327 70.5893 103.884 70.2693 103.5 69.864C103.127 69.4587 102.833 68.9947 102.62 68.472C102.417 67.9493 102.316 67.3947 102.316 66.808C102.316 66.0187 102.492 65.2987 102.844 64.648C103.196 63.9973 103.687 63.48 104.316 63.096C104.945 62.712 105.671 62.52 106.492 62.52C107.271 62.52 107.959 62.7013 108.556 63.064C109.153 63.416 109.596 63.896 109.884 64.504L108.828 64.84C108.593 64.4133 108.263 64.0827 107.836 63.848C107.42 63.6027 106.956 63.48 106.444 63.48C105.889 63.48 105.383 63.624 104.924 63.912C104.465 64.2 104.097 64.5947 103.82 65.096C103.553 65.5973 103.42 66.168 103.42 66.808C103.42 67.4373 103.559 68.008 103.836 68.52C104.113 69.032 104.481 69.4427 104.94 69.752C105.399 70.0507 105.905 70.2 106.46 70.2C106.823 70.2 107.169 70.136 107.5 70.008C107.841 69.88 108.135 69.7093 108.38 69.496C108.636 69.272 108.807 69.032 108.892 68.776L109.964 69.096C109.815 69.4907 109.564 69.848 109.212 70.168C108.871 70.4773 108.465 70.7227 107.996 70.904C107.537 71.0747 107.041 71.16 106.508 71.16ZM118.361 71H117.273V66.344C117.273 65.4053 117.108 64.7013 116.777 64.232C116.446 63.752 115.972 63.512 115.353 63.512C114.948 63.512 114.542 63.6187 114.137 63.832C113.742 64.0347 113.39 64.3173 113.081 64.68C112.782 65.032 112.569 65.4373 112.441 65.896V71H111.353V59.32H112.441V64.552C112.772 63.9333 113.23 63.4427 113.817 63.08C114.414 62.7067 115.049 62.52 115.721 62.52C116.201 62.52 116.606 62.6053 116.937 62.776C117.278 62.9467 117.55 63.1973 117.753 63.528C117.966 63.848 118.121 64.2267 118.217 64.664C118.313 65.0907 118.361 65.576 118.361 66.12V71ZM120.361 71V62.664H121.449V71H120.361ZM120.361 60.92V59.32H121.449V60.92H120.361ZM130.534 71H129.446V66.344C129.446 65.3627 129.302 64.648 129.014 64.2C128.726 63.7413 128.272 63.512 127.654 63.512C127.227 63.512 126.806 63.6187 126.39 63.832C125.974 64.0347 125.606 64.3173 125.286 64.68C124.976 65.032 124.752 65.4373 124.614 65.896V71H123.526V62.664H124.518V64.552C124.742 64.1467 125.035 63.7947 125.398 63.496C125.76 63.1867 126.171 62.9467 126.63 62.776C127.088 62.6053 127.563 62.52 128.054 62.52C128.512 62.52 128.902 62.6053 129.222 62.776C129.542 62.9467 129.798 63.192 129.99 63.512C130.182 63.8213 130.32 64.2 130.406 64.648C130.491 65.0853 130.534 65.576 130.534 66.12V71ZM135.878 71.112C135.312 71.112 134.79 70.9947 134.31 70.76C133.83 70.5253 133.414 70.2107 133.062 69.816C132.72 69.4107 132.454 68.952 132.262 68.44C132.07 67.928 131.974 67.4 131.974 66.856C131.974 66.2693 132.064 65.72 132.246 65.208C132.438 64.6853 132.704 64.2213 133.046 63.816C133.398 63.4107 133.808 63.096 134.278 62.872C134.747 62.6373 135.27 62.52 135.846 62.52C136.56 62.52 137.179 62.7013 137.702 63.064C138.235 63.4267 138.683 63.8747 139.046 64.408V62.664H140.022V71.032C140.022 71.8 139.835 72.4453 139.462 72.968C139.099 73.5013 138.603 73.9013 137.974 74.168C137.355 74.4347 136.678 74.568 135.942 74.568C134.992 74.568 134.224 74.3973 133.638 74.056C133.051 73.7147 132.571 73.256 132.198 72.68L132.87 72.152C133.2 72.6747 133.638 73.064 134.182 73.32C134.736 73.576 135.323 73.704 135.942 73.704C136.486 73.704 136.982 73.6027 137.43 73.4C137.888 73.208 138.251 72.9147 138.518 72.52C138.795 72.1253 138.934 71.6293 138.934 71.032V69.384C138.614 69.9067 138.176 70.328 137.622 70.648C137.067 70.9573 136.486 71.112 135.878 71.112ZM136.182 70.2C136.512 70.2 136.827 70.1413 137.126 70.024C137.435 69.9067 137.718 69.752 137.974 69.56C138.23 69.3573 138.443 69.1333 138.614 68.888C138.784 68.6427 138.891 68.392 138.934 68.136V65.56C138.774 65.1547 138.544 64.7973 138.246 64.488C137.947 64.168 137.606 63.9227 137.222 63.752C136.848 63.5707 136.459 63.48 136.054 63.48C135.584 63.48 135.163 63.5813 134.79 63.784C134.427 63.976 134.118 64.2373 133.862 64.568C133.616 64.888 133.424 65.2507 133.286 65.656C133.147 66.0613 133.078 66.4667 133.078 66.872C133.078 67.32 133.158 67.7467 133.318 68.152C133.478 68.5467 133.696 68.904 133.974 69.224C134.262 69.5333 134.592 69.7733 134.966 69.944C135.35 70.1147 135.755 70.2 136.182 70.2ZM146.087 71V59.64H150.791C151.281 59.64 151.729 59.7413 152.135 59.944C152.551 60.1467 152.908 60.424 153.207 60.776C153.505 61.1173 153.74 61.5013 153.911 61.928C154.081 62.344 154.167 62.7707 154.167 63.208C154.167 63.8267 154.028 64.4133 153.751 64.968C153.484 65.512 153.105 65.9547 152.615 66.296C152.124 66.6373 151.548 66.808 150.887 66.808H147.207V71H146.087ZM147.207 65.816H150.839C151.287 65.816 151.676 65.6933 152.007 65.448C152.337 65.2027 152.593 64.8827 152.775 64.488C152.956 64.0933 153.047 63.6667 153.047 63.208C153.047 62.7387 152.94 62.3067 152.727 61.912C152.513 61.5173 152.231 61.208 151.879 60.984C151.537 60.7493 151.159 60.632 150.743 60.632H147.207V65.816ZM159.656 63.624C158.93 63.6453 158.29 63.848 157.736 64.232C157.192 64.616 156.808 65.144 156.584 65.816V71H155.496V62.664H156.52V64.664C156.808 64.0773 157.186 63.6027 157.656 63.24C158.136 62.8773 158.642 62.6747 159.176 62.632C159.282 62.6213 159.373 62.616 159.448 62.616C159.533 62.616 159.602 62.6213 159.656 62.632V63.624ZM164.071 71.16C163.474 71.16 162.919 71.048 162.407 70.824C161.906 70.5893 161.469 70.2747 161.095 69.88C160.733 69.4747 160.45 69.016 160.247 68.504C160.045 67.9813 159.943 67.432 159.943 66.856C159.943 66.2587 160.045 65.704 160.247 65.192C160.45 64.6693 160.738 64.2107 161.111 63.816C161.485 63.4107 161.922 63.096 162.423 62.872C162.935 62.6373 163.49 62.52 164.087 62.52C164.685 62.52 165.234 62.6373 165.735 62.872C166.237 63.096 166.674 63.4107 167.047 63.816C167.421 64.2107 167.709 64.6693 167.911 65.192C168.114 65.704 168.215 66.2587 168.215 66.856C168.215 67.432 168.114 67.9813 167.911 68.504C167.709 69.016 167.421 69.4747 167.047 69.88C166.685 70.2747 166.247 70.5893 165.735 70.824C165.234 71.048 164.679 71.16 164.071 71.16ZM161.047 66.872C161.047 67.4907 161.181 68.056 161.447 68.568C161.725 69.0693 162.093 69.4693 162.551 69.768C163.01 70.056 163.517 70.2 164.071 70.2C164.626 70.2 165.133 70.0507 165.591 69.752C166.05 69.4533 166.418 69.048 166.695 68.536C166.973 68.0133 167.111 67.448 167.111 66.84C167.111 66.2213 166.973 65.656 166.695 65.144C166.418 64.632 166.05 64.2267 165.591 63.928C165.133 63.6293 164.626 63.48 164.071 63.48C163.517 63.48 163.01 63.6347 162.551 63.944C162.103 64.2533 161.741 64.664 161.463 65.176C161.186 65.6773 161.047 66.2427 161.047 66.872ZM173.059 71.112C172.494 71.112 171.971 70.9947 171.491 70.76C171.011 70.5253 170.595 70.2107 170.243 69.816C169.902 69.4107 169.635 68.952 169.443 68.44C169.251 67.928 169.155 67.4 169.155 66.856C169.155 66.2693 169.246 65.72 169.427 65.208C169.619 64.6853 169.886 64.2213 170.227 63.816C170.579 63.4107 170.99 63.096 171.459 62.872C171.928 62.6373 172.451 62.52 173.027 62.52C173.742 62.52 174.36 62.7013 174.883 63.064C175.416 63.4267 175.864 63.8747 176.227 64.408V62.664H177.203V71.032C177.203 71.8 177.016 72.4453 176.643 72.968C176.28 73.5013 175.784 73.9013 175.155 74.168C174.536 74.4347 173.859 74.568 173.123 74.568C172.174 74.568 171.406 74.3973 170.819 74.056C170.232 73.7147 169.752 73.256 169.379 72.68L170.051 72.152C170.382 72.6747 170.819 73.064 171.363 73.32C171.918 73.576 172.504 73.704 173.123 73.704C173.667 73.704 174.163 73.6027 174.611 73.4C175.07 73.208 175.432 72.9147 175.699 72.52C175.976 72.1253 176.115 71.6293 176.115 71.032V69.384C175.795 69.9067 175.358 70.328 174.803 70.648C174.248 70.9573 173.667 71.112 173.059 71.112ZM173.363 70.2C173.694 70.2 174.008 70.1413 174.307 70.024C174.616 69.9067 174.899 69.752 175.155 69.56C175.411 69.3573 175.624 69.1333 175.795 68.888C175.966 68.6427 176.072 68.392 176.115 68.136V65.56C175.955 65.1547 175.726 64.7973 175.427 64.488C175.128 64.168 174.787 63.9227 174.403 63.752C174.03 63.5707 173.64 63.48 173.235 63.48C172.766 63.48 172.344 63.5813 171.971 63.784C171.608 63.976 171.299 64.2373 171.043 64.568C170.798 64.888 170.606 65.2507 170.467 65.656C170.328 66.0613 170.259 66.4667 170.259 66.872C170.259 67.32 170.339 67.7467 170.499 68.152C170.659 68.5467 170.878 68.904 171.155 69.224C171.443 69.5333 171.774 69.7733 172.147 69.944C172.531 70.1147 172.936 70.2 173.363 70.2ZM183.446 63.624C182.72 63.6453 182.08 63.848 181.526 64.232C180.982 64.616 180.598 65.144 180.374 65.816V71H179.286V62.664H180.31V64.664C180.598 64.0773 180.976 63.6027 181.446 63.24C181.926 62.8773 182.432 62.6747 182.966 62.632C183.072 62.6213 183.163 62.616 183.238 62.616C183.323 62.616 183.392 62.6213 183.446 62.632V63.624ZM183.872 68.6C183.872 68.0773 184.021 67.6293 184.32 67.256C184.618 66.872 185.029 66.5787 185.552 66.376C186.085 66.1627 186.698 66.056 187.392 66.056C187.797 66.056 188.218 66.088 188.656 66.152C189.093 66.216 189.482 66.312 189.824 66.44V65.736C189.824 65.032 189.616 64.472 189.2 64.056C188.784 63.64 188.208 63.432 187.472 63.432C187.024 63.432 186.581 63.5173 186.144 63.688C185.717 63.848 185.269 64.088 184.8 64.408L184.384 63.64C184.928 63.2667 185.461 62.9893 185.984 62.808C186.506 62.616 187.04 62.52 187.584 62.52C188.608 62.52 189.418 62.8133 190.016 63.4C190.613 63.9867 190.912 64.7973 190.912 65.832V69.688C190.912 69.8373 190.944 69.9493 191.008 70.024C191.072 70.088 191.173 70.1253 191.312 70.136V71C191.194 71.0107 191.093 71.0213 191.008 71.032C190.922 71.0427 190.858 71.0427 190.816 71.032C190.549 71.0213 190.346 70.936 190.208 70.776C190.069 70.616 189.994 70.4453 189.984 70.264L189.968 69.656C189.594 70.136 189.109 70.5093 188.512 70.776C187.914 71.032 187.306 71.16 186.688 71.16C186.154 71.16 185.669 71.048 185.232 70.824C184.805 70.5893 184.469 70.28 184.224 69.896C183.989 69.5013 183.872 69.0693 183.872 68.6ZM189.456 69.24C189.573 69.0907 189.664 68.9467 189.728 68.808C189.792 68.6693 189.824 68.5467 189.824 68.44V67.224C189.461 67.0853 189.082 66.9787 188.688 66.904C188.304 66.8293 187.914 66.792 187.52 66.792C186.741 66.792 186.112 66.9467 185.632 67.256C185.152 67.5653 184.912 67.9867 184.912 68.52C184.912 68.8293 184.992 69.1227 185.152 69.4C185.312 69.6667 185.546 69.8907 185.856 70.072C186.165 70.2427 186.528 70.328 186.944 70.328C187.466 70.328 187.952 70.2267 188.4 70.024C188.858 69.8213 189.21 69.56 189.456 69.24ZM205.342 71H204.254V66.344C204.254 65.3733 204.1 64.6587 203.79 64.2C203.481 63.7413 203.022 63.512 202.414 63.512C201.785 63.512 201.22 63.736 200.718 64.184C200.228 64.632 199.881 65.208 199.678 65.912V71H198.59V66.344C198.59 65.3627 198.441 64.648 198.142 64.2C197.844 63.7413 197.385 63.512 196.766 63.512C196.148 63.512 195.588 63.7307 195.086 64.168C194.585 64.6053 194.233 65.1813 194.03 65.896V71H192.942V62.664H193.934V64.552C194.286 63.9013 194.734 63.4 195.278 63.048C195.833 62.696 196.446 62.52 197.118 62.52C197.812 62.52 198.372 62.7173 198.798 63.112C199.225 63.5067 199.486 64.024 199.582 64.664C199.966 63.96 200.425 63.4267 200.958 63.064C201.502 62.7013 202.116 62.52 202.798 62.52C203.268 62.52 203.662 62.6053 203.982 62.776C204.313 62.9467 204.574 63.192 204.766 63.512C204.969 63.8213 205.113 64.2 205.198 64.648C205.294 65.0853 205.342 65.576 205.342 66.12V71Z" fill="#133033" fill-opacity="0.5"/>
<path d="M29.3635 26.112V48H22.7395V13.92H28.0195L45.6355 36.384V13.968H52.2595V48H46.7395L29.3635 26.112ZM69.967 48.48C67.951 48.48 66.127 48.144 64.495 47.472C62.863 46.768 61.471 45.824 60.319 44.64C59.167 43.424 58.271 42.048 57.631 40.512C57.023 38.944 56.719 37.296 56.719 35.568C56.719 33.168 57.247 30.976 58.303 28.992C59.391 27.008 60.927 25.424 62.911 24.24C64.927 23.024 67.295 22.416 70.015 22.416C72.767 22.416 75.119 23.024 77.071 24.24C79.023 25.424 80.511 27.008 81.535 28.992C82.591 30.944 83.119 33.056 83.119 35.328C83.119 35.712 83.103 36.112 83.071 36.528C83.039 36.912 83.007 37.232 82.975 37.488H63.535C63.663 38.768 64.031 39.888 64.639 40.848C65.279 41.808 66.079 42.544 67.039 43.056C68.031 43.536 69.087 43.776 70.207 43.776C71.487 43.776 72.687 43.472 73.807 42.864C74.959 42.224 75.743 41.392 76.159 40.368L81.679 41.904C81.071 43.184 80.191 44.32 79.039 45.312C77.919 46.304 76.591 47.088 75.055 47.664C73.519 48.208 71.823 48.48 69.967 48.48ZM63.391 33.408H76.543C76.415 32.128 76.047 31.024 75.439 30.096C74.863 29.136 74.095 28.4 73.135 27.888C72.175 27.344 71.103 27.072 69.919 27.072C68.767 27.072 67.711 27.344 66.751 27.888C65.823 28.4 65.055 29.136 64.447 30.096C63.871 31.024 63.519 32.128 63.391 33.408ZM101.341 48.48C99.4214 48.48 97.7094 48.048 96.2054 47.184C94.7014 46.32 93.5174 45.136 92.6534 43.632V48H87.0374V12.96H93.4694V27.264C94.3654 25.76 95.5334 24.576 96.9734 23.712C98.4454 22.848 100.157 22.416 102.109 22.416C103.741 22.416 105.229 22.768 106.573 23.472C107.917 24.144 109.069 25.088 110.029 26.304C111.021 27.52 111.773 28.912 112.285 30.48C112.829 32.048 113.101 33.728 113.101 35.52C113.101 37.312 112.797 38.992 112.189 40.56C111.613 42.128 110.797 43.52 109.741 44.736C108.685 45.92 107.437 46.848 105.997 47.52C104.589 48.16 103.037 48.48 101.341 48.48ZM99.5654 43.008C100.589 43.008 101.517 42.816 102.349 42.432C103.213 42.016 103.949 41.472 104.557 40.8C105.197 40.128 105.677 39.344 105.997 38.448C106.349 37.52 106.525 36.56 106.525 35.568C106.525 34.192 106.237 32.928 105.661 31.776C105.117 30.592 104.349 29.648 103.357 28.944C102.397 28.24 101.261 27.888 99.9494 27.888C99.0214 27.888 98.1254 28.112 97.2614 28.56C96.4294 28.976 95.6774 29.552 95.0054 30.288C94.3654 31.024 93.8534 31.856 93.4694 32.784V38.784C93.6614 39.424 93.9654 40 94.3814 40.512C94.8294 41.024 95.3414 41.472 95.9174 41.856C96.4934 42.208 97.0854 42.496 97.6934 42.72C98.3334 42.912 98.9574 43.008 99.5654 43.008ZM117.219 38.592V22.848H123.651V37.2C123.651 39.12 124.003 40.576 124.707 41.568C125.411 42.528 126.451 43.008 127.827 43.008C128.659 43.008 129.475 42.848 130.275 42.528C131.107 42.176 131.859 41.664 132.531 40.992C133.235 40.32 133.827 39.472 134.307 38.448V22.848H140.739V40.8C140.739 41.472 140.851 41.952 141.075 42.24C141.331 42.528 141.731 42.704 142.275 42.768V48C141.635 48.096 141.091 48.16 140.643 48.192C140.227 48.256 139.843 48.288 139.491 48.288C138.339 48.288 137.395 48.032 136.659 47.52C135.955 46.976 135.539 46.24 135.411 45.312L135.267 43.296C134.147 44.992 132.707 46.288 130.947 47.184C129.187 48.048 127.251 48.48 125.139 48.48C122.547 48.48 120.579 47.648 119.235 45.984C117.891 44.288 117.219 41.824 117.219 38.592ZM147.083 12.96H153.515V39.936C153.515 41.088 153.707 41.872 154.091 42.288C154.475 42.672 155.003 42.864 155.675 42.864C156.187 42.864 156.715 42.8 157.259 42.672C157.803 42.544 158.283 42.384 158.699 42.192L159.563 47.088C158.699 47.504 157.691 47.824 156.539 48.048C155.387 48.272 154.347 48.384 153.419 48.384C151.403 48.384 149.835 47.856 148.715 46.8C147.627 45.712 147.083 44.176 147.083 42.192V12.96ZM160.638 40.56C160.638 38.928 161.086 37.504 161.982 36.288C162.91 35.04 164.19 34.08 165.822 33.408C167.454 32.736 169.326 32.4 171.438 32.4C172.494 32.4 173.566 32.48 174.654 32.64C175.742 32.8 176.686 33.056 177.486 33.408V32.064C177.486 30.464 177.006 29.232 176.046 28.368C175.118 27.504 173.726 27.072 171.87 27.072C170.494 27.072 169.182 27.312 167.934 27.792C166.686 28.272 165.374 28.976 163.998 29.904L161.934 25.68C163.598 24.592 165.294 23.776 167.022 23.232C168.782 22.688 170.622 22.416 172.542 22.416C176.126 22.416 178.91 23.312 180.894 25.104C182.91 26.896 183.918 29.456 183.918 32.784V40.8C183.918 41.472 184.03 41.952 184.254 42.24C184.51 42.528 184.91 42.704 185.454 42.768V48C184.878 48.096 184.35 48.176 183.87 48.24C183.422 48.304 183.038 48.336 182.718 48.336C181.438 48.336 180.462 48.048 179.79 47.472C179.15 46.896 178.75 46.192 178.59 45.36L178.446 44.064C177.358 45.472 175.998 46.56 174.366 47.328C172.734 48.096 171.07 48.48 169.374 48.48C167.71 48.48 166.206 48.144 164.862 47.472C163.55 46.768 162.51 45.824 161.742 44.64C161.006 43.424 160.638 42.064 160.638 40.56ZM176.286 41.856C176.638 41.472 176.926 41.088 177.15 40.704C177.374 40.32 177.486 39.968 177.486 39.648V37.104C176.718 36.784 175.886 36.544 174.99 36.384C174.094 36.192 173.246 36.096 172.446 36.096C170.782 36.096 169.406 36.464 168.318 37.2C167.262 37.904 166.734 38.848 166.734 40.032C166.734 40.672 166.91 41.28 167.262 41.856C167.614 42.432 168.126 42.896 168.798 43.248C169.47 43.6 170.27 43.776 171.198 43.776C172.158 43.776 173.102 43.6 174.03 43.248C174.958 42.864 175.71 42.4 176.286 41.856Z" fill="#071112"/>
<path d="M195.547 29.0035C194.542 30.3087 192.669 30.5519 191.364 29.5467C190.059 28.5415 189.815 26.6685 190.821 25.3633C191.826 24.0581 193.699 23.8149 195.004 24.8201C196.309 25.8253 196.552 27.6983 195.547 29.0035Z" fill="#071112"/>
<path d="M176.172 12.3571C175.166 13.6623 173.293 13.9055 171.988 12.9003C170.683 11.8951 170.44 10.0221 171.445 8.71692C172.45 7.4117 174.323 7.16849 175.628 8.1737C176.934 9.17891 177.177 11.0519 176.172 12.3571Z" fill="#071112"/>
<path d="M195.547 21.0035C194.542 22.3087 192.669 22.5519 191.364 21.5467C190.059 20.5415 189.815 18.6685 190.821 17.3633C191.826 16.0581 193.699 15.8149 195.004 16.8201C196.309 17.8253 196.552 19.6983 195.547 21.0035Z" fill="#071112"/>
<path d="M184.172 11.3572C183.166 12.6624 181.293 12.9056 179.988 11.9004C178.683 10.8952 178.44 9.02224 179.445 7.71702C180.45 6.41179 182.323 6.16858 183.628 7.17379C184.934 8.179 185.177 10.052 184.172 11.3572Z" fill="#071112"/>
<path d="M191.3 13.8348C190.294 15.14 188.421 15.3832 187.116 14.378C185.811 13.3728 185.568 11.4998 186.573 10.1946C187.578 8.88936 189.451 8.64615 190.756 9.65136C192.062 10.6566 192.305 12.5296 191.3 13.8348Z" fill="#071112"/>
<path d="M199.655 32.318C199.052 33.1011 197.928 33.247 197.145 32.6439C196.362 32.0408 196.216 30.917 196.819 30.1339C197.422 29.3507 198.546 29.2048 199.329 29.8079C200.112 30.411 200.258 31.5348 199.655 32.318Z" fill="#071112"/>
<path d="M169.405 9.02075C168.802 9.80389 167.678 9.94981 166.895 9.34669C166.112 8.74356 165.966 7.61977 166.569 6.83664C167.172 6.0535 168.296 5.90758 169.079 6.51071C169.862 7.11383 170.008 8.23762 169.405 9.02075Z" fill="#071112"/>
<path d="M200.97 22.7885C200.367 23.5717 199.243 23.7176 198.46 23.1145C197.677 22.5113 197.531 21.3875 198.134 20.6044C198.737 19.8213 199.861 19.6753 200.644 20.2785C201.427 20.8816 201.573 22.0054 200.97 22.7885Z" fill="#071112"/>
<path d="M178.282 5.31561C177.679 6.09874 176.555 6.24467 175.772 5.64154C174.989 5.03842 174.843 3.91463 175.446 3.1315C176.049 2.34836 177.173 2.20244 177.956 2.80556C178.74 3.40869 178.885 4.53248 178.282 5.31561Z" fill="#071112"/>
<path d="M198.851 39.2287C198.248 40.0118 197.124 40.1578 196.341 39.5546C195.558 38.9515 195.412 37.8277 196.015 37.0446C196.618 36.2615 197.742 36.1155 198.525 36.7187C199.308 37.3218 199.454 38.4456 198.851 39.2287Z" fill="#071112"/>
<path d="M202.931 28.064C202.529 28.5861 201.78 28.6834 201.258 28.2813C200.736 27.8792 200.639 27.13 201.041 26.6079C201.443 26.0858 202.192 25.9885 202.714 26.3906C203.236 26.7927 203.333 27.5419 202.931 28.064Z" fill="#071112"/>
<path d="M201.41 16.3504C201.008 16.8725 200.259 16.9698 199.737 16.5677C199.215 16.1656 199.118 15.4164 199.52 14.8944C199.922 14.3723 200.671 14.275 201.193 14.6771C201.715 15.0792 201.812 15.8283 201.41 16.3504Z" fill="#071112"/>
<path d="M194.722 7.43478C194.119 8.21791 192.996 8.36384 192.212 7.76071C191.429 7.15758 191.283 6.0338 191.887 5.25066C192.49 4.46753 193.613 4.3216 194.397 4.92473C195.18 5.52785 195.326 6.65164 194.722 7.43478Z" fill="#071112"/>
<path d="M172.464 3.09341C172.062 3.6155 171.312 3.71279 170.79 3.3107C170.268 2.90862 170.171 2.15943 170.573 1.63734C170.975 1.11525 171.724 1.01796 172.246 1.42005C172.768 1.82213 172.866 2.57132 172.464 3.09341Z" fill="#071112"/>
<path d="M197.265 13.9109C196.662 14.6941 195.538 14.84 194.755 14.2369C193.972 13.6338 193.826 12.51 194.429 11.7268C195.032 10.9437 196.156 10.7978 196.939 11.4009C197.722 12.004 197.868 13.1278 197.265 13.9109Z" fill="#071112"/>
<path d="M187.812 6.63057C187.209 7.4137 186.085 7.55963 185.302 6.9565C184.519 6.35338 184.373 5.22959 184.976 4.44646C185.579 3.66332 186.703 3.51739 187.486 4.12052C188.269 4.72365 188.415 5.84743 187.812 6.63057Z" fill="#071112"/>
<path d="M183.449 2.51771C183.047 3.0398 182.298 3.13709 181.776 2.735C181.254 2.33292 181.156 1.58373 181.558 1.06164C181.961 0.539549 182.71 0.442265 183.232 0.844349C183.754 1.24643 183.851 1.99562 183.449 2.51771Z" fill="#071112"/>
<path d="M162.929 11.5633C162.325 12.3464 161.202 12.4923 160.419 11.8892C159.635 11.2861 159.489 10.1623 160.093 9.37916C160.696 8.59603 161.819 8.4501 162.603 9.05323C163.386 9.65635 163.532 10.7801 162.929 11.5633Z" fill="#071112"/>
</svg>
