<svg width="207" height="83" viewBox="0 0 207 83" fill="none" xmlns="http://www.w3.org/2000/svg">
<text fill="#133033" fill-opacity="0.5" xml:space="preserve" style="white-space: pre" font-family="Raleway" font-size="16" letter-spacing="-0.02em"><tspan x="144.663" y="71.36">Program</tspan></text>
<text fill="#133033" fill-opacity="0.5" xml:space="preserve" style="white-space: pre" font-family="Raleway" font-size="16" letter-spacing="-0.02em"><tspan x="0" y="71.36">Training &#38; Coaching </tspan></text>
<text fill="#139D3D" xml:space="preserve" style="white-space: pre" font-family="Raleway" font-size="48" font-weight="bold" letter-spacing="0em"><tspan x="19.1875" y="48.04">Nebula</tspan></text>
<path d="M195.547 29.0035C194.542 30.3087 192.669 30.5519 191.364 29.5467C190.059 28.5415 189.815 26.6685 190.821 25.3633C191.826 24.0581 193.699 23.8149 195.004 24.8201C196.309 25.8253 196.552 27.6983 195.547 29.0035Z" fill="#65C5D0"/>
<path d="M176.172 12.3571C175.166 13.6623 173.293 13.9055 171.988 12.9003C170.683 11.8951 170.44 10.0221 171.445 8.71692C172.45 7.4117 174.323 7.16849 175.628 8.1737C176.934 9.17891 177.177 11.0519 176.172 12.3571Z" fill="#65C5D0"/>
<path d="M195.547 21.0035C194.542 22.3087 192.669 22.5519 191.364 21.5467C190.059 20.5415 189.815 18.6685 190.821 17.3633C191.826 16.0581 193.699 15.8149 195.004 16.8201C196.309 17.8253 196.552 19.6983 195.547 21.0035Z" fill="#65C5D0"/>
<path d="M184.172 11.3572C183.166 12.6624 181.293 12.9056 179.988 11.9004C178.683 10.8952 178.44 9.02224 179.445 7.71702C180.45 6.41179 182.323 6.16858 183.628 7.17379C184.934 8.179 185.177 10.052 184.172 11.3572Z" fill="#65C5D0"/>
<path d="M191.3 13.8348C190.294 15.14 188.421 15.3832 187.116 14.378C185.811 13.3728 185.568 11.4998 186.573 10.1946C187.578 8.88936 189.451 8.64615 190.756 9.65136C192.062 10.6566 192.305 12.5296 191.3 13.8348Z" fill="#65C5D0"/>
<path d="M199.655 32.318C199.052 33.1011 197.928 33.247 197.145 32.6439C196.362 32.0408 196.216 30.917 196.819 30.1339C197.422 29.3507 198.546 29.2048 199.329 29.8079C200.112 30.411 200.258 31.5348 199.655 32.318Z" fill="#F0B14E"/>
<path d="M169.405 9.02075C168.802 9.80389 167.678 9.94981 166.895 9.34669C166.112 8.74356 165.966 7.61977 166.569 6.83664C167.172 6.0535 168.296 5.90758 169.079 6.51071C169.862 7.11383 170.008 8.23762 169.405 9.02075Z" fill="#F0B14E"/>
<path d="M200.97 22.7885C200.367 23.5717 199.243 23.7176 198.46 23.1145C197.677 22.5113 197.531 21.3875 198.134 20.6044C198.737 19.8213 199.861 19.6753 200.644 20.2785C201.427 20.8816 201.573 22.0054 200.97 22.7885Z" fill="#F0B14E"/>
<path d="M178.282 5.31561C177.679 6.09874 176.555 6.24467 175.772 5.64154C174.989 5.03842 174.843 3.91463 175.446 3.1315C176.049 2.34836 177.173 2.20244 177.956 2.80556C178.74 3.40869 178.885 4.53248 178.282 5.31561Z" fill="#F0B14E"/>
<path d="M198.851 39.2287C198.248 40.0118 197.124 40.1578 196.341 39.5546C195.558 38.9515 195.412 37.8277 196.015 37.0446C196.618 36.2615 197.742 36.1155 198.525 36.7187C199.308 37.3218 199.454 38.4456 198.851 39.2287Z" fill="#139D3D"/>
<path d="M202.931 28.064C202.529 28.5861 201.78 28.6834 201.258 28.2813C200.736 27.8792 200.639 27.13 201.041 26.6079C201.443 26.0858 202.192 25.9885 202.714 26.3906C203.236 26.7927 203.333 27.5419 202.931 28.064Z" fill="#139D3D"/>
<path d="M201.41 16.3504C201.008 16.8725 200.259 16.9698 199.737 16.5677C199.215 16.1656 199.118 15.4164 199.52 14.8944C199.922 14.3723 200.671 14.275 201.193 14.6771C201.715 15.0792 201.812 15.8283 201.41 16.3504Z" fill="#139D3D"/>
<path d="M194.722 7.43478C194.119 8.21791 192.996 8.36384 192.212 7.76071C191.429 7.15758 191.283 6.0338 191.887 5.25066C192.49 4.46753 193.613 4.3216 194.397 4.92473C195.18 5.52785 195.326 6.65164 194.722 7.43478Z" fill="#F0B14E"/>
<path d="M172.464 3.09341C172.062 3.6155 171.312 3.71279 170.79 3.3107C170.268 2.90862 170.171 2.15943 170.573 1.63734C170.975 1.11525 171.724 1.01796 172.246 1.42005C172.768 1.82213 172.866 2.57132 172.464 3.09341Z" fill="#139D3D"/>
<path d="M197.265 13.9109C196.662 14.6941 195.538 14.84 194.755 14.2369C193.972 13.6338 193.826 12.51 194.429 11.7268C195.032 10.9437 196.156 10.7978 196.939 11.4009C197.722 12.004 197.868 13.1278 197.265 13.9109Z" fill="#F0B14E"/>
<path d="M187.812 6.63057C187.209 7.4137 186.085 7.55963 185.302 6.9565C184.519 6.35338 184.373 5.22959 184.976 4.44646C185.579 3.66332 186.703 3.51739 187.486 4.12052C188.269 4.72365 188.415 5.84743 187.812 6.63057Z" fill="#F0B14E"/>
<path d="M183.449 2.51771C183.047 3.0398 182.298 3.13709 181.776 2.735C181.254 2.33292 181.156 1.58373 181.558 1.06164C181.961 0.539549 182.71 0.442265 183.232 0.844349C183.754 1.24643 183.851 1.99562 183.449 2.51771Z" fill="#139D3D"/>
<path d="M162.929 11.5633C162.325 12.3464 161.202 12.4923 160.419 11.8892C159.635 11.2861 159.489 10.1623 160.093 9.37916C160.696 8.59603 161.819 8.4501 162.603 9.05323C163.386 9.65635 163.532 10.7801 162.929 11.5633Z" fill="#139D3D"/>
</svg>
