<svg width="185" height="49" viewBox="0 0 185 49" fill="none" xmlns="http://www.w3.org/2000/svg">
<text fill="#071112" xml:space="preserve" style="white-space: pre" font-family="Raleway" font-size="48" font-weight="bold" letter-spacing="0em"><tspan x="0.1875" y="48.04">Nebula</tspan></text>
<path d="M176.547 29.0035C175.542 30.3087 173.669 30.5519 172.364 29.5467C171.059 28.5415 170.815 26.6685 171.821 25.3633C172.826 24.0581 174.699 23.8149 176.004 24.8201C177.309 25.8253 177.552 27.6983 176.547 29.0035Z" fill="#071112"/>
<path d="M157.172 12.3571C156.166 13.6623 154.293 13.9055 152.988 12.9003C151.683 11.8951 151.44 10.0221 152.445 8.71692C153.45 7.4117 155.323 7.16849 156.628 8.1737C157.934 9.17891 158.177 11.0519 157.172 12.3571Z" fill="#071112"/>
<path d="M176.547 21.0035C175.542 22.3087 173.669 22.5519 172.364 21.5467C171.059 20.5415 170.815 18.6685 171.821 17.3633C172.826 16.0581 174.699 15.8149 176.004 16.8201C177.309 17.8253 177.552 19.6983 176.547 21.0035Z" fill="#071112"/>
<path d="M165.172 11.3572C164.166 12.6624 162.293 12.9056 160.988 11.9004C159.683 10.8952 159.44 9.02224 160.445 7.71702C161.45 6.41179 163.323 6.16858 164.628 7.17379C165.934 8.179 166.177 10.052 165.172 11.3572Z" fill="#071112"/>
<path d="M172.3 13.8348C171.294 15.14 169.421 15.3832 168.116 14.378C166.811 13.3728 166.568 11.4998 167.573 10.1946C168.578 8.88936 170.451 8.64615 171.756 9.65136C173.062 10.6566 173.305 12.5296 172.3 13.8348Z" fill="#071112"/>
<path d="M180.655 32.318C180.052 33.1011 178.928 33.247 178.145 32.6439C177.362 32.0408 177.216 30.917 177.819 30.1339C178.422 29.3507 179.546 29.2048 180.329 29.8079C181.112 30.411 181.258 31.5348 180.655 32.318Z" fill="#071112"/>
<path d="M150.405 9.02075C149.802 9.80389 148.678 9.94981 147.895 9.34669C147.112 8.74356 146.966 7.61977 147.569 6.83664C148.172 6.0535 149.296 5.90758 150.079 6.51071C150.862 7.11383 151.008 8.23762 150.405 9.02075Z" fill="#071112"/>
<path d="M181.97 22.7885C181.367 23.5717 180.243 23.7176 179.46 23.1145C178.677 22.5113 178.531 21.3875 179.134 20.6044C179.737 19.8213 180.861 19.6753 181.644 20.2785C182.427 20.8816 182.573 22.0054 181.97 22.7885Z" fill="#071112"/>
<path d="M159.282 5.31561C158.679 6.09874 157.555 6.24467 156.772 5.64154C155.989 5.03842 155.843 3.91463 156.446 3.1315C157.049 2.34836 158.173 2.20244 158.956 2.80556C159.74 3.40869 159.885 4.53248 159.282 5.31561Z" fill="#071112"/>
<path d="M179.851 39.2287C179.248 40.0118 178.124 40.1578 177.341 39.5546C176.558 38.9515 176.412 37.8277 177.015 37.0446C177.618 36.2615 178.742 36.1155 179.525 36.7187C180.308 37.3218 180.454 38.4456 179.851 39.2287Z" fill="#071112"/>
<path d="M183.931 28.064C183.529 28.5861 182.78 28.6834 182.258 28.2813C181.736 27.8792 181.639 27.13 182.041 26.6079C182.443 26.0858 183.192 25.9885 183.714 26.3906C184.236 26.7927 184.333 27.5419 183.931 28.064Z" fill="#071112"/>
<path d="M182.41 16.3504C182.008 16.8725 181.259 16.9698 180.737 16.5677C180.215 16.1656 180.118 15.4164 180.52 14.8944C180.922 14.3723 181.671 14.275 182.193 14.6771C182.715 15.0792 182.812 15.8283 182.41 16.3504Z" fill="#071112"/>
<path d="M175.722 7.43478C175.119 8.21791 173.996 8.36384 173.212 7.76071C172.429 7.15758 172.283 6.0338 172.887 5.25066C173.49 4.46753 174.613 4.3216 175.397 4.92473C176.18 5.52785 176.326 6.65164 175.722 7.43478Z" fill="#071112"/>
<path d="M153.464 3.09341C153.062 3.6155 152.312 3.71279 151.79 3.3107C151.268 2.90862 151.171 2.15943 151.573 1.63734C151.975 1.11525 152.724 1.01796 153.246 1.42005C153.768 1.82213 153.866 2.57132 153.464 3.09341Z" fill="#071112"/>
<path d="M178.265 13.9109C177.662 14.6941 176.538 14.84 175.755 14.2369C174.972 13.6338 174.826 12.51 175.429 11.7268C176.032 10.9437 177.156 10.7978 177.939 11.4009C178.722 12.004 178.868 13.1278 178.265 13.9109Z" fill="#071112"/>
<path d="M168.812 6.63057C168.209 7.4137 167.085 7.55963 166.302 6.9565C165.519 6.35338 165.373 5.22959 165.976 4.44646C166.579 3.66332 167.703 3.51739 168.486 4.12052C169.269 4.72365 169.415 5.84743 168.812 6.63057Z" fill="#071112"/>
<path d="M164.449 2.51771C164.047 3.0398 163.298 3.13709 162.776 2.735C162.254 2.33292 162.156 1.58373 162.558 1.06164C162.961 0.539549 163.71 0.442265 164.232 0.844349C164.754 1.24643 164.851 1.99562 164.449 2.51771Z" fill="#071112"/>
<path d="M143.929 11.5633C143.325 12.3464 142.202 12.4923 141.419 11.8892C140.635 11.2861 140.489 10.1623 141.093 9.37916C141.696 8.59603 142.819 8.4501 143.603 9.05323C144.386 9.65635 144.532 10.7801 143.929 11.5633Z" fill="#071112"/>
</svg>
