<svg width="648" height="1098" viewBox="0 0 648 1098" fill="none" xmlns="http://www.w3.org/2000/svg">
<g clip-path="url(#clip0_959_370)">
<rect x="648" width="1098" height="648" rx="4" transform="rotate(90 648 0)" fill="white"/>
<g filter="url(#filter0_d_959_370)">
<path d="M693.877 67.9123C793.455 336.729 606.63 564.557 376.878 505.633C267.965 477.7 123.509 370.95 12.5939 152.089C-140.801 -150.948 -61.4485 -515.855 43.8021 -701C226.385 -118.135 514.216 -321.566 693.877 67.9123Z" fill="#020887"/>
</g>
<g filter="url(#filter1_d_959_370)">
<path d="M809.463 613.137C891.329 834.136 737.736 1021.44 548.853 972.995C459.314 950.031 340.553 862.269 249.368 682.34C123.26 433.208 188.497 133.211 275.025 -19C425.13 460.184 661.761 292.94 809.463 613.137Z" fill="url(#paint0_linear_959_370)"/>
</g>
<mask id="path-4-inside-1_959_370" fill="white">
<path fill-rule="evenodd" clip-rule="evenodd" d="M187.888 1010.55C181.683 1000.05 180.173 985.902 186.121 970.749C196.859 948.783 210.417 941.403 224.368 933.809C242.401 923.994 261.09 913.821 275.195 871.331C289.616 895.27 300.489 942.451 279.471 981.633C264.273 1009.93 244.48 1023.73 229.557 1027.34C217.099 1030.36 205.563 1027.57 197.015 1020.94L257.177 952.861L187.888 1010.55Z"/>
</mask>
<path fill-rule="evenodd" clip-rule="evenodd" d="M187.888 1010.55C181.683 1000.05 180.173 985.902 186.121 970.749C196.859 948.783 210.417 941.403 224.368 933.809C242.401 923.994 261.09 913.821 275.195 871.331C289.616 895.27 300.489 942.451 279.471 981.633C264.273 1009.93 244.48 1023.73 229.557 1027.34C217.099 1030.36 205.563 1027.57 197.015 1020.94L257.177 952.861L187.888 1010.55Z" fill="url(#paint1_linear_959_370)"/>
<path d="M186.121 970.749L182.728 969.417L182.781 969.28L182.846 969.148L186.121 970.749ZM187.888 1010.55L190.221 1013.36L186.928 1016.1L184.749 1012.41L187.888 1010.55ZM224.368 933.809L226.111 937.011L224.368 933.809ZM275.195 871.331L271.735 870.182L274.23 862.665L278.318 869.45L275.195 871.331ZM279.471 981.633L282.684 983.356L282.683 983.358L279.471 981.633ZM229.557 1027.34L230.414 1030.89L229.557 1027.34ZM197.015 1020.94L194.782 1023.82L191.709 1021.44L194.283 1018.53L197.015 1020.94ZM257.177 952.861L254.844 950.06L259.909 955.275L257.177 952.861ZM189.515 972.081C183.938 986.287 185.444 999.247 191.027 1008.7L184.749 1012.41C177.922 1000.85 176.407 985.517 182.728 969.417L189.515 972.081ZM226.111 937.011C212.309 944.524 199.614 951.448 189.396 972.35L182.846 969.148C194.104 946.117 208.525 938.282 222.625 930.607L226.111 937.011ZM278.655 872.48C271.475 894.108 263.036 907.783 253.889 917.343C244.762 926.881 235.112 932.112 226.111 937.011L222.625 930.607C231.657 925.691 240.368 920.927 248.62 912.302C256.852 903.699 264.81 891.044 271.735 870.182L278.655 872.48ZM276.258 979.909C296.493 942.189 286.047 896.41 272.072 873.212L278.318 869.45C293.185 894.129 304.486 942.713 282.684 983.356L276.258 979.909ZM228.699 1023.8C242.375 1020.49 261.422 1007.53 276.259 979.908L282.683 983.358C267.125 1012.33 246.585 1026.97 230.414 1030.89L228.699 1023.8ZM199.249 1018.06C206.898 1023.99 217.291 1026.56 228.699 1023.8L230.414 1030.89C216.908 1034.16 204.229 1031.15 194.782 1023.82L199.249 1018.06ZM194.283 1018.53L254.445 950.447L259.909 955.275L199.747 1023.36L194.283 1018.53ZM259.51 955.663L190.221 1013.36L185.556 1007.75L254.844 950.06L259.51 955.663Z" fill="#139D3D" fill-opacity="0.47" mask="url(#path-4-inside-1_959_370)"/>
<mask id="path-6-inside-2_959_370" fill="white">
<path fill-rule="evenodd" clip-rule="evenodd" d="M173.31 1010.56C179.516 1000.05 181.027 985.903 175.078 970.749C164.34 948.783 150.782 941.403 136.831 933.809C118.798 923.994 100.109 913.821 86.0043 871.331C71.5828 895.27 60.7099 942.451 81.7281 981.633C96.9258 1009.93 116.719 1023.73 131.643 1027.34C144.099 1030.36 155.634 1027.57 164.182 1020.94L104.019 952.861L173.31 1010.56Z"/>
</mask>
<path fill-rule="evenodd" clip-rule="evenodd" d="M173.31 1010.56C179.516 1000.05 181.027 985.903 175.078 970.749C164.34 948.783 150.782 941.403 136.831 933.809C118.798 923.994 100.109 913.821 86.0043 871.331C71.5828 895.27 60.7099 942.451 81.7281 981.633C96.9258 1009.93 116.719 1023.73 131.643 1027.34C144.099 1030.36 155.634 1027.57 164.182 1020.94L104.019 952.861L173.31 1010.56Z" fill="url(#paint2_linear_959_370)"/>
<path d="M175.078 970.749L178.472 969.417L178.418 969.28L178.353 969.148L175.078 970.749ZM173.31 1010.56L170.977 1013.36L174.27 1016.1L176.449 1012.41L173.31 1010.56ZM136.831 933.809L135.088 937.011L136.831 933.809ZM86.0043 871.331L89.4643 870.182L86.9688 862.665L82.8815 869.45L86.0043 871.331ZM81.7281 981.633L78.5155 983.356L78.5163 983.358L81.7281 981.633ZM131.643 1027.34L130.785 1030.89H130.785L131.643 1027.34ZM164.182 1020.94L166.415 1023.82L169.488 1021.44L166.914 1018.53L164.182 1020.94ZM104.019 952.861L106.351 950.059L101.287 955.275L104.019 952.861ZM171.684 972.081C177.262 986.288 175.755 999.249 170.171 1008.7L176.449 1012.41C183.277 1000.85 184.792 985.518 178.472 969.417L171.684 972.081ZM135.088 937.011C148.89 944.524 161.585 951.448 171.803 972.35L178.353 969.148C167.095 946.117 152.674 938.282 138.574 930.607L135.088 937.011ZM82.5443 872.48C89.724 894.108 98.1635 907.783 107.311 917.343C116.437 926.881 126.087 932.112 135.088 937.011L138.574 930.607C129.542 925.691 120.831 920.927 112.579 912.302C104.347 903.699 96.3897 891.044 89.4643 870.182L82.5443 872.48ZM84.9408 979.909C64.7062 942.189 75.1518 896.41 89.1271 873.212L82.8815 869.45C68.0138 894.129 56.7135 942.713 78.5155 983.356L84.9408 979.909ZM132.5 1023.8C118.824 1020.49 99.7772 1007.53 84.9399 979.908L78.5163 983.358C94.0744 1012.33 114.615 1026.97 130.785 1030.89L132.5 1023.8ZM161.948 1018.06C154.299 1023.99 143.907 1026.56 132.5 1023.8L130.785 1030.89C144.29 1034.16 156.969 1031.15 166.415 1023.82L161.948 1018.06ZM166.914 1018.53L106.75 950.447L101.287 955.275L161.45 1023.36L166.914 1018.53ZM101.686 955.663L170.977 1013.36L175.643 1007.75L106.351 950.059L101.686 955.663Z" fill="#139D3D" fill-opacity="0.47" mask="url(#path-6-inside-2_959_370)"/>
<text fill="url(#paint3_linear_959_370)" stroke="#139D3D" stroke-opacity="0.12" stroke-width="2.18741" xml:space="preserve" style="white-space: pre" font-family="Raleway" font-size="75.5018" font-weight="bold" letter-spacing="0em"><tspan x="106.506" y="898.152">OLS</tspan></text>
<text transform="translate(581 855) rotate(-90)" fill="white" xml:space="preserve" style="white-space: pre" font-family="Raleway" font-size="24" font-weight="bold" letter-spacing="1px"><tspan x="17.4766" y="22.56"> mentoring &#38; training program for open research ambassadors.</tspan></text>
<text transform="translate(581 855) rotate(-90)" fill="white" xml:space="preserve" style="white-space: pre" font-family="Raleway" font-size="24" font-weight="bold" letter-spacing="1px"><tspan x="0.351562" y="22.56">A</tspan></text>
</g>
<defs>
<filter id="filter0_d_959_370" x="-190.381" y="-774.651" width="913.972" height="1335.68" filterUnits="userSpaceOnUse" color-interpolation-filters="sRGB">
<feFlood flood-opacity="0" result="BackgroundImageFix"/>
<feColorMatrix in="SourceAlpha" type="matrix" values="0 0 0 0 0 0 0 0 0 0 0 0 0 0 0 0 0 0 127 0" result="hardAlpha"/>
<feOffset dx="-57.5396" dy="-13.8095"/>
<feGaussianBlur stdDeviation="29.9206"/>
<feComposite in2="hardAlpha" operator="out"/>
<feColorMatrix type="matrix" values="0 0 0 0 0.104722 0 0 0 0 0.433333 0 0 0 0 0.204734 0 0 0 0.13 0"/>
<feBlend mode="normal" in2="BackgroundImageFix" result="effect1_dropShadow_959_370"/>
<feBlend mode="normal" in="SourceGraphic" in2="effect1_dropShadow_959_370" result="shape"/>
</filter>
<filter id="filter1_d_959_370" x="82.4992" y="-79.5495" width="751.393" height="1098.09" filterUnits="userSpaceOnUse" color-interpolation-filters="sRGB">
<feFlood flood-opacity="0" result="BackgroundImageFix"/>
<feColorMatrix in="SourceAlpha" type="matrix" values="0 0 0 0 0 0 0 0 0 0 0 0 0 0 0 0 0 0 127 0" result="hardAlpha"/>
<feOffset dx="-47.3043" dy="-11.353"/>
<feGaussianBlur stdDeviation="24.5982"/>
<feComposite in2="hardAlpha" operator="out"/>
<feColorMatrix type="matrix" values="0 0 0 0 0.104722 0 0 0 0 0.433333 0 0 0 0 0.204734 0 0 0 0.13 0"/>
<feBlend mode="normal" in2="BackgroundImageFix" result="effect1_dropShadow_959_370"/>
<feBlend mode="normal" in="SourceGraphic" in2="effect1_dropShadow_959_370" result="shape"/>
</filter>
<linearGradient id="paint0_linear_959_370" x1="505.5" y1="-263.707" x2="505.5" y2="980.696" gradientUnits="userSpaceOnUse">
<stop stop-color="#A5F200"/>
<stop offset="1" stop-color="#139D3D"/>
</linearGradient>
<linearGradient id="paint1_linear_959_370" x1="236.782" y1="832.845" x2="236.782" y2="1028.56" gradientUnits="userSpaceOnUse">
<stop stop-color="#A5F200"/>
<stop offset="1" stop-color="#139D3D"/>
</linearGradient>
<linearGradient id="paint2_linear_959_370" x1="124.417" y1="832.845" x2="124.417" y2="1028.56" gradientUnits="userSpaceOnUse">
<stop stop-color="#A5F200"/>
<stop offset="1" stop-color="#139D3D"/>
</linearGradient>
<linearGradient id="paint3_linear_959_370" x1="180.506" y1="763.898" x2="180.506" y2="916" gradientUnits="userSpaceOnUse">
<stop stop-color="#A5F200"/>
<stop offset="1" stop-color="#139D3D"/>
</linearGradient>
<clipPath id="clip0_959_370">
<rect x="648" width="1098" height="648" rx="4" transform="rotate(90 648 0)" fill="white"/>
</clipPath>
</defs>
</svg>
