<svg width="700" height="500" viewBox="0 0 700 500" fill="none" xmlns="http://www.w3.org/2000/svg">
<path d="M108 276.48C103.072 276.48 98.624 275.52 94.656 273.6C90.688 271.68 87.264 269.088 84.384 265.824C81.504 262.496 79.264 258.784 77.664 254.688C76.128 250.528 75.36 246.272 75.36 241.92C75.36 237.376 76.192 233.056 77.856 228.96C79.52 224.8 81.824 221.12 84.768 217.92C87.712 214.656 91.168 212.096 95.136 210.24C99.168 208.32 103.52 207.36 108.192 207.36C113.056 207.36 117.472 208.352 121.44 210.336C125.472 212.32 128.896 214.976 131.712 218.304C134.592 221.632 136.8 225.344 138.336 229.44C139.936 233.536 140.736 237.728 140.736 242.016C140.736 246.56 139.904 250.912 138.24 255.072C136.64 259.168 134.368 262.848 131.424 266.112C128.48 269.312 124.992 271.84 120.96 273.696C116.992 275.552 112.672 276.48 108 276.48ZM86.304 241.92C86.304 245.12 86.816 248.224 87.84 251.232C88.864 254.24 90.304 256.928 92.16 259.296C94.08 261.6 96.384 263.424 99.072 264.768C101.76 266.112 104.768 266.784 108.096 266.784C111.552 266.784 114.624 266.08 117.312 264.672C120 263.264 122.24 261.376 124.032 259.008C125.888 256.576 127.296 253.888 128.256 250.944C129.216 247.936 129.696 244.928 129.696 241.92C129.696 238.72 129.184 235.648 128.16 232.704C127.2 229.696 125.76 227.04 123.84 224.736C121.92 222.368 119.616 220.512 116.928 219.168C114.304 217.824 111.36 217.152 108.096 217.152C104.64 217.152 101.568 217.856 98.88 219.264C96.192 220.672 93.92 222.56 92.064 224.928C90.208 227.296 88.768 229.952 87.744 232.896C86.784 235.84 86.304 238.848 86.304 241.92ZM178.567 276.96C174.535 276.96 170.983 276 167.911 274.08C164.839 272.16 162.407 269.664 160.615 266.592V296.448H150.055V225.792H159.367V234.816C161.287 231.808 163.783 229.408 166.855 227.616C169.927 225.824 173.351 224.928 177.127 224.928C180.583 224.928 183.751 225.632 186.631 227.04C189.511 228.384 192.007 230.272 194.119 232.704C196.231 235.136 197.863 237.92 199.015 241.056C200.231 244.128 200.839 247.392 200.839 250.848C200.839 255.648 199.879 260.032 197.959 264C196.103 267.968 193.479 271.136 190.087 273.504C186.759 275.808 182.919 276.96 178.567 276.96ZM175.111 267.936C177.351 267.936 179.367 267.456 181.159 266.496C183.015 265.536 184.583 264.256 185.863 262.656C187.207 261.056 188.231 259.232 188.935 257.184C189.639 255.136 189.991 253.024 189.991 250.848C189.991 248.544 189.607 246.368 188.839 244.32C188.071 242.272 186.951 240.48 185.479 238.944C184.071 237.408 182.407 236.192 180.487 235.296C178.631 234.4 176.583 233.952 174.343 233.952C172.999 233.952 171.591 234.208 170.119 234.72C168.647 235.232 167.271 235.936 165.991 236.832C164.711 237.728 163.591 238.784 162.631 240C161.671 241.216 160.999 242.496 160.615 243.84V256.992C161.511 259.04 162.695 260.896 164.167 262.56C165.639 264.16 167.335 265.472 169.255 266.496C171.175 267.456 173.127 267.936 175.111 267.936ZM233.088 276.96C229.184 276.96 225.632 276.288 222.432 274.944C219.296 273.536 216.576 271.648 214.272 269.28C211.968 266.848 210.176 264.096 208.896 261.024C207.68 257.888 207.072 254.56 207.072 251.04C207.072 246.304 208.16 241.984 210.336 238.08C212.512 234.112 215.552 230.944 219.456 228.576C223.36 226.144 227.936 224.928 233.184 224.928C238.432 224.928 242.944 226.144 246.72 228.576C250.56 230.944 253.536 234.08 255.648 237.984C257.76 241.888 258.816 246.08 258.816 250.56C258.816 251.328 258.784 252.064 258.72 252.768C258.656 253.408 258.592 253.952 258.528 254.4H218.304C218.496 257.344 219.296 259.936 220.704 262.176C222.176 264.352 224.032 266.08 226.272 267.36C228.512 268.576 230.912 269.184 233.472 269.184C236.288 269.184 238.944 268.48 241.44 267.072C244 265.664 245.728 263.808 246.624 261.504L255.648 264.096C254.56 266.528 252.896 268.736 250.656 270.72C248.48 272.64 245.888 274.176 242.88 275.328C239.872 276.416 236.608 276.96 233.088 276.96ZM218.016 247.392H248.352C248.16 244.512 247.328 241.984 245.856 239.808C244.448 237.568 242.624 235.84 240.384 234.624C238.208 233.344 235.776 232.704 233.088 232.704C230.464 232.704 228.032 233.344 225.792 234.624C223.616 235.84 221.824 237.568 220.416 239.808C219.008 241.984 218.208 244.512 218.016 247.392ZM312.454 276H301.894V247.872C301.894 243.2 301.126 239.776 299.59 237.6C298.118 235.424 295.91 234.336 292.966 234.336C290.918 234.336 288.87 234.848 286.822 235.872C284.838 236.896 283.046 238.304 281.446 240.096C279.846 241.824 278.694 243.84 277.99 246.144V276H267.43V225.792H277.03V235.872C278.31 233.632 279.974 231.712 282.022 230.112C284.134 228.448 286.502 227.168 289.126 226.272C291.75 225.376 294.534 224.928 297.478 224.928C300.486 224.928 302.95 225.472 304.87 226.56C306.854 227.648 308.39 229.152 309.478 231.072C310.63 232.928 311.398 235.104 311.782 237.6C312.23 240.032 312.454 242.624 312.454 245.376V276ZM390.094 223.872C389.454 223.168 388.526 222.432 387.31 221.664C386.094 220.832 384.654 220.064 382.99 219.36C381.326 218.656 379.534 218.08 377.614 217.632C375.694 217.184 373.71 216.96 371.662 216.96C367.182 216.96 363.854 217.792 361.678 219.456C359.502 221.12 358.414 223.424 358.414 226.368C358.414 228.544 359.022 230.272 360.238 231.552C361.454 232.768 363.31 233.792 365.806 234.624C368.302 235.456 371.438 236.352 375.214 237.312C379.822 238.4 383.822 239.712 387.214 241.248C390.606 242.72 393.198 244.704 394.99 247.2C396.782 249.696 397.678 252.992 397.678 257.088C397.678 260.544 397.038 263.52 395.758 266.016C394.478 268.512 392.686 270.56 390.382 272.16C388.078 273.696 385.422 274.848 382.414 275.616C379.406 276.32 376.174 276.672 372.718 276.672C369.326 276.672 365.934 276.32 362.542 275.616C359.214 274.912 356.014 273.888 352.942 272.544C349.934 271.136 347.15 269.44 344.59 267.456L349.486 258.24C350.318 259.072 351.502 260 353.038 261.024C354.638 261.984 356.462 262.912 358.51 263.808C360.622 264.704 362.894 265.472 365.326 266.112C367.822 266.688 370.35 266.976 372.91 266.976C377.198 266.976 380.462 266.24 382.702 264.768C385.006 263.232 386.158 261.056 386.158 258.24C386.158 255.936 385.422 254.112 383.95 252.768C382.478 251.36 380.334 250.176 377.518 249.216C374.702 248.256 371.342 247.296 367.438 246.336C362.958 245.12 359.214 243.808 356.206 242.4C353.198 240.928 350.926 239.072 349.39 236.832C347.918 234.528 347.182 231.616 347.182 228.096C347.182 223.616 348.27 219.84 350.446 216.768C352.622 213.632 355.566 211.296 359.278 209.76C363.054 208.16 367.278 207.36 371.95 207.36C375.022 207.36 377.934 207.712 380.686 208.416C383.438 209.056 385.998 209.952 388.366 211.104C390.798 212.256 393.006 213.568 394.99 215.04L390.094 223.872ZM429.869 276.96C425.965 276.96 422.413 276.288 419.213 274.944C416.077 273.536 413.357 271.648 411.053 269.28C408.749 266.848 406.957 264.096 405.677 261.024C404.461 257.888 403.853 254.56 403.853 251.04C403.853 246.304 404.941 241.984 407.117 238.08C409.293 234.112 412.333 230.944 416.237 228.576C420.141 226.144 424.717 224.928 429.965 224.928C435.213 224.928 439.725 226.144 443.501 228.576C447.341 230.944 450.317 234.08 452.429 237.984C454.541 241.888 455.597 246.08 455.597 250.56C455.597 251.328 455.565 252.064 455.501 252.768C455.437 253.408 455.373 253.952 455.309 254.4H415.085C415.277 257.344 416.077 259.936 417.485 262.176C418.957 264.352 420.813 266.08 423.053 267.36C425.293 268.576 427.693 269.184 430.253 269.184C433.069 269.184 435.725 268.48 438.221 267.072C440.781 265.664 442.509 263.808 443.405 261.504L452.429 264.096C451.341 266.528 449.677 268.736 447.437 270.72C445.261 272.64 442.669 274.176 439.661 275.328C436.653 276.416 433.389 276.96 429.869 276.96ZM414.797 247.392H445.133C444.941 244.512 444.109 241.984 442.637 239.808C441.229 237.568 439.405 235.84 437.165 234.624C434.989 233.344 432.557 232.704 429.869 232.704C427.245 232.704 424.813 233.344 422.573 234.624C420.397 235.84 418.605 237.568 417.197 239.808C415.789 241.984 414.989 244.512 414.797 247.392ZM486.963 276.96C483.059 276.96 479.507 276.288 476.307 274.944C473.171 273.536 470.451 271.648 468.147 269.28C465.843 266.848 464.051 264.096 462.771 261.024C461.555 257.888 460.947 254.56 460.947 251.04C460.947 246.304 462.035 241.984 464.211 238.08C466.387 234.112 469.427 230.944 473.331 228.576C477.235 226.144 481.811 224.928 487.059 224.928C492.307 224.928 496.819 226.144 500.595 228.576C504.435 230.944 507.411 234.08 509.523 237.984C511.635 241.888 512.691 246.08 512.691 250.56C512.691 251.328 512.659 252.064 512.595 252.768C512.531 253.408 512.467 253.952 512.403 254.4H472.179C472.371 257.344 473.171 259.936 474.579 262.176C476.051 264.352 477.907 266.08 480.147 267.36C482.387 268.576 484.787 269.184 487.347 269.184C490.163 269.184 492.819 268.48 495.315 267.072C497.875 265.664 499.603 263.808 500.499 261.504L509.523 264.096C508.435 266.528 506.771 268.736 504.531 270.72C502.355 272.64 499.763 274.176 496.755 275.328C493.747 276.416 490.483 276.96 486.963 276.96ZM471.891 247.392H502.227C502.035 244.512 501.203 241.984 499.731 239.808C498.323 237.568 496.499 235.84 494.259 234.624C492.083 233.344 489.651 232.704 486.963 232.704C484.339 232.704 481.907 233.344 479.667 234.624C477.491 235.84 475.699 237.568 474.291 239.808C472.883 241.984 472.083 244.512 471.891 247.392ZM518.137 250.944C518.137 246.144 519.097 241.792 521.017 237.888C523.001 233.92 525.689 230.784 529.081 228.48C532.473 226.112 536.377 224.928 540.793 224.928C544.633 224.928 548.089 225.92 551.161 227.904C554.297 229.888 556.729 232.352 558.457 235.296V205.92H569.017V264.096C569.017 265.312 569.241 266.176 569.689 266.688C570.137 267.2 570.873 267.488 571.897 267.552V276C569.913 276.32 568.377 276.48 567.289 276.48C565.305 276.48 563.609 275.904 562.201 274.752C560.857 273.6 560.153 272.224 560.089 270.624L559.993 266.88C558.073 270.08 555.481 272.576 552.217 274.368C548.953 276.096 545.561 276.96 542.041 276.96C538.585 276.96 535.385 276.288 532.441 274.944C529.561 273.6 527.033 271.712 524.857 269.28C522.745 266.848 521.081 264.064 519.865 260.928C518.713 257.792 518.137 254.464 518.137 250.944ZM558.457 257.952V244.8C557.753 242.752 556.601 240.928 555.001 239.328C553.465 237.664 551.705 236.352 549.721 235.392C547.801 234.432 545.881 233.952 543.961 233.952C541.721 233.952 539.673 234.432 537.817 235.392C536.025 236.352 534.457 237.632 533.113 239.232C531.833 240.832 530.841 242.656 530.137 244.704C529.433 246.752 529.081 248.896 529.081 251.136C529.081 253.44 529.465 255.616 530.233 257.664C531.001 259.648 532.089 261.44 533.497 263.04C534.969 264.576 536.633 265.792 538.489 266.688C540.409 267.52 542.489 267.936 544.729 267.936C546.137 267.936 547.545 267.68 548.953 267.168C550.425 266.656 551.801 265.952 553.081 265.056C554.425 264.16 555.545 263.104 556.441 261.888C557.401 260.672 558.073 259.36 558.457 257.952ZM600.286 276.96C596.062 276.96 592.062 276.288 588.286 274.944C584.51 273.536 581.278 271.456 578.59 268.704L582.526 261.6C585.406 264.16 588.286 266.016 591.166 267.168C594.11 268.32 597.022 268.896 599.902 268.896C602.846 268.896 605.246 268.352 607.102 267.264C608.958 266.112 609.886 264.448 609.886 262.272C609.886 260.672 609.406 259.488 608.446 258.72C607.486 257.952 606.078 257.28 604.222 256.704C602.43 256.128 600.254 255.488 597.694 254.784C594.11 253.696 591.102 252.576 588.67 251.424C586.238 250.208 584.414 248.736 583.198 247.008C581.982 245.28 581.374 243.072 581.374 240.384C581.374 237.12 582.206 234.336 583.87 232.032C585.534 229.728 587.838 227.968 590.782 226.752C593.79 225.536 597.246 224.928 601.15 224.928C604.798 224.928 608.158 225.504 611.23 226.656C614.366 227.744 617.118 229.472 619.486 231.84L614.974 238.848C612.734 236.8 610.43 235.296 608.062 234.336C605.758 233.376 603.262 232.896 600.574 232.896C599.038 232.896 597.566 233.088 596.158 233.472C594.75 233.792 593.566 234.432 592.606 235.392C591.71 236.288 591.262 237.568 591.262 239.232C591.262 240.576 591.646 241.664 592.414 242.496C593.182 243.328 594.334 244.032 595.87 244.608C597.406 245.184 599.294 245.824 601.534 246.528C605.438 247.68 608.766 248.832 611.518 249.984C614.27 251.072 616.382 252.512 617.854 254.304C619.39 256.032 620.158 258.432 620.158 261.504C620.158 266.368 618.334 270.176 614.686 272.928C611.102 275.616 606.302 276.96 600.286 276.96Z" fill="#139D3D"/>
<path d="M192.316 325V310.832L186.464 321.584H184.616L178.736 310.832V325H175.6V305.12H178.96L185.54 317.272L192.12 305.12H195.48V325H192.316ZM208.201 325.28C207.062 325.28 206.026 325.084 205.093 324.692C204.178 324.281 203.385 323.731 202.713 323.04C202.041 322.331 201.518 321.528 201.145 320.632C200.79 319.717 200.613 318.747 200.613 317.72C200.613 316.339 200.93 315.079 201.565 313.94C202.199 312.783 203.086 311.859 204.225 311.168C205.363 310.459 206.698 310.104 208.229 310.104C209.759 310.104 211.075 310.459 212.177 311.168C213.297 311.859 214.165 312.773 214.781 313.912C215.397 315.051 215.705 316.273 215.705 317.58C215.705 317.804 215.695 318.019 215.677 318.224C215.658 318.411 215.639 318.569 215.621 318.7H203.889C203.945 319.559 204.178 320.315 204.589 320.968C205.018 321.603 205.559 322.107 206.213 322.48C206.866 322.835 207.566 323.012 208.313 323.012C209.134 323.012 209.909 322.807 210.637 322.396C211.383 321.985 211.887 321.444 212.149 320.772L214.781 321.528C214.463 322.237 213.978 322.881 213.325 323.46C212.69 324.02 211.934 324.468 211.057 324.804C210.179 325.121 209.227 325.28 208.201 325.28ZM203.805 316.656H212.653C212.597 315.816 212.354 315.079 211.925 314.444C211.514 313.791 210.982 313.287 210.329 312.932C209.694 312.559 208.985 312.372 208.201 312.372C207.435 312.372 206.726 312.559 206.073 312.932C205.438 313.287 204.915 313.791 204.505 314.444C204.094 315.079 203.861 315.816 203.805 316.656ZM233.589 325H230.509V316.796C230.509 315.433 230.285 314.435 229.837 313.8C229.408 313.165 228.764 312.848 227.905 312.848C227.308 312.848 226.71 312.997 226.113 313.296C225.534 313.595 225.012 314.005 224.545 314.528C224.078 315.032 223.742 315.62 223.537 316.292V325H220.457V310.356H223.257V313.296C223.63 312.643 224.116 312.083 224.713 311.616C225.329 311.131 226.02 310.757 226.785 310.496C227.55 310.235 228.362 310.104 229.221 310.104C230.098 310.104 230.817 310.263 231.377 310.58C231.956 310.897 232.404 311.336 232.721 311.896C233.057 312.437 233.281 313.072 233.393 313.8C233.524 314.509 233.589 315.265 233.589 316.068V325ZM247.443 324.244C247.181 324.375 246.855 324.515 246.463 324.664C246.071 324.813 245.623 324.944 245.119 325.056C244.633 325.168 244.129 325.224 243.607 325.224C242.972 325.224 242.384 325.112 241.843 324.888C241.301 324.664 240.863 324.309 240.527 323.824C240.209 323.32 240.051 322.676 240.051 321.892V312.736H238.119V310.356H240.051V305.54H243.131V310.356H246.323V312.736H243.131V320.912C243.168 321.416 243.327 321.789 243.607 322.032C243.905 322.275 244.269 322.396 244.699 322.396C245.128 322.396 245.539 322.321 245.931 322.172C246.323 322.023 246.612 321.901 246.799 321.808L247.443 324.244ZM258.205 325.28C257.047 325.28 256.011 325.084 255.097 324.692C254.182 324.281 253.389 323.721 252.717 323.012C252.063 322.303 251.559 321.5 251.205 320.604C250.85 319.689 250.673 318.719 250.673 317.692C250.673 316.665 250.85 315.695 251.205 314.78C251.559 313.865 252.063 313.063 252.717 312.372C253.389 311.663 254.182 311.112 255.097 310.72C256.03 310.309 257.066 310.104 258.205 310.104C259.343 310.104 260.37 310.309 261.285 310.72C262.218 311.112 263.011 311.663 263.665 312.372C264.337 313.063 264.85 313.865 265.205 314.78C265.559 315.695 265.737 316.665 265.737 317.692C265.737 318.719 265.559 319.689 265.205 320.604C264.85 321.5 264.337 322.303 263.665 323.012C263.011 323.721 262.218 324.281 261.285 324.692C260.37 325.084 259.343 325.28 258.205 325.28ZM253.837 317.72C253.837 318.653 254.033 319.493 254.425 320.24C254.817 320.987 255.339 321.575 255.993 322.004C256.646 322.433 257.383 322.648 258.205 322.648C259.007 322.648 259.735 322.433 260.389 322.004C261.061 321.556 261.593 320.959 261.985 320.212C262.377 319.447 262.573 318.607 262.573 317.692C262.573 316.759 262.377 315.919 261.985 315.172C261.593 314.425 261.061 313.837 260.389 313.408C259.735 312.96 259.007 312.736 258.205 312.736C257.383 312.736 256.646 312.96 255.993 313.408C255.339 313.856 254.817 314.453 254.425 315.2C254.033 315.928 253.837 316.768 253.837 317.72ZM278.94 313.016C277.746 313.035 276.682 313.305 275.748 313.828C274.834 314.351 274.18 315.088 273.788 316.04V325H270.708V310.356H273.564V313.632C274.068 312.624 274.731 311.821 275.552 311.224C276.374 310.608 277.242 310.272 278.156 310.216C278.343 310.216 278.492 310.216 278.604 310.216C278.735 310.216 278.847 310.225 278.94 310.244V313.016ZM283.421 325V310.356H286.501V325H283.421ZM283.421 307.948V304.56H286.501V307.948H283.421ZM305.574 325H302.494V316.796C302.494 315.433 302.27 314.435 301.822 313.8C301.393 313.165 300.749 312.848 299.89 312.848C299.293 312.848 298.696 312.997 298.098 313.296C297.52 313.595 296.997 314.005 296.53 314.528C296.064 315.032 295.728 315.62 295.522 316.292V325H292.442V310.356H295.242V313.296C295.616 312.643 296.101 312.083 296.698 311.616C297.314 311.131 298.005 310.757 298.77 310.496C299.536 310.235 300.348 310.104 301.206 310.104C302.084 310.104 302.802 310.263 303.362 310.58C303.941 310.897 304.389 311.336 304.706 311.896C305.042 312.437 305.266 313.072 305.378 313.8C305.509 314.509 305.574 315.265 305.574 316.068V325ZM317.185 325.14C316.196 325.14 315.291 324.944 314.469 324.552C313.648 324.141 312.939 323.591 312.341 322.9C311.763 322.209 311.305 321.416 310.969 320.52C310.652 319.624 310.493 318.681 310.493 317.692C310.493 316.647 310.661 315.667 310.997 314.752C311.333 313.837 311.8 313.035 312.397 312.344C313.013 311.635 313.732 311.084 314.553 310.692C315.375 310.3 316.289 310.104 317.297 310.104C318.473 310.104 319.5 310.384 320.377 310.944C321.273 311.504 322.011 312.232 322.589 313.128V310.356H325.305V324.58C325.305 325.999 324.96 327.203 324.269 328.192C323.597 329.181 322.673 329.937 321.497 330.46C320.321 330.983 318.996 331.244 317.521 331.244C315.897 331.244 314.553 330.964 313.489 330.404C312.425 329.844 311.52 329.079 310.773 328.108L312.509 326.484C313.069 327.268 313.788 327.865 314.665 328.276C315.561 328.687 316.513 328.892 317.521 328.892C318.361 328.892 319.136 328.733 319.845 328.416C320.573 328.117 321.152 327.641 321.581 326.988C322.011 326.353 322.225 325.551 322.225 324.58V322.34C321.703 323.217 320.984 323.908 320.069 324.412C319.155 324.897 318.193 325.14 317.185 325.14ZM318.193 322.648C318.66 322.648 319.108 322.573 319.537 322.424C319.967 322.256 320.359 322.041 320.713 321.78C321.087 321.5 321.404 321.192 321.665 320.856C321.927 320.501 322.113 320.128 322.225 319.736V315.9C321.983 315.265 321.637 314.715 321.189 314.248C320.741 313.763 320.237 313.389 319.677 313.128C319.117 312.867 318.548 312.736 317.969 312.736C317.297 312.736 316.691 312.885 316.149 313.184C315.627 313.464 315.179 313.847 314.805 314.332C314.432 314.799 314.143 315.331 313.937 315.928C313.732 316.525 313.629 317.141 313.629 317.776C313.629 318.448 313.741 319.073 313.965 319.652C314.208 320.231 314.535 320.753 314.945 321.22C315.356 321.668 315.841 322.023 316.401 322.284C316.961 322.527 317.559 322.648 318.193 322.648ZM353.893 325L344.345 314.892C343.542 314.033 342.907 313.305 342.441 312.708C341.974 312.111 341.638 311.56 341.433 311.056C341.227 310.552 341.125 310.029 341.125 309.488C341.125 308.573 341.349 307.771 341.797 307.08C342.263 306.389 342.898 305.848 343.701 305.456C344.503 305.064 345.399 304.868 346.389 304.868C347.303 304.868 348.143 305.036 348.909 305.372C349.674 305.689 350.29 306.165 350.757 306.8C351.223 307.416 351.457 308.181 351.457 309.096C351.457 309.955 351.233 310.729 350.785 311.42C350.337 312.111 349.739 312.745 348.993 313.324C348.246 313.903 347.415 314.472 346.501 315.032C345.791 315.499 345.147 315.965 344.569 316.432C343.99 316.88 343.533 317.365 343.197 317.888C342.879 318.392 342.721 318.961 342.721 319.596C342.721 320.231 342.898 320.8 343.253 321.304C343.607 321.789 344.083 322.172 344.681 322.452C345.278 322.713 345.931 322.844 346.641 322.844C347.518 322.844 348.349 322.639 349.133 322.228C349.917 321.817 350.617 321.239 351.233 320.492C351.849 319.727 352.325 318.831 352.661 317.804C353.015 316.777 353.193 315.657 353.193 314.444H355.713C355.713 316.087 355.451 317.571 354.929 318.896C354.425 320.221 353.734 321.36 352.857 322.312C351.998 323.264 350.999 324.001 349.861 324.524C348.741 325.028 347.555 325.28 346.305 325.28C345.017 325.28 343.878 325.028 342.889 324.524C341.899 324.001 341.125 323.311 340.565 322.452C340.023 321.593 339.753 320.632 339.753 319.568C339.753 318.523 339.986 317.617 340.453 316.852C340.938 316.068 341.554 315.377 342.301 314.78C343.066 314.164 343.831 313.613 344.597 313.128C345.418 312.605 346.127 312.148 346.725 311.756C347.322 311.345 347.789 310.935 348.125 310.524C348.461 310.095 348.629 309.637 348.629 309.152C348.629 308.555 348.414 308.079 347.985 307.724C347.574 307.351 347.042 307.164 346.389 307.164C345.903 307.164 345.474 307.267 345.101 307.472C344.746 307.677 344.466 307.948 344.261 308.284C344.055 308.62 343.953 308.993 343.953 309.404C343.953 309.684 344.027 309.973 344.177 310.272C344.326 310.552 344.606 310.925 345.017 311.392C345.427 311.84 345.997 312.456 346.725 313.24L357.953 325H353.893ZM385.423 307.892H378.815V325H375.651V307.892H369.015V305.12H385.423V307.892ZM396.31 313.016C395.115 313.035 394.051 313.305 393.118 313.828C392.203 314.351 391.55 315.088 391.158 316.04V325H388.078V310.356H390.934V313.632C391.438 312.624 392.1 311.821 392.922 311.224C393.743 310.608 394.611 310.272 395.526 310.216C395.712 310.216 395.862 310.216 395.974 310.216C396.104 310.216 396.216 310.225 396.31 310.244V313.016ZM399.699 320.716C399.699 319.783 399.96 318.971 400.483 318.28C401.024 317.571 401.762 317.029 402.695 316.656C403.628 316.264 404.711 316.068 405.943 316.068C406.596 316.068 407.259 316.115 407.931 316.208C408.622 316.301 409.228 316.451 409.751 316.656V315.732C409.751 314.705 409.443 313.903 408.827 313.324C408.211 312.745 407.324 312.456 406.167 312.456C405.346 312.456 404.571 312.605 403.843 312.904C403.115 313.184 402.34 313.585 401.519 314.108L400.483 312.036C401.454 311.383 402.424 310.897 403.395 310.58C404.384 310.263 405.42 310.104 406.503 310.104C408.463 310.104 410.003 310.627 411.123 311.672C412.262 312.699 412.831 314.164 412.831 316.068V321.528C412.831 321.883 412.887 322.135 412.999 322.284C413.13 322.433 413.344 322.517 413.643 322.536V325C413.363 325.056 413.111 325.093 412.887 325.112C412.663 325.131 412.476 325.14 412.327 325.14C411.674 325.14 411.179 324.981 410.843 324.664C410.507 324.347 410.311 323.973 410.255 323.544L410.171 322.704C409.536 323.525 408.724 324.16 407.735 324.608C406.746 325.056 405.747 325.28 404.739 325.28C403.768 325.28 402.9 325.084 402.135 324.692C401.37 324.281 400.772 323.731 400.343 323.04C399.914 322.349 399.699 321.575 399.699 320.716ZM409.023 321.612C409.247 321.369 409.424 321.127 409.555 320.884C409.686 320.641 409.751 320.427 409.751 320.24V318.56C409.228 318.355 408.678 318.205 408.099 318.112C407.52 318 406.951 317.944 406.391 317.944C405.271 317.944 404.356 318.168 403.647 318.616C402.956 319.064 402.611 319.68 402.611 320.464C402.611 320.893 402.723 321.304 402.947 321.696C403.19 322.088 403.526 322.405 403.955 322.648C404.403 322.891 404.954 323.012 405.607 323.012C406.279 323.012 406.923 322.881 407.539 322.62C408.155 322.359 408.65 322.023 409.023 321.612ZM418.808 325V310.356H421.888V325H418.808ZM418.808 307.948V304.56H421.888V307.948H418.808ZM440.961 325H437.881V316.796C437.881 315.433 437.657 314.435 437.209 313.8C436.78 313.165 436.136 312.848 435.277 312.848C434.68 312.848 434.082 312.997 433.485 313.296C432.906 313.595 432.384 314.005 431.917 314.528C431.45 315.032 431.114 315.62 430.909 316.292V325H427.829V310.356H430.629V313.296C431.002 312.643 431.488 312.083 432.085 311.616C432.701 311.131 433.392 310.757 434.157 310.496C434.922 310.235 435.734 310.104 436.593 310.104C437.47 310.104 438.189 310.263 438.749 310.58C439.328 310.897 439.776 311.336 440.093 311.896C440.429 312.437 440.653 313.072 440.765 313.8C440.896 314.509 440.961 315.265 440.961 316.068V325ZM446.776 325V310.356H449.856V325H446.776ZM446.776 307.948V304.56H449.856V307.948H446.776ZM468.929 325H465.849V316.796C465.849 315.433 465.625 314.435 465.177 313.8C464.748 313.165 464.104 312.848 463.245 312.848C462.648 312.848 462.05 312.997 461.453 313.296C460.874 313.595 460.352 314.005 459.885 314.528C459.418 315.032 459.082 315.62 458.877 316.292V325H455.797V310.356H458.597V313.296C458.97 312.643 459.456 312.083 460.053 311.616C460.669 311.131 461.36 310.757 462.125 310.496C462.89 310.235 463.702 310.104 464.561 310.104C465.438 310.104 466.157 310.263 466.717 310.58C467.296 310.897 467.744 311.336 468.061 311.896C468.397 312.437 468.621 313.072 468.733 313.8C468.864 314.509 468.929 315.265 468.929 316.068V325ZM480.54 325.14C479.551 325.14 478.646 324.944 477.824 324.552C477.003 324.141 476.294 323.591 475.696 322.9C475.118 322.209 474.66 321.416 474.324 320.52C474.007 319.624 473.848 318.681 473.848 317.692C473.848 316.647 474.016 315.667 474.352 314.752C474.688 313.837 475.155 313.035 475.752 312.344C476.368 311.635 477.087 311.084 477.908 310.692C478.73 310.3 479.644 310.104 480.652 310.104C481.828 310.104 482.855 310.384 483.732 310.944C484.628 311.504 485.366 312.232 485.944 313.128V310.356H488.66V324.58C488.66 325.999 488.315 327.203 487.624 328.192C486.952 329.181 486.028 329.937 484.852 330.46C483.676 330.983 482.351 331.244 480.876 331.244C479.252 331.244 477.908 330.964 476.844 330.404C475.78 329.844 474.875 329.079 474.128 328.108L475.864 326.484C476.424 327.268 477.143 327.865 478.02 328.276C478.916 328.687 479.868 328.892 480.876 328.892C481.716 328.892 482.491 328.733 483.2 328.416C483.928 328.117 484.507 327.641 484.936 326.988C485.366 326.353 485.58 325.551 485.58 324.58V322.34C485.058 323.217 484.339 323.908 483.424 324.412C482.51 324.897 481.548 325.14 480.54 325.14ZM481.548 322.648C482.015 322.648 482.463 322.573 482.892 322.424C483.322 322.256 483.714 322.041 484.068 321.78C484.442 321.5 484.759 321.192 485.02 320.856C485.282 320.501 485.468 320.128 485.58 319.736V315.9C485.338 315.265 484.992 314.715 484.544 314.248C484.096 313.763 483.592 313.389 483.032 313.128C482.472 312.867 481.903 312.736 481.324 312.736C480.652 312.736 480.046 312.885 479.504 313.184C478.982 313.464 478.534 313.847 478.16 314.332C477.787 314.799 477.498 315.331 477.292 315.928C477.087 316.525 476.984 317.141 476.984 317.776C476.984 318.448 477.096 319.073 477.32 319.652C477.563 320.231 477.89 320.753 478.3 321.22C478.711 321.668 479.196 322.023 479.756 322.284C480.316 322.527 480.914 322.648 481.548 322.648ZM504.144 325V305.12H512.488C513.384 305.12 514.205 305.307 514.952 305.68C515.698 306.053 516.352 306.548 516.912 307.164C517.472 307.78 517.901 308.471 518.2 309.236C518.498 310.001 518.648 310.785 518.648 311.588C518.648 312.689 518.396 313.744 517.892 314.752C517.406 315.741 516.706 316.544 515.792 317.16C514.896 317.776 513.85 318.084 512.656 318.084H507.28V325H504.144ZM507.28 315.312H512.46C513.057 315.312 513.58 315.153 514.028 314.836C514.476 314.5 514.821 314.052 515.064 313.492C515.325 312.932 515.456 312.297 515.456 311.588C515.456 310.86 515.306 310.216 515.008 309.656C514.709 309.096 514.317 308.667 513.832 308.368C513.365 308.051 512.852 307.892 512.292 307.892H507.28V315.312ZM531.669 313.016C530.474 313.035 529.41 313.305 528.477 313.828C527.562 314.351 526.909 315.088 526.517 316.04V325H523.437V310.356H526.293V313.632C526.797 312.624 527.459 311.821 528.281 311.224C529.102 310.608 529.97 310.272 530.885 310.216C531.071 310.216 531.221 310.216 531.333 310.216C531.463 310.216 531.575 310.225 531.669 310.244V313.016ZM542.456 325.28C541.299 325.28 540.263 325.084 539.348 324.692C538.433 324.281 537.64 323.721 536.968 323.012C536.315 322.303 535.811 321.5 535.456 320.604C535.101 319.689 534.924 318.719 534.924 317.692C534.924 316.665 535.101 315.695 535.456 314.78C535.811 313.865 536.315 313.063 536.968 312.372C537.64 311.663 538.433 311.112 539.348 310.72C540.281 310.309 541.317 310.104 542.456 310.104C543.595 310.104 544.621 310.309 545.536 310.72C546.469 311.112 547.263 311.663 547.916 312.372C548.588 313.063 549.101 313.865 549.456 314.78C549.811 315.695 549.988 316.665 549.988 317.692C549.988 318.719 549.811 319.689 549.456 320.604C549.101 321.5 548.588 322.303 547.916 323.012C547.263 323.721 546.469 324.281 545.536 324.692C544.621 325.084 543.595 325.28 542.456 325.28ZM538.088 317.72C538.088 318.653 538.284 319.493 538.676 320.24C539.068 320.987 539.591 321.575 540.244 322.004C540.897 322.433 541.635 322.648 542.456 322.648C543.259 322.648 543.987 322.433 544.64 322.004C545.312 321.556 545.844 320.959 546.236 320.212C546.628 319.447 546.824 318.607 546.824 317.692C546.824 316.759 546.628 315.919 546.236 315.172C545.844 314.425 545.312 313.837 544.64 313.408C543.987 312.96 543.259 312.736 542.456 312.736C541.635 312.736 540.897 312.96 540.244 313.408C539.591 313.856 539.068 314.453 538.676 315.2C538.284 315.928 538.088 316.768 538.088 317.72ZM560.756 325.14C559.766 325.14 558.861 324.944 558.04 324.552C557.218 324.141 556.509 323.591 555.912 322.9C555.333 322.209 554.876 321.416 554.54 320.52C554.222 319.624 554.064 318.681 554.064 317.692C554.064 316.647 554.232 315.667 554.568 314.752C554.904 313.837 555.37 313.035 555.968 312.344C556.584 311.635 557.302 311.084 558.124 310.692C558.945 310.3 559.86 310.104 560.868 310.104C562.044 310.104 563.07 310.384 563.948 310.944C564.844 311.504 565.581 312.232 566.16 313.128V310.356H568.876V324.58C568.876 325.999 568.53 327.203 567.84 328.192C567.168 329.181 566.244 329.937 565.068 330.46C563.892 330.983 562.566 331.244 561.092 331.244C559.468 331.244 558.124 330.964 557.06 330.404C555.996 329.844 555.09 329.079 554.344 328.108L556.08 326.484C556.64 327.268 557.358 327.865 558.236 328.276C559.132 328.687 560.084 328.892 561.092 328.892C561.932 328.892 562.706 328.733 563.416 328.416C564.144 328.117 564.722 327.641 565.152 326.988C565.581 326.353 565.796 325.551 565.796 324.58V322.34C565.273 323.217 564.554 323.908 563.64 324.412C562.725 324.897 561.764 325.14 560.756 325.14ZM561.764 322.648C562.23 322.648 562.678 322.573 563.108 322.424C563.537 322.256 563.929 322.041 564.284 321.78C564.657 321.5 564.974 321.192 565.236 320.856C565.497 320.501 565.684 320.128 565.796 319.736V315.9C565.553 315.265 565.208 314.715 564.76 314.248C564.312 313.763 563.808 313.389 563.248 313.128C562.688 312.867 562.118 312.736 561.54 312.736C560.868 312.736 560.261 312.885 559.72 313.184C559.197 313.464 558.749 313.847 558.376 314.332C558.002 314.799 557.713 315.331 557.508 315.928C557.302 316.525 557.2 317.141 557.2 317.776C557.2 318.448 557.312 319.073 557.536 319.652C557.778 320.231 558.105 320.753 558.516 321.22C558.926 321.668 559.412 322.023 559.972 322.284C560.532 322.527 561.129 322.648 561.764 322.648ZM583.041 313.016C581.847 313.035 580.783 313.305 579.849 313.828C578.935 314.351 578.281 315.088 577.889 316.04V325H574.809V310.356H577.665V313.632C578.169 312.624 578.832 311.821 579.653 311.224C580.475 310.608 581.343 310.272 582.257 310.216C582.444 310.216 582.593 310.216 582.705 310.216C582.836 310.216 582.948 310.225 583.041 310.244V313.016ZM586.43 320.716C586.43 319.783 586.692 318.971 587.214 318.28C587.756 317.571 588.493 317.029 589.426 316.656C590.36 316.264 591.442 316.068 592.674 316.068C593.328 316.068 593.99 316.115 594.662 316.208C595.353 316.301 595.96 316.451 596.482 316.656V315.732C596.482 314.705 596.174 313.903 595.558 313.324C594.942 312.745 594.056 312.456 592.898 312.456C592.077 312.456 591.302 312.605 590.574 312.904C589.846 313.184 589.072 313.585 588.25 314.108L587.214 312.036C588.185 311.383 589.156 310.897 590.126 310.58C591.116 310.263 592.152 310.104 593.234 310.104C595.194 310.104 596.734 310.627 597.854 311.672C598.993 312.699 599.562 314.164 599.562 316.068V321.528C599.562 321.883 599.618 322.135 599.73 322.284C599.861 322.433 600.076 322.517 600.374 322.536V325C600.094 325.056 599.842 325.093 599.618 325.112C599.394 325.131 599.208 325.14 599.058 325.14C598.405 325.14 597.91 324.981 597.574 324.664C597.238 324.347 597.042 323.973 596.986 323.544L596.902 322.704C596.268 323.525 595.456 324.16 594.466 324.608C593.477 325.056 592.478 325.28 591.47 325.28C590.5 325.28 589.632 325.084 588.866 324.692C588.101 324.281 587.504 323.731 587.074 323.04C586.645 322.349 586.43 321.575 586.43 320.716ZM595.754 321.612C595.978 321.369 596.156 321.127 596.286 320.884C596.417 320.641 596.482 320.427 596.482 320.24V318.56C595.96 318.355 595.409 318.205 594.83 318.112C594.252 318 593.682 317.944 593.122 317.944C592.002 317.944 591.088 318.168 590.378 318.616C589.688 319.064 589.342 319.68 589.342 320.464C589.342 320.893 589.454 321.304 589.678 321.696C589.921 322.088 590.257 322.405 590.686 322.648C591.134 322.891 591.685 323.012 592.338 323.012C593.01 323.012 593.654 322.881 594.27 322.62C594.886 322.359 595.381 322.023 595.754 321.612ZM627.939 325H624.859V316.796C624.859 315.433 624.635 314.435 624.187 313.8C623.739 313.165 623.086 312.848 622.227 312.848C621.368 312.848 620.566 313.175 619.819 313.828C619.091 314.463 618.578 315.293 618.279 316.32V325H615.199V316.796C615.199 315.433 614.975 314.435 614.527 313.8C614.079 313.165 613.435 312.848 612.595 312.848C611.736 312.848 610.934 313.165 610.187 313.8C609.459 314.435 608.936 315.265 608.619 316.292V325H605.539V310.356H608.339V313.296C608.918 312.269 609.674 311.485 610.607 310.944C611.559 310.384 612.642 310.104 613.855 310.104C615.068 310.104 616.02 310.421 616.711 311.056C617.42 311.691 617.859 312.484 618.027 313.436C618.662 312.353 619.436 311.532 620.351 310.972C621.284 310.393 622.348 310.104 623.543 310.104C624.402 310.104 625.12 310.263 625.699 310.58C626.278 310.897 626.726 311.336 627.043 311.896C627.36 312.437 627.584 313.072 627.715 313.8C627.864 314.509 627.939 315.265 627.939 316.068V325Z" fill="#515853"/>
<mask id="path-3-inside-1_1004_627" fill="white">
<path fill-rule="evenodd" clip-rule="evenodd" d="M174.977 205.608C173.294 202.77 172.884 198.949 174.498 194.855C177.41 188.922 181.088 186.928 184.872 184.877C189.764 182.225 194.833 179.477 198.659 168C202.571 174.466 205.52 187.211 199.819 197.795C195.696 205.44 190.327 209.168 186.28 210.144C182.901 210.958 179.772 210.204 177.453 208.414L193.772 190.023L174.977 205.608Z"/>
</mask>
<path fill-rule="evenodd" clip-rule="evenodd" d="M174.977 205.608C173.294 202.77 172.884 198.949 174.498 194.855C177.41 188.922 181.088 186.928 184.872 184.877C189.764 182.225 194.833 179.477 198.659 168C202.571 174.466 205.52 187.211 199.819 197.795C195.696 205.44 190.327 209.168 186.28 210.144C182.901 210.958 179.772 210.204 177.453 208.414L193.772 190.023L174.977 205.608Z" fill="url(#paint0_linear_1004_627)"/>
<path d="M174.498 194.855L173.58 194.494L173.594 194.456L173.612 194.421L174.498 194.855ZM174.977 205.608L175.607 206.367L174.718 207.105L174.128 206.111L174.977 205.608ZM184.872 184.877L184.402 184.009L184.872 184.877ZM198.659 168L197.723 167.688L198.398 165.662L199.503 167.489L198.659 168ZM199.819 197.795L200.688 198.263L200.687 198.264L199.819 197.795ZM186.28 210.144L186.048 209.184L186.28 210.144ZM177.453 208.414L176.85 209.195L176.013 208.549L176.715 207.759L177.453 208.414ZM193.772 190.023L193.142 189.264L194.51 190.678L193.772 190.023ZM175.416 195.217C173.904 199.053 174.312 202.552 175.826 205.104L174.128 206.111C172.276 202.988 171.865 198.844 173.58 194.494L175.416 195.217ZM185.343 185.744C181.598 187.774 178.155 189.645 175.384 195.29L173.612 194.421C176.666 188.199 180.578 186.082 184.402 184.009L185.343 185.744ZM199.595 168.312C197.647 174.155 195.358 177.849 192.877 180.432C190.401 183.008 187.784 184.421 185.343 185.744L184.402 184.009C186.852 182.681 189.215 181.394 191.453 179.064C193.686 176.741 195.844 173.322 197.723 167.688L199.595 168.312ZM198.95 197.327C204.437 187.14 201.605 174.776 197.814 168.511L199.503 167.489C203.536 174.156 206.602 187.283 200.688 198.263L198.95 197.327ZM186.048 209.184C189.76 208.29 194.926 204.789 198.95 197.327L200.687 198.264C196.467 206.09 190.895 210.046 186.511 211.103L186.048 209.184ZM178.056 207.633C180.131 209.235 182.952 209.93 186.048 209.184L186.511 211.103C182.849 211.985 179.412 211.173 176.85 209.195L178.056 207.633ZM176.715 207.759L193.034 189.368L194.51 190.678L178.191 209.069L176.715 207.759ZM194.402 190.783L175.607 206.367L174.347 204.848L193.142 189.264L194.402 190.783Z" fill="#139D3D" fill-opacity="0.47" mask="url(#path-3-inside-1_1004_627)"/>
<mask id="path-5-inside-2_1004_627" fill="white">
<path fill-rule="evenodd" clip-rule="evenodd" d="M171.023 205.608C172.706 202.77 173.116 198.949 171.502 194.856C168.59 188.922 164.912 186.928 161.128 184.877C156.236 182.226 151.167 179.478 147.341 168C143.429 174.467 140.48 187.212 146.181 197.796C150.304 205.44 155.673 209.168 159.72 210.144C163.099 210.958 166.228 210.204 168.547 208.414L152.228 190.024L171.023 205.608Z"/>
</mask>
<path fill-rule="evenodd" clip-rule="evenodd" d="M171.023 205.608C172.706 202.77 173.116 198.949 171.502 194.856C168.59 188.922 164.912 186.928 161.128 184.877C156.236 182.226 151.167 179.478 147.341 168C143.429 174.467 140.48 187.212 146.181 197.796C150.304 205.44 155.673 209.168 159.72 210.144C163.099 210.958 166.228 210.204 168.547 208.414L152.228 190.024L171.023 205.608Z" fill="url(#paint1_linear_1004_627)"/>
<path d="M171.502 194.856L172.42 194.494L172.406 194.457L172.388 194.421L171.502 194.856ZM171.023 205.608L170.393 206.368L171.282 207.105L171.872 206.111L171.023 205.608ZM161.128 184.877L161.598 184.009L161.128 184.877ZM147.341 168L148.277 167.688L147.602 165.662L146.497 167.489L147.341 168ZM146.181 197.796L145.312 198.264L145.313 198.264L146.181 197.796ZM159.72 210.144L159.952 209.184L159.72 210.144ZM168.547 208.414L169.15 209.195L169.987 208.549L169.285 207.759L168.547 208.414ZM152.228 190.024L152.858 189.264L151.49 190.678L152.228 190.024ZM170.584 195.218C172.096 199.054 171.688 202.553 170.174 205.105L171.872 206.111C173.724 202.988 174.135 198.844 172.42 194.494L170.584 195.218ZM160.657 185.745C164.402 187.774 167.845 189.645 170.616 195.29L172.388 194.421C169.334 188.199 165.422 186.082 161.598 184.009L160.657 185.745ZM146.405 168.312C148.353 174.155 150.642 177.85 153.123 180.432C155.599 183.009 158.216 184.421 160.657 185.745L161.598 184.009C159.148 182.681 156.785 181.394 154.547 179.065C152.314 176.741 150.156 173.323 148.277 167.688L146.405 168.312ZM147.05 197.328C141.563 187.14 144.395 174.777 148.186 168.511L146.497 167.489C142.464 174.157 139.398 187.283 145.312 198.264L147.05 197.328ZM159.952 209.184C156.24 208.29 151.074 204.789 147.05 197.327L145.313 198.264C149.533 206.09 155.105 210.046 159.489 211.103L159.952 209.184ZM167.944 207.633C165.869 209.235 163.048 209.931 159.952 209.184L159.489 211.103C163.151 211.986 166.588 211.173 169.15 209.195L167.944 207.633ZM169.285 207.759L152.966 189.369L151.49 190.678L167.809 209.069L169.285 207.759ZM151.598 190.783L170.393 206.368L171.653 204.848L152.858 189.264L151.598 190.783Z" fill="#139D3D" fill-opacity="0.47" mask="url(#path-5-inside-2_1004_627)"/>
<line x1="75" y1="322" x2="163" y2="322" stroke="#139D3D" stroke-width="6" stroke-linecap="round"/>
<defs>
<linearGradient id="paint0_linear_1004_627" x1="188.239" y1="157.604" x2="188.239" y2="210.471" gradientUnits="userSpaceOnUse">
<stop stop-color="#A5F200"/>
<stop offset="1" stop-color="#139D3D"/>
</linearGradient>
<linearGradient id="paint1_linear_1004_627" x1="157.761" y1="157.604" x2="157.761" y2="210.471" gradientUnits="userSpaceOnUse">
<stop stop-color="#A5F200"/>
<stop offset="1" stop-color="#139D3D"/>
</linearGradient>
</defs>
</svg>
