<svg width="1500" height="500" viewBox="0 0 1500 500" fill="none" xmlns="http://www.w3.org/2000/svg">
<g clip-path="url(#clip0_924_338)">
<rect width="1500" height="500" fill="#139D3D"/>
<path d="M348.442 168.853C592.154 152.914 724.244 371.713 613.74 553.301C561.356 639.382 435.773 735.572 229.159 774.11C-56.8712 827.316 -328.803 665.205 -448.933 527.289C70.347 521.276 -14.3767 222.256 348.442 168.853Z" fill="url(#paint0_linear_924_338)"/>
<path d="M46.1352 338.572C121.233 266.665 192.994 197.953 349.086 174.918C468.848 167.162 560.511 217.002 608.833 290.357C657.191 363.765 662.58 461.322 608.535 550.133C557.262 634.389 433.399 729.817 228.042 768.12C-48.4633 819.553 -312.217 667.69 -435.513 533.161C-312.076 530.487 -223.102 510.923 -153.934 481.875C-82.2637 451.775 -32.2336 411.644 12.5593 370.321C24.0083 359.759 35.1077 349.131 46.1352 338.572Z" stroke="#139D3D" stroke-opacity="0.47" stroke-width="12.187"/>
<g opacity="0.5" filter="url(#filter0_d_924_338)">
<path d="M1491.43 67.7132C1580.69 294.158 1413.22 486.075 1207.27 436.439C1109.64 412.909 980.15 322.984 880.726 138.622C743.223 -116.65 814.355 -424.038 908.701 -580C1072.37 -89.0083 1330.38 -260.374 1491.43 67.7132Z" fill="url(#paint1_linear_924_338)"/>
</g>
<path d="M1162.9 318.025C1214.16 269.581 1263.15 223.292 1369.13 208.363C1450.41 203.637 1512.36 237.856 1544.81 287.829C1577.29 337.839 1580.51 404.038 1543.45 464.039C1508.29 520.963 1423.84 585.144 1284.37 610.21C1096.58 643.861 918.356 539.685 835.309 447.881C919.043 446.616 979.482 433.742 1026.53 414.347C1075.29 394.247 1109.41 367.246 1139.98 339.413C1147.79 332.299 1155.37 325.139 1162.9 318.025Z" fill="url(#paint2_linear_924_338)" stroke="white" stroke-width="8.29575"/>
<mask id="path-5-inside-1_924_338" fill="white">
<path fill-rule="evenodd" clip-rule="evenodd" d="M1372.94 432.057C1368.63 424.785 1367.58 414.993 1371.71 404.503C1379.18 389.298 1388.6 384.19 1398.3 378.933C1410.83 372.139 1423.82 365.097 1433.63 335.686C1443.65 352.257 1451.21 384.916 1436.6 412.037C1426.03 431.625 1412.28 441.179 1401.9 443.679C1393.25 445.766 1385.23 443.835 1379.29 439.247L1421.1 392.122L1372.94 432.057Z"/>
</mask>
<path fill-rule="evenodd" clip-rule="evenodd" d="M1372.94 432.057C1368.63 424.785 1367.58 414.993 1371.71 404.503C1379.18 389.298 1388.6 384.19 1398.3 378.933C1410.83 372.139 1423.82 365.097 1433.63 335.686C1443.65 352.257 1451.21 384.916 1436.6 412.037C1426.03 431.625 1412.28 441.179 1401.9 443.679C1393.25 445.766 1385.23 443.835 1379.29 439.247L1421.1 392.122L1372.94 432.057Z" fill="white"/>
<path d="M1371.71 404.503L1369.36 403.576L1369.4 403.481L1369.44 403.389L1371.71 404.503ZM1372.94 432.057L1374.56 434.003L1372.28 435.893L1370.77 433.347L1372.94 432.057ZM1398.3 378.933L1399.5 381.157L1398.3 378.933ZM1433.63 335.686L1431.23 334.886L1432.96 329.695L1435.79 334.377L1433.63 335.686ZM1436.6 412.037L1438.82 413.237L1438.82 413.238L1436.6 412.037ZM1401.9 443.679L1401.31 441.221L1401.9 443.679ZM1379.29 439.247L1377.74 441.249L1375.6 439.594L1377.39 437.569L1379.29 439.247ZM1421.1 392.122L1419.49 390.175L1422.99 393.8L1421.1 392.122ZM1374.07 405.431C1370.19 415.261 1371.24 424.227 1375.12 430.767L1370.77 433.347C1366.02 425.343 1364.97 414.725 1369.36 403.576L1374.07 405.431ZM1399.5 381.157C1389.91 386.358 1381.08 391.151 1373.98 405.618L1369.44 403.389C1377.27 387.446 1387.29 382.022 1397.09 376.71L1399.5 381.157ZM1436.02 336.486C1431.03 351.458 1425.17 360.926 1418.81 367.543C1412.47 374.145 1405.76 377.766 1399.5 381.157L1397.09 376.71C1403.37 373.307 1409.43 370.009 1415.16 364.039C1420.88 358.084 1426.41 349.325 1431.23 334.886L1436.02 336.486ZM1434.37 410.838C1448.43 384.733 1441.17 353.051 1431.46 336.995L1435.79 334.377C1446.12 351.462 1453.98 385.098 1438.82 413.237L1434.37 410.838ZM1401.31 441.221C1410.82 438.929 1424.06 429.958 1434.37 410.837L1438.82 413.238C1428.01 433.293 1413.73 443.43 1402.5 446.138L1401.31 441.221ZM1380.83 437.246C1386.15 441.352 1393.38 443.133 1401.31 441.221L1402.5 446.138C1393.11 448.399 1384.31 446.317 1377.74 441.249L1380.83 437.246ZM1377.39 437.569L1419.21 390.443L1422.99 393.8L1381.18 440.926L1377.39 437.569ZM1422.72 394.068L1374.56 434.003L1371.33 430.11L1419.49 390.175L1422.72 394.068Z" fill="white" mask="url(#path-5-inside-1_924_338)"/>
<mask id="path-7-inside-2_924_338" fill="white">
<path fill-rule="evenodd" clip-rule="evenodd" d="M1362.81 432.057C1367.12 424.785 1368.17 414.993 1364.04 404.503C1356.57 389.298 1347.15 384.19 1337.45 378.933C1324.92 372.139 1311.93 365.097 1302.12 335.686C1292.1 352.257 1284.54 384.916 1299.15 412.037C1309.72 431.625 1323.47 441.179 1333.85 443.679C1342.5 445.766 1350.52 443.835 1356.46 439.247L1314.65 392.122L1362.81 432.057Z"/>
</mask>
<path fill-rule="evenodd" clip-rule="evenodd" d="M1362.81 432.057C1367.12 424.785 1368.17 414.993 1364.04 404.503C1356.57 389.298 1347.15 384.19 1337.45 378.933C1324.92 372.139 1311.93 365.097 1302.12 335.686C1292.1 352.257 1284.54 384.916 1299.15 412.037C1309.72 431.625 1323.47 441.179 1333.85 443.679C1342.5 445.766 1350.52 443.835 1356.46 439.247L1314.65 392.122L1362.81 432.057Z" fill="white"/>
<path d="M1364.04 404.503L1366.39 403.576L1366.35 403.481L1366.31 403.389L1364.04 404.503ZM1362.81 432.057L1361.19 434.003L1363.47 435.893L1364.98 433.347L1362.81 432.057ZM1337.45 378.933L1336.25 381.157L1337.45 378.933ZM1302.12 335.686L1304.52 334.886L1302.79 329.695L1299.96 334.377L1302.12 335.686ZM1299.15 412.037L1296.93 413.237L1296.93 413.238L1299.15 412.037ZM1333.85 443.679L1333.25 446.138L1333.85 443.679ZM1356.46 439.247L1358.01 441.249L1360.15 439.594L1358.36 437.569L1356.46 439.247ZM1314.65 392.122L1316.26 390.175L1312.76 393.8L1314.65 392.122ZM1361.68 405.431C1365.56 415.261 1364.51 424.227 1360.63 430.767L1364.98 433.347C1369.73 425.343 1370.78 414.725 1366.39 403.576L1361.68 405.431ZM1336.25 381.157C1345.84 386.358 1354.67 391.151 1361.77 405.618L1366.31 403.389C1358.48 387.446 1348.46 382.022 1338.66 376.71L1336.25 381.157ZM1299.73 336.486C1304.72 351.458 1310.58 360.926 1316.94 367.543C1323.28 374.145 1329.99 377.766 1336.25 381.157L1338.66 376.71C1332.38 373.307 1326.32 370.009 1320.59 364.039C1314.87 358.084 1309.34 349.325 1304.52 334.886L1299.73 336.486ZM1301.38 410.838C1287.32 384.733 1294.58 353.051 1304.29 336.995L1299.96 334.377C1289.63 351.462 1281.77 385.098 1296.93 413.237L1301.38 410.838ZM1334.44 441.221C1324.93 438.929 1311.69 429.958 1301.38 410.837L1296.93 413.238C1307.74 433.293 1322.02 443.43 1333.25 446.138L1334.44 441.221ZM1354.92 437.246C1349.6 441.352 1342.37 443.133 1334.44 441.221L1333.25 446.138C1342.64 448.399 1351.44 446.317 1358.01 441.249L1354.92 437.246ZM1358.36 437.569L1316.54 390.443L1312.76 393.8L1354.57 440.926L1358.36 437.569ZM1313.03 394.068L1361.19 434.003L1364.42 430.11L1316.26 390.175L1313.03 394.068Z" fill="white" mask="url(#path-7-inside-2_924_338)"/>
<text fill="white" stroke="white" stroke-width="1.51727" xml:space="preserve" style="white-space: pre" font-family="Raleway" font-size="52.3709" font-weight="bold" letter-spacing="0em"><tspan x="1316.37" y="353.987">OLS</tspan></text>
<text fill="white" stroke="#A5F200" xml:space="preserve" style="white-space: pre" font-family="Raleway" font-size="48" font-weight="800" letter-spacing="0.02em"><tspan x="387.301" y="290.944"> Open Research Ambassadors.</tspan></text>
<text fill="white" stroke="#A5F200" xml:space="preserve" style="white-space: pre" font-family="Raleway" font-size="36" letter-spacing="0.02em"><tspan x="443.466" y="231.708">A Mentoring &#38; Training Program For</tspan></text>
</g>
<defs>
<filter id="filter0_d_924_338" x="702" y="-644" width="816" height="1128.33" filterUnits="userSpaceOnUse" color-interpolation-filters="sRGB">
<feFlood flood-opacity="0" result="BackgroundImageFix"/>
<feColorMatrix in="SourceAlpha" type="matrix" values="0 0 0 0 0 0 0 0 0 0 0 0 0 0 0 0 0 0 127 0" result="hardAlpha"/>
<feOffset dx="-50" dy="-12"/>
<feGaussianBlur stdDeviation="26"/>
<feComposite in2="hardAlpha" operator="out"/>
<feColorMatrix type="matrix" values="0 0 0 0 0.104722 0 0 0 0 0.433333 0 0 0 0 0.204734 0 0 0 0.13 0"/>
<feBlend mode="normal" in2="BackgroundImageFix" result="effect1_dropShadow_924_338"/>
<feBlend mode="normal" in="SourceGraphic" in2="effect1_dropShadow_924_338" result="shape"/>
</filter>
<linearGradient id="paint0_linear_924_338" x1="-611.554" y1="210.374" x2="606.803" y2="600.885" gradientUnits="userSpaceOnUse">
<stop stop-color="#A5F200"/>
<stop offset="1" stop-color="#139D3D"/>
</linearGradient>
<linearGradient id="paint1_linear_924_338" x1="1160" y1="-830.737" x2="1160" y2="444.329" gradientUnits="userSpaceOnUse">
<stop stop-color="#A5F200"/>
<stop offset="1" stop-color="#139D3D"/>
</linearGradient>
<linearGradient id="paint2_linear_924_338" x1="717.298" y1="228.109" x2="1542.06" y2="498.468" gradientUnits="userSpaceOnUse">
<stop stop-color="#A5F200"/>
<stop offset="1" stop-color="#139D3D"/>
</linearGradient>
<clipPath id="clip0_924_338">
<rect width="1500" height="500" fill="white"/>
</clipPath>
</defs>
</svg>
