<svg width="700" height="500" viewBox="0 0 700 500" fill="none" xmlns="http://www.w3.org/2000/svg">
<text fill="white" xml:space="preserve" style="white-space: pre" font-family="Raleway" font-size="96" font-weight="600" letter-spacing="0em"><tspan x="72" y="276.388">Open Seeds</tspan></text>
<text fill="white" xml:space="preserve" style="white-space: pre" font-family="Raleway" font-size="28" font-weight="600" letter-spacing="0.08em"><tspan x="173.36" y="325.384">Mentoring &#38; Training Program</tspan></text>
<mask id="path-3-inside-1_1004_694" fill="white">
<path fill-rule="evenodd" clip-rule="evenodd" d="M174.977 205.608C173.294 202.77 172.884 198.949 174.498 194.855C177.41 188.922 181.088 186.928 184.872 184.877C189.764 182.225 194.833 179.477 198.659 168C202.571 174.466 205.52 187.211 199.819 197.795C195.696 205.44 190.327 209.168 186.28 210.144C182.901 210.958 179.772 210.204 177.453 208.414L193.772 190.023L174.977 205.608Z"/>
</mask>
<path fill-rule="evenodd" clip-rule="evenodd" d="M174.977 205.608C173.294 202.77 172.884 198.949 174.498 194.855C177.41 188.922 181.088 186.928 184.872 184.877C189.764 182.225 194.833 179.477 198.659 168C202.571 174.466 205.52 187.211 199.819 197.795C195.696 205.44 190.327 209.168 186.28 210.144C182.901 210.958 179.772 210.204 177.453 208.414L193.772 190.023L174.977 205.608Z" fill="white"/>
<path d="M174.498 194.855L173.58 194.494L173.594 194.456L173.612 194.421L174.498 194.855ZM174.977 205.608L175.607 206.367L174.718 207.105L174.128 206.111L174.977 205.608ZM184.872 184.877L184.402 184.009L184.872 184.877ZM198.659 168L197.723 167.688L198.398 165.662L199.503 167.489L198.659 168ZM199.819 197.795L200.688 198.263L200.687 198.264L199.819 197.795ZM186.28 210.144L186.048 209.184L186.28 210.144ZM177.453 208.414L176.85 209.195L176.013 208.549L176.715 207.759L177.453 208.414ZM193.772 190.023L193.142 189.264L194.51 190.678L193.772 190.023ZM175.416 195.217C173.904 199.053 174.312 202.552 175.826 205.104L174.128 206.111C172.276 202.988 171.865 198.844 173.58 194.494L175.416 195.217ZM185.343 185.744C181.598 187.774 178.155 189.645 175.384 195.29L173.612 194.421C176.666 188.199 180.578 186.082 184.402 184.009L185.343 185.744ZM199.595 168.312C197.647 174.155 195.358 177.849 192.877 180.432C190.401 183.008 187.784 184.421 185.343 185.744L184.402 184.009C186.852 182.681 189.215 181.394 191.453 179.064C193.686 176.741 195.844 173.322 197.723 167.688L199.595 168.312ZM198.95 197.327C204.437 187.14 201.605 174.776 197.814 168.511L199.503 167.489C203.536 174.156 206.602 187.283 200.688 198.263L198.95 197.327ZM186.048 209.184C189.76 208.29 194.926 204.789 198.95 197.327L200.687 198.264C196.467 206.09 190.895 210.046 186.511 211.103L186.048 209.184ZM178.056 207.633C180.131 209.235 182.952 209.93 186.048 209.184L186.511 211.103C182.849 211.985 179.412 211.173 176.85 209.195L178.056 207.633ZM176.715 207.759L193.034 189.368L194.51 190.678L178.191 209.069L176.715 207.759ZM194.402 190.783L175.607 206.367L174.347 204.848L193.142 189.264L194.402 190.783Z" fill="white" mask="url(#path-3-inside-1_1004_694)"/>
<mask id="path-5-inside-2_1004_694" fill="white">
<path fill-rule="evenodd" clip-rule="evenodd" d="M171.023 205.608C172.706 202.77 173.116 198.949 171.502 194.856C168.59 188.922 164.912 186.928 161.128 184.877C156.236 182.226 151.167 179.478 147.341 168C143.429 174.467 140.48 187.212 146.181 197.796C150.304 205.44 155.673 209.168 159.72 210.144C163.099 210.958 166.228 210.204 168.547 208.414L152.228 190.024L171.023 205.608Z"/>
</mask>
<path fill-rule="evenodd" clip-rule="evenodd" d="M171.023 205.608C172.706 202.77 173.116 198.949 171.502 194.856C168.59 188.922 164.912 186.928 161.128 184.877C156.236 182.226 151.167 179.478 147.341 168C143.429 174.467 140.48 187.212 146.181 197.796C150.304 205.44 155.673 209.168 159.72 210.144C163.099 210.958 166.228 210.204 168.547 208.414L152.228 190.024L171.023 205.608Z" fill="white"/>
<path d="M171.502 194.856L172.42 194.494L172.406 194.457L172.388 194.421L171.502 194.856ZM171.023 205.608L170.393 206.368L171.282 207.105L171.872 206.111L171.023 205.608ZM161.128 184.877L161.598 184.009L161.128 184.877ZM147.341 168L148.277 167.688L147.602 165.662L146.497 167.489L147.341 168ZM146.181 197.796L145.312 198.264L145.313 198.264L146.181 197.796ZM159.72 210.144L159.952 209.184L159.72 210.144ZM168.547 208.414L169.15 209.195L169.987 208.549L169.285 207.759L168.547 208.414ZM152.228 190.024L152.858 189.264L151.49 190.678L152.228 190.024ZM170.584 195.218C172.096 199.054 171.688 202.553 170.174 205.105L171.872 206.111C173.724 202.988 174.135 198.844 172.42 194.494L170.584 195.218ZM160.657 185.745C164.402 187.774 167.845 189.645 170.616 195.29L172.388 194.421C169.334 188.199 165.422 186.082 161.598 184.009L160.657 185.745ZM146.405 168.312C148.353 174.155 150.642 177.85 153.123 180.432C155.599 183.009 158.216 184.421 160.657 185.745L161.598 184.009C159.148 182.681 156.785 181.394 154.547 179.065C152.314 176.741 150.156 173.323 148.277 167.688L146.405 168.312ZM147.05 197.328C141.563 187.14 144.395 174.777 148.186 168.511L146.497 167.489C142.464 174.157 139.398 187.283 145.312 198.264L147.05 197.328ZM159.952 209.184C156.24 208.29 151.074 204.789 147.05 197.327L145.313 198.264C149.533 206.09 155.105 210.046 159.489 211.103L159.952 209.184ZM167.944 207.633C165.869 209.235 163.048 209.931 159.952 209.184L159.489 211.103C163.151 211.986 166.588 211.173 169.15 209.195L167.944 207.633ZM169.285 207.759L152.966 189.369L151.49 190.678L167.809 209.069L169.285 207.759ZM151.598 190.783L170.393 206.368L171.653 204.848L152.858 189.264L151.598 190.783Z" fill="white" mask="url(#path-5-inside-2_1004_694)"/>
<line x1="75" y1="322" x2="163" y2="322" stroke="white" stroke-width="6" stroke-linecap="round"/>
</svg>
