<svg xmlns="http://www.w3.org/2000/svg" xmlns:xlink="http://www.w3.org/1999/xlink" width="500" zoomAndPan="magnify" viewBox="0 0 375 374.999991" height="500" preserveAspectRatio="xMidYMid meet" version="1.0"><defs><g/><clipPath id="22d5cf4a2a"><path d="M 215 130 L 237.382812 130 L 237.382812 151 L 215 151 Z M 215 130 " clip-rule="nonzero"/></clipPath><clipPath id="6cb012099a"><path d="M 205 103.132812 L 222 103.132812 L 222 131 L 205 131 Z M 205 103.132812 " clip-rule="nonzero"/></clipPath><clipPath id="c53fc895e8"><path d="M 215 152 L 237.382812 152 L 237.382812 173 L 215 173 Z M 215 152 " clip-rule="nonzero"/></clipPath><clipPath id="511b9e52a6"><path d="M 137.632812 130 L 160 130 L 160 151 L 137.632812 151 Z M 137.632812 130 " clip-rule="nonzero"/></clipPath><clipPath id="c946e03f18"><path d="M 153 103.132812 L 170 103.132812 L 170 131 L 153 131 Z M 153 103.132812 " clip-rule="nonzero"/></clipPath><clipPath id="860c1021b9"><path d="M 137.632812 152 L 160 152 L 160 173 L 137.632812 173 Z M 137.632812 152 " clip-rule="nonzero"/></clipPath><clipPath id="a874a2c0eb"><path d="M 149 134 L 226 134 L 226 206.632812 L 149 206.632812 Z M 149 134 " clip-rule="nonzero"/></clipPath></defs><rect x="-37.5" width="450" fill="#ffffff" y="-37.499999" height="449.999989" fill-opacity="1"/><rect x="-37.5" width="450" fill="#ffffff" y="-37.499999" height="449.999989" fill-opacity="1"/><rect x="-37.5" width="450" fill="#ffffff" y="-37.499999" height="449.999989" fill-opacity="1"/><g clip-path="url(#22d5cf4a2a)"><path fill="#80cc28" d="M 237.386719 130.601562 C 237.386719 130.601562 210.804688 128.449219 216.214844 148.589844 C 228.449219 154.125 231.773438 144.511719 233.964844 137.363281 C 235.179688 133.414062 237.386719 130.601562 237.386719 130.601562 " fill-opacity="1" fill-rule="nonzero"/></g><g clip-path="url(#6cb012099a)"><path fill="#80cc28" d="M 215.210938 103.148438 C 215.210938 103.148438 194.890625 120.425781 212.957031 130.839844 C 225.519531 126.101562 221.074219 116.953125 217.570312 110.347656 C 215.636719 106.699219 215.210938 103.148438 215.210938 103.148438 " fill-opacity="1" fill-rule="nonzero"/></g><path fill="#80cc28" d="M 210.867188 130.558594 C 210.867188 130.558594 191.894531 129.28125 195.941406 143.582031 C 204.71875 147.410156 206.996094 140.527344 208.492188 135.410156 C 209.316406 132.582031 210.867188 130.558594 210.867188 130.558594 " fill-opacity="1" fill-rule="nonzero"/><path fill="#1c6434" d="M 222.605469 143.921875 C 221.726562 143.921875 221.015625 143.210938 221.015625 142.332031 C 221.015625 141.457031 221.726562 140.742188 222.605469 140.742188 C 223.480469 140.742188 224.191406 141.457031 224.191406 142.332031 C 224.191406 143.210938 223.480469 143.921875 222.605469 143.921875 Z M 222.605469 139.523438 C 221.050781 139.523438 219.796875 140.78125 219.796875 142.332031 C 219.796875 142.800781 219.910156 143.238281 220.113281 143.625 L 205.058594 158.679688 L 205.058594 168.050781 L 197.128906 175.976562 L 197.128906 187.875 L 198.902344 187.875 L 198.902344 176.710938 L 206.832031 168.785156 L 206.832031 159.414062 L 221.386719 144.859375 C 221.753906 145.039062 222.167969 145.140625 222.605469 145.140625 C 224.15625 145.140625 225.414062 143.882812 225.414062 142.332031 C 225.414062 140.78125 224.15625 139.523438 222.605469 139.523438 " fill-opacity="1" fill-rule="nonzero"/><g clip-path="url(#c53fc895e8)"><path fill="#80cc28" d="M 237.386719 152.507812 C 237.386719 152.507812 210.804688 150.359375 216.214844 170.496094 C 228.449219 176.027344 231.773438 166.417969 233.964844 159.269531 C 235.179688 155.320312 237.386719 152.507812 237.386719 152.507812 " fill-opacity="1" fill-rule="nonzero"/></g><path fill="#1c6434" d="M 212.820312 121.589844 C 213.699219 121.589844 214.40625 122.300781 214.40625 123.179688 C 214.40625 124.058594 213.699219 124.769531 212.820312 124.769531 C 211.941406 124.769531 211.230469 124.058594 211.230469 123.179688 C 211.230469 122.300781 211.941406 121.589844 212.820312 121.589844 Z M 211.824219 125.804688 L 211.824219 141.617188 L 197.128906 156.316406 L 197.128906 170.132812 L 198.902344 170.132812 L 198.902344 157.050781 L 213.601562 142.351562 L 213.601562 125.875 C 214.769531 125.539062 215.628906 124.460938 215.628906 123.179688 C 215.628906 121.628906 214.371094 120.371094 212.820312 120.371094 C 211.269531 120.371094 210.011719 121.628906 210.011719 123.179688 C 210.011719 124.378906 210.765625 125.402344 211.824219 125.804688 " fill-opacity="1" fill-rule="nonzero"/><g clip-path="url(#511b9e52a6)"><path fill="#80cc28" d="M 137.636719 130.601562 C 137.636719 130.601562 164.21875 128.449219 158.8125 148.589844 C 146.578125 154.121094 143.253906 144.511719 141.058594 137.363281 C 139.847656 133.414062 137.636719 130.601562 137.636719 130.601562 " fill-opacity="1" fill-rule="nonzero"/></g><g clip-path="url(#c946e03f18)"><path fill="#80cc28" d="M 159.816406 103.148438 C 159.816406 103.148438 180.132812 120.425781 162.070312 130.839844 C 149.503906 126.101562 153.953125 116.953125 157.453125 110.347656 C 159.390625 106.699219 159.816406 103.148438 159.816406 103.148438 " fill-opacity="1" fill-rule="nonzero"/></g><path fill="#80cc28" d="M 164.160156 130.558594 C 164.160156 130.558594 183.128906 129.28125 179.082031 143.582031 C 170.308594 147.410156 168.03125 140.527344 166.535156 135.410156 C 165.707031 132.582031 164.160156 130.558594 164.160156 130.558594 " fill-opacity="1" fill-rule="nonzero"/><path fill="#1c6434" d="M 150.832031 142.332031 C 150.832031 141.457031 151.542969 140.742188 152.421875 140.742188 C 153.300781 140.742188 154.011719 141.457031 154.011719 142.332031 C 154.011719 143.210938 153.300781 143.921875 152.421875 143.921875 C 151.542969 143.921875 150.832031 143.210938 150.832031 142.332031 Z M 149.613281 142.332031 C 149.613281 143.882812 150.871094 145.140625 152.421875 145.140625 C 152.859375 145.140625 153.273438 145.039062 153.640625 144.859375 L 168.195312 159.414062 L 168.195312 168.785156 L 176.121094 176.710938 L 176.121094 187.875 L 177.894531 187.875 L 177.894531 175.976562 L 169.96875 168.050781 L 169.96875 158.679688 L 154.914062 143.625 C 155.117188 143.238281 155.230469 142.800781 155.230469 142.332031 C 155.230469 140.78125 153.972656 139.523438 152.421875 139.523438 C 150.871094 139.523438 149.613281 140.78125 149.613281 142.332031 " fill-opacity="1" fill-rule="nonzero"/><g clip-path="url(#860c1021b9)"><path fill="#80cc28" d="M 137.636719 152.507812 C 137.636719 152.507812 164.21875 150.355469 158.8125 170.496094 C 146.578125 176.027344 143.253906 166.417969 141.058594 159.269531 C 139.847656 155.320312 137.636719 152.507812 137.636719 152.507812 " fill-opacity="1" fill-rule="nonzero"/></g><path fill="#1c6434" d="M 163.796875 123.179688 C 163.796875 124.058594 163.085938 124.769531 162.207031 124.769531 C 161.328125 124.769531 160.617188 124.058594 160.617188 123.179688 C 160.617188 122.300781 161.328125 121.589844 162.207031 121.589844 C 163.085938 121.589844 163.796875 122.300781 163.796875 123.179688 Z M 165.015625 123.179688 C 165.015625 121.628906 163.757812 120.371094 162.207031 120.371094 C 160.65625 120.371094 159.398438 121.628906 159.398438 123.179688 C 159.398438 124.460938 160.253906 125.539062 161.425781 125.875 L 161.425781 142.351562 L 176.121094 157.050781 L 176.121094 170.132812 L 177.894531 170.132812 L 177.894531 156.316406 L 163.199219 141.617188 L 163.199219 125.804688 C 164.261719 125.402344 165.015625 124.378906 165.015625 123.179688 " fill-opacity="1" fill-rule="nonzero"/><g clip-path="url(#a874a2c0eb)"><path fill="#1c6434" d="M 200.3125 137.648438 C 200.3125 136.769531 201.023438 136.058594 201.902344 136.058594 C 202.78125 136.058594 203.492188 136.769531 203.492188 137.648438 C 203.492188 138.527344 202.78125 139.238281 201.902344 139.238281 C 201.023438 139.238281 200.3125 138.527344 200.3125 137.648438 Z M 200.601562 140.136719 C 200.992188 140.339844 201.433594 140.457031 201.902344 140.457031 C 203.453125 140.457031 204.710938 139.199219 204.710938 137.648438 C 204.710938 136.097656 203.453125 134.839844 201.902344 134.839844 C 200.351562 134.839844 199.09375 136.097656 199.09375 137.648438 C 199.09375 138.082031 199.195312 138.492188 199.371094 138.859375 L 190.144531 148.085938 L 190.144531 206.617188 L 191.917969 206.617188 L 191.917969 148.820312 Z M 221.015625 164.238281 C 221.015625 163.363281 221.726562 162.648438 222.605469 162.648438 C 223.480469 162.648438 224.191406 163.363281 224.191406 164.238281 C 224.191406 165.117188 223.480469 165.828125 222.605469 165.828125 C 221.726562 165.828125 221.015625 165.117188 221.015625 164.238281 Z M 198.902344 198.617188 L 206.832031 190.691406 L 206.832031 181.320312 L 221.386719 166.765625 C 221.753906 166.945312 222.167969 167.046875 222.605469 167.046875 C 224.15625 167.046875 225.414062 165.789062 225.414062 164.238281 C 225.414062 162.6875 224.15625 161.429688 222.605469 161.429688 C 221.050781 161.429688 219.796875 162.6875 219.796875 164.238281 C 219.796875 164.703125 219.910156 165.144531 220.113281 165.53125 L 205.058594 180.585938 L 205.058594 189.953125 L 197.128906 197.882812 L 197.128906 206.617188 L 198.902344 206.617188 Z M 150.832031 164.238281 C 150.832031 163.363281 151.542969 162.648438 152.421875 162.648438 C 153.300781 162.648438 154.011719 163.363281 154.011719 164.238281 C 154.011719 165.117188 153.300781 165.828125 152.421875 165.828125 C 151.542969 165.828125 150.832031 165.117188 150.832031 164.238281 Z M 169.96875 189.953125 L 169.96875 180.585938 L 154.914062 165.53125 C 155.117188 165.144531 155.230469 164.703125 155.230469 164.238281 C 155.230469 162.6875 153.972656 161.429688 152.421875 161.429688 C 150.871094 161.429688 149.613281 162.6875 149.613281 164.238281 C 149.613281 165.789062 150.871094 167.046875 152.421875 167.046875 C 152.859375 167.046875 153.273438 166.945312 153.640625 166.765625 L 168.195312 181.320312 L 168.195312 190.691406 L 176.121094 198.617188 L 176.121094 206.617188 L 177.894531 206.617188 L 177.894531 197.882812 Z M 171.535156 137.648438 C 171.535156 136.769531 172.246094 136.058594 173.125 136.058594 C 174.003906 136.058594 174.714844 136.769531 174.714844 137.648438 C 174.714844 138.527344 174.003906 139.238281 173.125 139.238281 C 172.246094 139.238281 171.535156 138.527344 171.535156 137.648438 Z M 175.65625 138.859375 C 175.832031 138.492188 175.933594 138.082031 175.933594 137.648438 C 175.933594 136.097656 174.675781 134.839844 173.125 134.839844 C 171.574219 134.839844 170.316406 136.097656 170.316406 137.648438 C 170.316406 139.199219 171.574219 140.457031 173.125 140.457031 C 173.59375 140.457031 174.035156 140.339844 174.421875 140.136719 L 183.105469 148.820312 L 183.105469 206.617188 L 184.882812 206.617188 L 184.882812 148.085938 L 175.65625 138.859375 " fill-opacity="1" fill-rule="nonzero"/></g><g fill="#1c6434" fill-opacity="1"><g transform="translate(104.226043, 244.384964)"><g><path d="M 11.046875 0.40625 C 9.617188 0.40625 8.296875 0.144531 7.078125 -0.375 C 5.859375 -0.894531 4.796875 -1.609375 3.890625 -2.515625 C 2.992188 -3.429688 2.289062 -4.5 1.78125 -5.71875 C 1.269531 -6.945312 1.015625 -8.28125 1.015625 -9.71875 C 1.015625 -11.144531 1.269531 -12.476562 1.78125 -13.71875 C 2.289062 -14.957031 2.992188 -16.03125 3.890625 -16.9375 C 4.796875 -17.84375 5.859375 -18.550781 7.078125 -19.0625 C 8.296875 -19.582031 9.617188 -19.84375 11.046875 -19.84375 C 12.460938 -19.84375 13.78125 -19.582031 15 -19.0625 C 16.226562 -18.550781 17.289062 -17.84375 18.1875 -16.9375 C 19.09375 -16.03125 19.800781 -14.957031 20.3125 -13.71875 C 20.820312 -12.476562 21.078125 -11.144531 21.078125 -9.71875 C 21.078125 -8.28125 20.820312 -6.945312 20.3125 -5.71875 C 19.800781 -4.5 19.09375 -3.429688 18.1875 -2.515625 C 17.289062 -1.609375 16.226562 -0.894531 15 -0.375 C 13.78125 0.144531 12.460938 0.40625 11.046875 0.40625 Z M 11.046875 -3.71875 C 11.859375 -3.71875 12.601562 -3.863281 13.28125 -4.15625 C 13.957031 -4.457031 14.539062 -4.878906 15.03125 -5.421875 C 15.53125 -5.960938 15.914062 -6.597656 16.1875 -7.328125 C 16.46875 -8.066406 16.609375 -8.863281 16.609375 -9.71875 C 16.609375 -10.5625 16.46875 -11.347656 16.1875 -12.078125 C 15.914062 -12.816406 15.53125 -13.453125 15.03125 -13.984375 C 14.539062 -14.523438 13.957031 -14.945312 13.28125 -15.25 C 12.601562 -15.5625 11.859375 -15.71875 11.046875 -15.71875 C 10.234375 -15.71875 9.488281 -15.5625 8.8125 -15.25 C 8.132812 -14.945312 7.550781 -14.523438 7.0625 -13.984375 C 6.570312 -13.453125 6.1875 -12.816406 5.90625 -12.078125 C 5.625 -11.347656 5.484375 -10.5625 5.484375 -9.71875 C 5.484375 -8.863281 5.625 -8.066406 5.90625 -7.328125 C 6.1875 -6.597656 6.570312 -5.96875 7.0625 -5.4375 C 7.550781 -4.90625 8.132812 -4.484375 8.8125 -4.171875 C 9.488281 -3.867188 10.234375 -3.71875 11.046875 -3.71875 Z M 11.046875 -3.71875 "/></g></g></g><g fill="#1c6434" fill-opacity="1"><g transform="translate(131.741073, 244.384964)"><g><path d="M 8.640625 -3.125 C 9.109375 -3.125 9.546875 -3.21875 9.953125 -3.40625 C 10.359375 -3.59375 10.707031 -3.84375 11 -4.15625 C 11.300781 -4.476562 11.535156 -4.851562 11.703125 -5.28125 C 11.867188 -5.707031 11.953125 -6.171875 11.953125 -6.671875 C 11.953125 -7.171875 11.867188 -7.632812 11.703125 -8.0625 C 11.535156 -8.488281 11.300781 -8.859375 11 -9.171875 C 10.707031 -9.492188 10.359375 -9.742188 9.953125 -9.921875 C 9.546875 -10.109375 9.109375 -10.203125 8.640625 -10.203125 C 8.160156 -10.203125 7.71875 -10.109375 7.3125 -9.921875 C 6.90625 -9.742188 6.554688 -9.492188 6.265625 -9.171875 C 5.972656 -8.859375 5.742188 -8.488281 5.578125 -8.0625 C 5.421875 -7.632812 5.34375 -7.171875 5.34375 -6.671875 C 5.34375 -6.171875 5.421875 -5.707031 5.578125 -5.28125 C 5.742188 -4.851562 5.972656 -4.476562 6.265625 -4.15625 C 6.554688 -3.84375 6.90625 -3.59375 7.3125 -3.40625 C 7.71875 -3.21875 8.160156 -3.125 8.640625 -3.125 Z M 1.59375 -13.34375 L 5.34375 -13.34375 L 5.34375 -11.890625 C 5.84375 -12.453125 6.441406 -12.898438 7.140625 -13.234375 C 7.847656 -13.578125 8.640625 -13.75 9.515625 -13.75 C 10.398438 -13.75 11.226562 -13.566406 12 -13.203125 C 12.78125 -12.847656 13.445312 -12.351562 14 -11.71875 C 14.5625 -11.082031 15.003906 -10.332031 15.328125 -9.46875 C 15.660156 -8.601562 15.828125 -7.671875 15.828125 -6.671875 C 15.828125 -5.679688 15.660156 -4.753906 15.328125 -3.890625 C 15.003906 -3.035156 14.554688 -2.289062 13.984375 -1.65625 C 13.421875 -1.019531 12.742188 -0.515625 11.953125 -0.140625 C 11.171875 0.222656 10.328125 0.40625 9.421875 0.40625 C 8.648438 0.40625 7.925781 0.269531 7.25 0 C 6.570312 -0.269531 5.984375 -0.65625 5.484375 -1.15625 L 5.484375 7.25 L 1.59375 7.25 Z M 1.59375 -13.34375 "/></g></g></g><g fill="#1c6434" fill-opacity="1"><g transform="translate(153.863557, 244.384964)"><g><path d="M 8.0625 0.40625 C 7 0.40625 6.023438 0.234375 5.140625 -0.109375 C 4.265625 -0.460938 3.503906 -0.945312 2.859375 -1.5625 C 2.222656 -2.1875 1.734375 -2.925781 1.390625 -3.78125 C 1.046875 -4.644531 0.875 -5.585938 0.875 -6.609375 C 0.875 -7.640625 1.046875 -8.585938 1.390625 -9.453125 C 1.734375 -10.328125 2.210938 -11.082031 2.828125 -11.71875 C 3.453125 -12.351562 4.191406 -12.847656 5.046875 -13.203125 C 5.898438 -13.566406 6.828125 -13.75 7.828125 -13.75 C 8.773438 -13.75 9.648438 -13.585938 10.453125 -13.265625 C 11.253906 -12.941406 11.953125 -12.488281 12.546875 -11.90625 C 13.148438 -11.332031 13.617188 -10.648438 13.953125 -9.859375 C 14.296875 -9.066406 14.46875 -8.195312 14.46875 -7.25 C 14.46875 -6.90625 14.457031 -6.613281 14.4375 -6.375 C 14.414062 -6.144531 14.378906 -5.863281 14.328125 -5.53125 L 4.90625 -5.53125 C 5.09375 -4.726562 5.488281 -4.09375 6.09375 -3.625 C 6.707031 -3.15625 7.488281 -2.921875 8.4375 -2.921875 C 9.113281 -2.921875 9.75 -3.046875 10.34375 -3.296875 C 10.945312 -3.554688 11.507812 -3.96875 12.03125 -4.53125 L 14.09375 -2.234375 C 13.34375 -1.359375 12.441406 -0.695312 11.390625 -0.25 C 10.347656 0.1875 9.238281 0.40625 8.0625 0.40625 Z M 10.609375 -8.234375 C 10.441406 -9.046875 10.109375 -9.664062 9.609375 -10.09375 C 9.117188 -10.519531 8.503906 -10.734375 7.765625 -10.734375 C 7.015625 -10.734375 6.382812 -10.507812 5.875 -10.0625 C 5.363281 -9.613281 5.019531 -9.003906 4.84375 -8.234375 Z M 10.609375 -8.234375 "/></g></g></g><g fill="#1c6434" fill-opacity="1"><g transform="translate(174.623401, 244.384964)"><g><path d="M 1.59375 -13.34375 L 5.34375 -13.34375 L 5.34375 -11.75 C 5.800781 -12.382812 6.351562 -12.875 7 -13.21875 C 7.644531 -13.570312 8.359375 -13.75 9.140625 -13.75 C 9.847656 -13.75 10.507812 -13.609375 11.125 -13.328125 C 11.75 -13.046875 12.28125 -12.65625 12.71875 -12.15625 C 13.164062 -11.664062 13.515625 -11.085938 13.765625 -10.421875 C 14.023438 -9.753906 14.15625 -9.035156 14.15625 -8.265625 L 14.15625 0 L 10.265625 0 L 10.265625 -7.3125 C 10.265625 -8.195312 10.050781 -8.898438 9.625 -9.421875 C 9.195312 -9.941406 8.617188 -10.203125 7.890625 -10.203125 C 7.148438 -10.203125 6.5625 -9.929688 6.125 -9.390625 C 5.695312 -8.847656 5.484375 -8.125 5.484375 -7.21875 L 5.484375 0 L 1.59375 0 Z M 1.59375 -13.34375 "/></g></g></g><g fill="#1c6434" fill-opacity="1"><g transform="translate(195.644183, 244.384964)"><g/></g></g><g fill="#1c6434" fill-opacity="1"><g transform="translate(207.445461, 244.384964)"><g><path d="M 2.171875 -19.4375 L 6.40625 -19.4375 L 6.40625 -3.96875 L 13.140625 -3.96875 L 13.140625 0 L 2.171875 0 Z M 2.171875 -19.4375 "/></g></g></g><g fill="#1c6434" fill-opacity="1"><g transform="translate(226.871668, 244.384964)"><g><path d="M 1.65625 -13.34375 L 5.53125 -13.34375 L 5.53125 0 L 1.65625 0 Z M 3.59375 -15.40625 C 2.957031 -15.40625 2.414062 -15.625 1.96875 -16.0625 C 1.53125 -16.507812 1.3125 -17.050781 1.3125 -17.6875 C 1.3125 -18.3125 1.53125 -18.84375 1.96875 -19.28125 C 2.414062 -19.726562 2.957031 -19.953125 3.59375 -19.953125 C 4.226562 -19.953125 4.765625 -19.726562 5.203125 -19.28125 C 5.640625 -18.84375 5.859375 -18.3125 5.859375 -17.6875 C 5.859375 -17.050781 5.640625 -16.507812 5.203125 -16.0625 C 4.765625 -15.625 4.226562 -15.40625 3.59375 -15.40625 Z M 3.59375 -15.40625 "/></g></g></g><g fill="#1c6434" fill-opacity="1"><g transform="translate(239.455728, 244.384964)"><g><path d="M 2.609375 -10.203125 L 0.578125 -10.203125 L 0.578125 -13.34375 L 2.609375 -13.34375 L 2.609375 -15.3125 C 2.609375 -16.957031 3.054688 -18.25 3.953125 -19.1875 C 4.859375 -20.125 6.070312 -20.59375 7.59375 -20.59375 C 9.125 -20.59375 10.453125 -20.085938 11.578125 -19.078125 L 9.625 -16.390625 C 9.351562 -16.691406 9.085938 -16.898438 8.828125 -17.015625 C 8.566406 -17.140625 8.289062 -17.203125 8 -17.203125 C 7 -17.203125 6.5 -16.582031 6.5 -15.34375 L 6.5 -13.34375 L 10.265625 -13.34375 L 10.265625 -10.203125 L 6.5 -10.203125 L 6.5 0 L 2.609375 0 Z M 2.609375 -10.203125 "/></g></g></g><g fill="#1c6434" fill-opacity="1"><g transform="translate(255.431874, 244.384964)"><g><path d="M 8.0625 0.40625 C 7 0.40625 6.023438 0.234375 5.140625 -0.109375 C 4.265625 -0.460938 3.503906 -0.945312 2.859375 -1.5625 C 2.222656 -2.1875 1.734375 -2.925781 1.390625 -3.78125 C 1.046875 -4.644531 0.875 -5.585938 0.875 -6.609375 C 0.875 -7.640625 1.046875 -8.585938 1.390625 -9.453125 C 1.734375 -10.328125 2.210938 -11.082031 2.828125 -11.71875 C 3.453125 -12.351562 4.191406 -12.847656 5.046875 -13.203125 C 5.898438 -13.566406 6.828125 -13.75 7.828125 -13.75 C 8.773438 -13.75 9.648438 -13.585938 10.453125 -13.265625 C 11.253906 -12.941406 11.953125 -12.488281 12.546875 -11.90625 C 13.148438 -11.332031 13.617188 -10.648438 13.953125 -9.859375 C 14.296875 -9.066406 14.46875 -8.195312 14.46875 -7.25 C 14.46875 -6.90625 14.457031 -6.613281 14.4375 -6.375 C 14.414062 -6.144531 14.378906 -5.863281 14.328125 -5.53125 L 4.90625 -5.53125 C 5.09375 -4.726562 5.488281 -4.09375 6.09375 -3.625 C 6.707031 -3.15625 7.488281 -2.921875 8.4375 -2.921875 C 9.113281 -2.921875 9.75 -3.046875 10.34375 -3.296875 C 10.945312 -3.554688 11.507812 -3.96875 12.03125 -4.53125 L 14.09375 -2.234375 C 13.34375 -1.359375 12.441406 -0.695312 11.390625 -0.25 C 10.347656 0.1875 9.238281 0.40625 8.0625 0.40625 Z M 10.609375 -8.234375 C 10.441406 -9.046875 10.109375 -9.664062 9.609375 -10.09375 C 9.117188 -10.519531 8.503906 -10.734375 7.765625 -10.734375 C 7.015625 -10.734375 6.382812 -10.507812 5.875 -10.0625 C 5.363281 -9.613281 5.019531 -9.003906 4.84375 -8.234375 Z M 10.609375 -8.234375 "/></g></g></g><g fill="#1c6434" fill-opacity="1"><g transform="translate(122.261198, 284.884961)"><g><path d="M 7.390625 0.515625 C 5.890625 0.515625 4.535156 0.175781 3.328125 -0.5 C 2.128906 -1.175781 1.164062 -2.148438 0.4375 -3.421875 L 3.390625 -5.890625 C 4.398438 -4.085938 5.722656 -3.1875 7.359375 -3.1875 C 8.097656 -3.1875 8.691406 -3.363281 9.140625 -3.71875 C 9.597656 -4.082031 9.828125 -4.554688 9.828125 -5.140625 C 9.828125 -5.671875 9.601562 -6.132812 9.15625 -6.53125 C 8.71875 -6.9375 7.914062 -7.390625 6.75 -7.890625 C 4.957031 -8.679688 3.648438 -9.5625 2.828125 -10.53125 C 2.003906 -11.507812 1.59375 -12.675781 1.59375 -14.03125 C 1.59375 -14.882812 1.742188 -15.664062 2.046875 -16.375 C 2.359375 -17.09375 2.796875 -17.707031 3.359375 -18.21875 C 3.921875 -18.738281 4.585938 -19.140625 5.359375 -19.421875 C 6.140625 -19.703125 6.992188 -19.84375 7.921875 -19.84375 C 10.367188 -19.84375 12.445312 -18.785156 14.15625 -16.671875 L 11.34375 -14.125 C 10.800781 -14.84375 10.257812 -15.367188 9.71875 -15.703125 C 9.175781 -16.046875 8.578125 -16.21875 7.921875 -16.21875 C 7.273438 -16.21875 6.765625 -16.054688 6.390625 -15.734375 C 6.015625 -15.410156 5.828125 -14.976562 5.828125 -14.4375 C 5.828125 -13.84375 6.078125 -13.351562 6.578125 -12.96875 C 7.085938 -12.582031 7.84375 -12.164062 8.84375 -11.71875 C 10.675781 -10.90625 12.003906 -10 12.828125 -9 C 13.648438 -8.007812 14.0625 -6.835938 14.0625 -5.484375 C 14.0625 -4.585938 13.894531 -3.769531 13.5625 -3.03125 C 13.238281 -2.300781 12.785156 -1.671875 12.203125 -1.140625 C 11.628906 -0.609375 10.929688 -0.203125 10.109375 0.078125 C 9.285156 0.367188 8.378906 0.515625 7.390625 0.515625 Z M 7.390625 0.515625 "/></g></g></g><g fill="#1c6434" fill-opacity="1"><g transform="translate(142.847094, 284.884961)"><g><path d="M 8.125 0.40625 C 7.09375 0.40625 6.132812 0.226562 5.25 -0.125 C 4.375 -0.488281 3.609375 -0.988281 2.953125 -1.625 C 2.296875 -2.257812 1.785156 -3.003906 1.421875 -3.859375 C 1.054688 -4.722656 0.875 -5.648438 0.875 -6.640625 C 0.875 -7.648438 1.054688 -8.582031 1.421875 -9.4375 C 1.785156 -10.300781 2.296875 -11.050781 2.953125 -11.6875 C 3.609375 -12.320312 4.378906 -12.820312 5.265625 -13.1875 C 6.160156 -13.5625 7.125 -13.75 8.15625 -13.75 C 9.3125 -13.75 10.390625 -13.507812 11.390625 -13.03125 C 12.398438 -12.5625 13.253906 -11.890625 13.953125 -11.015625 L 11.25 -8.4375 C 10.414062 -9.519531 9.382812 -10.0625 8.15625 -10.0625 C 7.164062 -10.0625 6.363281 -9.742188 5.75 -9.109375 C 5.144531 -8.484375 4.84375 -7.679688 4.84375 -6.703125 C 4.84375 -5.671875 5.148438 -4.84375 5.765625 -4.21875 C 6.390625 -3.59375 7.191406 -3.28125 8.171875 -3.28125 C 9.429688 -3.28125 10.503906 -3.835938 11.390625 -4.953125 L 14.09375 -2.34375 C 13.394531 -1.5 12.53125 -0.828125 11.5 -0.328125 C 10.46875 0.160156 9.34375 0.40625 8.125 0.40625 Z M 8.125 0.40625 "/></g></g></g><g fill="#1c6434" fill-opacity="1"><g transform="translate(162.940126, 284.884961)"><g><path d="M 1.65625 -13.34375 L 5.53125 -13.34375 L 5.53125 0 L 1.65625 0 Z M 3.59375 -15.40625 C 2.957031 -15.40625 2.414062 -15.625 1.96875 -16.0625 C 1.53125 -16.507812 1.3125 -17.050781 1.3125 -17.6875 C 1.3125 -18.3125 1.53125 -18.84375 1.96875 -19.28125 C 2.414062 -19.726562 2.957031 -19.953125 3.59375 -19.953125 C 4.226562 -19.953125 4.765625 -19.726562 5.203125 -19.28125 C 5.640625 -18.84375 5.859375 -18.3125 5.859375 -17.6875 C 5.859375 -17.050781 5.640625 -16.507812 5.203125 -16.0625 C 4.765625 -15.625 4.226562 -15.40625 3.59375 -15.40625 Z M 3.59375 -15.40625 "/></g></g></g><g fill="#1c6434" fill-opacity="1"><g transform="translate(175.524189, 284.884961)"><g><path d="M 8.0625 0.40625 C 7 0.40625 6.023438 0.234375 5.140625 -0.109375 C 4.265625 -0.460938 3.503906 -0.945312 2.859375 -1.5625 C 2.222656 -2.1875 1.734375 -2.925781 1.390625 -3.78125 C 1.046875 -4.644531 0.875 -5.585938 0.875 -6.609375 C 0.875 -7.640625 1.046875 -8.585938 1.390625 -9.453125 C 1.734375 -10.328125 2.210938 -11.082031 2.828125 -11.71875 C 3.453125 -12.351562 4.191406 -12.847656 5.046875 -13.203125 C 5.898438 -13.566406 6.828125 -13.75 7.828125 -13.75 C 8.773438 -13.75 9.648438 -13.585938 10.453125 -13.265625 C 11.253906 -12.941406 11.953125 -12.488281 12.546875 -11.90625 C 13.148438 -11.332031 13.617188 -10.648438 13.953125 -9.859375 C 14.296875 -9.066406 14.46875 -8.195312 14.46875 -7.25 C 14.46875 -6.90625 14.457031 -6.613281 14.4375 -6.375 C 14.414062 -6.144531 14.378906 -5.863281 14.328125 -5.53125 L 4.90625 -5.53125 C 5.09375 -4.726562 5.488281 -4.09375 6.09375 -3.625 C 6.707031 -3.15625 7.488281 -2.921875 8.4375 -2.921875 C 9.113281 -2.921875 9.75 -3.046875 10.34375 -3.296875 C 10.945312 -3.554688 11.507812 -3.96875 12.03125 -4.53125 L 14.09375 -2.234375 C 13.34375 -1.359375 12.441406 -0.695312 11.390625 -0.25 C 10.347656 0.1875 9.238281 0.40625 8.0625 0.40625 Z M 10.609375 -8.234375 C 10.441406 -9.046875 10.109375 -9.664062 9.609375 -10.09375 C 9.117188 -10.519531 8.503906 -10.734375 7.765625 -10.734375 C 7.015625 -10.734375 6.382812 -10.507812 5.875 -10.0625 C 5.363281 -9.613281 5.019531 -9.003906 4.84375 -8.234375 Z M 10.609375 -8.234375 "/></g></g></g><g fill="#1c6434" fill-opacity="1"><g transform="translate(196.284033, 284.884961)"><g><path d="M 1.59375 -13.34375 L 5.34375 -13.34375 L 5.34375 -11.75 C 5.800781 -12.382812 6.351562 -12.875 7 -13.21875 C 7.644531 -13.570312 8.359375 -13.75 9.140625 -13.75 C 9.847656 -13.75 10.507812 -13.609375 11.125 -13.328125 C 11.75 -13.046875 12.28125 -12.65625 12.71875 -12.15625 C 13.164062 -11.664062 13.515625 -11.085938 13.765625 -10.421875 C 14.023438 -9.753906 14.15625 -9.035156 14.15625 -8.265625 L 14.15625 0 L 10.265625 0 L 10.265625 -7.3125 C 10.265625 -8.195312 10.050781 -8.898438 9.625 -9.421875 C 9.195312 -9.941406 8.617188 -10.203125 7.890625 -10.203125 C 7.148438 -10.203125 6.5625 -9.929688 6.125 -9.390625 C 5.695312 -8.847656 5.484375 -8.125 5.484375 -7.21875 L 5.484375 0 L 1.59375 0 Z M 1.59375 -13.34375 "/></g></g></g><g fill="#1c6434" fill-opacity="1"><g transform="translate(217.304814, 284.884961)"><g><path d="M 8.125 0.40625 C 7.09375 0.40625 6.132812 0.226562 5.25 -0.125 C 4.375 -0.488281 3.609375 -0.988281 2.953125 -1.625 C 2.296875 -2.257812 1.785156 -3.003906 1.421875 -3.859375 C 1.054688 -4.722656 0.875 -5.648438 0.875 -6.640625 C 0.875 -7.648438 1.054688 -8.582031 1.421875 -9.4375 C 1.785156 -10.300781 2.296875 -11.050781 2.953125 -11.6875 C 3.609375 -12.320312 4.378906 -12.820312 5.265625 -13.1875 C 6.160156 -13.5625 7.125 -13.75 8.15625 -13.75 C 9.3125 -13.75 10.390625 -13.507812 11.390625 -13.03125 C 12.398438 -12.5625 13.253906 -11.890625 13.953125 -11.015625 L 11.25 -8.4375 C 10.414062 -9.519531 9.382812 -10.0625 8.15625 -10.0625 C 7.164062 -10.0625 6.363281 -9.742188 5.75 -9.109375 C 5.144531 -8.484375 4.84375 -7.679688 4.84375 -6.703125 C 4.84375 -5.671875 5.148438 -4.84375 5.765625 -4.21875 C 6.390625 -3.59375 7.191406 -3.28125 8.171875 -3.28125 C 9.429688 -3.28125 10.503906 -3.835938 11.390625 -4.953125 L 14.09375 -2.34375 C 13.394531 -1.5 12.53125 -0.828125 11.5 -0.328125 C 10.46875 0.160156 9.34375 0.40625 8.125 0.40625 Z M 8.125 0.40625 "/></g></g></g><g fill="#1c6434" fill-opacity="1"><g transform="translate(237.397851, 284.884961)"><g><path d="M 8.0625 0.40625 C 7 0.40625 6.023438 0.234375 5.140625 -0.109375 C 4.265625 -0.460938 3.503906 -0.945312 2.859375 -1.5625 C 2.222656 -2.1875 1.734375 -2.925781 1.390625 -3.78125 C 1.046875 -4.644531 0.875 -5.585938 0.875 -6.609375 C 0.875 -7.640625 1.046875 -8.585938 1.390625 -9.453125 C 1.734375 -10.328125 2.210938 -11.082031 2.828125 -11.71875 C 3.453125 -12.351562 4.191406 -12.847656 5.046875 -13.203125 C 5.898438 -13.566406 6.828125 -13.75 7.828125 -13.75 C 8.773438 -13.75 9.648438 -13.585938 10.453125 -13.265625 C 11.253906 -12.941406 11.953125 -12.488281 12.546875 -11.90625 C 13.148438 -11.332031 13.617188 -10.648438 13.953125 -9.859375 C 14.296875 -9.066406 14.46875 -8.195312 14.46875 -7.25 C 14.46875 -6.90625 14.457031 -6.613281 14.4375 -6.375 C 14.414062 -6.144531 14.378906 -5.863281 14.328125 -5.53125 L 4.90625 -5.53125 C 5.09375 -4.726562 5.488281 -4.09375 6.09375 -3.625 C 6.707031 -3.15625 7.488281 -2.921875 8.4375 -2.921875 C 9.113281 -2.921875 9.75 -3.046875 10.34375 -3.296875 C 10.945312 -3.554688 11.507812 -3.96875 12.03125 -4.53125 L 14.09375 -2.234375 C 13.34375 -1.359375 12.441406 -0.695312 11.390625 -0.25 C 10.347656 0.1875 9.238281 0.40625 8.0625 0.40625 Z M 10.609375 -8.234375 C 10.441406 -9.046875 10.109375 -9.664062 9.609375 -10.09375 C 9.117188 -10.519531 8.503906 -10.734375 7.765625 -10.734375 C 7.015625 -10.734375 6.382812 -10.507812 5.875 -10.0625 C 5.363281 -9.613281 5.019531 -9.003906 4.84375 -8.234375 Z M 10.609375 -8.234375 "/></g></g></g></svg>