<svg xmlns="http://www.w3.org/2000/svg" xmlns:xlink="http://www.w3.org/1999/xlink" width="500" zoomAndPan="magnify" viewBox="0 0 375 374.999991" height="500" preserveAspectRatio="xMidYMid meet" version="1.0"><defs><g/><clipPath id="bac6e763dd"><path d="M 141.691406 92.800781 L 233.191406 92.800781 L 233.191406 218.800781 L 141.691406 218.800781 Z M 141.691406 92.800781 " clip-rule="nonzero"/></clipPath></defs><rect x="-37.5" width="450" fill="#ffffff" y="-37.499999" height="449.999989" fill-opacity="1"/><rect x="-37.5" width="450" fill="#ffffff" y="-37.499999" height="449.999989" fill-opacity="1"/><rect x="-37.5" width="450" fill="#eee4e1" y="-37.499999" height="449.999989" fill-opacity="1"/><path fill="#808080" d="M 162.429688 94.40625 L 212.429688 94.40625 C 213 94.40625 213.460938 94.863281 213.460938 95.433594 L 213.460938 100.746094 C 213.460938 101.316406 213 101.773438 212.429688 101.773438 L 162.429688 101.773438 C 161.863281 101.773438 161.402344 101.316406 161.402344 100.746094 L 161.402344 95.433594 C 161.40625 94.863281 161.863281 94.40625 162.429688 94.40625 Z M 162.429688 94.40625 " fill-opacity="1" fill-rule="nonzero"/><path fill="#484848" d="M 162.429688 94.40625 C 161.863281 94.40625 161.402344 94.863281 161.402344 95.433594 L 161.402344 100.746094 C 161.402344 101.316406 161.859375 101.773438 162.429688 101.773438 L 167.5625 101.773438 C 166.996094 101.773438 166.535156 101.316406 166.535156 100.746094 L 166.535156 95.433594 C 166.535156 94.863281 166.992188 94.40625 167.5625 94.40625 Z M 162.429688 94.40625 " fill-opacity="1" fill-rule="nonzero"/><path fill="#eceff1" d="M 218.6875 217.199219 C 226.6875 209.199219 231.636719 198.148438 231.636719 185.9375 C 231.625 169.625 222.636719 154.644531 208.246094 146.960938 L 208.246094 101.773438 L 166.613281 101.773438 L 166.613281 146.980469 C 152.230469 154.65625 143.242188 169.632812 143.226562 185.9375 C 143.226562 198.144531 148.175781 209.199219 156.175781 217.199219 Z M 218.6875 217.199219 " fill-opacity="1" fill-rule="nonzero"/><path fill="#b7c3cb" d="M 166.613281 101.773438 L 166.613281 146.980469 C 152.230469 154.65625 143.242188 169.632812 143.226562 185.941406 C 143.226562 198.148438 148.175781 209.199219 156.175781 217.199219 L 166.441406 217.199219 C 158.445312 209.199219 153.496094 198.148438 153.496094 185.941406 C 153.507812 169.636719 162.5 155.6875 176.882812 148.007812 L 176.882812 101.773438 Z M 166.613281 101.773438 " fill-opacity="1" fill-rule="nonzero"/><path fill="#ffde80" d="M 154 157.058594 C 147.175781 164.953125 143.234375 175.15625 143.226562 185.9375 C 143.226562 198.144531 148.175781 209.199219 156.175781 217.199219 L 218.691406 217.199219 C 226.691406 209.199219 231.640625 198.148438 231.640625 185.9375 C 231.632812 175.15625 227.699219 164.953125 220.882812 157.058594 Z M 154 157.058594 " fill-opacity="1" fill-rule="nonzero"/><path fill="#ffb34b" d="M 154 157.058594 C 147.175781 164.953125 143.234375 175.15625 143.226562 185.9375 C 143.226562 198.144531 148.175781 209.199219 156.175781 217.199219 L 218.691406 217.199219 C 221.710938 214.175781 224.296875 210.71875 226.347656 206.929688 L 166.441406 206.929688 C 158.441406 198.929688 153.492188 187.878906 153.492188 175.667969 C 153.496094 169.121094 154.957031 162.789062 157.625 157.058594 Z M 154 157.058594 " fill-opacity="1" fill-rule="nonzero"/><path fill="#00e676" d="M 178.914062 188.074219 C 172.390625 188.988281 165.363281 187.453125 165.363281 187.453125 C 165.363281 187.453125 167.007812 198.414062 175.933594 202.183594 C 175.933594 202.183594 182.554688 205.550781 189.808594 201.40625 C 189.808594 194.617188 186.390625 187.070312 178.914062 188.074219 Z M 178.914062 188.074219 " fill-opacity="1" fill-rule="nonzero"/><path fill="#00a757" d="M 165.363281 187.449219 C 165.363281 187.449219 165.734375 189.902344 167.066406 192.886719 C 169.53125 193.28125 174.320312 193.847656 178.914062 193.207031 C 184.621094 192.441406 187.960938 196.660156 189.222656 201.71875 C 189.417969 201.617188 189.609375 201.515625 189.808594 201.402344 C 189.808594 194.617188 186.390625 187.070312 178.914062 188.074219 C 172.390625 188.988281 165.363281 187.449219 165.363281 187.449219 Z M 165.363281 187.449219 " fill-opacity="1" fill-rule="nonzero"/><path fill="#00e676" d="M 189.804688 201.496094 C 182.730469 193.226562 186.242188 182.746094 193.234375 180.042969 C 200.972656 176.953125 207.703125 170.859375 207.703125 170.859375 C 207.703125 170.859375 212.902344 183.914062 205.519531 193.648438 C 205.519531 193.648438 200.410156 201.496094 189.804688 201.496094 Z M 189.804688 201.496094 " fill-opacity="1" fill-rule="nonzero"/><path fill="#00a757" d="M 207.699219 170.859375 C 207.699219 170.859375 200.972656 176.953125 193.234375 180.042969 C 186.242188 182.746094 182.730469 193.226562 189.804688 201.496094 C 190.214844 201.496094 190.609375 201.484375 191.003906 201.460938 C 187.394531 194 190.828125 185.957031 196.828125 183.640625 C 201.882812 181.621094 206.492188 178.328125 209.089844 176.285156 C 208.566406 173.039062 207.699219 170.859375 207.699219 170.859375 Z M 207.699219 170.859375 " fill-opacity="1" fill-rule="nonzero"/><g clip-path="url(#bac6e763dd)"><path fill="#000000" d="M 162.429688 92.863281 C 161.035156 92.863281 159.863281 94.039062 159.863281 95.429688 L 159.863281 100.746094 C 159.863281 102.144531 161.035156 103.3125 162.429688 103.3125 L 165.074219 103.3125 L 165.074219 146.132812 C 161.671875 148.578125 154.960938 153.835938 152.617188 156.375 C 145.695312 164.488281 141.695312 174.910156 141.691406 186.738281 C 141.683594 198.5625 146.804688 210.011719 155.082031 218.289062 C 155.371094 218.578125 155.765625 218.742188 156.171875 218.742188 L 218.6875 218.742188 C 219.097656 218.742188 219.488281 218.578125 219.777344 218.289062 C 228.054688 210.011719 233.175781 198.5625 233.171875 186.738281 C 233.171875 174.910156 229.175781 164.488281 222.257812 156.371094 C 219.070312 152.195312 213.710938 148.347656 209.785156 146.113281 C 209.796875 131.875 209.785156 117.535156 209.785156 103.3125 L 212.429688 103.3125 C 213.824219 103.3125 214.996094 102.140625 214.996094 100.746094 L 214.996094 95.429688 C 214.996094 94.03125 213.824219 92.863281 212.429688 92.863281 Z M 162.945312 95.945312 L 211.914062 95.945312 L 211.914062 100.234375 C 195.589844 100.234375 179.269531 100.234375 162.945312 100.234375 Z M 168.152344 103.3125 L 206.707031 103.3125 L 206.707031 107.933594 L 197.417969 107.933594 C 196.546875 107.902344 195.824219 108.601562 195.824219 109.472656 C 195.824219 110.34375 196.546875 111.039062 197.417969 111.011719 L 206.707031 111.011719 L 206.707031 115.097656 L 202.550781 115.097656 C 201.699219 115.097656 201.011719 115.789062 201.011719 116.640625 C 201.011719 117.488281 201.699219 118.179688 202.550781 118.179688 L 206.707031 118.179688 L 206.707031 122.265625 L 197.417969 122.265625 C 196.566406 122.265625 195.875 122.957031 195.875 123.808594 C 195.875 124.660156 196.566406 125.347656 197.417969 125.347656 L 206.707031 125.347656 L 206.707031 129.433594 L 202.550781 129.433594 C 201.707031 129.445312 201.03125 130.132812 201.03125 130.976562 C 201.03125 131.820312 201.710938 132.507812 202.550781 132.519531 L 206.707031 132.519531 L 206.707031 136.605469 L 197.417969 136.605469 C 196.546875 136.574219 195.824219 137.273438 195.824219 138.144531 C 195.824219 139.015625 196.546875 139.710938 197.417969 139.683594 L 206.707031 139.683594 L 206.707031 146.964844 C 206.707031 147.53125 207.019531 148.054688 207.523438 148.324219 C 211.171875 150.273438 214.453125 152.710938 217.320312 155.523438 L 211.855469 155.523438 C 211.003906 155.523438 210.316406 156.214844 210.316406 157.066406 C 210.316406 157.917969 211.003906 158.609375 211.855469 158.609375 L 220.164062 158.609375 C 226.46875 166.152344 230.089844 175.777344 230.09375 185.945312 C 230.09375 197.53125 225.449219 207.976562 217.96875 215.664062 L 156.890625 215.664062 C 149.410156 207.976562 144.765625 197.53125 144.765625 185.945312 C 144.773438 175.777344 148.402344 166.152344 154.710938 158.609375 L 201.113281 158.609375 C 201.964844 158.609375 202.65625 157.917969 202.65625 157.066406 C 202.65625 156.214844 201.964844 155.523438 201.113281 155.523438 L 157.558594 155.523438 C 160.417969 152.71875 163.699219 150.285156 167.339844 148.34375 C 167.839844 148.074219 168.152344 147.554688 168.152344 146.984375 Z M 190.648438 107.933594 C 189.777344 107.902344 189.054688 108.601562 189.054688 109.472656 C 189.054688 110.34375 189.777344 111.039062 190.648438 111.011719 L 192.136719 111.011719 C 193.007812 111.039062 193.730469 110.34375 193.730469 109.472656 C 193.730469 108.601562 193.007812 107.902344 192.136719 107.933594 Z M 190.648438 115.101562 C 189.796875 115.101562 189.105469 115.789062 189.105469 116.640625 C 189.105469 117.492188 189.796875 118.183594 190.648438 118.183594 L 192.136719 118.183594 C 192.988281 118.183594 193.679688 117.492188 193.679688 116.640625 C 193.679688 115.789062 192.988281 115.101562 192.136719 115.101562 Z M 190.648438 122.265625 C 189.796875 122.265625 189.105469 122.957031 189.105469 123.808594 C 189.105469 124.660156 189.796875 125.347656 190.648438 125.347656 L 192.136719 125.347656 C 192.988281 125.347656 193.679688 124.660156 193.679688 123.808594 C 193.679688 122.957031 192.988281 122.265625 192.136719 122.265625 Z M 190.648438 129.433594 C 189.804688 129.441406 189.128906 130.132812 189.128906 130.972656 C 189.128906 131.816406 189.808594 132.503906 190.648438 132.515625 L 192.136719 132.515625 C 192.980469 132.507812 193.65625 131.816406 193.65625 130.972656 C 193.65625 130.132812 192.976562 129.445312 192.136719 129.433594 Z M 192.140625 136.601562 L 190.648438 136.601562 C 189.777344 136.570312 189.054688 137.269531 189.054688 138.136719 C 189.054688 139.007812 189.777344 139.707031 190.648438 139.675781 L 192.136719 139.675781 C 193.003906 139.703125 193.722656 139.007812 193.726562 138.140625 C 193.726562 137.273438 193.011719 136.574219 192.140625 136.601562 Z M 205.613281 155.519531 C 204.765625 155.519531 204.074219 156.210938 204.074219 157.0625 C 204.074219 157.914062 204.765625 158.601562 205.613281 158.601562 L 207.503906 158.601562 C 208.351562 158.601562 209.042969 157.914062 209.042969 157.0625 C 209.042969 156.210938 208.351562 155.519531 207.503906 155.519531 Z M 207.6875 169.320312 C 207.308594 169.324219 206.945312 169.464844 206.667969 169.722656 C 201.335938 173.316406 197.996094 176.699219 192.679688 178.609375 C 188.859375 180.085938 186.039062 183.507812 184.933594 187.648438 C 182.996094 186.652344 180.820312 186.226562 178.683594 186.550781 C 172.550781 187.40625 165.691406 185.945312 165.691406 185.945312 C 165.589844 185.925781 165.488281 185.914062 165.386719 185.914062 C 164.433594 185.898438 163.699219 186.742188 163.839844 187.679688 C 163.839844 187.679688 165.488281 199.398438 175.289062 203.578125 C 175.433594 203.644531 181.363281 206.542969 188.265625 203.84375 L 188.265625 207.953125 C 188.234375 208.824219 188.933594 209.546875 189.804688 209.546875 C 190.675781 209.546875 191.375 208.824219 191.34375 207.953125 L 191.34375 202.980469 C 201.582031 202.269531 206.6875 194.664062 206.773438 194.535156 C 214.710938 184 209.128906 170.292969 209.128906 170.292969 C 208.894531 169.699219 208.324219 169.3125 207.6875 169.320312 Z M 206.898438 173.460938 C 207.929688 177.316406 209.398438 185.980469 204.289062 192.71875 C 199.804688 197.898438 198.050781 199.0625 191.5625 199.820312 C 191.652344 199.359375 191.777344 198.84375 191.957031 198.285156 C 193.023438 198.210938 194.101562 198.113281 195.101562 197.933594 C 195.703125 197.828125 196.199219 197.761719 196.832031 197.398438 C 198.195312 196.632812 197.6875 194.5625 196.128906 194.511719 C 195.832031 194.503906 195.542969 194.578125 195.289062 194.730469 C 194.808594 194.859375 194.167969 194.972656 193.621094 195.039062 C 194.335938 194.03125 195.128906 193.46875 196.050781 192.882812 C 198.46875 191.371094 200.054688 190.324219 201.203125 189.390625 C 202.386719 188.417969 203.140625 187.46875 203.636719 186.433594 C 204.136719 185.429688 203.429688 184.246094 202.308594 184.210938 C 201.691406 184.1875 201.121094 184.539062 200.859375 185.097656 C 200.53125 185.78125 200.210938 186.21875 199.253906 187.007812 C 198.628906 187.519531 197.707031 188.160156 196.464844 188.96875 C 196.503906 188.285156 196.585938 187.636719 196.691406 187.34375 C 197.058594 186.351562 196.339844 185.296875 195.28125 185.269531 C 194.609375 185.253906 194 185.679688 193.785156 186.316406 C 193.355469 187.523438 193.34375 188.8125 193.355469 189.910156 C 193.363281 190.308594 193.375 190.65625 193.394531 190.964844 C 191.464844 192.402344 190.257812 194.246094 189.507812 195.988281 C 189.285156 196.445312 189.125 196.964844 188.980469 197.414062 C 187 191.222656 188.554688 183.574219 193.808594 181.476562 C 200.226562 178.910156 204.84375 175.195312 206.898438 173.460938 Z M 167.4375 189.324219 C 169.875 189.738281 174.082031 190.304688 179.125 189.597656 C 181.3125 189.214844 183.082031 190.027344 184.429688 190.925781 C 184.367188 192.476562 184.535156 194.078125 184.964844 195.675781 C 184.449219 195.507812 183.898438 195.375 183.316406 195.292969 C 183.222656 195.109375 183.113281 194.90625 182.988281 194.691406 C 182.554688 193.925781 182.035156 193.03125 181.199219 192.320312 C 180.925781 192.082031 180.582031 191.945312 180.21875 191.9375 C 178.757812 191.902344 178.078125 193.730469 179.199219 194.660156 C 179.277344 194.726562 179.402344 194.882812 179.542969 195.0625 C 178.71875 195.007812 178.082031 194.9375 177.597656 194.855469 C 176.660156 194.699219 176.328125 194.550781 175.867188 194.234375 C 175.613281 194.054688 175.308594 193.957031 175 193.953125 C 173.460938 193.925781 172.84375 195.929688 174.128906 196.777344 C 174.910156 197.3125 175.859375 197.6875 177.085938 197.894531 C 178.253906 198.09375 179.753906 198.1875 181.976562 198.273438 C 182.527344 198.320312 183.101562 198.359375 183.601562 198.488281 C 183.335938 198.5625 183.132812 198.585938 183.3125 198.585938 C 182.460938 198.578125 181.769531 199.269531 181.765625 200.117188 C 181.761719 200.96875 182.449219 201.664062 183.300781 201.664062 C 183.964844 201.667969 184.335938 201.503906 184.808594 201.335938 C 185.566406 201.058594 186.234375 200.757812 186.917969 200.429688 C 187.078125 200.582031 187.230469 200.734375 187.367188 200.882812 C 181.496094 203.332031 176.628906 200.804688 176.628906 200.804688 C 176.597656 200.789062 176.566406 200.773438 176.53125 200.761719 C 170.773438 198.328125 168.367188 192.46875 167.4375 189.324219 Z M 167.4375 189.324219 " fill-opacity="1" fill-rule="nonzero"/></g><g fill="#000000" fill-opacity="1"><g transform="translate(59.295319, 256.633562)"><g><path d="M 16.34375 -7.390625 C 16.34375 -5.117188 15.613281 -3.25 14.15625 -1.78125 C 12.695312 -0.3125 10.828125 0.421875 8.546875 0.421875 C 6.273438 0.421875 4.410156 -0.304688 2.953125 -1.765625 C 1.492188 -3.222656 0.765625 -5.09375 0.765625 -7.375 C 0.765625 -9.65625 1.5 -11.53125 2.96875 -13 C 4.445312 -14.46875 6.335938 -15.203125 8.640625 -15.203125 C 10.859375 -15.203125 12.695312 -14.460938 14.15625 -12.984375 C 15.613281 -11.503906 16.34375 -9.640625 16.34375 -7.390625 Z M 12.453125 -7.234375 C 12.453125 -9.523438 12.117188 -11.300781 11.453125 -12.5625 C 10.785156 -13.832031 9.84375 -14.46875 8.625 -14.46875 C 7.332031 -14.46875 6.347656 -13.84375 5.671875 -12.59375 C 4.992188 -11.351562 4.65625 -9.546875 4.65625 -7.171875 C 4.65625 -4.941406 4.988281 -3.238281 5.65625 -2.0625 C 6.332031 -0.894531 7.300781 -0.3125 8.5625 -0.3125 C 9.820312 -0.3125 10.785156 -0.898438 11.453125 -2.078125 C 12.117188 -3.253906 12.453125 -4.972656 12.453125 -7.234375 Z M 12.453125 -7.234375 "/></g></g></g><g fill="#000000" fill-opacity="1"><g transform="translate(78.608275, 256.633562)"><g><path d="M 13.203125 -10.875 C 13.203125 -10.019531 12.960938 -9.269531 12.484375 -8.625 C 12.003906 -7.976562 11.328125 -7.488281 10.453125 -7.15625 C 9.960938 -6.957031 9.429688 -6.828125 8.859375 -6.765625 C 8.296875 -6.710938 7.265625 -6.679688 5.765625 -6.671875 L 5.765625 -2.578125 C 5.765625 -1.765625 5.867188 -1.25 6.078125 -1.03125 C 6.296875 -0.820312 6.835938 -0.660156 7.703125 -0.546875 L 7.703125 0 L 0.359375 0 L 0.359375 -0.546875 C 0.679688 -0.609375 0.851562 -0.640625 0.875 -0.640625 C 1.394531 -0.691406 1.742188 -0.851562 1.921875 -1.125 C 2.109375 -1.40625 2.203125 -1.890625 2.203125 -2.578125 L 2.203125 -12.296875 C 2.203125 -13.078125 2.082031 -13.59375 1.84375 -13.84375 C 1.613281 -14.101562 1.117188 -14.265625 0.359375 -14.328125 L 0.359375 -14.875 L 7.4375 -14.875 C 9.269531 -14.875 10.6875 -14.523438 11.6875 -13.828125 C 12.695312 -13.128906 13.203125 -12.144531 13.203125 -10.875 Z M 9.421875 -10.765625 C 9.421875 -11.953125 9.222656 -12.804688 8.828125 -13.328125 C 8.429688 -13.847656 7.773438 -14.109375 6.859375 -14.109375 C 6.128906 -14.109375 5.765625 -13.847656 5.765625 -13.328125 L 5.765625 -7.4375 C 7.171875 -7.4375 8.109375 -7.632812 8.578125 -8.03125 C 9.140625 -8.53125 9.421875 -9.441406 9.421875 -10.765625 Z M 9.421875 -10.765625 "/></g></g></g><g fill="#000000" fill-opacity="1"><g transform="translate(94.247896, 256.633562)"><g><path d="M 14.109375 -4.578125 L 13.21875 0 L 0.359375 0 L 0.359375 -0.546875 C 1.171875 -0.640625 1.691406 -0.78125 1.921875 -0.96875 C 2.160156 -1.15625 2.28125 -1.535156 2.28125 -2.109375 L 2.28125 -12.765625 C 2.28125 -13.316406 2.148438 -13.703125 1.890625 -13.921875 C 1.628906 -14.140625 1.117188 -14.273438 0.359375 -14.328125 L 0.359375 -14.875 L 13.046875 -14.875 L 13.046875 -10.453125 L 12.5 -10.453125 C 12.21875 -11.921875 11.722656 -12.898438 11.015625 -13.390625 C 10.316406 -13.878906 9.070312 -14.125 7.28125 -14.125 C 6.707031 -14.125 6.328125 -14.050781 6.140625 -13.90625 C 5.953125 -13.769531 5.859375 -13.5 5.859375 -13.09375 L 5.859375 -7.984375 C 7.046875 -7.972656 7.894531 -8.203125 8.40625 -8.671875 C 8.914062 -9.140625 9.253906 -10.003906 9.421875 -11.265625 L 9.984375 -11.265625 L 9.984375 -3.828125 L 9.421875 -3.828125 C 9.285156 -5.097656 8.957031 -5.984375 8.4375 -6.484375 C 7.914062 -6.984375 7.054688 -7.234375 5.859375 -7.234375 L 5.859375 -1.90625 C 5.859375 -1.4375 5.984375 -1.113281 6.234375 -0.9375 C 6.492188 -0.769531 6.972656 -0.6875 7.671875 -0.6875 C 9.316406 -0.6875 10.640625 -1.085938 11.640625 -1.890625 C 12.316406 -2.460938 12.929688 -3.359375 13.484375 -4.578125 Z M 14.109375 -4.578125 "/></g></g></g><g fill="#000000" fill-opacity="1"><g transform="translate(111.11929, 256.633562)"><g><path d="M 15.421875 -14.328125 C 14.703125 -14.203125 14.234375 -14.035156 14.015625 -13.828125 C 13.804688 -13.617188 13.703125 -13.195312 13.703125 -12.5625 L 13.703125 0.390625 L 13.09375 0.390625 L 3.25 -11.578125 L 3.25 -2.734375 C 3.25 -1.953125 3.382812 -1.414062 3.65625 -1.125 C 3.925781 -0.84375 4.488281 -0.648438 5.34375 -0.546875 L 5.34375 0 L 0.359375 0 L 0.359375 -0.546875 C 1.160156 -0.648438 1.679688 -0.8125 1.921875 -1.03125 C 2.160156 -1.25 2.28125 -1.675781 2.28125 -2.3125 L 2.28125 -12.734375 C 1.757812 -13.367188 1.375 -13.789062 1.125 -14 C 0.875 -14.21875 0.640625 -14.328125 0.421875 -14.328125 L 0.421875 -14.875 L 5.0625 -14.875 L 12.734375 -5.4375 L 12.734375 -12.140625 C 12.734375 -12.921875 12.59375 -13.460938 12.3125 -13.765625 C 12.039062 -14.066406 11.5 -14.253906 10.6875 -14.328125 L 10.6875 -14.875 L 15.421875 -14.875 Z M 15.421875 -14.328125 "/></g></g></g><g fill="#000000" fill-opacity="1"><g transform="translate(129.200473, 256.633562)"><g/></g></g><g fill="#000000" fill-opacity="1"><g transform="translate(136.899508, 256.633562)"><g><path d="M 14.03125 -5 L 13.140625 0 L 0.421875 0 L 0.421875 -0.546875 C 1.222656 -0.648438 1.738281 -0.796875 1.96875 -0.984375 C 2.195312 -1.179688 2.3125 -1.554688 2.3125 -2.109375 L 2.3125 -12.765625 C 2.3125 -13.316406 2.179688 -13.703125 1.921875 -13.921875 C 1.671875 -14.140625 1.171875 -14.273438 0.421875 -14.328125 L 0.421875 -14.875 L 8.09375 -14.875 L 8.09375 -14.328125 C 7.144531 -14.273438 6.535156 -14.128906 6.265625 -13.890625 C 6.003906 -13.648438 5.875 -13.117188 5.875 -12.296875 L 5.875 -1.90625 C 5.875 -1.4375 5.992188 -1.113281 6.234375 -0.9375 C 6.472656 -0.769531 6.929688 -0.6875 7.609375 -0.6875 C 9.285156 -0.6875 10.570312 -1.085938 11.46875 -1.890625 C 11.84375 -2.242188 12.160156 -2.632812 12.421875 -3.0625 C 12.691406 -3.488281 13.015625 -4.132812 13.390625 -5 Z M 14.03125 -5 "/></g></g></g><g fill="#000000" fill-opacity="1"><g transform="translate(153.770902, 256.633562)"><g><path d="M 8.140625 0 L 0.4375 0 L 0.4375 -0.546875 C 1.257812 -0.617188 1.804688 -0.757812 2.078125 -0.96875 C 2.347656 -1.175781 2.484375 -1.554688 2.484375 -2.109375 L 2.484375 -12.765625 C 2.484375 -13.316406 2.335938 -13.695312 2.046875 -13.90625 C 1.765625 -14.125 1.226562 -14.265625 0.4375 -14.328125 L 0.4375 -14.875 L 8.140625 -14.875 L 8.140625 -14.328125 C 7.335938 -14.296875 6.785156 -14.171875 6.484375 -13.953125 C 6.191406 -13.734375 6.046875 -13.335938 6.046875 -12.765625 L 6.046875 -2.109375 C 6.046875 -1.535156 6.1875 -1.144531 6.46875 -0.9375 C 6.75 -0.738281 7.304688 -0.609375 8.140625 -0.546875 Z M 8.140625 0 "/></g></g></g><g fill="#000000" fill-opacity="1"><g transform="translate(164.527386, 256.633562)"><g><path d="M 12.828125 -10.453125 L 12.296875 -10.453125 C 12.035156 -11.648438 11.691406 -12.492188 11.265625 -12.984375 C 10.585938 -13.742188 9.253906 -14.125 7.265625 -14.125 C 6.703125 -14.125 6.328125 -14.050781 6.140625 -13.90625 C 5.953125 -13.769531 5.859375 -13.5 5.859375 -13.09375 L 5.859375 -7.984375 C 6.953125 -7.984375 7.734375 -8.210938 8.203125 -8.671875 C 8.671875 -9.140625 9.007812 -10.003906 9.21875 -11.265625 L 9.765625 -11.265625 L 9.765625 -3.828125 L 9.21875 -3.828125 C 9.070312 -5.097656 8.753906 -5.972656 8.265625 -6.453125 C 7.785156 -6.941406 6.984375 -7.203125 5.859375 -7.234375 L 5.859375 -2.109375 C 5.859375 -1.503906 6.003906 -1.101562 6.296875 -0.90625 C 6.597656 -0.707031 7.253906 -0.585938 8.265625 -0.546875 L 8.265625 0 L 0.359375 0 L 0.359375 -0.546875 C 1.171875 -0.640625 1.691406 -0.78125 1.921875 -0.96875 C 2.160156 -1.15625 2.28125 -1.535156 2.28125 -2.109375 L 2.28125 -12.765625 C 2.28125 -13.335938 2.148438 -13.726562 1.890625 -13.9375 C 1.628906 -14.144531 1.117188 -14.273438 0.359375 -14.328125 L 0.359375 -14.875 L 12.828125 -14.875 Z M 12.828125 -10.453125 "/></g></g></g><g fill="#000000" fill-opacity="1"><g transform="translate(180.167007, 256.633562)"><g><path d="M 14.109375 -4.578125 L 13.21875 0 L 0.359375 0 L 0.359375 -0.546875 C 1.171875 -0.640625 1.691406 -0.78125 1.921875 -0.96875 C 2.160156 -1.15625 2.28125 -1.535156 2.28125 -2.109375 L 2.28125 -12.765625 C 2.28125 -13.316406 2.148438 -13.703125 1.890625 -13.921875 C 1.628906 -14.140625 1.117188 -14.273438 0.359375 -14.328125 L 0.359375 -14.875 L 13.046875 -14.875 L 13.046875 -10.453125 L 12.5 -10.453125 C 12.21875 -11.921875 11.722656 -12.898438 11.015625 -13.390625 C 10.316406 -13.878906 9.070312 -14.125 7.28125 -14.125 C 6.707031 -14.125 6.328125 -14.050781 6.140625 -13.90625 C 5.953125 -13.769531 5.859375 -13.5 5.859375 -13.09375 L 5.859375 -7.984375 C 7.046875 -7.972656 7.894531 -8.203125 8.40625 -8.671875 C 8.914062 -9.140625 9.253906 -10.003906 9.421875 -11.265625 L 9.984375 -11.265625 L 9.984375 -3.828125 L 9.421875 -3.828125 C 9.285156 -5.097656 8.957031 -5.984375 8.4375 -6.484375 C 7.914062 -6.984375 7.054688 -7.234375 5.859375 -7.234375 L 5.859375 -1.90625 C 5.859375 -1.4375 5.984375 -1.113281 6.234375 -0.9375 C 6.492188 -0.769531 6.972656 -0.6875 7.671875 -0.6875 C 9.316406 -0.6875 10.640625 -1.085938 11.640625 -1.890625 C 12.316406 -2.460938 12.929688 -3.359375 13.484375 -4.578125 Z M 14.109375 -4.578125 "/></g></g></g><g fill="#000000" fill-opacity="1"><g transform="translate(197.038401, 256.633562)"><g/></g></g><g fill="#000000" fill-opacity="1"><g transform="translate(204.737436, 256.633562)"><g><path d="M 11.28125 -4.21875 C 11.28125 -2.84375 10.773438 -1.722656 9.765625 -0.859375 C 8.765625 -0.00390625 7.453125 0.421875 5.828125 0.421875 C 4.929688 0.421875 3.976562 0.242188 2.96875 -0.109375 C 2.507812 -0.253906 2.207031 -0.328125 2.0625 -0.328125 C 1.882812 -0.328125 1.742188 -0.269531 1.640625 -0.15625 C 1.546875 -0.0507812 1.46875 0.140625 1.40625 0.421875 L 0.765625 0.421875 L 0.765625 -5.015625 L 1.40625 -5.015625 C 1.59375 -4.222656 1.78125 -3.609375 1.96875 -3.171875 C 2.15625 -2.734375 2.410156 -2.304688 2.734375 -1.890625 C 3.566406 -0.835938 4.617188 -0.3125 5.890625 -0.3125 C 6.742188 -0.3125 7.421875 -0.535156 7.921875 -0.984375 C 8.421875 -1.429688 8.671875 -2.035156 8.671875 -2.796875 C 8.671875 -3.378906 8.5 -3.851562 8.15625 -4.21875 C 7.820312 -4.59375 7.171875 -5.003906 6.203125 -5.453125 L 4.734375 -6.15625 C 2.835938 -7.070312 1.660156 -8.109375 1.203125 -9.265625 C 1.046875 -9.710938 0.96875 -10.195312 0.96875 -10.71875 C 0.96875 -12.101562 1.394531 -13.195312 2.25 -14 C 3.113281 -14.800781 4.289062 -15.203125 5.78125 -15.203125 C 6.59375 -15.203125 7.453125 -15.035156 8.359375 -14.703125 C 8.796875 -14.546875 9.101562 -14.46875 9.28125 -14.46875 C 9.488281 -14.46875 9.640625 -14.519531 9.734375 -14.625 C 9.828125 -14.726562 9.910156 -14.925781 9.984375 -15.21875 L 10.640625 -15.21875 L 10.640625 -10.453125 L 10.03125 -10.453125 C 9.8125 -11.171875 9.59375 -11.726562 9.375 -12.125 C 9.164062 -12.519531 8.867188 -12.90625 8.484375 -13.28125 C 7.691406 -14.101562 6.789062 -14.515625 5.78125 -14.515625 C 5.03125 -14.515625 4.4375 -14.316406 4 -13.921875 C 3.570312 -13.523438 3.359375 -12.988281 3.359375 -12.3125 C 3.359375 -11.769531 3.515625 -11.332031 3.828125 -11 C 4.140625 -10.664062 4.738281 -10.273438 5.625 -9.828125 L 8.859375 -8.234375 C 9.578125 -7.878906 10.160156 -7.328125 10.609375 -6.578125 C 11.054688 -5.828125 11.28125 -5.039062 11.28125 -4.21875 Z M 11.28125 -4.21875 "/></g></g></g><g fill="#000000" fill-opacity="1"><g transform="translate(219.167268, 256.633562)"><g><path d="M 15.109375 -2.796875 C 13.992188 -1.578125 12.988281 -0.734375 12.09375 -0.265625 C 11.207031 0.191406 10.128906 0.421875 8.859375 0.421875 C 6.578125 0.421875 4.707031 -0.296875 3.25 -1.734375 C 1.800781 -3.171875 1.078125 -5.023438 1.078125 -7.296875 C 1.078125 -9.554688 1.804688 -11.4375 3.265625 -12.9375 C 4.722656 -14.445312 6.546875 -15.203125 8.734375 -15.203125 C 9.765625 -15.203125 10.898438 -14.945312 12.140625 -14.4375 C 12.609375 -14.226562 12.945312 -14.125 13.15625 -14.125 C 13.363281 -14.125 13.535156 -14.191406 13.671875 -14.328125 C 13.804688 -14.472656 13.957031 -14.742188 14.125 -15.140625 L 14.71875 -15.140625 L 14.71875 -9.984375 L 14.171875 -9.984375 C 13.785156 -10.816406 13.4375 -11.460938 13.125 -11.921875 C 12.8125 -12.390625 12.421875 -12.832031 11.953125 -13.25 C 11.023438 -14.0625 10.046875 -14.46875 9.015625 -14.46875 C 7.679688 -14.46875 6.671875 -13.878906 5.984375 -12.703125 C 5.304688 -11.523438 4.96875 -9.789062 4.96875 -7.5 C 4.96875 -5.363281 5.285156 -3.710938 5.921875 -2.546875 C 6.242188 -1.972656 6.722656 -1.507812 7.359375 -1.15625 C 7.992188 -0.8125 8.671875 -0.640625 9.390625 -0.640625 C 10.066406 -0.640625 10.726562 -0.769531 11.375 -1.03125 C 11.914062 -1.238281 12.398438 -1.503906 12.828125 -1.828125 C 13.265625 -2.160156 13.804688 -2.664062 14.453125 -3.34375 Z M 15.109375 -2.796875 "/></g></g></g><g fill="#000000" fill-opacity="1"><g transform="translate(237.248451, 256.633562)"><g><path d="M 8.140625 0 L 0.4375 0 L 0.4375 -0.546875 C 1.257812 -0.617188 1.804688 -0.757812 2.078125 -0.96875 C 2.347656 -1.175781 2.484375 -1.554688 2.484375 -2.109375 L 2.484375 -12.765625 C 2.484375 -13.316406 2.335938 -13.695312 2.046875 -13.90625 C 1.765625 -14.125 1.226562 -14.265625 0.4375 -14.328125 L 0.4375 -14.875 L 8.140625 -14.875 L 8.140625 -14.328125 C 7.335938 -14.296875 6.785156 -14.171875 6.484375 -13.953125 C 6.191406 -13.734375 6.046875 -13.335938 6.046875 -12.765625 L 6.046875 -2.109375 C 6.046875 -1.535156 6.1875 -1.144531 6.46875 -0.9375 C 6.75 -0.738281 7.304688 -0.609375 8.140625 -0.546875 Z M 8.140625 0 "/></g></g></g><g fill="#000000" fill-opacity="1"><g transform="translate(248.004935, 256.633562)"><g><path d="M 14.109375 -4.578125 L 13.21875 0 L 0.359375 0 L 0.359375 -0.546875 C 1.171875 -0.640625 1.691406 -0.78125 1.921875 -0.96875 C 2.160156 -1.15625 2.28125 -1.535156 2.28125 -2.109375 L 2.28125 -12.765625 C 2.28125 -13.316406 2.148438 -13.703125 1.890625 -13.921875 C 1.628906 -14.140625 1.117188 -14.273438 0.359375 -14.328125 L 0.359375 -14.875 L 13.046875 -14.875 L 13.046875 -10.453125 L 12.5 -10.453125 C 12.21875 -11.921875 11.722656 -12.898438 11.015625 -13.390625 C 10.316406 -13.878906 9.070312 -14.125 7.28125 -14.125 C 6.707031 -14.125 6.328125 -14.050781 6.140625 -13.90625 C 5.953125 -13.769531 5.859375 -13.5 5.859375 -13.09375 L 5.859375 -7.984375 C 7.046875 -7.972656 7.894531 -8.203125 8.40625 -8.671875 C 8.914062 -9.140625 9.253906 -10.003906 9.421875 -11.265625 L 9.984375 -11.265625 L 9.984375 -3.828125 L 9.421875 -3.828125 C 9.285156 -5.097656 8.957031 -5.984375 8.4375 -6.484375 C 7.914062 -6.984375 7.054688 -7.234375 5.859375 -7.234375 L 5.859375 -1.90625 C 5.859375 -1.4375 5.984375 -1.113281 6.234375 -0.9375 C 6.492188 -0.769531 6.972656 -0.6875 7.671875 -0.6875 C 9.316406 -0.6875 10.640625 -1.085938 11.640625 -1.890625 C 12.316406 -2.460938 12.929688 -3.359375 13.484375 -4.578125 Z M 14.109375 -4.578125 "/></g></g></g><g fill="#000000" fill-opacity="1"><g transform="translate(264.876329, 256.633562)"><g><path d="M 15.421875 -14.328125 C 14.703125 -14.203125 14.234375 -14.035156 14.015625 -13.828125 C 13.804688 -13.617188 13.703125 -13.195312 13.703125 -12.5625 L 13.703125 0.390625 L 13.09375 0.390625 L 3.25 -11.578125 L 3.25 -2.734375 C 3.25 -1.953125 3.382812 -1.414062 3.65625 -1.125 C 3.925781 -0.84375 4.488281 -0.648438 5.34375 -0.546875 L 5.34375 0 L 0.359375 0 L 0.359375 -0.546875 C 1.160156 -0.648438 1.679688 -0.8125 1.921875 -1.03125 C 2.160156 -1.25 2.28125 -1.675781 2.28125 -2.3125 L 2.28125 -12.734375 C 1.757812 -13.367188 1.375 -13.789062 1.125 -14 C 0.875 -14.21875 0.640625 -14.328125 0.421875 -14.328125 L 0.421875 -14.875 L 5.0625 -14.875 L 12.734375 -5.4375 L 12.734375 -12.140625 C 12.734375 -12.921875 12.59375 -13.460938 12.3125 -13.765625 C 12.039062 -14.066406 11.5 -14.253906 10.6875 -14.328125 L 10.6875 -14.875 L 15.421875 -14.875 Z M 15.421875 -14.328125 "/></g></g></g><g fill="#000000" fill-opacity="1"><g transform="translate(282.957512, 256.633562)"><g><path d="M 15.109375 -2.796875 C 13.992188 -1.578125 12.988281 -0.734375 12.09375 -0.265625 C 11.207031 0.191406 10.128906 0.421875 8.859375 0.421875 C 6.578125 0.421875 4.707031 -0.296875 3.25 -1.734375 C 1.800781 -3.171875 1.078125 -5.023438 1.078125 -7.296875 C 1.078125 -9.554688 1.804688 -11.4375 3.265625 -12.9375 C 4.722656 -14.445312 6.546875 -15.203125 8.734375 -15.203125 C 9.765625 -15.203125 10.898438 -14.945312 12.140625 -14.4375 C 12.609375 -14.226562 12.945312 -14.125 13.15625 -14.125 C 13.363281 -14.125 13.535156 -14.191406 13.671875 -14.328125 C 13.804688 -14.472656 13.957031 -14.742188 14.125 -15.140625 L 14.71875 -15.140625 L 14.71875 -9.984375 L 14.171875 -9.984375 C 13.785156 -10.816406 13.4375 -11.460938 13.125 -11.921875 C 12.8125 -12.390625 12.421875 -12.832031 11.953125 -13.25 C 11.023438 -14.0625 10.046875 -14.46875 9.015625 -14.46875 C 7.679688 -14.46875 6.671875 -13.878906 5.984375 -12.703125 C 5.304688 -11.523438 4.96875 -9.789062 4.96875 -7.5 C 4.96875 -5.363281 5.285156 -3.710938 5.921875 -2.546875 C 6.242188 -1.972656 6.722656 -1.507812 7.359375 -1.15625 C 7.992188 -0.8125 8.671875 -0.640625 9.390625 -0.640625 C 10.066406 -0.640625 10.726562 -0.769531 11.375 -1.03125 C 11.914062 -1.238281 12.398438 -1.503906 12.828125 -1.828125 C 13.265625 -2.160156 13.804688 -2.664062 14.453125 -3.34375 Z M 15.109375 -2.796875 "/></g></g></g><g fill="#000000" fill-opacity="1"><g transform="translate(301.038695, 256.633562)"><g><path d="M 14.109375 -4.578125 L 13.21875 0 L 0.359375 0 L 0.359375 -0.546875 C 1.171875 -0.640625 1.691406 -0.78125 1.921875 -0.96875 C 2.160156 -1.15625 2.28125 -1.535156 2.28125 -2.109375 L 2.28125 -12.765625 C 2.28125 -13.316406 2.148438 -13.703125 1.890625 -13.921875 C 1.628906 -14.140625 1.117188 -14.273438 0.359375 -14.328125 L 0.359375 -14.875 L 13.046875 -14.875 L 13.046875 -10.453125 L 12.5 -10.453125 C 12.21875 -11.921875 11.722656 -12.898438 11.015625 -13.390625 C 10.316406 -13.878906 9.070312 -14.125 7.28125 -14.125 C 6.707031 -14.125 6.328125 -14.050781 6.140625 -13.90625 C 5.953125 -13.769531 5.859375 -13.5 5.859375 -13.09375 L 5.859375 -7.984375 C 7.046875 -7.972656 7.894531 -8.203125 8.40625 -8.671875 C 8.914062 -9.140625 9.253906 -10.003906 9.421875 -11.265625 L 9.984375 -11.265625 L 9.984375 -3.828125 L 9.421875 -3.828125 C 9.285156 -5.097656 8.957031 -5.984375 8.4375 -6.484375 C 7.914062 -6.984375 7.054688 -7.234375 5.859375 -7.234375 L 5.859375 -1.90625 C 5.859375 -1.4375 5.984375 -1.113281 6.234375 -0.9375 C 6.492188 -0.769531 6.972656 -0.6875 7.671875 -0.6875 C 9.316406 -0.6875 10.640625 -1.085938 11.640625 -1.890625 C 12.316406 -2.460938 12.929688 -3.359375 13.484375 -4.578125 Z M 14.109375 -4.578125 "/></g></g></g></svg>