<svg xmlns="http://www.w3.org/2000/svg" xmlns:xlink="http://www.w3.org/1999/xlink" width="500" zoomAndPan="magnify" viewBox="0 0 375 374.999991" height="500" preserveAspectRatio="xMidYMid meet" version="1.0"><defs><filter x="0%" y="0%" width="100%" height="100%" id="ec63c93abc"><feColorMatrix values="0 0 0 0 1 0 0 0 0 1 0 0 0 0 1 0 0 0 1 0" color-interpolation-filters="sRGB"/></filter><g/><mask id="db0b2b2776"><g filter="url(#ec63c93abc)"><rect x="-37.5" width="450" fill="#000000" y="-37.499999" height="449.999989" fill-opacity="0.3373"/></g></mask><clipPath id="244f60f3c1"><path d="M 21 59 L 344 59 L 344 319 L 21 319 Z M 21 59 " clip-rule="nonzero"/></clipPath><clipPath id="a8084bc91a"><path d="M 181.386719 417.242188 L -23.472656 193.988281 L 193.699219 -5.292969 L 398.558594 217.960938 Z M 181.386719 417.242188 " clip-rule="nonzero"/></clipPath><clipPath id="447b1b01e0"><path d="M 181.386719 417.242188 L -23.472656 193.988281 L 193.699219 -5.292969 L 398.558594 217.960938 Z M 181.386719 417.242188 " clip-rule="nonzero"/></clipPath><clipPath id="3f6fcd287f"><rect x="0" width="375" y="0" height="370"/></clipPath><clipPath id="f27aeaeeb1"><path d="M 135.976562 160.917969 L 238.722656 160.917969 L 238.722656 245.265625 L 135.976562 245.265625 Z M 135.976562 160.917969 " clip-rule="nonzero"/></clipPath><clipPath id="6964b9b1ee"><path d="M 98.421875 195.472656 L 114.171875 195.472656 L 114.171875 211.222656 L 98.421875 211.222656 Z M 98.421875 195.472656 " clip-rule="nonzero"/></clipPath><clipPath id="92bdb59dfa"><path d="M 127.644531 200.972656 L 135.894531 200.972656 L 135.894531 209.222656 L 127.644531 209.222656 Z M 127.644531 200.972656 " clip-rule="nonzero"/></clipPath><clipPath id="e4e7bc6e7c"><path d="M 226.152344 172.4375 L 234.402344 172.4375 L 234.402344 180.6875 L 226.152344 180.6875 Z M 226.152344 172.4375 " clip-rule="nonzero"/></clipPath><clipPath id="9888765734"><path d="M 252.210938 166.578125 L 260.460938 166.578125 L 260.460938 174.828125 L 252.210938 174.828125 Z M 252.210938 166.578125 " clip-rule="nonzero"/></clipPath><clipPath id="f9a2bce004"><path d="M 260.542969 196.90625 L 268.792969 196.90625 L 268.792969 205.15625 L 260.542969 205.15625 Z M 260.542969 196.90625 " clip-rule="nonzero"/></clipPath><clipPath id="3f8255a7bf"><path d="M 266.125 174.90625 L 278.125 174.90625 L 278.125 186.90625 L 266.125 186.90625 Z M 266.125 174.90625 " clip-rule="nonzero"/></clipPath><clipPath id="584a16b0bd"><path d="M 119.398438 177.515625 L 129.148438 177.515625 L 129.148438 187.265625 L 119.398438 187.265625 Z M 119.398438 177.515625 " clip-rule="nonzero"/></clipPath><clipPath id="f016f803b4"><path d="M 236.273438 195.472656 L 241.523438 195.472656 L 241.523438 200.722656 L 236.273438 200.722656 Z M 236.273438 195.472656 " clip-rule="nonzero"/></clipPath><clipPath id="68ad21ecf0"><path d="M 121.640625 226.082031 L 126.890625 226.082031 L 126.890625 231.332031 L 121.640625 231.332031 Z M 121.640625 226.082031 " clip-rule="nonzero"/></clipPath><clipPath id="8611590fcb"><path d="M 255.039062 220.582031 L 260.289062 220.582031 L 260.289062 225.832031 L 255.039062 225.832031 Z M 255.039062 220.582031 " clip-rule="nonzero"/></clipPath></defs><rect x="-37.5" width="450" fill="#ffffff" y="-37.499999" height="449.999989" fill-opacity="1"/><rect x="-37.5" width="450" fill="#ffffff" y="-37.499999" height="449.999989" fill-opacity="1"/><rect x="-37.5" width="450" fill="#fffbed" y="-37.499999" height="449.999989" fill-opacity="1"/><g mask="url(#db0b2b2776)"><g transform="matrix(1, 0, 0, 1, 0, 5)"><g clip-path="url(#3f6fcd287f)"><g clip-path="url(#244f60f3c1)"><g clip-path="url(#a8084bc91a)"><g clip-path="url(#447b1b01e0)"><path fill="#ffbd59" d="M 97.683594 297.289062 C 126.015625 305.375 163.640625 306.746094 190.960938 310.757812 C 218.507812 315.019531 236.449219 322.183594 261.359375 316.140625 C 286.269531 310.09375 318.847656 291.105469 334.164062 260.238281 C 349.007812 229.347656 346.8125 186.832031 322.648438 148.113281 C 298.734375 109.171875 252.621094 73.78125 211.125 63.238281 C 169.875 52.464844 132.996094 66.769531 100.046875 88.824219 C 67.097656 110.878906 38.308594 140.933594 27.3125 170.5625 C 16.089844 199.945312 23.132812 228.925781 36.160156 251.050781 C 49.417969 273.421875 69.128906 288.960938 97.683594 297.289062 Z M 97.683594 297.289062 " fill-opacity="1" fill-rule="evenodd"/></g></g></g></g></g></g><path fill="#c5f1fc" d="M 176.375 124.929688 L 176.375 215.261719 C 176.375 221.355469 181.289062 226.296875 187.351562 226.296875 C 193.414062 226.296875 198.328125 221.355469 198.328125 215.261719 L 198.328125 124.929688 L 176.375 124.929688 " fill-opacity="1" fill-rule="nonzero"/><path fill="#b1dee4" d="M 176.375 135.660156 C 186.273438 135.605469 193.644531 137.960938 198.328125 142.875 L 198.328125 130.234375 L 176.375 130.234375 L 176.375 135.660156 " fill-opacity="1" fill-rule="nonzero"/><path fill="#c5f1fc" d="M 174.386719 121.484375 L 200.3125 121.484375 L 200.3125 131.273438 L 174.386719 131.273438 L 174.386719 121.484375 " fill-opacity="1" fill-rule="nonzero"/><g clip-path="url(#f27aeaeeb1)"><path fill="#c5f1fc" d="M 236.988281 228.765625 L 196.261719 165.78125 C 192.070312 159.296875 182.628906 159.296875 178.4375 165.78125 L 137.710938 228.765625 C 133.117188 235.871094 138.191406 245.265625 146.621094 245.265625 L 228.078125 245.265625 C 236.511719 245.265625 241.585938 235.871094 236.988281 228.765625 " fill-opacity="1" fill-rule="nonzero"/></g><path fill="#ffbd59" d="M 184.804688 116.734375 C 184.804688 116.734375 159.78125 104.304688 167.898438 96.144531 C 176.015625 87.980469 184.804688 116.734375 184.804688 116.734375 " fill-opacity="1" fill-rule="nonzero"/><path fill="#ffbd59" d="M 191.949219 113.191406 C 191.949219 113.191406 191.808594 93.390625 201.117188 93.980469 C 210.425781 94.570312 191.949219 113.191406 191.949219 113.191406 " fill-opacity="1" fill-rule="nonzero"/><path fill="#ffbd59" d="M 186.355469 100.429688 C 186.355469 100.429688 177.710938 86.960938 184.171875 85.417969 C 193.121094 83.28125 186.355469 100.429688 186.355469 100.429688 " fill-opacity="1" fill-rule="nonzero"/><path fill="#ffde59" d="M 225.730469 224.171875 L 205.921875 193.535156 C 199.183594 193.832031 192.820312 189.296875 182.089844 185.761719 C 179.542969 184.925781 177.09375 184.46875 174.757812 184.289062 L 148.96875 224.171875 C 145.417969 229.664062 149.339844 236.929688 155.859375 236.929688 L 218.84375 236.929688 C 225.363281 236.929688 229.285156 229.664062 225.730469 224.171875 " fill-opacity="1" fill-rule="nonzero"/><path fill="#ffbd59" d="M 218.84375 231.707031 L 155.859375 231.707031 C 152.042969 231.707031 149.132812 229.214844 148.074219 226.046875 C 146.328125 231.183594 150.058594 236.929688 155.859375 236.929688 L 218.84375 236.929688 C 224.640625 236.929688 228.371094 231.183594 226.628906 226.046875 C 225.570312 229.214844 222.65625 231.707031 218.84375 231.707031 " fill-opacity="1" fill-rule="nonzero"/><path fill="#ffbd59" d="M 186.375 184.675781 C 186.375 188.273438 183.476562 191.191406 179.894531 191.191406 C 176.316406 191.191406 173.414062 188.273438 173.414062 184.675781 C 173.414062 181.078125 176.316406 178.160156 179.894531 178.160156 C 183.476562 178.160156 186.375 181.078125 186.375 184.675781 " fill-opacity="1" fill-rule="nonzero"/><path fill="#ffbd59" d="M 192.859375 192.664062 C 192.859375 196.261719 189.957031 199.179688 186.375 199.179688 C 182.796875 199.179688 179.894531 196.261719 179.894531 192.664062 C 179.894531 189.066406 182.796875 186.152344 186.375 186.152344 C 189.957031 186.152344 192.859375 189.066406 192.859375 192.664062 " fill-opacity="1" fill-rule="nonzero"/><path fill="#ffbd59" d="M 203.835938 187.75 C 203.835938 191.347656 200.933594 194.265625 197.355469 194.265625 C 193.773438 194.265625 190.871094 191.347656 190.871094 187.75 C 190.871094 184.152344 193.773438 181.234375 197.355469 181.234375 C 200.933594 181.234375 203.835938 184.152344 203.835938 187.75 " fill-opacity="1" fill-rule="nonzero"/><path fill="#ffbd59" d="M 194.4375 175.601562 C 194.4375 177.015625 193.296875 178.160156 191.886719 178.160156 C 190.480469 178.160156 189.339844 177.015625 189.339844 175.601562 C 189.339844 174.1875 190.480469 173.039062 191.886719 173.039062 C 193.296875 173.039062 194.4375 174.1875 194.4375 175.601562 " fill-opacity="1" fill-rule="nonzero"/><path fill="#ffbd59" d="M 190.871094 221.914062 C 190.871094 223.328125 189.730469 224.476562 188.324219 224.476562 C 186.917969 224.476562 185.777344 223.328125 185.777344 221.914062 C 185.777344 220.5 186.917969 219.351562 188.324219 219.351562 C 189.730469 219.351562 190.871094 220.5 190.871094 221.914062 " fill-opacity="1" fill-rule="nonzero"/><path fill="#ffbd59" d="M 205.066406 228.019531 C 205.066406 229.433594 203.925781 230.578125 202.515625 230.578125 C 201.109375 230.578125 199.96875 229.433594 199.96875 228.019531 C 199.96875 226.605469 201.109375 225.457031 202.515625 225.457031 C 203.925781 225.457031 205.066406 226.605469 205.066406 228.019531 " fill-opacity="1" fill-rule="nonzero"/><path fill="#ffbd59" d="M 206.382812 216.570312 C 206.382812 217.984375 205.242188 219.132812 203.835938 219.132812 C 202.429688 219.132812 201.289062 217.984375 201.289062 216.570312 C 201.289062 215.15625 202.429688 214.011719 203.835938 214.011719 C 205.242188 214.011719 206.382812 215.15625 206.382812 216.570312 " fill-opacity="1" fill-rule="nonzero"/><path fill="#ffbd59" d="M 173.414062 214.394531 C 173.414062 215.808594 172.273438 216.957031 170.863281 216.957031 C 169.457031 216.957031 168.316406 215.808594 168.316406 214.394531 C 168.316406 212.980469 169.457031 211.832031 170.863281 211.832031 C 172.273438 211.832031 173.414062 212.980469 173.414062 214.394531 " fill-opacity="1" fill-rule="nonzero"/><path fill="#ffbd59" d="M 192.652344 207.277344 C 192.652344 208.691406 191.511719 209.839844 190.105469 209.839844 C 188.699219 209.839844 187.558594 208.691406 187.558594 207.277344 C 187.558594 205.863281 188.699219 204.714844 190.105469 204.714844 C 191.511719 204.714844 192.652344 205.863281 192.652344 207.277344 " fill-opacity="1" fill-rule="nonzero"/><path fill="#ffbd59" d="M 187.558594 167.152344 C 187.558594 168.566406 186.417969 169.710938 185.007812 169.710938 C 183.601562 169.710938 182.460938 168.566406 182.460938 167.152344 C 182.460938 165.738281 183.601562 164.589844 185.007812 164.589844 C 186.417969 164.589844 187.558594 165.738281 187.558594 167.152344 " fill-opacity="1" fill-rule="nonzero"/><path fill="#ffbd59" d="M 193.421875 154.878906 C 193.421875 156.292969 192.28125 157.441406 190.871094 157.441406 C 189.464844 157.441406 188.324219 156.292969 188.324219 154.878906 C 188.324219 153.464844 189.464844 152.316406 190.871094 152.316406 C 192.28125 152.316406 193.421875 153.464844 193.421875 154.878906 " fill-opacity="1" fill-rule="nonzero"/><path fill="#ffbd59" d="M 207.769531 195.667969 C 207.769531 199.265625 204.867188 202.179688 201.289062 202.179688 C 197.707031 202.179688 194.804688 199.265625 194.804688 195.667969 C 194.804688 192.066406 197.707031 189.152344 201.289062 189.152344 C 204.867188 189.152344 207.769531 192.066406 207.769531 195.667969 " fill-opacity="1" fill-rule="nonzero"/><path fill="#ffffff" d="M 160.117188 220 C 160.117188 220 174.519531 193.277344 173.523438 192.597656 L 157.117188 217.96875 C 155.027344 221.199219 156.171875 225.1875 158.996094 227.078125 C 158.382812 224.808594 158.652344 222.265625 160.117188 220 " fill-opacity="1" fill-rule="nonzero"/><g clip-path="url(#6964b9b1ee)"><path fill="#f8ad3c" d="M 106.296875 195.472656 C 101.949219 195.472656 98.421875 198.996094 98.421875 203.347656 C 98.421875 207.695312 101.949219 211.222656 106.296875 211.222656 C 110.648438 211.222656 114.171875 207.695312 114.171875 203.347656 C 114.171875 198.996094 110.648438 195.472656 106.296875 195.472656 " fill-opacity="1" fill-rule="nonzero"/></g><g clip-path="url(#92bdb59dfa)"><path fill="#f8ad3c" d="M 131.769531 200.972656 C 129.492188 200.972656 127.644531 202.820312 127.644531 205.097656 C 127.644531 207.378906 129.492188 209.222656 131.769531 209.222656 C 134.046875 209.222656 135.894531 207.378906 135.894531 205.097656 C 135.894531 202.820312 134.046875 200.972656 131.769531 200.972656 " fill-opacity="1" fill-rule="nonzero"/></g><g clip-path="url(#e4e7bc6e7c)"><path fill="#f8ad3c" d="M 230.277344 172.4375 C 228 172.4375 226.152344 174.28125 226.152344 176.5625 C 226.152344 178.839844 228 180.6875 230.277344 180.6875 C 232.554688 180.6875 234.402344 178.839844 234.402344 176.5625 C 234.402344 174.28125 232.554688 172.4375 230.277344 172.4375 " fill-opacity="1" fill-rule="nonzero"/></g><g clip-path="url(#9888765734)"><path fill="#f8ad3c" d="M 256.335938 166.578125 C 254.058594 166.578125 252.210938 168.421875 252.210938 170.703125 C 252.210938 172.980469 254.058594 174.828125 256.335938 174.828125 C 258.613281 174.828125 260.460938 172.980469 260.460938 170.703125 C 260.460938 168.421875 258.613281 166.578125 256.335938 166.578125 " fill-opacity="1" fill-rule="nonzero"/></g><g clip-path="url(#f9a2bce004)"><path fill="#f8ad3c" d="M 264.667969 196.90625 C 262.390625 196.90625 260.542969 198.753906 260.542969 201.03125 C 260.542969 203.308594 262.390625 205.15625 264.667969 205.15625 C 266.945312 205.15625 268.792969 203.308594 268.792969 201.03125 C 268.792969 198.753906 266.945312 196.90625 264.667969 196.90625 " fill-opacity="1" fill-rule="nonzero"/></g><g clip-path="url(#3f8255a7bf)"><path fill="#f8ad3c" d="M 272.125 174.90625 C 268.808594 174.90625 266.125 177.59375 266.125 180.90625 C 266.125 184.222656 268.808594 186.90625 272.125 186.90625 C 275.4375 186.90625 278.125 184.222656 278.125 180.90625 C 278.125 177.59375 275.4375 174.90625 272.125 174.90625 " fill-opacity="1" fill-rule="nonzero"/></g><g clip-path="url(#584a16b0bd)"><path fill="#f8ad3c" d="M 124.273438 177.515625 C 121.582031 177.515625 119.398438 179.699219 119.398438 182.390625 C 119.398438 185.082031 121.582031 187.265625 124.273438 187.265625 C 126.964844 187.265625 129.148438 185.082031 129.148438 182.390625 C 129.148438 179.699219 126.964844 177.515625 124.273438 177.515625 " fill-opacity="1" fill-rule="nonzero"/></g><g clip-path="url(#f016f803b4)"><path fill="#f8ad3c" d="M 238.898438 195.472656 C 237.449219 195.472656 236.273438 196.648438 236.273438 198.097656 C 236.273438 199.546875 237.449219 200.722656 238.898438 200.722656 C 240.347656 200.722656 241.523438 199.546875 241.523438 198.097656 C 241.523438 196.648438 240.347656 195.472656 238.898438 195.472656 " fill-opacity="1" fill-rule="nonzero"/></g><g clip-path="url(#68ad21ecf0)"><path fill="#f8ad3c" d="M 124.265625 226.082031 C 122.816406 226.082031 121.640625 227.257812 121.640625 228.707031 C 121.640625 230.15625 122.816406 231.332031 124.265625 231.332031 C 125.714844 231.332031 126.890625 230.15625 126.890625 228.707031 C 126.890625 227.257812 125.714844 226.082031 124.265625 226.082031 " fill-opacity="1" fill-rule="nonzero"/></g><g clip-path="url(#8611590fcb)"><path fill="#f8ad3c" d="M 257.664062 220.582031 C 256.214844 220.582031 255.039062 221.757812 255.039062 223.207031 C 255.039062 224.65625 256.214844 225.832031 257.664062 225.832031 C 259.117188 225.832031 260.289062 224.65625 260.289062 223.207031 C 260.289062 221.757812 259.117188 220.582031 257.664062 220.582031 " fill-opacity="1" fill-rule="nonzero"/></g><g fill="#ff5757" fill-opacity="1"><g transform="translate(109.361277, 283.695802)"><g><path d="M 10.390625 -5.28125 C 10.722656 -5.3125 10.976562 -5.359375 11.15625 -5.421875 C 11.832031 -5.671875 12.375 -6.15625 12.78125 -6.875 L 13.046875 -7.40625 L 13.296875 -7.96875 C 13.410156 -8.238281 13.53125 -8.582031 13.65625 -9 L 13.96875 -10.078125 C 14.226562 -10.953125 14.382812 -11.742188 14.4375 -12.453125 L 14.46875 -12.9375 L 14.46875 -14.015625 L 14.484375 -14.640625 C 14.492188 -15.117188 14.441406 -15.523438 14.328125 -15.859375 L 14.296875 -16.109375 C 14.210938 -16.835938 14.046875 -17.394531 13.796875 -17.78125 C 13.753906 -17.875 13.707031 -17.992188 13.65625 -18.140625 C 13.601562 -18.304688 13.5 -18.539062 13.34375 -18.84375 L 13.15625 -19.203125 L 12.96875 -19.578125 C 12.832031 -19.867188 12.734375 -20.125 12.671875 -20.34375 L 12.609375 -20.484375 L 12.515625 -20.625 L 11.5625 -21.96875 C 11.382812 -22.195312 11.144531 -22.316406 10.84375 -22.328125 C 10.476562 -22.335938 10.1875 -22.304688 9.96875 -22.234375 L 9.75 -22.171875 L 9.515625 -22.140625 C 9.015625 -22.117188 8.535156 -21.875 8.078125 -21.40625 C 7.773438 -21.09375 7.4375 -20.660156 7.0625 -20.109375 C 6.5 -19.285156 6.148438 -18.597656 6.015625 -18.046875 L 5.84375 -17.421875 L 5.703125 -16.78125 L 5.640625 -16.46875 L 5.5625 -16.125 L 5.5 -15.921875 L 5.453125 -15.71875 L 5.375 -15.015625 L 5.3125 -14.28125 C 5.269531 -13.3125 5.296875 -12.363281 5.390625 -11.4375 C 5.492188 -10.332031 5.691406 -9.425781 5.984375 -8.71875 C 6.367188 -7.695312 6.832031 -6.960938 7.375 -6.515625 L 7.453125 -6.453125 L 7.515625 -6.375 C 8.273438 -5.613281 9.234375 -5.25 10.390625 -5.28125 Z M 15.84375 -17.1875 C 15.832031 -17.019531 15.847656 -16.820312 15.890625 -16.59375 L 15.984375 -16 L 16.078125 -15.296875 L 16.125 -14.578125 L 16.25 -13.125 C 16.257812 -12.894531 16.253906 -12.679688 16.234375 -12.484375 L 16.15625 -11.578125 L 16.0625 -10.640625 L 16.015625 -9.921875 L 15.953125 -9.1875 L 15.921875 -8.9375 L 15.875 -8.6875 C 15.664062 -7.664062 15.375 -6.648438 15 -5.640625 C 14.78125 -5.085938 14.488281 -4.554688 14.125 -4.046875 C 13.8125 -3.609375 13.359375 -3.195312 12.765625 -2.8125 C 12.390625 -2.570312 12.125 -2.375 11.96875 -2.21875 C 11.8125 -2.0625 11.625 -1.9375 11.40625 -1.84375 L 10.734375 -1.59375 L 10.046875 -1.34375 C 9.410156 -1.144531 8.734375 -1.132812 8.015625 -1.3125 C 7.023438 -1.5625 6.195312 -1.863281 5.53125 -2.21875 L 5.296875 -2.34375 L 4.515625 -2.953125 L 3.734375 -3.546875 C 3.472656 -3.765625 3.175781 -4.054688 2.84375 -4.421875 C 2.46875 -4.804688 2.160156 -5.21875 1.921875 -5.65625 C 1.429688 -6.59375 1.050781 -7.46875 0.78125 -8.28125 L 0.421875 -9.421875 C 0.296875 -9.847656 0.203125 -10.226562 0.140625 -10.5625 L 0.09375 -10.796875 L 0.0625 -11.015625 L 0.015625 -12.625 L 0 -14.234375 C 0.0195312 -15.097656 0.117188 -15.976562 0.296875 -16.875 L 0.6875 -18.796875 C 0.726562 -18.953125 0.796875 -19.148438 0.890625 -19.390625 L 1.09375 -19.984375 C 1.300781 -20.585938 1.734375 -21.40625 2.390625 -22.4375 C 2.929688 -23.289062 3.617188 -23.9375 4.453125 -24.375 C 4.765625 -24.5625 5.097656 -24.695312 5.453125 -24.78125 L 6.171875 -24.9375 C 6.441406 -25.007812 6.671875 -25.082031 6.859375 -25.15625 C 7.054688 -25.25 7.289062 -25.269531 7.5625 -25.21875 C 7.851562 -25.164062 8.179688 -25.164062 8.546875 -25.21875 C 9.390625 -25.320312 10.171875 -25.257812 10.890625 -25.03125 C 11.148438 -24.945312 11.363281 -24.863281 11.53125 -24.78125 C 12.226562 -24.363281 12.75 -23.96875 13.09375 -23.59375 C 13.800781 -22.789062 14.328125 -22.046875 14.671875 -21.359375 L 14.71875 -21.265625 L 14.75 -21.15625 C 14.851562 -20.6875 15.054688 -20.117188 15.359375 -19.453125 C 15.453125 -19.253906 15.53125 -18.992188 15.59375 -18.671875 L 15.671875 -18.265625 L 15.734375 -17.859375 L 15.796875 -17.515625 Z M 15.84375 -17.1875 "/></g></g></g><g fill="#ff5757" fill-opacity="1"><g transform="translate(128.010373, 283.695802)"><g><path d="M 12.484375 -21.875 C 12.410156 -21.238281 12.210938 -20.441406 11.890625 -19.484375 C 11.753906 -19.109375 11.546875 -18.78125 11.265625 -18.5 C 10.785156 -18.019531 10.332031 -17.546875 9.90625 -17.078125 C 9.175781 -16.273438 8.28125 -15.597656 7.21875 -15.046875 L 7.046875 -14.953125 C 6.867188 -14.867188 6.769531 -14.929688 6.75 -15.140625 L 6.71875 -15.390625 C 6.789062 -16.054688 6.726562 -16.84375 6.53125 -17.75 L 6.484375 -18.078125 L 6.46875 -18.390625 L 6.390625 -19.15625 C 6.359375 -19.457031 6.300781 -19.71875 6.21875 -19.9375 L 6.1875 -20.1875 C 6.113281 -21.039062 5.8125 -22.210938 5.28125 -23.703125 L 4.84375 -24.953125 C 4.65625 -25.398438 4.46875 -25.796875 4.28125 -26.140625 C 3.945312 -26.691406 3.992188 -27.207031 4.421875 -27.6875 C 5.054688 -28.414062 5.625 -28.859375 6.125 -29.015625 C 6.363281 -29.097656 6.710938 -29.160156 7.171875 -29.203125 C 8.023438 -29.335938 8.878906 -29.070312 9.734375 -28.40625 C 10.703125 -27.664062 11.445312 -26.695312 11.96875 -25.5 C 12.050781 -25.3125 12.132812 -25.066406 12.21875 -24.765625 L 12.40625 -23.984375 C 12.5625 -23.484375 12.585938 -22.78125 12.484375 -21.875 Z M 14.640625 -21.96875 C 14.628906 -22.269531 14.578125 -22.578125 14.484375 -22.890625 C 14.367188 -23.285156 14.273438 -23.675781 14.203125 -24.0625 C 14.003906 -25.125 13.613281 -26.113281 13.03125 -27.03125 C 12.363281 -28.039062 11.5625 -28.789062 10.625 -29.28125 C 10.394531 -29.40625 10.125 -29.515625 9.8125 -29.609375 L 8.96875 -29.875 C 8.101562 -30.125 7.253906 -30.195312 6.421875 -30.09375 C 5.328125 -29.9375 4.390625 -29.503906 3.609375 -28.796875 L 3.203125 -28.40625 C 2.992188 -28.15625 2.765625 -28.125 2.515625 -28.3125 C 2.179688 -28.550781 1.769531 -28.566406 1.28125 -28.359375 L 1.078125 -28.296875 L 0.875 -28.21875 C 0.644531 -28.132812 0.453125 -28 0.296875 -27.8125 C 0.0976562 -27.59375 0.0351562 -27.367188 0.109375 -27.140625 L 0.1875 -26.796875 L 0.25 -26.46875 C 0.582031 -25.03125 0.726562 -23.675781 0.6875 -22.40625 L 0.703125 -22.03125 L 0.75 -21.65625 L 0.8125 -21.28125 L 0.890625 -18.890625 L 0.921875 -17.6875 L 1.3125 -12.8125 C 1.332031 -12.4375 1.335938 -12.117188 1.328125 -11.859375 C 1.285156 -11.328125 1.269531 -10.6875 1.28125 -9.9375 L 1.328125 -8.03125 L 1.359375 -5.1875 L 1.375 -3.09375 C 1.394531 -2.300781 1.4375 -1.597656 1.5 -0.984375 L 1.640625 0.90625 L 1.65625 1.125 L 1.6875 1.34375 C 1.78125 1.757812 2.03125 1.945312 2.4375 1.90625 C 2.664062 1.875 2.953125 1.796875 3.296875 1.671875 L 4.0625 1.328125 C 4.382812 1.191406 4.65625 1.097656 4.875 1.046875 C 5.007812 1.003906 5.144531 0.925781 5.28125 0.8125 L 5.625 0.484375 L 5.78125 0.296875 L 5.9375 0.09375 C 6.664062 -0.738281 7.046875 -1.671875 7.078125 -2.703125 C 7.097656 -3.492188 7.1875 -4.242188 7.34375 -4.953125 C 7.457031 -5.472656 7.472656 -6.09375 7.390625 -6.8125 C 7.335938 -7.238281 7.335938 -7.617188 7.390625 -7.953125 C 7.460938 -8.515625 7.472656 -9.0625 7.421875 -9.59375 L 7.375 -9.953125 L 7.375 -10.328125 C 7.414062 -10.910156 7.382812 -11.707031 7.28125 -12.71875 L 7.234375 -13.21875 C 7.222656 -13.476562 7.351562 -13.628906 7.625 -13.671875 L 7.953125 -13.71875 C 8.378906 -13.738281 8.8125 -13.867188 9.25 -14.109375 C 9.664062 -14.328125 9.988281 -14.488281 10.21875 -14.59375 C 10.894531 -14.84375 11.546875 -15.28125 12.171875 -15.90625 L 13.5625 -17.375 C 14.0625 -17.914062 14.347656 -18.414062 14.421875 -18.875 L 14.484375 -19.03125 L 14.5625 -19.171875 C 14.65625 -19.347656 14.695312 -19.570312 14.6875 -19.84375 Z M 14.640625 -21.96875 "/></g></g></g><g fill="#ff5757" fill-opacity="1"><g transform="translate(144.799289, 283.695802)"><g><path d="M 14.40625 -20.203125 C 11.5625 -20.929688 8.929688 -21.070312 6.515625 -20.625 C 5.816406 -20.5 5.367188 -20.757812 5.171875 -21.40625 L 4.984375 -22.09375 L 4.75 -23.40625 L 4.515625 -24.734375 C 4.316406 -25.765625 4.066406 -26.617188 3.765625 -27.296875 C 3.597656 -27.671875 3.742188 -27.867188 4.203125 -27.890625 L 5.109375 -27.90625 L 6.015625 -27.9375 C 6.691406 -27.976562 7.28125 -28.082031 7.78125 -28.25 L 7.984375 -28.296875 L 8.1875 -28.359375 C 8.332031 -28.421875 8.394531 -28.535156 8.375 -28.703125 C 8.351562 -28.859375 8.265625 -28.957031 8.109375 -29 L 7.90625 -29.046875 L 7.6875 -29.046875 L 1.34375 -29.28125 C 1.0625 -29.28125 0.765625 -29.113281 0.453125 -28.78125 C 0.148438 -28.457031 0 -28.140625 0 -27.828125 L 0.09375 -23.328125 C 0.125 -21.546875 0.113281 -20.039062 0.0625 -18.8125 C 0.0195312 -17.65625 0.0390625 -16.304688 0.125 -14.765625 L 0.234375 -12.734375 L 0.359375 -10.71875 C 0.566406 -7.34375 0.539062 -4.648438 0.28125 -2.640625 C 0.144531 -1.828125 0.476562 -1.128906 1.28125 -0.546875 C 2.0625 0.015625 2.835938 0.144531 3.609375 -0.15625 C 5.160156 -0.789062 7.460938 -1.203125 10.515625 -1.390625 L 11.1875 -1.421875 L 11.84375 -1.4375 C 12.351562 -1.476562 12.789062 -1.582031 13.15625 -1.75 L 13.296875 -1.828125 L 13.4375 -1.921875 C 13.519531 -2.003906 13.550781 -2.101562 13.53125 -2.21875 C 13.5 -2.332031 13.429688 -2.421875 13.328125 -2.484375 C 13.222656 -2.554688 13.117188 -2.582031 13.015625 -2.5625 C 12.628906 -2.488281 12.195312 -2.46875 11.71875 -2.5 L 10.40625 -2.640625 C 9.300781 -2.753906 8.4375 -2.707031 7.8125 -2.5 C 7.289062 -2.332031 7.140625 -2.515625 7.359375 -3.046875 C 7.734375 -3.921875 7.882812 -4.832031 7.8125 -5.78125 L 7.625 -8.96875 L 7.5625 -9.984375 L 7.5 -10.96875 C 7.4375 -11.75 7.296875 -12.398438 7.078125 -12.921875 C 6.753906 -13.671875 6.515625 -14.550781 6.359375 -15.5625 L 6.203125 -16.921875 L 6.078125 -18.28125 C 6.046875 -18.695312 6.222656 -18.910156 6.609375 -18.921875 C 7.046875 -18.921875 7.6875 -18.960938 8.53125 -19.046875 L 9.5 -19.125 L 10.453125 -19.171875 L 12.40625 -19.171875 C 13.175781 -19.179688 13.828125 -19.253906 14.359375 -19.390625 C 14.660156 -19.472656 14.820312 -19.59375 14.84375 -19.75 C 14.875 -19.894531 14.835938 -20.003906 14.734375 -20.078125 L 14.578125 -20.15625 Z M 14.40625 -20.203125 "/></g></g></g><g fill="#ff5757" fill-opacity="1"><g transform="translate(162.833574, 283.695802)"><g><path d="M 12.578125 -9.375 C 12.617188 -10.425781 12.601562 -11.234375 12.53125 -11.796875 C 12.5 -12.109375 12.476562 -12.488281 12.46875 -12.9375 L 12.484375 -14.0625 L 12.484375 -14.96875 C 12.429688 -16.71875 12.429688 -18.695312 12.484375 -20.90625 L 12.5625 -22.125 L 12.671875 -23.359375 L 12.71875 -24.84375 C 12.726562 -25.207031 12.765625 -25.503906 12.828125 -25.734375 C 12.878906 -25.898438 12.953125 -26.050781 13.046875 -26.1875 C 13.179688 -26.382812 13.347656 -26.457031 13.546875 -26.40625 L 15.171875 -26 C 15.460938 -25.925781 15.726562 -25.796875 15.96875 -25.609375 C 16.15625 -25.453125 16.316406 -25.335938 16.453125 -25.265625 C 16.898438 -25.023438 17.210938 -24.609375 17.390625 -24.015625 L 17.984375 -21.828125 C 18.035156 -21.628906 18.066406 -21.414062 18.078125 -21.1875 L 18.125 -19.1875 L 18.171875 -17.765625 L 18.1875 -16.359375 C 18.21875 -14.960938 18.1875 -13.890625 18.09375 -13.140625 L 18.078125 -13.015625 L 18.078125 -12.890625 C 18.085938 -12.804688 18.148438 -12.75 18.265625 -12.71875 L 18.296875 -12.65625 L 18.328125 -12.546875 L 18.3125 -12.234375 L 18.0625 -9.796875 L 18.03125 -9.703125 C 18.019531 -9.679688 17.992188 -9.679688 17.953125 -9.703125 C 17.953125 -9.703125 17.898438 -9.765625 17.796875 -9.890625 L 17.671875 -9.0625 L 17.5625 -8.265625 C 17.476562 -7.566406 17.457031 -6.96875 17.5 -6.46875 C 17.539062 -5.882812 17.492188 -5.203125 17.359375 -4.421875 L 17.28125 -3.640625 L 17.25 -3.3125 C 17.15625 -2.738281 16.828125 -2.507812 16.265625 -2.625 C 15.359375 -2.789062 14.675781 -2.976562 14.21875 -3.1875 C 13.65625 -3.445312 13.273438 -3.867188 13.078125 -4.453125 L 12.90625 -4.859375 L 12.71875 -5.28125 C 12.570312 -5.601562 12.484375 -5.890625 12.453125 -6.140625 L 12.390625 -6.296875 L 12.3125 -6.4375 L 10.34375 -9.6875 C 10.164062 -9.988281 9.953125 -10.382812 9.703125 -10.875 L 8.453125 -13.4375 L 8.078125 -14.203125 L 7.6875 -15 L 7.40625 -15.515625 L 7.125 -16.015625 L 7.078125 -16.046875 L 7.015625 -16.078125 C 6.960938 -16.054688 6.9375 -16.015625 6.9375 -15.953125 L 6.953125 -15.8125 L 7.171875 -14.109375 L 7.390625 -12.421875 C 7.546875 -11.410156 7.578125 -10.617188 7.484375 -10.046875 C 7.460938 -9.878906 7.46875 -9.664062 7.5 -9.40625 L 7.546875 -8.65625 L 7.515625 -7.921875 C 7.492188 -7.347656 7.414062 -6.628906 7.28125 -5.765625 L 7.125 -4.703125 L 6.96875 -3.625 C 6.925781 -3.300781 6.847656 -2.910156 6.734375 -2.453125 L 6.390625 -1.328125 L 6.09375 -0.265625 C 6.019531 0.015625 5.835938 0.179688 5.546875 0.234375 L 5.359375 0.265625 C 4.929688 0.242188 4.535156 0.378906 4.171875 0.671875 C 3.960938 0.847656 3.742188 0.816406 3.515625 0.578125 C 3.410156 0.472656 3.269531 0.375 3.09375 0.28125 L 2.59375 0.015625 C 2.320312 -0.109375 2.140625 -0.335938 2.046875 -0.671875 L 1.296875 -3.421875 L 1.046875 -4.5625 C 0.972656 -4.976562 0.9375 -5.359375 0.9375 -5.703125 C 0.945312 -6.078125 0.9375 -6.53125 0.90625 -7.0625 L 0.796875 -8.40625 L 0.71875 -10.25 C 0.6875 -10.957031 0.628906 -11.566406 0.546875 -12.078125 L 0.5 -12.484375 L 0.484375 -12.921875 L 0.265625 -15.234375 L 0.125 -16.609375 L 0.0625 -18 C 0.0195312 -20.394531 0.0234375 -22.414062 0.078125 -24.0625 L 0.140625 -25.515625 C 0.171875 -26.109375 0.179688 -26.59375 0.171875 -26.96875 C 0.160156 -27.3125 0.332031 -27.546875 0.6875 -27.671875 L 1.34375 -27.859375 L 1.984375 -28.0625 L 2.046875 -28.078125 C 2.347656 -28.140625 2.691406 -28.101562 3.078125 -27.96875 L 3.546875 -27.78125 L 4.015625 -27.578125 C 4.390625 -27.429688 4.675781 -27.128906 4.875 -26.671875 L 5.171875 -25.984375 C 5.285156 -25.710938 5.363281 -25.476562 5.40625 -25.28125 C 5.4375 -25.164062 5.5 -25.054688 5.59375 -24.953125 C 5.800781 -24.691406 5.898438 -24.390625 5.890625 -24.046875 C 5.867188 -23.472656 6.082031 -22.875 6.53125 -22.25 C 6.71875 -22 6.921875 -21.644531 7.140625 -21.1875 L 8.234375 -18.953125 L 9.265625 -16.703125 L 9.921875 -15.265625 C 10.148438 -14.703125 10.335938 -14.207031 10.484375 -13.78125 C 10.773438 -12.894531 11.191406 -11.925781 11.734375 -10.875 L 12.03125 -10.25 L 12.328125 -9.609375 L 12.390625 -9.484375 C 12.429688 -9.441406 12.492188 -9.40625 12.578125 -9.375 Z M 12.578125 -9.375 "/></g></g></g><g fill="#ff5757" fill-opacity="1"><g transform="translate(184.304462, 283.695802)"><g/></g></g><g fill="#ff5757" fill-opacity="1"><g transform="translate(193.763004, 283.695802)"><g><path d="M 6.828125 -12.625 C 6.648438 -11 6.550781 -8.976562 6.53125 -6.5625 L 6.53125 -3.609375 L 6.46875 -0.6875 C 6.4375 0.0390625 6.503906 0.492188 6.671875 0.671875 C 6.828125 0.867188 7.257812 0.960938 7.96875 0.953125 L 9.734375 0.984375 L 11.5 1.046875 C 12.9375 1.085938 14.109375 1.066406 15.015625 0.984375 L 15.390625 0.921875 C 15.523438 0.921875 15.601562 0.972656 15.625 1.078125 C 15.644531 1.171875 15.617188 1.289062 15.546875 1.4375 C 15.492188 1.5625 15.414062 1.679688 15.3125 1.796875 C 15.1875 1.929688 15 2 14.75 2 L 13.3125 2.0625 L 11.875 2.171875 C 10.707031 2.242188 9.75 2.242188 9 2.171875 C 8.113281 2.078125 7.1875 2.242188 6.21875 2.671875 C 5.257812 3.078125 4.285156 3.25 3.296875 3.1875 L 2.90625 3.171875 C 2.757812 3.179688 2.632812 3.203125 2.53125 3.234375 C 2.007812 3.441406 1.632812 3.410156 1.40625 3.140625 C 1.25 2.960938 1.125 2.613281 1.03125 2.09375 C 0.539062 -0.695312 0.242188 -4.003906 0.140625 -7.828125 L 0.0625 -12.8125 L 0.015625 -17.78125 C 0.00390625 -18.601562 0.015625 -19.570312 0.046875 -20.6875 L 0.15625 -23.609375 C 0.238281 -25.992188 0.210938 -27.925781 0.078125 -29.40625 C 0.0546875 -29.738281 0.15625 -29.941406 0.375 -30.015625 C 1.445312 -30.398438 2.71875 -30.113281 4.1875 -29.15625 C 4.976562 -28.632812 5.5 -27.898438 5.75 -26.953125 C 5.832031 -26.640625 5.910156 -26.207031 5.984375 -25.65625 L 6.046875 -25.015625 L 6.140625 -24.34375 C 6.679688 -21.164062 6.925781 -17.679688 6.875 -13.890625 L 6.859375 -13.15625 L 6.84375 -12.859375 Z M 6.828125 -12.625 "/></g></g></g><g fill="#ff5757" fill-opacity="1"><g transform="translate(211.308604, 283.695802)"><g><path d="M 10.953125 -12.578125 C 11.035156 -8.847656 10.867188 -5.472656 10.453125 -2.453125 L 10.40625 -2.125 L 10.34375 -1.828125 C 10.28125 -1.597656 10.15625 -1.398438 9.96875 -1.234375 C 9.820312 -1.097656 9.804688 -1.007812 9.921875 -0.96875 L 10.078125 -0.953125 L 10.25 -0.953125 L 11.34375 -0.890625 L 12.40625 -0.828125 L 12.578125 -0.796875 L 12.734375 -0.765625 C 12.847656 -0.710938 12.90625 -0.617188 12.90625 -0.484375 C 12.90625 -0.191406 12.738281 -0.03125 12.40625 0 L 11.6875 0.078125 L 10.953125 0.125 C 10.367188 0.164062 9.890625 0.234375 9.515625 0.328125 C 8.804688 0.484375 7.78125 0.484375 6.4375 0.328125 L 4.90625 0.15625 C 4.332031 0.125 3.816406 0.160156 3.359375 0.265625 C 3.242188 0.285156 3.15625 0.257812 3.09375 0.1875 L 3.015625 0.0625 L 2.953125 -0.078125 C 2.867188 -0.378906 2.984375 -0.570312 3.296875 -0.65625 C 3.941406 -0.8125 4.457031 -0.894531 4.84375 -0.90625 C 5.363281 -0.9375 5.625 -1.210938 5.625 -1.734375 C 5.632812 -7.398438 5.082031 -15.734375 3.96875 -26.734375 C 3.914062 -27.316406 3.625 -27.582031 3.09375 -27.53125 L 2.421875 -27.53125 L 1.78125 -27.59375 C 1.25 -27.613281 0.8125 -27.582031 0.46875 -27.5 C 0.300781 -27.457031 0.171875 -27.5 0.078125 -27.625 C 0.0234375 -27.6875 0.015625 -27.757812 0.046875 -27.84375 L 0.171875 -28.03125 C 0.378906 -28.351562 0.707031 -28.507812 1.15625 -28.5 C 2.21875 -28.457031 3.675781 -28.550781 5.53125 -28.78125 L 7.734375 -29.0625 C 8.546875 -29.144531 9.273438 -29.1875 9.921875 -29.1875 L 10.453125 -29.1875 C 10.671875 -29.1875 10.847656 -29.164062 10.984375 -29.125 C 11.378906 -29.050781 11.601562 -28.867188 11.65625 -28.578125 C 11.6875 -28.335938 11.523438 -28.148438 11.171875 -28.015625 L 10.6875 -27.875 L 10.21875 -27.765625 C 10.125 -27.722656 9.976562 -27.695312 9.78125 -27.6875 L 9.328125 -27.625 L 9.15625 -27.578125 L 9.03125 -27.484375 C 8.9375 -27.390625 8.945312 -27.285156 9.0625 -27.171875 C 9.394531 -26.878906 9.597656 -26.488281 9.671875 -26 L 9.734375 -25.34375 L 9.765625 -24.71875 L 10.171875 -21.703125 L 10.53125 -18.65625 C 10.789062 -16.34375 10.929688 -14.316406 10.953125 -12.578125 Z M 10.953125 -12.578125 "/></g></g></g><g fill="#ff5757" fill-opacity="1"><g transform="translate(227.356596, 283.695802)"><g><path d="M 16.609375 -23.46875 C 14.691406 -23.832031 13.035156 -23.929688 11.640625 -23.765625 L 9.140625 -23.5 C 8.921875 -23.476562 8.765625 -23.488281 8.671875 -23.53125 C 8.515625 -23.601562 8.429688 -23.75 8.421875 -23.96875 C 8.328125 -25.9375 7.945312 -27.425781 7.28125 -28.4375 C 7.03125 -28.820312 7.132812 -29.039062 7.59375 -29.09375 L 7.859375 -29.140625 L 8.125 -29.21875 C 8.34375 -29.269531 8.519531 -29.285156 8.65625 -29.265625 C 9.132812 -29.210938 9.722656 -29.203125 10.421875 -29.234375 L 12.203125 -29.296875 C 13.628906 -29.316406 14.796875 -29.101562 15.703125 -28.65625 C 15.804688 -28.601562 15.910156 -28.585938 16.015625 -28.609375 C 16.148438 -28.640625 16.242188 -28.710938 16.296875 -28.828125 C 16.328125 -28.878906 16.34375 -28.945312 16.34375 -29.03125 C 16.34375 -29.125 16.332031 -29.175781 16.3125 -29.1875 L 15.984375 -29.421875 L 15.703125 -29.6875 C 15.472656 -29.90625 15.253906 -30.039062 15.046875 -30.09375 C 14.515625 -30.21875 13.835938 -30.304688 13.015625 -30.359375 L 11.984375 -30.40625 L 10.953125 -30.484375 C 10.535156 -30.523438 10.050781 -30.507812 9.5 -30.4375 L 8.75 -30.328125 L 8.03125 -30.203125 C 6.820312 -30.023438 5.828125 -30.125 5.046875 -30.5 C 4.628906 -30.695312 4.0625 -30.816406 3.34375 -30.859375 L 2.421875 -30.890625 L 1.515625 -30.921875 C 0.503906 -31.003906 0.148438 -30.515625 0.453125 -29.453125 C 1.023438 -27.460938 1.414062 -25.144531 1.625 -22.5 C 1.695312 -21.5 1.753906 -20.320312 1.796875 -18.96875 L 1.890625 -15.4375 L 2.046875 -9.21875 L 2.234375 -3 C 2.242188 -2.476562 2.304688 -1.859375 2.421875 -1.140625 L 2.5625 -0.25 L 2.671875 0.53125 C 2.617188 1.289062 2.707031 1.828125 2.9375 2.140625 C 3.164062 2.453125 3.640625 2.6875 4.359375 2.84375 C 5.273438 3.039062 5.941406 2.648438 6.359375 1.671875 L 6.46875 1.328125 L 6.5625 0.96875 C 6.644531 0.675781 6.757812 0.457031 6.90625 0.3125 C 7.738281 -0.507812 8.238281 -1.707031 8.40625 -3.28125 C 8.539062 -4.664062 8.585938 -6.644531 8.546875 -9.21875 L 8.515625 -12.203125 C 8.515625 -13.316406 8.550781 -14.3125 8.625 -15.1875 C 8.65625 -15.644531 8.660156 -16.164062 8.640625 -16.75 L 8.546875 -18.3125 C 8.453125 -19.695312 8.429688 -20.742188 8.484375 -21.453125 C 8.523438 -21.929688 8.773438 -22.164062 9.234375 -22.15625 C 10.304688 -22.144531 11.53125 -22.203125 12.90625 -22.328125 L 14.734375 -22.515625 L 16.5625 -22.734375 L 16.734375 -22.75 L 16.890625 -22.8125 C 17.003906 -22.851562 17.066406 -22.941406 17.078125 -23.078125 C 17.085938 -23.203125 17.039062 -23.296875 16.9375 -23.359375 L 16.78125 -23.421875 Z M 16.609375 -23.46875 "/></g></g></g><g fill="#ff5757" fill-opacity="1"><g transform="translate(247.597874, 283.695802)"><g><path d="M 14.40625 -20.203125 C 11.5625 -20.929688 8.929688 -21.070312 6.515625 -20.625 C 5.816406 -20.5 5.367188 -20.757812 5.171875 -21.40625 L 4.984375 -22.09375 L 4.75 -23.40625 L 4.515625 -24.734375 C 4.316406 -25.765625 4.066406 -26.617188 3.765625 -27.296875 C 3.597656 -27.671875 3.742188 -27.867188 4.203125 -27.890625 L 5.109375 -27.90625 L 6.015625 -27.9375 C 6.691406 -27.976562 7.28125 -28.082031 7.78125 -28.25 L 7.984375 -28.296875 L 8.1875 -28.359375 C 8.332031 -28.421875 8.394531 -28.535156 8.375 -28.703125 C 8.351562 -28.859375 8.265625 -28.957031 8.109375 -29 L 7.90625 -29.046875 L 7.6875 -29.046875 L 1.34375 -29.28125 C 1.0625 -29.28125 0.765625 -29.113281 0.453125 -28.78125 C 0.148438 -28.457031 0 -28.140625 0 -27.828125 L 0.09375 -23.328125 C 0.125 -21.546875 0.113281 -20.039062 0.0625 -18.8125 C 0.0195312 -17.65625 0.0390625 -16.304688 0.125 -14.765625 L 0.234375 -12.734375 L 0.359375 -10.71875 C 0.566406 -7.34375 0.539062 -4.648438 0.28125 -2.640625 C 0.144531 -1.828125 0.476562 -1.128906 1.28125 -0.546875 C 2.0625 0.015625 2.835938 0.144531 3.609375 -0.15625 C 5.160156 -0.789062 7.460938 -1.203125 10.515625 -1.390625 L 11.1875 -1.421875 L 11.84375 -1.4375 C 12.351562 -1.476562 12.789062 -1.582031 13.15625 -1.75 L 13.296875 -1.828125 L 13.4375 -1.921875 C 13.519531 -2.003906 13.550781 -2.101562 13.53125 -2.21875 C 13.5 -2.332031 13.429688 -2.421875 13.328125 -2.484375 C 13.222656 -2.554688 13.117188 -2.582031 13.015625 -2.5625 C 12.628906 -2.488281 12.195312 -2.46875 11.71875 -2.5 L 10.40625 -2.640625 C 9.300781 -2.753906 8.4375 -2.707031 7.8125 -2.5 C 7.289062 -2.332031 7.140625 -2.515625 7.359375 -3.046875 C 7.734375 -3.921875 7.882812 -4.832031 7.8125 -5.78125 L 7.625 -8.96875 L 7.5625 -9.984375 L 7.5 -10.96875 C 7.4375 -11.75 7.296875 -12.398438 7.078125 -12.921875 C 6.753906 -13.671875 6.515625 -14.550781 6.359375 -15.5625 L 6.203125 -16.921875 L 6.078125 -18.28125 C 6.046875 -18.695312 6.222656 -18.910156 6.609375 -18.921875 C 7.046875 -18.921875 7.6875 -18.960938 8.53125 -19.046875 L 9.5 -19.125 L 10.453125 -19.171875 L 12.40625 -19.171875 C 13.175781 -19.179688 13.828125 -19.253906 14.359375 -19.390625 C 14.660156 -19.472656 14.820312 -19.59375 14.84375 -19.75 C 14.875 -19.894531 14.835938 -20.003906 14.734375 -20.078125 L 14.578125 -20.15625 Z M 14.40625 -20.203125 "/></g></g></g><g fill="#ff5757" fill-opacity="1"><g transform="translate(126.095651, 328.695799)"><g><path d="M 12.65625 -10.40625 C 12.695312 -10.332031 12.753906 -10.242188 12.828125 -10.140625 L 12.984375 -9.828125 C 13.128906 -9.546875 13.25 -9.304688 13.34375 -9.109375 C 13.65625 -8.515625 13.921875 -7.972656 14.140625 -7.484375 C 14.773438 -6.046875 15.109375 -4.820312 15.140625 -3.8125 L 15.140625 -3.6875 C 15.140625 -1.132812 13.25 0.140625 9.46875 0.140625 C 9 0.140625 8.507812 0.117188 8 0.078125 L 7.828125 0.0625 C 5.953125 -0.0820312 4.476562 -0.660156 3.40625 -1.671875 C 2.65625 -2.359375 1.972656 -3.445312 1.359375 -4.9375 C 1.128906 -5.46875 0.914062 -6.09375 0.71875 -6.8125 L 0.515625 -7.765625 L 0.3125 -8.734375 L 0.28125 -8.84375 L 0.25 -8.96875 L 0.25 -9.0625 C 0.25 -9.125 0.253906 -9.179688 0.265625 -9.234375 C 0.316406 -9.460938 0.519531 -9.597656 0.875 -9.640625 L 0.953125 -9.640625 C 1.203125 -9.640625 1.382812 -9.546875 1.5 -9.359375 C 1.539062 -9.273438 1.578125 -9.175781 1.609375 -9.0625 L 1.671875 -8.921875 L 1.71875 -8.8125 C 1.863281 -8.414062 2.066406 -7.847656 2.328125 -7.109375 L 2.625 -6.28125 L 2.921875 -5.40625 C 3.554688 -3.800781 4.421875 -2.625 5.515625 -1.875 C 5.867188 -1.65625 6.226562 -1.46875 6.59375 -1.3125 C 7.007812 -1.15625 7.394531 -1.078125 7.75 -1.078125 L 7.8125 -1.078125 C 9.25 -1.117188 9.96875 -1.765625 9.96875 -3.015625 L 9.96875 -3.234375 C 9.851562 -5.066406 8.40625 -8.253906 5.625 -12.796875 C 5.40625 -13.128906 5.054688 -13.757812 4.578125 -14.6875 C 4.023438 -15.695312 3.476562 -16.726562 2.9375 -17.78125 C 1.476562 -20.664062 0.597656 -22.644531 0.296875 -23.71875 C 0.0976562 -24.457031 0 -25.125 0 -25.71875 C 0 -27.238281 0.632812 -28.378906 1.90625 -29.140625 C 2.9375 -29.742188 4.21875 -30.046875 5.75 -30.046875 C 6.21875 -30.046875 6.703125 -30.019531 7.203125 -29.96875 C 8.046875 -29.875 8.753906 -29.546875 9.328125 -28.984375 C 10.546875 -27.835938 11.285156 -26.238281 11.546875 -24.1875 L 11.5625 -24.109375 L 11.5625 -24.015625 C 11.570312 -23.984375 11.578125 -23.953125 11.578125 -23.921875 C 11.578125 -23.890625 11.570312 -23.859375 11.5625 -23.828125 C 11.5 -23.671875 11.363281 -23.59375 11.15625 -23.59375 L 11.125 -23.59375 C 10.988281 -23.59375 10.882812 -23.644531 10.8125 -23.75 C 10.789062 -23.78125 10.773438 -23.832031 10.765625 -23.90625 L 10.734375 -23.984375 L 10.71875 -24.046875 C 10.65625 -24.222656 10.585938 -24.453125 10.515625 -24.734375 L 10.34375 -25.421875 C 10.1875 -25.953125 10.007812 -26.394531 9.8125 -26.75 C 9.601562 -27.101562 9.320312 -27.488281 8.96875 -27.90625 C 8.257812 -28.613281 7.351562 -29.003906 6.25 -29.078125 C 6.125 -29.085938 5.992188 -29.09375 5.859375 -29.09375 C 5.609375 -29.09375 5.363281 -29.070312 5.125 -29.03125 C 5 -29.007812 4.875 -28.988281 4.75 -28.96875 C 4.707031 -28.957031 4.664062 -28.945312 4.625 -28.9375 L 4.578125 -28.921875 L 4.546875 -28.921875 C 4.078125 -28.765625 3.738281 -28.5 3.53125 -28.125 C 3.4375 -27.9375 3.390625 -27.75 3.390625 -27.5625 C 3.390625 -27.394531 3.4375 -27.226562 3.53125 -27.0625 L 3.953125 -26.421875 L 4.390625 -25.765625 C 4.710938 -25.265625 4.972656 -24.835938 5.171875 -24.484375 C 5.421875 -24.003906 5.757812 -23.351562 6.1875 -22.53125 L 6.6875 -21.5625 L 7.1875 -20.578125 L 9.25 -16.765625 L 11.328125 -12.9375 L 12 -11.671875 C 12.269531 -11.171875 12.488281 -10.75 12.65625 -10.40625 Z M 12.65625 -10.40625 "/></g></g></g><g fill="#ff5757" fill-opacity="1"><g transform="translate(144.382164, 328.695799)"><g><path d="M 12.125 -5.8125 L 12.109375 -5.75 L 11.953125 -3.3125 L 11.890625 -2.1875 L 11.859375 -1.890625 L 11.84375 -1.59375 C 11.875 -1.15625 11.789062 -0.703125 11.59375 -0.234375 C 11.519531 -0.0546875 11.460938 0.117188 11.421875 0.296875 C 11.273438 0.992188 10.90625 1.726562 10.3125 2.5 L 9.71875 3.375 C 9.5625 3.613281 9.382812 3.773438 9.1875 3.859375 C 8.90625 3.984375 8.648438 4.171875 8.421875 4.421875 C 8.234375 4.617188 7.960938 4.726562 7.609375 4.75 C 6.972656 4.78125 6.273438 4.632812 5.515625 4.3125 C 5.191406 4.15625 4.820312 3.953125 4.40625 3.703125 L 3.84375 3.375 L 3.3125 3.03125 C 2.789062 2.71875 2.367188 2.332031 2.046875 1.875 C 1.367188 0.9375 0.921875 0.0234375 0.703125 -0.859375 C 0.359375 -2.378906 0.15625 -3.921875 0.09375 -5.484375 L 0.03125 -7.765625 L 0 -10.046875 L 0 -12.09375 L 0.03125 -14.15625 L 0.03125 -14.265625 L 0.203125 -16.265625 C 0.273438 -17.054688 0.347656 -17.722656 0.421875 -18.265625 C 0.671875 -20.109375 1.460938 -21.6875 2.796875 -23 C 3.078125 -23.269531 3.421875 -23.566406 3.828125 -23.890625 L 4.90625 -24.71875 C 5.050781 -24.832031 5.195312 -24.914062 5.34375 -24.96875 C 6.101562 -25.226562 6.789062 -25.3125 7.40625 -25.21875 C 7.707031 -25.175781 7.945312 -25.046875 8.125 -24.828125 L 8.515625 -24.28125 L 8.6875 -24.015625 L 8.859375 -23.765625 C 9.140625 -23.410156 9.34375 -22.941406 9.46875 -22.359375 C 9.582031 -21.828125 9.625 -21.34375 9.59375 -20.90625 C 9.570312 -20.738281 9.578125 -20.546875 9.609375 -20.328125 L 9.6875 -19.765625 L 9.796875 -18.890625 L 9.828125 -18.046875 C 9.847656 -17.691406 9.800781 -17.414062 9.6875 -17.21875 C 9.65625 -17.164062 9.613281 -17.140625 9.5625 -17.140625 L 9.484375 -17.15625 L 9.4375 -17.21875 L 9.234375 -17.796875 L 9.15625 -18.1875 L 9.078125 -18.5625 L 9.015625 -18.828125 L 8.921875 -19.09375 L 8.609375 -19.8125 L 8.328125 -20.53125 C 7.929688 -21.46875 7.453125 -22.207031 6.890625 -22.75 C 6.765625 -22.875 6.628906 -22.882812 6.484375 -22.78125 C 6.085938 -22.476562 5.789062 -22.125 5.59375 -21.71875 L 5.4375 -21.40625 L 5.296875 -21.0625 C 5.191406 -20.8125 5.128906 -20.582031 5.109375 -20.375 L 5.140625 -19.46875 L 5.109375 -19.28125 L 5.046875 -19.078125 C 5.003906 -18.910156 4.984375 -18.773438 4.984375 -18.671875 C 4.984375 -18.398438 4.941406 -18.046875 4.859375 -17.609375 C 4.785156 -17.234375 4.773438 -16.796875 4.828125 -16.296875 L 4.90625 -15.125 L 4.953125 -13.953125 L 5.046875 -11.640625 L 5.109375 -10.59375 L 5.15625 -9.578125 L 5.265625 -7.921875 L 5.390625 -6.25 L 5.421875 -5.828125 L 5.4375 -5.421875 L 5.46875 -4.890625 L 5.53125 -4.375 L 5.6875 -3.296875 C 5.757812 -2.898438 5.851562 -2.546875 5.96875 -2.234375 C 6.144531 -1.742188 6.335938 -1.332031 6.546875 -1 C 6.804688 -0.570312 7.054688 -0.25 7.296875 -0.03125 C 7.628906 0.28125 7.976562 0.296875 8.34375 0.015625 C 8.925781 -0.410156 9.363281 -0.8125 9.65625 -1.1875 C 9.90625 -1.519531 10.082031 -1.941406 10.1875 -2.453125 C 10.289062 -3.066406 10.441406 -3.773438 10.640625 -4.578125 L 10.734375 -5.0625 C 10.816406 -5.613281 10.929688 -6.066406 11.078125 -6.421875 C 11.128906 -6.535156 11.171875 -6.691406 11.203125 -6.890625 L 11.265625 -7.390625 L 11.296875 -7.578125 C 11.316406 -7.660156 11.359375 -7.710938 11.421875 -7.734375 C 11.492188 -7.753906 11.5625 -7.738281 11.625 -7.6875 L 11.6875 -7.578125 L 11.765625 -7.5 L 11.921875 -7.28125 C 12.179688 -6.96875 12.269531 -6.585938 12.1875 -6.140625 L 12.15625 -6.03125 L 12.125 -5.84375 Z M 12.125 -5.8125 "/></g></g></g><g fill="#ff5757" fill-opacity="1"><g transform="translate(159.846884, 328.695799)"><g><path d="M 10.953125 -12.578125 C 11.035156 -8.847656 10.867188 -5.472656 10.453125 -2.453125 L 10.40625 -2.125 L 10.34375 -1.828125 C 10.28125 -1.597656 10.15625 -1.398438 9.96875 -1.234375 C 9.820312 -1.097656 9.804688 -1.007812 9.921875 -0.96875 L 10.078125 -0.953125 L 10.25 -0.953125 L 11.34375 -0.890625 L 12.40625 -0.828125 L 12.578125 -0.796875 L 12.734375 -0.765625 C 12.847656 -0.710938 12.90625 -0.617188 12.90625 -0.484375 C 12.90625 -0.191406 12.738281 -0.03125 12.40625 0 L 11.6875 0.078125 L 10.953125 0.125 C 10.367188 0.164062 9.890625 0.234375 9.515625 0.328125 C 8.804688 0.484375 7.78125 0.484375 6.4375 0.328125 L 4.90625 0.15625 C 4.332031 0.125 3.816406 0.160156 3.359375 0.265625 C 3.242188 0.285156 3.15625 0.257812 3.09375 0.1875 L 3.015625 0.0625 L 2.953125 -0.078125 C 2.867188 -0.378906 2.984375 -0.570312 3.296875 -0.65625 C 3.941406 -0.8125 4.457031 -0.894531 4.84375 -0.90625 C 5.363281 -0.9375 5.625 -1.210938 5.625 -1.734375 C 5.632812 -7.398438 5.082031 -15.734375 3.96875 -26.734375 C 3.914062 -27.316406 3.625 -27.582031 3.09375 -27.53125 L 2.421875 -27.53125 L 1.78125 -27.59375 C 1.25 -27.613281 0.8125 -27.582031 0.46875 -27.5 C 0.300781 -27.457031 0.171875 -27.5 0.078125 -27.625 C 0.0234375 -27.6875 0.015625 -27.757812 0.046875 -27.84375 L 0.171875 -28.03125 C 0.378906 -28.351562 0.707031 -28.507812 1.15625 -28.5 C 2.21875 -28.457031 3.675781 -28.550781 5.53125 -28.78125 L 7.734375 -29.0625 C 8.546875 -29.144531 9.273438 -29.1875 9.921875 -29.1875 L 10.453125 -29.1875 C 10.671875 -29.1875 10.847656 -29.164062 10.984375 -29.125 C 11.378906 -29.050781 11.601562 -28.867188 11.65625 -28.578125 C 11.6875 -28.335938 11.523438 -28.148438 11.171875 -28.015625 L 10.6875 -27.875 L 10.21875 -27.765625 C 10.125 -27.722656 9.976562 -27.695312 9.78125 -27.6875 L 9.328125 -27.625 L 9.15625 -27.578125 L 9.03125 -27.484375 C 8.9375 -27.390625 8.945312 -27.285156 9.0625 -27.171875 C 9.394531 -26.878906 9.597656 -26.488281 9.671875 -26 L 9.734375 -25.34375 L 9.765625 -24.71875 L 10.171875 -21.703125 L 10.53125 -18.65625 C 10.789062 -16.34375 10.929688 -14.316406 10.953125 -12.578125 Z M 10.953125 -12.578125 "/></g></g></g><g fill="#ff5757" fill-opacity="1"><g transform="translate(175.894876, 328.695799)"><g><path d="M 14.40625 -20.203125 C 11.5625 -20.929688 8.929688 -21.070312 6.515625 -20.625 C 5.816406 -20.5 5.367188 -20.757812 5.171875 -21.40625 L 4.984375 -22.09375 L 4.75 -23.40625 L 4.515625 -24.734375 C 4.316406 -25.765625 4.066406 -26.617188 3.765625 -27.296875 C 3.597656 -27.671875 3.742188 -27.867188 4.203125 -27.890625 L 5.109375 -27.90625 L 6.015625 -27.9375 C 6.691406 -27.976562 7.28125 -28.082031 7.78125 -28.25 L 7.984375 -28.296875 L 8.1875 -28.359375 C 8.332031 -28.421875 8.394531 -28.535156 8.375 -28.703125 C 8.351562 -28.859375 8.265625 -28.957031 8.109375 -29 L 7.90625 -29.046875 L 7.6875 -29.046875 L 1.34375 -29.28125 C 1.0625 -29.28125 0.765625 -29.113281 0.453125 -28.78125 C 0.148438 -28.457031 0 -28.140625 0 -27.828125 L 0.09375 -23.328125 C 0.125 -21.546875 0.113281 -20.039062 0.0625 -18.8125 C 0.0195312 -17.65625 0.0390625 -16.304688 0.125 -14.765625 L 0.234375 -12.734375 L 0.359375 -10.71875 C 0.566406 -7.34375 0.539062 -4.648438 0.28125 -2.640625 C 0.144531 -1.828125 0.476562 -1.128906 1.28125 -0.546875 C 2.0625 0.015625 2.835938 0.144531 3.609375 -0.15625 C 5.160156 -0.789062 7.460938 -1.203125 10.515625 -1.390625 L 11.1875 -1.421875 L 11.84375 -1.4375 C 12.351562 -1.476562 12.789062 -1.582031 13.15625 -1.75 L 13.296875 -1.828125 L 13.4375 -1.921875 C 13.519531 -2.003906 13.550781 -2.101562 13.53125 -2.21875 C 13.5 -2.332031 13.429688 -2.421875 13.328125 -2.484375 C 13.222656 -2.554688 13.117188 -2.582031 13.015625 -2.5625 C 12.628906 -2.488281 12.195312 -2.46875 11.71875 -2.5 L 10.40625 -2.640625 C 9.300781 -2.753906 8.4375 -2.707031 7.8125 -2.5 C 7.289062 -2.332031 7.140625 -2.515625 7.359375 -3.046875 C 7.734375 -3.921875 7.882812 -4.832031 7.8125 -5.78125 L 7.625 -8.96875 L 7.5625 -9.984375 L 7.5 -10.96875 C 7.4375 -11.75 7.296875 -12.398438 7.078125 -12.921875 C 6.753906 -13.671875 6.515625 -14.550781 6.359375 -15.5625 L 6.203125 -16.921875 L 6.078125 -18.28125 C 6.046875 -18.695312 6.222656 -18.910156 6.609375 -18.921875 C 7.046875 -18.921875 7.6875 -18.960938 8.53125 -19.046875 L 9.5 -19.125 L 10.453125 -19.171875 L 12.40625 -19.171875 C 13.175781 -19.179688 13.828125 -19.253906 14.359375 -19.390625 C 14.660156 -19.472656 14.820312 -19.59375 14.84375 -19.75 C 14.875 -19.894531 14.835938 -20.003906 14.734375 -20.078125 L 14.578125 -20.15625 Z M 14.40625 -20.203125 "/></g></g></g><g fill="#ff5757" fill-opacity="1"><g transform="translate(193.929161, 328.695799)"><g><path d="M 12.578125 -9.375 C 12.617188 -10.425781 12.601562 -11.234375 12.53125 -11.796875 C 12.5 -12.109375 12.476562 -12.488281 12.46875 -12.9375 L 12.484375 -14.0625 L 12.484375 -14.96875 C 12.429688 -16.71875 12.429688 -18.695312 12.484375 -20.90625 L 12.5625 -22.125 L 12.671875 -23.359375 L 12.71875 -24.84375 C 12.726562 -25.207031 12.765625 -25.503906 12.828125 -25.734375 C 12.878906 -25.898438 12.953125 -26.050781 13.046875 -26.1875 C 13.179688 -26.382812 13.347656 -26.457031 13.546875 -26.40625 L 15.171875 -26 C 15.460938 -25.925781 15.726562 -25.796875 15.96875 -25.609375 C 16.15625 -25.453125 16.316406 -25.335938 16.453125 -25.265625 C 16.898438 -25.023438 17.210938 -24.609375 17.390625 -24.015625 L 17.984375 -21.828125 C 18.035156 -21.628906 18.066406 -21.414062 18.078125 -21.1875 L 18.125 -19.1875 L 18.171875 -17.765625 L 18.1875 -16.359375 C 18.21875 -14.960938 18.1875 -13.890625 18.09375 -13.140625 L 18.078125 -13.015625 L 18.078125 -12.890625 C 18.085938 -12.804688 18.148438 -12.75 18.265625 -12.71875 L 18.296875 -12.65625 L 18.328125 -12.546875 L 18.3125 -12.234375 L 18.0625 -9.796875 L 18.03125 -9.703125 C 18.019531 -9.679688 17.992188 -9.679688 17.953125 -9.703125 C 17.953125 -9.703125 17.898438 -9.765625 17.796875 -9.890625 L 17.671875 -9.0625 L 17.5625 -8.265625 C 17.476562 -7.566406 17.457031 -6.96875 17.5 -6.46875 C 17.539062 -5.882812 17.492188 -5.203125 17.359375 -4.421875 L 17.28125 -3.640625 L 17.25 -3.3125 C 17.15625 -2.738281 16.828125 -2.507812 16.265625 -2.625 C 15.359375 -2.789062 14.675781 -2.976562 14.21875 -3.1875 C 13.65625 -3.445312 13.273438 -3.867188 13.078125 -4.453125 L 12.90625 -4.859375 L 12.71875 -5.28125 C 12.570312 -5.601562 12.484375 -5.890625 12.453125 -6.140625 L 12.390625 -6.296875 L 12.3125 -6.4375 L 10.34375 -9.6875 C 10.164062 -9.988281 9.953125 -10.382812 9.703125 -10.875 L 8.453125 -13.4375 L 8.078125 -14.203125 L 7.6875 -15 L 7.40625 -15.515625 L 7.125 -16.015625 L 7.078125 -16.046875 L 7.015625 -16.078125 C 6.960938 -16.054688 6.9375 -16.015625 6.9375 -15.953125 L 6.953125 -15.8125 L 7.171875 -14.109375 L 7.390625 -12.421875 C 7.546875 -11.410156 7.578125 -10.617188 7.484375 -10.046875 C 7.460938 -9.878906 7.46875 -9.664062 7.5 -9.40625 L 7.546875 -8.65625 L 7.515625 -7.921875 C 7.492188 -7.347656 7.414062 -6.628906 7.28125 -5.765625 L 7.125 -4.703125 L 6.96875 -3.625 C 6.925781 -3.300781 6.847656 -2.910156 6.734375 -2.453125 L 6.390625 -1.328125 L 6.09375 -0.265625 C 6.019531 0.015625 5.835938 0.179688 5.546875 0.234375 L 5.359375 0.265625 C 4.929688 0.242188 4.535156 0.378906 4.171875 0.671875 C 3.960938 0.847656 3.742188 0.816406 3.515625 0.578125 C 3.410156 0.472656 3.269531 0.375 3.09375 0.28125 L 2.59375 0.015625 C 2.320312 -0.109375 2.140625 -0.335938 2.046875 -0.671875 L 1.296875 -3.421875 L 1.046875 -4.5625 C 0.972656 -4.976562 0.9375 -5.359375 0.9375 -5.703125 C 0.945312 -6.078125 0.9375 -6.53125 0.90625 -7.0625 L 0.796875 -8.40625 L 0.71875 -10.25 C 0.6875 -10.957031 0.628906 -11.566406 0.546875 -12.078125 L 0.5 -12.484375 L 0.484375 -12.921875 L 0.265625 -15.234375 L 0.125 -16.609375 L 0.0625 -18 C 0.0195312 -20.394531 0.0234375 -22.414062 0.078125 -24.0625 L 0.140625 -25.515625 C 0.171875 -26.109375 0.179688 -26.59375 0.171875 -26.96875 C 0.160156 -27.3125 0.332031 -27.546875 0.6875 -27.671875 L 1.34375 -27.859375 L 1.984375 -28.0625 L 2.046875 -28.078125 C 2.347656 -28.140625 2.691406 -28.101562 3.078125 -27.96875 L 3.546875 -27.78125 L 4.015625 -27.578125 C 4.390625 -27.429688 4.675781 -27.128906 4.875 -26.671875 L 5.171875 -25.984375 C 5.285156 -25.710938 5.363281 -25.476562 5.40625 -25.28125 C 5.4375 -25.164062 5.5 -25.054688 5.59375 -24.953125 C 5.800781 -24.691406 5.898438 -24.390625 5.890625 -24.046875 C 5.867188 -23.472656 6.082031 -22.875 6.53125 -22.25 C 6.71875 -22 6.921875 -21.644531 7.140625 -21.1875 L 8.234375 -18.953125 L 9.265625 -16.703125 L 9.921875 -15.265625 C 10.148438 -14.703125 10.335938 -14.207031 10.484375 -13.78125 C 10.773438 -12.894531 11.191406 -11.925781 11.734375 -10.875 L 12.03125 -10.25 L 12.328125 -9.609375 L 12.390625 -9.484375 C 12.429688 -9.441406 12.492188 -9.40625 12.578125 -9.375 Z M 12.578125 -9.375 "/></g></g></g><g fill="#ff5757" fill-opacity="1"><g transform="translate(215.40005, 328.695799)"><g><path d="M 12.125 -5.8125 L 12.109375 -5.75 L 11.953125 -3.3125 L 11.890625 -2.1875 L 11.859375 -1.890625 L 11.84375 -1.59375 C 11.875 -1.15625 11.789062 -0.703125 11.59375 -0.234375 C 11.519531 -0.0546875 11.460938 0.117188 11.421875 0.296875 C 11.273438 0.992188 10.90625 1.726562 10.3125 2.5 L 9.71875 3.375 C 9.5625 3.613281 9.382812 3.773438 9.1875 3.859375 C 8.90625 3.984375 8.648438 4.171875 8.421875 4.421875 C 8.234375 4.617188 7.960938 4.726562 7.609375 4.75 C 6.972656 4.78125 6.273438 4.632812 5.515625 4.3125 C 5.191406 4.15625 4.820312 3.953125 4.40625 3.703125 L 3.84375 3.375 L 3.3125 3.03125 C 2.789062 2.71875 2.367188 2.332031 2.046875 1.875 C 1.367188 0.9375 0.921875 0.0234375 0.703125 -0.859375 C 0.359375 -2.378906 0.15625 -3.921875 0.09375 -5.484375 L 0.03125 -7.765625 L 0 -10.046875 L 0 -12.09375 L 0.03125 -14.15625 L 0.03125 -14.265625 L 0.203125 -16.265625 C 0.273438 -17.054688 0.347656 -17.722656 0.421875 -18.265625 C 0.671875 -20.109375 1.460938 -21.6875 2.796875 -23 C 3.078125 -23.269531 3.421875 -23.566406 3.828125 -23.890625 L 4.90625 -24.71875 C 5.050781 -24.832031 5.195312 -24.914062 5.34375 -24.96875 C 6.101562 -25.226562 6.789062 -25.3125 7.40625 -25.21875 C 7.707031 -25.175781 7.945312 -25.046875 8.125 -24.828125 L 8.515625 -24.28125 L 8.6875 -24.015625 L 8.859375 -23.765625 C 9.140625 -23.410156 9.34375 -22.941406 9.46875 -22.359375 C 9.582031 -21.828125 9.625 -21.34375 9.59375 -20.90625 C 9.570312 -20.738281 9.578125 -20.546875 9.609375 -20.328125 L 9.6875 -19.765625 L 9.796875 -18.890625 L 9.828125 -18.046875 C 9.847656 -17.691406 9.800781 -17.414062 9.6875 -17.21875 C 9.65625 -17.164062 9.613281 -17.140625 9.5625 -17.140625 L 9.484375 -17.15625 L 9.4375 -17.21875 L 9.234375 -17.796875 L 9.15625 -18.1875 L 9.078125 -18.5625 L 9.015625 -18.828125 L 8.921875 -19.09375 L 8.609375 -19.8125 L 8.328125 -20.53125 C 7.929688 -21.46875 7.453125 -22.207031 6.890625 -22.75 C 6.765625 -22.875 6.628906 -22.882812 6.484375 -22.78125 C 6.085938 -22.476562 5.789062 -22.125 5.59375 -21.71875 L 5.4375 -21.40625 L 5.296875 -21.0625 C 5.191406 -20.8125 5.128906 -20.582031 5.109375 -20.375 L 5.140625 -19.46875 L 5.109375 -19.28125 L 5.046875 -19.078125 C 5.003906 -18.910156 4.984375 -18.773438 4.984375 -18.671875 C 4.984375 -18.398438 4.941406 -18.046875 4.859375 -17.609375 C 4.785156 -17.234375 4.773438 -16.796875 4.828125 -16.296875 L 4.90625 -15.125 L 4.953125 -13.953125 L 5.046875 -11.640625 L 5.109375 -10.59375 L 5.15625 -9.578125 L 5.265625 -7.921875 L 5.390625 -6.25 L 5.421875 -5.828125 L 5.4375 -5.421875 L 5.46875 -4.890625 L 5.53125 -4.375 L 5.6875 -3.296875 C 5.757812 -2.898438 5.851562 -2.546875 5.96875 -2.234375 C 6.144531 -1.742188 6.335938 -1.332031 6.546875 -1 C 6.804688 -0.570312 7.054688 -0.25 7.296875 -0.03125 C 7.628906 0.28125 7.976562 0.296875 8.34375 0.015625 C 8.925781 -0.410156 9.363281 -0.8125 9.65625 -1.1875 C 9.90625 -1.519531 10.082031 -1.941406 10.1875 -2.453125 C 10.289062 -3.066406 10.441406 -3.773438 10.640625 -4.578125 L 10.734375 -5.0625 C 10.816406 -5.613281 10.929688 -6.066406 11.078125 -6.421875 C 11.128906 -6.535156 11.171875 -6.691406 11.203125 -6.890625 L 11.265625 -7.390625 L 11.296875 -7.578125 C 11.316406 -7.660156 11.359375 -7.710938 11.421875 -7.734375 C 11.492188 -7.753906 11.5625 -7.738281 11.625 -7.6875 L 11.6875 -7.578125 L 11.765625 -7.5 L 11.921875 -7.28125 C 12.179688 -6.96875 12.269531 -6.585938 12.1875 -6.140625 L 12.15625 -6.03125 L 12.125 -5.84375 Z M 12.125 -5.8125 "/></g></g></g><g fill="#ff5757" fill-opacity="1"><g transform="translate(230.86477, 328.695799)"><g><path d="M 14.40625 -20.203125 C 11.5625 -20.929688 8.929688 -21.070312 6.515625 -20.625 C 5.816406 -20.5 5.367188 -20.757812 5.171875 -21.40625 L 4.984375 -22.09375 L 4.75 -23.40625 L 4.515625 -24.734375 C 4.316406 -25.765625 4.066406 -26.617188 3.765625 -27.296875 C 3.597656 -27.671875 3.742188 -27.867188 4.203125 -27.890625 L 5.109375 -27.90625 L 6.015625 -27.9375 C 6.691406 -27.976562 7.28125 -28.082031 7.78125 -28.25 L 7.984375 -28.296875 L 8.1875 -28.359375 C 8.332031 -28.421875 8.394531 -28.535156 8.375 -28.703125 C 8.351562 -28.859375 8.265625 -28.957031 8.109375 -29 L 7.90625 -29.046875 L 7.6875 -29.046875 L 1.34375 -29.28125 C 1.0625 -29.28125 0.765625 -29.113281 0.453125 -28.78125 C 0.148438 -28.457031 0 -28.140625 0 -27.828125 L 0.09375 -23.328125 C 0.125 -21.546875 0.113281 -20.039062 0.0625 -18.8125 C 0.0195312 -17.65625 0.0390625 -16.304688 0.125 -14.765625 L 0.234375 -12.734375 L 0.359375 -10.71875 C 0.566406 -7.34375 0.539062 -4.648438 0.28125 -2.640625 C 0.144531 -1.828125 0.476562 -1.128906 1.28125 -0.546875 C 2.0625 0.015625 2.835938 0.144531 3.609375 -0.15625 C 5.160156 -0.789062 7.460938 -1.203125 10.515625 -1.390625 L 11.1875 -1.421875 L 11.84375 -1.4375 C 12.351562 -1.476562 12.789062 -1.582031 13.15625 -1.75 L 13.296875 -1.828125 L 13.4375 -1.921875 C 13.519531 -2.003906 13.550781 -2.101562 13.53125 -2.21875 C 13.5 -2.332031 13.429688 -2.421875 13.328125 -2.484375 C 13.222656 -2.554688 13.117188 -2.582031 13.015625 -2.5625 C 12.628906 -2.488281 12.195312 -2.46875 11.71875 -2.5 L 10.40625 -2.640625 C 9.300781 -2.753906 8.4375 -2.707031 7.8125 -2.5 C 7.289062 -2.332031 7.140625 -2.515625 7.359375 -3.046875 C 7.734375 -3.921875 7.882812 -4.832031 7.8125 -5.78125 L 7.625 -8.96875 L 7.5625 -9.984375 L 7.5 -10.96875 C 7.4375 -11.75 7.296875 -12.398438 7.078125 -12.921875 C 6.753906 -13.671875 6.515625 -14.550781 6.359375 -15.5625 L 6.203125 -16.921875 L 6.078125 -18.28125 C 6.046875 -18.695312 6.222656 -18.910156 6.609375 -18.921875 C 7.046875 -18.921875 7.6875 -18.960938 8.53125 -19.046875 L 9.5 -19.125 L 10.453125 -19.171875 L 12.40625 -19.171875 C 13.175781 -19.179688 13.828125 -19.253906 14.359375 -19.390625 C 14.660156 -19.472656 14.820312 -19.59375 14.84375 -19.75 C 14.875 -19.894531 14.835938 -20.003906 14.734375 -20.078125 L 14.578125 -20.15625 Z M 14.40625 -20.203125 "/></g></g></g></svg>