<svg xmlns="http://www.w3.org/2000/svg" xmlns:xlink="http://www.w3.org/1999/xlink" width="500" zoomAndPan="magnify" viewBox="0 0 375 374.999991" height="500" preserveAspectRatio="xMidYMid meet" version="1.0"><defs><g/><clipPath id="b9b96326e2"><path d="M 159.441406 99.644531 L 215.691406 99.644531 L 215.691406 186 L 159.441406 186 Z M 159.441406 99.644531 " clip-rule="nonzero"/></clipPath><clipPath id="f779630292"><path d="M 187 100 L 188 100 L 188 208.394531 L 187 208.394531 Z M 187 100 " clip-rule="nonzero"/></clipPath><clipPath id="9720903dc2"><path d="M 170.417969 266.101562 L 204.917969 266.101562 L 204.917969 275.101562 L 170.417969 275.101562 Z M 170.417969 266.101562 " clip-rule="nonzero"/></clipPath></defs><rect x="-37.5" width="450" fill="#ffffff" y="-37.499999" height="449.999989" fill-opacity="1"/><rect x="-37.5" width="450" fill="#ffffff" y="-37.499999" height="449.999989" fill-opacity="1"/><rect x="-37.5" width="450" fill="#f3efe8" y="-37.499999" height="449.999989" fill-opacity="1"/><g clip-path="url(#b9b96326e2)"><path fill="#9a7754" d="M 187.839844 185.066406 L 187.566406 184.730469 L 187.296875 185.066406 L 162.269531 164.636719 L 159.628906 147.847656 L 177.894531 160.523438 L 160.78125 139.894531 L 180.871094 146.703125 L 165.109375 127.015625 L 187.566406 99.644531 L 210.027344 127.015625 L 194.265625 146.636719 L 214.355469 139.828125 L 197.242188 160.523438 L 215.507812 147.847656 L 212.9375 164.636719 Z M 162.875 164.300781 L 187.566406 184.460938 L 212.257812 164.300781 L 214.558594 149.265625 L 193.519531 163.828125 L 212.257812 141.242188 L 192.304688 147.984375 L 209.082031 126.949219 L 187.5 100.65625 L 165.921875 126.949219 L 182.699219 147.984375 L 162.742188 141.242188 L 181.480469 163.828125 L 160.507812 149.265625 Z M 162.875 164.300781 " fill-opacity="1" fill-rule="nonzero"/></g><g clip-path="url(#f779630292)"><path fill="#9a7754" d="M 187.230469 100.117188 L 187.90625 100.117188 L 187.90625 208.394531 L 187.230469 208.394531 Z M 187.230469 100.117188 " fill-opacity="1" fill-rule="nonzero"/></g><path fill="#9a7754" d="M 187.566406 137.601562 L 164.839844 127.015625 L 187.566406 114.679688 L 210.296875 127.015625 Z M 166.328125 127.015625 L 187.566406 136.925781 L 208.808594 127.015625 L 187.566406 115.488281 Z M 166.328125 127.015625 " fill-opacity="1" fill-rule="nonzero"/><path fill="#9a7754" d="M 187.636719 185.875 L 179.382812 162.277344 L 180.058594 162.074219 L 187.636719 183.785156 L 195.078125 162.074219 L 195.6875 162.277344 Z M 187.636719 185.875 " fill-opacity="1" fill-rule="nonzero"/><path fill="#9a7754" d="M 187.566406 170.164062 L 179.585938 162.546875 L 162.605469 164.839844 L 162.46875 164.164062 L 179.855469 161.804688 L 187.566406 169.222656 L 195.28125 161.804688 L 212.597656 164.164062 L 212.53125 164.839844 L 195.484375 162.546875 Z M 187.566406 170.164062 " fill-opacity="1" fill-rule="nonzero"/><path fill="#9a7754" d="M 195.078125 162.210938 L 193.113281 148.121094 L 187.566406 154.792969 L 182.019531 148.121094 L 180.058594 162.210938 L 179.382812 162.144531 L 181.546875 146.570312 L 187.566406 153.714844 L 193.519531 146.570312 L 195.753906 162.144531 Z M 195.078125 162.210938 " fill-opacity="1" fill-rule="nonzero"/><path fill="#9a7754" d="M 193.046875 147.511719 L 187.566406 137.9375 L 182.089844 147.511719 L 181.546875 147.175781 L 187.566406 136.589844 L 193.589844 147.175781 Z M 193.046875 147.511719 " fill-opacity="1" fill-rule="nonzero"/><g clip-path="url(#9720903dc2)"><path fill="#9a7754" d="M 174.09375 266.101562 C 174.515625 266.117188 174.628906 266.136719 174.628906 266.226562 C 174.628906 266.316406 174.492188 266.34375 174.015625 266.382812 C 173.609375 266.414062 173.257812 266.492188 172.980469 266.613281 C 172.75 266.714844 172.390625 266.945312 172.183594 267.121094 C 171.9375 267.335938 171.722656 267.632812 171.53125 267.996094 C 171.269531 268.511719 171.253906 268.59375 171.261719 269.214844 C 171.269531 269.730469 171.308594 269.996094 171.453125 270.367188 C 171.5625 270.632812 171.785156 271.046875 171.945312 271.285156 C 172.113281 271.527344 172.40625 271.851562 172.597656 272.007812 C 172.789062 272.164062 173.148438 272.394531 173.402344 272.511719 C 173.65625 272.628906 174.101562 272.769531 174.398438 272.8125 C 174.808594 272.878906 175.082031 272.878906 175.550781 272.8125 C 175.886719 272.761719 176.457031 272.628906 176.816406 272.519531 C 177.175781 272.398438 177.828125 272.148438 178.273438 271.957031 C 178.71875 271.765625 179.578125 271.367188 180.191406 271.070312 C 180.804688 270.773438 181.703125 270.367188 182.1875 270.167969 C 182.667969 269.960938 183.496094 269.65625 184.027344 269.496094 C 184.554688 269.332031 185.332031 269.109375 185.753906 269.007812 C 186.175781 268.902344 186.917969 268.753906 187.402344 268.675781 C 187.886719 268.59375 188.628906 268.488281 189.050781 268.4375 C 189.472656 268.394531 190.492188 268.355469 191.3125 268.355469 C 192.195312 268.355469 193.230469 268.40625 193.84375 268.476562 C 194.414062 268.542969 195.300781 268.683594 195.816406 268.777344 C 196.335938 268.882812 197.179688 269.097656 197.695312 269.265625 C 198.21875 269.429688 199.015625 269.738281 199.480469 269.960938 C 199.941406 270.175781 200.65625 270.558594 201.054688 270.816406 C 201.453125 271.078125 202.121094 271.609375 202.542969 271.992188 C 202.957031 272.378906 203.464844 272.910156 203.671875 273.175781 C 203.878906 273.441406 204.167969 273.894531 204.316406 274.175781 C 204.460938 274.457031 204.597656 274.78125 204.621094 274.890625 C 204.652344 275.046875 204.628906 275.097656 204.542969 275.097656 C 204.484375 275.097656 204.308594 274.875 204.152344 274.597656 C 204 274.324219 203.679688 273.871094 203.441406 273.589844 C 203.203125 273.308594 202.789062 272.886719 202.511719 272.660156 C 202.234375 272.421875 201.753906 272.054688 201.4375 271.839844 C 201.125 271.617188 200.519531 271.269531 200.097656 271.054688 C 199.675781 270.847656 199 270.558594 198.601562 270.417969 C 198.203125 270.269531 197.511719 270.070312 197.066406 269.960938 C 196.621094 269.855469 195.832031 269.703125 195.300781 269.621094 C 194.773438 269.546875 193.875 269.457031 193.308594 269.4375 C 192.738281 269.414062 192.164062 269.382812 192.042969 269.375 C 191.910156 269.363281 191.273438 269.375 190.625 269.414062 C 189.972656 269.449219 189.050781 269.53125 188.589844 269.597656 C 188.121094 269.65625 187.347656 269.796875 186.863281 269.894531 C 186.382812 269.996094 185.691406 270.160156 185.332031 270.257812 C 184.96875 270.351562 184.265625 270.574219 183.757812 270.746094 C 183.25 270.914062 182.230469 271.320312 181.496094 271.644531 C 180.757812 271.964844 179.699219 272.421875 179.15625 272.660156 C 178.605469 272.894531 177.882812 273.175781 177.546875 273.28125 C 177.207031 273.390625 176.703125 273.53125 176.410156 273.589844 C 176.125 273.648438 175.550781 273.695312 175.128906 273.695312 C 174.523438 273.695312 174.238281 273.65625 173.761719 273.507812 C 173.441406 273.414062 172.980469 273.207031 172.75 273.050781 C 172.519531 272.902344 172.144531 272.59375 171.921875 272.371094 C 171.699219 272.140625 171.386719 271.707031 171.21875 271.402344 C 171.054688 271.097656 170.871094 270.648438 170.804688 270.402344 C 170.734375 270.160156 170.679688 269.703125 170.679688 269.382812 C 170.679688 269.042969 170.734375 268.644531 170.816406 268.386719 C 170.894531 268.15625 171.070312 267.789062 171.21875 267.566406 C 171.363281 267.34375 171.625 267.046875 171.800781 266.898438 C 171.976562 266.753906 172.285156 266.550781 172.492188 266.449219 C 172.699219 266.351562 173.019531 266.226562 173.210938 266.175781 C 173.402344 266.132812 173.792969 266.09375 174.09375 266.101562 Z M 174.09375 266.101562 " fill-opacity="1" fill-rule="nonzero"/></g><g fill="#9a7754" fill-opacity="1"><g transform="translate(89.930076, 231.922494)"><g><path d="M 5.8125 0.28125 C 5.101562 0.28125 4.4375 0.144531 3.8125 -0.125 C 3.195312 -0.394531 2.65625 -0.757812 2.1875 -1.21875 C 1.726562 -1.6875 1.363281 -2.238281 1.09375 -2.875 C 0.832031 -3.519531 0.703125 -4.21875 0.703125 -4.96875 C 0.703125 -5.71875 0.832031 -6.410156 1.09375 -7.046875 C 1.363281 -7.679688 1.726562 -8.234375 2.1875 -8.703125 C 2.65625 -9.171875 3.195312 -9.539062 3.8125 -9.8125 C 4.4375 -10.082031 5.101562 -10.21875 5.8125 -10.21875 C 6.519531 -10.21875 7.179688 -10.082031 7.796875 -9.8125 C 8.421875 -9.539062 8.960938 -9.171875 9.421875 -8.703125 C 9.890625 -8.234375 10.253906 -7.679688 10.515625 -7.046875 C 10.785156 -6.410156 10.921875 -5.71875 10.921875 -4.96875 C 10.921875 -4.21875 10.785156 -3.519531 10.515625 -2.875 C 10.253906 -2.238281 9.890625 -1.6875 9.421875 -1.21875 C 8.960938 -0.757812 8.421875 -0.394531 7.796875 -0.125 C 7.179688 0.144531 6.519531 0.28125 5.8125 0.28125 Z M 5.8125 -0.359375 C 6.320312 -0.359375 6.8125 -0.46875 7.28125 -0.6875 C 7.757812 -0.90625 8.175781 -1.21875 8.53125 -1.625 C 8.894531 -2.03125 9.179688 -2.515625 9.390625 -3.078125 C 9.609375 -3.648438 9.71875 -4.28125 9.71875 -4.96875 C 9.71875 -5.65625 9.609375 -6.28125 9.390625 -6.84375 C 9.179688 -7.414062 8.894531 -7.898438 8.53125 -8.296875 C 8.175781 -8.703125 7.757812 -9.015625 7.28125 -9.234375 C 6.8125 -9.460938 6.320312 -9.578125 5.8125 -9.578125 C 5.300781 -9.578125 4.804688 -9.460938 4.328125 -9.234375 C 3.859375 -9.015625 3.441406 -8.703125 3.078125 -8.296875 C 2.722656 -7.898438 2.441406 -7.414062 2.234375 -6.84375 C 2.023438 -6.28125 1.921875 -5.65625 1.921875 -4.96875 C 1.921875 -4.28125 2.023438 -3.648438 2.234375 -3.078125 C 2.441406 -2.515625 2.722656 -2.03125 3.078125 -1.625 C 3.441406 -1.21875 3.859375 -0.90625 4.328125 -0.6875 C 4.804688 -0.46875 5.300781 -0.359375 5.8125 -0.359375 Z M 5.8125 -0.359375 "/></g></g></g><g fill="#9a7754" fill-opacity="1"><g transform="translate(105.109755, 231.922494)"><g><path d="M 1.34375 -9.9375 L 4.890625 -9.9375 C 5.515625 -9.9375 6.070312 -9.847656 6.5625 -9.671875 C 7.0625 -9.492188 7.476562 -9.257812 7.8125 -8.96875 C 8.15625 -8.6875 8.414062 -8.347656 8.59375 -7.953125 C 8.78125 -7.566406 8.875 -7.160156 8.875 -6.734375 C 8.875 -6.304688 8.78125 -5.898438 8.59375 -5.515625 C 8.414062 -5.128906 8.15625 -4.789062 7.8125 -4.5 C 7.476562 -4.21875 7.0625 -3.988281 6.5625 -3.8125 C 6.070312 -3.632812 5.515625 -3.546875 4.890625 -3.546875 L 2.484375 -3.546875 L 2.484375 0 L 1.34375 0 Z M 4.890625 -4.25 C 5.296875 -4.25 5.671875 -4.316406 6.015625 -4.453125 C 6.359375 -4.585938 6.648438 -4.765625 6.890625 -4.984375 C 7.128906 -5.210938 7.316406 -5.476562 7.453125 -5.78125 C 7.585938 -6.082031 7.65625 -6.398438 7.65625 -6.734375 C 7.65625 -7.078125 7.585938 -7.394531 7.453125 -7.6875 C 7.316406 -7.988281 7.128906 -8.253906 6.890625 -8.484375 C 6.648438 -8.710938 6.359375 -8.890625 6.015625 -9.015625 C 5.671875 -9.148438 5.296875 -9.21875 4.890625 -9.21875 L 2.484375 -9.21875 L 2.484375 -4.25 Z M 4.890625 -4.25 "/></g></g></g><g fill="#9a7754" fill-opacity="1"><g transform="translate(118.16144, 231.922494)"><g><path d="M 1.34375 -9.9375 L 8.234375 -9.9375 L 8.09375 -9.21875 L 2.484375 -9.21875 L 2.484375 -5.46875 L 6.671875 -5.46875 L 6.53125 -4.75 L 2.484375 -4.75 L 2.484375 -0.703125 L 8.4375 -0.703125 L 8.4375 0 L 1.34375 0 Z M 1.34375 -9.9375 "/></g></g></g><g fill="#9a7754" fill-opacity="1"><g transform="translate(130.574729, 231.922494)"><g><path d="M 1.34375 -9.9375 L 2.40625 -9.9375 L 8.515625 -1.5625 L 8.578125 -1.5625 L 8.578125 -9.9375 L 9.296875 -9.9375 L 9.296875 0 L 8.234375 0 L 2.125 -8.375 L 2.0625 -8.375 L 2.0625 0 L 1.34375 0 Z M 1.34375 -9.9375 "/></g></g></g><g fill="#9a7754" fill-opacity="1"><g transform="translate(144.761351, 231.922494)"><g/></g></g><g fill="#9a7754" fill-opacity="1"><g transform="translate(151.712803, 231.922494)"><g><path d="M 1.34375 -9.9375 L 2.484375 -9.9375 L 2.484375 -0.703125 L 8.15625 -0.703125 L 8.015625 0 L 1.34375 0 Z M 1.34375 -9.9375 "/></g></g></g><g fill="#9a7754" fill-opacity="1"><g transform="translate(163.629561, 231.922494)"><g><path d="M 1.34375 -9.9375 L 2.484375 -9.9375 L 2.484375 0 L 1.34375 0 Z M 1.34375 -9.9375 "/></g></g></g><g fill="#9a7754" fill-opacity="1"><g transform="translate(171.006607, 231.922494)"><g><path d="M 1.34375 -9.9375 L 8.15625 -9.9375 L 8.015625 -9.21875 L 2.484375 -9.21875 L 2.484375 -5.109375 L 6.875 -5.109375 L 6.734375 -4.390625 L 2.484375 -4.390625 L 2.484375 0 L 1.34375 0 Z M 1.34375 -9.9375 "/></g></g></g><g fill="#9a7754" fill-opacity="1"><g transform="translate(182.85243, 231.922494)"><g><path d="M 1.34375 -9.9375 L 8.234375 -9.9375 L 8.09375 -9.21875 L 2.484375 -9.21875 L 2.484375 -5.46875 L 6.671875 -5.46875 L 6.53125 -4.75 L 2.484375 -4.75 L 2.484375 -0.703125 L 8.4375 -0.703125 L 8.4375 0 L 1.34375 0 Z M 1.34375 -9.9375 "/></g></g></g><g fill="#9a7754" fill-opacity="1"><g transform="translate(195.265717, 231.922494)"><g/></g></g><g fill="#9a7754" fill-opacity="1"><g transform="translate(202.217169, 231.922494)"><g><path d="M 4.390625 0.28125 C 3.710938 0.28125 3.117188 0.171875 2.609375 -0.046875 C 2.109375 -0.273438 1.691406 -0.53125 1.359375 -0.8125 C 0.960938 -1.132812 0.628906 -1.503906 0.359375 -1.921875 L 0.78125 -2.265625 C 1.03125 -1.910156 1.332031 -1.59375 1.6875 -1.3125 C 1.988281 -1.0625 2.363281 -0.835938 2.8125 -0.640625 C 3.257812 -0.453125 3.785156 -0.359375 4.390625 -0.359375 C 4.785156 -0.359375 5.140625 -0.414062 5.453125 -0.53125 C 5.773438 -0.644531 6.046875 -0.800781 6.265625 -1 C 6.484375 -1.207031 6.648438 -1.445312 6.765625 -1.71875 C 6.890625 -2 6.953125 -2.300781 6.953125 -2.625 C 6.953125 -2.988281 6.804688 -3.289062 6.515625 -3.53125 C 6.222656 -3.769531 5.851562 -3.984375 5.40625 -4.171875 C 4.957031 -4.367188 4.476562 -4.554688 3.96875 -4.734375 C 3.457031 -4.921875 2.976562 -5.132812 2.53125 -5.375 C 2.09375 -5.625 1.726562 -5.921875 1.4375 -6.265625 C 1.144531 -6.617188 1 -7.0625 1 -7.59375 C 1 -7.925781 1.078125 -8.25 1.234375 -8.5625 C 1.390625 -8.875 1.613281 -9.15625 1.90625 -9.40625 C 2.207031 -9.65625 2.570312 -9.851562 3 -10 C 3.425781 -10.144531 3.914062 -10.21875 4.46875 -10.21875 C 5.019531 -10.21875 5.515625 -10.117188 5.953125 -9.921875 C 6.390625 -9.734375 6.757812 -9.523438 7.0625 -9.296875 C 7.425781 -9.015625 7.742188 -8.707031 8.015625 -8.375 L 7.59375 -8.015625 C 7.332031 -8.296875 7.039062 -8.554688 6.71875 -8.796875 C 6.445312 -8.984375 6.117188 -9.160156 5.734375 -9.328125 C 5.359375 -9.492188 4.9375 -9.578125 4.46875 -9.578125 C 4.125 -9.578125 3.8125 -9.519531 3.53125 -9.40625 C 3.257812 -9.300781 3.023438 -9.160156 2.828125 -8.984375 C 2.628906 -8.804688 2.472656 -8.59375 2.359375 -8.34375 C 2.253906 -8.101562 2.203125 -7.851562 2.203125 -7.59375 C 2.203125 -7.21875 2.347656 -6.910156 2.640625 -6.671875 C 2.929688 -6.441406 3.296875 -6.226562 3.734375 -6.03125 C 4.179688 -5.84375 4.660156 -5.65625 5.171875 -5.46875 C 5.679688 -5.289062 6.160156 -5.078125 6.609375 -4.828125 C 7.054688 -4.585938 7.425781 -4.289062 7.71875 -3.9375 C 8.007812 -3.59375 8.15625 -3.15625 8.15625 -2.625 C 8.15625 -2.257812 8.066406 -1.898438 7.890625 -1.546875 C 7.722656 -1.191406 7.476562 -0.878906 7.15625 -0.609375 C 6.832031 -0.347656 6.4375 -0.132812 5.96875 0.03125 C 5.507812 0.195312 4.984375 0.28125 4.390625 0.28125 Z M 4.390625 0.28125 "/></g></g></g><g fill="#9a7754" fill-opacity="1"><g transform="translate(214.55952, 231.922494)"><g><path d="M 5.8125 0.28125 C 5.101562 0.28125 4.4375 0.144531 3.8125 -0.125 C 3.195312 -0.394531 2.65625 -0.757812 2.1875 -1.21875 C 1.726562 -1.6875 1.363281 -2.238281 1.09375 -2.875 C 0.832031 -3.519531 0.703125 -4.21875 0.703125 -4.96875 C 0.703125 -5.71875 0.832031 -6.410156 1.09375 -7.046875 C 1.363281 -7.679688 1.726562 -8.234375 2.1875 -8.703125 C 2.65625 -9.171875 3.195312 -9.539062 3.8125 -9.8125 C 4.4375 -10.082031 5.101562 -10.21875 5.8125 -10.21875 C 6.46875 -10.21875 7.039062 -10.109375 7.53125 -9.890625 C 8.03125 -9.671875 8.445312 -9.429688 8.78125 -9.171875 C 9.164062 -8.867188 9.503906 -8.53125 9.796875 -8.15625 L 9.359375 -7.796875 C 9.117188 -8.128906 8.820312 -8.425781 8.46875 -8.6875 C 8.164062 -8.90625 7.796875 -9.109375 7.359375 -9.296875 C 6.921875 -9.484375 6.40625 -9.578125 5.8125 -9.578125 C 5.300781 -9.578125 4.804688 -9.460938 4.328125 -9.234375 C 3.859375 -9.015625 3.441406 -8.703125 3.078125 -8.296875 C 2.722656 -7.898438 2.441406 -7.414062 2.234375 -6.84375 C 2.023438 -6.28125 1.921875 -5.65625 1.921875 -4.96875 C 1.921875 -4.28125 2.023438 -3.648438 2.234375 -3.078125 C 2.441406 -2.515625 2.722656 -2.03125 3.078125 -1.625 C 3.441406 -1.21875 3.859375 -0.90625 4.328125 -0.6875 C 4.804688 -0.46875 5.300781 -0.359375 5.8125 -0.359375 C 6.457031 -0.359375 7.015625 -0.453125 7.484375 -0.640625 C 7.953125 -0.835938 8.34375 -1.0625 8.65625 -1.3125 C 9.019531 -1.59375 9.328125 -1.910156 9.578125 -2.265625 L 10 -1.921875 C 9.71875 -1.503906 9.375 -1.132812 8.96875 -0.8125 C 8.613281 -0.53125 8.175781 -0.273438 7.65625 -0.046875 C 7.132812 0.171875 6.519531 0.28125 5.8125 0.28125 Z M 5.8125 0.28125 "/></g></g></g><g fill="#9a7754" fill-opacity="1"><g transform="translate(228.391476, 231.922494)"><g><path d="M 1.34375 -9.9375 L 2.484375 -9.9375 L 2.484375 0 L 1.34375 0 Z M 1.34375 -9.9375 "/></g></g></g><g fill="#9a7754" fill-opacity="1"><g transform="translate(235.768528, 231.922494)"><g><path d="M 1.34375 -9.9375 L 8.234375 -9.9375 L 8.09375 -9.21875 L 2.484375 -9.21875 L 2.484375 -5.46875 L 6.671875 -5.46875 L 6.53125 -4.75 L 2.484375 -4.75 L 2.484375 -0.703125 L 8.4375 -0.703125 L 8.4375 0 L 1.34375 0 Z M 1.34375 -9.9375 "/></g></g></g><g fill="#9a7754" fill-opacity="1"><g transform="translate(248.181821, 231.922494)"><g><path d="M 1.34375 -9.9375 L 2.40625 -9.9375 L 8.515625 -1.5625 L 8.578125 -1.5625 L 8.578125 -9.9375 L 9.296875 -9.9375 L 9.296875 0 L 8.234375 0 L 2.125 -8.375 L 2.0625 -8.375 L 2.0625 0 L 1.34375 0 Z M 1.34375 -9.9375 "/></g></g></g><g fill="#9a7754" fill-opacity="1"><g transform="translate(262.368449, 231.922494)"><g><path d="M 5.8125 0.28125 C 5.101562 0.28125 4.4375 0.144531 3.8125 -0.125 C 3.195312 -0.394531 2.65625 -0.757812 2.1875 -1.21875 C 1.726562 -1.6875 1.363281 -2.238281 1.09375 -2.875 C 0.832031 -3.519531 0.703125 -4.21875 0.703125 -4.96875 C 0.703125 -5.71875 0.832031 -6.410156 1.09375 -7.046875 C 1.363281 -7.679688 1.726562 -8.234375 2.1875 -8.703125 C 2.65625 -9.171875 3.195312 -9.539062 3.8125 -9.8125 C 4.4375 -10.082031 5.101562 -10.21875 5.8125 -10.21875 C 6.46875 -10.21875 7.039062 -10.109375 7.53125 -9.890625 C 8.03125 -9.671875 8.445312 -9.429688 8.78125 -9.171875 C 9.164062 -8.867188 9.503906 -8.53125 9.796875 -8.15625 L 9.359375 -7.796875 C 9.117188 -8.128906 8.820312 -8.425781 8.46875 -8.6875 C 8.164062 -8.90625 7.796875 -9.109375 7.359375 -9.296875 C 6.921875 -9.484375 6.40625 -9.578125 5.8125 -9.578125 C 5.300781 -9.578125 4.804688 -9.460938 4.328125 -9.234375 C 3.859375 -9.015625 3.441406 -8.703125 3.078125 -8.296875 C 2.722656 -7.898438 2.441406 -7.414062 2.234375 -6.84375 C 2.023438 -6.28125 1.921875 -5.65625 1.921875 -4.96875 C 1.921875 -4.28125 2.023438 -3.648438 2.234375 -3.078125 C 2.441406 -2.515625 2.722656 -2.03125 3.078125 -1.625 C 3.441406 -1.21875 3.859375 -0.90625 4.328125 -0.6875 C 4.804688 -0.46875 5.300781 -0.359375 5.8125 -0.359375 C 6.457031 -0.359375 7.015625 -0.453125 7.484375 -0.640625 C 7.953125 -0.835938 8.34375 -1.0625 8.65625 -1.3125 C 9.019531 -1.59375 9.328125 -1.910156 9.578125 -2.265625 L 10 -1.921875 C 9.71875 -1.503906 9.375 -1.132812 8.96875 -0.8125 C 8.613281 -0.53125 8.175781 -0.273438 7.65625 -0.046875 C 7.132812 0.171875 6.519531 0.28125 5.8125 0.28125 Z M 5.8125 0.28125 "/></g></g></g><g fill="#9a7754" fill-opacity="1"><g transform="translate(276.200405, 231.922494)"><g><path d="M 1.34375 -9.9375 L 8.234375 -9.9375 L 8.09375 -9.21875 L 2.484375 -9.21875 L 2.484375 -5.46875 L 6.671875 -5.46875 L 6.53125 -4.75 L 2.484375 -4.75 L 2.484375 -0.703125 L 8.4375 -0.703125 L 8.4375 0 L 1.34375 0 Z M 1.34375 -9.9375 "/></g></g></g></svg>