<svg width="648" height="1098" viewBox="0 0 648 1098" fill="none" xmlns="http://www.w3.org/2000/svg">
<g clip-path="url(#clip0_959_370)">
<rect x="648" width="1098" height="648" rx="4" transform="rotate(90 648 0)" fill="white"/>
<g filter="url(#filter0_d_959_370)">
<path d="M693.877 67.9123C793.455 336.729 606.63 564.557 376.878 505.633C267.965 477.7 123.509 370.95 12.5939 152.089C-140.801 -150.948 -61.4485 -515.855 43.8021 -701C226.385 -118.135 514.216 -321.566 693.877 67.9123Z" fill="#020887"/>
</g>
<g filter="url(#filter1_d_959_370)">
<path d="M809.463 613.137C891.329 834.136 737.736 1021.44 548.853 972.995C459.314 950.031 340.553 862.269 249.368 682.34C123.26 433.208 188.497 133.211 275.025 -19C425.13 460.184 661.761 292.94 809.463 613.137Z" fill="url(#paint0_linear_959_370)"/>
</g>
<mask id="path-4-inside-1_959_370" fill="white">
<path fill-rule="evenodd" clip-rule="evenodd" d="M187.888 1010.55C181.683 1000.05 180.173 985.902 186.121 970.749C196.859 948.783 210.417 941.403 224.368 933.809C242.401 923.994 261.09 913.821 275.195 871.331C289.616 895.27 300.489 942.451 279.471 981.633C264.273 1009.93 244.48 1023.73 229.557 1027.34C217.099 1030.36 205.563 1027.57 197.015 1020.94L257.177 952.861L187.888 1010.55Z"/>
</mask>
<path fill-rule="evenodd" clip-rule="evenodd" d="M187.888 1010.55C181.683 1000.05 180.173 985.902 186.121 970.749C196.859 948.783 210.417 941.403 224.368 933.809C242.401 923.994 261.09 913.821 275.195 871.331C289.616 895.27 300.489 942.451 279.471 981.633C264.273 1009.93 244.48 1023.73 229.557 1027.34C217.099 1030.36 205.563 1027.57 197.015 1020.94L257.177 952.861L187.888 1010.55Z" fill="url(#paint1_linear_959_370)"/>
<path d="M186.121 970.749L182.728 969.417L182.781 969.28L182.846 969.148L186.121 970.749ZM187.888 1010.55L190.221 1013.36L186.928 1016.1L184.749 1012.41L187.888 1010.55ZM224.368 933.809L226.111 937.011L224.368 933.809ZM275.195 871.331L271.735 870.182L274.23 862.665L278.318 869.45L275.195 871.331ZM279.471 981.633L282.684 983.356L282.683 983.358L279.471 981.633ZM229.557 1027.34L230.414 1030.89L229.557 1027.34ZM197.015 1020.94L194.782 1023.82L191.709 1021.44L194.283 1018.53L197.015 1020.94ZM257.177 952.861L254.844 950.06L259.909 955.275L257.177 952.861ZM189.515 972.081C183.938 986.287 185.444 999.247 191.027 1008.7L184.749 1012.41C177.922 1000.85 176.407 985.517 182.728 969.417L189.515 972.081ZM226.111 937.011C212.309 944.524 199.614 951.448 189.396 972.35L182.846 969.148C194.104 946.117 208.525 938.282 222.625 930.607L226.111 937.011ZM278.655 872.48C271.475 894.108 263.036 907.783 253.889 917.343C244.762 926.881 235.112 932.112 226.111 937.011L222.625 930.607C231.657 925.691 240.368 920.927 248.62 912.302C256.852 903.699 264.81 891.044 271.735 870.182L278.655 872.48ZM276.258 979.909C296.493 942.189 286.047 896.41 272.072 873.212L278.318 869.45C293.185 894.129 304.486 942.713 282.684 983.356L276.258 979.909ZM228.699 1023.8C242.375 1020.49 261.422 1007.53 276.259 979.908L282.683 983.358C267.125 1012.33 246.585 1026.97 230.414 1030.89L228.699 1023.8ZM199.249 1018.06C206.898 1023.99 217.291 1026.56 228.699 1023.8L230.414 1030.89C216.908 1034.16 204.229 1031.15 194.782 1023.82L199.249 1018.06ZM194.283 1018.53L254.445 950.447L259.909 955.275L199.747 1023.36L194.283 1018.53ZM259.51 955.663L190.221 1013.36L185.556 1007.75L254.844 950.06L259.51 955.663Z" fill="#139D3D" fill-opacity="0.47" mask="url(#path-4-inside-1_959_370)"/>
<mask id="path-6-inside-2_959_370" fill="white">
<path fill-rule="evenodd" clip-rule="evenodd" d="M173.31 1010.56C179.516 1000.05 181.027 985.903 175.078 970.749C164.34 948.783 150.782 941.403 136.831 933.809C118.798 923.994 100.109 913.821 86.0043 871.331C71.5828 895.27 60.7099 942.451 81.7281 981.633C96.9258 1009.93 116.719 1023.73 131.643 1027.34C144.099 1030.36 155.634 1027.57 164.182 1020.94L104.019 952.861L173.31 1010.56Z"/>
</mask>
<path fill-rule="evenodd" clip-rule="evenodd" d="M173.31 1010.56C179.516 1000.05 181.027 985.903 175.078 970.749C164.34 948.783 150.782 941.403 136.831 933.809C118.798 923.994 100.109 913.821 86.0043 871.331C71.5828 895.27 60.7099 942.451 81.7281 981.633C96.9258 1009.93 116.719 1023.73 131.643 1027.34C144.099 1030.36 155.634 1027.57 164.182 1020.94L104.019 952.861L173.31 1010.56Z" fill="url(#paint2_linear_959_370)"/>
<path d="M175.078 970.749L178.472 969.417L178.418 969.28L178.353 969.148L175.078 970.749ZM173.31 1010.56L170.977 1013.36L174.27 1016.1L176.449 1012.41L173.31 1010.56ZM136.831 933.809L135.088 937.011L136.831 933.809ZM86.0043 871.331L89.4643 870.182L86.9688 862.665L82.8815 869.45L86.0043 871.331ZM81.7281 981.633L78.5155 983.356L78.5163 983.358L81.7281 981.633ZM131.643 1027.34L130.785 1030.89H130.785L131.643 1027.34ZM164.182 1020.94L166.415 1023.82L169.488 1021.44L166.914 1018.53L164.182 1020.94ZM104.019 952.861L106.351 950.059L101.287 955.275L104.019 952.861ZM171.684 972.081C177.262 986.288 175.755 999.249 170.171 1008.7L176.449 1012.41C183.277 1000.85 184.792 985.518 178.472 969.417L171.684 972.081ZM135.088 937.011C148.89 944.524 161.585 951.448 171.803 972.35L178.353 969.148C167.095 946.117 152.674 938.282 138.574 930.607L135.088 937.011ZM82.5443 872.48C89.724 894.108 98.1635 907.783 107.311 917.343C116.437 926.881 126.087 932.112 135.088 937.011L138.574 930.607C129.542 925.691 120.831 920.927 112.579 912.302C104.347 903.699 96.3897 891.044 89.4643 870.182L82.5443 872.48ZM84.9408 979.909C64.7062 942.189 75.1518 896.41 89.1271 873.212L82.8815 869.45C68.0138 894.129 56.7135 942.713 78.5155 983.356L84.9408 979.909ZM132.5 1023.8C118.824 1020.49 99.7772 1007.53 84.9399 979.908L78.5163 983.358C94.0744 1012.33 114.615 1026.97 130.785 1030.89L132.5 1023.8ZM161.948 1018.06C154.299 1023.99 143.907 1026.56 132.5 1023.8L130.785 1030.89C144.29 1034.16 156.969 1031.15 166.415 1023.82L161.948 1018.06ZM166.914 1018.53L106.75 950.447L101.287 955.275L161.45 1023.36L166.914 1018.53ZM101.686 955.663L170.977 1013.36L175.643 1007.75L106.351 950.059L101.686 955.663Z" fill="#139D3D" fill-opacity="0.47" mask="url(#path-6-inside-2_959_370)"/>
<path d="M134.97 898.378C131.044 898.378 127.47 897.622 124.249 896.112C121.078 894.602 118.334 892.564 116.019 889.997C113.754 887.379 111.992 884.46 110.734 881.239C109.476 877.967 108.846 874.62 108.846 871.197C108.846 867.623 109.501 864.226 110.809 861.004C112.168 857.732 114.006 854.838 116.321 852.321C118.687 849.754 121.455 847.741 124.626 846.281C127.848 844.771 131.371 844.016 135.197 844.016C139.072 844.016 142.596 844.796 145.767 846.357C148.988 847.917 151.731 850.006 153.997 852.623C156.262 855.241 158.023 858.16 159.282 861.382C160.54 864.603 161.169 867.925 161.169 871.348C161.169 874.871 160.515 878.269 159.206 881.541C157.897 884.762 156.06 887.656 153.694 890.223C151.379 892.74 148.611 894.728 145.389 896.188C142.218 897.648 138.745 898.378 134.97 898.378ZM119.417 871.197C119.417 873.512 119.769 875.752 120.474 877.917C121.178 880.081 122.185 882.019 123.494 883.73C124.853 885.391 126.489 886.725 128.401 887.732C130.364 888.688 132.579 889.166 135.046 889.166C137.562 889.166 139.802 888.663 141.765 887.656C143.728 886.599 145.364 885.215 146.673 883.504C147.982 881.742 148.963 879.804 149.617 877.69C150.322 875.526 150.674 873.361 150.674 871.197C150.674 868.881 150.297 866.667 149.542 864.553C148.837 862.388 147.805 860.476 146.446 858.815C145.138 857.103 143.502 855.769 141.539 854.813C139.626 853.806 137.462 853.303 135.046 853.303C132.478 853.303 130.213 853.831 128.25 854.888C126.338 855.895 124.727 857.254 123.418 858.966C122.11 860.677 121.103 862.59 120.398 864.704C119.744 866.818 119.417 868.982 119.417 871.197ZM169.162 898V844.394H179.581V888.864H206.913V898H169.162ZM245.191 858.437C244.839 858.085 244.184 857.607 243.228 857.003C242.322 856.398 241.189 855.82 239.83 855.266C238.522 854.712 237.087 854.234 235.527 853.831C233.966 853.378 232.381 853.152 230.77 853.152C227.951 853.152 225.812 853.68 224.352 854.737C222.943 855.794 222.238 857.279 222.238 859.192C222.238 860.652 222.691 861.809 223.597 862.665C224.503 863.521 225.862 864.251 227.674 864.855C229.487 865.459 231.752 866.113 234.47 866.818C237.993 867.673 241.038 868.73 243.605 869.989C246.223 871.197 248.211 872.808 249.57 874.821C250.979 876.784 251.684 879.401 251.684 882.673C251.684 885.542 251.156 888.009 250.099 890.072C249.042 892.086 247.582 893.722 245.719 894.98C243.857 896.238 241.743 897.169 239.377 897.773C237.012 898.327 234.495 898.604 231.827 898.604C229.159 898.604 226.492 898.327 223.824 897.773C221.156 897.22 218.589 896.44 216.123 895.433C213.656 894.376 211.391 893.118 209.328 891.658L213.933 882.673C214.386 883.126 215.192 883.73 216.349 884.485C217.507 885.19 218.916 885.92 220.577 886.675C222.238 887.379 224.05 887.983 226.013 888.487C227.976 888.99 229.965 889.242 231.978 889.242C234.797 889.242 236.936 888.764 238.396 887.807C239.855 886.851 240.585 885.492 240.585 883.73C240.585 882.119 240.006 880.861 238.849 879.955C237.691 879.049 236.08 878.269 234.017 877.615C231.953 876.91 229.512 876.155 226.693 875.349C223.321 874.393 220.502 873.336 218.237 872.178C215.972 870.97 214.285 869.46 213.178 867.648C212.071 865.836 211.517 863.571 211.517 860.853C211.517 857.179 212.373 854.108 214.084 851.642C215.846 849.125 218.212 847.238 221.181 845.979C224.151 844.671 227.448 844.016 231.072 844.016C233.589 844.016 235.955 844.293 238.169 844.847C240.434 845.4 242.548 846.13 244.511 847.036C246.474 847.942 248.236 848.924 249.797 849.981L245.191 858.437Z" fill="url(#paint3_linear_959_370)"/>
<path d="M124.249 896.112L123.308 898.087L123.32 898.093L124.249 896.112ZM116.019 889.997L114.365 891.428L114.38 891.445L114.395 891.462L116.019 889.997ZM110.734 881.239L108.692 882.024L108.696 882.034L110.734 881.239ZM110.809 861.004L108.789 860.165L108.786 860.173L108.783 860.181L110.809 861.004ZM116.321 852.321L114.713 850.839L114.711 850.84L116.321 852.321ZM124.626 846.281L125.541 848.268L125.548 848.265L125.555 848.262L124.626 846.281ZM145.767 846.357L144.801 848.319L144.813 848.325L145.767 846.357ZM153.997 852.623L152.342 854.055L152.342 854.055L153.997 852.623ZM159.282 861.382L161.319 860.586L159.282 861.382ZM159.206 881.541L161.233 882.364L161.237 882.353L159.206 881.541ZM153.694 890.223L152.086 888.741L152.085 888.742L153.694 890.223ZM145.389 896.188L144.486 894.196L144.475 894.201L145.389 896.188ZM120.474 877.917L118.394 878.594H118.394L120.474 877.917ZM123.494 883.73L121.756 885.059L121.778 885.087L121.801 885.115L123.494 883.73ZM128.401 887.732L127.383 889.667L127.413 889.683L127.443 889.698L128.401 887.732ZM141.765 887.656L142.763 889.603L142.783 889.593L142.802 889.582L141.765 887.656ZM146.673 883.504L148.41 884.832L148.42 884.82L148.429 884.808L146.673 883.504ZM149.617 877.69L147.537 877.013L147.533 877.028L147.528 877.043L149.617 877.69ZM149.542 864.553L147.462 865.23L147.472 865.259L147.482 865.288L149.542 864.553ZM146.446 858.815L144.709 860.143L144.731 860.172L144.753 860.2L146.446 858.815ZM141.539 854.813L140.52 856.749L140.55 856.764L140.581 856.779L141.539 854.813ZM128.25 854.888L129.269 856.824L129.278 856.819L129.287 856.814L128.25 854.888ZM123.418 858.966L121.681 857.637L121.681 857.637L123.418 858.966ZM120.398 864.704L118.323 864.012L118.316 864.034L118.309 864.057L120.398 864.704ZM134.97 896.19C131.331 896.19 128.079 895.492 125.177 894.132L123.32 898.093C126.861 899.753 130.757 900.565 134.97 900.565V896.19ZM125.189 894.138C122.273 892.749 119.763 890.882 117.643 888.532L114.395 891.462C116.906 894.246 119.882 896.456 123.308 898.087L125.189 894.138ZM117.673 888.565C115.571 886.136 113.939 883.432 112.771 880.443L108.696 882.034C110.046 885.488 111.937 888.623 114.365 891.428L117.673 888.565ZM112.776 880.453C111.611 877.426 111.034 874.345 111.034 871.197H106.659C106.659 874.895 107.34 878.508 108.692 882.024L112.776 880.453ZM111.034 871.197C111.034 867.897 111.637 864.78 112.836 861.827L108.783 860.181C107.365 863.671 106.659 867.349 106.659 871.197H111.034ZM112.83 861.843C114.094 858.799 115.795 856.124 117.931 853.802L114.711 850.84C112.216 853.552 110.243 856.666 108.789 860.165L112.83 861.843ZM117.93 853.804C120.1 851.449 122.632 849.607 125.541 848.268L123.712 844.294C120.278 845.875 117.274 848.06 114.713 850.839L117.93 853.804ZM125.555 848.262C128.464 846.898 131.667 846.204 135.197 846.204V841.829C131.075 841.829 127.231 842.644 123.698 844.301L125.555 848.262ZM135.197 846.204C138.77 846.204 141.959 846.921 144.801 848.319L146.733 844.394C143.233 842.672 139.374 841.829 135.197 841.829V846.204ZM144.813 848.325C147.776 849.761 150.279 851.67 152.342 854.055L155.651 851.192C153.184 848.342 150.2 846.074 146.72 844.388L144.813 848.325ZM152.342 854.055C154.445 856.484 156.077 859.188 157.244 862.178L161.319 860.586C159.97 857.132 158.079 853.998 155.651 851.192L152.342 854.055ZM157.244 862.178C158.404 865.148 158.982 868.2 158.982 871.348H163.357C163.357 867.65 162.676 864.058 161.319 860.586L157.244 862.178ZM158.982 871.348C158.982 874.593 158.381 877.715 157.175 880.728L161.237 882.353C162.649 878.823 163.357 875.15 163.357 871.348H158.982ZM157.18 880.717C155.97 883.695 154.275 886.366 152.086 888.741L155.303 891.706C157.846 888.947 159.825 885.829 161.233 882.364L157.18 880.717ZM152.085 888.742C149.975 891.035 147.45 892.853 144.486 894.196L146.292 898.18C149.772 896.604 152.783 894.445 155.304 891.704L152.085 888.742ZM144.475 894.201C141.613 895.518 138.455 896.19 134.97 896.19V900.565C139.035 900.565 142.823 899.777 146.304 898.175L144.475 894.201ZM117.229 871.197C117.229 873.738 117.617 876.207 118.394 878.594L122.554 877.239C121.921 875.297 121.604 873.286 121.604 871.197H117.229ZM118.394 878.594C119.171 880.98 120.289 883.14 121.756 885.059L125.231 882.401C124.081 880.897 123.186 879.182 122.554 877.239L118.394 878.594ZM121.801 885.115C123.347 887.005 125.212 888.525 127.383 889.667L129.42 885.796C127.765 884.925 126.359 883.778 125.187 882.345L121.801 885.115ZM127.443 889.698C129.741 890.818 132.29 891.354 135.046 891.354V886.979C132.868 886.979 130.987 886.558 129.359 885.765L127.443 889.698ZM135.046 891.354C137.86 891.354 140.45 890.789 142.763 889.603L140.767 885.71C139.154 886.537 137.264 886.979 135.046 886.979V891.354ZM142.802 889.582C145.029 888.383 146.907 886.799 148.41 884.832L144.935 882.175C143.822 883.631 142.428 884.815 140.728 885.73L142.802 889.582ZM148.429 884.808C149.886 882.846 150.98 880.685 151.707 878.337L147.528 877.043C146.946 878.923 146.077 880.638 144.917 882.199L148.429 884.808ZM151.697 878.367C152.47 875.995 152.862 873.603 152.862 871.197H148.487C148.487 873.12 148.175 875.056 147.537 877.013L151.697 878.367ZM152.862 871.197C152.862 868.639 152.444 866.175 151.602 863.817L147.482 865.288C148.15 867.159 148.487 869.124 148.487 871.197H152.862ZM151.622 863.875C150.838 861.469 149.68 859.313 148.139 857.429L144.753 860.2C145.93 861.638 146.836 863.308 147.462 865.23L151.622 863.875ZM148.184 857.486C146.666 855.5 144.761 853.95 142.497 852.846L140.581 856.779C142.242 857.589 143.61 858.706 144.709 860.143L148.184 857.486ZM142.557 852.877C140.295 851.687 137.774 851.116 135.046 851.116V855.49C137.149 855.49 138.957 855.926 140.52 856.749L142.557 852.877ZM135.046 851.116C132.172 851.116 129.54 851.709 127.213 852.963L129.287 856.814C130.886 855.953 132.785 855.49 135.046 855.49V851.116ZM127.232 852.953C125.039 854.107 123.183 855.673 121.681 857.637L125.156 860.294C126.271 858.836 127.636 857.684 129.269 856.824L127.232 852.953ZM121.681 857.637C120.22 859.547 119.102 861.676 118.323 864.012L122.473 865.395C123.104 863.503 123.999 861.807 125.156 860.294L121.681 857.637ZM118.309 864.057C117.589 866.381 117.229 868.763 117.229 871.197H121.604C121.604 869.201 121.898 867.255 122.488 865.35L118.309 864.057ZM169.162 898H166.974V900.187H169.162V898ZM169.162 844.394V842.206H166.974V844.394H169.162ZM179.581 844.394H181.768V842.206H179.581V844.394ZM179.581 888.864H177.394V891.052H179.581V888.864ZM206.913 888.864H209.1V886.677H206.913V888.864ZM206.913 898V900.187H209.1V898H206.913ZM171.349 898V844.394H166.974V898H171.349ZM169.162 846.581H179.581V842.206H169.162V846.581ZM177.394 844.394V888.864H181.768V844.394H177.394ZM179.581 891.052H206.913V886.677H179.581V891.052ZM204.725 888.864V898H209.1V888.864H204.725ZM206.913 895.813H169.162V900.187H206.913V895.813ZM245.191 858.437L243.644 859.984L245.713 862.052L247.112 859.483L245.191 858.437ZM243.228 857.003L242.015 858.823L242.037 858.838L242.06 858.852L243.228 857.003ZM239.83 855.266L238.978 857.28L238.991 857.286L239.005 857.292L239.83 855.266ZM235.527 853.831L234.917 855.932L234.948 855.941L234.98 855.949L235.527 853.831ZM224.352 854.737L223.069 852.966L223.055 852.977L223.04 852.988L224.352 854.737ZM227.674 864.855L226.983 866.93L227.674 864.855ZM234.47 866.818L233.921 868.935L233.937 868.939L233.953 868.943L234.47 866.818ZM243.605 869.989L242.643 871.953L242.666 871.964L242.689 871.975L243.605 869.989ZM249.57 874.821L247.757 876.045L247.775 876.071L247.793 876.097L249.57 874.821ZM250.099 890.072L252.035 891.089L252.04 891.079L252.045 891.069L250.099 890.072ZM239.377 897.773L239.876 899.903L239.897 899.898L239.918 899.893L239.377 897.773ZM216.123 895.433L215.261 897.443L215.279 897.451L215.296 897.458L216.123 895.433ZM209.328 891.658L207.381 890.66L206.516 892.348L208.064 893.444L209.328 891.658ZM213.933 882.673L215.48 881.126L213.356 879.003L211.987 881.675L213.933 882.673ZM216.349 884.485L215.154 886.317L215.183 886.336L215.212 886.354L216.349 884.485ZM220.577 886.675L219.672 888.666L219.697 888.678L219.723 888.688L220.577 886.675ZM226.013 888.487L225.47 890.606L226.013 888.487ZM238.396 887.807L237.197 885.978L238.396 887.807ZM234.017 877.615L233.31 879.685L233.333 879.692L233.356 879.7L234.017 877.615ZM226.693 875.349L227.294 873.246L227.29 873.245L226.693 875.349ZM218.237 872.178L217.207 874.108L217.224 874.117L217.241 874.126L218.237 872.178ZM213.178 867.648L211.312 868.789L213.178 867.648ZM214.084 851.642L212.292 850.387L212.287 850.395L214.084 851.642ZM221.181 845.979L222.035 847.993L222.049 847.987L222.063 847.981L221.181 845.979ZM238.169 844.847L237.639 846.969L237.65 846.972L238.169 844.847ZM244.511 847.036L245.428 845.05L244.511 847.036ZM249.797 849.981L251.717 851.027L252.667 849.283L251.023 848.17L249.797 849.981ZM246.738 856.89C246.198 856.351 245.361 855.763 244.396 855.153L242.06 858.852C243.007 859.45 243.479 859.818 243.644 859.984L246.738 856.89ZM244.441 855.182C243.379 854.475 242.107 853.832 240.656 853.24L239.005 857.292C240.272 857.808 241.264 858.322 242.015 858.823L244.441 855.182ZM240.683 853.251C239.263 852.651 237.724 852.14 236.073 851.713L234.98 855.949C236.45 856.329 237.781 856.774 238.978 857.28L240.683 853.251ZM236.137 851.731C234.38 851.221 232.589 850.965 230.77 850.965V855.339C232.173 855.339 233.553 855.536 234.917 855.932L236.137 851.731ZM230.77 850.965C227.733 850.965 225.06 851.525 223.069 852.966L225.635 856.509C226.565 855.836 228.17 855.339 230.77 855.339V850.965ZM223.04 852.988C221.027 854.497 220.051 856.659 220.051 859.192H224.426C224.426 857.899 224.859 857.092 225.665 856.487L223.04 852.988ZM220.051 859.192C220.051 861.141 220.677 862.915 222.095 864.255L225.099 861.075C224.706 860.704 224.426 860.162 224.426 859.192H220.051ZM222.095 864.255C223.323 865.415 225.014 866.274 226.983 866.93L228.366 862.78C226.711 862.228 225.684 861.627 225.099 861.075L222.095 864.255ZM226.983 866.93C228.858 867.555 231.175 868.223 233.921 868.935L235.019 864.7C232.329 864.003 230.115 863.362 228.366 862.78L226.983 866.93ZM233.953 868.943C237.362 869.771 240.25 870.78 242.643 871.953L244.568 868.025C241.827 866.681 238.625 865.576 234.986 864.692L233.953 868.943ZM242.689 871.975C245.012 873.047 246.66 874.42 247.757 876.045L251.383 873.597C249.762 871.195 247.434 869.347 244.522 868.003L242.689 871.975ZM247.793 876.097C248.856 877.577 249.497 879.7 249.497 882.673H253.871C253.871 879.103 253.103 875.991 251.347 873.545L247.793 876.097ZM249.497 882.673C249.497 885.276 249.017 887.385 248.152 889.075L252.045 891.069C253.294 888.632 253.871 885.808 253.871 882.673H249.497ZM248.162 889.056C247.271 890.753 246.054 892.114 244.495 893.167L246.944 896.792C249.11 895.329 250.812 893.419 252.035 891.089L248.162 889.056ZM244.495 893.167C242.858 894.273 240.979 895.107 238.836 895.654L239.918 899.893C242.507 899.232 244.856 898.203 246.944 896.792L244.495 893.167ZM238.879 895.644C236.692 896.156 234.343 896.417 231.827 896.417V900.791C234.646 900.791 237.332 900.499 239.876 899.903L238.879 895.644ZM231.827 896.417C229.312 896.417 226.793 896.156 224.268 895.632L223.379 899.915C226.19 900.499 229.007 900.791 231.827 900.791V896.417ZM224.268 895.632C221.728 895.105 219.289 894.363 216.949 893.408L215.296 897.458C217.889 898.516 220.584 899.335 223.379 899.915L224.268 895.632ZM216.984 893.422C214.651 892.422 212.521 891.238 210.591 889.872L208.064 893.444C210.261 894.997 212.662 896.33 215.261 897.443L216.984 893.422ZM211.274 892.656L215.88 883.671L211.987 881.675L207.381 890.66L211.274 892.656ZM212.386 884.22C213.011 884.845 213.981 885.552 215.154 886.317L217.544 882.653C216.402 881.908 215.761 881.408 215.48 881.126L212.386 884.22ZM215.212 886.354C216.465 887.116 217.957 887.886 219.672 888.666L221.482 884.683C219.876 883.953 218.549 883.263 217.487 882.617L215.212 886.354ZM219.723 888.688C221.496 889.441 223.414 890.078 225.47 890.606L226.557 886.368C224.687 885.889 222.98 885.318 221.432 884.661L219.723 888.688ZM225.47 890.606C227.61 891.154 229.78 891.429 231.978 891.429V887.054C230.149 887.054 228.343 886.826 226.557 886.368L225.47 890.606ZM231.978 891.429C234.985 891.429 237.621 890.93 239.595 889.637L237.197 885.978C236.251 886.597 234.609 887.054 231.978 887.054V891.429ZM239.594 889.637C241.678 888.272 242.773 886.221 242.773 883.73H238.398C238.398 884.763 238.033 885.43 237.197 885.978L239.594 889.637ZM242.773 883.73C242.773 881.521 241.94 879.597 240.197 878.232L237.501 881.678C238.073 882.126 238.398 882.718 238.398 883.73H242.773ZM240.197 878.232C238.761 877.109 236.884 876.229 234.678 875.529L233.356 879.7C235.277 880.309 236.621 880.989 237.501 881.678L240.197 878.232ZM234.723 875.544C232.615 874.825 230.137 874.059 227.294 873.246L226.092 877.453C228.886 878.251 231.291 878.995 233.31 879.685L234.723 875.544ZM227.29 873.245C224.007 872.314 221.332 871.304 219.232 870.231L217.241 874.126C219.671 875.368 222.634 876.472 226.096 877.454L227.29 873.245ZM219.266 870.248C217.274 869.186 215.91 867.923 215.045 866.508L211.312 868.789C212.661 870.997 214.67 872.755 217.207 874.108L219.266 870.248ZM215.045 866.508C214.198 865.123 213.705 863.28 213.705 860.853H209.33C209.33 863.863 209.943 866.55 211.312 868.789L215.045 866.508ZM213.705 860.853C213.705 857.523 214.476 854.914 215.881 852.889L212.287 850.395C210.269 853.303 209.33 856.834 209.33 860.853H213.705ZM215.876 852.896C217.39 850.733 219.423 849.1 222.035 847.993L220.328 843.965C217 845.375 214.301 847.517 212.292 850.387L215.876 852.896ZM222.063 847.981C224.724 846.808 227.716 846.204 231.072 846.204V841.829C227.18 841.829 223.578 842.533 220.299 843.978L222.063 847.981ZM231.072 846.204C233.428 846.204 235.614 846.463 237.639 846.969L238.7 842.725C236.295 842.123 233.75 841.829 231.072 841.829V846.204ZM237.65 846.972C239.789 847.494 241.769 848.18 243.595 849.022L245.428 845.05C243.328 844.081 241.08 843.306 238.689 842.722L237.65 846.972ZM243.595 849.022C245.465 849.886 247.121 850.81 248.57 851.792L251.023 848.17C249.351 847.037 247.484 845.999 245.428 845.05L243.595 849.022ZM247.876 848.935L243.27 857.391L247.112 859.483L251.717 851.027L247.876 848.935Z" fill="#139D3D" fill-opacity="0.12"/>
<path d="M586.96 848.24L586.96 844.88L604 838.616L604 842.024L599.752 843.608L599.752 849.56L604 851.12L604 854.528L586.96 848.24ZM597.424 844.208L590.392 846.56L597.424 849.008L597.424 844.208ZM604 809.758L604 812.974L596.944 812.974C595.952 812.974 595.224 813.15 594.76 813.502C594.28 813.838 594.04 814.31 594.04 814.918C594.04 815.542 594.288 816.142 594.784 816.718C595.264 817.278 595.896 817.678 596.68 817.918L604 817.918L604 821.134L596.944 821.134C595.936 821.134 595.2 821.31 594.736 821.662C594.272 821.998 594.04 822.47 594.04 823.078C594.04 823.702 594.28 824.302 594.76 824.878C595.24 825.438 595.872 825.838 596.656 826.078L604 826.078L604 829.294L591.424 829.294L591.424 826.39L593.752 826.39C592.936 825.91 592.312 825.27 591.88 824.47C591.432 823.67 591.208 822.75 591.208 821.71C591.208 820.67 591.464 819.862 591.976 819.286C592.488 818.694 593.12 818.318 593.872 818.158C593.008 817.646 592.352 816.998 591.904 816.214C591.44 815.414 591.208 814.518 591.208 813.526C591.208 812.742 591.352 812.11 591.64 811.63C591.912 811.134 592.288 810.75 592.768 810.478C593.232 810.206 593.76 810.022 594.352 809.926C594.944 809.814 595.544 809.758 596.152 809.758L604 809.758ZM604.24 800.126C604.24 801.134 604.072 802.046 603.736 802.862C603.384 803.678 602.912 804.374 602.32 804.95C601.712 805.526 601.024 805.974 600.256 806.294C599.472 806.598 598.648 806.75 597.784 806.75C596.584 806.75 595.488 806.486 594.496 805.958C593.504 805.414 592.712 804.646 592.12 803.654C591.512 802.646 591.208 801.462 591.208 800.102C591.208 798.726 591.512 797.55 592.12 796.574C592.712 795.598 593.504 794.854 594.496 794.342C595.472 793.814 596.528 793.55 597.664 793.55C597.856 793.55 598.056 793.558 598.264 793.574C598.456 793.59 598.616 793.606 598.744 793.622L598.744 803.342C599.384 803.278 599.944 803.094 600.424 802.79C600.904 802.47 601.272 802.07 601.528 801.59C601.768 801.094 601.888 800.566 601.888 800.006C601.888 799.366 601.736 798.766 601.432 798.206C601.112 797.63 600.696 797.238 600.184 797.03L600.952 794.27C601.592 794.574 602.16 795.014 602.656 795.59C603.152 796.15 603.544 796.814 603.832 797.582C604.104 798.35 604.24 799.198 604.24 800.126ZM596.704 803.414L596.704 796.838C596.064 796.902 595.512 797.086 595.048 797.39C594.568 797.678 594.2 798.062 593.944 798.542C593.672 799.022 593.536 799.558 593.536 800.15C593.536 800.726 593.672 801.254 593.944 801.734C594.2 802.198 594.568 802.582 595.048 802.886C595.512 803.174 596.064 803.35 596.704 803.414ZM604 778.903L604 782.119L596.944 782.119C595.936 782.119 595.2 782.295 594.736 782.647C594.272 782.999 594.04 783.487 594.04 784.111C594.04 784.543 594.152 784.983 594.376 785.431C594.6 785.863 594.912 786.255 595.312 786.607C595.696 786.959 596.144 787.215 596.656 787.375L604 787.375L604 790.591L591.424 790.591L591.424 787.687L593.752 787.687C593.208 787.367 592.752 786.959 592.384 786.463C592 785.967 591.712 785.399 591.52 784.759C591.312 784.103 591.208 783.415 591.208 782.695C591.208 781.911 591.352 781.271 591.64 780.775C591.912 780.263 592.288 779.879 592.768 779.623C593.232 779.351 593.76 779.167 594.352 779.071C594.944 778.959 595.544 778.903 596.152 778.903L604 778.903ZM603.352 767.641C603.464 767.913 603.592 768.241 603.736 768.625C603.88 769.009 603.992 769.425 604.072 769.873C604.168 770.305 604.216 770.745 604.216 771.193C604.216 771.785 604.112 772.329 603.904 772.825C603.696 773.321 603.368 773.721 602.92 774.025C602.456 774.313 601.856 774.457 601.12 774.457L593.896 774.457L593.896 776.113L591.424 776.113L591.424 774.457L587.344 774.457L587.344 771.241L591.424 771.241L591.424 768.601L593.896 768.601L593.896 771.241L600.04 771.241C600.472 771.225 600.784 771.105 600.976 770.881C601.168 770.657 601.264 770.377 601.264 770.041C601.264 769.705 601.208 769.377 601.096 769.057C600.984 768.737 600.888 768.481 600.808 768.289L603.352 767.641ZM604.24 759.298C604.24 760.322 604.072 761.242 603.736 762.058C603.384 762.874 602.904 763.57 602.296 764.146C601.688 764.706 600.992 765.138 600.208 765.442C599.424 765.746 598.6 765.898 597.736 765.898C596.856 765.898 596.024 765.746 595.24 765.442C594.456 765.138 593.76 764.706 593.152 764.146C592.544 763.57 592.072 762.874 591.736 762.058C591.384 761.242 591.208 760.322 591.208 759.298C591.208 758.274 591.384 757.362 591.736 756.562C592.072 755.746 592.544 755.05 593.152 754.474C593.76 753.898 594.456 753.466 595.24 753.178C596.024 752.874 596.856 752.722 597.736 752.722C598.6 752.722 599.424 752.874 600.208 753.178C600.992 753.466 601.688 753.898 602.296 754.474C602.904 755.034 603.384 755.722 603.736 756.538C604.072 757.354 604.24 758.274 604.24 759.298ZM597.736 762.586C598.472 762.586 599.128 762.442 599.704 762.154C600.264 761.866 600.704 761.474 601.024 760.978C601.344 760.482 601.504 759.922 601.504 759.298C601.504 758.69 601.344 758.138 601.024 757.642C600.688 757.146 600.24 756.754 599.68 756.466C599.104 756.162 598.448 756.01 597.712 756.01C596.992 756.01 596.344 756.162 595.768 756.466C595.192 756.754 594.744 757.146 594.424 757.642C594.104 758.138 593.944 758.69 593.944 759.298C593.944 759.922 594.112 760.482 594.448 760.978C594.768 761.474 595.216 761.866 595.792 762.154C596.352 762.442 597 762.586 597.736 762.586ZM594.208 742.064C594.208 743.04 594.4 743.912 594.784 744.68C595.152 745.448 595.688 746 596.392 746.336L604 746.336L604 749.552L591.424 749.552L591.424 746.6L594.112 746.6C593.248 746.152 592.568 745.584 592.072 744.896C591.576 744.208 591.304 743.48 591.256 742.712C591.256 742.536 591.256 742.4 591.256 742.304C591.256 742.208 591.264 742.128 591.28 742.064L594.208 742.064ZM604 739.27L591.424 739.27L591.424 736.054L604 736.054L604 739.27ZM589.672 739.27L586.48 739.27L586.48 736.054L589.672 736.054L589.672 739.27ZM604 720.465L604 723.681L596.944 723.681C595.936 723.681 595.2 723.857 594.736 724.209C594.272 724.561 594.04 725.049 594.04 725.673C594.04 726.105 594.152 726.545 594.376 726.993C594.6 727.425 594.912 727.817 595.312 728.169C595.696 728.521 596.144 728.777 596.656 728.937L604 728.937L604 732.153L591.424 732.153L591.424 729.249L593.752 729.249C593.208 728.929 592.752 728.521 592.384 728.025C592 727.529 591.712 726.961 591.52 726.321C591.312 725.665 591.208 724.977 591.208 724.257C591.208 723.473 591.352 722.833 591.64 722.337C591.912 721.825 592.288 721.441 592.768 721.185C593.232 720.913 593.76 720.729 594.352 720.633C594.944 720.521 595.544 720.465 596.152 720.465L604 720.465ZM604.072 711.749C604.072 712.581 603.912 713.349 603.592 714.053C603.256 714.741 602.792 715.341 602.2 715.853C601.608 716.349 600.928 716.733 600.16 717.005C599.392 717.277 598.576 717.413 597.712 717.413C596.8 717.413 595.952 717.269 595.168 716.981C594.384 716.693 593.696 716.293 593.104 715.781C592.496 715.253 592.032 714.637 591.712 713.933C591.376 713.213 591.208 712.421 591.208 711.557C591.208 710.581 591.432 709.725 591.88 708.989C592.312 708.253 592.896 707.645 593.632 707.165L591.424 707.165L591.424 704.357L603.4 704.357C604.648 704.357 605.712 704.661 606.592 705.269C607.488 705.861 608.168 706.685 608.632 707.741C609.112 708.797 609.352 709.997 609.352 711.341C609.352 712.701 609.12 713.853 608.656 714.797C608.208 715.741 607.568 716.549 606.736 717.221L605.032 715.469C605.624 714.989 606.088 714.389 606.424 713.669C606.76 712.933 606.928 712.157 606.928 711.341C606.928 710.653 606.8 710.029 606.544 709.469C606.304 708.893 605.92 708.437 605.392 708.101C604.88 707.749 604.216 707.573 603.4 707.573L601.816 707.573C602.536 707.989 603.096 708.581 603.496 709.349C603.88 710.101 604.072 710.901 604.072 711.749ZM601.504 710.669C601.504 710.317 601.448 709.981 601.336 709.661C601.224 709.341 601.072 709.045 600.88 708.773C600.688 708.501 600.464 708.261 600.208 708.053C599.936 707.845 599.664 707.685 599.392 707.573L596.392 707.573C595.896 707.765 595.464 708.037 595.096 708.389C594.728 708.725 594.448 709.109 594.256 709.541C594.048 709.957 593.944 710.397 593.944 710.861C593.944 711.357 594.048 711.805 594.256 712.205C594.464 712.605 594.76 712.949 595.144 713.237C595.512 713.525 595.928 713.749 596.392 713.909C596.84 714.053 597.312 714.125 597.808 714.125C598.32 714.125 598.8 714.037 599.248 713.861C599.696 713.685 600.088 713.445 600.424 713.141C600.76 712.821 601.024 712.453 601.216 712.037C601.408 711.605 601.504 711.149 601.504 710.669ZM604 682.292L595.504 690.308C594.784 690.98 594.168 691.524 593.656 691.94C593.128 692.34 592.648 692.628 592.216 692.804C591.784 692.98 591.32 693.068 590.824 693.068C590.008 693.068 589.296 692.868 588.688 692.468C588.064 692.052 587.584 691.492 587.248 690.788C586.912 690.068 586.744 689.268 586.744 688.388C586.744 687.588 586.888 686.852 587.176 686.18C587.448 685.492 587.864 684.932 588.424 684.5C588.984 684.068 589.68 683.852 590.512 683.852C591.264 683.852 591.944 684.044 592.552 684.428C593.16 684.796 593.72 685.292 594.232 685.916C594.744 686.54 595.24 687.244 595.72 688.028C596.088 688.604 596.448 689.132 596.8 689.612C597.152 690.076 597.528 690.444 597.928 690.716C598.312 690.972 598.736 691.1 599.2 691.1C599.648 691.1 600.064 690.972 600.448 690.716C600.832 690.46 601.144 690.108 601.384 689.66C601.608 689.196 601.72 688.684 601.72 688.124C601.72 687.436 601.552 686.772 601.216 686.132C600.88 685.476 600.408 684.892 599.8 684.38C599.176 683.868 598.432 683.468 597.568 683.18C596.704 682.876 595.736 682.724 594.664 682.724L594.664 680.108C596.184 680.108 597.536 680.34 598.72 680.804C599.888 681.268 600.888 681.892 601.72 682.676C602.536 683.46 603.16 684.348 603.592 685.34C604.024 686.332 604.24 687.364 604.24 688.436C604.24 689.604 604.008 690.62 603.544 691.484C603.064 692.348 602.44 693.02 601.672 693.5C600.904 693.964 600.072 694.196 599.176 694.196C598.28 694.196 597.496 693.988 596.824 693.572C596.152 693.156 595.56 692.628 595.048 691.988C594.52 691.348 594.056 690.708 593.656 690.068C593.208 689.364 592.832 688.772 592.528 688.292C592.208 687.812 591.896 687.444 591.592 687.188C591.272 686.932 590.928 686.804 590.56 686.804C590.128 686.804 589.784 686.956 589.528 687.26C589.256 687.548 589.12 687.924 589.12 688.388C589.12 688.74 589.192 689.052 589.336 689.324C589.48 689.58 589.672 689.78 589.912 689.924C590.152 690.068 590.424 690.14 590.728 690.14C590.952 690.14 591.176 690.076 591.4 689.948C591.624 689.804 591.92 689.564 592.288 689.228C592.64 688.876 593.144 688.396 593.8 687.788L604 678.068L604 682.292ZM603.352 661.305C603.464 661.577 603.592 661.905 603.736 662.289C603.88 662.673 603.992 663.089 604.072 663.537C604.168 663.969 604.216 664.409 604.216 664.857C604.216 665.449 604.112 665.993 603.904 666.489C603.696 666.985 603.368 667.385 602.92 667.689C602.456 667.977 601.856 668.121 601.12 668.121L593.896 668.121L593.896 669.777L591.424 669.777L591.424 668.121L587.344 668.121L587.344 664.905L591.424 664.905L591.424 662.265L593.896 662.265L593.896 664.905L600.04 664.905C600.472 664.889 600.784 664.769 600.976 664.545C601.168 664.321 601.264 664.041 601.264 663.705C601.264 663.369 601.208 663.041 601.096 662.721C600.984 662.401 600.888 662.145 600.808 661.953L603.352 661.305ZM594.208 651.142C594.208 652.118 594.4 652.99 594.784 653.758C595.152 654.526 595.688 655.078 596.392 655.414L604 655.414L604 658.63L591.424 658.63L591.424 655.678L594.112 655.678C593.248 655.23 592.568 654.662 592.072 653.974C591.576 653.286 591.304 652.558 591.256 651.79C591.256 651.614 591.256 651.478 591.256 651.382C591.256 651.286 591.264 651.206 591.28 651.142L594.208 651.142ZM600.28 649.283C599.464 649.283 598.752 649.059 598.144 648.611C597.52 648.147 597.04 647.507 596.704 646.691C596.368 645.875 596.2 644.939 596.2 643.883C596.2 643.355 596.24 642.819 596.32 642.275C596.4 641.731 596.528 641.259 596.704 640.859L596.032 640.859C595.232 640.859 594.616 641.099 594.184 641.579C593.752 642.043 593.536 642.739 593.536 643.667C593.536 644.355 593.656 645.011 593.896 645.635C594.136 646.259 594.488 646.915 594.952 647.603L592.84 648.635C592.296 647.803 591.888 646.955 591.616 646.091C591.344 645.211 591.208 644.291 591.208 643.331C591.208 641.539 591.656 640.147 592.552 639.155C593.448 638.147 594.728 637.643 596.392 637.643L600.4 637.643C600.736 637.643 600.976 637.587 601.12 637.475C601.264 637.347 601.352 637.147 601.384 636.875L604 636.875C604.048 637.163 604.088 637.427 604.12 637.667C604.152 637.891 604.168 638.083 604.168 638.243C604.168 638.883 604.024 639.371 603.736 639.707C603.448 640.027 603.096 640.227 602.68 640.307L602.032 640.379C602.736 640.923 603.28 641.603 603.664 642.419C604.048 643.235 604.24 644.067 604.24 644.915C604.24 645.747 604.072 646.499 603.736 647.171C603.384 647.827 602.912 648.347 602.32 648.731C601.712 649.099 601.032 649.283 600.28 649.283ZM600.928 641.459C600.736 641.283 600.544 641.139 600.352 641.027C600.16 640.915 599.984 640.859 599.824 640.859L598.552 640.859C598.392 641.243 598.272 641.659 598.192 642.107C598.096 642.555 598.048 642.979 598.048 643.379C598.048 644.211 598.232 644.899 598.6 645.443C598.952 645.971 599.424 646.235 600.016 646.235C600.336 646.235 600.64 646.147 600.928 645.971C601.216 645.795 601.448 645.539 601.624 645.203C601.8 644.867 601.888 644.467 601.888 644.003C601.888 643.523 601.8 643.051 601.624 642.587C601.432 642.123 601.2 641.747 600.928 641.459ZM604 633.638L591.424 633.638L591.424 630.422L604 630.422L604 633.638ZM589.672 633.638L586.48 633.638L586.48 630.422L589.672 630.422L589.672 633.638ZM604 614.832L604 618.048L596.944 618.048C595.936 618.048 595.2 618.224 594.736 618.576C594.272 618.928 594.04 619.416 594.04 620.04C594.04 620.472 594.152 620.912 594.376 621.36C594.6 621.792 594.912 622.184 595.312 622.536C595.696 622.888 596.144 623.144 596.656 623.304L604 623.304L604 626.52L591.424 626.52L591.424 623.616L593.752 623.616C593.208 623.296 592.752 622.888 592.384 622.392C592 621.896 591.712 621.328 591.52 620.688C591.312 620.032 591.208 619.344 591.208 618.624C591.208 617.84 591.352 617.2 591.64 616.704C591.912 616.192 592.288 615.808 592.768 615.552C593.232 615.28 593.76 615.096 594.352 615C594.944 614.888 595.544 614.832 596.152 614.832L604 614.832ZM604 611.036L591.424 611.036L591.424 607.82L604 607.82L604 611.036ZM589.672 611.036L586.48 611.036L586.48 607.82L589.672 607.82L589.672 611.036ZM604 592.231L604 595.447L596.944 595.447C595.936 595.447 595.2 595.623 594.736 595.975C594.272 596.327 594.04 596.815 594.04 597.439C594.04 597.871 594.152 598.311 594.376 598.759C594.6 599.191 594.912 599.583 595.312 599.935C595.696 600.287 596.144 600.543 596.656 600.703L604 600.703L604 603.919L591.424 603.919L591.424 601.015L593.752 601.015C593.208 600.695 592.752 600.287 592.384 599.791C592 599.295 591.712 598.727 591.52 598.087C591.312 597.431 591.208 596.743 591.208 596.023C591.208 595.239 591.352 594.599 591.64 594.103C591.912 593.591 592.288 593.207 592.768 592.951C593.232 592.679 593.76 592.495 594.352 592.399C594.944 592.287 595.544 592.231 596.152 592.231L604 592.231ZM604.072 583.514C604.072 584.346 603.912 585.114 603.592 585.818C603.256 586.506 602.792 587.106 602.2 587.618C601.608 588.114 600.928 588.498 600.16 588.77C599.392 589.042 598.576 589.178 597.712 589.178C596.8 589.178 595.952 589.034 595.168 588.746C594.384 588.458 593.696 588.058 593.104 587.546C592.496 587.018 592.032 586.402 591.712 585.698C591.376 584.978 591.208 584.186 591.208 583.322C591.208 582.346 591.432 581.49 591.88 580.754C592.312 580.018 592.896 579.41 593.632 578.93L591.424 578.93L591.424 576.122L603.4 576.122C604.648 576.122 605.712 576.426 606.592 577.034C607.488 577.626 608.168 578.45 608.632 579.506C609.112 580.562 609.352 581.762 609.352 583.106C609.352 584.466 609.12 585.618 608.656 586.562C608.208 587.506 607.568 588.314 606.736 588.986L605.032 587.234C605.624 586.754 606.088 586.154 606.424 585.434C606.76 584.698 606.928 583.922 606.928 583.106C606.928 582.418 606.8 581.794 606.544 581.234C606.304 580.658 605.92 580.202 605.392 579.866C604.88 579.514 604.216 579.338 603.4 579.338L601.816 579.338C602.536 579.754 603.096 580.346 603.496 581.114C603.88 581.866 604.072 582.666 604.072 583.514ZM601.504 582.434C601.504 582.082 601.448 581.746 601.336 581.426C601.224 581.106 601.072 580.81 600.88 580.538C600.688 580.266 600.464 580.026 600.208 579.818C599.936 579.61 599.664 579.45 599.392 579.338L596.392 579.338C595.896 579.53 595.464 579.802 595.096 580.154C594.728 580.49 594.448 580.874 594.256 581.306C594.048 581.722 593.944 582.162 593.944 582.626C593.944 583.122 594.048 583.57 594.256 583.97C594.464 584.37 594.76 584.714 595.144 585.002C595.512 585.29 595.928 585.514 596.392 585.674C596.84 585.818 597.312 585.89 597.808 585.89C598.32 585.89 598.8 585.802 599.248 585.626C599.696 585.45 600.088 585.21 600.424 584.906C600.76 584.586 601.024 584.218 601.216 583.802C601.408 583.37 601.504 582.914 601.504 582.434ZM604.24 557.922C604.24 558.898 604.024 559.762 603.592 560.514C603.144 561.25 602.544 561.826 601.792 562.242L609.112 562.242L609.112 565.458L591.424 565.458L591.424 562.65L593.584 562.65C592.848 562.17 592.272 561.562 591.856 560.826C591.424 560.09 591.208 559.25 591.208 558.306C591.208 557.458 591.376 556.682 591.712 555.978C592.048 555.258 592.52 554.634 593.128 554.106C593.72 553.578 594.408 553.17 595.192 552.882C595.96 552.578 596.792 552.426 597.688 552.426C598.904 552.426 600.008 552.666 601 553.146C601.992 553.61 602.784 554.258 603.376 555.09C603.952 555.906 604.24 556.85 604.24 557.922ZM601.504 559.002C601.504 558.506 601.4 558.058 601.192 557.658C600.984 557.258 600.704 556.914 600.352 556.626C599.984 556.322 599.576 556.098 599.128 555.954C598.664 555.794 598.184 555.714 597.688 555.714C597.16 555.714 596.672 555.802 596.224 555.978C595.776 556.138 595.384 556.378 595.048 556.698C594.696 557.018 594.424 557.394 594.232 557.826C594.04 558.242 593.944 558.698 593.944 559.194C593.944 559.498 594 559.81 594.112 560.13C594.208 560.434 594.352 560.73 594.544 561.018C594.736 561.306 594.96 561.562 595.216 561.786C595.472 561.994 595.752 562.146 596.056 562.242L599.008 562.242C599.472 562.05 599.896 561.794 600.28 561.474C600.664 561.138 600.968 560.754 601.192 560.322C601.4 559.89 601.504 559.45 601.504 559.002ZM594.208 541.759C594.208 542.735 594.4 543.607 594.784 544.375C595.152 545.143 595.688 545.695 596.392 546.031L604 546.031L604 549.247L591.424 549.247L591.424 546.295L594.112 546.295C593.248 545.847 592.568 545.279 592.072 544.591C591.576 543.903 591.304 543.175 591.256 542.407C591.256 542.231 591.256 542.095 591.256 541.999C591.256 541.903 591.264 541.823 591.28 541.759L594.208 541.759ZM604.24 533.322C604.24 534.346 604.072 535.266 603.736 536.082C603.384 536.898 602.904 537.594 602.296 538.17C601.688 538.73 600.992 539.162 600.208 539.466C599.424 539.77 598.6 539.922 597.736 539.922C596.856 539.922 596.024 539.77 595.24 539.466C594.456 539.162 593.76 538.73 593.152 538.17C592.544 537.594 592.072 536.898 591.736 536.082C591.384 535.266 591.208 534.346 591.208 533.322C591.208 532.298 591.384 531.386 591.736 530.586C592.072 529.77 592.544 529.074 593.152 528.498C593.76 527.922 594.456 527.49 595.24 527.202C596.024 526.898 596.856 526.746 597.736 526.746C598.6 526.746 599.424 526.898 600.208 527.202C600.992 527.49 601.688 527.922 602.296 528.498C602.904 529.058 603.384 529.746 603.736 530.562C604.072 531.378 604.24 532.298 604.24 533.322ZM597.736 536.61C598.472 536.61 599.128 536.466 599.704 536.178C600.264 535.89 600.704 535.498 601.024 535.002C601.344 534.506 601.504 533.946 601.504 533.322C601.504 532.714 601.344 532.162 601.024 531.666C600.688 531.17 600.24 530.778 599.68 530.49C599.104 530.186 598.448 530.034 597.712 530.034C596.992 530.034 596.344 530.186 595.768 530.49C595.192 530.778 594.744 531.17 594.424 531.666C594.104 532.162 593.944 532.714 593.944 533.322C593.944 533.946 594.112 534.506 594.448 535.002C594.768 535.498 595.216 535.89 595.792 536.178C596.352 536.466 597 536.61 597.736 536.61ZM604.072 518.655C604.072 519.487 603.912 520.255 603.592 520.959C603.256 521.647 602.792 522.247 602.2 522.759C601.608 523.255 600.928 523.639 600.16 523.911C599.392 524.183 598.576 524.319 597.712 524.319C596.8 524.319 595.952 524.175 595.168 523.887C594.384 523.599 593.696 523.199 593.104 522.687C592.496 522.159 592.032 521.543 591.712 520.839C591.376 520.119 591.208 519.327 591.208 518.463C591.208 517.487 591.432 516.631 591.88 515.895C592.312 515.159 592.896 514.551 593.632 514.071L591.424 514.071L591.424 511.263L603.4 511.263C604.648 511.263 605.712 511.567 606.592 512.175C607.488 512.767 608.168 513.591 608.632 514.647C609.112 515.703 609.352 516.903 609.352 518.247C609.352 519.607 609.12 520.759 608.656 521.703C608.208 522.647 607.568 523.455 606.736 524.127L605.032 522.375C605.624 521.895 606.088 521.295 606.424 520.575C606.76 519.839 606.928 519.063 606.928 518.247C606.928 517.559 606.8 516.935 606.544 516.375C606.304 515.799 605.92 515.343 605.392 515.007C604.88 514.655 604.216 514.479 603.4 514.479L601.816 514.479C602.536 514.895 603.096 515.487 603.496 516.255C603.88 517.007 604.072 517.807 604.072 518.655ZM601.504 517.575C601.504 517.223 601.448 516.887 601.336 516.567C601.224 516.247 601.072 515.951 600.88 515.679C600.688 515.407 600.464 515.167 600.208 514.959C599.936 514.751 599.664 514.591 599.392 514.479L596.392 514.479C595.896 514.671 595.464 514.943 595.096 515.295C594.728 515.631 594.448 516.015 594.256 516.447C594.048 516.863 593.944 517.303 593.944 517.767C593.944 518.263 594.048 518.711 594.256 519.111C594.464 519.511 594.76 519.855 595.144 520.143C595.512 520.431 595.928 520.655 596.392 520.815C596.84 520.959 597.312 521.031 597.808 521.031C598.32 521.031 598.8 520.943 599.248 520.767C599.696 520.591 600.088 520.351 600.424 520.047C600.76 519.727 601.024 519.359 601.216 518.943C601.408 518.511 601.504 518.055 601.504 517.575ZM594.208 499.876C594.208 500.852 594.4 501.724 594.784 502.492C595.152 503.26 595.688 503.812 596.392 504.148L604 504.148L604 507.364L591.424 507.364L591.424 504.412L594.112 504.412C593.248 503.964 592.568 503.396 592.072 502.708C591.576 502.02 591.304 501.292 591.256 500.524C591.256 500.348 591.256 500.212 591.256 500.116C591.256 500.02 591.264 499.94 591.28 499.876L594.208 499.876ZM600.28 498.017C599.464 498.017 598.752 497.793 598.144 497.345C597.52 496.881 597.04 496.241 596.704 495.425C596.368 494.609 596.2 493.673 596.2 492.617C596.2 492.089 596.24 491.553 596.32 491.009C596.4 490.465 596.528 489.993 596.704 489.593L596.032 489.593C595.232 489.593 594.616 489.833 594.184 490.313C593.752 490.777 593.536 491.473 593.536 492.401C593.536 493.089 593.656 493.745 593.896 494.369C594.136 494.993 594.488 495.649 594.952 496.337L592.84 497.369C592.296 496.537 591.888 495.689 591.616 494.825C591.344 493.945 591.208 493.025 591.208 492.065C591.208 490.273 591.656 488.881 592.552 487.889C593.448 486.881 594.728 486.377 596.392 486.377L600.4 486.377C600.736 486.377 600.976 486.321 601.12 486.209C601.264 486.081 601.352 485.881 601.384 485.609L604 485.609C604.048 485.897 604.088 486.161 604.12 486.401C604.152 486.625 604.168 486.817 604.168 486.977C604.168 487.617 604.024 488.105 603.736 488.441C603.448 488.761 603.096 488.961 602.68 489.041L602.032 489.113C602.736 489.657 603.28 490.337 603.664 491.153C604.048 491.969 604.24 492.801 604.24 493.649C604.24 494.481 604.072 495.233 603.736 495.905C603.384 496.561 602.912 497.081 602.32 497.465C601.712 497.833 601.032 498.017 600.28 498.017ZM600.928 490.193C600.736 490.017 600.544 489.873 600.352 489.761C600.16 489.649 599.984 489.593 599.824 489.593L598.552 489.593C598.392 489.977 598.272 490.393 598.192 490.841C598.096 491.289 598.048 491.713 598.048 492.113C598.048 492.945 598.232 493.633 598.6 494.177C598.952 494.705 599.424 494.969 600.016 494.969C600.336 494.969 600.64 494.881 600.928 494.705C601.216 494.529 601.448 494.273 601.624 493.937C601.8 493.601 601.888 493.201 601.888 492.737C601.888 492.257 601.8 491.785 601.624 491.321C601.432 490.857 601.2 490.481 600.928 490.193ZM604 462.836L604 466.052L596.944 466.052C595.952 466.052 595.224 466.228 594.76 466.58C594.28 466.916 594.04 467.388 594.04 467.996C594.04 468.62 594.288 469.22 594.784 469.796C595.264 470.356 595.896 470.756 596.68 470.996L604 470.996L604 474.212L596.944 474.212C595.936 474.212 595.2 474.388 594.736 474.74C594.272 475.076 594.04 475.548 594.04 476.156C594.04 476.78 594.28 477.38 594.76 477.956C595.24 478.516 595.872 478.916 596.656 479.156L604 479.156L604 482.372L591.424 482.372L591.424 479.468L593.752 479.468C592.936 478.988 592.312 478.348 591.88 477.548C591.432 476.748 591.208 475.828 591.208 474.788C591.208 473.748 591.464 472.94 591.976 472.364C592.488 471.772 593.12 471.396 593.872 471.236C593.008 470.724 592.352 470.076 591.904 469.292C591.44 468.492 591.208 467.596 591.208 466.604C591.208 465.82 591.352 465.188 591.64 464.708C591.912 464.212 592.288 463.828 592.768 463.556C593.232 463.284 593.76 463.1 594.352 463.004C594.944 462.892 595.544 462.836 596.152 462.836L604 462.836ZM604 451.502L594.544 451.502L594.544 453.158L592.096 453.158L592.096 451.502L591.328 451.502C590.288 451.502 589.392 451.334 588.64 450.998C587.872 450.646 587.28 450.158 586.864 449.534C586.448 448.894 586.24 448.15 586.24 447.302C586.24 446.79 586.304 446.278 586.432 445.766C586.56 445.238 586.744 444.718 586.984 444.206L589.408 444.854C589.28 445.094 589.176 445.374 589.096 445.694C589 446.014 588.952 446.318 588.952 446.606C588.952 447.15 589.144 447.566 589.528 447.854C589.912 448.142 590.472 448.286 591.208 448.286L592.096 448.286L592.096 445.214L594.544 445.214L594.544 448.286L604 448.286L604 451.502ZM604.24 436.744C604.24 437.768 604.072 438.688 603.736 439.504C603.384 440.32 602.904 441.016 602.296 441.592C601.688 442.152 600.992 442.584 600.208 442.888C599.424 443.192 598.6 443.344 597.736 443.344C596.856 443.344 596.024 443.192 595.24 442.888C594.456 442.584 593.76 442.152 593.152 441.592C592.544 441.016 592.072 440.32 591.736 439.504C591.384 438.688 591.208 437.768 591.208 436.744C591.208 435.72 591.384 434.808 591.736 434.008C592.072 433.192 592.544 432.496 593.152 431.92C593.76 431.344 594.456 430.912 595.24 430.624C596.024 430.32 596.856 430.168 597.736 430.168C598.6 430.168 599.424 430.32 600.208 430.624C600.992 430.912 601.688 431.344 602.296 431.92C602.904 432.48 603.384 433.168 603.736 433.984C604.072 434.8 604.24 435.72 604.24 436.744ZM597.736 440.032C598.472 440.032 599.128 439.888 599.704 439.6C600.264 439.312 600.704 438.92 601.024 438.424C601.344 437.928 601.504 437.368 601.504 436.744C601.504 436.136 601.344 435.584 601.024 435.088C600.688 434.592 600.24 434.2 599.68 433.912C599.104 433.608 598.448 433.456 597.712 433.456C596.992 433.456 596.344 433.608 595.768 433.912C595.192 434.2 594.744 434.592 594.424 435.088C594.104 435.584 593.944 436.136 593.944 436.744C593.944 437.368 594.112 437.928 594.448 438.424C594.768 438.92 595.216 439.312 595.792 439.6C596.352 439.888 597 440.032 597.736 440.032ZM594.208 419.509C594.208 420.485 594.4 421.357 594.784 422.125C595.152 422.893 595.688 423.445 596.392 423.781L604 423.781L604 426.997L591.424 426.997L591.424 424.045L594.112 424.045C593.248 423.597 592.568 423.029 592.072 422.341C591.576 421.653 591.304 420.925 591.256 420.157C591.256 419.981 591.256 419.845 591.256 419.749C591.256 419.653 591.264 419.573 591.28 419.509L594.208 419.509ZM604.24 404.681C604.24 405.705 604.072 406.625 603.736 407.441C603.384 408.257 602.904 408.953 602.296 409.529C601.688 410.089 600.992 410.521 600.208 410.825C599.424 411.129 598.6 411.281 597.736 411.281C596.856 411.281 596.024 411.129 595.24 410.825C594.456 410.521 593.76 410.089 593.152 409.529C592.544 408.953 592.072 408.257 591.736 407.441C591.384 406.625 591.208 405.705 591.208 404.681C591.208 403.657 591.384 402.745 591.736 401.945C592.072 401.129 592.544 400.433 593.152 399.857C593.76 399.281 594.456 398.849 595.24 398.561C596.024 398.257 596.856 398.105 597.736 398.105C598.6 398.105 599.424 398.257 600.208 398.561C600.992 398.849 601.688 399.281 602.296 399.857C602.904 400.417 603.384 401.105 603.736 401.921C604.072 402.737 604.24 403.657 604.24 404.681ZM597.736 407.969C598.472 407.969 599.128 407.825 599.704 407.537C600.264 407.249 600.704 406.857 601.024 406.361C601.344 405.865 601.504 405.305 601.504 404.681C601.504 404.073 601.344 403.521 601.024 403.025C600.688 402.529 600.24 402.137 599.68 401.849C599.104 401.545 598.448 401.393 597.712 401.393C596.992 401.393 596.344 401.545 595.768 401.849C595.192 402.137 594.744 402.529 594.424 403.025C594.104 403.521 593.944 404.073 593.944 404.681C593.944 405.305 594.112 405.865 594.448 406.361C594.768 406.857 595.216 407.249 595.792 407.537C596.352 407.825 597 407.969 597.736 407.969ZM604.24 387.398C604.24 388.374 604.024 389.238 603.592 389.99C603.144 390.726 602.544 391.302 601.792 391.718L609.112 391.718L609.112 394.934L591.424 394.934L591.424 392.126L593.584 392.126C592.848 391.646 592.272 391.038 591.856 390.302C591.424 389.566 591.208 388.726 591.208 387.782C591.208 386.934 591.376 386.158 591.712 385.454C592.048 384.734 592.52 384.11 593.128 383.582C593.72 383.054 594.408 382.646 595.192 382.358C595.96 382.054 596.792 381.902 597.688 381.902C598.904 381.902 600.008 382.142 601 382.622C601.992 383.086 602.784 383.734 603.376 384.566C603.952 385.382 604.24 386.326 604.24 387.398ZM601.504 388.478C601.504 387.982 601.4 387.534 601.192 387.134C600.984 386.734 600.704 386.39 600.352 386.102C599.984 385.798 599.576 385.574 599.128 385.43C598.664 385.27 598.184 385.19 597.688 385.19C597.16 385.19 596.672 385.278 596.224 385.454C595.776 385.614 595.384 385.854 595.048 386.174C594.696 386.494 594.424 386.87 594.232 387.302C594.04 387.718 593.944 388.174 593.944 388.67C593.944 388.974 594 389.286 594.112 389.606C594.208 389.91 594.352 390.206 594.544 390.494C594.736 390.782 594.96 391.038 595.216 391.262C595.472 391.47 595.752 391.622 596.056 391.718L599.008 391.718C599.472 391.526 599.896 391.27 600.28 390.95C600.664 390.614 600.968 390.23 601.192 389.798C601.4 389.366 601.504 388.926 601.504 388.478ZM604.24 372.891C604.24 373.899 604.072 374.811 603.736 375.627C603.384 376.443 602.912 377.139 602.32 377.715C601.712 378.291 601.024 378.739 600.256 379.059C599.472 379.363 598.648 379.515 597.784 379.515C596.584 379.515 595.488 379.251 594.496 378.723C593.504 378.179 592.712 377.411 592.12 376.419C591.512 375.411 591.208 374.227 591.208 372.867C591.208 371.491 591.512 370.315 592.12 369.339C592.712 368.363 593.504 367.619 594.496 367.107C595.472 366.579 596.528 366.315 597.664 366.315C597.856 366.315 598.056 366.323 598.264 366.339C598.456 366.355 598.616 366.371 598.744 366.387L598.744 376.107C599.384 376.043 599.944 375.859 600.424 375.555C600.904 375.235 601.272 374.835 601.528 374.355C601.768 373.859 601.888 373.331 601.888 372.771C601.888 372.131 601.736 371.531 601.432 370.971C601.112 370.395 600.696 370.003 600.184 369.795L600.952 367.035C601.592 367.339 602.16 367.779 602.656 368.355C603.152 368.915 603.544 369.579 603.832 370.347C604.104 371.115 604.24 371.963 604.24 372.891ZM596.704 376.179L596.704 369.603C596.064 369.667 595.512 369.851 595.048 370.155C594.568 370.443 594.2 370.827 593.944 371.307C593.672 371.787 593.536 372.323 593.536 372.915C593.536 373.491 593.672 374.019 593.944 374.499C594.2 374.963 594.568 375.347 595.048 375.651C595.512 375.939 596.064 376.115 596.704 376.179ZM604 351.668L604 354.884L596.944 354.884C595.936 354.884 595.2 355.06 594.736 355.412C594.272 355.764 594.04 356.252 594.04 356.876C594.04 357.308 594.152 357.748 594.376 358.196C594.6 358.628 594.912 359.02 595.312 359.372C595.696 359.724 596.144 359.98 596.656 360.14L604 360.14L604 363.356L591.424 363.356L591.424 360.452L593.752 360.452C593.208 360.132 592.752 359.724 592.384 359.228C592 358.732 591.712 358.164 591.52 357.524C591.312 356.868 591.208 356.18 591.208 355.46C591.208 354.676 591.352 354.036 591.64 353.54C591.912 353.028 592.288 352.644 592.768 352.388C593.232 352.116 593.76 351.932 594.352 351.836C594.944 351.724 595.544 351.668 596.152 351.668L604 351.668ZM594.208 333.618C594.208 334.594 594.4 335.466 594.784 336.234C595.152 337.002 595.688 337.554 596.392 337.89L604 337.89L604 341.106L591.424 341.106L591.424 338.154L594.112 338.154C593.248 337.706 592.568 337.138 592.072 336.45C591.576 335.762 591.304 335.034 591.256 334.266C591.256 334.09 591.256 333.954 591.256 333.858C591.256 333.762 591.264 333.682 591.28 333.618L594.208 333.618ZM604.24 325.157C604.24 326.165 604.072 327.077 603.736 327.893C603.384 328.709 602.912 329.405 602.32 329.981C601.712 330.557 601.024 331.005 600.256 331.325C599.472 331.629 598.648 331.781 597.784 331.781C596.584 331.781 595.488 331.517 594.496 330.989C593.504 330.445 592.712 329.677 592.12 328.685C591.512 327.677 591.208 326.493 591.208 325.133C591.208 323.757 591.512 322.581 592.12 321.605C592.712 320.629 593.504 319.885 594.496 319.373C595.472 318.845 596.528 318.581 597.664 318.581C597.856 318.581 598.056 318.589 598.264 318.605C598.456 318.621 598.616 318.637 598.744 318.653L598.744 328.373C599.384 328.309 599.944 328.125 600.424 327.821C600.904 327.501 601.272 327.101 601.528 326.621C601.768 326.125 601.888 325.597 601.888 325.037C601.888 324.397 601.736 323.797 601.432 323.237C601.112 322.661 600.696 322.269 600.184 322.061L600.952 319.301C601.592 319.605 602.16 320.045 602.656 320.621C603.152 321.181 603.544 321.845 603.832 322.613C604.104 323.381 604.24 324.229 604.24 325.157ZM596.704 328.445L596.704 321.869C596.064 321.933 595.512 322.117 595.048 322.421C594.568 322.709 594.2 323.093 593.944 323.573C593.672 324.053 593.536 324.589 593.536 325.181C593.536 325.757 593.672 326.285 593.944 326.765C594.2 327.229 594.568 327.613 595.048 327.917C595.512 328.205 596.064 328.381 596.704 328.445ZM604.24 310.99C604.24 312.062 604.064 313.086 603.712 314.062C603.36 315.038 602.84 315.878 602.152 316.582L600.064 315.43C600.672 314.678 601.12 313.942 601.408 313.222C601.696 312.486 601.84 311.782 601.84 311.11C601.84 310.486 601.728 309.99 601.504 309.622C601.28 309.238 600.944 309.046 600.496 309.046C600.192 309.046 599.96 309.15 599.8 309.358C599.624 309.566 599.472 309.87 599.344 310.27C599.216 310.654 599.072 311.126 598.912 311.686C598.608 312.614 598.312 313.39 598.024 314.014C597.736 314.638 597.376 315.11 596.944 315.43C596.496 315.734 595.928 315.886 595.24 315.886C594.408 315.886 593.696 315.678 593.104 315.262C592.496 314.83 592.024 314.238 591.688 313.486C591.352 312.718 591.184 311.822 591.184 310.798C591.184 309.902 591.328 309.054 591.616 308.254C591.888 307.454 592.336 306.726 592.96 306.07L595 307.366C594.504 308.006 594.144 308.614 593.92 309.19C593.68 309.766 593.56 310.35 593.56 310.942C593.56 311.278 593.6 311.598 593.68 311.902C593.76 312.19 593.896 312.43 594.088 312.622C594.264 312.798 594.52 312.886 594.856 312.886C595.16 312.886 595.4 312.806 595.576 312.646C595.736 312.47 595.88 312.214 596.008 311.878C596.136 311.526 596.28 311.102 596.44 310.606C596.728 309.598 597.024 308.75 597.328 308.062C597.632 307.358 598.008 306.83 598.456 306.478C598.888 306.126 599.488 305.95 600.256 305.95C601.504 305.95 602.48 306.406 603.184 307.318C603.888 308.23 604.24 309.454 604.24 310.99ZM604.24 296.931C604.24 297.939 604.072 298.851 603.736 299.667C603.384 300.483 602.912 301.179 602.32 301.755C601.712 302.331 601.024 302.779 600.256 303.099C599.472 303.403 598.648 303.555 597.784 303.555C596.584 303.555 595.488 303.291 594.496 302.763C593.504 302.219 592.712 301.451 592.12 300.459C591.512 299.451 591.208 298.267 591.208 296.907C591.208 295.531 591.512 294.355 592.12 293.379C592.712 292.403 593.504 291.659 594.496 291.147C595.472 290.619 596.528 290.355 597.664 290.355C597.856 290.355 598.056 290.363 598.264 290.379C598.456 290.395 598.616 290.411 598.744 290.427L598.744 300.147C599.384 300.083 599.944 299.899 600.424 299.595C600.904 299.275 601.272 298.875 601.528 298.395C601.768 297.899 601.888 297.371 601.888 296.811C601.888 296.171 601.736 295.571 601.432 295.011C601.112 294.435 600.696 294.043 600.184 293.835L600.952 291.075C601.592 291.379 602.16 291.819 602.656 292.395C603.152 292.955 603.544 293.619 603.832 294.387C604.104 295.155 604.24 296.003 604.24 296.931ZM596.704 300.219L596.704 293.643C596.064 293.707 595.512 293.891 595.048 294.195C594.568 294.483 594.2 294.867 593.944 295.347C593.672 295.827 593.536 296.363 593.536 296.955C593.536 297.531 593.672 298.059 593.944 298.539C594.2 299.003 594.568 299.387 595.048 299.691C595.512 299.979 596.064 300.155 596.704 300.219ZM600.28 288.259C599.464 288.259 598.752 288.035 598.144 287.587C597.52 287.123 597.04 286.483 596.704 285.667C596.368 284.851 596.2 283.915 596.2 282.859C596.2 282.331 596.24 281.795 596.32 281.251C596.4 280.707 596.528 280.235 596.704 279.835L596.032 279.835C595.232 279.835 594.616 280.075 594.184 280.555C593.752 281.019 593.536 281.715 593.536 282.643C593.536 283.331 593.656 283.987 593.896 284.611C594.136 285.235 594.488 285.891 594.952 286.579L592.84 287.611C592.296 286.779 591.888 285.931 591.616 285.067C591.344 284.187 591.208 283.267 591.208 282.307C591.208 280.515 591.656 279.123 592.552 278.131C593.448 277.123 594.728 276.619 596.392 276.619L600.4 276.619C600.736 276.619 600.976 276.563 601.12 276.451C601.264 276.323 601.352 276.123 601.384 275.851L604 275.851C604.048 276.139 604.088 276.403 604.12 276.643C604.152 276.867 604.168 277.059 604.168 277.219C604.168 277.859 604.024 278.347 603.736 278.683C603.448 279.003 603.096 279.203 602.68 279.283L602.032 279.355C602.736 279.899 603.28 280.579 603.664 281.395C604.048 282.211 604.24 283.043 604.24 283.891C604.24 284.723 604.072 285.475 603.736 286.147C603.384 286.803 602.912 287.323 602.32 287.707C601.712 288.075 601.032 288.259 600.28 288.259ZM600.928 280.435C600.736 280.259 600.544 280.115 600.352 280.003C600.16 279.891 599.984 279.835 599.824 279.835L598.552 279.835C598.392 280.219 598.272 280.635 598.192 281.083C598.096 281.531 598.048 281.955 598.048 282.355C598.048 283.187 598.232 283.875 598.6 284.419C598.952 284.947 599.424 285.211 600.016 285.211C600.336 285.211 600.64 285.123 600.928 284.947C601.216 284.771 601.448 284.515 601.624 284.179C601.8 283.843 601.888 283.443 601.888 282.979C601.888 282.499 601.8 282.027 601.624 281.563C601.432 281.099 601.2 280.723 600.928 280.435ZM594.208 265.126C594.208 266.102 594.4 266.974 594.784 267.742C595.152 268.51 595.688 269.062 596.392 269.398L604 269.398L604 272.614L591.424 272.614L591.424 269.662L594.112 269.662C593.248 269.214 592.568 268.646 592.072 267.958C591.576 267.27 591.304 266.542 591.256 265.774C591.256 265.598 591.256 265.462 591.256 265.366C591.256 265.27 591.264 265.19 591.28 265.126L594.208 265.126ZM604.24 256.641C604.24 257.665 604.072 258.585 603.736 259.401C603.384 260.217 602.904 260.913 602.296 261.489C601.672 262.065 600.968 262.513 600.184 262.833C599.4 263.137 598.576 263.289 597.712 263.289C596.528 263.289 595.448 263.025 594.472 262.497C593.48 261.953 592.688 261.185 592.096 260.193C591.504 259.201 591.208 258.025 591.208 256.665C591.208 255.305 591.504 254.137 592.096 253.161C592.688 252.185 593.464 251.457 594.424 250.977L595.384 254.121C594.92 254.393 594.568 254.753 594.328 255.201C594.072 255.649 593.944 256.145 593.944 256.689C593.944 257.297 594.104 257.857 594.424 258.369C594.728 258.865 595.168 259.257 595.744 259.545C596.304 259.833 596.96 259.977 597.712 259.977C598.448 259.977 599.104 259.833 599.68 259.545C600.24 259.241 600.688 258.841 601.024 258.345C601.344 257.849 601.504 257.297 601.504 256.689C601.504 256.305 601.44 255.945 601.312 255.609C601.184 255.257 601.008 254.945 600.784 254.673C600.56 254.401 600.304 254.201 600.016 254.073L600.976 250.929C601.6 251.217 602.16 251.641 602.656 252.201C603.152 252.745 603.544 253.393 603.832 254.145C604.104 254.881 604.24 255.713 604.24 256.641ZM604 236.262L604 239.478L596.944 239.478C595.968 239.478 595.24 239.67 594.76 240.054C594.28 240.422 594.04 240.934 594.04 241.59C594.04 241.974 594.152 242.382 594.376 242.814C594.6 243.246 594.912 243.638 595.312 243.99C595.696 244.326 596.144 244.574 596.656 244.734L604 244.734L604 247.95L586.48 247.95L586.48 244.734L593.752 244.734C592.952 244.27 592.328 243.638 591.88 242.838C591.432 242.038 591.208 241.166 591.208 240.222C591.208 239.406 591.352 238.742 591.64 238.23C591.912 237.718 592.288 237.318 592.768 237.03C593.232 236.742 593.76 236.542 594.352 236.43C594.928 236.318 595.528 236.262 596.152 236.262L604 236.262ZM600.28 226.564C599.464 226.564 598.752 226.34 598.144 225.892C597.52 225.428 597.04 224.788 596.704 223.972C596.368 223.156 596.2 222.22 596.2 221.164C596.2 220.636 596.24 220.1 596.32 219.556C596.4 219.012 596.528 218.54 596.704 218.14L596.032 218.14C595.232 218.14 594.616 218.38 594.184 218.86C593.752 219.324 593.536 220.02 593.536 220.948C593.536 221.636 593.656 222.292 593.896 222.916C594.136 223.54 594.488 224.196 594.952 224.884L592.84 225.916C592.296 225.084 591.888 224.236 591.616 223.372C591.344 222.492 591.208 221.572 591.208 220.612C591.208 218.82 591.656 217.428 592.552 216.436C593.448 215.428 594.728 214.924 596.392 214.924L600.4 214.924C600.736 214.924 600.976 214.868 601.12 214.756C601.264 214.628 601.352 214.428 601.384 214.156L604 214.156C604.048 214.444 604.088 214.708 604.12 214.948C604.152 215.172 604.168 215.364 604.168 215.524C604.168 216.164 604.024 216.652 603.736 216.988C603.448 217.308 603.096 217.508 602.68 217.588L602.032 217.66C602.736 218.204 603.28 218.884 603.664 219.7C604.048 220.516 604.24 221.348 604.24 222.196C604.24 223.028 604.072 223.78 603.736 224.452C603.384 225.108 602.912 225.628 602.32 226.012C601.712 226.38 601.032 226.564 600.28 226.564ZM600.928 218.74C600.736 218.564 600.544 218.42 600.352 218.308C600.16 218.196 599.984 218.14 599.824 218.14L598.552 218.14C598.392 218.524 598.272 218.94 598.192 219.388C598.096 219.836 598.048 220.26 598.048 220.66C598.048 221.492 598.232 222.18 598.6 222.724C598.952 223.252 599.424 223.516 600.016 223.516C600.336 223.516 600.64 223.428 600.928 223.252C601.216 223.076 601.448 222.82 601.624 222.484C601.8 222.148 601.888 221.748 601.888 221.284C601.888 220.804 601.8 220.332 601.624 219.868C601.432 219.404 601.2 219.028 600.928 218.74ZM604 191.383L604 194.599L596.944 194.599C595.952 194.599 595.224 194.775 594.76 195.127C594.28 195.463 594.04 195.935 594.04 196.543C594.04 197.167 594.288 197.767 594.784 198.343C595.264 198.903 595.896 199.303 596.68 199.543L604 199.543L604 202.759L596.944 202.759C595.936 202.759 595.2 202.935 594.736 203.287C594.272 203.623 594.04 204.095 594.04 204.703C594.04 205.327 594.28 205.927 594.76 206.503C595.24 207.063 595.872 207.463 596.656 207.703L604 207.703L604 210.919L591.424 210.919L591.424 208.015L593.752 208.015C592.936 207.535 592.312 206.895 591.88 206.095C591.432 205.295 591.208 204.375 591.208 203.335C591.208 202.295 591.464 201.487 591.976 200.911C592.488 200.319 593.12 199.943 593.872 199.783C593.008 199.271 592.352 198.623 591.904 197.839C591.44 197.039 591.208 196.143 591.208 195.151C591.208 194.367 591.352 193.735 591.64 193.255C591.912 192.759 592.288 192.375 592.768 192.103C593.232 191.831 593.76 191.647 594.352 191.551C594.944 191.439 595.544 191.383 596.152 191.383L604 191.383ZM604.24 180.431C604.24 181.391 604.024 182.247 603.592 182.999C603.16 183.751 602.568 184.343 601.816 184.775L604 184.775L604 187.583L586.48 187.583L586.48 184.367L593.632 184.367C592.88 183.919 592.288 183.335 591.856 182.615C591.424 181.879 591.208 181.023 591.208 180.047C591.208 179.231 591.384 178.487 591.736 177.815C592.072 177.143 592.544 176.567 593.152 176.087C593.76 175.591 594.456 175.215 595.24 174.959C596.024 174.687 596.864 174.551 597.76 174.551C598.656 174.551 599.496 174.703 600.28 175.007C601.064 175.295 601.76 175.703 602.368 176.231C602.96 176.759 603.424 177.383 603.76 178.103C604.08 178.807 604.24 179.583 604.24 180.431ZM601.504 181.319C601.504 180.807 601.408 180.343 601.216 179.927C601.008 179.495 600.736 179.127 600.4 178.823C600.064 178.503 599.672 178.263 599.224 178.103C598.76 177.927 598.28 177.839 597.784 177.839C597.096 177.839 596.464 177.983 595.888 178.271C595.296 178.543 594.824 178.927 594.472 179.423C594.12 179.903 593.944 180.471 593.944 181.127C593.944 181.591 594.056 182.039 594.28 182.471C594.488 182.887 594.776 183.263 595.144 183.599C595.512 183.919 595.928 184.175 596.392 184.367L599.392 184.367C599.712 184.271 600 184.119 600.256 183.911C600.512 183.687 600.736 183.431 600.928 183.143C601.104 182.855 601.248 182.559 601.36 182.255C601.456 181.935 601.504 181.623 601.504 181.319ZM600.28 172.236C599.464 172.236 598.752 172.012 598.144 171.564C597.52 171.1 597.04 170.46 596.704 169.644C596.368 168.828 596.2 167.892 596.2 166.836C596.2 166.308 596.24 165.772 596.32 165.228C596.4 164.684 596.528 164.212 596.704 163.812L596.032 163.812C595.232 163.812 594.616 164.052 594.184 164.532C593.752 164.996 593.536 165.692 593.536 166.62C593.536 167.308 593.656 167.964 593.896 168.588C594.136 169.212 594.488 169.868 594.952 170.556L592.84 171.588C592.296 170.756 591.888 169.908 591.616 169.044C591.344 168.164 591.208 167.244 591.208 166.284C591.208 164.492 591.656 163.1 592.552 162.108C593.448 161.1 594.728 160.596 596.392 160.596L600.4 160.596C600.736 160.596 600.976 160.54 601.12 160.428C601.264 160.3 601.352 160.1 601.384 159.828L604 159.828C604.048 160.116 604.088 160.38 604.12 160.62C604.152 160.844 604.168 161.036 604.168 161.196C604.168 161.836 604.024 162.324 603.736 162.66C603.448 162.98 603.096 163.18 602.68 163.26L602.032 163.332C602.736 163.876 603.28 164.556 603.664 165.372C604.048 166.188 604.24 167.02 604.24 167.868C604.24 168.7 604.072 169.452 603.736 170.124C603.384 170.78 602.912 171.3 602.32 171.684C601.712 172.052 601.032 172.236 600.28 172.236ZM600.928 164.412C600.736 164.236 600.544 164.092 600.352 163.98C600.16 163.868 599.984 163.812 599.824 163.812L598.552 163.812C598.392 164.196 598.272 164.612 598.192 165.06C598.096 165.508 598.048 165.932 598.048 166.332C598.048 167.164 598.232 167.852 598.6 168.396C598.952 168.924 599.424 169.188 600.016 169.188C600.336 169.188 600.64 169.1 600.928 168.924C601.216 168.748 601.448 168.492 601.624 168.156C601.8 167.82 601.888 167.42 601.888 166.956C601.888 166.476 601.8 166.004 601.624 165.54C601.432 165.076 601.2 164.7 600.928 164.412ZM604.24 151.959C604.24 153.031 604.064 154.055 603.712 155.031C603.36 156.007 602.84 156.847 602.152 157.551L600.064 156.399C600.672 155.647 601.12 154.911 601.408 154.191C601.696 153.455 601.84 152.751 601.84 152.079C601.84 151.455 601.728 150.959 601.504 150.591C601.28 150.207 600.944 150.015 600.496 150.015C600.192 150.015 599.96 150.119 599.8 150.327C599.624 150.535 599.472 150.839 599.344 151.239C599.216 151.623 599.072 152.095 598.912 152.655C598.608 153.583 598.312 154.359 598.024 154.983C597.736 155.607 597.376 156.079 596.944 156.399C596.496 156.703 595.928 156.855 595.24 156.855C594.408 156.855 593.696 156.647 593.104 156.231C592.496 155.799 592.024 155.207 591.688 154.455C591.352 153.687 591.184 152.791 591.184 151.767C591.184 150.871 591.328 150.023 591.616 149.223C591.888 148.423 592.336 147.695 592.96 147.039L595 148.335C594.504 148.975 594.144 149.583 593.92 150.159C593.68 150.735 593.56 151.319 593.56 151.911C593.56 152.247 593.6 152.567 593.68 152.871C593.76 153.159 593.896 153.399 594.088 153.591C594.264 153.767 594.52 153.855 594.856 153.855C595.16 153.855 595.4 153.775 595.576 153.615C595.736 153.439 595.88 153.183 596.008 152.847C596.136 152.495 596.28 152.071 596.44 151.575C596.728 150.567 597.024 149.719 597.328 149.031C597.632 148.327 598.008 147.799 598.456 147.447C598.888 147.095 599.488 146.919 600.256 146.919C601.504 146.919 602.48 147.375 603.184 148.287C603.888 149.199 604.24 150.423 604.24 151.959ZM604.24 139.099C604.24 140.171 604.064 141.195 603.712 142.171C603.36 143.147 602.84 143.987 602.152 144.691L600.064 143.539C600.672 142.787 601.12 142.051 601.408 141.331C601.696 140.595 601.84 139.891 601.84 139.219C601.84 138.595 601.728 138.099 601.504 137.731C601.28 137.347 600.944 137.155 600.496 137.155C600.192 137.155 599.96 137.259 599.8 137.467C599.624 137.675 599.472 137.979 599.344 138.379C599.216 138.763 599.072 139.235 598.912 139.795C598.608 140.723 598.312 141.499 598.024 142.123C597.736 142.747 597.376 143.219 596.944 143.539C596.496 143.843 595.928 143.995 595.24 143.995C594.408 143.995 593.696 143.787 593.104 143.371C592.496 142.939 592.024 142.347 591.688 141.595C591.352 140.827 591.184 139.931 591.184 138.907C591.184 138.011 591.328 137.163 591.616 136.363C591.888 135.563 592.336 134.835 592.96 134.179L595 135.475C594.504 136.115 594.144 136.723 593.92 137.299C593.68 137.875 593.56 138.459 593.56 139.051C593.56 139.387 593.6 139.707 593.68 140.011C593.76 140.299 593.896 140.539 594.088 140.731C594.264 140.907 594.52 140.995 594.856 140.995C595.16 140.995 595.4 140.915 595.576 140.755C595.736 140.579 595.88 140.323 596.008 139.987C596.136 139.635 596.28 139.211 596.44 138.715C596.728 137.707 597.024 136.859 597.328 136.171C597.632 135.467 598.008 134.939 598.456 134.587C598.888 134.235 599.488 134.059 600.256 134.059C601.504 134.059 602.48 134.515 603.184 135.427C603.888 136.339 604.24 137.563 604.24 139.099ZM600.28 131.736C599.464 131.736 598.752 131.512 598.144 131.064C597.52 130.6 597.04 129.96 596.704 129.144C596.368 128.328 596.2 127.392 596.2 126.336C596.2 125.808 596.24 125.272 596.32 124.728C596.4 124.184 596.528 123.712 596.704 123.312L596.032 123.312C595.232 123.312 594.616 123.552 594.184 124.032C593.752 124.496 593.536 125.192 593.536 126.12C593.536 126.808 593.656 127.464 593.896 128.088C594.136 128.712 594.488 129.368 594.952 130.056L592.84 131.088C592.296 130.256 591.888 129.408 591.616 128.544C591.344 127.664 591.208 126.744 591.208 125.784C591.208 123.992 591.656 122.6 592.552 121.608C593.448 120.6 594.728 120.096 596.392 120.096L600.4 120.096C600.736 120.096 600.976 120.04 601.12 119.928C601.264 119.8 601.352 119.6 601.384 119.328L604 119.328C604.048 119.616 604.088 119.88 604.12 120.12C604.152 120.344 604.168 120.536 604.168 120.696C604.168 121.336 604.024 121.824 603.736 122.16C603.448 122.48 603.096 122.68 602.68 122.76L602.032 122.832C602.736 123.376 603.28 124.056 603.664 124.872C604.048 125.688 604.24 126.52 604.24 127.368C604.24 128.2 604.072 128.952 603.736 129.624C603.384 130.28 602.912 130.8 602.32 131.184C601.712 131.552 601.032 131.736 600.28 131.736ZM600.928 123.912C600.736 123.736 600.544 123.592 600.352 123.48C600.16 123.368 599.984 123.312 599.824 123.312L598.552 123.312C598.392 123.696 598.272 124.112 598.192 124.56C598.096 125.008 598.048 125.432 598.048 125.832C598.048 126.664 598.232 127.352 598.6 127.896C598.952 128.424 599.424 128.688 600.016 128.688C600.336 128.688 600.64 128.6 600.928 128.424C601.216 128.248 601.448 127.992 601.624 127.656C601.8 127.32 601.888 126.92 601.888 126.456C601.888 125.976 601.8 125.504 601.624 125.04C601.432 124.576 601.2 124.2 600.928 123.912ZM597.712 116.859C596.496 116.859 595.4 116.619 594.424 116.139C593.432 115.659 592.648 114.995 592.072 114.147C591.496 113.299 591.208 112.331 591.208 111.243C591.208 110.315 591.44 109.483 591.904 108.747C592.352 107.995 592.928 107.411 593.632 106.995L586.48 106.995L586.48 103.779L600.4 103.779C600.736 103.779 600.976 103.723 601.12 103.611C601.264 103.499 601.352 103.307 601.384 103.035L604 103.035C604.112 103.595 604.168 104.051 604.168 104.403C604.168 104.979 604.024 105.459 603.736 105.843C603.448 106.211 603.072 106.419 602.608 106.467L601.816 106.515C602.6 106.979 603.2 107.611 603.616 108.411C604.032 109.195 604.24 110.019 604.24 110.883C604.24 111.747 604.072 112.547 603.736 113.283C603.4 114.003 602.936 114.635 602.344 115.179C601.752 115.707 601.064 116.123 600.28 116.427C599.48 116.715 598.624 116.859 597.712 116.859ZM599.392 106.995L596.392 106.995C595.928 107.155 595.512 107.411 595.144 107.763C594.776 108.115 594.488 108.507 594.28 108.939C594.056 109.371 593.944 109.803 593.944 110.235C593.944 110.731 594.048 111.179 594.256 111.579C594.464 111.979 594.744 112.331 595.096 112.635C595.448 112.923 595.856 113.147 596.32 113.307C596.784 113.451 597.272 113.523 597.784 113.523C598.296 113.523 598.784 113.443 599.248 113.283C599.696 113.107 600.088 112.859 600.424 112.539C600.76 112.219 601.024 111.851 601.216 111.435C601.408 111.003 601.504 110.539 601.504 110.043C601.504 109.739 601.456 109.435 601.36 109.131C601.248 108.811 601.104 108.515 600.928 108.243C600.736 107.955 600.512 107.707 600.256 107.499C599.984 107.275 599.696 107.107 599.392 106.995ZM604.24 93.8139C604.24 94.8379 604.072 95.7579 603.736 96.5739C603.384 97.3899 602.904 98.0859 602.296 98.6619C601.688 99.2219 600.992 99.6539 600.208 99.9579C599.424 100.262 598.6 100.414 597.736 100.414C596.856 100.414 596.024 100.262 595.24 99.9579C594.456 99.6539 593.76 99.2219 593.152 98.6619C592.544 98.0859 592.072 97.3899 591.736 96.5739C591.384 95.7579 591.208 94.8379 591.208 93.8139C591.208 92.7899 591.384 91.8779 591.736 91.0779C592.072 90.2619 592.544 89.5659 593.152 88.9899C593.76 88.4139 594.456 87.9819 595.24 87.6939C596.024 87.3899 596.856 87.2379 597.736 87.2379C598.6 87.2379 599.424 87.3899 600.208 87.6939C600.992 87.9819 601.688 88.4139 602.296 88.9899C602.904 89.5499 603.384 90.2379 603.736 91.0539C604.072 91.8699 604.24 92.7899 604.24 93.8139ZM597.736 97.1019C598.472 97.1019 599.128 96.9579 599.704 96.6699C600.264 96.3819 600.704 95.9899 601.024 95.4939C601.344 94.9979 601.504 94.4379 601.504 93.8139C601.504 93.2059 601.344 92.6539 601.024 92.1579C600.688 91.6619 600.24 91.2699 599.68 90.9819C599.104 90.6779 598.448 90.5259 597.712 90.5259C596.992 90.5259 596.344 90.6779 595.768 90.9819C595.192 91.2699 594.744 91.6619 594.424 92.1579C594.104 92.6539 593.944 93.2059 593.944 93.8139C593.944 94.4379 594.112 94.9979 594.448 95.4939C594.768 95.9899 595.216 96.3819 595.792 96.6699C596.352 96.9579 597 97.1019 597.736 97.1019ZM594.208 76.5792C594.208 77.5552 594.4 78.4272 594.784 79.1952C595.152 79.9632 595.688 80.5152 596.392 80.8512L604 80.8512L604 84.0672L591.424 84.0672L591.424 81.1152L594.112 81.1152C593.248 80.6672 592.568 80.0992 592.072 79.4112C591.576 78.7232 591.304 77.9952 591.256 77.2272C591.256 77.0512 591.256 76.9152 591.256 76.8192C591.256 76.7232 591.264 76.6432 591.28 76.5792L594.208 76.5792ZM604.24 69.154C604.24 70.226 604.064 71.25 603.712 72.226C603.36 73.202 602.84 74.042 602.152 74.746L600.064 73.594C600.672 72.842 601.12 72.106 601.408 71.386C601.696 70.65 601.84 69.946 601.84 69.274C601.84 68.65 601.728 68.154 601.504 67.786C601.28 67.402 600.944 67.21 600.496 67.21C600.192 67.21 599.96 67.314 599.8 67.522C599.624 67.73 599.472 68.034 599.344 68.434C599.216 68.818 599.072 69.29 598.912 69.85C598.608 70.778 598.312 71.554 598.024 72.178C597.736 72.802 597.376 73.274 596.944 73.594C596.496 73.898 595.928 74.05 595.24 74.05C594.408 74.05 593.696 73.842 593.104 73.426C592.496 72.994 592.024 72.402 591.688 71.65C591.352 70.882 591.184 69.986 591.184 68.962C591.184 68.066 591.328 67.218 591.616 66.418C591.888 65.618 592.336 64.89 592.96 64.234L595 65.53C594.504 66.17 594.144 66.778 593.92 67.354C593.68 67.93 593.56 68.514 593.56 69.106C593.56 69.442 593.6 69.762 593.68 70.066C593.76 70.354 593.896 70.594 594.088 70.786C594.264 70.962 594.52 71.05 594.856 71.05C595.16 71.05 595.4 70.97 595.576 70.81C595.736 70.634 595.88 70.378 596.008 70.042C596.136 69.69 596.28 69.266 596.44 68.77C596.728 67.762 597.024 66.914 597.328 66.226C597.632 65.522 598.008 64.994 598.456 64.642C598.888 64.29 599.488 64.114 600.256 64.114C601.504 64.114 602.48 64.57 603.184 65.482C603.888 66.394 604.24 67.618 604.24 69.154ZM604 60.9986L600.544 60.9986L600.544 58.3586L604 58.3586L604 60.9986Z" fill="white"/>
</g>
<defs>
<filter id="filter0_d_959_370" x="-190.381" y="-774.651" width="913.972" height="1335.68" filterUnits="userSpaceOnUse" color-interpolation-filters="sRGB">
<feFlood flood-opacity="0" result="BackgroundImageFix"/>
<feColorMatrix in="SourceAlpha" type="matrix" values="0 0 0 0 0 0 0 0 0 0 0 0 0 0 0 0 0 0 127 0" result="hardAlpha"/>
<feOffset dx="-57.5396" dy="-13.8095"/>
<feGaussianBlur stdDeviation="29.9206"/>
<feComposite in2="hardAlpha" operator="out"/>
<feColorMatrix type="matrix" values="0 0 0 0 0.104722 0 0 0 0 0.433333 0 0 0 0 0.204734 0 0 0 0.13 0"/>
<feBlend mode="normal" in2="BackgroundImageFix" result="effect1_dropShadow_959_370"/>
<feBlend mode="normal" in="SourceGraphic" in2="effect1_dropShadow_959_370" result="shape"/>
</filter>
<filter id="filter1_d_959_370" x="82.4992" y="-79.5495" width="751.393" height="1098.09" filterUnits="userSpaceOnUse" color-interpolation-filters="sRGB">
<feFlood flood-opacity="0" result="BackgroundImageFix"/>
<feColorMatrix in="SourceAlpha" type="matrix" values="0 0 0 0 0 0 0 0 0 0 0 0 0 0 0 0 0 0 127 0" result="hardAlpha"/>
<feOffset dx="-47.3043" dy="-11.353"/>
<feGaussianBlur stdDeviation="24.5982"/>
<feComposite in2="hardAlpha" operator="out"/>
<feColorMatrix type="matrix" values="0 0 0 0 0.104722 0 0 0 0 0.433333 0 0 0 0 0.204734 0 0 0 0.13 0"/>
<feBlend mode="normal" in2="BackgroundImageFix" result="effect1_dropShadow_959_370"/>
<feBlend mode="normal" in="SourceGraphic" in2="effect1_dropShadow_959_370" result="shape"/>
</filter>
<linearGradient id="paint0_linear_959_370" x1="505.5" y1="-263.707" x2="505.5" y2="980.696" gradientUnits="userSpaceOnUse">
<stop stop-color="#A5F200"/>
<stop offset="1" stop-color="#139D3D"/>
</linearGradient>
<linearGradient id="paint1_linear_959_370" x1="236.782" y1="832.845" x2="236.782" y2="1028.56" gradientUnits="userSpaceOnUse">
<stop stop-color="#A5F200"/>
<stop offset="1" stop-color="#139D3D"/>
</linearGradient>
<linearGradient id="paint2_linear_959_370" x1="124.417" y1="832.845" x2="124.417" y2="1028.56" gradientUnits="userSpaceOnUse">
<stop stop-color="#A5F200"/>
<stop offset="1" stop-color="#139D3D"/>
</linearGradient>
<linearGradient id="paint3_linear_959_370" x1="180.506" y1="763.898" x2="180.506" y2="916" gradientUnits="userSpaceOnUse">
<stop stop-color="#A5F200"/>
<stop offset="1" stop-color="#139D3D"/>
</linearGradient>
<clipPath id="clip0_959_370">
<rect x="648" width="1098" height="648" rx="4" transform="rotate(90 648 0)" fill="white"/>
</clipPath>
</defs>
</svg>
