<svg width="648" height="1098" viewBox="0 0 648 1098" fill="none" xmlns="http://www.w3.org/2000/svg">
<g clip-path="url(#clip0_938_832)">
<rect x="648" width="1098" height="648" rx="4" transform="rotate(90 648 0)" fill="white"/>
<text fill="#2EC65C" xml:space="preserve" style="white-space: pre" font-family="Raleway" font-size="32" font-weight="500" letter-spacing="0.015em"><tspan x="65" y="158.296">Director Of Learning And </tspan><tspan x="65" y="196.296">Technology</tspan></text>
<text fill="#139D3D" xml:space="preserve" style="white-space: pre" font-family="Raleway" font-size="48" font-weight="bold" letter-spacing="0em"><tspan x="65" y="109.944">B&#xe9;r&#xe9;nice Batut</tspan></text>
<text fill="#94B89E" xml:space="preserve" style="white-space: pre" font-family="Raleway" font-size="30" letter-spacing="0em"><tspan x="417" y="110.09">(She/Her)</tspan></text>
<line x1="67" y1="292" x2="255" y2="292" stroke="#139D3D" stroke-width="4" stroke-linecap="round"/>
<text fill="#515853" xml:space="preserve" style="white-space: pre" font-family="Raleway" font-size="30" letter-spacing="0.015em"><tspan x="124" y="364.09">berenice@openlifesci.org</tspan></text>
<g clip-path="url(#clip1_938_832)">
<path d="M92.4733 354.96L102.725 346.054V363.765L92.4733 354.96ZM79.2633 356.469L82.8633 359.594C83.4283 360.074 84.165 360.364 84.97 360.364H84.9983H85.02C85.8267 360.364 86.5633 360.072 87.135 359.589L87.13 359.592L90.73 356.467L101.673 365.865H68.325L79.2633 356.469ZM68.31 343.942H101.693L85.6583 357.869C85.478 358.011 85.2549 358.089 85.025 358.089H85.0017H84.98C84.7493 358.089 84.5254 358.011 84.345 357.867L84.3467 357.869L68.31 343.942ZM67.275 346.052L77.525 354.959L67.275 363.759V346.052ZM103.275 341.984C102.875 341.784 102.405 341.667 101.907 341.667H68.0983C67.6153 341.667 67.1388 341.78 66.7067 341.995L66.725 341.987C66.2076 342.242 65.7719 342.637 65.4671 343.127C65.1623 343.617 65.0005 344.182 65 344.759V365.045C65.0009 365.866 65.3274 366.653 65.908 367.234C66.4885 367.815 67.2757 368.141 68.0967 368.142H101.902C102.723 368.141 103.51 367.815 104.09 367.234C104.671 366.653 104.997 365.866 104.998 365.045V344.759C104.998 343.547 104.3 342.497 103.283 341.992L103.265 341.984H103.275Z" fill="#139D3D"/>
</g>
<path d="M85 417.5C83.7639 417.5 82.5555 417.133 81.5277 416.447C80.4999 415.76 79.6988 414.784 79.2258 413.642C78.7527 412.5 78.6289 411.243 78.8701 410.031C79.1113 408.818 79.7065 407.705 80.5806 406.831C81.4547 405.957 82.5683 405.361 83.7807 405.12C84.9931 404.879 86.2497 405.003 87.3918 405.476C88.5338 405.949 89.5099 406.75 90.1967 407.778C90.8834 408.805 91.25 410.014 91.25 411.25C91.248 412.907 90.5889 414.496 89.4172 415.667C88.2456 416.839 86.657 417.498 85 417.5ZM85 407.5C84.2583 407.5 83.5333 407.72 82.9166 408.132C82.2999 408.544 81.8193 409.13 81.5355 409.815C81.2516 410.5 81.1774 411.254 81.3221 411.982C81.4668 412.709 81.8239 413.377 82.3484 413.902C82.8728 414.426 83.541 414.783 84.2684 414.928C84.9958 415.073 85.7498 414.998 86.4351 414.715C87.1203 414.431 87.706 413.95 88.118 413.333C88.5301 412.717 88.75 411.992 88.75 411.25C88.749 410.256 88.3536 409.302 87.6506 408.599C86.9475 407.896 85.9943 407.501 85 407.5Z" fill="#139D3D"/>
<path d="M85 432.5L74.455 420.064C74.3085 419.877 74.1635 419.689 74.02 419.5C72.2187 417.127 71.2456 414.229 71.25 411.25C71.25 407.603 72.6987 404.106 75.2773 401.527C77.8559 398.949 81.3533 397.5 85 397.5C88.6467 397.5 92.1441 398.949 94.7227 401.527C97.3014 404.106 98.75 407.603 98.75 411.25C98.7544 414.228 97.7817 417.125 95.9813 419.496L95.98 419.5C95.98 419.5 95.605 419.993 95.5488 420.059L85 432.5ZM76.015 417.994C76.0175 417.994 76.3075 418.379 76.3738 418.461L85 428.635L93.6375 418.447C93.6925 418.379 93.985 417.991 93.9863 417.99C95.4577 416.051 96.2529 413.684 96.25 411.25C96.25 408.266 95.0647 405.405 92.955 403.295C90.8452 401.185 87.9837 400 85 400C82.0163 400 79.1548 401.185 77.0451 403.295C74.9353 405.405 73.75 408.266 73.75 411.25C73.7474 413.685 74.5422 416.054 76.015 417.994Z" fill="#139D3D"/>
<text fill="#515853" xml:space="preserve" style="white-space: pre" font-family="Raleway" font-size="30" letter-spacing="0.015em"><tspan x="124" y="424.09">Clermont-Ferrand, France</tspan></text>
<mask id="path-11-inside-1_938_832" fill="white">
<path fill-rule="evenodd" clip-rule="evenodd" d="M538.942 1074.06C534.628 1066.79 533.578 1056.99 537.713 1046.5C545.177 1031.3 554.601 1026.19 564.298 1020.93C576.832 1014.14 589.822 1007.1 599.626 977.687C609.65 994.257 617.207 1026.92 602.598 1054.04C592.035 1073.63 578.277 1083.18 567.904 1085.68C559.245 1087.77 551.227 1085.84 545.286 1081.25L587.103 1034.12L538.942 1074.06Z"/>
</mask>
<path fill-rule="evenodd" clip-rule="evenodd" d="M538.942 1074.06C534.628 1066.79 533.578 1056.99 537.713 1046.5C545.177 1031.3 554.601 1026.19 564.298 1020.93C576.832 1014.14 589.822 1007.1 599.626 977.687C609.65 994.257 617.207 1026.92 602.598 1054.04C592.035 1073.63 578.277 1083.18 567.904 1085.68C559.245 1087.77 551.227 1085.84 545.286 1081.25L587.103 1034.12L538.942 1074.06Z" fill="white"/>
<path d="M537.713 1046.5L535.36 1045.58L535.398 1045.48L535.443 1045.39L537.713 1046.5ZM538.942 1074.06L540.556 1076L538.277 1077.89L536.767 1075.35L538.942 1074.06ZM564.298 1020.93L565.503 1023.16L564.298 1020.93ZM599.626 977.687L597.227 976.887L598.957 971.696L601.79 976.378L599.626 977.687ZM602.598 1054.04L604.824 1055.24L604.824 1055.24L602.598 1054.04ZM567.904 1085.68L567.311 1083.22L567.904 1085.68ZM545.286 1081.25L543.74 1083.25L541.597 1081.59L543.394 1079.57L545.286 1081.25ZM587.103 1034.12L585.489 1032.18L588.994 1035.8L587.103 1034.12ZM540.066 1047.43C536.191 1057.26 537.238 1066.23 541.117 1072.77L536.767 1075.35C532.019 1067.34 530.966 1056.73 535.36 1045.58L540.066 1047.43ZM565.503 1023.16C555.908 1028.36 547.084 1033.15 539.983 1047.62L535.443 1045.39C543.269 1029.45 553.293 1024.02 563.093 1018.71L565.503 1023.16ZM602.025 978.486C597.034 993.459 591.167 1002.93 584.809 1009.54C578.465 1016.15 571.758 1019.77 565.503 1023.16L563.093 1018.71C569.371 1015.31 575.426 1012.01 581.162 1006.04C586.883 1000.08 592.414 991.326 597.227 976.887L602.025 978.486ZM600.372 1052.84C614.433 1026.73 607.175 995.051 597.462 978.995L601.79 976.378C612.125 993.463 619.981 1027.1 604.824 1055.24L600.372 1052.84ZM567.311 1083.22C576.822 1080.93 590.061 1071.96 600.372 1052.84L604.824 1055.24C594.009 1075.29 579.731 1085.43 568.496 1088.14L567.311 1083.22ZM546.831 1079.25C552.149 1083.35 559.377 1085.13 567.311 1083.22L568.496 1088.14C559.114 1090.4 550.305 1088.32 543.74 1083.25L546.831 1079.25ZM543.394 1079.57L585.211 1032.44L588.994 1035.8L547.177 1082.93L543.394 1079.57ZM588.717 1036.07L540.556 1076L537.327 1072.11L585.489 1032.18L588.717 1036.07Z" fill="white" mask="url(#path-11-inside-1_938_832)"/>
<mask id="path-13-inside-2_938_832" fill="white">
<path fill-rule="evenodd" clip-rule="evenodd" d="M528.808 1074.06C533.122 1066.79 534.172 1056.99 530.037 1046.5C522.573 1031.3 513.149 1026.19 503.452 1020.93C490.918 1014.14 477.928 1007.1 468.124 977.687C458.1 994.257 450.543 1026.92 465.152 1054.04C475.715 1073.63 489.473 1083.18 499.846 1085.68C508.505 1087.77 516.523 1085.84 522.464 1081.25L480.647 1034.12L528.808 1074.06Z"/>
</mask>
<path fill-rule="evenodd" clip-rule="evenodd" d="M528.808 1074.06C533.122 1066.79 534.172 1056.99 530.037 1046.5C522.573 1031.3 513.149 1026.19 503.452 1020.93C490.918 1014.14 477.928 1007.1 468.124 977.687C458.1 994.257 450.543 1026.92 465.152 1054.04C475.715 1073.63 489.473 1083.18 499.846 1085.68C508.505 1087.77 516.523 1085.84 522.464 1081.25L480.647 1034.12L528.808 1074.06Z" fill="white"/>
<path d="M530.037 1046.5L532.39 1045.58L532.352 1045.48L532.307 1045.39L530.037 1046.5ZM528.808 1074.06L527.194 1076L529.473 1077.89L530.983 1075.35L528.808 1074.06ZM503.452 1020.93L502.247 1023.16L503.452 1020.93ZM468.124 977.687L470.523 976.887L468.793 971.696L465.96 976.378L468.124 977.687ZM465.152 1054.04L462.926 1055.24L462.926 1055.24L465.152 1054.04ZM499.846 1085.68L499.254 1088.14L499.846 1085.68ZM522.464 1081.25L524.01 1083.25L526.153 1081.59L524.356 1079.57L522.464 1081.25ZM480.647 1034.12L482.261 1032.18L478.756 1035.8L480.647 1034.12ZM527.684 1047.43C531.559 1057.26 530.512 1066.23 526.633 1072.77L530.983 1075.35C535.731 1067.34 536.784 1056.73 532.39 1045.58L527.684 1047.43ZM502.247 1023.16C511.842 1028.36 520.666 1033.15 527.767 1047.62L532.307 1045.39C524.481 1029.45 514.457 1024.02 504.657 1018.71L502.247 1023.16ZM465.725 978.486C470.716 993.459 476.583 1002.93 482.941 1009.54C489.285 1016.15 495.992 1019.77 502.247 1023.16L504.657 1018.71C498.379 1015.31 492.324 1012.01 486.588 1006.04C480.867 1000.08 475.336 991.326 470.523 976.887L465.725 978.486ZM467.378 1052.84C453.317 1026.73 460.575 995.051 470.288 978.995L465.96 976.378C455.625 993.463 447.769 1027.1 462.926 1055.24L467.378 1052.84ZM500.439 1083.22C490.928 1080.93 477.689 1071.96 467.378 1052.84L462.926 1055.24C473.741 1075.29 488.019 1085.43 499.254 1088.14L500.439 1083.22ZM520.919 1079.25C515.601 1083.35 508.373 1085.13 500.439 1083.22L499.254 1088.14C508.636 1090.4 517.445 1088.32 524.01 1083.25L520.919 1079.25ZM524.356 1079.57L482.539 1032.44L478.756 1035.8L520.573 1082.93L524.356 1079.57ZM479.033 1036.07L527.194 1076L530.423 1072.11L482.261 1032.18L479.033 1036.07Z" fill="white" mask="url(#path-13-inside-2_938_832)"/>
<text fill="white" stroke="white" stroke-width="1.51727" xml:space="preserve" style="white-space: pre" font-family="Raleway" font-size="52.3709" font-weight="bold" letter-spacing="0em"><tspan x="482.367" y="995.987">OLS</tspan></text>
<path d="M480.173 939.268C518.622 902.935 555.36 868.219 634.851 857.023C695.806 853.478 742.272 879.142 766.609 916.622C790.964 954.129 793.379 1003.78 765.586 1048.78C739.219 1091.47 675.883 1139.61 571.275 1158.41C430.437 1183.65 296.767 1105.51 234.482 1036.66C297.282 1035.71 342.611 1026.06 377.897 1011.51C414.464 996.435 440.054 976.185 462.983 955.31C468.844 949.974 474.527 944.604 480.173 939.268Z" fill="url(#paint0_linear_938_832)" stroke="white" stroke-width="6.22181"/>
<mask id="path-17-inside-3_938_832" fill="white">
<path fill-rule="evenodd" clip-rule="evenodd" d="M557.457 1051.29C554.221 1045.84 553.434 1038.5 556.535 1030.63C562.133 1019.22 569.2 1015.39 576.473 1011.45C585.874 1006.35 595.616 1001.07 602.969 979.015C610.487 991.442 616.155 1015.94 605.199 1036.28C597.276 1050.97 586.957 1058.13 579.178 1060.01C572.684 1061.57 566.671 1060.13 562.215 1056.69L593.578 1021.34L557.457 1051.29Z"/>
</mask>
<path fill-rule="evenodd" clip-rule="evenodd" d="M557.457 1051.29C554.221 1045.84 553.434 1038.5 556.535 1030.63C562.133 1019.22 569.2 1015.39 576.473 1011.45C585.874 1006.35 595.616 1001.07 602.969 979.015C610.487 991.442 616.155 1015.94 605.199 1036.28C597.276 1050.97 586.957 1058.13 579.178 1060.01C572.684 1061.57 566.671 1060.13 562.215 1056.69L593.578 1021.34L557.457 1051.29Z" fill="white"/>
<path d="M556.535 1030.63L554.77 1029.93L554.798 1029.86L554.832 1029.79L556.535 1030.63ZM557.457 1051.29L558.667 1052.75L556.958 1054.17L555.825 1052.26L557.457 1051.29ZM576.473 1011.45L575.569 1009.78V1009.78L576.473 1011.45ZM602.969 979.015L601.17 978.415L602.468 974.522L604.592 978.033L602.969 979.015ZM605.199 1036.28L606.868 1037.18L606.868 1037.18L605.199 1036.28ZM579.178 1060.01L579.622 1061.85L579.178 1060.01ZM562.215 1056.69L561.056 1058.19L559.449 1056.95L560.797 1055.43L562.215 1056.69ZM593.578 1021.34L592.368 1019.88L594.997 1022.6L593.578 1021.34ZM558.299 1031.32C555.393 1038.7 556.178 1045.42 559.088 1050.33L555.825 1052.26C552.264 1046.26 551.474 1038.29 554.77 1029.93L558.299 1031.32ZM577.377 1013.12C570.181 1017.02 563.563 1020.61 558.237 1031.46L554.832 1029.79C560.702 1017.83 568.22 1013.77 575.569 1009.78L577.377 1013.12ZM604.769 979.614C601.025 990.844 596.625 997.944 591.857 1002.91C587.099 1007.86 582.069 1010.57 577.377 1013.12L575.569 1009.78C580.278 1007.23 584.819 1004.76 589.121 1000.28C593.412 995.813 597.56 989.244 601.17 978.415L604.769 979.614ZM603.529 1035.38C614.075 1015.8 608.631 992.038 601.347 979.996L604.592 978.033C612.344 990.847 618.236 1016.07 606.868 1037.18L603.529 1035.38ZM578.734 1058.17C585.866 1056.45 595.796 1049.72 603.529 1035.38L606.868 1037.18C598.756 1052.22 588.049 1059.82 579.622 1061.85L578.734 1058.17ZM563.374 1055.18C567.363 1058.26 572.783 1059.6 578.734 1058.17L579.622 1061.85C572.586 1063.55 565.98 1061.99 561.056 1058.19L563.374 1055.18ZM560.797 1055.43L592.16 1020.08L594.997 1022.6L563.634 1057.94L560.797 1055.43ZM594.789 1022.8L558.667 1052.75L556.246 1049.83L592.368 1019.88L594.789 1022.8Z" fill="white" mask="url(#path-17-inside-3_938_832)"/>
<mask id="path-19-inside-4_938_832" fill="white">
<path fill-rule="evenodd" clip-rule="evenodd" d="M549.856 1051.29C553.091 1045.84 553.879 1038.5 550.778 1030.63C545.18 1019.22 538.112 1015.39 530.839 1011.45C521.439 1006.35 511.696 1001.07 504.343 979.015C496.825 991.442 491.157 1015.94 502.114 1036.28C510.037 1050.97 520.355 1058.13 528.135 1060.01C534.628 1061.57 540.641 1060.13 545.097 1056.69L513.734 1021.34L549.856 1051.29Z"/>
</mask>
<path fill-rule="evenodd" clip-rule="evenodd" d="M549.856 1051.29C553.091 1045.84 553.879 1038.5 550.778 1030.63C545.18 1019.22 538.112 1015.39 530.839 1011.45C521.439 1006.35 511.696 1001.07 504.343 979.015C496.825 991.442 491.157 1015.94 502.114 1036.28C510.037 1050.97 520.355 1058.13 528.135 1060.01C534.628 1061.57 540.641 1060.13 545.097 1056.69L513.734 1021.34L549.856 1051.29Z" fill="white"/>
<path d="M550.778 1030.63L552.542 1029.93L552.514 1029.86L552.48 1029.79L550.778 1030.63ZM549.856 1051.29L548.645 1052.75L550.354 1054.17L551.487 1052.26L549.856 1051.29ZM530.839 1011.45L531.743 1009.78V1009.78L530.839 1011.45ZM504.343 979.015L506.142 978.415L504.845 974.522L502.72 978.033L504.343 979.015ZM502.114 1036.28L500.444 1037.18L500.445 1037.18L502.114 1036.28ZM528.135 1060.01L527.69 1061.85L528.135 1060.01ZM545.097 1056.69L546.256 1058.19L547.864 1056.95L546.516 1055.43L545.097 1056.69ZM513.734 1021.34L514.945 1019.88L512.315 1022.6L513.734 1021.34ZM549.013 1031.32C551.92 1038.7 551.134 1045.42 548.225 1050.33L551.487 1052.26C555.048 1046.26 555.838 1038.29 552.542 1029.93L549.013 1031.32ZM529.935 1013.12C537.132 1017.02 543.749 1020.61 549.075 1031.46L552.48 1029.79C546.611 1017.83 539.093 1013.77 531.743 1009.78L529.935 1013.12ZM502.544 979.614C506.287 990.844 510.687 997.944 515.456 1002.91C520.213 1007.86 525.244 1010.57 529.935 1013.12L531.743 1009.78C527.034 1007.23 522.493 1004.76 518.191 1000.28C513.9 995.813 509.752 989.244 506.142 978.415L502.544 979.614ZM503.784 1035.38C493.237 1015.8 498.681 992.038 505.966 979.996L502.72 978.033C494.969 990.847 489.077 1016.07 500.444 1037.18L503.784 1035.38ZM528.579 1058.17C521.446 1056.45 511.517 1049.72 503.783 1035.38L500.445 1037.18C508.556 1052.22 519.264 1059.82 527.69 1061.85L528.579 1058.17ZM543.938 1055.18C539.95 1058.26 534.529 1059.6 528.579 1058.17L527.69 1061.85C534.727 1063.55 541.333 1061.99 546.256 1058.19L543.938 1055.18ZM546.516 1055.43L515.153 1020.08L512.315 1022.6L543.679 1057.95L546.516 1055.43ZM512.523 1022.8L548.645 1052.75L551.066 1049.83L514.945 1019.88L512.523 1022.8Z" fill="white" mask="url(#path-19-inside-4_938_832)"/>
<text fill="white" stroke="white" stroke-width="1.13795" xml:space="preserve" style="white-space: pre" font-family="Raleway" font-size="39.2781" font-weight="bold" letter-spacing="0em"><tspan x="515.025" y="992.865">OLS</tspan></text>
</g>
<defs>
<linearGradient id="paint0_linear_938_832" x1="145.974" y1="871.832" x2="764.544" y2="1074.6" gradientUnits="userSpaceOnUse">
<stop stop-color="#A5F200"/>
<stop offset="1" stop-color="#139D3D"/>
</linearGradient>
<clipPath id="clip0_938_832">
<rect x="648" width="1098" height="648" rx="4" transform="rotate(90 648 0)" fill="white"/>
</clipPath>
<clipPath id="clip1_938_832">
<rect width="40" height="40" fill="white" transform="translate(65 335)"/>
</clipPath>
</defs>
</svg>
