<svg width="4608" height="1152" viewBox="0 0 4608 1152" fill="none" xmlns="http://www.w3.org/2000/svg">
<g clip-path="url(#clip0_926_185)">
<rect width="4608" height="1152" fill="#139D3D"/>
<path d="M1121.29 307.937C1830.27 261.568 2214.53 898.075 1893.06 1426.33C1740.67 1676.75 1375.34 1956.57 774.282 2068.68C-57.8072 2223.47 -848.882 1751.87 -1198.35 1350.66C312.282 1333.17 65.8134 463.29 1121.29 307.937Z" fill="url(#paint0_linear_926_185)"/>
<path d="M241.848 801.664C460.315 592.479 669.073 392.591 1123.16 325.579C1471.56 303.015 1738.21 448.006 1878.79 661.401C2019.47 874.953 2035.14 1158.76 1877.92 1417.12C1728.76 1662.22 1368.44 1939.83 771.04 2051.26C-33.3426 2200.88 -800.63 1759.1 -1159.31 1367.74C-800.222 1359.96 -541.388 1303.05 -340.172 1218.54C-131.676 1130.98 13.8661 1014.24 144.173 894.025C177.479 863.298 209.768 832.381 241.848 801.664Z" stroke="#139D3D" stroke-opacity="0.47" stroke-width="35.4531"/>
<g opacity="0.5" filter="url(#filter0_d_926_185)">
<path d="M4536.52 196.984C4796.19 855.732 4309 1414.04 3709.88 1269.64C3425.87 1201.19 3049.17 939.591 2759.93 403.264C2359.93 -339.344 2566.85 -1233.56 2841.32 -1687.27C3317.44 -258.933 4068.02 -757.452 4536.52 196.984Z" fill="url(#paint1_linear_926_185)"/>
</g>
<path d="M3636.06 637.163C3785.2 496.235 3927.7 361.577 4236.03 318.149C4472.46 304.4 4652.69 403.944 4747.09 549.321C4841.56 694.805 4850.93 887.383 4743.12 1061.93C4640.85 1227.53 4395.18 1414.24 3989.43 1487.16C3443.15 1585.05 2924.67 1281.99 2683.08 1014.93C2926.67 1011.25 3102.49 973.796 3239.36 917.373C3381.2 858.902 3480.45 780.353 3569.39 699.383C3592.12 678.688 3614.16 657.858 3636.06 637.163Z" fill="url(#paint2_linear_926_185)" stroke="white" stroke-width="24.1331"/>
<mask id="path-5-inside-1_926_185" fill="white">
<path fill-rule="evenodd" clip-rule="evenodd" d="M4247.1 968.893C4234.55 947.738 4231.5 919.252 4243.53 888.738C4265.24 844.505 4292.66 829.644 4320.87 814.352C4357.33 794.587 4395.12 774.102 4423.64 688.542C4452.8 736.747 4474.78 831.755 4432.28 910.654C4401.55 967.638 4361.53 995.432 4331.36 1002.7C4306.17 1008.77 4282.84 1003.16 4265.56 989.811L4387.21 852.718L4247.1 968.893Z"/>
</mask>
<path fill-rule="evenodd" clip-rule="evenodd" d="M4247.1 968.893C4234.55 947.738 4231.5 919.252 4243.53 888.738C4265.24 844.505 4292.66 829.644 4320.87 814.352C4357.33 794.587 4395.12 774.102 4423.64 688.542C4452.8 736.747 4474.78 831.755 4432.28 910.654C4401.55 967.638 4361.53 995.432 4331.36 1002.7C4306.17 1008.77 4282.84 1003.16 4265.56 989.811L4387.21 852.718L4247.1 968.893Z" fill="white"/>
<path d="M4243.53 888.738L4236.68 886.04L4236.79 885.763L4236.92 885.496L4243.53 888.738ZM4247.1 968.893L4251.8 974.555L4245.17 980.053L4240.77 972.645L4247.1 968.893ZM4320.87 814.352L4317.36 807.885L4320.87 814.352ZM4423.64 688.542L4416.66 686.215L4421.69 671.114L4429.93 684.734L4423.64 688.542ZM4432.28 910.654L4438.76 914.143L4438.76 914.146L4432.28 910.654ZM4331.36 1002.7L4329.63 995.552H4329.63L4331.36 1002.7ZM4265.56 989.811L4261.06 995.634L4254.83 990.82L4260.05 984.928L4265.56 989.811ZM4387.21 852.718L4382.51 847.055L4392.71 857.6L4387.21 852.718ZM4250.37 891.436C4239.1 920.032 4242.14 946.115 4253.43 965.14L4240.77 972.645C4226.96 949.361 4223.9 918.472 4236.68 886.04L4250.37 891.436ZM4324.37 820.82C4296.46 835.95 4270.79 849.895 4250.13 891.979L4236.92 885.496C4259.69 839.115 4288.85 823.338 4317.36 807.885L4324.37 820.82ZM4430.62 690.868C4416.1 734.424 4399.03 761.966 4380.53 781.217C4362.08 800.423 4342.57 810.955 4324.37 820.82L4317.36 807.885C4335.62 797.985 4353.24 788.391 4369.92 771.024C4386.57 753.701 4402.66 728.22 4416.66 686.215L4430.62 690.868ZM4425.81 907.166C4466.71 831.224 4445.6 739.058 4417.34 692.349L4429.93 684.734C4460 734.436 4482.85 832.286 4438.76 914.143L4425.81 907.166ZM4329.63 995.552C4357.3 988.884 4395.81 962.787 4425.81 907.163L4438.76 914.146C4407.3 972.488 4365.76 1001.98 4333.08 1009.86L4329.63 995.552ZM4270.05 983.988C4285.52 995.933 4306.55 1001.12 4329.63 995.552L4333.08 1009.86C4305.78 1016.43 4280.16 1010.38 4261.06 995.634L4270.05 983.988ZM4260.05 984.928L4381.7 847.835L4392.71 857.6L4271.06 994.693L4260.05 984.928ZM4391.9 858.38L4251.8 974.555L4242.41 963.23L4382.51 847.055L4391.9 858.38Z" fill="white" mask="url(#path-5-inside-1_926_185)"/>
<mask id="path-7-inside-2_926_185" fill="white">
<path fill-rule="evenodd" clip-rule="evenodd" d="M4217.63 968.893C4230.17 947.738 4233.23 919.252 4221.2 888.738C4199.49 844.505 4172.07 829.644 4143.86 814.352C4107.4 794.587 4069.61 774.102 4041.09 688.542C4011.93 736.747 3989.94 831.755 4032.44 910.654C4063.17 967.638 4103.2 995.432 4133.37 1002.7C4158.56 1008.77 4181.89 1003.16 4199.17 989.811L4077.52 852.718L4217.63 968.893Z"/>
</mask>
<path fill-rule="evenodd" clip-rule="evenodd" d="M4217.63 968.893C4230.17 947.738 4233.23 919.252 4221.2 888.738C4199.49 844.505 4172.07 829.644 4143.86 814.352C4107.4 794.587 4069.61 774.102 4041.09 688.542C4011.93 736.747 3989.94 831.755 4032.44 910.654C4063.17 967.638 4103.2 995.432 4133.37 1002.7C4158.56 1008.77 4181.89 1003.16 4199.17 989.811L4077.52 852.718L4217.63 968.893Z" fill="white"/>
<path d="M4221.2 888.738L4228.04 886.04L4227.93 885.763L4227.8 885.496L4221.2 888.738ZM4217.63 968.893L4212.93 974.555L4219.56 980.053L4223.95 972.645L4217.63 968.893ZM4143.86 814.352L4147.37 807.885L4143.86 814.352ZM4041.09 688.542L4048.07 686.215L4043.03 671.114L4034.8 684.734L4041.09 688.542ZM4032.44 910.654L4025.97 914.143L4025.97 914.146L4032.44 910.654ZM4133.37 1002.7L4131.65 1009.86H4131.65L4133.37 1002.7ZM4199.17 989.811L4203.67 995.634L4209.9 990.82L4204.67 984.928L4199.17 989.811ZM4077.52 852.718L4082.22 847.055L4072.02 857.6L4077.52 852.718ZM4214.36 891.436C4225.63 920.032 4222.58 946.115 4211.3 965.14L4223.95 972.645C4237.76 949.361 4240.83 918.472 4228.04 886.04L4214.36 891.436ZM4140.36 820.82C4168.27 835.95 4193.94 849.895 4214.6 891.98L4227.8 885.496C4205.04 839.115 4175.88 823.338 4147.37 807.885L4140.36 820.82ZM4034.11 690.868C4048.63 734.424 4065.7 761.966 4084.19 781.217C4102.65 800.423 4122.16 810.955 4140.36 820.82L4147.37 807.885C4129.1 797.985 4111.49 788.391 4094.8 771.023C4078.16 753.701 4062.07 728.22 4048.07 686.215L4034.11 690.868ZM4038.92 907.166C3998.01 831.224 4019.13 739.058 4047.38 692.349L4034.8 684.734C4004.73 734.436 3981.87 832.286 4025.97 914.143L4038.92 907.166ZM4135.1 995.552C4107.43 988.884 4068.92 962.787 4038.92 907.163L4025.97 914.146C4057.43 972.488 4098.96 1001.98 4131.65 1009.86L4135.1 995.552ZM4194.67 983.988C4179.2 995.933 4158.18 1001.12 4135.1 995.552L4131.65 1009.86C4158.94 1016.43 4184.57 1010.38 4203.67 995.634L4194.67 983.988ZM4204.67 984.928L4083.02 847.835L4072.02 857.6L4193.67 994.693L4204.67 984.928ZM4072.83 858.38L4212.93 974.555L4222.32 963.23L4082.22 847.055L4072.83 858.38Z" fill="white" mask="url(#path-7-inside-2_926_185)"/>
<text fill="white" stroke="white" stroke-width="4.41387" xml:space="preserve" style="white-space: pre" font-family="Raleway" font-size="152.352" font-weight="bold" letter-spacing="0em"><tspan x="4082.52" y="742.553">OLS</tspan></text>
<text fill="white" stroke="#A5F200" stroke-width="2.90909" xml:space="preserve" style="white-space: pre" font-family="Raleway" font-size="139.636" font-weight="800" letter-spacing="0.02em"><tspan x="1248.42" y="694.565"> Open Research Ambassadors.</tspan></text>
<text fill="white" stroke="#A5F200" stroke-width="2.90909" xml:space="preserve" style="white-space: pre" font-family="Raleway" font-size="104.727" letter-spacing="0.02em"><tspan x="1411.22" y="523.105">A Mentoring &#38; Training Program For</tspan></text>
</g>
<defs>
<filter id="filter0_d_926_185" x="2240" y="-1873.45" width="2373.82" height="3282.41" filterUnits="userSpaceOnUse" color-interpolation-filters="sRGB">
<feFlood flood-opacity="0" result="BackgroundImageFix"/>
<feColorMatrix in="SourceAlpha" type="matrix" values="0 0 0 0 0 0 0 0 0 0 0 0 0 0 0 0 0 0 127 0" result="hardAlpha"/>
<feOffset dx="-145.455" dy="-34.9091"/>
<feGaussianBlur stdDeviation="75.6364"/>
<feComposite in2="hardAlpha" operator="out"/>
<feColorMatrix type="matrix" values="0 0 0 0 0.104722 0 0 0 0 0.433333 0 0 0 0 0.204734 0 0 0 0.13 0"/>
<feBlend mode="normal" in2="BackgroundImageFix" result="effect1_dropShadow_926_185"/>
<feBlend mode="normal" in="SourceGraphic" in2="effect1_dropShadow_926_185" result="shape"/>
</filter>
<linearGradient id="paint0_linear_926_185" x1="-1671.43" y1="428.725" x2="1872.88" y2="1564.76" gradientUnits="userSpaceOnUse">
<stop stop-color="#A5F200"/>
<stop offset="1" stop-color="#139D3D"/>
</linearGradient>
<linearGradient id="paint1_linear_926_185" x1="3572.37" y1="-2416.69" x2="3572.37" y2="1292.59" gradientUnits="userSpaceOnUse">
<stop stop-color="#A5F200"/>
<stop offset="1" stop-color="#139D3D"/>
</linearGradient>
<linearGradient id="paint2_linear_926_185" x1="2339.78" y1="375.59" x2="4739.08" y2="1162.09" gradientUnits="userSpaceOnUse">
<stop stop-color="#A5F200"/>
<stop offset="1" stop-color="#139D3D"/>
</linearGradient>
<clipPath id="clip0_926_185">
<rect width="4608" height="1152" fill="white"/>
</clipPath>
</defs>
</svg>
