<svg width="1280" height="720" viewBox="0 0 1280 720" fill="none" xmlns="http://www.w3.org/2000/svg">
<g clip-path="url(#clip0_959_388)">
<rect width="1280" height="720" fill="white"/>
<rect width="327" height="287" fill="#020887"/>
<text fill="white" xml:space="preserve" style="white-space: pre" font-family="Raleway" font-size="24" font-weight="500" letter-spacing="0px"><tspan x="61.0156" y="117.472">COHORT CALL</tspan></text>
<text fill="white" xml:space="preserve" style="white-space: pre" font-family="Raleway" font-size="48" font-weight="bold" letter-spacing="0px"><tspan x="60.1562" y="181.444">WEEK 02</tspan></text>
<rect width="327" height="433" transform="translate(0 287)" fill="#139D3D"/>
<text fill="white" xml:space="preserve" style="white-space: pre" font-family="Raleway" font-size="48" font-weight="600" letter-spacing="0em"><tspan x="25" y="660.944">Open Seeds</tspan></text>
<text fill="white" xml:space="preserve" style="white-space: pre" font-family="Raleway" font-size="14" font-weight="bold" letter-spacing="0.08em"><tspan x="74.5558" y="685.442">Mentoring &#38; Training Program</tspan></text>
<mask id="path-5-inside-1_959_388" fill="white">
<path fill-rule="evenodd" clip-rule="evenodd" d="M76.4887 625.804C75.647 624.385 75.4421 622.475 76.2489 620.428C77.7052 617.461 79.544 616.464 81.4361 615.439C83.8818 614.113 86.4165 612.739 88.3294 607C90.2853 610.233 91.76 616.606 88.9094 621.898C86.8482 625.72 84.1637 627.584 82.1398 628.072C80.4504 628.479 78.886 628.102 77.7267 627.207L85.8864 618.012L76.4887 625.804Z"/>
</mask>
<path fill-rule="evenodd" clip-rule="evenodd" d="M76.4887 625.804C75.647 624.385 75.4421 622.475 76.2489 620.428C77.7052 617.461 79.544 616.464 81.4361 615.439C83.8818 614.113 86.4165 612.739 88.3294 607C90.2853 610.233 91.76 616.606 88.9094 621.898C86.8482 625.72 84.1637 627.584 82.1398 628.072C80.4504 628.479 78.886 628.102 77.7267 627.207L85.8864 618.012L76.4887 625.804Z" fill="white"/>
<path d="M76.2489 620.428L75.7898 620.247L75.7972 620.228L75.806 620.21L76.2489 620.428ZM76.4887 625.804L76.8036 626.184L76.359 626.553L76.0643 626.056L76.4887 625.804ZM81.4361 615.439L81.201 615.005L81.4361 615.439ZM88.3294 607L87.8613 606.844L88.199 605.831L88.7516 606.745L88.3294 607ZM88.9094 621.898L89.3438 622.132L89.3437 622.132L88.9094 621.898ZM82.1398 628.072L82.0242 627.592L82.1398 628.072ZM77.7267 627.207L77.4252 627.598L77.0069 627.275L77.3576 626.88L77.7267 627.207ZM85.8864 618.012L85.5714 617.632L86.2554 618.339L85.8864 618.012ZM76.7079 620.609C75.9518 622.527 76.1561 624.276 76.9131 625.552L76.0643 626.056C75.1379 624.494 74.9323 622.422 75.7898 620.247L76.7079 620.609ZM81.6713 615.872C79.7991 616.887 78.0774 617.822 76.6918 620.645L75.806 620.21C77.333 617.099 79.2889 616.041 81.201 615.005L81.6713 615.872ZM88.7975 607.156C87.8237 610.077 86.679 611.925 85.4383 613.216C84.2006 614.504 82.8919 615.211 81.6713 615.872L81.201 615.005C82.426 614.341 83.6075 613.697 84.7267 612.532C85.8431 611.37 86.9222 609.661 87.8613 606.844L88.7975 607.156ZM88.475 621.664C91.2187 616.57 89.8024 610.388 87.9072 607.255L88.7516 606.745C90.7682 610.078 92.3012 616.641 89.3438 622.132L88.475 621.664ZM82.0242 627.592C83.8799 627.145 86.4631 625.395 88.4751 621.664L89.3437 622.132C87.2334 626.045 84.4476 628.023 82.2554 628.552L82.0242 627.592ZM78.0282 626.817C79.0659 627.618 80.4761 627.965 82.0242 627.592L82.2554 628.552C80.4247 628.993 78.7061 628.587 77.4252 627.598L78.0282 626.817ZM77.3576 626.88L85.5173 617.684L86.2554 618.339L78.0957 627.535L77.3576 626.88ZM86.2013 618.391L76.8036 626.184L76.1737 625.424L85.5714 617.632L86.2013 618.391Z" fill="white" mask="url(#path-5-inside-1_959_388)"/>
<mask id="path-7-inside-2_959_388" fill="white">
<path fill-rule="evenodd" clip-rule="evenodd" d="M74.5113 625.804C75.353 624.385 75.5579 622.475 74.7511 620.428C73.2948 617.461 71.456 616.464 69.5639 615.439C67.1182 614.113 64.5835 612.739 62.6706 607C60.7147 610.233 59.24 616.606 62.0906 621.898C64.1518 625.72 66.8363 627.584 68.8602 628.072C70.5496 628.479 72.114 628.102 73.2733 627.207L65.1137 618.012L74.5113 625.804Z"/>
</mask>
<path fill-rule="evenodd" clip-rule="evenodd" d="M74.5113 625.804C75.353 624.385 75.5579 622.475 74.7511 620.428C73.2948 617.461 71.456 616.464 69.5639 615.439C67.1182 614.113 64.5835 612.739 62.6706 607C60.7147 610.233 59.24 616.606 62.0906 621.898C64.1518 625.72 66.8363 627.584 68.8602 628.072C70.5496 628.479 72.114 628.102 73.2733 627.207L65.1137 618.012L74.5113 625.804Z" fill="white"/>
<path d="M74.7511 620.428L75.2102 620.247L75.2028 620.228L75.194 620.21L74.7511 620.428ZM74.5113 625.804L74.1964 626.184L74.641 626.553L74.9357 626.056L74.5113 625.804ZM69.5639 615.439L69.799 615.005L69.5639 615.439ZM62.6706 607L63.1387 606.844L62.801 605.831L62.2484 606.745L62.6706 607ZM62.0906 621.898L61.6562 622.132L61.6563 622.132L62.0906 621.898ZM68.8602 628.072L68.9758 627.592L68.8602 628.072ZM73.2733 627.207L73.5748 627.598L73.9931 627.275L73.6424 626.88L73.2733 627.207ZM65.1137 618.012L65.4286 617.632L64.7446 618.339L65.1137 618.012ZM74.2921 620.609C75.0482 622.527 74.8439 624.276 74.0869 625.552L74.9357 626.056C75.8621 624.494 76.0677 622.422 75.2102 620.247L74.2921 620.609ZM69.3287 615.872C71.2009 616.887 72.9226 617.822 74.3082 620.645L75.194 620.21C73.667 617.099 71.7111 616.041 69.799 615.005L69.3287 615.872ZM62.2025 607.156C63.1763 610.077 64.321 611.925 65.5617 613.216C66.7994 614.504 68.1081 615.211 69.3287 615.872L69.799 615.005C68.574 614.341 67.3925 613.697 66.2733 612.532C65.1569 611.37 64.0778 609.661 63.1387 606.844L62.2025 607.156ZM62.525 621.664C59.7813 616.57 61.1976 610.388 63.0928 607.255L62.2484 606.745C60.2318 610.078 58.6988 616.641 61.6562 622.132L62.525 621.664ZM68.9758 627.592C67.1201 627.145 64.5369 625.395 62.5249 621.664L61.6563 622.132C63.7666 626.045 66.5524 628.023 68.7446 628.552L68.9758 627.592ZM72.9718 626.817C71.9341 627.618 70.5239 627.965 68.9758 627.592L68.7446 628.552C70.5753 628.993 72.2939 628.587 73.5748 627.598L72.9718 626.817ZM73.6424 626.88L65.4827 617.684L64.7446 618.339L72.9043 627.535L73.6424 626.88ZM64.7987 618.392L74.1964 626.184L74.8263 625.424L65.4286 617.632L64.7987 618.392Z" fill="white" mask="url(#path-7-inside-2_959_388)"/>
<line x1="26.5" y1="684" x2="70.5" y2="684" stroke="white" stroke-width="3" stroke-linecap="round"/>
<rect width="955" height="50" transform="translate(325 259)" fill="#020887"/>
<text fill="white" xml:space="preserve" style="white-space: pre" font-family="Raleway" font-size="24" font-weight="600" letter-spacing="0.315em"><tspan x="625" y="292.972">February - 27 -2023</tspan></text>
<text fill="#EEEFEC" xml:space="preserve" style="white-space: pre" font-family="Raleway" font-size="200" font-weight="800" letter-spacing="0em"><tspan x="1137" y="656.1">7</tspan></text>
<circle cx="326" cy="287" r="62.25" fill="#020887"/>
<mask id="path-13-inside-3_959_388" fill="white">
<path fill-rule="evenodd" clip-rule="evenodd" d="M328.337 314.033C326.359 310.697 325.878 306.206 327.775 301.394C331.198 294.42 335.521 292.076 339.97 289.665C345.719 286.548 351.678 283.318 356.175 269.826C360.774 277.427 364.24 292.409 357.539 304.85C352.693 313.836 346.382 318.219 341.624 319.365C337.652 320.323 333.973 319.436 331.247 317.332L350.43 295.714L328.337 314.033Z"/>
</mask>
<path fill-rule="evenodd" clip-rule="evenodd" d="M328.337 314.033C326.359 310.697 325.878 306.206 327.775 301.394C331.198 294.42 335.521 292.076 339.97 289.665C345.719 286.548 351.678 283.318 356.175 269.826C360.774 277.427 364.24 292.409 357.539 304.85C352.693 313.836 346.382 318.219 341.624 319.365C337.652 320.323 333.973 319.436 331.247 317.332L350.43 295.714L328.337 314.033Z" fill="white"/>
<path d="M327.775 301.394L326.695 300.969L326.713 300.925L326.733 300.883L327.775 301.394ZM328.337 314.033L329.078 314.926L328.032 315.793L327.34 314.625L328.337 314.033ZM339.97 289.665L340.522 290.685H340.522L339.97 289.665ZM356.175 269.826L355.075 269.459L355.869 267.078L357.168 269.226L356.175 269.826ZM357.539 304.85L358.56 305.401L358.56 305.401L357.539 304.85ZM341.624 319.365L341.896 320.493L341.624 319.365ZM331.247 317.332L330.538 318.25L329.555 317.491L330.38 316.562L331.247 317.332ZM350.43 295.714L349.69 294.821L351.298 296.483L350.43 295.714ZM328.854 301.82C327.076 306.329 327.556 310.441 329.335 313.441L327.34 314.625C325.162 310.953 324.68 306.083 326.695 300.969L328.854 301.82ZM340.522 290.685C336.121 293.071 332.073 295.269 328.816 301.906L326.733 300.883C330.323 293.57 334.922 291.082 339.417 288.645L340.522 290.685ZM357.276 270.193C354.986 277.061 352.295 281.404 349.379 284.44C346.469 287.468 343.392 289.129 340.522 290.685L339.417 288.645C342.297 287.084 345.074 285.571 347.706 282.832C350.33 280.101 352.867 276.083 355.075 269.459L357.276 270.193ZM356.518 304.3C362.968 292.325 359.638 277.792 355.183 270.427L357.168 269.226C361.909 277.063 365.513 292.493 358.56 305.401L356.518 304.3ZM341.352 318.238C345.715 317.186 351.788 313.071 356.518 304.3L358.56 305.401C353.599 314.601 347.049 319.251 341.896 320.493L341.352 318.238ZM331.956 316.414C334.396 318.298 337.712 319.115 341.352 318.238L341.896 320.493C337.591 321.531 333.55 320.575 330.538 318.25L331.956 316.414ZM330.38 316.562L349.562 294.944L351.298 296.483L332.115 318.102L330.38 316.562ZM351.171 296.607L329.078 314.926L327.597 313.14L349.69 294.821L351.171 296.607Z" fill="white" mask="url(#path-13-inside-3_959_388)"/>
<mask id="path-15-inside-4_959_388" fill="white">
<path fill-rule="evenodd" clip-rule="evenodd" d="M323.691 314.033C325.669 310.697 326.15 306.206 324.254 301.394C320.83 294.42 316.507 292.076 312.059 289.665C306.309 286.548 300.35 283.318 295.853 269.826C291.255 277.427 287.788 292.409 294.489 304.85C299.335 313.836 305.646 318.219 310.405 319.365C314.377 320.323 318.055 319.436 320.781 317.332L301.598 295.713L323.691 314.033Z"/>
</mask>
<path fill-rule="evenodd" clip-rule="evenodd" d="M323.691 314.033C325.669 310.697 326.15 306.206 324.254 301.394C320.83 294.42 316.507 292.076 312.059 289.665C306.309 286.548 300.35 283.318 295.853 269.826C291.255 277.427 287.788 292.409 294.489 304.85C299.335 313.836 305.646 318.219 310.405 319.365C314.377 320.323 318.055 319.436 320.781 317.332L301.598 295.713L323.691 314.033Z" fill="white"/>
<path d="M324.254 301.394L325.333 300.969L325.316 300.925L325.295 300.883L324.254 301.394ZM323.691 314.033L322.95 314.926L323.996 315.793L324.689 314.624L323.691 314.033ZM312.059 289.665L311.506 290.685L312.059 289.665ZM295.853 269.826L296.953 269.459L296.16 267.078L294.86 269.226L295.853 269.826ZM294.489 304.85L293.468 305.401L293.468 305.401L294.489 304.85ZM310.405 319.365L310.676 318.238L310.405 319.365ZM320.781 317.332L321.49 318.25L322.473 317.491L321.649 316.562L320.781 317.332ZM301.598 295.713L302.339 294.82L300.73 296.483L301.598 295.713ZM323.175 301.82C324.952 306.329 324.472 310.441 322.693 313.441L324.689 314.624C326.866 310.953 327.349 306.083 325.333 300.969L323.175 301.82ZM311.506 290.685C315.907 293.071 319.955 295.269 323.212 301.906L325.295 300.883C321.705 293.57 317.107 291.082 312.612 288.645L311.506 290.685ZM294.752 270.193C297.042 277.061 299.733 281.404 302.65 284.44C305.56 287.468 308.636 289.129 311.506 290.685L312.612 288.645C309.732 287.084 306.954 285.571 304.323 282.832C301.698 280.101 299.161 276.083 296.953 269.459L294.752 270.193ZM295.511 304.3C289.06 292.325 292.39 277.792 296.845 270.427L294.86 269.226C290.119 277.063 286.515 292.493 293.468 305.401L295.511 304.3ZM310.676 318.238C306.314 317.186 300.241 313.071 295.51 304.3L293.468 305.401C298.43 314.601 304.979 319.251 310.133 320.493L310.676 318.238ZM320.072 316.414C317.632 318.297 314.316 319.115 310.676 318.238L310.133 320.493C314.437 321.531 318.478 320.575 321.49 318.25L320.072 316.414ZM321.649 316.562L302.466 294.944L300.73 296.483L319.913 318.102L321.649 316.562ZM300.858 296.606L322.95 314.926L324.431 313.14L302.339 294.82L300.858 296.606Z" fill="white" mask="url(#path-15-inside-4_959_388)"/>
<text fill="white" stroke="white" stroke-width="0.696009" xml:space="preserve" style="white-space: pre" font-family="Raleway" font-size="24.0238" font-weight="bold" letter-spacing="0em"><tspan x="302.385" y="278.231">OLS</tspan></text>
<text fill="#139D3D" xml:space="preserve" style="white-space: pre" font-family="Raleway" font-size="96" font-weight="bold" letter-spacing="0em"><tspan x="389" y="116.388">welcome &#10;</tspan><tspan x="389" y="211.388">to open seeds! </tspan></text>
<text fill="#515853" xml:space="preserve" style="white-space: pre" font-family="Raleway" font-size="36" letter-spacing="0em"><tspan x="555.43" y="380.708"> and empowering for </tspan><tspan x="389" y="430.708">inclusivity.</tspan></text>
<text fill="#515853" xml:space="preserve" style="white-space: pre" font-family="Raleway" font-size="36" letter-spacing="0em"><tspan x="389" y="380.708">Designing</tspan></text>
</g>
<defs>
<clipPath id="clip0_959_388">
<rect width="1280" height="720" fill="white"/>
</clipPath>
</defs>
</svg>
