<svg width="500" height="500" viewBox="0 0 500 500" fill="none" xmlns="http://www.w3.org/2000/svg">
<mask id="path-1-inside-1_1004_549" fill="white">
<path fill-rule="evenodd" clip-rule="evenodd" d="M257.711 315.374C251.147 304.307 249.548 289.404 255.841 273.439C267.201 250.298 281.543 242.523 296.302 234.523C315.378 224.183 335.148 213.465 350.07 168.703C365.326 193.922 376.828 243.628 354.593 284.906C338.516 314.718 317.577 329.258 301.79 333.063C288.613 336.239 276.409 333.299 267.367 326.318L331.01 254.595L257.711 315.374Z"/>
</mask>
<path fill-rule="evenodd" clip-rule="evenodd" d="M257.711 315.374C251.147 304.307 249.548 289.404 255.841 273.439C267.201 250.298 281.543 242.523 296.302 234.523C315.378 224.183 335.148 213.465 350.07 168.703C365.326 193.922 376.828 243.628 354.593 284.906C338.516 314.718 317.577 329.258 301.79 333.063C288.613 336.239 276.409 333.299 267.367 326.318L331.01 254.595L257.711 315.374Z" fill="url(#paint0_linear_1004_549)"/>
<path d="M255.841 273.439L252.261 272.028L252.318 271.883L252.386 271.744L255.841 273.439ZM257.711 315.374L260.168 318.337L256.699 321.213L254.401 317.338L257.711 315.374ZM296.302 234.523L298.136 237.907L296.302 234.523ZM350.07 168.703L346.418 167.486L349.052 159.585L353.363 166.711L350.07 168.703ZM354.593 284.906L357.982 286.731L357.981 286.732L354.593 284.906ZM301.79 333.063L302.692 336.805L301.79 333.063ZM267.367 326.318L265.014 329.364L261.753 326.846L264.488 323.763L267.367 326.318ZM331.01 254.595L328.553 251.632L333.889 257.149L331.01 254.595ZM259.422 274.851C253.524 289.812 255.118 303.458 261.021 313.411L254.401 317.338C247.175 305.156 245.572 288.996 252.261 272.028L259.422 274.851ZM298.136 237.907C283.533 245.822 270.104 253.118 259.296 275.135L252.386 271.744C264.298 247.478 279.554 239.224 294.468 231.14L298.136 237.907ZM353.721 169.92C346.125 192.707 337.196 207.116 327.519 217.188C317.865 227.236 307.657 232.746 298.136 237.907L294.468 231.14C304.023 225.96 313.238 220.941 321.968 211.855C330.676 202.792 339.093 189.461 346.418 167.486L353.721 169.92ZM351.205 283.08C372.606 243.35 361.559 195.131 346.777 170.695L353.363 166.711C369.092 192.713 381.05 243.906 357.982 286.731L351.205 283.08ZM300.888 329.322C315.363 325.833 335.512 312.18 351.206 283.079L357.981 286.732C341.52 317.255 319.791 332.684 302.692 336.805L300.888 329.322ZM269.719 323.272C277.812 329.521 288.813 332.232 300.888 329.322L302.692 336.805C288.412 340.246 275.006 337.078 265.014 329.364L269.719 323.272ZM264.488 323.763L328.131 252.04L333.889 257.149L270.245 328.872L264.488 323.763ZM333.466 257.558L260.168 318.337L255.254 312.412L328.553 251.632L333.466 257.558Z" fill="#139D3D" fill-opacity="0.47" mask="url(#path-1-inside-1_1004_549)"/>
<mask id="path-3-inside-2_1004_549" fill="white">
<path fill-rule="evenodd" clip-rule="evenodd" d="M242.289 315.374C248.853 304.307 250.452 289.404 244.159 273.44C232.799 250.298 218.457 242.523 203.698 234.523C184.622 224.183 164.852 213.466 149.93 168.703C134.674 193.922 123.172 243.628 145.407 284.906C161.484 314.718 182.423 329.259 198.21 333.063C211.387 336.239 223.591 333.3 232.633 326.318L168.99 254.595L242.289 315.374Z"/>
</mask>
<path fill-rule="evenodd" clip-rule="evenodd" d="M242.289 315.374C248.853 304.307 250.452 289.404 244.159 273.44C232.799 250.298 218.457 242.523 203.698 234.523C184.622 224.183 164.852 213.466 149.93 168.703C134.674 193.922 123.172 243.628 145.407 284.906C161.484 314.718 182.423 329.259 198.21 333.063C211.387 336.239 223.591 333.3 232.633 326.318L168.99 254.595L242.289 315.374Z" fill="url(#paint1_linear_1004_549)"/>
<path d="M244.159 273.44L247.739 272.028L247.682 271.883L247.614 271.744L244.159 273.44ZM242.289 315.374L239.832 318.337L243.301 321.213L245.599 317.338L242.289 315.374ZM203.698 234.523L201.864 237.907L203.698 234.523ZM149.93 168.703L153.582 167.486L150.948 159.585L146.637 166.711L149.93 168.703ZM145.407 284.906L142.018 286.731L142.019 286.732L145.407 284.906ZM198.21 333.063L197.308 336.805L198.21 333.063ZM232.633 326.318L234.986 329.364L238.247 326.846L235.512 323.764L232.633 326.318ZM168.99 254.595L171.447 251.632L166.111 257.149L168.99 254.595ZM240.578 274.851C246.476 289.812 244.882 303.458 238.979 313.411L245.599 317.338C252.825 305.156 254.428 288.996 247.739 272.028L240.578 274.851ZM201.864 237.907C216.467 245.823 229.896 253.118 240.704 275.135L247.614 271.744C235.702 247.478 220.446 239.224 205.532 231.14L201.864 237.907ZM146.279 169.92C153.875 192.707 162.804 207.116 172.481 217.188C182.135 227.236 192.343 232.746 201.864 237.907L205.532 231.14C195.977 225.96 186.762 220.941 178.032 211.855C169.324 202.792 160.907 189.461 153.582 167.486L146.279 169.92ZM148.795 283.081C127.394 243.35 138.441 195.131 153.223 170.695L146.637 166.711C130.908 192.713 118.95 243.906 142.018 286.731L148.795 283.081ZM199.112 329.322C184.637 325.833 164.488 312.18 148.794 283.079L142.019 286.732C158.48 317.255 180.209 332.684 197.308 336.805L199.112 329.322ZM230.281 323.272C222.188 329.521 211.187 332.232 199.112 329.322L197.308 336.805C211.588 340.247 224.994 337.078 234.986 329.364L230.281 323.272ZM235.512 323.764L171.869 252.04L166.111 257.149L229.755 328.872L235.512 323.764ZM166.534 257.558L239.832 318.337L244.746 312.412L171.447 251.632L166.534 257.558Z" fill="#139D3D" fill-opacity="0.47" mask="url(#path-3-inside-2_1004_549)"/>
<text fill="url(#paint2_linear_1004_549)" stroke="#139D3D" stroke-opacity="0.12" stroke-width="2.30921" xml:space="preserve" style="white-space: pre" font-family="Raleway" font-size="79.7059" font-weight="bold" letter-spacing="0em"><tspan x="171.607" y="197.136">OLS</tspan></text>
<text fill="white" xml:space="preserve" style="white-space: pre" font-family="Raleway" font-size="23.7011" font-weight="600" letter-spacing="0em"><tspan x="130" y="372.366">Optimum Lime Street</tspan></text>
<defs>
<linearGradient id="paint0_linear_1004_549" x1="309.434" y1="128.158" x2="309.434" y2="334.339" gradientUnits="userSpaceOnUse">
<stop stop-color="#A5F200"/>
<stop offset="1" stop-color="#139D3D"/>
</linearGradient>
<linearGradient id="paint1_linear_1004_549" x1="190.566" y1="128.158" x2="190.566" y2="334.339" gradientUnits="userSpaceOnUse">
<stop stop-color="#A5F200"/>
<stop offset="1" stop-color="#139D3D"/>
</linearGradient>
<linearGradient id="paint2_linear_1004_549" x1="249.607" y1="55.3525" x2="249.607" y2="216" gradientUnits="userSpaceOnUse">
<stop stop-color="#A5F200"/>
<stop offset="1" stop-color="#139D3D"/>
</linearGradient>
</defs>
</svg>
